<svg width="26" height="26" viewBox="0 0 26 26" fill="none" xmlns="http://www.w3.org/2000/svg">
<path d="M14.8897 1.48043C13.9835 0.574233 12.5149 0.574233 11.6087 1.48043L7.07304 6.01764L13.2492 12.1954L19.427 6.01764L14.8882 1.48043H14.8897ZM20.53 7.12226L14.3554 13.3L20.5331 19.4777L25.0704 14.939C25.9765 14.0328 25.9765 12.5657 25.0704 11.661L20.5331 7.12226H20.53ZM19.427 20.5808L13.2492 14.4062L7.07148 20.5839L11.6103 25.1211C12.5165 26.0273 13.9835 26.0273 14.8882 25.1211L19.427 20.5839V20.5808ZM5.96842 19.4777L12.143 13.3L5.96686 7.12226L1.42965 11.661C0.523452 12.5672 0.523452 14.0343 1.42965 14.939L5.96686 19.4777H5.96842Z" fill="#F8A034"/>
</svg>
