<svg xmlns="http://www.w3.org/2000/svg" xmlns:xlink="http://www.w3.org/1999/xlink" viewBox="0 0 720 504"><defs><style>.cls-1{fill:#fff;}.cls-2{fill:url(#linear-gradient);}.cls-3{fill:#f59059;}.cls-11,.cls-18,.cls-4,.cls-7{fill:none;stroke:#231f20;stroke-miterlimit:10;}.cls-11,.cls-18,.cls-4{stroke-linecap:round;}.cls-4,.cls-7{stroke-width:1.17px;}.cls-5{fill:url(#linear-gradient-2);}.cls-6{fill:url(#linear-gradient-3);}.cls-8{fill:url(#linear-gradient-4);}.cls-9{fill:#3d86fa;}.cls-10{fill:#1351be;}.cls-11{stroke-width:1.1px;}.cls-12{fill:#fe845a;}.cls-13{fill:#201851;}.cls-14{fill:#413b8a;}.cls-15{fill:url(#linear-gradient-5);}.cls-16{fill:url(#linear-gradient-6);}.cls-17{fill:#423981;}.cls-18{stroke-width:0.72px;}.cls-19{fill:#c7ccd1;}.cls-20{fill:#403882;}.cls-21{fill:#fda181;}.cls-22{fill:#e1e7ef;}.cls-23{fill:#232059;}.cls-24{fill:#1150c0;}.cls-25{fill:#094082;}.cls-26{fill:#d17a62;}.cls-27{fill:#f69e80;}.cls-28{fill:#1e194f;}.cls-29{fill:url(#linear-gradient-7);}.cls-30{fill:#f55662;}.cls-31{fill:url(#linear-gradient-8);}</style><linearGradient id="linear-gradient" x1="225.15" y1="248.79" x2="135.58" y2="72.49" gradientTransform="matrix(-1, 0, 0, 1, 347.92, 0)" gradientUnits="userSpaceOnUse"><stop offset="0" stop-color="#f69a5e"/><stop offset="0.29" stop-color="#faac60"/><stop offset="0.71" stop-color="#fec062"/><stop offset="1" stop-color="#ffc763"/></linearGradient><linearGradient id="linear-gradient-2" x1="-186.62" y1="248.79" x2="-276.19" y2="72.49" xlink:href="#linear-gradient"/><linearGradient id="linear-gradient-3" x1="529.07" y1="285.67" x2="471.04" y2="171.72" gradientUnits="userSpaceOnUse"><stop offset="0" stop-color="#1252c4"/><stop offset="1" stop-color="#3f87fe"/></linearGradient><linearGradient id="linear-gradient-4" x1="74.15" y1="216.84" x2="127.43" y2="412.88" gradientUnits="userSpaceOnUse"><stop offset="0" stop-color="#ff9d5d"/><stop offset="0.08" stop-color="#ff985d"/><stop offset="0.18" stop-color="#ff8a5c"/><stop offset="0.28" stop-color="#ff725b"/><stop offset="0.28" stop-color="#ff725b"/><stop offset="0.37" stop-color="#ff825b"/><stop offset="0.49" stop-color="#ff8f5c"/><stop offset="0.64" stop-color="#ff965c"/><stop offset="1" stop-color="#ff985c"/></linearGradient><linearGradient id="linear-gradient-5" x1="416.78" y1="476.96" x2="450.32" y2="321.99" gradientTransform="matrix(-1, 0, 0, 1, 856.88, 0)" xlink:href="#linear-gradient-3"/><linearGradient id="linear-gradient-6" x1="340.85" y1="456.98" x2="477.95" y2="456.98" gradientTransform="matrix(-1, 0, 0, 1, 856.88, 0)" gradientUnits="userSpaceOnUse"><stop offset="0" stop-color="#ff9d5c"/><stop offset="1" stop-color="#ffc961"/></linearGradient><linearGradient id="linear-gradient-7" x1="342.22" y1="252.41" x2="479.01" y2="252.41" gradientUnits="userSpaceOnUse"><stop offset="0" stop-color="#f8a034"/><stop offset="1" stop-color="#ffc546"/></linearGradient><linearGradient id="linear-gradient-8" x1="472.36" y1="102.87" x2="392.32" y2="71.99" xlink:href="#linear-gradient-3"/></defs><g id="Layer_2" data-name="Layer 2"><g id="Layer_1-2" data-name="Layer 1"><rect class="cls-1" width="720" height="504"/><g id="TREES_AND_PLANTS" data-name="TREES AND PLANTS"><g id="TREE"><g id="tree-2" data-name="tree"><path class="cls-2" d="M194.05,220.51c-29.25-1.87-63-34.93-54.1-55.37s10.94-34,1.94-47.81c-8.17-12.54,22.32-65.64,10.75-86,4.33-4.09,10.3-6.38,15.83-4.5C175.47,29.23,179,37,181.16,44a163.9,163.9,0,0,1,5.52,23.87c1.18,7.7,2,16,7,22,5.47,6.57,14.7,8.83,20.78,14.84a22.68,22.68,0,0,1,6.31,19.55c-1,6.2-4.62,11.63-7.17,17.37s-4,12.68-.89,18.13c2.76,4.8,8.32,7.18,12.18,11.14,4.93,5.08,6.76,12.64,5.88,19.66s-4.22,13.53-8.44,19.21a65.4,65.4,0,0,1-7.32,8.28A58.82,58.82,0,0,1,194.05,220.51Z"/><path class="cls-3" d="M165.2,250.19c-6.23-13.48-28.71-22.84-37.41-30.28-9.17-7.84-17.57-18.37-19.32-30.66-2-13.77,5.56-21.12,11.88-31.93,10.49-17.9-10.71-35.46-3.53-53.44,3.7-9.26,14.59-13.4,20.45-21.47C142,76,143,67.62,143.65,59.67s1.14-16.23,5-23.21a21.62,21.62,0,0,1,4-5.12c11.57,20.35-18.92,73.45-10.75,86,9,13.82,7,27.36-1.94,47.81s24.85,53.5,54.1,55.37A58.82,58.82,0,0,0,215,218.05a65.58,65.58,0,0,1-14,10.26C188.57,235.1,173.19,238.5,165.2,250.19Z"/></g><line class="cls-4" x1="165.15" y1="78.89" x2="165.15" y2="465.62"/><line class="cls-4" x1="165.15" y1="130.08" x2="185.91" y2="104.22"/><line class="cls-4" x1="165.15" y1="183.28" x2="185.91" y2="157.41"/><line class="cls-4" x1="165.15" y1="160.01" x2="144.39" y2="134.15"/><line class="cls-4" x1="165.15" y1="207.47" x2="144.39" y2="181.61"/><line class="cls-4" x1="165.15" y1="238.45" x2="185.91" y2="212.58"/></g><g id="TREE-3" data-name="TREE"><g id="tree-4" data-name="tree"><path class="cls-5" d="M605.81,220.51c-29.24-1.87-63-34.93-54.09-55.37s10.94-34,1.93-47.81c-8.16-12.54,22.33-65.64,10.76-86,4.32-4.09,10.3-6.38,15.82-4.5,7,2.39,10.49,10.11,12.7,17.18a162.58,162.58,0,0,1,5.51,23.87c1.18,7.7,2,16,7,22,5.46,6.57,14.69,8.83,20.78,14.84a22.68,22.68,0,0,1,6.31,19.55c-1,6.2-4.62,11.63-7.17,17.37s-4,12.68-.89,18.13c2.75,4.8,8.32,7.18,12.18,11.14,4.93,5.08,6.76,12.64,5.88,19.66s-4.22,13.53-8.44,19.21a65.4,65.4,0,0,1-7.32,8.28A58.85,58.85,0,0,1,605.81,220.51Z"/><path class="cls-3" d="M577,250.19c-6.22-13.48-28.7-22.84-37.4-30.28-9.17-7.84-17.57-18.37-19.32-30.66-2-13.77,5.55-21.12,11.88-31.93,10.49-17.9-10.71-35.46-3.53-53.44,3.7-9.26,14.59-13.4,20.45-21.47,4.69-6.45,5.73-14.79,6.38-22.74s1.14-16.23,5-23.21a21.36,21.36,0,0,1,4-5.12c11.57,20.35-18.92,73.45-10.76,86,9,13.82,7,27.36-1.93,47.81s24.85,53.5,54.09,55.37a58.85,58.85,0,0,0,21-2.46,65.83,65.83,0,0,1-14,10.26C600.34,235.1,585,238.5,577,250.19Z"/></g><line class="cls-4" x1="576.92" y1="78.89" x2="576.92" y2="465.62"/><line class="cls-4" x1="576.92" y1="130.08" x2="597.68" y2="104.22"/><line class="cls-4" x1="576.92" y1="183.28" x2="597.68" y2="157.41"/><line class="cls-4" x1="576.92" y1="160.01" x2="556.15" y2="134.15"/><line class="cls-4" x1="576.92" y1="207.47" x2="556.15" y2="181.61"/><line class="cls-4" x1="576.92" y1="238.45" x2="597.68" y2="212.58"/></g><path class="cls-6" d="M517.54,162.56c3.68,2.51,26.48,23.82,18.54,53.28s-27.47,44-53,37.72S431.84,228.08,438.45,198,473.86,132.77,517.54,162.56Z"/><line class="cls-7" x1="490.37" y1="197.56" x2="490.37" y2="465.62"/><line class="cls-7" x1="490.37" y1="233.06" x2="505.89" y2="217.53"/><line class="cls-7" x1="490.37" y1="214.17" x2="477.24" y2="201.05"/><g id="tree-5" data-name="tree"><path class="cls-8" d="M141.87,322.71c-8-13.73,8.22-27.21,2.71-41-2.83-7.11-11.19-10.28-15.68-16.48-3.6-4.95-4.4-11.34-4.9-17.44s-.87-12.45-3.83-17.8a16.58,16.58,0,0,0-3.06-3.93c-3.32-3.14-7.91-4.9-12.14-3.45-5.38,1.83-8,7.75-9.74,13.17A125.05,125.05,0,0,0,91,254.11c-.91,5.9-1.55,12.26-5.37,16.85-4.19,5.05-11.27,6.78-15.94,11.39a17.4,17.4,0,0,0-4.84,15c.8,4.76,3.55,8.92,5.5,13.32s3.09,9.73.68,13.91c-2.11,3.69-6.38,5.5-9.34,8.55-3.78,3.89-5.19,9.69-4.51,15.08s3.24,10.38,6.47,14.74A51.05,51.05,0,0,0,80,377.17c9.54,5.21,21.33,7.81,27.46,16.78,4.78-10.34,22-17.52,28.7-23.22,7-6,13.48-14.1,14.82-23.53C152.5,336.64,146.73,331,141.87,322.71Z"/></g><line class="cls-4" x1="108.22" y1="308.03" x2="108.22" y2="465.62"/><line class="cls-4" x1="108.22" y1="359.31" x2="130.92" y2="336.61"/><line class="cls-4" x1="108.22" y1="330.82" x2="88.71" y2="311.32"/><path class="cls-9" d="M155.52,430.77c2-2.29,11.17-5.79,15-11.45S187.8,393.93,198,397.8s-8.83,17.66-14.48,24.56-6.12,26.9-21.07,26.9S151.1,435.88,155.52,430.77Z"/><path class="cls-10" d="M154.64,379.31s7.18.21,6.49,10.28-3.38,17.59-2.83,23,5.45,26-3.66,27.39-19.59-1.72-15-16.56S140,376.41,154.64,379.31Z"/><path class="cls-11" d="M152.43,391.31s-6.62,60.9-6.62,81.78"/><path class="cls-11" d="M147.84,473.09s3.83-37.44,45.44-69.82"/><g id="plant"><path class="cls-12" d="M372.82,368.56c1.49,37.91,25.34,98.74,48.35,91.62,6.06-1.88-1.73-30.12-24-55C381.08,387.22,376.86,374.06,372.82,368.56Z"/><path class="cls-13" d="M440.77,455.44c-.14,2.39,33,5.43,48.3-19.57,11.95-19.48,19.38-21.22,25.78-24.68C471.32,410.41,441.14,449.19,440.77,455.44Z"/><path class="cls-14" d="M452.61,404c-.21-2,1.86-16.68-.35-28.17-4.53,4.44-21.35,61.69-20.82,71,.2,3.42-1.81,12.86,5.37,14.56,7.57,1.8,21.55-16.49,26.5-29.11,16.38-41.7,4.6-39.93,18.25-63.66C476.13,372.56,455.47,396.53,452.61,404Z"/><path class="cls-12" d="M461.36,387.85c-2.75,4-4,8.71-6.7,12.61-2.16,3.15-2,7.11-3.49,10.13-1.66,3.26-4.56,4.93-4.73,9.49-.08,2.13.46,3.91.27,5.84-.24,2.4-1.25,4.62-1.28,7.18,0,1.8.53,3.51.58,5.22.13,4.79-7.48,12.65-1.38,17-.33,4,.41,5.48,2.5,5.55,4.46.13,4.29-4.42,5.17-6.92,1-2.89,4.28-4.78,4.59-8.74.16-2.05-1-4.46-.8-6.32.17-1.4,1.47-2.16,2.21-3.34,1.9-3,2-6.54,1.78-10-.12-2-1.72-5.27-1.47-7.09.48-3.51,4.05-4.41,3-9.46-.33-1.54-1.64-3.39-1.6-5s1.07-2.63,1.6-4.06C463.05,396.06,461.41,391.92,461.36,387.85Z"/><path class="cls-15" d="M444.39,445.9c-4.27-.17-9.66,3.86-12.5,8.31.06-2.8.2-5.6.39-8.4,3-2.78,8.2-2,11.21-5.55,3.18-3.77,0-8-4.5-5.73-2.19,1.09-4.74,4.77-6.44,7.79.16-2,.37-4.76.54-6.76.14-1.73.25-3.46.35-5.18,3.46-2.17,10.87-2,11.65-7.73.55-4-3.43-6.78-6.64-3.51a29.41,29.41,0,0,0-4.85,7.23c.1-3.22.09-6.43-.05-9.63,3.8-3,12.48-2.12,14.17-7.73,1.38-4.58-4.45-5.64-7.77-3.38s-4.92,6.23-6.46,9.9q-.19-3.57-.61-7.13c2.86-2.91,8.83-4.88,10-9.62s-2.56-9.69-7-5c-2.32,2.48-3.25,6.32-3.69,10-.43-2.62-1-5.21-1.58-7.79a32.56,32.56,0,0,1,2.81-5.05c1.42-2,3.51-4,3.28-6.62-.41-4.49-3.86-2.19-5.42.75a17.37,17.37,0,0,0-1.56,7.41c-.78-2.86-2.07-7.2-3.07-10,1.51-4.6,12.91-13.46,4.67-14-3.9-.27-5.47,7.42-5.56,12-.6-1.53-2.08-5-2.19-5.28,1.36-3.76,8-15.36,2.36-16-4.47-.5-4.44,7-4.08,10.65.05.47.08,1.15.14,1.88-1.07-2.29-2.21-4.59-3.44-6.85a21.09,21.09,0,0,0,2.56-5.19c.43-1.37,1.71-7.36-2-5.28-1.43.79-2,5.07-1.86,8.1q-1.36-2.37-2.86-4.65c-5.44-11.6-.08-26.26-9-24.85-10.55,1.69-7.55,10.38-5,13.64a41.55,41.55,0,0,0,11.72,10c1,1.68,4.81,9.16,5.29,10.13-4.2-5.2-12.65-15.45-16.08-9.84-3,5,11.77,8.85,16.88,11.52,1.39,2.94,4.48,10.54,4.77,11.33-1.91-2.17-3.5-5.42-6.06-6.92-2.28-1.33-7.65-2.45-7.7.93-.07,4.82,6.87,5.44,10.29,6.31,2.45.62,3.45,1.74,4.14,1.53q2,5.79,3.52,11.77c-2.6-4.78-10.27-15-14-9.52-4.85,7.08,9.47,7.28,14.29,10.6a121.88,121.88,0,0,1,2.3,12.34l0,.15c-1.67-3.8-3-7.64-6.32-10.55-3.05-2.63-8.56-4-8.62,2.26-.05,4.54,7.92,5.4,11.56,7.61,1.61,1,2.79,2.26,3.63,2.8a114.14,114.14,0,0,1,.63,11.69c-6.38-5.58-11.13-21.7-16.82-14.38-5,6.44,10.29,7.9,16.83,15.75,0,3.56-.17,7.13-.41,10.71a40.41,40.41,0,0,0-3.52-8.27c-1-2-6.54-7.89-9.15-3.51s5.43,8,7.84,9.39a11.57,11.57,0,0,1,4.64,4.91c-.05.66-.78,8.8-1,12.24-1.57-5.92-15-27.81-20.56-15.92-3.57,7.64,13,9.53,16.67,12.27,2.51,1.85,3.37,3.48,3.79,5.17q-.18,3-.21,6c-3.15-5.54-11-16.22-15.23-8.26-5,9.41,8.35,7,10.83,8.43,2.16,1.25,4.59,2.05,4.51,5.08a60.18,60.18,0,0,0,.79,7c.3,1.65,2.91,1.09,2.73-.56a95,95,0,0,1-.5-9.67c3.82-2.23,12.25-2.19,14.82-4.26C450.26,450,449.08,446.09,444.39,445.9Z"/><path class="cls-16" d="M378.93,470.49s4.78-14.15,15.85-9.59c0,0,5.53-17.9,19.12-3.91s9.41-16.05,22.94-13.35,9.51,13,9.51,13,12.89-6.65,10.09,4.85c0,0,30.41-15.17,30.91-2.34,0,0,20.38-3.77,16.86,6.8,0,0,11.82-3,11.82,4.53Z"/></g><path class="cls-17" d="M595.38,404.58c.54,3-1.53,11.36,0,14s4.32,8.39,1.86,13.48-5.51,19.24,11.28,19.67,13.9-18.23,12-21.87-4.41-7.13-5.26-14.67-1.61-10.17-10.85-17.13-10.6-8.3-12.72-5.68S594.28,398.48,595.38,404.58Z"/><path class="cls-18" d="M601.74,407.29s13.61,28.83,4.86,61.55"/><line class="cls-18" x1="607.19" y1="424.56" x2="599.53" y2="416.37"/><line class="cls-18" x1="608.76" y1="433.74" x2="613.52" y2="425.86"/><line class="cls-18" x1="609.53" y1="445.07" x2="599.87" y2="436.51"/></g><ellipse class="cls-19" cx="285.23" cy="476.54" rx="63.65" ry="3.45"/><g id="MAN"><g id="SHOES"><path class="cls-20" d="M249.62,449.71l-.71,9.63s1.5,14.32,1.1,16.05c-.33,1.46-15.74,1.63-21.5.66a2.47,2.47,0,0,1-2-2.45v-2.89a3.66,3.66,0,0,1,.24-1.31L231,457.9v-8.19Z"/><path class="cls-21" d="M231,457.9s16.07-.71,16.62.75,1.26.69,1.26.69l.71-9.63H231Z"/><path class="cls-22" d="M226.46,470.71v2.89a2.47,2.47,0,0,0,2,2.45c5.76,1,21.17.8,21.5-.66a14,14,0,0,0,0-2.68l-2,.4c0-5.36-2.84-7.33-9.38-8.67a13.65,13.65,0,0,0-11.14,2.75l-.83,2.21A3.66,3.66,0,0,0,226.46,470.71Z"/><path class="cls-20" d="M343.31,473.56c-1-3.13-2.84-7.61-5.46-8.41-4.09-1.26-25.05-6.62-25.68-8.82,0,0-6.36,1.5-6.8,2.95s-9.45.12-9.45.12l0,.14-1.25,15.16a1.8,1.8,0,0,0,1.8,2h44.56A2.37,2.37,0,0,0,343.31,473.56Z"/><path class="cls-21" d="M305.37,459.28c.44-1.45,6.8-2.95,6.8-2.95-.63-2.21-.76-10.28-.76-10.28l-16.89,2.68,1.4,10.67S304.92,460.73,305.37,459.28Z"/><path class="cls-22" d="M296.49,476.66h44.56a2.37,2.37,0,0,0,2.26-3.1c-1-3.13-2.84-7.61-5.46-8.41-.62-.19-1.64-.48-2.92-.84-.5,2.75-.82,9.5-.82,9.5l-39.31-.46-.11,1.35A1.8,1.8,0,0,0,296.49,476.66Z"/></g><g id="PANTS"><path class="cls-20" d="M227.29,255.92s-.36,87.31,0,103.18,3.19,90.61,3.19,90.61h19.14s4.49-65.7,4.73-80.11-1.42-15.38,1.89-29.79,9.22-37.12,9.22-37.12,15.83,45.67,15.59,51.77-1.65,25.65,2.6,40.54,10.87,53.73,10.87,53.73,11.92,2,16.89-2.68c0,0-5.07-91.1-6-103.06s-13.95-91-13.95-91Z"/><path class="cls-23" d="M265.46,302.69l2.75-19.36s12.63,59.94,12.59,68.88Z"/></g><g id="BODY"><path class="cls-24" d="M269.24,145.37s25.17,5.14,30.84,14,13,54.59,11,58.49-19.38,3.08-19.38,3.08L291.45,252s-13.94,4.14-36.16,5.68-28-1.9-28-1.9l1.41-21.15s-9.92-3.19-11.93-12.52-8.27-55.42-2.25-61.45,32.62-16.13,32.62-16.13Z"/><path class="cls-25" d="M262.62,154.63a13.78,13.78,0,0,0-4.37-9.67l-11.11-.42s-4.5,1.71-10.22,4.14C246.46,157.63,262.62,154.63,262.62,154.63Z"/><path class="cls-21" d="M258.13,225.9,275,218.73l-.4-18.43L241.51,199l.86,9.85s11.43,2.52,13.4,3.59Z"/><path class="cls-25" d="M291.69,220.94,275,218.73l-16.86,7.17s-10.4,5.59-29.43,8.74l-1.41,21.15s11.46-3.89,17.76-7.75,13.16-13.08,22.22-14.18,24.32-.48,24.32-.48Z"/><polygon class="cls-25" points="274.59 200.29 287.99 200.29 283.81 185.72 285.62 198.25 274.59 200.29"/><polygon class="cls-25" points="241.51 199.03 239.4 182.83 245.9 199.2 241.51 199.03"/><path class="cls-26" d="M255.77,212.47s12.8,4.64,19.22,6.26l-4.35,1.85L256,214Z"/><path class="cls-25" d="M242.37,208.88,256,214l-.26-1.5S252.7,211,242.37,208.88Z"/></g><g id="HEAD"><path class="cls-27" d="M273.73,94.61s7.09,35.45,1.36,41-6.56,5.08-6.56,5.08l.71,4.73s1.71,8.8-7.86,9.39-14.24-10.22-14.24-10.22l-2.07-20.8s-2.07.71-3.72-2.18-4.2-12.18,3.37-10.23C244.72,111.33,245.78,82.8,273.73,94.61Z"/><path class="cls-20" d="M244.72,111.33a4.52,4.52,0,0,1,2.95,2.72,63.5,63.5,0,0,1,2.36,8s.48,9.75,2.07,12.41,9.63,8.62,14.18,9,14.06-5,14.06-8.27-3.26-16.49-3.26-16.49a14,14,0,0,0-5.16-.35c-2.06.44-4.72,1.21-6.35,3.33s-3.36,3.93-5.08,3.58-6.67-2.6-7.32-5-2.43-8-2.07-9.52,3.9-5.67,4-7.68.47-7.32.47-7.32A121.12,121.12,0,0,0,268.7,97.1c4.26,0,6.39-1.07,7.39-3.79s2-10-2.42-10S254.76,80,249,83.8,232.84,97.33,233,99s.71,4.49.71,4.49-2.37,1.83-1.6,3.66,8.63,13.06,8.63,13.06S237,111,244.72,111.33Z"/><path class="cls-27" d="M267.74,124.66a7.15,7.15,0,0,1,6.34-2.82s.26,2-1.55,2.27S268.8,124.09,267.74,124.66Z"/><path class="cls-26" d="M245.07,123.74a2.66,2.66,0,0,0,1.69-.74l-1.31,4.52Z"/><path class="cls-28" d="M233,99c.12,1.65.71,4.49.71,4.49s-2.37,1.83-1.6,3.66,8.63,13.06,8.63,13.06-3.66-9.22,4-8.87a4.52,4.52,0,0,1,2.95,2.72,63.5,63.5,0,0,1,2.36,8S247,107.73,244.72,105s-8.22-2.6-9-5.55,2.12-6.25,2.33-6.49C235.12,95.74,232.9,98.22,233,99Z"/><path class="cls-28" d="M263.15,141.47C255.41,139.87,250,122,250,122s.48,9.75,2.07,12.41,9.63,8.62,14.18,9c3.25.25,9-2.39,12.06-5.13C277.85,138.6,270.62,143,263.15,141.47Z"/></g></g><g id="WAYS"><path class="cls-13" d="M408.81,33.57h4.25a3.75,3.75,0,0,1,3.75,3.75V458.11a0,0,0,0,1,0,0H405.06a0,0,0,0,1,0,0V37.32a3.75,3.75,0,0,1,3.75-3.75Z"/><path class="cls-13" d="M451.65,274.36H347.46a7.31,7.31,0,0,1-7.31-7.32V234a7.31,7.31,0,0,1,7.31-7.31H451.7a7.32,7.32,0,0,1,4.92,1.9l17.92,16.3a7.32,7.32,0,0,1,.07,10.77l-18,16.72A7.34,7.34,0,0,1,451.65,274.36Z"/><path class="cls-29" d="M453.73,276.24H349.54a7.32,7.32,0,0,1-7.32-7.32v-33a7.32,7.32,0,0,1,7.32-7.32H453.77a7.36,7.36,0,0,1,4.93,1.9l17.92,16.3a7.33,7.33,0,0,1,.06,10.77l-18,16.72A7.3,7.3,0,0,1,453.73,276.24Z"/><path class="cls-13" d="M466.23,160.38,374,208.76a7.33,7.33,0,0,1-9.88-3.08l-15.33-29.25a7.32,7.32,0,0,1,3.08-9.87l92.32-48.4a7.31,7.31,0,0,1,5.25-.6l23.43,6.11a7.32,7.32,0,0,1,5.06,9.51q-4.08,11.58-8.15,23.15A7.36,7.36,0,0,1,466.23,160.38Z"/><path class="cls-30" d="M469.94,160.38l-92.28,48.38a7.32,7.32,0,0,1-9.87-3.08l-15.33-29.25a7.3,7.3,0,0,1,3.08-9.87l92.32-48.4a7.28,7.28,0,0,1,5.24-.6l23.44,6.11a7.31,7.31,0,0,1,5,9.51q-4.06,11.58-8.15,23.15A7.3,7.3,0,0,1,469.94,160.38Z"/><path class="cls-13" d="M365.09,72.76,449.49,48a6.18,6.18,0,0,1,7.67,4.18L465,78.93a6.18,6.18,0,0,1-4.19,7.66l-84.44,24.78a6.15,6.15,0,0,1-4.44-.38l-18.39-8.94a6.18,6.18,0,0,1-2.61-8.71l10.58-17.81A6.21,6.21,0,0,1,365.09,72.76Z"/><path class="cls-31" d="M368,74.16l84.4-24.76a6.17,6.17,0,0,1,7.67,4.19L468,80.33A6.18,6.18,0,0,1,463.77,88l-84.44,24.77a6.2,6.2,0,0,1-4.44-.37l-18.39-9a6.17,6.17,0,0,1-2.61-8.7q5.3-8.91,10.58-17.82A6.21,6.21,0,0,1,368,74.16Z"/><circle class="cls-13" cx="410.61" cy="81.08" r="3.51"/><path class="cls-13" d="M414.41,166.93a3.47,3.47,0,1,0-3.47,3.46A3.47,3.47,0,0,0,414.41,166.93Z"/><path class="cls-13" d="M414.12,252.41a3.51,3.51,0,1,0-3.51,3.51A3.51,3.51,0,0,0,414.12,252.41Z"/></g><path id="QUESTION" class="cls-30" d="M259.19,57.1a3.15,3.15,0,0,1-3.13,2.77h-2.37a1.9,1.9,0,0,1-1.9-1.9h0A12.7,12.7,0,0,1,253,52.15,17.53,17.53,0,0,1,257.63,47a33.77,33.77,0,0,0,4.18-3.73,5,5,0,0,0,1.06-3.07,5.19,5.19,0,0,0-1.87-4,7.27,7.27,0,0,0-5-1.67,7.3,7.3,0,0,0-7,4.35,4,4,0,0,1-4.13,2.28h0A3.66,3.66,0,0,1,242,35.87,13.13,13.13,0,0,1,245.05,32q4-3.57,10.58-3.56,6.9,0,11,3.6a10.92,10.92,0,0,1,4.07,8.39,9.22,9.22,0,0,1-1.5,5q-1.49,2.35-6.39,6.43a12.39,12.39,0,0,0-3.15,3.39A6.2,6.2,0,0,0,259.19,57.1Zm-3.71,13.53A3.66,3.66,0,0,1,251.82,67V66.3a3.66,3.66,0,0,1,3.66-3.67h.67a3.67,3.67,0,0,1,3.67,3.67V67a3.66,3.66,0,0,1-3.67,3.66Z"/></g></g></svg>