<svg width="1005" height="247" viewBox="0 0 1005 247" fill="none" xmlns="http://www.w3.org/2000/svg">
<line x1="705" y1="119" x2="1005" y2="119" stroke="#4A4A4A" stroke-width="10"/>
<line y1="119" x2="300" y2="119" stroke="#4A4A4A" stroke-width="10"/>
<circle cx="502.5" cy="123.5" r="123.5" fill="#4A4A4A"/>
<path d="M474.501 114C473.386 114 472.316 114.17 471.251 114.325C471.596 113.165 471.951 111.985 472.521 110.925C473.091 109.385 473.981 108.05 474.866 106.705C475.606 105.25 476.911 104.265 477.871 103.02C478.876 101.81 480.246 101.005 481.331 100C482.396 98.95 483.791 98.425 484.901 97.685C486.061 97.02 487.071 96.285 488.151 95.935L490.846 94.825L493.216 93.84L490.791 84.15L487.806 84.87C486.851 85.11 485.686 85.39 484.361 85.725C483.006 85.975 481.561 86.66 479.951 87.285C478.361 87.995 476.521 88.475 474.811 89.615C473.091 90.705 471.106 91.615 469.356 93.075C467.661 94.58 465.616 95.885 464.106 97.8C462.456 99.59 460.826 101.47 459.561 103.61C458.096 105.65 457.101 107.89 456.051 110.105C455.101 112.32 454.336 114.585 453.711 116.785C452.526 121.195 451.996 125.385 451.791 128.97C451.621 132.56 451.721 135.545 451.931 137.705C452.006 138.725 452.146 139.715 452.246 140.4L452.371 141.24L452.501 141.21C453.39 145.364 455.437 149.182 458.406 152.221C461.374 155.26 465.142 157.397 469.274 158.384C473.406 159.371 477.733 159.168 481.754 157.799C485.776 156.43 489.328 153.95 491.999 150.646C494.67 147.343 496.351 143.351 496.848 139.131C497.345 134.912 496.637 130.639 494.806 126.805C492.976 122.971 490.097 119.734 486.504 117.468C482.911 115.202 478.749 114 474.501 114ZM529.501 114C528.386 114 527.316 114.17 526.251 114.325C526.596 113.165 526.951 111.985 527.521 110.925C528.091 109.385 528.981 108.05 529.866 106.705C530.606 105.25 531.911 104.265 532.871 103.02C533.876 101.81 535.246 101.005 536.331 100C537.396 98.95 538.791 98.425 539.901 97.685C541.061 97.02 542.071 96.285 543.151 95.935L545.846 94.825L548.216 93.84L545.791 84.15L542.806 84.87C541.851 85.11 540.686 85.39 539.361 85.725C538.006 85.975 536.561 86.66 534.951 87.285C533.366 88 531.521 88.475 529.811 89.62C528.091 90.71 526.106 91.62 524.356 93.08C522.661 94.585 520.616 95.89 519.106 97.8C517.456 99.59 515.826 101.47 514.561 103.61C513.096 105.65 512.101 107.89 511.051 110.105C510.101 112.32 509.336 114.585 508.711 116.785C507.526 121.195 506.996 125.385 506.791 128.97C506.621 132.56 506.721 135.545 506.931 137.705C507.006 138.725 507.146 139.715 507.246 140.4L507.371 141.24L507.501 141.21C508.39 145.364 510.437 149.182 513.406 152.221C516.374 155.26 520.142 157.397 524.274 158.384C528.406 159.371 532.733 159.168 536.754 157.799C540.776 156.43 544.328 153.95 546.999 150.646C549.67 147.343 551.351 143.351 551.848 139.131C552.345 134.912 551.637 130.639 549.806 126.805C547.976 122.971 545.097 119.734 541.504 117.468C537.911 115.202 533.749 114 529.501 114Z" fill="#F3F3F3"/>
</svg>
