<svg width="50" height="50" viewBox="0 0 50 50" fill="none" xmlns="http://www.w3.org/2000/svg">
<rect width="50" height="50" fill="white"/>
<path d="M30.6 34.48C29.3733 34.48 28.3333 34.0267 27.48 33.12C26.6267 32.16 26.2 30.88 26.2 29.28C26.2 26.9867 26.5467 25.12 27.24 23.68C27.9333 22.1867 28.7067 21.0133 29.56 20.16C30.52 19.2 31.6667 18.48 33 18L33.8 19.28C32.8933 19.7067 32.0933 20.2133 31.4 20.8C30.8133 21.3333 30.2533 21.9733 29.72 22.72C29.24 23.4133 29 24.2667 29 25.28C29 25.6533 29.0533 25.9467 29.16 26.16C29.2133 26.32 29.2933 26.4267 29.4 26.48C29.5067 26.4267 29.6667 26.3733 29.88 26.32C30.04 26.2667 30.2 26.2133 30.36 26.16C30.5733 26.1067 30.7867 26.08 31 26.08C32.2267 26.08 33.1867 26.4533 33.88 27.2C34.6267 27.8933 35 28.8533 35 30.08C35 31.3067 34.5733 32.3467 33.72 33.2C32.8667 34.0533 31.8267 34.48 30.6 34.48ZM19.4 34.48C18.1733 34.48 17.1333 34.0267 16.28 33.12C15.4267 32.16 15 30.88 15 29.28C15 26.9867 15.3467 25.12 16.04 23.68C16.7333 22.1867 17.5067 21.0133 18.36 20.16C19.32 19.2 20.4667 18.48 21.8 18L22.6 19.28C21.6933 19.7067 20.8933 20.2133 20.2 20.8C19.6133 21.3333 19.0533 21.9733 18.52 22.72C18.04 23.4133 17.8 24.2667 17.8 25.28C17.8 25.6533 17.8533 25.9467 17.96 26.16C18.0133 26.32 18.0933 26.4267 18.2 26.48C18.3067 26.4267 18.4667 26.3733 18.68 26.32C18.84 26.2667 19 26.2133 19.16 26.16C19.3733 26.1067 19.5867 26.08 19.8 26.08C21.0267 26.08 21.9867 26.4533 22.68 27.2C23.4267 27.8933 23.8 28.8533 23.8 30.08C23.8 31.3067 23.3733 32.3467 22.52 33.2C21.6667 34.0533 20.6267 34.48 19.4 34.48Z" fill="white"/>
<circle cx="25" cy="25" r="25" fill="#FFAA00"/>
<path d="M30.6 33.48C29.3733 33.48 28.3333 33.0267 27.48 32.12C26.6267 31.16 26.2 29.88 26.2 28.28C26.2 25.9867 26.5467 24.12 27.24 22.68C27.9333 21.1867 28.7067 20.0133 29.56 19.16C30.52 18.2 31.6667 17.48 33 17L33.8 18.28C32.8933 18.7067 32.0933 19.2133 31.4 19.8C30.8133 20.3333 30.2533 20.9733 29.72 21.72C29.24 22.4133 29 23.2667 29 24.28C29 24.6533 29.0533 24.9467 29.16 25.16C29.2133 25.32 29.2933 25.4267 29.4 25.48C29.5067 25.4267 29.6667 25.3733 29.88 25.32C30.04 25.2667 30.2 25.2133 30.36 25.16C30.5733 25.1067 30.7867 25.08 31 25.08C32.2267 25.08 33.1867 25.4533 33.88 26.2C34.6267 26.8933 35 27.8533 35 29.08C35 30.3067 34.5733 31.3467 33.72 32.2C32.8667 33.0533 31.8267 33.48 30.6 33.48ZM19.4 33.48C18.1733 33.48 17.1333 33.0267 16.28 32.12C15.4267 31.16 15 29.88 15 28.28C15 25.9867 15.3467 24.12 16.04 22.68C16.7333 21.1867 17.5067 20.0133 18.36 19.16C19.32 18.2 20.4667 17.48 21.8 17L22.6 18.28C21.6933 18.7067 20.8933 19.2133 20.2 19.8C19.6133 20.3333 19.0533 20.9733 18.52 21.72C18.04 22.4133 17.8 23.2667 17.8 24.28C17.8 24.6533 17.8533 24.9467 17.96 25.16C18.0133 25.32 18.0933 25.4267 18.2 25.48C18.3067 25.4267 18.4667 25.3733 18.68 25.32C18.84 25.2667 19 25.2133 19.16 25.16C19.3733 25.1067 19.5867 25.08 19.8 25.08C21.0267 25.08 21.9867 25.4533 22.68 26.2C23.4267 26.8933 23.8 27.8533 23.8 29.08C23.8 30.3067 23.3733 31.3467 22.52 32.2C21.6667 33.0533 20.6267 33.48 19.4 33.48Z" fill="white"/>
</svg>
