<svg width="20" height="18" viewBox="0 0 20 18" fill="none" xmlns="http://www.w3.org/2000/svg">
<path d="M15.6 17.7249C14.3733 17.7249 13.3333 17.2533 12.48 16.3102C11.6267 15.3116 11.2 13.9801 11.2 12.3157C11.2 9.93016 11.5467 7.98841 12.24 6.49049C12.9333 4.93709 13.7067 3.71657 14.56 2.82891C15.52 1.8303 16.6667 1.08134 18 0.582031L18.8 1.91352C17.8933 2.35734 17.0933 2.88439 16.4 3.49465C15.8133 4.04944 15.2533 4.71518 14.72 5.49188C14.24 6.2131 14 7.10076 14 8.15485C14 8.54319 14.0533 8.84833 14.16 9.07024C14.2133 9.23668 14.2933 9.34763 14.4 9.40311C14.5067 9.34763 14.6667 9.29216 14.88 9.23668C15.04 9.1812 15.2 9.12572 15.36 9.07024C15.5733 9.01476 15.7867 8.98702 16 8.98702C17.2267 8.98702 18.1867 9.37537 18.88 10.1521C19.6267 10.8733 20 11.8719 20 13.1479C20 14.4239 19.5733 15.5057 18.72 16.3934C17.8667 17.2811 16.8267 17.7249 15.6 17.7249ZM4.4 17.7249C3.17333 17.7249 2.13333 17.2533 1.28 16.3102C0.426667 15.3116 0 13.9801 0 12.3157C0 9.93016 0.346667 7.98841 1.04 6.49049C1.73333 4.93709 2.50667 3.71657 3.36 2.82891C4.32 1.8303 5.46667 1.08134 6.8 0.582031L7.6 1.91352C6.69333 2.35734 5.89333 2.88439 5.2 3.49465C4.61333 4.04944 4.05333 4.71518 3.52 5.49188C3.04 6.2131 2.8 7.10076 2.8 8.15485C2.8 8.54319 2.85333 8.84833 2.96 9.07024C3.01333 9.23668 3.09333 9.34763 3.2 9.40311C3.30667 9.34763 3.46667 9.29216 3.68 9.23668C3.84 9.1812 4 9.12572 4.16 9.07024C4.37333 9.01476 4.58667 8.98702 4.8 8.98702C6.02667 8.98702 6.98667 9.37537 7.68 10.1521C8.42667 10.8733 8.8 11.8719 8.8 13.1479C8.8 14.4239 8.37333 15.5057 7.52 16.3934C6.66667 17.2811 5.62667 17.7249 4.4 17.7249Z" fill="#F8A034"/>
</svg>
