<svg width="720" height="504" viewBox="0 0 720 504" fill="none" xmlns="http://www.w3.org/2000/svg">
<path d="M194.05 220.51C164.8 218.64 131.05 185.58 139.95 165.14C148.85 144.7 150.89 131.14 141.89 117.33C133.72 104.79 164.21 51.6899 152.64 31.3299C156.97 27.2399 162.94 24.9499 168.47 26.8299C175.47 29.2299 179 36.9999 181.16 43.9999C183.593 51.8077 185.438 59.7867 186.68 67.8699C187.86 75.5699 188.68 83.8699 193.68 89.8699C199.15 96.4399 208.38 98.6999 214.46 104.71C216.976 107.242 218.859 110.332 219.955 113.73C221.052 117.127 221.331 120.735 220.77 124.26C219.77 130.46 216.15 135.89 213.6 141.63C211.05 147.37 209.6 154.31 212.71 159.76C215.47 164.56 221.03 166.94 224.89 170.9C229.82 175.98 231.65 183.54 230.77 190.56C229.89 197.58 226.55 204.09 222.33 209.77C220.128 212.731 217.679 215.501 215.01 218.05C208.229 220.127 201.128 220.96 194.05 220.51Z" fill="url(#paint0_linear)"/>
<path d="M165.2 250.19C158.97 236.71 136.49 227.35 127.79 219.91C118.62 212.07 110.22 201.54 108.47 189.25C106.47 175.48 114.03 168.13 120.35 157.32C130.84 139.42 109.64 121.86 116.82 103.88C120.52 94.6198 131.41 90.4798 137.27 82.4098C142 75.9998 143 67.6198 143.65 59.6698C144.3 51.7198 144.79 43.4398 148.65 36.4598C149.718 34.5614 151.066 32.8353 152.65 31.3398C164.22 51.6898 133.73 104.79 141.9 117.34C150.9 131.16 148.9 144.7 139.96 165.15C131.02 185.6 164.81 218.65 194.06 220.52C201.132 220.965 208.226 220.128 215 218.05C210.809 222.075 206.101 225.525 201 228.31C188.57 235.1 173.19 238.5 165.2 250.19Z" fill="#F59059"/>
<path d="M165.15 78.8896V465.62" stroke="#231F20" stroke-width="1.17" stroke-miterlimit="10" stroke-linecap="round"/>
<path d="M165.15 130.08L185.91 104.22" stroke="#231F20" stroke-width="1.17" stroke-miterlimit="10" stroke-linecap="round"/>
<path d="M165.15 183.28L185.91 157.41" stroke="#231F20" stroke-width="1.17" stroke-miterlimit="10" stroke-linecap="round"/>
<path d="M165.15 160.009L144.39 134.149" stroke="#231F20" stroke-width="1.17" stroke-miterlimit="10" stroke-linecap="round"/>
<path d="M165.15 207.47L144.39 181.61" stroke="#231F20" stroke-width="1.17" stroke-miterlimit="10" stroke-linecap="round"/>
<path d="M165.15 238.45L185.91 212.58" stroke="#231F20" stroke-width="1.17" stroke-miterlimit="10" stroke-linecap="round"/>
<path d="M605.811 220.51C576.571 218.64 542.811 185.58 551.721 165.14C560.631 144.7 562.661 131.14 553.651 117.33C545.491 104.79 575.981 51.6899 564.411 31.3299C568.731 27.2399 574.711 24.9499 580.231 26.8299C587.231 29.2199 590.721 36.9399 592.931 44.0099C595.365 51.8167 597.207 59.796 598.441 67.8799C599.621 75.5799 600.441 83.8799 605.441 89.8799C610.901 96.4499 620.131 98.7099 626.221 104.72C628.737 107.252 630.62 110.342 631.716 113.74C632.813 117.137 633.092 120.745 632.531 124.27C631.531 130.47 627.911 135.9 625.361 141.64C622.811 147.38 621.361 154.32 624.471 159.77C627.221 164.57 632.791 166.95 636.651 170.91C641.581 175.99 643.411 183.55 642.531 190.57C641.651 197.59 638.311 204.1 634.091 209.78C631.889 212.741 629.44 215.511 626.771 218.06C619.989 220.133 612.888 220.963 605.811 220.51Z" fill="url(#paint1_linear)"/>
<path d="M577.001 250.19C570.781 236.71 548.301 227.35 539.601 219.91C530.431 212.07 522.031 201.54 520.281 189.25C518.281 175.48 525.831 168.13 532.161 157.32C542.651 139.42 521.451 121.86 528.631 103.88C532.331 94.6198 543.221 90.4798 549.081 82.4098C553.771 75.9598 554.811 67.6198 555.461 59.6698C556.111 51.7198 556.601 43.4398 560.461 36.4598C561.525 34.5592 562.874 32.8326 564.461 31.3398C576.031 51.6898 545.541 104.79 553.701 117.34C562.701 131.16 560.701 144.7 551.771 165.15C542.841 185.6 576.621 218.65 605.861 220.52C612.952 220.974 620.067 220.141 626.861 218.06C622.667 222.083 617.96 225.533 612.861 228.32C600.341 235.1 585.001 238.5 577.001 250.19Z" fill="#F59059"/>
<path d="M576.921 78.8896V465.62" stroke="#231F20" stroke-width="1.17" stroke-miterlimit="10" stroke-linecap="round"/>
<path d="M576.921 130.08L597.681 104.22" stroke="#231F20" stroke-width="1.17" stroke-miterlimit="10" stroke-linecap="round"/>
<path d="M576.921 183.28L597.681 157.41" stroke="#231F20" stroke-width="1.17" stroke-miterlimit="10" stroke-linecap="round"/>
<path d="M576.92 160.009L556.15 134.149" stroke="#231F20" stroke-width="1.17" stroke-miterlimit="10" stroke-linecap="round"/>
<path d="M576.92 207.47L556.15 181.61" stroke="#231F20" stroke-width="1.17" stroke-miterlimit="10" stroke-linecap="round"/>
<path d="M576.921 238.45L597.681 212.58" stroke="#231F20" stroke-width="1.17" stroke-miterlimit="10" stroke-linecap="round"/>
<path d="M517.54 162.56C521.22 165.07 544.02 186.38 536.08 215.84C528.14 245.3 508.61 259.84 483.08 253.56C457.55 247.28 431.84 228.08 438.45 198C445.06 167.92 473.86 132.77 517.54 162.56Z" fill="url(#paint2_linear)"/>
<path d="M490.37 197.56V465.62" stroke="#231F20" stroke-width="1.17" stroke-miterlimit="10"/>
<path d="M490.37 233.06L505.89 217.53" stroke="#231F20" stroke-width="1.17" stroke-miterlimit="10"/>
<path d="M490.37 214.17L477.24 201.05" stroke="#231F20" stroke-width="1.17" stroke-miterlimit="10"/>
<path d="M141.87 322.71C133.87 308.98 150.09 295.5 144.58 281.71C141.75 274.6 133.39 271.43 128.9 265.23C125.3 260.28 124.5 253.89 124 247.79C123.5 241.69 123.13 235.34 120.17 229.99C119.354 228.534 118.322 227.209 117.11 226.06C113.79 222.92 109.2 221.16 104.97 222.61C99.5904 224.44 96.9704 230.36 95.2304 235.78C93.3621 241.775 91.9481 247.903 91.0004 254.11C90.0904 260.01 89.4504 266.37 85.6304 270.96C81.4404 276.01 74.3604 277.74 69.6904 282.35C67.76 284.293 66.3156 286.664 65.4746 289.271C64.6335 291.877 64.4197 294.646 64.8504 297.35C65.6504 302.11 68.4004 306.27 70.3504 310.67C72.3004 315.07 73.4404 320.4 71.0304 324.58C68.9204 328.27 64.6504 330.08 61.6904 333.13C57.9104 337.02 56.5004 342.82 57.1804 348.21C57.8604 353.6 60.4204 358.59 63.6504 362.95C68.02 368.806 73.5956 373.655 80.0004 377.17C89.5404 382.38 101.33 384.98 107.46 393.95C112.24 383.61 129.46 376.43 136.16 370.73C143.16 364.73 149.64 356.63 150.98 347.2C152.5 336.64 146.73 331 141.87 322.71Z" fill="url(#paint3_linear)"/>
<path d="M108.221 308.03V465.62" stroke="#231F20" stroke-width="1.17" stroke-miterlimit="10" stroke-linecap="round"/>
<path d="M108.221 359.31L130.921 336.61" stroke="#231F20" stroke-width="1.17" stroke-miterlimit="10" stroke-linecap="round"/>
<path d="M108.22 330.82L88.71 311.32" stroke="#231F20" stroke-width="1.17" stroke-miterlimit="10" stroke-linecap="round"/>
<path d="M155.52 430.77C157.52 428.48 166.69 424.98 170.52 419.32C174.35 413.66 187.8 393.93 198 397.8C208.2 401.67 189.17 415.46 183.52 422.36C177.87 429.26 177.4 449.26 162.45 449.26C147.5 449.26 151.1 435.88 155.52 430.77Z" fill="#3D86FA"/>
<path d="M154.641 379.31C154.641 379.31 161.821 379.52 161.131 389.59C160.441 399.66 157.751 407.18 158.301 412.59C158.851 418 163.751 438.59 154.641 439.98C145.531 441.37 135.051 438.26 139.641 423.42C144.231 408.58 140.001 376.41 154.641 379.31Z" fill="#1351BE"/>
<path d="M152.431 391.31C152.431 391.31 145.811 452.21 145.811 473.09" stroke="#231F20" stroke-width="1.1" stroke-miterlimit="10" stroke-linecap="round"/>
<path d="M147.841 473.09C147.841 473.09 151.671 435.65 193.281 403.27" stroke="#231F20" stroke-width="1.1" stroke-miterlimit="10" stroke-linecap="round"/>
<path d="M372.82 368.56C374.31 406.47 398.16 467.3 421.17 460.18C427.23 458.3 419.44 430.06 397.17 405.18C381.08 387.22 376.86 374.06 372.82 368.56Z" fill="#FE845A"/>
<path d="M440.77 455.439C440.63 457.829 473.77 460.869 489.07 435.869C501.02 416.389 508.45 414.649 514.85 411.189C471.32 410.409 441.14 449.189 440.77 455.439Z" fill="#201851"/>
<path d="M452.611 404C452.401 402 454.471 387.32 452.261 375.83C447.731 380.27 430.911 437.52 431.441 446.83C431.641 450.25 429.631 459.69 436.811 461.39C444.381 463.19 458.361 444.9 463.311 432.28C479.691 390.58 467.911 392.35 481.561 368.62C476.131 372.56 455.471 396.53 452.611 404Z" fill="#413B8A"/>
<path d="M461.36 387.85C458.61 391.85 457.36 396.56 454.66 400.46C452.5 403.61 452.66 407.57 451.17 410.59C449.51 413.85 446.61 415.52 446.44 420.08C446.36 422.21 446.9 423.99 446.71 425.92C446.47 428.32 445.46 430.54 445.43 433.1C445.43 434.9 445.96 436.61 446.01 438.32C446.14 443.11 438.53 450.97 444.63 455.32C444.3 459.32 445.04 460.8 447.13 460.87C451.59 461 451.42 456.45 452.3 453.95C453.3 451.06 456.58 449.17 456.89 445.21C457.05 443.16 455.89 440.75 456.09 438.89C456.26 437.49 457.56 436.73 458.3 435.55C460.2 432.55 460.3 429.01 460.08 425.55C459.96 423.55 458.36 420.28 458.61 418.46C459.09 414.95 462.66 414.05 461.61 409C461.28 407.46 459.97 405.61 460.01 404C460.05 402.39 461.08 401.37 461.61 399.94C463.05 396.06 461.41 391.92 461.36 387.85Z" fill="#FE845A"/>
<path d="M444.39 445.899C440.12 445.729 434.73 449.759 431.89 454.209C431.95 451.409 432.09 448.609 432.28 445.809C435.28 443.029 440.48 443.81 443.49 440.26C446.67 436.49 443.49 432.259 438.99 434.529C436.8 435.619 434.25 439.3 432.55 442.32C432.71 440.32 432.92 437.559 433.09 435.559C433.23 433.829 433.34 432.1 433.44 430.38C436.9 428.21 444.31 428.379 445.09 422.649C445.64 418.649 441.66 415.87 438.45 419.14C436.484 421.296 434.849 423.732 433.6 426.369C433.7 423.149 433.69 419.939 433.55 416.739C437.35 413.739 446.03 414.62 447.72 409.01C449.1 404.43 443.27 403.369 439.95 405.63C436.63 407.89 435.03 411.859 433.49 415.529C433.364 413.149 433.16 410.773 432.88 408.399C435.74 405.489 441.71 403.519 442.88 398.779C444.05 394.039 440.32 389.089 435.88 393.779C433.56 396.259 432.63 400.099 432.19 403.779C431.76 401.159 431.19 398.569 430.61 395.989C431.395 394.226 432.336 392.536 433.42 390.939C434.84 388.939 436.93 386.94 436.7 384.32C436.29 379.83 432.84 382.13 431.28 385.07C430.222 387.395 429.689 389.925 429.72 392.48C428.94 389.62 427.65 385.28 426.65 382.48C428.16 377.88 439.56 369.02 431.32 368.48C427.42 368.21 425.85 375.9 425.76 380.48C425.16 378.95 423.68 375.48 423.57 375.2C424.93 371.44 431.57 359.84 425.93 359.2C421.46 358.7 421.49 366.2 421.85 369.85C421.9 370.32 421.93 371 421.99 371.73C420.92 369.44 419.78 367.14 418.55 364.88C419.638 363.275 420.499 361.529 421.11 359.69C421.54 358.319 422.82 352.33 419.11 354.41C417.68 355.2 417.11 359.48 417.25 362.51C416.344 360.93 415.39 359.379 414.39 357.859C408.95 346.259 414.31 331.6 405.39 333.01C394.84 334.7 397.84 343.389 400.39 346.649C403.639 350.684 407.614 354.076 412.11 356.649C413.11 358.329 416.92 365.809 417.4 366.779C413.2 361.579 404.75 351.33 401.32 356.94C398.32 361.94 413.09 365.789 418.2 368.459C419.59 371.399 422.68 379 422.97 379.79C421.06 377.62 419.47 374.369 416.91 372.869C414.63 371.539 409.26 370.419 409.21 373.799C409.14 378.619 416.08 379.239 419.5 380.109C421.95 380.729 422.95 381.85 423.64 381.64C424.974 385.5 426.147 389.423 427.16 393.41C424.56 388.63 416.89 378.41 413.16 383.89C408.31 390.97 422.63 391.169 427.45 394.489C428.428 398.561 429.196 402.679 429.75 406.829V406.98C428.08 403.18 426.75 399.339 423.43 396.429C420.38 393.799 414.87 392.429 414.81 398.689C414.76 403.229 422.73 404.089 426.37 406.299C427.98 407.299 429.16 408.56 430 409.1C430.41 412.983 430.62 416.885 430.63 420.79C424.25 415.21 419.5 399.09 413.81 406.41C408.81 412.85 424.1 414.31 430.64 422.16C430.64 425.719 430.47 429.289 430.23 432.869C429.368 429.991 428.187 427.217 426.71 424.6C425.71 422.6 420.17 416.709 417.56 421.089C414.95 425.469 422.99 429.09 425.4 430.48C427.401 431.618 429.016 433.328 430.04 435.39C429.99 436.05 429.26 444.189 429.04 447.63C427.47 441.71 414.04 419.819 408.48 431.709C404.91 439.349 421.48 441.24 425.15 443.98C427.66 445.83 428.52 447.459 428.94 449.149C428.82 451.149 428.75 453.149 428.73 455.149C425.58 449.609 417.73 438.93 413.5 446.89C408.5 456.3 421.85 453.89 424.33 455.32C426.49 456.57 428.92 457.369 428.84 460.399C428.967 462.746 429.23 465.084 429.63 467.399C429.93 469.049 432.54 468.489 432.36 466.839C432.029 463.627 431.862 460.399 431.86 457.17C435.68 454.94 444.11 454.979 446.68 452.91C450.26 449.999 449.08 446.089 444.39 445.899Z" fill="url(#paint4_linear)"/>
<path d="M378.931 470.49C378.931 470.49 383.711 456.34 394.781 460.9C394.781 460.9 400.311 443 413.901 456.99C427.491 470.98 423.311 440.94 436.841 443.64C450.371 446.34 446.351 456.64 446.351 456.64C446.351 456.64 459.241 449.99 456.441 461.49C456.441 461.49 486.851 446.32 487.351 459.15C487.351 459.15 507.731 455.38 504.211 465.95C504.211 465.95 516.031 462.95 516.031 470.48L378.931 470.49Z" fill="url(#paint5_linear)"/>
<path d="M595.38 404.58C595.92 407.58 593.85 415.94 595.38 418.58C596.91 421.22 599.7 426.97 597.24 432.06C594.78 437.15 591.73 451.3 608.52 451.73C625.31 452.16 622.42 433.5 620.52 429.86C618.62 426.22 616.11 422.73 615.26 415.19C614.41 407.65 613.65 405.02 604.41 398.06C595.17 391.1 593.81 389.76 591.69 392.38C589.57 395 594.28 398.48 595.38 404.58Z" fill="#423981"/>
<path d="M601.74 407.29C601.74 407.29 615.35 436.12 606.6 468.84" stroke="#231F20" stroke-width="0.72" stroke-miterlimit="10" stroke-linecap="round"/>
<path d="M607.19 424.56L599.53 416.37" stroke="#231F20" stroke-width="0.72" stroke-miterlimit="10" stroke-linecap="round"/>
<path d="M608.761 433.74L613.521 425.86" stroke="#231F20" stroke-width="0.72" stroke-miterlimit="10" stroke-linecap="round"/>
<path d="M609.53 445.07L599.87 436.51" stroke="#231F20" stroke-width="0.72" stroke-miterlimit="10" stroke-linecap="round"/>
<path d="M285.23 479.99C320.383 479.99 348.88 478.445 348.88 476.54C348.88 474.634 320.383 473.09 285.23 473.09C250.077 473.09 221.58 474.634 221.58 476.54C221.58 478.445 250.077 479.99 285.23 479.99Z" fill="#C7CCD1"/>
<path d="M249.62 449.71L248.91 459.34C248.91 459.34 250.41 473.66 250.01 475.39C249.68 476.85 234.27 477.02 228.51 476.05C227.943 475.94 227.432 475.635 227.066 475.187C226.701 474.739 226.504 474.178 226.51 473.6V470.71C226.509 470.262 226.59 469.818 226.75 469.4L231 457.9V449.71H249.62Z" fill="#403882"/>
<path d="M231 457.9C231 457.9 247.07 457.19 247.62 458.65C248.17 460.11 248.88 459.34 248.88 459.34L249.59 449.71H231V457.9Z" fill="#FDA181"/>
<path d="M226.46 470.71V473.6C226.455 474.177 226.651 474.739 227.017 475.187C227.382 475.634 227.893 475.94 228.46 476.05C234.22 477.05 249.63 476.85 249.96 475.39C250.046 474.498 250.046 473.601 249.96 472.71L247.96 473.11C247.96 467.75 245.12 465.78 238.58 464.44C236.635 464.062 234.631 464.112 232.707 464.587C230.784 465.062 228.986 465.95 227.44 467.19L226.61 469.4C226.481 469.824 226.431 470.268 226.46 470.71Z" fill="#E1E7EF"/>
<path d="M343.31 473.56C342.31 470.43 340.47 465.95 337.85 465.15C333.76 463.89 312.8 458.53 312.17 456.33C312.17 456.33 305.81 457.83 305.37 459.28C304.93 460.73 295.92 459.4 295.92 459.4V459.54L294.67 474.7C294.642 474.952 294.668 475.208 294.745 475.45C294.823 475.692 294.951 475.915 295.121 476.104C295.291 476.293 295.499 476.444 295.732 476.546C295.964 476.649 296.216 476.701 296.47 476.7H341.03C341.411 476.706 341.787 476.62 342.128 476.45C342.469 476.28 342.763 476.03 342.987 475.722C343.21 475.414 343.357 475.057 343.413 474.681C343.469 474.304 343.434 473.92 343.31 473.56Z" fill="#403882"/>
<path d="M305.371 459.28C305.811 457.83 312.171 456.33 312.171 456.33C311.541 454.12 311.411 446.05 311.411 446.05L294.521 448.73L295.921 459.4C295.921 459.4 304.921 460.73 305.371 459.28Z" fill="#FDA181"/>
<path d="M296.491 476.66H341.051C341.425 476.66 341.794 476.573 342.128 476.403C342.462 476.234 342.751 475.988 342.971 475.686C343.192 475.383 343.337 475.033 343.396 474.663C343.455 474.294 343.426 473.916 343.311 473.56C342.311 470.43 340.471 465.95 337.851 465.15C337.231 464.96 336.211 464.67 334.931 464.31C334.431 467.06 334.111 473.81 334.111 473.81L294.801 473.35L294.691 474.7C294.668 474.949 294.699 475.2 294.779 475.438C294.859 475.675 294.988 475.893 295.158 476.077C295.327 476.262 295.533 476.409 295.763 476.509C295.992 476.609 296.24 476.661 296.491 476.66Z" fill="#E1E7EF"/>
<path d="M227.291 255.919C227.291 255.919 226.931 343.229 227.291 359.099C227.651 374.969 230.481 449.709 230.481 449.709H249.621C249.621 449.709 254.111 384.009 254.351 369.599C254.591 355.189 252.931 354.219 256.241 339.809C259.551 325.399 265.461 302.689 265.461 302.689C265.461 302.689 281.291 348.359 281.051 354.459C280.811 360.559 279.401 380.109 283.651 394.999C287.901 409.889 294.521 448.729 294.521 448.729C294.521 448.729 306.441 450.729 311.411 446.049C311.411 446.049 306.341 354.949 305.411 342.989C304.481 331.029 291.461 251.989 291.461 251.989L227.291 255.919Z" fill="#403882"/>
<path d="M265.461 302.689L268.211 283.329C268.211 283.329 280.841 343.269 280.801 352.209L265.461 302.689Z" fill="#232059"/>
<path d="M269.24 145.369C269.24 145.369 294.41 150.509 300.08 159.369C305.75 168.229 313.08 213.959 311.08 217.859C309.08 221.759 291.7 220.939 291.7 220.939L291.45 251.999C291.45 251.999 277.51 256.139 255.29 257.679C233.07 259.219 227.29 255.779 227.29 255.779L228.7 234.629C228.7 234.629 218.78 231.439 216.77 222.109C214.76 212.779 208.5 166.689 214.52 160.659C220.54 154.629 247.14 144.529 247.14 144.529L269.24 145.369Z" fill="#1150C0"/>
<path d="M262.621 154.629C262.568 152.808 262.154 151.016 261.404 149.357C260.654 147.697 259.582 146.202 258.251 144.959L247.141 144.539C247.141 144.539 242.641 146.249 236.921 148.679C246.461 157.629 262.621 154.629 262.621 154.629Z" fill="#094082"/>
<path d="M258.131 225.899L275.001 218.729L274.601 200.299L241.511 198.999L242.371 208.849C242.371 208.849 253.801 211.369 255.771 212.439L258.131 225.899Z" fill="#FDA181"/>
<path d="M291.691 220.939L275.001 218.729L258.141 225.899C258.141 225.899 247.741 231.489 228.711 234.639L227.301 255.789C227.301 255.789 238.761 251.899 245.061 248.039C251.361 244.179 258.221 234.959 267.281 233.859C276.341 232.759 291.601 233.38 291.601 233.38L291.691 220.939Z" fill="#094082"/>
<path d="M274.591 200.29H287.991L283.811 185.72L285.621 198.25L274.591 200.29Z" fill="#094082"/>
<path d="M241.51 199.029L239.4 182.829L245.9 199.199L241.51 199.029Z" fill="#094082"/>
<path d="M255.771 212.47C255.771 212.47 268.57 217.11 274.99 218.73L270.641 220.58L256.001 214L255.771 212.47Z" fill="#D17A62"/>
<path d="M242.37 208.879L256 213.999L255.74 212.499C255.74 212.499 252.7 210.999 242.37 208.879Z" fill="#094082"/>
<path d="M273.731 94.61C273.731 94.61 280.821 130.06 275.091 135.61C269.361 141.16 268.531 140.69 268.531 140.69L269.241 145.42C269.241 145.42 270.951 154.22 261.381 154.81C251.811 155.4 247.141 144.59 247.141 144.59L245.071 123.79C245.071 123.79 243.001 124.5 241.351 121.61C239.701 118.72 237.151 109.43 244.721 111.38C244.721 111.33 245.781 82.8 273.731 94.61Z" fill="#F69E80"/>
<path d="M244.721 111.33C245.389 111.525 246.003 111.873 246.514 112.344C247.026 112.816 247.422 113.4 247.671 114.05C248.632 116.662 249.42 119.334 250.031 122.05C250.031 122.05 250.511 131.8 252.101 134.46C253.691 137.12 261.731 143.08 266.281 143.46C270.831 143.84 280.341 138.46 280.341 135.19C280.341 131.92 277.081 118.7 277.081 118.7C275.398 118.264 273.648 118.145 271.921 118.35C269.861 118.79 267.201 119.56 265.571 121.68C263.941 123.8 262.211 125.61 260.491 125.26C258.771 124.91 253.821 122.66 253.171 120.26C252.521 117.86 250.741 112.26 251.101 110.74C251.461 109.22 255.001 105.07 255.101 103.06C255.201 101.05 255.571 95.7396 255.571 95.7396C259.92 96.4313 264.303 96.8853 268.701 97.0996C272.961 97.0996 275.091 96.0296 276.091 93.3096C277.091 90.5896 278.091 83.3096 273.671 83.3096C269.251 83.3096 254.761 79.9996 249.001 83.7996C243.241 87.5996 232.841 97.3296 233.001 98.9996C233.161 100.67 233.711 103.49 233.711 103.49C233.711 103.49 231.341 105.32 232.111 107.15C232.881 108.98 240.741 120.21 240.741 120.21C240.741 120.21 237.001 111 244.721 111.33Z" fill="#403882"/>
<path d="M267.741 124.659C268.472 123.69 269.437 122.922 270.546 122.429C271.655 121.935 272.872 121.732 274.081 121.839C274.081 121.839 274.341 123.839 272.531 124.109C270.721 124.379 268.801 124.089 267.741 124.659Z" fill="#F69E80"/>
<path d="M245.071 123.74C245.705 123.703 246.304 123.44 246.761 123L245.451 127.52L245.071 123.74Z" fill="#D17A62"/>
<path d="M233.001 99C233.121 100.65 233.711 103.49 233.711 103.49C233.711 103.49 231.341 105.32 232.111 107.15C232.881 108.98 240.741 120.21 240.741 120.21C240.741 120.21 237.081 110.99 244.741 111.34C245.409 111.536 246.023 111.883 246.534 112.355C247.046 112.826 247.442 113.41 247.691 114.06C248.652 116.672 249.44 119.344 250.051 122.06C250.051 122.06 247.001 107.73 244.721 105C242.441 102.27 236.501 102.4 235.721 99.45C234.941 96.5 237.841 93.2 238.051 92.96C235.121 95.74 232.901 98.22 233.001 99Z" fill="#1E194F"/>
<path d="M263.151 141.47C255.411 139.87 250.001 122 250.001 122C250.001 122 250.481 131.75 252.071 134.41C253.661 137.07 261.701 143.03 266.251 143.41C269.501 143.66 275.251 141.02 278.311 138.28C277.851 138.6 270.621 143 263.151 141.47Z" fill="#1E194F"/>
<path d="M408.811 33.5703H413.061C414.055 33.5703 415.009 33.9654 415.712 34.6687C416.415 35.3719 416.811 36.3258 416.811 37.3203V458.11H405.061V37.3203C405.061 36.3258 405.456 35.3719 406.159 34.6687C406.862 33.9654 407.816 33.5703 408.811 33.5703Z" fill="#201851"/>
<path d="M451.65 274.36H347.46C346.5 274.36 345.548 274.171 344.661 273.803C343.773 273.435 342.967 272.896 342.288 272.216C341.609 271.536 341.071 270.729 340.704 269.841C340.337 268.953 340.149 268.001 340.15 267.04V234C340.15 232.062 340.921 230.202 342.291 228.831C343.662 227.461 345.522 226.69 347.46 226.69H451.7C453.52 226.69 455.273 227.368 456.62 228.59L474.54 244.89C475.289 245.571 475.889 246.4 476.302 247.324C476.714 248.248 476.931 249.248 476.937 250.26C476.944 251.272 476.74 252.275 476.34 253.204C475.939 254.134 475.351 254.97 474.61 255.66L456.61 272.38C455.264 273.64 453.494 274.347 451.65 274.36Z" fill="#201851"/>
<path d="M453.731 276.241H349.541C347.599 276.241 345.737 275.469 344.365 274.097C342.992 272.724 342.221 270.862 342.221 268.921V235.921C342.221 233.979 342.992 232.117 344.365 230.745C345.737 229.372 347.599 228.601 349.541 228.601H453.771C455.593 228.602 457.349 229.279 458.701 230.501L476.621 246.801C477.368 247.483 477.965 248.312 478.376 249.237C478.787 250.161 479.002 251.161 479.008 252.172C479.013 253.184 478.81 254.186 478.409 255.115C478.009 256.044 477.42 256.88 476.681 257.571L458.681 274.291C457.335 275.54 455.567 276.236 453.731 276.241Z" fill="url(#paint6_linear)"/>
<path d="M466.23 160.381L374 208.761C372.281 209.659 370.276 209.839 368.424 209.262C366.572 208.685 365.024 207.397 364.12 205.681L348.79 176.431C347.892 174.713 347.712 172.709 348.289 170.859C348.867 169.008 350.154 167.463 351.87 166.561L444.19 118.161C445.804 117.313 447.676 117.099 449.44 117.561L472.87 123.671C473.85 123.926 474.766 124.382 475.56 125.009C476.355 125.636 477.011 126.422 477.486 127.316C477.962 128.209 478.247 129.192 478.323 130.202C478.399 131.211 478.266 132.225 477.93 133.181C475.21 140.901 472.493 148.617 469.78 156.331C469.151 158.081 467.883 159.528 466.23 160.381Z" fill="#201851"/>
<path d="M469.94 160.381L377.66 208.761C375.942 209.659 373.939 209.839 372.088 209.261C370.238 208.684 368.692 207.396 367.79 205.681L352.46 176.431C352.013 175.581 351.738 174.651 351.65 173.694C351.563 172.738 351.665 171.773 351.952 170.856C352.238 169.94 352.702 169.088 353.318 168.351C353.934 167.614 354.689 167.005 355.54 166.561L447.86 118.161C449.47 117.313 451.34 117.099 453.1 117.561L476.54 123.671C477.515 123.931 478.426 124.391 479.214 125.021C480.003 125.651 480.653 126.438 481.122 127.331C481.592 128.224 481.872 129.205 481.944 130.212C482.015 131.219 481.878 132.23 481.54 133.181C478.833 140.901 476.117 148.617 473.39 156.331C472.79 158.067 471.559 159.513 469.94 160.381Z" fill="#F55662"/>
<path d="M365.09 72.7598L449.49 47.9998C451.062 47.538 452.752 47.7188 454.191 48.5026C455.629 49.2863 456.697 50.6089 457.161 52.1798L465.001 78.9298C465.459 80.5012 465.275 82.1903 464.49 83.6264C463.704 85.0625 462.381 86.1283 460.811 86.5898L376.37 111.37C374.895 111.803 373.311 111.667 371.93 110.99L353.541 102.05C352.772 101.676 352.09 101.147 351.536 100.496C350.983 99.8444 350.571 99.0857 350.326 98.2672C350.08 97.4487 350.007 96.5882 350.111 95.7401C350.216 94.892 350.494 94.0747 350.93 93.3398L361.511 75.5298C362.313 74.189 363.591 73.1999 365.09 72.7598Z" fill="#201851"/>
<path d="M368 74.1599L452.4 49.3999C453.179 49.17 453.995 49.0961 454.802 49.1824C455.61 49.2687 456.392 49.5135 457.105 49.9027C457.817 50.292 458.446 50.8181 458.955 51.4508C459.464 52.0835 459.843 52.8104 460.07 53.5899L468 80.3299C468.228 81.1112 468.299 81.9299 468.209 82.7388C468.12 83.5477 467.871 84.331 467.478 85.0437C467.085 85.7564 466.555 86.3844 465.919 86.8917C465.283 87.399 464.552 87.7756 463.77 87.9999L379.33 112.77C377.855 113.201 376.273 113.069 374.89 112.4L356.5 103.4C355.732 103.027 355.05 102.499 354.497 101.849C353.943 101.198 353.531 100.44 353.286 99.6227C353.04 98.805 352.967 97.9453 353.071 97.0979C353.175 96.2505 353.454 95.434 353.89 94.6999C357.423 88.7599 360.95 82.8199 364.47 76.8799C365.27 75.5677 366.527 74.5986 368 74.1599Z" fill="url(#paint7_linear)"/>
<g clip-path="url(#clip0)">
<path d="M361.664 172.272L377.421 196.398L389.056 193.811L397.715 185.578L386.481 159.047L361.666 172.272L361.664 172.272ZM394.92 184.999L387.958 191.616L387.964 191.628L387.94 191.632L387.922 191.651L387.916 191.638L378.541 193.728L365.076 173.115L385.318 162.328L394.92 184.999ZM385.65 178.199L387.438 182.419L384.468 185.203L380.511 186.114L378.968 183.752L375.849 185.414L378.884 190.062L386.202 188.427L391.621 183.275L387.392 173.283L376.069 179.317L374.09 176.286L385.977 169.951L384.6 166.697L369.038 174.989L374.884 183.937L385.65 178.199Z" fill="white"/>
</g>
<path d="M259.19 57.0995C259.097 57.864 258.728 58.568 258.151 59.0784C257.574 59.5888 256.83 59.8702 256.06 59.8695H253.69C253.186 59.8695 252.703 59.6693 252.347 59.313C251.99 58.9567 251.79 58.4734 251.79 57.9695C251.727 55.9611 252.142 53.9664 253 52.1495C254.186 50.142 255.76 48.3912 257.63 46.9995C259.124 45.8741 260.523 44.6264 261.81 43.2695C262.495 42.3926 262.868 41.3123 262.87 40.1995C262.872 39.4363 262.705 38.6821 262.382 37.9907C262.059 37.2993 261.587 36.6877 261 36.1995C259.601 35.0369 257.817 34.441 256 34.5295C254.531 34.4651 253.077 34.846 251.828 35.6222C250.579 36.3984 249.593 37.5337 249 38.8795C248.642 39.6482 248.049 40.2833 247.307 40.6931C246.565 41.103 245.711 41.2663 244.87 41.1595C244.282 41.0954 243.718 40.8897 243.227 40.56C242.736 40.2303 242.332 39.7864 242.049 39.2663C241.767 38.7463 241.615 38.1656 241.607 37.574C241.598 36.9824 241.733 36.3975 242 35.8695C242.764 34.3986 243.798 33.0854 245.05 31.9995C247.717 29.6195 251.244 28.4328 255.63 28.4395C260.23 28.4395 263.897 29.6395 266.63 32.0395C267.886 33.0508 268.902 34.3276 269.606 35.7782C270.31 37.2288 270.683 38.8173 270.7 40.4295C270.692 42.2058 270.171 43.9421 269.2 45.4295C268.207 46.9961 266.077 49.1395 262.81 51.8595C261.557 52.7816 260.488 53.9317 259.66 55.2495C259.409 55.8382 259.25 56.4622 259.19 57.0995ZM255.48 70.6295C254.515 70.6295 253.588 70.248 252.903 69.5681C252.217 68.8882 251.828 67.965 251.82 66.9995V66.2995C251.819 65.818 251.913 65.341 252.096 64.8958C252.279 64.4506 252.549 64.0459 252.889 63.705C253.229 63.3641 253.633 63.0936 254.077 62.909C254.522 62.7245 254.999 62.6295 255.48 62.6295H256.15C257.124 62.6295 258.057 63.0161 258.745 63.7044C259.434 64.3927 259.82 65.3261 259.82 66.2995V66.9995C259.82 67.481 259.725 67.9577 259.541 68.4024C259.356 68.8471 259.086 69.251 258.745 69.591C258.404 69.931 257.999 70.2004 257.554 70.3838C257.109 70.5671 256.632 70.6608 256.15 70.6595L255.48 70.6295Z" fill="#F55662"/>
<g clip-path="url(#clip1)">
<path d="M442.988 87.4153L454.76 79.4646L453.01 57.3219L428.687 64.3752L429.114 69.3053L448.606 63.6529L448.862 66.8053L429.341 72.4664L429.738 77.4051L449.231 71.7523L449.708 77.399L442.566 82.1786L435.045 81.651L434.833 79.1856L430.032 80.5778L430.524 86.4928L442.988 87.4153Z" fill="white"/>
</g>
<path d="M351.62 236.87H381.859V267.109H351.62V236.87ZM379.381 259.897C379.161 258.518 378.262 257.358 375.598 256.277C374.67 255.841 373.64 255.541 373.331 254.842C373.217 254.425 373.2 254.2 373.274 253.953C373.464 253.14 374.428 252.897 375.184 253.122C375.677 253.273 376.13 253.651 376.414 254.257C377.716 253.406 377.716 253.406 378.625 252.839C378.284 252.312 378.114 252.082 377.887 251.855C377.093 250.968 376.034 250.514 374.316 250.553L373.429 250.666C372.577 250.874 371.764 251.329 371.273 251.932C369.837 253.558 370.252 256.392 371.991 257.567C373.709 258.852 376.226 259.134 376.547 260.344C376.849 261.819 375.451 262.291 374.069 262.121C373.049 261.892 372.481 261.383 371.858 260.438L369.553 261.761C369.817 262.365 370.119 262.63 370.573 263.159C372.765 265.37 378.247 265.257 379.23 261.892C379.265 261.78 379.532 261.005 379.324 259.814L379.381 259.897ZM368.063 250.768H365.231C365.231 253.209 365.219 255.636 365.219 258.082C365.219 259.635 365.298 261.059 365.044 261.498C364.629 262.366 363.556 262.255 363.07 262.101C362.572 261.856 362.318 261.515 362.024 261.024C361.945 260.893 361.886 260.779 361.864 260.779L359.566 262.197C359.951 262.991 360.512 263.673 361.236 264.107C362.313 264.75 363.759 264.958 365.274 264.619C366.262 264.333 367.114 263.747 367.556 262.84C368.201 261.669 368.063 260.231 368.058 258.625C368.072 256.036 368.058 253.446 368.058 250.839L368.063 250.768Z" fill="white"/>
<path d="M417.876 167.729L415.549 168.969L412.97 164.129L408.432 166.547L411.011 171.387L408.684 172.627L402.666 161.333L404.993 160.093L407.432 164.67L411.97 162.252L409.531 157.676L411.858 156.436L417.876 167.729ZM423.171 152.828L419.712 154.671L424.725 164.08L422.398 165.32L417.385 155.911L413.972 157.73L412.967 155.845L422.167 150.943L423.171 152.828ZM426.542 148.612L433.807 155.257L432.328 145.529L435.384 143.9L441.402 155.194L439.067 156.438L437.422 153.351L434.815 147.898L436.251 157.938L434.653 158.79L427.133 152.002L430.201 157.199L431.846 160.286L429.519 161.526L423.501 150.232L426.542 148.612ZM444.765 151.002L449.706 148.369L450.702 150.239L443.434 154.111L437.416 142.817L439.743 141.578L444.765 151.002Z" fill="white"/>
<path d="M394.209 246.701H396.553V254.576C396.553 255.3 396.391 255.941 396.068 256.498C395.751 257.05 395.3 257.477 394.717 257.779C394.133 258.081 393.475 258.232 392.74 258.232C391.537 258.232 390.6 257.928 389.928 257.318C389.256 256.704 388.92 255.837 388.92 254.717H391.279C391.279 255.274 391.396 255.686 391.631 255.951C391.865 256.217 392.235 256.35 392.74 256.35C393.188 256.35 393.545 256.196 393.811 255.889C394.076 255.581 394.209 255.144 394.209 254.576V246.701ZM403.311 258.076C403.206 257.873 403.131 257.62 403.084 257.318C402.537 257.928 401.826 258.232 400.951 258.232C400.123 258.232 399.436 257.993 398.889 257.514C398.347 257.035 398.076 256.43 398.076 255.701C398.076 254.805 398.407 254.118 399.068 253.639C399.735 253.16 400.696 252.917 401.951 252.912H402.99V252.428C402.99 252.037 402.889 251.725 402.686 251.49C402.488 251.256 402.173 251.139 401.74 251.139C401.36 251.139 401.061 251.23 400.842 251.412C400.628 251.594 400.521 251.844 400.521 252.162H398.264C398.264 251.673 398.415 251.219 398.717 250.803C399.019 250.386 399.446 250.061 399.998 249.826C400.55 249.587 401.17 249.467 401.857 249.467C402.899 249.467 403.725 249.73 404.334 250.256C404.949 250.777 405.256 251.511 405.256 252.459V256.123C405.261 256.925 405.373 257.532 405.592 257.943V258.076H403.311ZM401.443 256.506C401.777 256.506 402.084 256.433 402.365 256.287C402.646 256.136 402.855 255.936 402.99 255.686V254.232H402.146C401.016 254.232 400.415 254.623 400.342 255.404L400.334 255.537C400.334 255.818 400.433 256.05 400.631 256.232C400.829 256.415 401.1 256.506 401.443 256.506ZM410.029 255.318L411.6 249.623H413.959L411.107 258.076H408.951L406.1 249.623H408.459L410.029 255.318ZM419.732 258.076C419.628 257.873 419.553 257.62 419.506 257.318C418.959 257.928 418.248 258.232 417.373 258.232C416.545 258.232 415.857 257.993 415.311 257.514C414.769 257.035 414.498 256.43 414.498 255.701C414.498 254.805 414.829 254.118 415.49 253.639C416.157 253.16 417.118 252.917 418.373 252.912H419.412V252.428C419.412 252.037 419.311 251.725 419.107 251.49C418.91 251.256 418.594 251.139 418.162 251.139C417.782 251.139 417.482 251.23 417.264 251.412C417.05 251.594 416.943 251.844 416.943 252.162H414.686C414.686 251.673 414.837 251.219 415.139 250.803C415.441 250.386 415.868 250.061 416.42 249.826C416.972 249.587 417.592 249.467 418.279 249.467C419.321 249.467 420.146 249.73 420.756 250.256C421.37 250.777 421.678 251.511 421.678 252.459V256.123C421.683 256.925 421.795 257.532 422.014 257.943V258.076H419.732ZM417.865 256.506C418.199 256.506 418.506 256.433 418.787 256.287C419.068 256.136 419.277 255.936 419.412 255.686V254.232H418.568C417.438 254.232 416.837 254.623 416.764 255.404L416.756 255.537C416.756 255.818 416.855 256.05 417.053 256.232C417.251 256.415 417.521 256.506 417.865 256.506ZM429.459 255.092C429.459 254.649 429.303 254.311 428.99 254.076C428.678 253.837 428.115 253.587 427.303 253.326C426.49 253.061 425.847 252.8 425.373 252.545C424.081 251.847 423.436 250.907 423.436 249.725C423.436 249.11 423.607 248.563 423.951 248.084C424.3 247.6 424.798 247.222 425.443 246.951C426.094 246.68 426.824 246.545 427.631 246.545C428.443 246.545 429.167 246.693 429.803 246.99C430.438 247.282 430.93 247.696 431.279 248.232C431.633 248.769 431.811 249.378 431.811 250.061H429.467C429.467 249.54 429.303 249.136 428.975 248.85C428.646 248.558 428.186 248.412 427.592 248.412C427.019 248.412 426.574 248.535 426.256 248.779C425.938 249.019 425.779 249.337 425.779 249.732C425.779 250.102 425.964 250.412 426.334 250.662C426.709 250.912 427.258 251.146 427.982 251.365C429.316 251.766 430.287 252.264 430.896 252.857C431.506 253.451 431.811 254.191 431.811 255.076C431.811 256.061 431.438 256.834 430.693 257.396C429.949 257.954 428.946 258.232 427.686 258.232C426.811 258.232 426.014 258.074 425.295 257.756C424.576 257.433 424.027 256.993 423.646 256.436C423.271 255.878 423.084 255.232 423.084 254.498H425.436C425.436 255.753 426.186 256.381 427.686 256.381C428.243 256.381 428.678 256.269 428.99 256.045C429.303 255.816 429.459 255.498 429.459 255.092ZM436.771 256.412C437.188 256.412 437.527 256.298 437.787 256.068C438.048 255.839 438.183 255.535 438.193 255.154H440.311C440.305 255.727 440.149 256.253 439.842 256.732C439.535 257.206 439.113 257.576 438.576 257.842C438.045 258.102 437.456 258.232 436.811 258.232C435.602 258.232 434.649 257.85 433.951 257.084C433.253 256.313 432.904 255.251 432.904 253.896V253.748C432.904 252.446 433.251 251.407 433.943 250.631C434.636 249.855 435.587 249.467 436.795 249.467C437.852 249.467 438.699 249.769 439.334 250.373C439.975 250.972 440.3 251.771 440.311 252.771H438.193C438.183 252.334 438.048 251.98 437.787 251.709C437.527 251.433 437.183 251.295 436.756 251.295C436.23 251.295 435.831 251.488 435.561 251.873C435.295 252.253 435.162 252.873 435.162 253.732V253.967C435.162 254.837 435.295 255.462 435.561 255.842C435.826 256.222 436.23 256.412 436.771 256.412ZM446.35 251.74C446.042 251.699 445.771 251.678 445.537 251.678C444.683 251.678 444.123 251.967 443.857 252.545V258.076H441.6V249.623H443.732L443.795 250.631C444.248 249.855 444.876 249.467 445.678 249.467C445.928 249.467 446.162 249.501 446.381 249.568L446.35 251.74ZM449.826 258.076H447.561V249.623H449.826V258.076ZM447.428 247.436C447.428 247.097 447.54 246.818 447.764 246.6C447.993 246.381 448.303 246.271 448.693 246.271C449.079 246.271 449.386 246.381 449.615 246.6C449.844 246.818 449.959 247.097 449.959 247.436C449.959 247.779 449.842 248.061 449.607 248.279C449.378 248.498 449.074 248.607 448.693 248.607C448.313 248.607 448.006 248.498 447.771 248.279C447.542 248.061 447.428 247.779 447.428 247.436ZM459.303 253.928C459.303 255.23 459.006 256.274 458.412 257.061C457.824 257.842 457.027 258.232 456.021 258.232C455.167 258.232 454.477 257.936 453.951 257.342V261.326H451.693V249.623H453.787L453.865 250.451C454.412 249.795 455.126 249.467 456.006 249.467C457.048 249.467 457.857 249.852 458.436 250.623C459.014 251.394 459.303 252.456 459.303 253.811V253.928ZM457.045 253.764C457.045 252.977 456.904 252.37 456.623 251.943C456.347 251.516 455.943 251.303 455.412 251.303C454.704 251.303 454.217 251.574 453.951 252.115V255.576C454.227 256.133 454.719 256.412 455.428 256.412C456.506 256.412 457.045 255.529 457.045 253.764ZM463.412 247.545V249.623H464.857V251.279H463.412V255.498C463.412 255.811 463.472 256.035 463.592 256.17C463.712 256.305 463.941 256.373 464.279 256.373C464.529 256.373 464.751 256.355 464.943 256.318V258.029C464.501 258.165 464.045 258.232 463.576 258.232C461.993 258.232 461.186 257.433 461.154 255.834V251.279H459.92V249.623H461.154V247.545H463.412Z" fill="white"/>
<path d="M387.426 91.1661C387.753 92.6646 387.552 93.9802 386.821 95.1129C386.097 96.2438 384.935 97.0457 383.337 97.5184C381.589 98.0355 380.039 97.8559 378.686 96.9796C377.339 96.0951 376.361 94.6259 375.753 92.572L375.507 91.7385C375.119 90.4275 375.008 89.2042 375.175 88.0687C375.341 86.9331 375.774 85.9735 376.472 85.1899C377.175 84.3981 378.094 83.8342 379.23 83.4981C380.803 83.0327 382.195 83.0792 383.406 83.6376C384.617 84.196 385.523 85.2147 386.123 86.6937L383.314 87.5247C382.985 86.6648 382.55 86.1009 382.009 85.8332C381.472 85.5574 380.773 85.5469 379.912 85.8017C378.975 86.0788 378.373 86.6237 378.104 87.4364C377.84 88.2411 377.91 89.3507 378.315 90.7653L378.619 91.7954C379.055 93.2687 379.595 94.2801 380.24 94.8295C380.891 95.377 381.697 95.5085 382.658 95.2241C383.526 94.9674 384.114 94.5796 384.422 94.0608C384.735 93.5338 384.799 92.8459 384.616 91.9971L387.426 91.1661ZM396.626 89.4934C396.469 88.9627 396.162 88.6123 395.704 88.4422C395.244 88.2659 394.482 88.1656 393.415 88.1416C392.347 88.1113 391.484 88.0272 390.825 87.8894C389.03 87.5108 387.922 86.613 387.503 85.1958C387.285 84.4591 387.297 83.7427 387.539 83.0464C387.786 82.3421 388.248 81.7131 388.926 81.1595C389.61 80.604 390.436 80.1831 391.404 79.8969C392.378 79.6088 393.298 79.53 394.165 79.6605C395.03 79.7848 395.767 80.1066 396.376 80.6259C396.99 81.1434 397.419 81.811 397.661 82.6288L394.851 83.4599C394.667 82.8356 394.327 82.4099 393.832 82.1829C393.335 81.9497 392.731 81.9383 392.019 82.1488C391.333 82.352 390.842 82.6566 390.548 83.0627C390.252 83.4625 390.175 83.8996 390.315 84.3741C390.446 84.8174 390.778 85.1233 391.309 85.2918C391.848 85.4585 392.589 85.5446 393.535 85.5501C395.275 85.558 396.616 85.8098 397.557 86.3054C398.498 86.8011 399.125 87.5795 399.439 88.6408C399.788 89.8208 399.616 90.8799 398.923 91.8182C398.228 92.7503 397.125 93.4398 395.614 93.8867C394.565 94.197 393.553 94.2892 392.579 94.1632C391.603 94.031 390.789 93.6983 390.135 93.1651C389.488 92.6301 389.034 91.9224 388.774 91.0422L391.593 90.2083C392.038 91.7129 393.159 92.1992 394.957 91.6674C395.625 91.4698 396.107 91.1813 396.402 90.8021C396.695 90.4166 396.77 89.9803 396.626 89.4934ZM408.425 86.003C408.268 85.4723 407.961 85.1219 407.503 84.9518C407.044 84.7754 406.281 84.6752 405.215 84.6512C404.146 84.6209 403.283 84.5368 402.624 84.399C400.829 84.0204 399.721 83.1225 399.302 81.7054C399.084 80.9687 399.096 80.2523 399.338 79.556C399.585 78.8517 400.047 78.2227 400.725 77.6691C401.41 77.1136 402.236 76.6927 403.203 76.4065C404.177 76.1184 405.098 76.0396 405.965 76.1701C406.83 76.2944 407.566 76.6162 408.175 77.1355C408.79 77.653 409.218 78.3206 409.46 79.1384L406.651 79.9695C406.466 79.3452 406.126 78.9195 405.631 78.6925C405.134 78.4592 404.53 78.4479 403.819 78.6584C403.132 78.8616 402.641 79.1662 402.347 79.5722C402.052 79.9721 401.974 80.4092 402.114 80.8837C402.245 81.3269 402.577 81.6328 403.109 81.8014C403.647 81.9681 404.389 82.0542 405.334 82.0597C407.074 82.0676 408.415 82.3194 409.356 82.815C410.297 83.3107 410.924 84.0891 411.238 85.1504C411.587 86.3304 411.415 87.3895 410.722 88.3278C410.027 89.2599 408.924 89.9494 407.413 90.3963C406.364 90.7066 405.353 90.7987 404.379 90.6728C403.403 90.5406 402.588 90.2079 401.934 89.6747C401.287 89.1396 400.834 88.432 400.573 87.5517L403.392 86.7179C403.837 88.2225 404.959 88.7088 406.757 88.177C407.425 87.9793 407.906 87.6909 408.201 87.3117C408.495 86.9262 408.569 86.4899 408.425 86.003Z" fill="white"/>
<defs>
<linearGradient id="paint0_linear" x1="122.77" y1="248.79" x2="212.34" y2="72.4899" gradientUnits="userSpaceOnUse">
<stop stop-color="#F69A5E"/>
<stop offset="0.29" stop-color="#FAAC60"/>
<stop offset="0.71" stop-color="#FEC062"/>
<stop offset="1" stop-color="#FFC763"/>
</linearGradient>
<linearGradient id="paint1_linear" x1="-16707.8" y1="48407.4" x2="-38227.6" y2="28264.6" gradientUnits="userSpaceOnUse">
<stop stop-color="#F69A5E"/>
<stop offset="0.29" stop-color="#FAAC60"/>
<stop offset="0.71" stop-color="#FEC062"/>
<stop offset="1" stop-color="#FFC763"/>
</linearGradient>
<linearGradient id="paint2_linear" x1="529.07" y1="285.67" x2="471.04" y2="171.72" gradientUnits="userSpaceOnUse">
<stop stop-color="#1252C4"/>
<stop offset="1" stop-color="#3F87FE"/>
</linearGradient>
<linearGradient id="paint3_linear" x1="74.1504" y1="216.84" x2="127.43" y2="412.88" gradientUnits="userSpaceOnUse">
<stop stop-color="#FF9D5D"/>
<stop offset="0.08" stop-color="#FF985D"/>
<stop offset="0.18" stop-color="#FF8A5C"/>
<stop offset="0.28" stop-color="#FF725B"/>
<stop offset="0.37" stop-color="#FF825B"/>
<stop offset="0.49" stop-color="#FF8F5C"/>
<stop offset="0.64" stop-color="#FF965C"/>
<stop offset="1" stop-color="#FF985C"/>
</linearGradient>
<linearGradient id="paint4_linear" x1="-20723.2" y1="64950" x2="-30236.6" y2="48460.2" gradientUnits="userSpaceOnUse">
<stop stop-color="#1252C4"/>
<stop offset="1" stop-color="#3F87FE"/>
</linearGradient>
<linearGradient id="paint5_linear" x1="516.031" y1="456.98" x2="378.931" y2="456.98" gradientUnits="userSpaceOnUse">
<stop stop-color="#FF9D5C"/>
<stop offset="1" stop-color="#FFC961"/>
</linearGradient>
<linearGradient id="paint6_linear" x1="342.221" y1="252.411" x2="479.011" y2="252.411" gradientUnits="userSpaceOnUse">
<stop stop-color="#F8A034"/>
<stop offset="1" stop-color="#FFC546"/>
</linearGradient>
<linearGradient id="paint7_linear" x1="54779.1" y1="6619.61" x2="47641.4" y2="1651.94" gradientUnits="userSpaceOnUse">
<stop stop-color="#1252C4"/>
<stop offset="1" stop-color="#3F87FE"/>
</linearGradient>
<clipPath id="clip0">
<rect width="31.8902" height="31.8902" fill="white" transform="translate(360 173.159) rotate(-28.0535)"/>
</clipPath>
<clipPath id="clip1">
<rect width="31.6616" height="27.8622" fill="white" transform="translate(422.325 63.8086) rotate(-15.5115)"/>
</clipPath>
</defs>
</svg>
