<svg xmlns="http://www.w3.org/2000/svg" xmlns:xlink="http://www.w3.org/1999/xlink" viewBox="0 0 720 504"><defs><style>.cls-1{fill:#fff;}.cls-2{fill:url(#linear-gradient);}.cls-3,.cls-36{fill:none;stroke:#231f20;stroke-linecap:round;stroke-miterlimit:10;}.cls-3{stroke-width:1.2px;}.cls-4{fill:url(#linear-gradient-2);}.cls-5{fill:#201851;}.cls-6{fill:#f35662;}.cls-7{fill:url(#linear-gradient-3);}.cls-8{fill:#ececec;}.cls-9{fill:#c8c8c8;}.cls-10{fill:url(#linear-gradient-4);}.cls-11{fill:url(#linear-gradient-5);}.cls-12{fill:#dbdbdb;}.cls-13{fill:url(#linear-gradient-6);}.cls-14{fill:url(#linear-gradient-7);}.cls-15{fill:url(#linear-gradient-8);}.cls-16{fill:url(#linear-gradient-9);}.cls-17{fill:url(#linear-gradient-10);}.cls-18{fill:#c7ccd1;}.cls-19{fill:#403882;}.cls-20{fill:#fda181;}.cls-21{fill:#e1e7ef;}.cls-22{fill:#232059;}.cls-23{fill:#1150be;}.cls-24{fill:#094080;}.cls-25{fill:#fb9f80;}.cls-26{fill:#f69e80;}.cls-27{fill:#d17a62;}.cls-28{fill:#1e194f;}.cls-29{fill:#094082;}.cls-30{fill:#fc825a;}.cls-31{fill:#413b88;}.cls-32{fill:url(#linear-gradient-11);}.cls-33{fill:url(#linear-gradient-12);}.cls-34{fill:#3d86fa;}.cls-35{fill:#1351be;}.cls-36{stroke-width:0.81px;}.cls-37{fill:url(#linear-gradient-13);}.cls-38{fill:#231f20;}.cls-39{fill:url(#linear-gradient-14);}.cls-40{fill:url(#linear-gradient-15);}</style><linearGradient id="linear-gradient" x1="672.45" y1="242.05" x2="584.16" y2="68.68" gradientUnits="userSpaceOnUse"><stop offset="0" stop-color="#f5995e"/><stop offset="0.29" stop-color="#f9ab60"/><stop offset="0.71" stop-color="#fdbf62"/><stop offset="1" stop-color="#ffc663"/></linearGradient><linearGradient id="linear-gradient-2" x1="173.83" y1="242.05" x2="85.54" y2="68.68" xlink:href="#linear-gradient"/><linearGradient id="linear-gradient-3" x1="469.5" y1="101.14" x2="322.41" y2="206.69" gradientUnits="userSpaceOnUse"><stop offset="0" stop-color="#f69e34"/><stop offset="1" stop-color="#ffc346"/></linearGradient><linearGradient id="linear-gradient-4" x1="496.38" y1="138.6" x2="349.29" y2="244.15" xlink:href="#linear-gradient-3"/><linearGradient id="linear-gradient-5" x1="370.23" y1="-37.21" x2="223.13" y2="68.34" xlink:href="#linear-gradient-3"/><linearGradient id="linear-gradient-6" x1="467.17" y1="97.89" x2="320.08" y2="203.44" gradientTransform="translate(705.21 360.19) rotate(-180)" xlink:href="#linear-gradient-3"/><linearGradient id="linear-gradient-7" x1="461.9" y1="90.56" x2="314.81" y2="196.1" gradientTransform="translate(607.14 408.34) rotate(-180)" xlink:href="#linear-gradient-3"/><linearGradient id="linear-gradient-8" x1="430.31" y1="46.52" x2="283.21" y2="152.07" gradientTransform="translate(509.08 345.28) rotate(-180)" xlink:href="#linear-gradient-3"/><linearGradient id="linear-gradient-9" x1="496.59" y1="138.9" x2="349.5" y2="244.44" xlink:href="#linear-gradient-3"/><linearGradient id="linear-gradient-10" x1="513.53" y1="162.51" x2="366.44" y2="268.06" xlink:href="#linear-gradient-3"/><linearGradient id="linear-gradient-11" x1="78.31" y1="479.14" x2="115.31" y2="308.2" gradientTransform="matrix(-1, 0, 0, 1, 368.97, 0)" gradientUnits="userSpaceOnUse"><stop offset="0" stop-color="#1252c2"/><stop offset="1" stop-color="#3f85fc"/></linearGradient><linearGradient id="linear-gradient-12" x1="-5.44" y1="457.09" x2="145.79" y2="457.09" gradientTransform="matrix(-1, 0, 0, 1, 368.97, 0)" gradientUnits="userSpaceOnUse"><stop offset="0" stop-color="#ff9b5c"/><stop offset="1" stop-color="#ffc761"/></linearGradient><linearGradient id="linear-gradient-13" x1="-370.97" y1="475.19" x2="-360.21" y2="436.91" gradientTransform="matrix(-1, 0, 0, 1, 252, 0)" gradientUnits="userSpaceOnUse"><stop offset="0" stop-color="#f8a034"/><stop offset="1" stop-color="#ffc546"/></linearGradient><linearGradient id="linear-gradient-14" x1="-372.84" y1="476.48" x2="-386.13" y2="448.96" gradientTransform="matrix(-1, 0, 0, 1, 252, 0)" gradientUnits="userSpaceOnUse"><stop offset="0" stop-color="#fcb72c"/><stop offset="1" stop-color="#ffcf44"/></linearGradient><linearGradient id="linear-gradient-15" x1="-356.28" y1="478.28" x2="-351.53" y2="460.57" xlink:href="#linear-gradient-14"/></defs><g id="Layer_2" data-name="Layer 2"><g id="Layer_1-2" data-name="Layer 1"><rect class="cls-1" width="720" height="504"/><path class="cls-2" d="M648.35,53.13c4.8,3.93,34.54,37.36,24.18,83.54s-35.84,69-69.09,59.15-66.93-39.95-58.29-87.17S591.35,6.42,648.35,53.13Z"/><line class="cls-3" x1="613.05" y1="98.46" x2="613.05" y2="473.3"/><line class="cls-3" x1="613.05" y1="148.1" x2="634.19" y2="126.4"/><line class="cls-3" x1="613.05" y1="121.7" x2="595.17" y2="103.35"/><path class="cls-4" d="M149.73,53.13c4.8,3.93,34.54,37.36,24.18,83.54s-35.84,69-69.09,59.15-66.93-39.95-58.29-87.17S92.73,6.42,149.73,53.13Z"/><line class="cls-3" x1="114.42" y1="98.46" x2="114.42" y2="473.3"/><line class="cls-3" x1="114.42" y1="148.1" x2="135.57" y2="126.4"/><line class="cls-3" x1="114.42" y1="121.7" x2="96.55" y2="103.35"/><g id="DATA"><path class="cls-5" d="M404.58,114.86a46.14,46.14,0,0,1,46.14-46.14V161A46.13,46.13,0,0,1,404.58,114.86Z"/><path class="cls-6" d="M411.08,114.86a39.64,39.64,0,0,1,67.1-28.58l-27.46,28.58v39.63A39.63,39.63,0,0,1,411.08,114.86Z"/><path class="cls-5" d="M417.48,114.86a33.25,33.25,0,0,1,66.5,0H450.73v33.25A33.24,33.24,0,0,1,417.48,114.86Z"/><path class="cls-7" d="M424.36,114.86a26.37,26.37,0,1,1,45.23,18.42l-18.86-18.42v26.37A26.37,26.37,0,0,1,424.36,114.86Z"/><rect class="cls-8" x="450.72" y="114.72" width="43.03" height="0.28"/><circle class="cls-5" cx="492.42" cy="114.85" r="1.65"/><path class="cls-5" d="M502.34,113.72l-1.28,3a.26.26,0,0,1-.26.17l-.1,0a.3.3,0,0,1-.16-.37l1.1-2.61h-1.31a.29.29,0,0,1,0-.57h1.8a.21.21,0,0,1,.1,0h0l0,0,0,0,0,0v0l0,0v0a0,0,0,0,1,0,0,.2.2,0,0,1,0,.11A.43.43,0,0,1,502.34,113.72Z"/><path class="cls-5" d="M504.8,114.74a1.24,1.24,0,0,1,.37.9,1.29,1.29,0,0,1-.37.89,1.25,1.25,0,0,1-.89.37h0a1.23,1.23,0,0,1-.89-.37.29.29,0,0,1,.41-.41.64.64,0,0,0,.49.2.65.65,0,0,0,.48-.2.7.7,0,0,0,.21-.48.65.65,0,0,0-.21-.49.63.63,0,0,0-.48-.2.66.66,0,0,0-.49.2.3.3,0,0,1-.41,0l-.05-.07s0,0,0,0,0,0,0,0v0a0,0,0,0,1,0,0v-.08l.15-1.32a.33.33,0,0,1,.13-.21h0a.28.28,0,0,1,.13,0h1.5a.29.29,0,1,1,0,.58h-1.25l-.06.5a1.32,1.32,0,0,1,.34,0A1.25,1.25,0,0,1,504.8,114.74Z"/><path class="cls-5" d="M506,114.21h0a.84.84,0,1,1,1.68,0h0a.87.87,0,0,1-.85.92A.85.85,0,0,1,506,114.21Zm1.22,0h0c0-.28-.16-.52-.39-.52s-.38.24-.38.51h0c0,.29.16.52.39.52S507.18,114.49,507.18,114.21Zm-.64,2.38,2.34-3.19a.19.19,0,0,1,.17-.09.19.19,0,0,1,.2.2.28.28,0,0,1,0,.13l-2.34,3.19a.2.2,0,0,1-.18.09.19.19,0,0,1-.2-.2A.21.21,0,0,1,506.54,116.59Zm1.57-.55h0a.84.84,0,1,1,1.68,0h0a.86.86,0,0,1-.85.91A.85.85,0,0,1,508.11,116Zm1.23,0h0c0-.29-.17-.52-.4-.52s-.38.23-.38.51h0c0,.29.17.52.39.52S509.34,116.31,509.34,116Z"/><rect class="cls-9" x="500" y="119.65" width="18.31" height="0.44"/><rect class="cls-9" x="500" y="120.84" width="18.31" height="0.44"/><rect class="cls-9" x="500" y="122.03" width="18.31" height="0.44"/><rect class="cls-9" x="500" y="123.23" width="18.31" height="0.44"/><rect class="cls-9" x="500" y="124.42" width="18.31" height="0.44"/><rect class="cls-9" x="500" y="125.62" width="18.31" height="0.44"/><rect class="cls-9" x="500" y="126.81" width="18.31" height="0.44"/><polygon class="cls-8" points="493.75 141.59 477.84 141.59 477.79 141.55 450.71 114.96 450.91 114.76 477.95 141.31 493.75 141.31 493.75 141.59"/><path class="cls-10" d="M494.07,141.45a1.66,1.66,0,1,1-1.65-1.65A1.65,1.65,0,0,1,494.07,141.45Z"/><path class="cls-5" d="M502.44,142.29a1.22,1.22,0,1,1-1.89-1,.78.78,0,0,1-.17-.5.84.84,0,1,1,1.68,0,.78.78,0,0,1-.17.5A1.22,1.22,0,0,1,502.44,142.29Zm-.56,0a.67.67,0,0,0-.65-.67.68.68,0,0,0-.67.67.66.66,0,0,0,.67.65A.65.65,0,0,0,501.88,142.29Zm-.94-1.52a.28.28,0,0,0,.29.29.29.29,0,0,0,0-.57A.28.28,0,0,0,500.94,140.77Z"/><path class="cls-5" d="M505.15,141.34a1.24,1.24,0,0,1,.37.9,1.29,1.29,0,0,1-.37.89,1.25,1.25,0,0,1-.89.37h0a1.23,1.23,0,0,1-.89-.37.28.28,0,0,1,0-.41.3.3,0,0,1,.41,0,.64.64,0,0,0,.49.2.65.65,0,0,0,.48-.2.69.69,0,0,0,.2-.48.64.64,0,0,0-.2-.49.69.69,0,0,0-1,0,.3.3,0,0,1-.41,0l-.06-.07h0s0,0,0,0,0,0,0,0h0a.11.11,0,0,1,0-.08l.15-1.32a.29.29,0,0,1,.13-.2h0a.21.21,0,0,1,.14,0h1.5a.29.29,0,1,1,0,.58H504l-.07.5a1.39,1.39,0,0,1,.35,0A1.25,1.25,0,0,1,505.15,141.34Z"/><path class="cls-5" d="M506.3,140.82h0a.87.87,0,0,1,.85-.92.85.85,0,0,1,.83.91h0a.84.84,0,1,1-1.68,0Zm1.23,0h0c0-.29-.16-.52-.39-.52s-.38.23-.38.51h0c0,.29.16.51.39.51S507.53,141.09,507.53,140.82Zm-.64,2.37,2.34-3.19a.19.19,0,0,1,.17-.09.2.2,0,0,1,.2.2.28.28,0,0,1,0,.13l-2.34,3.19a.21.21,0,0,1-.18.09.19.19,0,0,1-.2-.19A.24.24,0,0,1,506.89,143.19Zm1.57-.55h0a.84.84,0,1,1,1.68,0h0a.86.86,0,0,1-.85.91A.85.85,0,0,1,508.46,142.64Zm1.22,0h0c0-.29-.16-.52-.39-.52s-.38.23-.38.51h0c0,.29.16.52.39.52S509.68,142.91,509.68,142.64Z"/><rect class="cls-9" x="500" y="146.25" width="18.31" height="0.44"/><rect class="cls-9" x="500" y="147.44" width="18.31" height="0.44"/><rect class="cls-9" x="500" y="148.63" width="18.31" height="0.44"/><rect class="cls-9" x="500" y="149.83" width="18.31" height="0.44"/><rect class="cls-9" x="500" y="151.02" width="18.31" height="0.44"/><rect class="cls-9" x="500" y="152.22" width="18.31" height="0.44"/><rect class="cls-9" x="500" y="153.41" width="18.31" height="0.44"/><polygon class="cls-8" points="450.86 114.86 450.58 114.86 450.58 55.8 493.75 55.8 493.75 56.09 450.86 56.09 450.86 114.86"/><circle class="cls-5" cx="492.42" cy="55.95" r="1.65"/><path class="cls-5" d="M501.93,55.84A1.27,1.27,0,0,1,501,58h0a1.24,1.24,0,0,1-.88-.38.28.28,0,0,1,.4-.4.69.69,0,0,0,1-1,.7.7,0,0,0-.49-.19.72.72,0,0,0-.49.19.27.27,0,0,1-.4,0l-.06-.06v0s0,0,0,0h0a.14.14,0,0,1,0-.09l.15-1.31a.3.3,0,0,1,.13-.21h0a.28.28,0,0,1,.13,0H502a.29.29,0,0,1,.29.29A.3.3,0,0,1,502,55h-1.26l-.06.5a1.33,1.33,0,0,1,.34,0A1.24,1.24,0,0,1,501.93,55.84Z"/><path class="cls-5" d="M503.14,56.21a2.16,2.16,0,0,1,.35-1.21,1.13,1.13,0,0,1,.94-.57,1.16,1.16,0,0,1,.95.57,2.23,2.23,0,0,1,.34,1.21,2.27,2.27,0,0,1-.34,1.22,1.18,1.18,0,0,1-.95.57,1.15,1.15,0,0,1-.94-.57A2.19,2.19,0,0,1,503.14,56.21Zm2,0a1.71,1.71,0,0,0-.24-.9.57.57,0,0,0-.48-.31.59.59,0,0,0-.48.31,1.71,1.71,0,0,0-.24.9,1.66,1.66,0,0,0,.24.9.63.63,0,0,0,.48.32.61.61,0,0,0,.48-.32A1.66,1.66,0,0,0,505.15,56.21Z"/><path class="cls-5" d="M506.71,55.31h0a.86.86,0,0,1,.84-.91.85.85,0,0,1,.84.9h0a.84.84,0,1,1-1.68,0Zm1.23,0h0a.47.47,0,0,0-.4-.52c-.24,0-.38.24-.38.51h0c0,.29.17.52.39.52S507.94,55.59,507.94,55.31Zm-.65,2.38,2.34-3.19a.2.2,0,0,1,.18-.09.19.19,0,0,1,.2.19.22.22,0,0,1-.05.14l-2.33,3.19a.21.21,0,0,1-.18.09.2.2,0,0,1-.2-.2A.28.28,0,0,1,507.29,57.69Zm1.57-.56h0a.86.86,0,0,1,.85-.91.85.85,0,0,1,.83.9h0a.84.84,0,1,1-1.68,0Zm1.23,0h0c0-.28-.16-.51-.39-.51s-.38.23-.38.5h0c0,.3.16.52.39.52S510.09,57.41,510.09,57.13Z"/><rect class="cls-9" x="500" y="60.74" width="18.31" height="0.44"/><rect class="cls-9" x="500" y="61.94" width="18.31" height="0.44"/><rect class="cls-9" x="500" y="63.13" width="18.31" height="0.44"/><rect class="cls-9" x="500" y="64.33" width="18.31" height="0.44"/><rect class="cls-9" x="500" y="65.52" width="18.31" height="0.44"/><rect class="cls-9" x="500" y="66.71" width="18.31" height="0.44"/><rect class="cls-9" x="500" y="67.91" width="18.31" height="0.44"/><polygon class="cls-8" points="450.89 114.96 450.68 114.76 481.62 82.64 493.75 82.64 493.75 82.92 481.74 82.92 450.89 114.96"/><path class="cls-6" d="M494.07,82.79a1.66,1.66,0,1,1-1.65-1.65A1.65,1.65,0,0,1,494.07,82.79Z"/><path class="cls-5" d="M502.53,83.6a1.23,1.23,0,0,1-2.46.13h0c0-.1,0-.19,0-.29a2.88,2.88,0,0,1,.18-1,1.75,1.75,0,0,1,.65-.87,1.43,1.43,0,0,1,.77-.24.27.27,0,0,1,.29.27.28.28,0,0,1-.27.29,1,1,0,0,0-.48.14,1.12,1.12,0,0,0-.32.36.83.83,0,0,0-.07.13,1.34,1.34,0,0,1,.49-.1A1.23,1.23,0,0,1,502.53,83.6Zm-.57,0a.67.67,0,1,0-1.34,0,.67.67,0,1,0,1.34,0Z"/><path class="cls-5" d="M505.21,82.68a1.23,1.23,0,0,1,.37.89,1.26,1.26,0,0,1-1.26,1.27h0a1.27,1.27,0,0,1-.89-.37.28.28,0,0,1,0-.41.3.3,0,0,1,.41,0,.64.64,0,0,0,.49.2.65.65,0,0,0,.48-.2.7.7,0,0,0,.2-.49.63.63,0,0,0-.2-.48.69.69,0,0,0-1,0,.3.3,0,0,1-.41,0l-.06-.07v0a0,0,0,0,0,0,0s0,0,0,0h0a.11.11,0,0,1,0-.08l.15-1.32a.33.33,0,0,1,.13-.21h0a0,0,0,0,0,0,0,.32.32,0,0,1,.14,0h1.5a.29.29,0,0,1,0,.58H504l-.06.5a1.27,1.27,0,0,1,.34,0A1.25,1.25,0,0,1,505.21,82.68Z"/><path class="cls-5" d="M506.36,82.15h0a.86.86,0,0,1,.85-.91.85.85,0,0,1,.83.9h0a.84.84,0,1,1-1.68,0Zm1.23,0h0c0-.28-.16-.52-.39-.52s-.38.24-.38.51h0c0,.29.16.52.39.52S507.59,82.43,507.59,82.15ZM507,84.53l2.34-3.19a.19.19,0,0,1,.17-.09.19.19,0,0,1,.2.2.28.28,0,0,1,0,.13l-2.34,3.19a.21.21,0,0,1-.18.09.19.19,0,0,1-.2-.2A.21.21,0,0,1,507,84.53Zm1.57-.55h0a.84.84,0,1,1,1.68,0h0a.86.86,0,0,1-.85.91A.85.85,0,0,1,508.52,84Zm1.23,0h0c0-.29-.17-.52-.4-.52s-.38.23-.38.51h0c0,.29.16.52.39.52S509.75,84.25,509.75,84Z"/><rect class="cls-9" x="500" y="87.58" width="18.31" height="0.44"/><rect class="cls-9" x="500" y="88.78" width="18.31" height="0.44"/><rect class="cls-9" x="500" y="89.97" width="18.31" height="0.44"/><rect class="cls-9" x="500" y="91.17" width="18.31" height="0.44"/><rect class="cls-9" x="500" y="92.36" width="18.31" height="0.44"/><rect class="cls-9" x="500" y="93.56" width="18.31" height="0.44"/><rect class="cls-9" x="500" y="94.75" width="18.31" height="0.44"/><circle class="cls-8" cx="450.74" cy="114.83" r="20.3" transform="translate(236.16 527.51) rotate(-76.82)"/><rect class="cls-1" x="184.56" y="57.26" width="213.5" height="178.84"/><path class="cls-8" d="M398.69,236.73H183.94V56.64H398.69Zm-213.5-1.25H397.44V57.89H185.19Z"/><path class="cls-5" d="M200.25,65.54a3.74,3.74,0,1,1-3.74-3.74A3.75,3.75,0,0,1,200.25,65.54Z"/><path class="cls-8" d="M215.51,65.54a3.74,3.74,0,1,1-3.74-3.74A3.75,3.75,0,0,1,215.51,65.54Z"/><path class="cls-11" d="M230.77,65.54A3.74,3.74,0,1,1,227,61.8,3.74,3.74,0,0,1,230.77,65.54Z"/><rect class="cls-8" x="184.56" y="73.12" width="213.5" height="1.25"/><path class="cls-12" d="M345.62,118.05a1.17,1.17,0,1,1-1.17,1.16A1.16,1.16,0,0,1,345.62,118.05Z"/><path class="cls-12" d="M345.62,127.36a1.16,1.16,0,1,1,1.16-1.16A1.16,1.16,0,0,1,345.62,127.36Z"/><path class="cls-12" d="M345.62,134.35a1.17,1.17,0,1,1,1.16-1.16A1.16,1.16,0,0,1,345.62,134.35Z"/><path class="cls-12" d="M345.62,141.34a1.17,1.17,0,1,1,1.16-1.17A1.17,1.17,0,0,1,345.62,141.34Z"/><path class="cls-12" d="M345.62,148.32a1.16,1.16,0,1,1,1.16-1.16A1.16,1.16,0,0,1,345.62,148.32Z"/><path class="cls-12" d="M345.62,155.31a1.17,1.17,0,1,1,1.16-1.16A1.16,1.16,0,0,1,345.62,155.31Z"/><path class="cls-12" d="M345.62,162.3a1.17,1.17,0,1,1,1.16-1.17A1.17,1.17,0,0,1,345.62,162.3Z"/><path class="cls-12" d="M345.62,169.28a1.16,1.16,0,1,1,1.16-1.16A1.16,1.16,0,0,1,345.62,169.28Z"/><path class="cls-12" d="M345.62,176.27a1.17,1.17,0,1,1,1.16-1.16A1.16,1.16,0,0,1,345.62,176.27Z"/><path class="cls-12" d="M345.62,183.26a1.17,1.17,0,1,1,1.16-1.17A1.17,1.17,0,0,1,345.62,183.26Z"/><path class="cls-12" d="M345.62,190.24a1.16,1.16,0,1,1,1.16-1.16A1.16,1.16,0,0,1,345.62,190.24Z"/><path class="cls-12" d="M345.62,197.23a1.17,1.17,0,1,1,1.16-1.16A1.16,1.16,0,0,1,345.62,197.23Z"/><path class="cls-12" d="M345.62,204.22a1.17,1.17,0,1,1,1.16-1.17A1.17,1.17,0,0,1,345.62,204.22Z"/><path class="cls-12" d="M345.62,211.2a1.16,1.16,0,1,1,1.16-1.16A1.16,1.16,0,0,1,345.62,211.2Z"/><path class="cls-12" d="M345.62,218.19a1.17,1.17,0,1,1,1.16-1.16A1.16,1.16,0,0,1,345.62,218.19Z"/><path class="cls-12" d="M348,220.25a1.14,1.14,0,0,1,2.22,0Z"/><path class="cls-12" d="M352.6,120.38a1.17,1.17,0,1,1,1.17-1.17A1.17,1.17,0,0,1,352.6,120.38Z"/><circle class="cls-12" cx="349.11" cy="115.72" r="1.16"/><path class="cls-12" d="M352.6,127.36a1.16,1.16,0,1,1,1.17-1.16A1.16,1.16,0,0,1,352.6,127.36Z"/><circle class="cls-12" cx="349.11" cy="122.71" r="1.16"/><path class="cls-12" d="M352.6,134.35a1.17,1.17,0,1,1,1.17-1.16A1.16,1.16,0,0,1,352.6,134.35Z"/><path class="cls-12" d="M349.11,130.86a1.17,1.17,0,1,1,1.16-1.17A1.17,1.17,0,0,1,349.11,130.86Z"/><path class="cls-12" d="M352.6,141.34a1.17,1.17,0,1,1,1.17-1.17A1.17,1.17,0,0,1,352.6,141.34Z"/><path class="cls-12" d="M349.11,137.84a1.16,1.16,0,1,1,1.16-1.16A1.16,1.16,0,0,1,349.11,137.84Z"/><path class="cls-12" d="M352.6,148.32a1.16,1.16,0,1,1,1.17-1.16A1.16,1.16,0,0,1,352.6,148.32Z"/><circle class="cls-12" cx="349.11" cy="143.67" r="1.16"/><path class="cls-12" d="M352.6,155.31a1.17,1.17,0,1,1,1.17-1.16A1.16,1.16,0,0,1,352.6,155.31Z"/><path class="cls-12" d="M349.11,151.82a1.17,1.17,0,1,1,1.16-1.17A1.16,1.16,0,0,1,349.11,151.82Z"/><path class="cls-12" d="M352.6,162.3a1.17,1.17,0,1,1,1.17-1.17A1.16,1.16,0,0,1,352.6,162.3Z"/><path class="cls-12" d="M349.11,158.8a1.16,1.16,0,1,1,1.16-1.16A1.16,1.16,0,0,1,349.11,158.8Z"/><path class="cls-12" d="M352.6,169.28a1.16,1.16,0,1,1,1.17-1.16A1.16,1.16,0,0,1,352.6,169.28Z"/><path class="cls-12" d="M349.11,165.79a1.17,1.17,0,1,1,1.16-1.16A1.16,1.16,0,0,1,349.11,165.79Z"/><path class="cls-12" d="M352.6,176.27a1.17,1.17,0,1,1,1.17-1.16A1.16,1.16,0,0,1,352.6,176.27Z"/><circle class="cls-12" cx="349.11" cy="171.61" r="1.16"/><path class="cls-12" d="M352.6,183.26a1.17,1.17,0,1,1,1.17-1.17A1.16,1.16,0,0,1,352.6,183.26Z"/><circle class="cls-12" cx="349.11" cy="178.6" r="1.16"/><path class="cls-12" d="M352.6,190.24a1.16,1.16,0,1,1,1.17-1.16A1.16,1.16,0,0,1,352.6,190.24Z"/><path class="cls-12" d="M349.11,186.75a1.17,1.17,0,1,1,1.16-1.16A1.16,1.16,0,0,1,349.11,186.75Z"/><path class="cls-12" d="M352.6,197.23a1.17,1.17,0,1,1,1.17-1.16A1.16,1.16,0,0,1,352.6,197.23Z"/><circle class="cls-12" cx="349.11" cy="192.57" r="1.16"/><path class="cls-12" d="M352.6,204.22a1.17,1.17,0,1,1,1.17-1.17A1.16,1.16,0,0,1,352.6,204.22Z"/><circle class="cls-12" cx="349.11" cy="199.56" r="1.16"/><path class="cls-12" d="M352.6,211.2a1.16,1.16,0,1,1,1.17-1.16A1.16,1.16,0,0,1,352.6,211.2Z"/><path class="cls-12" d="M349.11,207.71a1.17,1.17,0,1,1,1.16-1.16A1.16,1.16,0,0,1,349.11,207.71Z"/><path class="cls-12" d="M352.6,218.19a1.17,1.17,0,1,1,1.17-1.16A1.16,1.16,0,0,1,352.6,218.19Z"/><path class="cls-12" d="M355,220.25a1.14,1.14,0,0,1,1.11-.89,1.15,1.15,0,0,1,1.11.89Z"/><path class="cls-12" d="M349.11,214.7a1.17,1.17,0,1,1,1.16-1.17A1.16,1.16,0,0,1,349.11,214.7Z"/><path class="cls-12" d="M359.59,120.38a1.17,1.17,0,1,1,1.16-1.17A1.17,1.17,0,0,1,359.59,120.38Z"/><path class="cls-12" d="M356.1,116.88a1.16,1.16,0,1,1,1.16-1.16A1.16,1.16,0,0,1,356.1,116.88Z"/><path class="cls-12" d="M359.59,127.36a1.16,1.16,0,1,1,1.16-1.16A1.16,1.16,0,0,1,359.59,127.36Z"/><path class="cls-12" d="M356.1,123.87a1.17,1.17,0,1,1,1.16-1.16A1.16,1.16,0,0,1,356.1,123.87Z"/><path class="cls-12" d="M359.59,134.35a1.17,1.17,0,1,1,1.16-1.16A1.16,1.16,0,0,1,359.59,134.35Z"/><path class="cls-12" d="M356.1,130.86a1.17,1.17,0,1,1,1.16-1.17A1.17,1.17,0,0,1,356.1,130.86Z"/><path class="cls-12" d="M359.59,141.34a1.17,1.17,0,1,1,1.16-1.17A1.17,1.17,0,0,1,359.59,141.34Z"/><path class="cls-12" d="M356.1,137.84a1.16,1.16,0,1,1,1.16-1.16A1.16,1.16,0,0,1,356.1,137.84Z"/><path class="cls-12" d="M359.59,148.32a1.16,1.16,0,1,1,1.16-1.16A1.16,1.16,0,0,1,359.59,148.32Z"/><path class="cls-12" d="M356.1,144.83a1.17,1.17,0,1,1,1.16-1.16A1.16,1.16,0,0,1,356.1,144.83Z"/><path class="cls-12" d="M359.59,155.31a1.17,1.17,0,1,1,1.16-1.16A1.16,1.16,0,0,1,359.59,155.31Z"/><path class="cls-12" d="M356.1,151.82a1.17,1.17,0,1,1,1.16-1.17A1.17,1.17,0,0,1,356.1,151.82Z"/><path class="cls-12" d="M359.59,162.3a1.17,1.17,0,1,1,1.16-1.17A1.16,1.16,0,0,1,359.59,162.3Z"/><path class="cls-12" d="M356.1,158.8a1.16,1.16,0,1,1,1.16-1.16A1.16,1.16,0,0,1,356.1,158.8Z"/><path class="cls-12" d="M359.59,169.28a1.16,1.16,0,1,1,1.16-1.16A1.16,1.16,0,0,1,359.59,169.28Z"/><path class="cls-12" d="M356.1,165.79a1.17,1.17,0,1,1,1.16-1.16A1.16,1.16,0,0,1,356.1,165.79Z"/><path class="cls-12" d="M359.59,176.27a1.17,1.17,0,1,1,1.16-1.16A1.16,1.16,0,0,1,359.59,176.27Z"/><path class="cls-12" d="M356.1,172.78a1.17,1.17,0,1,1,1.16-1.17A1.17,1.17,0,0,1,356.1,172.78Z"/><path class="cls-12" d="M359.59,183.26a1.17,1.17,0,1,1,1.16-1.17A1.16,1.16,0,0,1,359.59,183.26Z"/><path class="cls-12" d="M356.1,179.76a1.16,1.16,0,1,1,1.16-1.16A1.16,1.16,0,0,1,356.1,179.76Z"/><path class="cls-12" d="M359.59,190.24a1.16,1.16,0,1,1,1.16-1.16A1.16,1.16,0,0,1,359.59,190.24Z"/><path class="cls-12" d="M356.1,186.75a1.17,1.17,0,1,1,1.16-1.16A1.16,1.16,0,0,1,356.1,186.75Z"/><path class="cls-12" d="M359.59,197.23a1.17,1.17,0,1,1,1.16-1.16A1.16,1.16,0,0,1,359.59,197.23Z"/><path class="cls-12" d="M356.1,193.74a1.17,1.17,0,1,1,1.16-1.17A1.17,1.17,0,0,1,356.1,193.74Z"/><path class="cls-12" d="M359.59,204.22a1.17,1.17,0,1,1,1.16-1.17A1.16,1.16,0,0,1,359.59,204.22Z"/><path class="cls-12" d="M356.1,200.72a1.16,1.16,0,1,1,1.16-1.16A1.16,1.16,0,0,1,356.1,200.72Z"/><path class="cls-12" d="M359.59,211.2a1.16,1.16,0,1,1,1.16-1.16A1.16,1.16,0,0,1,359.59,211.2Z"/><path class="cls-12" d="M356.1,207.71a1.17,1.17,0,1,1,1.16-1.16A1.16,1.16,0,0,1,356.1,207.71Z"/><path class="cls-12" d="M359.59,218.19a1.17,1.17,0,1,1,1.16-1.16A1.16,1.16,0,0,1,359.59,218.19Z"/><path class="cls-12" d="M356.1,214.7a1.17,1.17,0,1,1,1.16-1.17A1.17,1.17,0,0,1,356.1,214.7Z"/><rect class="cls-13" x="344.45" y="139.95" width="16.3" height="80.3" transform="translate(705.21 360.19) rotate(180)"/><path class="cls-12" d="M321.1,118.05a1.17,1.17,0,1,1-1.16,1.16A1.16,1.16,0,0,1,321.1,118.05Z"/><path class="cls-12" d="M321.1,127.36a1.16,1.16,0,1,1,1.16-1.16A1.16,1.16,0,0,1,321.1,127.36Z"/><path class="cls-12" d="M321.1,134.35a1.17,1.17,0,1,1,1.16-1.16A1.16,1.16,0,0,1,321.1,134.35Z"/><path class="cls-12" d="M321.1,141.34a1.17,1.17,0,1,1,1.16-1.17A1.17,1.17,0,0,1,321.1,141.34Z"/><path class="cls-12" d="M321.1,148.32a1.16,1.16,0,1,1,1.16-1.16A1.16,1.16,0,0,1,321.1,148.32Z"/><path class="cls-12" d="M321.1,155.31a1.17,1.17,0,1,1,1.16-1.16A1.16,1.16,0,0,1,321.1,155.31Z"/><path class="cls-12" d="M321.1,162.3a1.17,1.17,0,1,1,1.16-1.17A1.16,1.16,0,0,1,321.1,162.3Z"/><path class="cls-12" d="M321.1,169.28a1.16,1.16,0,1,1,1.16-1.16A1.16,1.16,0,0,1,321.1,169.28Z"/><path class="cls-12" d="M321.1,176.27a1.17,1.17,0,1,1,1.16-1.16A1.16,1.16,0,0,1,321.1,176.27Z"/><path class="cls-12" d="M321.1,183.26a1.17,1.17,0,1,1,1.16-1.17A1.16,1.16,0,0,1,321.1,183.26Z"/><path class="cls-12" d="M321.1,190.24a1.16,1.16,0,1,1,1.16-1.16A1.16,1.16,0,0,1,321.1,190.24Z"/><path class="cls-12" d="M321.1,197.23a1.17,1.17,0,1,1,1.16-1.16A1.16,1.16,0,0,1,321.1,197.23Z"/><path class="cls-12" d="M321.1,204.22a1.17,1.17,0,1,1,1.16-1.17A1.16,1.16,0,0,1,321.1,204.22Z"/><path class="cls-12" d="M321.1,211.2a1.16,1.16,0,1,1,1.16-1.16A1.16,1.16,0,0,1,321.1,211.2Z"/><path class="cls-12" d="M321.1,218.19a1.17,1.17,0,1,1,1.16-1.16A1.16,1.16,0,0,1,321.1,218.19Z"/><path class="cls-12" d="M323.49,220.25a1.13,1.13,0,0,1,2.21,0Z"/><path class="cls-12" d="M328.09,120.38a1.17,1.17,0,1,1,0-2.33,1.17,1.17,0,0,1,0,2.33Z"/><circle class="cls-12" cx="324.59" cy="115.72" r="1.16"/><path class="cls-12" d="M328.09,127.36a1.16,1.16,0,1,1,1.16-1.16A1.17,1.17,0,0,1,328.09,127.36Z"/><circle class="cls-12" cx="324.59" cy="122.71" r="1.16"/><path class="cls-12" d="M328.09,134.35a1.17,1.17,0,1,1,1.16-1.16A1.17,1.17,0,0,1,328.09,134.35Z"/><path class="cls-12" d="M324.59,130.86a1.17,1.17,0,1,1,1.17-1.17A1.17,1.17,0,0,1,324.59,130.86Z"/><path class="cls-12" d="M328.09,141.34a1.17,1.17,0,1,1,0-2.33,1.17,1.17,0,0,1,0,2.33Z"/><path class="cls-12" d="M324.59,137.84a1.16,1.16,0,1,1,1.17-1.16A1.16,1.16,0,0,1,324.59,137.84Z"/><path class="cls-12" d="M328.09,148.32a1.16,1.16,0,1,1,1.16-1.16A1.17,1.17,0,0,1,328.09,148.32Z"/><circle class="cls-12" cx="324.59" cy="143.67" r="1.16"/><path class="cls-12" d="M328.09,155.31a1.17,1.17,0,1,1,1.16-1.16A1.17,1.17,0,0,1,328.09,155.31Z"/><path class="cls-12" d="M324.59,151.82a1.17,1.17,0,1,1,1.17-1.17A1.16,1.16,0,0,1,324.59,151.82Z"/><path class="cls-12" d="M328.09,162.3a1.17,1.17,0,1,1,1.16-1.17A1.17,1.17,0,0,1,328.09,162.3Z"/><path class="cls-12" d="M324.59,158.8a1.16,1.16,0,1,1,1.17-1.16A1.16,1.16,0,0,1,324.59,158.8Z"/><path class="cls-12" d="M328.09,169.28a1.16,1.16,0,1,1,1.16-1.16A1.17,1.17,0,0,1,328.09,169.28Z"/><path class="cls-12" d="M324.59,165.79a1.17,1.17,0,1,1,1.17-1.16A1.16,1.16,0,0,1,324.59,165.79Z"/><path class="cls-12" d="M328.09,176.27a1.17,1.17,0,1,1,1.16-1.16A1.17,1.17,0,0,1,328.09,176.27Z"/><circle class="cls-12" cx="324.59" cy="171.61" r="1.16"/><path class="cls-12" d="M328.09,183.26a1.17,1.17,0,1,1,1.16-1.17A1.17,1.17,0,0,1,328.09,183.26Z"/><circle class="cls-12" cx="324.59" cy="178.6" r="1.16"/><path class="cls-12" d="M328.09,190.24a1.16,1.16,0,1,1,1.16-1.16A1.17,1.17,0,0,1,328.09,190.24Z"/><path class="cls-12" d="M324.59,186.75a1.17,1.17,0,1,1,1.17-1.16A1.16,1.16,0,0,1,324.59,186.75Z"/><path class="cls-12" d="M328.09,197.23a1.17,1.17,0,1,1,1.16-1.16A1.17,1.17,0,0,1,328.09,197.23Z"/><circle class="cls-12" cx="324.59" cy="192.57" r="1.16"/><path class="cls-12" d="M328.09,204.22a1.17,1.17,0,1,1,1.16-1.17A1.17,1.17,0,0,1,328.09,204.22Z"/><circle class="cls-12" cx="324.59" cy="199.56" r="1.16"/><path class="cls-12" d="M328.09,211.2a1.16,1.16,0,1,1,1.16-1.16A1.17,1.17,0,0,1,328.09,211.2Z"/><path class="cls-12" d="M324.59,207.71a1.17,1.17,0,1,1,1.17-1.16A1.16,1.16,0,0,1,324.59,207.71Z"/><path class="cls-12" d="M328.09,218.19a1.17,1.17,0,1,1,1.16-1.16A1.17,1.17,0,0,1,328.09,218.19Z"/><path class="cls-12" d="M330.47,220.25a1.14,1.14,0,0,1,2.22,0Z"/><path class="cls-12" d="M324.59,214.7a1.17,1.17,0,1,1,1.17-1.17A1.16,1.16,0,0,1,324.59,214.7Z"/><path class="cls-12" d="M335.07,120.38a1.17,1.17,0,1,1,1.17-1.17A1.17,1.17,0,0,1,335.07,120.38Z"/><circle class="cls-12" cx="331.58" cy="115.72" r="1.16"/><circle class="cls-12" cx="335.07" cy="126.2" r="1.16"/><circle class="cls-12" cx="331.58" cy="122.71" r="1.16"/><path class="cls-12" d="M335.07,134.35a1.17,1.17,0,1,1,1.17-1.16A1.16,1.16,0,0,1,335.07,134.35Z"/><path class="cls-12" d="M331.58,130.86a1.17,1.17,0,1,1,1.16-1.17A1.17,1.17,0,0,1,331.58,130.86Z"/><path class="cls-12" d="M335.07,141.34a1.17,1.17,0,1,1,1.17-1.17A1.17,1.17,0,0,1,335.07,141.34Z"/><path class="cls-12" d="M331.58,137.84a1.16,1.16,0,1,1,1.16-1.16A1.16,1.16,0,0,1,331.58,137.84Z"/><circle class="cls-12" cx="335.07" cy="147.16" r="1.16"/><circle class="cls-12" cx="331.58" cy="143.67" r="1.16"/><path class="cls-12" d="M335.07,155.31a1.17,1.17,0,1,1,1.17-1.16A1.16,1.16,0,0,1,335.07,155.31Z"/><path class="cls-12" d="M331.58,151.82a1.17,1.17,0,1,1,1.16-1.17A1.16,1.16,0,0,1,331.58,151.82Z"/><path class="cls-12" d="M335.07,162.3a1.17,1.17,0,1,1,1.17-1.17A1.16,1.16,0,0,1,335.07,162.3Z"/><path class="cls-12" d="M331.58,158.8a1.16,1.16,0,1,1,1.16-1.16A1.16,1.16,0,0,1,331.58,158.8Z"/><circle class="cls-12" cx="335.07" cy="168.12" r="1.16"/><path class="cls-12" d="M331.58,165.79a1.17,1.17,0,1,1,1.16-1.16A1.16,1.16,0,0,1,331.58,165.79Z"/><path class="cls-12" d="M335.07,176.27a1.17,1.17,0,1,1,1.17-1.16A1.16,1.16,0,0,1,335.07,176.27Z"/><circle class="cls-12" cx="331.58" cy="171.61" r="1.16"/><path class="cls-12" d="M335.07,183.26a1.17,1.17,0,1,1,1.17-1.17A1.16,1.16,0,0,1,335.07,183.26Z"/><circle class="cls-12" cx="331.58" cy="178.6" r="1.16"/><path class="cls-12" d="M335.07,190.24a1.16,1.16,0,1,1,1.17-1.16A1.16,1.16,0,0,1,335.07,190.24Z"/><path class="cls-12" d="M331.58,186.75a1.17,1.17,0,1,1,1.16-1.16A1.16,1.16,0,0,1,331.58,186.75Z"/><path class="cls-12" d="M335.07,197.23a1.17,1.17,0,1,1,1.17-1.16A1.16,1.16,0,0,1,335.07,197.23Z"/><circle class="cls-12" cx="331.58" cy="192.57" r="1.16"/><circle class="cls-12" cx="335.07" cy="203.05" r="1.16"/><circle class="cls-12" cx="331.58" cy="199.56" r="1.16"/><path class="cls-12" d="M335.07,211.2a1.16,1.16,0,1,1,1.17-1.16A1.16,1.16,0,0,1,335.07,211.2Z"/><path class="cls-12" d="M331.58,207.71a1.17,1.17,0,1,1,1.16-1.16A1.16,1.16,0,0,1,331.58,207.71Z"/><circle class="cls-12" cx="335.07" cy="217.03" r="1.16"/><path class="cls-12" d="M331.58,214.7a1.17,1.17,0,1,1,1.16-1.17A1.16,1.16,0,0,1,331.58,214.7Z"/><rect class="cls-6" x="319.94" y="150.65" width="16.3" height="69.59" transform="translate(656.18 370.9) rotate(180)"/><path class="cls-12" d="M296.59,118.05a1.17,1.17,0,1,1-1.17,1.16A1.16,1.16,0,0,1,296.59,118.05Z"/><path class="cls-12" d="M296.59,127.36a1.16,1.16,0,1,1,1.16-1.16A1.16,1.16,0,0,1,296.59,127.36Z"/><path class="cls-12" d="M296.59,134.35a1.17,1.17,0,1,1,1.16-1.16A1.16,1.16,0,0,1,296.59,134.35Z"/><path class="cls-12" d="M296.59,141.34a1.17,1.17,0,1,1,1.16-1.17A1.17,1.17,0,0,1,296.59,141.34Z"/><path class="cls-12" d="M296.59,148.32a1.16,1.16,0,1,1,1.16-1.16A1.16,1.16,0,0,1,296.59,148.32Z"/><path class="cls-12" d="M296.59,155.31a1.17,1.17,0,1,1,1.16-1.16A1.16,1.16,0,0,1,296.59,155.31Z"/><path class="cls-12" d="M296.59,162.3a1.17,1.17,0,1,1,1.16-1.17A1.17,1.17,0,0,1,296.59,162.3Z"/><path class="cls-12" d="M296.59,169.28a1.16,1.16,0,1,1,1.16-1.16A1.16,1.16,0,0,1,296.59,169.28Z"/><path class="cls-12" d="M296.59,176.27a1.17,1.17,0,1,1,1.16-1.16A1.16,1.16,0,0,1,296.59,176.27Z"/><path class="cls-12" d="M296.59,183.26a1.17,1.17,0,1,1,1.16-1.17A1.17,1.17,0,0,1,296.59,183.26Z"/><path class="cls-12" d="M296.59,190.24a1.16,1.16,0,1,1,1.16-1.16A1.16,1.16,0,0,1,296.59,190.24Z"/><path class="cls-12" d="M296.59,197.23a1.17,1.17,0,1,1,1.16-1.16A1.16,1.16,0,0,1,296.59,197.23Z"/><path class="cls-12" d="M296.59,204.22a1.17,1.17,0,1,1,1.16-1.17A1.17,1.17,0,0,1,296.59,204.22Z"/><path class="cls-12" d="M296.59,211.2a1.16,1.16,0,1,1,1.16-1.16A1.16,1.16,0,0,1,296.59,211.2Z"/><path class="cls-12" d="M296.59,218.19a1.17,1.17,0,1,1,1.16-1.16A1.16,1.16,0,0,1,296.59,218.19Z"/><path class="cls-12" d="M299,220.25a1.14,1.14,0,0,1,2.22,0Z"/><path class="cls-12" d="M303.57,120.38a1.17,1.17,0,1,1,1.17-1.17A1.17,1.17,0,0,1,303.57,120.38Z"/><circle class="cls-12" cx="300.08" cy="115.72" r="1.16" transform="translate(137.96 393.49) rotate(-80.82)"/><path class="cls-12" d="M303.57,127.36a1.16,1.16,0,1,1,1.17-1.16A1.16,1.16,0,0,1,303.57,127.36Z"/><circle class="cls-12" cx="300.08" cy="122.71" r="1.16" transform="translate(131.06 399.36) rotate(-80.82)"/><path class="cls-12" d="M303.57,134.35a1.17,1.17,0,1,1,1.17-1.16A1.16,1.16,0,0,1,303.57,134.35Z"/><path class="cls-12" d="M300.08,130.86a1.17,1.17,0,1,1,1.16-1.17A1.17,1.17,0,0,1,300.08,130.86Z"/><path class="cls-12" d="M303.57,141.34a1.17,1.17,0,1,1,1.17-1.17A1.17,1.17,0,0,1,303.57,141.34Z"/><path class="cls-12" d="M300.08,137.84a1.16,1.16,0,1,1,1.16-1.16A1.16,1.16,0,0,1,300.08,137.84Z"/><path class="cls-12" d="M303.57,148.32a1.16,1.16,0,1,1,1.17-1.16A1.16,1.16,0,0,1,303.57,148.32Z"/><circle class="cls-12" cx="300.08" cy="143.67" r="1.16" transform="translate(110.37 416.97) rotate(-80.82)"/><path class="cls-12" d="M303.57,155.31a1.17,1.17,0,1,1,1.17-1.16A1.16,1.16,0,0,1,303.57,155.31Z"/><path class="cls-12" d="M300.08,151.82a1.17,1.17,0,1,1,1.16-1.17A1.16,1.16,0,0,1,300.08,151.82Z"/><path class="cls-12" d="M303.57,162.3a1.17,1.17,0,1,1,1.17-1.17A1.16,1.16,0,0,1,303.57,162.3Z"/><path class="cls-12" d="M300.08,158.8a1.16,1.16,0,1,1,1.16-1.16A1.16,1.16,0,0,1,300.08,158.8Z"/><path class="cls-12" d="M303.57,169.28a1.16,1.16,0,1,1,1.17-1.16A1.16,1.16,0,0,1,303.57,169.28Z"/><path class="cls-12" d="M300.08,165.79a1.17,1.17,0,1,1,1.16-1.16A1.16,1.16,0,0,1,300.08,165.79Z"/><path class="cls-12" d="M303.57,176.27a1.17,1.17,0,1,1,1.17-1.16A1.16,1.16,0,0,1,303.57,176.27Z"/><circle class="cls-12" cx="300.08" cy="171.61" r="1.16" transform="translate(82.78 440.46) rotate(-80.82)"/><path class="cls-12" d="M303.57,183.26a1.17,1.17,0,1,1,1.17-1.17A1.16,1.16,0,0,1,303.57,183.26Z"/><circle class="cls-12" cx="300.08" cy="178.6" r="1.16" transform="translate(75.88 446.33) rotate(-80.82)"/><path class="cls-12" d="M303.57,190.24a1.16,1.16,0,1,1,1.17-1.16A1.16,1.16,0,0,1,303.57,190.24Z"/><path class="cls-12" d="M300.08,186.75a1.17,1.17,0,1,1,1.16-1.16A1.16,1.16,0,0,1,300.08,186.75Z"/><path class="cls-12" d="M303.57,197.23a1.17,1.17,0,1,1,1.17-1.16A1.16,1.16,0,0,1,303.57,197.23Z"/><circle class="cls-12" cx="300.08" cy="192.57" r="1.16" transform="translate(62.09 458.07) rotate(-80.82)"/><path class="cls-12" d="M303.57,204.22a1.17,1.17,0,1,1,1.17-1.17A1.16,1.16,0,0,1,303.57,204.22Z"/><circle class="cls-12" cx="300.08" cy="199.56" r="1.16" transform="translate(55.19 463.95) rotate(-80.82)"/><path class="cls-12" d="M303.57,211.2a1.16,1.16,0,1,1,1.17-1.16A1.16,1.16,0,0,1,303.57,211.2Z"/><path class="cls-12" d="M300.08,207.71a1.17,1.17,0,1,1,1.16-1.16A1.16,1.16,0,0,1,300.08,207.71Z"/><path class="cls-12" d="M303.57,218.19a1.17,1.17,0,1,1,1.17-1.16A1.16,1.16,0,0,1,303.57,218.19Z"/><path class="cls-12" d="M306,220.25a1.13,1.13,0,0,1,2.21,0Z"/><path class="cls-12" d="M300.08,214.7a1.17,1.17,0,1,1,1.16-1.17A1.16,1.16,0,0,1,300.08,214.7Z"/><path class="cls-12" d="M310.56,120.38a1.17,1.17,0,1,1,1.16-1.17A1.17,1.17,0,0,1,310.56,120.38Z"/><path class="cls-12" d="M307.07,116.88a1.16,1.16,0,1,1,1.16-1.16A1.16,1.16,0,0,1,307.07,116.88Z"/><path class="cls-12" d="M310.56,127.36a1.16,1.16,0,1,1,1.16-1.16A1.16,1.16,0,0,1,310.56,127.36Z"/><path class="cls-12" d="M307.07,123.87a1.17,1.17,0,1,1,1.16-1.16A1.16,1.16,0,0,1,307.07,123.87Z"/><path class="cls-12" d="M310.56,134.35a1.17,1.17,0,1,1,1.16-1.16A1.16,1.16,0,0,1,310.56,134.35Z"/><path class="cls-12" d="M307.07,130.86a1.17,1.17,0,1,1,1.16-1.17A1.17,1.17,0,0,1,307.07,130.86Z"/><path class="cls-12" d="M310.56,141.34a1.17,1.17,0,1,1,1.16-1.17A1.17,1.17,0,0,1,310.56,141.34Z"/><path class="cls-12" d="M307.07,137.84a1.16,1.16,0,1,1,1.16-1.16A1.16,1.16,0,0,1,307.07,137.84Z"/><path class="cls-12" d="M310.56,148.32a1.16,1.16,0,1,1,1.16-1.16A1.16,1.16,0,0,1,310.56,148.32Z"/><path class="cls-12" d="M307.07,144.83a1.17,1.17,0,1,1,1.16-1.16A1.16,1.16,0,0,1,307.07,144.83Z"/><path class="cls-12" d="M310.56,155.31a1.17,1.17,0,1,1,1.16-1.16A1.16,1.16,0,0,1,310.56,155.31Z"/><path class="cls-12" d="M307.07,151.82a1.17,1.17,0,1,1,1.16-1.17A1.17,1.17,0,0,1,307.07,151.82Z"/><path class="cls-12" d="M310.56,162.3a1.17,1.17,0,1,1,1.16-1.17A1.16,1.16,0,0,1,310.56,162.3Z"/><path class="cls-12" d="M307.07,158.8a1.16,1.16,0,1,1,1.16-1.16A1.16,1.16,0,0,1,307.07,158.8Z"/><path class="cls-12" d="M310.56,169.28a1.16,1.16,0,1,1,1.16-1.16A1.16,1.16,0,0,1,310.56,169.28Z"/><path class="cls-12" d="M307.07,165.79a1.17,1.17,0,1,1,1.16-1.16A1.16,1.16,0,0,1,307.07,165.79Z"/><path class="cls-12" d="M310.56,176.27a1.17,1.17,0,1,1,1.16-1.16A1.16,1.16,0,0,1,310.56,176.27Z"/><path class="cls-12" d="M307.07,172.78a1.17,1.17,0,1,1,1.16-1.17A1.17,1.17,0,0,1,307.07,172.78Z"/><path class="cls-12" d="M310.56,183.26a1.17,1.17,0,1,1,1.16-1.17A1.16,1.16,0,0,1,310.56,183.26Z"/><path class="cls-12" d="M307.07,179.76a1.16,1.16,0,1,1,1.16-1.16A1.16,1.16,0,0,1,307.07,179.76Z"/><path class="cls-12" d="M310.56,190.24a1.16,1.16,0,1,1,1.16-1.16A1.16,1.16,0,0,1,310.56,190.24Z"/><path class="cls-12" d="M307.07,186.75a1.17,1.17,0,1,1,1.16-1.16A1.16,1.16,0,0,1,307.07,186.75Z"/><path class="cls-12" d="M310.56,197.23a1.17,1.17,0,1,1,1.16-1.16A1.16,1.16,0,0,1,310.56,197.23Z"/><path class="cls-12" d="M307.07,193.74a1.17,1.17,0,1,1,1.16-1.17A1.17,1.17,0,0,1,307.07,193.74Z"/><path class="cls-12" d="M310.56,204.22a1.17,1.17,0,1,1,1.16-1.17A1.16,1.16,0,0,1,310.56,204.22Z"/><path class="cls-12" d="M307.07,200.72a1.16,1.16,0,1,1,1.16-1.16A1.16,1.16,0,0,1,307.07,200.72Z"/><path class="cls-12" d="M310.56,211.2a1.16,1.16,0,1,1,1.16-1.16A1.16,1.16,0,0,1,310.56,211.2Z"/><path class="cls-12" d="M307.07,207.71a1.17,1.17,0,1,1,1.16-1.16A1.16,1.16,0,0,1,307.07,207.71Z"/><path class="cls-12" d="M310.56,218.19a1.17,1.17,0,1,1,1.16-1.16A1.16,1.16,0,0,1,310.56,218.19Z"/><path class="cls-12" d="M307.07,214.7a1.17,1.17,0,1,1,1.16-1.17A1.17,1.17,0,0,1,307.07,214.7Z"/><rect class="cls-14" x="295.42" y="188.09" width="16.3" height="32.15" transform="translate(607.14 408.34) rotate(180)"/><path class="cls-12" d="M272.07,118.05a1.17,1.17,0,1,1-1.16,1.16A1.16,1.16,0,0,1,272.07,118.05Z"/><path class="cls-12" d="M272.07,127.36a1.16,1.16,0,1,1,1.16-1.16A1.16,1.16,0,0,1,272.07,127.36Z"/><path class="cls-12" d="M272.07,134.35a1.17,1.17,0,1,1,1.16-1.16A1.16,1.16,0,0,1,272.07,134.35Z"/><path class="cls-12" d="M272.07,141.34a1.17,1.17,0,1,1,1.16-1.17A1.17,1.17,0,0,1,272.07,141.34Z"/><path class="cls-12" d="M272.07,148.32a1.16,1.16,0,1,1,1.16-1.16A1.16,1.16,0,0,1,272.07,148.32Z"/><path class="cls-12" d="M272.07,155.31a1.17,1.17,0,1,1,1.16-1.16A1.16,1.16,0,0,1,272.07,155.31Z"/><path class="cls-12" d="M272.07,162.3a1.17,1.17,0,1,1,1.16-1.17A1.16,1.16,0,0,1,272.07,162.3Z"/><path class="cls-12" d="M272.07,169.28a1.16,1.16,0,1,1,1.16-1.16A1.16,1.16,0,0,1,272.07,169.28Z"/><path class="cls-12" d="M272.07,176.27a1.17,1.17,0,1,1,1.16-1.16A1.16,1.16,0,0,1,272.07,176.27Z"/><path class="cls-12" d="M272.07,183.26a1.17,1.17,0,1,1,1.16-1.17A1.16,1.16,0,0,1,272.07,183.26Z"/><path class="cls-12" d="M272.07,190.24a1.16,1.16,0,1,1,1.16-1.16A1.16,1.16,0,0,1,272.07,190.24Z"/><path class="cls-12" d="M272.07,197.23a1.17,1.17,0,1,1,1.16-1.16A1.16,1.16,0,0,1,272.07,197.23Z"/><path class="cls-12" d="M272.07,204.22a1.17,1.17,0,1,1,1.16-1.17A1.16,1.16,0,0,1,272.07,204.22Z"/><path class="cls-12" d="M272.07,211.2a1.16,1.16,0,1,1,1.16-1.16A1.16,1.16,0,0,1,272.07,211.2Z"/><path class="cls-12" d="M272.07,218.19a1.17,1.17,0,1,1,1.16-1.16A1.16,1.16,0,0,1,272.07,218.19Z"/><path class="cls-12" d="M274.45,220.25a1.15,1.15,0,0,1,1.11-.89,1.14,1.14,0,0,1,1.11.89Z"/><path class="cls-12" d="M279.06,120.38a1.17,1.17,0,1,1,1.16-1.17A1.17,1.17,0,0,1,279.06,120.38Z"/><path class="cls-12" d="M275.56,116.88a1.16,1.16,0,1,1,1.17-1.16A1.16,1.16,0,0,1,275.56,116.88Z"/><circle class="cls-12" cx="279.06" cy="126.2" r="1.16"/><path class="cls-12" d="M275.56,123.87a1.17,1.17,0,1,1,1.17-1.16A1.16,1.16,0,0,1,275.56,123.87Z"/><path class="cls-12" d="M279.06,134.35a1.17,1.17,0,1,1,1.16-1.16A1.16,1.16,0,0,1,279.06,134.35Z"/><path class="cls-12" d="M275.56,130.86a1.17,1.17,0,1,1,1.17-1.17A1.17,1.17,0,0,1,275.56,130.86Z"/><path class="cls-12" d="M279.06,141.34a1.17,1.17,0,1,1,1.16-1.17A1.17,1.17,0,0,1,279.06,141.34Z"/><path class="cls-12" d="M275.56,137.84a1.16,1.16,0,1,1,1.17-1.16A1.16,1.16,0,0,1,275.56,137.84Z"/><circle class="cls-12" cx="279.06" cy="147.16" r="1.16"/><path class="cls-12" d="M275.56,144.83a1.17,1.17,0,1,1,1.17-1.16A1.16,1.16,0,0,1,275.56,144.83Z"/><path class="cls-12" d="M279.06,155.31a1.17,1.17,0,1,1,1.16-1.16A1.16,1.16,0,0,1,279.06,155.31Z"/><path class="cls-12" d="M275.56,151.82a1.17,1.17,0,1,1,1.17-1.17A1.16,1.16,0,0,1,275.56,151.82Z"/><path class="cls-12" d="M279.06,162.3a1.17,1.17,0,1,1,1.16-1.17A1.17,1.17,0,0,1,279.06,162.3Z"/><path class="cls-12" d="M275.56,158.8a1.16,1.16,0,1,1,1.17-1.16A1.16,1.16,0,0,1,275.56,158.8Z"/><circle class="cls-12" cx="279.06" cy="168.12" r="1.16"/><path class="cls-12" d="M275.56,165.79a1.17,1.17,0,1,1,1.17-1.16A1.16,1.16,0,0,1,275.56,165.79Z"/><path class="cls-12" d="M279.06,176.27a1.17,1.17,0,1,1,1.16-1.16A1.16,1.16,0,0,1,279.06,176.27Z"/><path class="cls-12" d="M275.56,172.78a1.17,1.17,0,1,1,1.17-1.17A1.16,1.16,0,0,1,275.56,172.78Z"/><path class="cls-12" d="M279.06,183.26a1.17,1.17,0,1,1,1.16-1.17A1.17,1.17,0,0,1,279.06,183.26Z"/><path class="cls-12" d="M275.56,179.76a1.16,1.16,0,1,1,1.17-1.16A1.16,1.16,0,0,1,275.56,179.76Z"/><path class="cls-12" d="M279.06,190.24a1.16,1.16,0,1,1,1.16-1.16A1.16,1.16,0,0,1,279.06,190.24Z"/><path class="cls-12" d="M275.56,186.75a1.17,1.17,0,1,1,1.17-1.16A1.16,1.16,0,0,1,275.56,186.75Z"/><path class="cls-12" d="M279.06,197.23a1.17,1.17,0,1,1,1.16-1.16A1.16,1.16,0,0,1,279.06,197.23Z"/><path class="cls-12" d="M275.56,193.74a1.17,1.17,0,1,1,1.17-1.17A1.16,1.16,0,0,1,275.56,193.74Z"/><circle class="cls-12" cx="279.06" cy="203.05" r="1.16"/><path class="cls-12" d="M275.56,200.72a1.16,1.16,0,1,1,1.17-1.16A1.16,1.16,0,0,1,275.56,200.72Z"/><path class="cls-12" d="M279.06,211.2a1.16,1.16,0,1,1,1.16-1.16A1.16,1.16,0,0,1,279.06,211.2Z"/><path class="cls-12" d="M275.56,207.71a1.17,1.17,0,1,1,1.17-1.16A1.16,1.16,0,0,1,275.56,207.71Z"/><circle class="cls-12" cx="279.06" cy="217.03" r="1.16"/><path class="cls-12" d="M281.44,220.25a1.14,1.14,0,0,1,2.22,0Z"/><path class="cls-12" d="M275.56,214.7a1.17,1.17,0,1,1,1.17-1.17A1.16,1.16,0,0,1,275.56,214.7Z"/><path class="cls-12" d="M286,120.38a1.17,1.17,0,1,1,1.17-1.17A1.17,1.17,0,0,1,286,120.38Z"/><circle class="cls-12" cx="282.55" cy="115.72" r="1.16"/><path class="cls-12" d="M286,127.36a1.16,1.16,0,1,1,1.17-1.16A1.16,1.16,0,0,1,286,127.36Z"/><circle class="cls-12" cx="282.55" cy="122.71" r="1.16"/><path class="cls-12" d="M286,134.35a1.17,1.17,0,1,1,1.17-1.16A1.16,1.16,0,0,1,286,134.35Z"/><path class="cls-12" d="M282.55,130.86a1.17,1.17,0,1,1,1.16-1.17A1.17,1.17,0,0,1,282.55,130.86Z"/><path class="cls-12" d="M286,141.34a1.17,1.17,0,1,1,1.17-1.17A1.17,1.17,0,0,1,286,141.34Z"/><path class="cls-12" d="M282.55,137.84a1.16,1.16,0,1,1,1.16-1.16A1.16,1.16,0,0,1,282.55,137.84Z"/><path class="cls-12" d="M286,148.32a1.16,1.16,0,1,1,1.17-1.16A1.16,1.16,0,0,1,286,148.32Z"/><circle class="cls-12" cx="282.55" cy="143.67" r="1.16"/><path class="cls-12" d="M286,155.31a1.17,1.17,0,1,1,1.17-1.16A1.16,1.16,0,0,1,286,155.31Z"/><path class="cls-12" d="M282.55,151.82a1.17,1.17,0,1,1,1.16-1.17A1.16,1.16,0,0,1,282.55,151.82Z"/><path class="cls-12" d="M286,162.3a1.17,1.17,0,1,1,1.17-1.17A1.16,1.16,0,0,1,286,162.3Z"/><path class="cls-12" d="M282.55,158.8a1.16,1.16,0,1,1,1.16-1.16A1.16,1.16,0,0,1,282.55,158.8Z"/><path class="cls-12" d="M286,169.28a1.16,1.16,0,1,1,1.17-1.16A1.16,1.16,0,0,1,286,169.28Z"/><path class="cls-12" d="M282.55,165.79a1.17,1.17,0,1,1,1.16-1.16A1.16,1.16,0,0,1,282.55,165.79Z"/><path class="cls-12" d="M286,176.27a1.17,1.17,0,1,1,1.17-1.16A1.16,1.16,0,0,1,286,176.27Z"/><circle class="cls-12" cx="282.55" cy="171.61" r="1.16"/><path class="cls-12" d="M286,183.26a1.17,1.17,0,1,1,1.17-1.17A1.16,1.16,0,0,1,286,183.26Z"/><circle class="cls-12" cx="282.55" cy="178.6" r="1.16"/><path class="cls-12" d="M286,190.24a1.16,1.16,0,1,1,1.17-1.16A1.16,1.16,0,0,1,286,190.24Z"/><path class="cls-12" d="M282.55,186.75a1.17,1.17,0,1,1,1.16-1.16A1.16,1.16,0,0,1,282.55,186.75Z"/><path class="cls-12" d="M286,197.23a1.17,1.17,0,1,1,1.17-1.16A1.16,1.16,0,0,1,286,197.23Z"/><circle class="cls-12" cx="282.55" cy="192.57" r="1.16"/><path class="cls-12" d="M286,204.22a1.17,1.17,0,1,1,1.17-1.17A1.16,1.16,0,0,1,286,204.22Z"/><circle class="cls-12" cx="282.55" cy="199.56" r="1.16"/><path class="cls-12" d="M286,211.2a1.16,1.16,0,1,1,1.17-1.16A1.16,1.16,0,0,1,286,211.2Z"/><path class="cls-12" d="M282.55,207.71a1.17,1.17,0,1,1,1.16-1.16A1.16,1.16,0,0,1,282.55,207.71Z"/><path class="cls-12" d="M286,218.19a1.17,1.17,0,1,1,1.17-1.16A1.16,1.16,0,0,1,286,218.19Z"/><path class="cls-12" d="M282.55,214.7a1.17,1.17,0,1,1,1.16-1.17A1.16,1.16,0,0,1,282.55,214.7Z"/><rect class="cls-6" x="270.91" y="132.02" width="16.3" height="88.22" transform="translate(558.11 352.27) rotate(180)"/><path class="cls-12" d="M247.55,118.05a1.17,1.17,0,1,1-1.16,1.16A1.16,1.16,0,0,1,247.55,118.05Z"/><path class="cls-12" d="M247.55,127.36a1.16,1.16,0,1,1,1.17-1.16A1.16,1.16,0,0,1,247.55,127.36Z"/><path class="cls-12" d="M247.55,134.35a1.17,1.17,0,1,1,1.17-1.16A1.16,1.16,0,0,1,247.55,134.35Z"/><path class="cls-12" d="M247.55,141.34a1.17,1.17,0,1,1,1.17-1.17A1.17,1.17,0,0,1,247.55,141.34Z"/><path class="cls-12" d="M247.55,148.32a1.16,1.16,0,1,1,1.17-1.16A1.16,1.16,0,0,1,247.55,148.32Z"/><path class="cls-12" d="M247.55,155.31a1.17,1.17,0,1,1,1.17-1.16A1.16,1.16,0,0,1,247.55,155.31Z"/><path class="cls-12" d="M247.55,162.3a1.17,1.17,0,1,1,1.17-1.17A1.16,1.16,0,0,1,247.55,162.3Z"/><path class="cls-12" d="M247.55,169.28a1.16,1.16,0,1,1,1.17-1.16A1.16,1.16,0,0,1,247.55,169.28Z"/><path class="cls-12" d="M247.55,176.27a1.17,1.17,0,1,1,1.17-1.16A1.16,1.16,0,0,1,247.55,176.27Z"/><path class="cls-12" d="M247.55,183.26a1.17,1.17,0,1,1,1.17-1.17A1.16,1.16,0,0,1,247.55,183.26Z"/><path class="cls-12" d="M247.55,190.24a1.16,1.16,0,1,1,1.17-1.16A1.16,1.16,0,0,1,247.55,190.24Z"/><path class="cls-12" d="M247.55,197.23a1.17,1.17,0,1,1,1.17-1.16A1.16,1.16,0,0,1,247.55,197.23Z"/><path class="cls-12" d="M247.55,204.22a1.17,1.17,0,1,1,1.17-1.17A1.16,1.16,0,0,1,247.55,204.22Z"/><path class="cls-12" d="M247.55,211.2a1.16,1.16,0,1,1,1.17-1.16A1.16,1.16,0,0,1,247.55,211.2Z"/><path class="cls-12" d="M247.55,218.19a1.17,1.17,0,1,1,1.17-1.16A1.16,1.16,0,0,1,247.55,218.19Z"/><path class="cls-12" d="M249.94,220.25a1.14,1.14,0,0,1,1.11-.89,1.15,1.15,0,0,1,1.11.89Z"/><path class="cls-12" d="M254.54,120.38a1.17,1.17,0,1,1,1.16-1.17A1.17,1.17,0,0,1,254.54,120.38Z"/><circle class="cls-12" cx="251.05" cy="115.72" r="1.16"/><path class="cls-12" d="M254.54,127.36a1.16,1.16,0,1,1,1.16-1.16A1.16,1.16,0,0,1,254.54,127.36Z"/><circle class="cls-12" cx="251.05" cy="122.71" r="1.16"/><path class="cls-12" d="M254.54,134.35a1.17,1.17,0,1,1,1.16-1.16A1.16,1.16,0,0,1,254.54,134.35Z"/><path class="cls-12" d="M251.05,130.86a1.17,1.17,0,1,1,1.16-1.17A1.17,1.17,0,0,1,251.05,130.86Z"/><path class="cls-12" d="M254.54,141.34a1.17,1.17,0,1,1,1.16-1.17A1.17,1.17,0,0,1,254.54,141.34Z"/><path class="cls-12" d="M251.05,137.84a1.16,1.16,0,1,1,1.16-1.16A1.16,1.16,0,0,1,251.05,137.84Z"/><path class="cls-12" d="M254.54,148.32a1.16,1.16,0,1,1,1.16-1.16A1.16,1.16,0,0,1,254.54,148.32Z"/><circle class="cls-12" cx="251.05" cy="143.67" r="1.16"/><path class="cls-12" d="M254.54,155.31a1.17,1.17,0,1,1,1.16-1.16A1.16,1.16,0,0,1,254.54,155.31Z"/><path class="cls-12" d="M251.05,151.82a1.17,1.17,0,1,1,1.16-1.17A1.17,1.17,0,0,1,251.05,151.82Z"/><path class="cls-12" d="M254.54,162.3a1.17,1.17,0,1,1,1.16-1.17A1.16,1.16,0,0,1,254.54,162.3Z"/><path class="cls-12" d="M251.05,158.8a1.16,1.16,0,1,1,1.16-1.16A1.16,1.16,0,0,1,251.05,158.8Z"/><path class="cls-12" d="M254.54,169.28a1.16,1.16,0,1,1,1.16-1.16A1.16,1.16,0,0,1,254.54,169.28Z"/><path class="cls-12" d="M251.05,165.79a1.17,1.17,0,1,1,1.16-1.16A1.16,1.16,0,0,1,251.05,165.79Z"/><path class="cls-12" d="M254.54,176.27a1.17,1.17,0,1,1,1.16-1.16A1.16,1.16,0,0,1,254.54,176.27Z"/><circle class="cls-12" cx="251.05" cy="171.61" r="1.16"/><path class="cls-12" d="M254.54,183.26a1.17,1.17,0,1,1,1.16-1.17A1.16,1.16,0,0,1,254.54,183.26Z"/><circle class="cls-12" cx="251.05" cy="178.6" r="1.16"/><path class="cls-12" d="M254.54,190.24a1.16,1.16,0,1,1,1.16-1.16A1.16,1.16,0,0,1,254.54,190.24Z"/><path class="cls-12" d="M251.05,186.75a1.17,1.17,0,1,1,1.16-1.16A1.16,1.16,0,0,1,251.05,186.75Z"/><path class="cls-12" d="M254.54,197.23a1.17,1.17,0,1,1,1.16-1.16A1.16,1.16,0,0,1,254.54,197.23Z"/><circle class="cls-12" cx="251.05" cy="192.57" r="1.16"/><path class="cls-12" d="M254.54,204.22a1.17,1.17,0,1,1,1.16-1.17A1.16,1.16,0,0,1,254.54,204.22Z"/><circle class="cls-12" cx="251.05" cy="199.56" r="1.16"/><path class="cls-12" d="M254.54,211.2A1.16,1.16,0,1,1,255.7,210,1.16,1.16,0,0,1,254.54,211.2Z"/><path class="cls-12" d="M251.05,207.71a1.17,1.17,0,1,1,1.16-1.16A1.16,1.16,0,0,1,251.05,207.71Z"/><path class="cls-12" d="M254.54,218.19A1.17,1.17,0,1,1,255.7,217,1.16,1.16,0,0,1,254.54,218.19Z"/><path class="cls-12" d="M256.93,220.25a1.13,1.13,0,0,1,2.21,0Z"/><path class="cls-12" d="M251.05,214.7a1.17,1.17,0,1,1,1.16-1.17A1.17,1.17,0,0,1,251.05,214.7Z"/><path class="cls-12" d="M261.53,120.38a1.17,1.17,0,1,1,1.16-1.17A1.17,1.17,0,0,1,261.53,120.38Z"/><path class="cls-12" d="M258,116.88a1.16,1.16,0,1,1,1.17-1.16A1.16,1.16,0,0,1,258,116.88Z"/><path class="cls-12" d="M261.53,127.36a1.16,1.16,0,1,1,1.16-1.16A1.16,1.16,0,0,1,261.53,127.36Z"/><path class="cls-12" d="M258,123.87a1.17,1.17,0,1,1,1.17-1.16A1.16,1.16,0,0,1,258,123.87Z"/><path class="cls-12" d="M261.53,134.35a1.17,1.17,0,1,1,1.16-1.16A1.16,1.16,0,0,1,261.53,134.35Z"/><path class="cls-12" d="M258,130.86a1.17,1.17,0,1,1,1.17-1.17A1.17,1.17,0,0,1,258,130.86Z"/><path class="cls-12" d="M261.53,141.34a1.17,1.17,0,1,1,1.16-1.17A1.17,1.17,0,0,1,261.53,141.34Z"/><path class="cls-12" d="M258,137.84a1.16,1.16,0,1,1,1.17-1.16A1.16,1.16,0,0,1,258,137.84Z"/><path class="cls-12" d="M261.53,148.32a1.16,1.16,0,1,1,1.16-1.16A1.16,1.16,0,0,1,261.53,148.32Z"/><path class="cls-12" d="M258,144.83a1.17,1.17,0,1,1,1.17-1.16A1.16,1.16,0,0,1,258,144.83Z"/><path class="cls-12" d="M261.53,155.31a1.17,1.17,0,1,1,1.16-1.16A1.16,1.16,0,0,1,261.53,155.31Z"/><path class="cls-12" d="M258,151.82a1.17,1.17,0,1,1,1.17-1.17A1.16,1.16,0,0,1,258,151.82Z"/><path class="cls-12" d="M261.53,162.3a1.17,1.17,0,1,1,1.16-1.17A1.17,1.17,0,0,1,261.53,162.3Z"/><path class="cls-12" d="M258,158.8a1.16,1.16,0,1,1,1.17-1.16A1.16,1.16,0,0,1,258,158.8Z"/><path class="cls-12" d="M261.53,169.28a1.16,1.16,0,1,1,1.16-1.16A1.16,1.16,0,0,1,261.53,169.28Z"/><path class="cls-12" d="M258,165.79a1.17,1.17,0,1,1,1.17-1.16A1.16,1.16,0,0,1,258,165.79Z"/><path class="cls-12" d="M261.53,176.27a1.17,1.17,0,1,1,1.16-1.16A1.16,1.16,0,0,1,261.53,176.27Z"/><path class="cls-12" d="M258,172.78a1.17,1.17,0,1,1,1.17-1.17A1.16,1.16,0,0,1,258,172.78Z"/><path class="cls-12" d="M261.53,183.26a1.17,1.17,0,1,1,1.16-1.17A1.17,1.17,0,0,1,261.53,183.26Z"/><path class="cls-12" d="M258,179.76a1.16,1.16,0,1,1,1.17-1.16A1.16,1.16,0,0,1,258,179.76Z"/><path class="cls-12" d="M261.53,190.24a1.16,1.16,0,1,1,1.16-1.16A1.16,1.16,0,0,1,261.53,190.24Z"/><path class="cls-12" d="M258,186.75a1.17,1.17,0,1,1,1.17-1.16A1.16,1.16,0,0,1,258,186.75Z"/><path class="cls-12" d="M261.53,197.23a1.17,1.17,0,1,1,1.16-1.16A1.16,1.16,0,0,1,261.53,197.23Z"/><path class="cls-12" d="M258,193.74a1.17,1.17,0,1,1,1.17-1.17A1.16,1.16,0,0,1,258,193.74Z"/><path class="cls-12" d="M261.53,204.22a1.17,1.17,0,1,1,1.16-1.17A1.17,1.17,0,0,1,261.53,204.22Z"/><path class="cls-12" d="M258,200.72a1.16,1.16,0,1,1,1.17-1.16A1.16,1.16,0,0,1,258,200.72Z"/><path class="cls-12" d="M261.53,211.2a1.16,1.16,0,1,1,1.16-1.16A1.16,1.16,0,0,1,261.53,211.2Z"/><path class="cls-12" d="M258,207.71a1.17,1.17,0,1,1,1.17-1.16A1.16,1.16,0,0,1,258,207.71Z"/><path class="cls-12" d="M261.53,218.19a1.17,1.17,0,1,1,1.16-1.16A1.16,1.16,0,0,1,261.53,218.19Z"/><path class="cls-12" d="M258,214.7a1.17,1.17,0,1,1,1.17-1.17A1.16,1.16,0,0,1,258,214.7Z"/><rect class="cls-15" x="246.39" y="125.04" width="16.3" height="95.21" transform="translate(509.08 345.28) rotate(180)"/><path class="cls-12" d="M223,118.05a1.17,1.17,0,0,1,0,2.33,1.17,1.17,0,1,1,0-2.33Z"/><path class="cls-12" d="M223,127.36a1.16,1.16,0,1,1,1.16-1.16A1.17,1.17,0,0,1,223,127.36Z"/><path class="cls-12" d="M223,134.35a1.17,1.17,0,1,1,1.16-1.16A1.17,1.17,0,0,1,223,134.35Z"/><path class="cls-12" d="M223,141.34a1.17,1.17,0,1,1,0-2.33,1.17,1.17,0,0,1,0,2.33Z"/><path class="cls-12" d="M223,148.32a1.16,1.16,0,1,1,1.16-1.16A1.17,1.17,0,0,1,223,148.32Z"/><path class="cls-12" d="M223,155.31a1.17,1.17,0,1,1,1.16-1.16A1.17,1.17,0,0,1,223,155.31Z"/><path class="cls-12" d="M223,162.3a1.17,1.17,0,1,1,1.16-1.17A1.17,1.17,0,0,1,223,162.3Z"/><path class="cls-12" d="M223,169.28a1.16,1.16,0,1,1,1.16-1.16A1.17,1.17,0,0,1,223,169.28Z"/><path class="cls-12" d="M223,176.27a1.17,1.17,0,1,1,1.16-1.16A1.17,1.17,0,0,1,223,176.27Z"/><path class="cls-12" d="M223,183.26a1.17,1.17,0,1,1,1.16-1.17A1.17,1.17,0,0,1,223,183.26Z"/><path class="cls-12" d="M223,190.24a1.16,1.16,0,1,1,1.16-1.16A1.17,1.17,0,0,1,223,190.24Z"/><path class="cls-12" d="M223,197.23a1.17,1.17,0,1,1,1.16-1.16A1.17,1.17,0,0,1,223,197.23Z"/><path class="cls-12" d="M223,204.22a1.17,1.17,0,1,1,1.16-1.17A1.17,1.17,0,0,1,223,204.22Z"/><path class="cls-12" d="M223,211.2A1.16,1.16,0,1,1,224.2,210,1.17,1.17,0,0,1,223,211.2Z"/><path class="cls-12" d="M223,218.19A1.17,1.17,0,1,1,224.2,217,1.17,1.17,0,0,1,223,218.19Z"/><path class="cls-12" d="M225.42,220.25a1.15,1.15,0,0,1,1.11-.89,1.14,1.14,0,0,1,1.11.89Z"/><path class="cls-12" d="M230,120.38a1.17,1.17,0,1,1,1.17-1.17A1.17,1.17,0,0,1,230,120.38Z"/><path class="cls-12" d="M226.53,116.88a1.16,1.16,0,1,1,1.16-1.16A1.16,1.16,0,0,1,226.53,116.88Z"/><circle class="cls-12" cx="230.02" cy="126.2" r="1.16"/><path class="cls-12" d="M226.53,123.87a1.17,1.17,0,1,1,1.16-1.16A1.16,1.16,0,0,1,226.53,123.87Z"/><path class="cls-12" d="M230,134.35a1.17,1.17,0,1,1,1.17-1.16A1.16,1.16,0,0,1,230,134.35Z"/><path class="cls-12" d="M226.53,130.86a1.17,1.17,0,1,1,1.16-1.17A1.17,1.17,0,0,1,226.53,130.86Z"/><path class="cls-12" d="M230,141.34a1.17,1.17,0,1,1,1.17-1.17A1.17,1.17,0,0,1,230,141.34Z"/><path class="cls-12" d="M226.53,137.84a1.16,1.16,0,1,1,1.16-1.16A1.16,1.16,0,0,1,226.53,137.84Z"/><circle class="cls-12" cx="230.02" cy="147.16" r="1.16"/><path class="cls-12" d="M226.53,144.83a1.17,1.17,0,1,1,1.16-1.16A1.16,1.16,0,0,1,226.53,144.83Z"/><path class="cls-12" d="M230,155.31a1.17,1.17,0,1,1,1.17-1.16A1.16,1.16,0,0,1,230,155.31Z"/><path class="cls-12" d="M226.53,151.82a1.17,1.17,0,1,1,1.16-1.17A1.16,1.16,0,0,1,226.53,151.82Z"/><path class="cls-12" d="M230,162.3a1.17,1.17,0,1,1,1.17-1.17A1.16,1.16,0,0,1,230,162.3Z"/><path class="cls-12" d="M226.53,158.8a1.16,1.16,0,1,1,1.16-1.16A1.16,1.16,0,0,1,226.53,158.8Z"/><circle class="cls-12" cx="230.02" cy="168.12" r="1.16"/><path class="cls-12" d="M226.53,165.79a1.17,1.17,0,1,1,1.16-1.16A1.16,1.16,0,0,1,226.53,165.79Z"/><path class="cls-12" d="M230,176.27a1.17,1.17,0,1,1,1.17-1.16A1.16,1.16,0,0,1,230,176.27Z"/><path class="cls-12" d="M226.53,172.78a1.17,1.17,0,1,1,1.16-1.17A1.16,1.16,0,0,1,226.53,172.78Z"/><path class="cls-12" d="M230,183.26a1.17,1.17,0,1,1,1.17-1.17A1.16,1.16,0,0,1,230,183.26Z"/><path class="cls-12" d="M226.53,179.76a1.16,1.16,0,1,1,1.16-1.16A1.16,1.16,0,0,1,226.53,179.76Z"/><path class="cls-12" d="M230,190.24a1.16,1.16,0,1,1,1.17-1.16A1.16,1.16,0,0,1,230,190.24Z"/><path class="cls-12" d="M226.53,186.75a1.17,1.17,0,1,1,1.16-1.16A1.16,1.16,0,0,1,226.53,186.75Z"/><path class="cls-12" d="M230,197.23a1.17,1.17,0,1,1,1.17-1.16A1.16,1.16,0,0,1,230,197.23Z"/><path class="cls-12" d="M226.53,193.74a1.17,1.17,0,1,1,1.16-1.17A1.16,1.16,0,0,1,226.53,193.74Z"/><circle class="cls-12" cx="230.02" cy="203.05" r="1.16"/><path class="cls-12" d="M226.53,200.72a1.16,1.16,0,1,1,1.16-1.16A1.16,1.16,0,0,1,226.53,200.72Z"/><path class="cls-12" d="M230,211.2a1.16,1.16,0,1,1,1.17-1.16A1.16,1.16,0,0,1,230,211.2Z"/><path class="cls-12" d="M226.53,207.71a1.17,1.17,0,1,1,1.16-1.16A1.16,1.16,0,0,1,226.53,207.71Z"/><circle class="cls-12" cx="230.02" cy="217.03" r="1.16"/><path class="cls-12" d="M232.41,220.25a1.14,1.14,0,0,1,1.11-.89,1.15,1.15,0,0,1,1.11.89Z"/><path class="cls-12" d="M226.53,214.7a1.17,1.17,0,1,1,1.16-1.17A1.16,1.16,0,0,1,226.53,214.7Z"/><path class="cls-12" d="M237,120.38a1.17,1.17,0,1,1,1.16-1.17A1.17,1.17,0,0,1,237,120.38Z"/><circle class="cls-12" cx="233.52" cy="115.72" r="1.16"/><path class="cls-12" d="M237,127.36a1.16,1.16,0,1,1,1.16-1.16A1.16,1.16,0,0,1,237,127.36Z"/><circle class="cls-12" cx="233.52" cy="122.71" r="1.16"/><path class="cls-12" d="M237,134.35a1.17,1.17,0,1,1,1.16-1.16A1.16,1.16,0,0,1,237,134.35Z"/><path class="cls-12" d="M233.52,130.86a1.17,1.17,0,1,1,0-2.33,1.17,1.17,0,0,1,0,2.33Z"/><path class="cls-12" d="M237,141.34a1.17,1.17,0,1,1,1.16-1.17A1.17,1.17,0,0,1,237,141.34Z"/><path class="cls-12" d="M233.52,137.84a1.16,1.16,0,1,1,1.16-1.16A1.17,1.17,0,0,1,233.52,137.84Z"/><path class="cls-12" d="M237,148.32a1.16,1.16,0,1,1,1.16-1.16A1.16,1.16,0,0,1,237,148.32Z"/><circle class="cls-12" cx="233.52" cy="143.67" r="1.16"/><path class="cls-12" d="M237,155.31a1.17,1.17,0,1,1,1.16-1.16A1.16,1.16,0,0,1,237,155.31Z"/><path class="cls-12" d="M233.52,151.82a1.17,1.17,0,1,1,1.16-1.17A1.17,1.17,0,0,1,233.52,151.82Z"/><path class="cls-12" d="M237,162.3a1.17,1.17,0,1,1,1.16-1.17A1.16,1.16,0,0,1,237,162.3Z"/><path class="cls-12" d="M233.52,158.8a1.16,1.16,0,1,1,1.16-1.16A1.17,1.17,0,0,1,233.52,158.8Z"/><path class="cls-12" d="M237,169.28a1.16,1.16,0,1,1,1.16-1.16A1.16,1.16,0,0,1,237,169.28Z"/><path class="cls-12" d="M233.52,165.79a1.17,1.17,0,1,1,1.16-1.16A1.17,1.17,0,0,1,233.52,165.79Z"/><path class="cls-12" d="M237,176.27a1.17,1.17,0,1,1,1.16-1.16A1.16,1.16,0,0,1,237,176.27Z"/><circle class="cls-12" cx="233.52" cy="171.61" r="1.16"/><path class="cls-12" d="M237,183.26a1.17,1.17,0,1,1,1.16-1.17A1.16,1.16,0,0,1,237,183.26Z"/><circle class="cls-12" cx="233.52" cy="178.6" r="1.16"/><path class="cls-12" d="M237,190.24a1.16,1.16,0,1,1,1.16-1.16A1.16,1.16,0,0,1,237,190.24Z"/><path class="cls-12" d="M233.52,186.75a1.17,1.17,0,1,1,1.16-1.16A1.17,1.17,0,0,1,233.52,186.75Z"/><path class="cls-12" d="M237,197.23a1.17,1.17,0,1,1,1.16-1.16A1.16,1.16,0,0,1,237,197.23Z"/><circle class="cls-12" cx="233.52" cy="192.57" r="1.16"/><path class="cls-12" d="M237,204.22a1.17,1.17,0,1,1,1.16-1.17A1.16,1.16,0,0,1,237,204.22Z"/><circle class="cls-12" cx="233.52" cy="199.56" r="1.16"/><path class="cls-12" d="M237,211.2a1.16,1.16,0,1,1,1.16-1.16A1.16,1.16,0,0,1,237,211.2Z"/><path class="cls-12" d="M233.52,207.71a1.17,1.17,0,1,1,1.16-1.16A1.17,1.17,0,0,1,233.52,207.71Z"/><path class="cls-12" d="M237,218.19a1.17,1.17,0,1,1,1.16-1.16A1.16,1.16,0,0,1,237,218.19Z"/><path class="cls-12" d="M233.52,214.7a1.17,1.17,0,1,1,1.16-1.17A1.17,1.17,0,0,1,233.52,214.7Z"/><rect class="cls-6" x="221.87" y="159.92" width="16.3" height="60.32" transform="translate(460.05 380.17) rotate(180)"/><polygon class="cls-8" points="211.02 114.56 211.26 140.98 211.42 167.4 211.59 220.25 211.02 219.67 251.17 219.65 291.31 219.71 331.46 219.91 371.61 220.25 331.46 220.59 291.31 220.78 251.17 220.85 211.02 220.82 210.44 220.82 210.44 220.25 210.61 167.4 210.78 140.98 211.02 114.56"/><path class="cls-8" d="M208.66,114.56a9.39,9.39,0,0,1,4.86,0,8.81,8.81,0,0,1-2.43.31A9.21,9.21,0,0,1,208.66,114.56Z"/><path class="cls-8" d="M208.66,125a9.39,9.39,0,0,1,4.86,0,8.81,8.81,0,0,1-2.43.31A9.21,9.21,0,0,1,208.66,125Z"/><path class="cls-8" d="M208.66,135.52a9.39,9.39,0,0,1,4.86,0,8.81,8.81,0,0,1-2.43.31A9.21,9.21,0,0,1,208.66,135.52Z"/><path class="cls-8" d="M208.66,146a9.39,9.39,0,0,1,4.86,0,8.81,8.81,0,0,1-2.43.31A9.21,9.21,0,0,1,208.66,146Z"/><path class="cls-8" d="M208.66,156.48a9.39,9.39,0,0,1,4.86,0,9.68,9.68,0,0,1-4.86,0Z"/><path class="cls-8" d="M208.66,167a9.39,9.39,0,0,1,4.86,0,9.68,9.68,0,0,1-4.86,0Z"/><path class="cls-8" d="M208.66,177.44a9.39,9.39,0,0,1,4.86,0,9.68,9.68,0,0,1-4.86,0Z"/><path class="cls-8" d="M208.66,187.92a9.39,9.39,0,0,1,4.86,0,9.68,9.68,0,0,1-4.86,0Z"/><path class="cls-8" d="M208.66,198.4a9.39,9.39,0,0,1,4.86,0,9.68,9.68,0,0,1-4.86,0Z"/><path class="cls-8" d="M208.66,208.88a9.39,9.39,0,0,1,4.86,0,9.68,9.68,0,0,1-4.86,0Z"/><rect class="cls-9" x="222.15" y="88.4" width="138.33" height="3.6"/><rect class="cls-9" x="245.8" y="95.92" width="91.02" height="3.6"/><rect class="cls-1" x="284.36" y="258.54" width="167.76" height="61.82"/><path class="cls-8" d="M452.64,320.58H283.84V258.32h168.8Zm-167.76-.43H451.6V258.76H284.88Z"/><path class="cls-5" d="M297.45,265.75a3.12,3.12,0,1,1-3.12-3.12A3.12,3.12,0,0,1,297.45,265.75Z"/><path class="cls-8" d="M310.19,265.75a3.12,3.12,0,1,1-3.12-3.12A3.12,3.12,0,0,1,310.19,265.75Z"/><path class="cls-16" d="M322.92,265.75a3.12,3.12,0,1,1-3.12-3.12A3.12,3.12,0,0,1,322.92,265.75Z"/><rect class="cls-8" x="284.36" y="272.07" width="167.76" height="1.04"/><rect class="cls-8" x="299.83" y="282.01" width="139.02" height="11.6"/><rect class="cls-17" x="304.35" y="285.3" width="69.14" height="5.02"/><rect class="cls-8" x="299.83" y="299.04" width="139.02" height="11.6"/><rect class="cls-6" x="304.35" y="302.33" width="107.88" height="5.02"/></g><g id="MAN"><ellipse class="cls-18" cx="529.88" cy="479.73" rx="61.09" ry="4.37"/><g id="SHOES"><path class="cls-19" d="M561.31,453.25l.68,9.32s-1.45,13.87-1.07,15.55c.33,1.42,15.25,1.58,20.83.64a2.39,2.39,0,0,0,2-2.37v-2.8a3.76,3.76,0,0,0-.23-1.28l-4.2-11.13v-7.93Z"/><path class="cls-20" d="M579.31,461.18s-15.56-.69-16.1.73-1.22.66-1.22.66l-.68-9.32h18Z"/><path class="cls-21" d="M583.74,473.59v2.8a2.39,2.39,0,0,1-2,2.37c-5.58.94-20.5.78-20.83-.64a14.22,14.22,0,0,1,0-2.59l1.93.38c0-5.19,2.75-7.1,9.08-8.4a13.25,13.25,0,0,1,10.79,2.66l.81,2.14A3.76,3.76,0,0,1,583.74,473.59Z"/><path class="cls-19" d="M470.56,476.35c1-3,2.75-7.37,5.28-8.15,4-1.22,24.27-6.41,24.88-8.54,0,0,6.16,1.45,6.59,2.86s9.15.11,9.15.11l0,.14,1.21,14.68a1.75,1.75,0,0,1-1.74,1.9H472.75A2.3,2.3,0,0,1,470.56,476.35Z"/><path class="cls-20" d="M507.31,462.52c-.43-1.41-6.59-2.86-6.59-2.86.61-2.14.74-10,.74-10l16.35,2.6-1.35,10.33S507.74,463.92,507.31,462.52Z"/><path class="cls-21" d="M515.91,479.35H472.75a2.3,2.3,0,0,1-2.19-3c1-3,2.75-7.37,5.28-8.15l2.84-.81c.48,2.66.79,9.21.79,9.21l38.08-.45.1,1.3A1.75,1.75,0,0,1,515.91,479.35Z"/></g><g id="PANTS"><path class="cls-19" d="M582.94,265.54s.34,84.57,0,99.94-3.09,87.77-3.09,87.77H561.31s-4.35-63.64-4.58-77.59,1.37-14.91-1.83-28.86-8.93-36-8.93-36S530.63,355.08,530.86,361s1.6,24.84-2.52,39.27-10.53,52-10.53,52-11.55,1.89-16.35-2.6c0,0,4.9-88.24,5.82-99.83s10.4-88.31,10.4-88.31Z"/><path class="cls-22" d="M546,310.84l-2.67-18.75s-12.24,58.06-12.2,66.72Z"/></g><g id="BODY"><path class="cls-23" d="M563.71,157.65s29.73,7.36,32.94,16c7,18.81,7.1,59.58,2.39,60.63-5.17,1.15-16.27,2.25-16.27,2.25l.17,29L517.63,263l1.59-52.36-12,.87-32.71-28.09-2.19-7.54,11.11-4.18,7.15,12.74,18.11-.67s9-15.51,14.81-19.3S544.66,156.84,563.71,157.65Z"/><polygon class="cls-24" points="582.77 236.51 518.52 233.73 518.32 240.48 582.77 239.95 582.77 236.51"/><polygon class="cls-24" points="520.13 190.37 519.22 210.67 507.25 211.54 520.13 190.37"/><g id="LAPTOP"><path class="cls-6" d="M470.31,231.14h59.83l-21.26-47.66a3.76,3.76,0,0,0-3.48-1.85H450.47c-2.49,0-4.26,1.8-3.47,3.55l19.83,44.11A3.76,3.76,0,0,0,470.31,231.14Z"/><path class="cls-5" d="M485.82,201a6.27,6.27,0,0,1,1.32.16,2.6,2.6,0,0,0-1,3.49,3.3,3.3,0,0,0,4.28.79l0,0c-.37,1.8-2.3,3.18-4.66,3.18-2.61,0-4.73-1.7-4.73-3.8S483.21,201,485.82,201Z"/></g><path class="cls-25" d="M538,222.61l1.76,12s-12.88-.17-15.79,0-5.12,0-6.6-1.65a15.53,15.53,0,0,1-5.23-.95c-1.86-.91-6.66-3.09-6.49-4.53s13.51-.94,15.2-1.57c0,0-3.93-.6-4.57-2s-.56-2.1,2.06-1.89,7-.07,8.44.31,4,1.3,6,1S538,222.61,538,222.61Z"/><path class="cls-24" d="M538,222.61s29.13-7.65,42.32-8.91l-1.85-26.49s-1,20.31-6,23.16S538,222.61,538,222.61Z"/><path class="cls-26" d="M483.46,171.73l-2.21-6.52s2-8.29,1.46-10.21-2.88-9.28-4.1-9.28-1.28,3.39-1.28,3.69-4.22-8.36-5-9.81-1.71-1.88-2.48-1.33-.47,1.75-.47,1.75-1.23-2.39-1.92-2.39-1.53,1.11-1,4.23c0,0-1.62.13-1.49,2.43s.35,4,.35,4-.74-.51-1.06-.19-.19,4.42.74,8.23,5.15,11.29,5.53,12.89,1.87,6.7,1.87,6.7Z"/></g><g id="HEAD"><path class="cls-26" d="M538,109.29s-6.87,34.34-1.32,39.66,6.35,4.93,6.35,4.93l-.68,4.57s-1.66,8.53,7.61,9.1,13.79-9.9,13.79-9.9l2-20.14s2,.68,3.61-2.12,4.06-11.79-3.26-9.9C566.06,125.49,565,97.85,538,109.29Z"/><path class="cls-19" d="M566.06,125.49a4.36,4.36,0,0,0-2.87,2.63,60.9,60.9,0,0,0-2.29,7.73s-.45,9.44-2,12-9.33,8.35-13.73,8.7-13.62-4.81-13.62-8,3.16-16,3.16-16a13.6,13.6,0,0,1,5-.34c2,.43,4.58,1.18,6.15,3.24s3.27,3.8,4.93,3.46,6.46-2.52,7.09-4.87,2.35-7.78,2-9.21-3.77-5.49-3.83-7.44-.46-7.1-.46-7.1a116.94,116.94,0,0,1-12.76,1.38c-4.12,0-6.18-1-7.15-3.67s-1.89-9.67,2.34-9.67,18.32-3.26,23.87.46,15.68,13.11,15.56,14.71a43.25,43.25,0,0,1-.68,4.35s2.29,1.77,1.54,3.55-8.36,12.64-8.36,12.64S573.5,125.15,566.06,125.49Z"/><path class="cls-26" d="M543.75,138.4a6.9,6.9,0,0,0-6.14-2.73s-.25,2,1.51,2.19S542.72,137.84,543.75,138.4Z"/><path class="cls-27" d="M565.71,137.51a2.57,2.57,0,0,1-1.63-.72l1.27,4.38Z"/><path class="cls-28" d="M577.44,113.53a43.25,43.25,0,0,1-.68,4.35s2.29,1.77,1.54,3.55-8.36,12.64-8.36,12.64,3.56-8.92-3.88-8.58a4.36,4.36,0,0,0-2.87,2.63,60.9,60.9,0,0,0-2.29,7.73s3-13.85,5.16-16.54,8-2.52,8.69-5.38-2.06-6.05-2.25-6.28C575.35,110.38,577.5,112.79,577.44,113.53Z"/><path class="cls-28" d="M548.2,154.68c7.5-1.55,12.7-18.83,12.7-18.83s-.45,9.44-2,12-9.33,8.35-13.73,8.7c-3.15.24-8.74-2.32-11.68-5C534,151.9,541,156.17,548.2,154.68Z"/></g></g><g id="LADY"><ellipse class="cls-18" cx="165.06" cy="479.73" rx="48.7" ry="4.37"/><g id="SHOES-2" data-name="SHOES"><path class="cls-22" d="M190.72,454.63l-.6,9s11.21,7.25,14.65,8.26,4.87,3.1,4.87,4.82-.4,2.49-.71,2.59-34.08-.71-34.33-2.39,2.69-13.59,2.69-13.59l-.61-9.63Z"/><path class="cls-20" d="M190.12,463.67s-5.62.59-5.67,1.57-7.16-1.88-7.16-1.88l-.61-9.63,14,.9Z"/><path class="cls-21" d="M174.6,477c.25,1.68,34,2.49,34.33,2.39s.71-.86.71-2.59-1.42-3.8-4.87-4.82a11.67,11.67,0,0,1-1.42-.55h0c-1,.56-2.89,6.13-2.89,6.13-2.51,0-21.46-1.53-25.79-1.89A5.66,5.66,0,0,0,174.6,477Z"/><path class="cls-19" d="M124.69,446.54l-1.22,10.74-4.13,10.88a1.73,1.73,0,0,0,.93,2.2c4.72,2,19,8,23.29,8.62a50.94,50.94,0,0,0,9.77.16,2,2,0,0,0,1.86-2.12c-.15-2.49-1-6.58-4.79-7.62-5.57-1.52-13.69-10.15-13.69-10.15l2.45-8.52Z"/><path class="cls-20" d="M136.71,459.25s-4.82-.1-5.8.82-7.44-2.79-7.44-2.79l1.22-10.74,14.47,4.19Z"/><path class="cls-21" d="M120.27,470.36c4.72,2,19,8,23.29,8.62a50.94,50.94,0,0,0,9.77.16,2,2,0,0,0,1.86-2.12c-.15-2.49-1-6.58-4.79-7.62-.31-.09-.64-.2-1-.33h0c-5.9.95-6.27,7.36-6.27,7.36-5.11-1.09-19.38-7.1-23.57-8.89l-.24.62A1.73,1.73,0,0,0,120.27,470.36Z"/></g><g id="PANTS-2" data-name="PANTS"><path class="cls-19" d="M192.52,247.72s7.5,44.37,6.15,84.13-7.57,122.81-7.57,122.81-11.84.74-15.59-1.09c0,0-7.1-56.6-5.48-73.94s1.93-19.07,1.93-21-3-30.74-3-30.74-6.6,32.16-9.54,45.75-20.22,77.09-20.22,77.09-11.49-.54-14.47-4.19c0,0,3.92-59.1,8-73.58s6-22.18,5.68-28.67-4.19-47.74,1-69.52,9.84-29.85,9.84-29.85Z"/><path class="cls-22" d="M175.31,290.06l-6.39,37.83s3,28.81,3,30.74-.3,3.65-1.93,21c-.16,1.68-.23,3.74-.24,6.09l.08,5.35v0s2.84-20.84,5.44-31.11S175.31,290.06,175.31,290.06Z"/></g><path class="cls-19" d="M183,117s6.06-1.61,6.62,3-1.51,14.09,3.6,15.88,11.91,4.07,9.07,10.31S190.74,156,195.18,162s8.23,6,1.7,13.14-66.56,6.62-66.56,6.62,3.21-3.78.94-11.06-6.9-12.39-.09-14.85,12.19-1.89,12.76-11.82.64-22.11,7.84-27.22,23.46-11.26,27-8A15.88,15.88,0,0,1,183,117Z"/><path class="cls-22" d="M191.78,152.11c1.23-6.71-.57-9.07-3.31-16.07a49.36,49.36,0,0,1-3-14.34s-14,20.86-21.61,21.81-10.38-4.13-10.38-4.13-4.16,3.66-5.39,11.88-21.85.73-19.9,11.43c.76,2.25,2.12,4.91,3.07,8,2.27,7.28-.94,11.06-.94,11.06s60,.57,66.56-6.62c6.34-7,3-7.18-1.32-12.65h0A10.65,10.65,0,0,1,191.78,152.11Z"/><path class="cls-20" d="M251.16,181.7a17.87,17.87,0,0,0,1.05-5,8.38,8.38,0,0,1,1.49-4.86c.87-1.4,1.86-5.45,2.63-4.91s.35,3.72.35,3.72,2.88-3.79,3.3-4.18,2.45-4.38,2.94-4.38,1.2.38.88,1c0,0,.95-1.3,1.58-1s.6.86.35,1.34c0,0,1.19.34.39,2.13a26,26,0,0,0-1.09,2.7.94.94,0,0,1,.74,1.34c-.35,1.19-1.69,6.4-2.14,7.26s-5,9-5,9Z"/><path class="cls-23" d="M251.16,181.7c-.54.05-25.17,21.87-25.17,21.87s-23.19-26-25-27.66-17.21-4.53-17.21-4.53l-19.78-.92s-6-.71-14.88-1-12.65,4.8-21.44,13.05c-1.69,1.59-3.53,3.53-5.43,5.7h0l-1.37,1.59-9.81,11.43a107.74,107.74,0,0,0-17.42-19.17C83.59,173.63,80,169.47,80,169.47L71,176.87s24.31,43.75,34.81,49.94a3.86,3.86,0,0,0,2.46.71A32.5,32.5,0,0,0,123,220.78l19.57-20.7s6.5,42.81,6.6,44.84,6.79,4.56,11,5.78,31.75-2.43,32.43-3,4.39-26.37,5.07-28.53,4.6-7.92,4.6-7.92S220.38,226.42,228,225s30.91-37.53,31.11-38.48S251.69,181.65,251.16,181.7Z"/><path class="cls-29" d="M208.48,206.68c-2-4-7.64-12.92-7.64-12.92s1.15,4.53,2.06,9.47a13.22,13.22,0,0,1-.71,8S220.38,226.42,228,225C217.34,224.19,210.51,210.67,208.48,206.68Z"/><path class="cls-29" d="M159.58,179.39c7,4.46,17.45,4.87,17.45,4.87a18.75,18.75,0,0,0-6.32-13.49l-6.66-.31s-6-.71-14.88-1a19,19,0,0,0-4.11.32C151.26,168.57,152.7,175,159.58,179.39Z"/><polygon class="cls-29" points="142.54 200.08 149.85 193.08 146.19 224.38 142.54 200.08"/><g id="FACE"><path class="cls-20" d="M185.47,121.7c-15.38-17-28.24,17.71-28.24,17.71-3.65-2.77-7.44,3.28-4.28,6.68s6.05,2,6.05,2a26.83,26.83,0,0,0,5.17,6v16.43s3.5,13.42,12.1,12.86,6.34-12,6.34-12c-1.24-.51-2.53-9.43-3.06-13.54a14.6,14.6,0,0,0,3.34-1.53C190,151.83,185.47,121.7,185.47,121.7Z"/><path class="cls-27" d="M179.55,157.77a16.06,16.06,0,0,1-11.21-1.08S171.91,161,180,161Z"/><path class="cls-19" d="M157.23,139.41s2.15,5.36,2.84,5.36.69-6.31.69-6.31,8.2-.25,9.9-8.38,5.44-10.09,9.34-8c0,0,2.83-2.83,5.47-.37a11.93,11.93,0,0,0-10.62-7C166.81,114.38,153.28,130.21,157.23,139.41Z"/></g><path class="cls-20" d="M80,169.47l-2.5-2.37s-.38-5.47-1.15-6.38-4.85-6.6-5.41-6.88-1,.84-.84,1.72a11.21,11.21,0,0,0,.49,1.65,63.8,63.8,0,0,1-4.84-4.92c-.63-1-2.54-4.4-3.33-4.4s-.72,1.05-.53,1.49c0,0-.91-1.79-1.72-1.49s-.17,1.7.14,2.44c0,0-.49-1-.88-1s-.91,1-.45,2.11.7,1.89.7,1.89-.46-.56-.88.25-.28,1.58,1.09,5.47a57.49,57.49,0,0,0,4.32,8.58c.52,1.11,4.07,4,5.08,5.95S71,176.87,71,176.87Z"/></g><g id="plant"><path class="cls-30" d="M216.44,359.57c1.65,41.81,27.95,108.91,53.32,101.06,6.69-2.08-1.9-33.23-26.44-60.63C225.54,380.15,220.9,365.63,216.44,359.57Z"/><path class="cls-5" d="M291.39,455.4c-.15,2.63,36.35,6,53.27-21.59,13.19-21.48,21.38-23.41,28.44-27.22C325.09,405.72,291.8,448.5,291.39,455.4Z"/><path class="cls-31" d="M304.45,398.66c-.23-2.25,2.05-18.4-.39-31.08-5,4.9-23.54,68.05-23,78.31.21,3.77-2,14.18,5.92,16.06,8.35,2,23.77-18.19,29.23-32.11,18.06-46,5.07-44,20.13-70.22C330.39,364,307.6,390.42,304.45,398.66Z"/><path class="cls-30" d="M314.09,380.85c-3,4.4-4.41,9.6-7.38,13.91-2.39,3.47-2.15,7.83-3.85,11.17-1.83,3.59-5,5.43-5.22,10.47-.09,2.35.51,4.31.3,6.43-.27,2.65-1.38,5.1-1.41,7.93,0,2,.58,3.86.64,5.75.15,5.29-8.26,14-1.52,18.78-.37,4.47.44,6.06,2.75,6.12,4.92.15,4.74-4.87,5.7-7.63,1.11-3.18,4.72-5.27,5.07-9.63.18-2.26-1.13-4.92-.88-7,.18-1.55,1.61-2.39,2.43-3.69,2.1-3.34,2.19-7.21,2-11-.13-2.25-1.88-5.81-1.61-7.82.52-3.87,4.47-4.86,3.26-10.44-.36-1.69-1.81-3.73-1.76-5.46s1.18-2.9,1.76-4.48C316,389.9,314.15,385.33,314.09,380.85Z"/><path class="cls-32" d="M295.38,444.87c-4.71-.18-10.66,4.26-13.79,9.17.07-3.09.23-6.18.44-9.27,3.34-3.06,9-2.17,12.36-6.12,3.5-4.15.05-8.83-5-6.32-2.42,1.21-5.23,5.26-7.11,8.6.18-2.2.41-5.26.59-7.46q.24-2.87.39-5.72c3.82-2.39,12-2.21,12.86-8.52.6-4.42-3.79-7.48-7.33-3.88a32.27,32.27,0,0,0-5.34,8c.1-3.55.09-7.09-.07-10.62,4.2-3.29,13.78-2.33,15.63-8.52,1.52-5.05-4.91-6.23-8.57-3.73s-5.42,6.87-7.12,10.91q-.21-3.93-.67-7.86c3.15-3.21,9.74-5.39,11-10.61s-2.81-10.69-7.7-5.48c-2.56,2.74-3.59,7-4.07,11.08-.48-2.88-1.06-5.75-1.74-8.59a35.52,35.52,0,0,1,3.09-5.57c1.57-2.25,3.88-4.43,3.62-7.3-.45-5-4.26-2.42-6,.82a19,19,0,0,0-1.73,8.18c-.86-3.16-2.28-7.94-3.38-11,1.67-5.07,14.24-14.85,5.15-15.47-4.31-.3-6,8.19-6.14,13.27-.65-1.68-2.29-5.54-2.41-5.81,1.5-4.16,8.82-16.95,2.6-17.66-4.93-.55-4.89,7.69-4.49,11.75.05.52.08,1.26.15,2.07-1.18-2.53-2.44-5.06-3.79-7.55a23.35,23.35,0,0,0,2.81-5.73c.48-1.51,1.89-8.12-2.22-5.82-1.58.87-2.25,5.59-2.05,8.93q-1.5-2.61-3.16-5.12c-6-12.8-.08-29-9.89-27.41-11.64,1.86-8.33,11.44-5.55,15a46,46,0,0,0,12.92,11c1.11,1.86,5.31,10.11,5.84,11.18-4.63-5.73-14-17.05-17.73-10.85-3.36,5.5,13,9.75,18.61,12.7,1.54,3.25,4.94,11.62,5.27,12.5-2.11-2.39-3.86-6-6.69-7.64-2.51-1.46-8.44-2.69-8.49,1-.08,5.31,7.58,6,11.34,6.95,2.71.69,3.82,1.92,4.58,1.69q2.25,6.39,3.88,13c-2.87-5.27-11.33-16.58-15.48-10.51-5.34,7.82,10.45,8,15.77,11.69a137.85,137.85,0,0,1,2.53,13.62l0,.16c-1.84-4.19-3.27-8.43-7-11.63-3.36-2.91-9.44-4.39-9.51,2.48-.05,5,8.74,6,12.75,8.4,1.79,1.09,3.08,2.5,4,3.09.46,4.29.67,8.58.7,12.89-7-6.16-12.29-23.93-18.56-15.86-5.53,7.11,11.35,8.71,18.56,17.37,0,3.93-.18,7.87-.45,11.82a44.35,44.35,0,0,0-3.88-9.12c-1.11-2.21-7.21-8.7-10.09-3.88s6,8.81,8.65,10.36a12.81,12.81,0,0,1,5.11,5.41c-.05.73-.86,9.72-1.11,13.51-1.73-6.53-16.53-30.68-22.68-17.56-3.94,8.42,14.3,10.51,18.39,13.53,2.77,2.05,3.71,3.84,4.18,5.71-.13,2.19-.22,4.39-.24,6.58-3.47-6.11-12.15-17.89-16.8-9.11-5.49,10.38,9.22,7.73,11.95,9.3,2.38,1.37,5.07,2.26,5,5.6a65.79,65.79,0,0,0,.87,7.69c.33,1.82,3.21,1.2,3-.62a100.27,100.27,0,0,1-.54-10.66c4.21-2.46,13.5-2.42,16.34-4.71C301.86,449.44,300.55,445.08,295.38,444.87Z"/><path class="cls-33" d="M223.18,472s5.27-15.6,17.48-10.57c0,0,6.1-19.75,21.09-4.31s10.38-17.71,25.3-14.73,10.49,14.35,10.49,14.35,14.22-7.33,11.13,5.35c0,0,33.55-16.73,34.1-2.58,0,0,22.48-4.16,18.59,7.5,0,0,13.05-3.33,13.05,5Z"/></g><path class="cls-34" d="M440.83,435.58c-1.59-1.84-8.94-4.64-12-9.16s-13.8-20.32-22-17.23,7.06,14.13,11.59,19.65,4.89,21.54,16.86,21.54S444.37,439.67,440.83,435.58Z"/><path class="cls-35" d="M441.53,394.39s-5.74.17-5.19,8.23,2.71,14.08,2.27,18.39-4.36,20.81,2.92,21.91,15.68-1.38,12-13.25S453.24,392.08,441.53,394.39Z"/><path class="cls-36" d="M443.3,404s5.3,48.73,5.3,65.44"/><path class="cls-36" d="M447,469.44s-3.07-30-36.36-55.87"/><g id="plant_3" data-name="plant 3"><path class="cls-37" d="M628.62,466.58s-1.09-38.56-14.38-41.41-15.19,24,0,50.62Z"/><path class="cls-38" d="M621.75,471.21a.23.23,0,0,1-.22-.18c-6.34-26-9.06-35.58-9.09-35.67a.23.23,0,0,1,.16-.28.22.22,0,0,1,.27.15c0,.1,2.76,9.67,9.1,35.7a.23.23,0,0,1-.17.27Z"/><path class="cls-39" d="M633.22,475.79s20.25-19.62,12.66-29.11-26.58,7-31.64,29.11Z"/><path class="cls-38" d="M625.31,473.17l-.09,0a.23.23,0,0,1-.11-.3c5-11.61,14.82-20.86,14.92-21a.22.22,0,0,1,.32,0,.23.23,0,0,1,0,.32c-.1.09-9.84,9.27-14.82,20.8A.23.23,0,0,1,625.31,473.17Z"/><path class="cls-40" d="M616.08,475.79s-5.16-22.3-15.6-20.41,0,20.25,0,20.25Z"/><path class="cls-38" d="M605.85,473a.22.22,0,0,1-.21-.17l-3.48-13a.22.22,0,1,1,.43-.11l3.48,13a.22.22,0,0,1-.16.27Z"/></g></g></g></svg>