<svg width="893" height="230" viewBox="0 0 893 230" fill="none" xmlns="http://www.w3.org/2000/svg">
<path *ngIf="!iconOnly" d="M317.938 83.1875H290.062V159H271.312V83.1875H243.812V68H317.938V83.1875ZM347.625 133.438L360.125 91.375H379.5L352.312 169.5L350.812 173.062C346.771 181.896 340.104 186.312 330.812 186.312C328.188 186.312 325.521 185.917 322.812 185.125V171.438L325.562 171.5C328.979 171.5 331.521 170.979 333.188 169.938C334.896 168.896 336.229 167.167 337.188 164.75L339.312 159.188L315.625 91.375H335.062L347.625 133.438ZM447.5 125.812C447.5 136.229 445.125 144.583 440.375 150.875C435.667 157.125 429.292 160.25 421.25 160.25C414.417 160.25 408.896 157.875 404.688 153.125V185H386.625V91.375H403.375L404 98C408.375 92.75 414.083 90.125 421.125 90.125C429.458 90.125 435.938 93.2083 440.562 99.375C445.188 105.542 447.5 114.042 447.5 124.875V125.812ZM429.438 124.5C429.438 118.208 428.312 113.354 426.062 109.938C423.854 106.521 420.625 104.812 416.375 104.812C410.708 104.812 406.812 106.979 404.688 111.312V139C406.896 143.458 410.833 145.688 416.5 145.688C425.125 145.688 429.438 138.625 429.438 124.5ZM489.875 160.25C479.958 160.25 471.875 157.208 465.625 151.125C459.417 145.042 456.312 136.938 456.312 126.812V125.062C456.312 118.271 457.625 112.208 460.25 106.875C462.875 101.5 466.583 97.375 471.375 94.5C476.208 91.5833 481.708 90.125 487.875 90.125C497.125 90.125 504.396 93.0417 509.688 98.875C515.021 104.708 517.688 112.979 517.688 123.688V131.062H474.625C475.208 135.479 476.958 139.021 479.875 141.688C482.833 144.354 486.562 145.688 491.062 145.688C498.021 145.688 503.458 143.167 507.375 138.125L516.25 148.062C513.542 151.896 509.875 154.896 505.25 157.062C500.625 159.188 495.5 160.25 489.875 160.25ZM487.812 104.75C484.229 104.75 481.312 105.958 479.062 108.375C476.854 110.792 475.438 114.25 474.812 118.75H499.938V117.312C499.854 113.312 498.771 110.229 496.688 108.062C494.604 105.854 491.646 104.75 487.812 104.75ZM576.375 135.125C576.375 131.583 575.125 128.875 572.625 127C570.125 125.083 565.625 123.083 559.125 121C552.625 118.875 547.479 116.792 543.688 114.75C533.354 109.167 528.188 101.646 528.188 92.1875C528.188 87.2708 529.562 82.8958 532.312 79.0625C535.104 75.1875 539.083 72.1667 544.25 70C549.458 67.8333 555.292 66.75 561.75 66.75C568.25 66.75 574.042 67.9375 579.125 70.3125C584.208 72.6458 588.146 75.9583 590.938 80.25C593.771 84.5417 595.188 89.4167 595.188 94.875H576.438C576.438 90.7083 575.125 87.4792 572.5 85.1875C569.875 82.8542 566.188 81.6875 561.438 81.6875C556.854 81.6875 553.292 82.6667 550.75 84.625C548.208 86.5417 546.938 89.0833 546.938 92.25C546.938 95.2083 548.417 97.6875 551.375 99.6875C554.375 101.688 558.771 103.562 564.562 105.312C575.229 108.521 583 112.5 587.875 117.25C592.75 122 595.188 127.917 595.188 135C595.188 142.875 592.208 149.062 586.25 153.562C580.292 158.021 572.271 160.25 562.188 160.25C555.188 160.25 548.812 158.979 543.062 156.438C537.312 153.854 532.917 150.333 529.875 145.875C526.875 141.417 525.375 136.25 525.375 130.375H544.188C544.188 140.417 550.188 145.438 562.188 145.438C566.646 145.438 570.125 144.542 572.625 142.75C575.125 140.917 576.375 138.375 576.375 135.125ZM634.875 145.688C638.208 145.688 640.917 144.771 643 142.938C645.083 141.104 646.167 138.667 646.25 135.625H663.188C663.146 140.208 661.896 144.417 659.438 148.25C656.979 152.042 653.604 155 649.312 157.125C645.062 159.208 640.354 160.25 635.188 160.25C625.521 160.25 617.896 157.188 612.312 151.062C606.729 144.896 603.938 136.396 603.938 125.562V124.375C603.938 113.958 606.708 105.646 612.25 99.4375C617.792 93.2292 625.396 90.125 635.062 90.125C643.521 90.125 650.292 92.5417 655.375 97.375C660.5 102.167 663.104 108.562 663.188 116.562H646.25C646.167 113.062 645.083 110.229 643 108.062C640.917 105.854 638.167 104.75 634.75 104.75C630.542 104.75 627.354 106.292 625.188 109.375C623.062 112.417 622 117.375 622 124.25V126.125C622 133.083 623.062 138.083 625.188 141.125C627.312 144.167 630.542 145.688 634.875 145.688ZM711.5 108.312C709.042 107.979 706.875 107.812 705 107.812C698.167 107.812 693.688 110.125 691.562 114.75V159H673.5V91.375H690.562L691.062 99.4375C694.688 93.2292 699.708 90.125 706.125 90.125C708.125 90.125 710 90.3958 711.75 90.9375L711.5 108.312ZM739.312 159H721.188V91.375H739.312V159ZM720.125 73.875C720.125 71.1667 721.021 68.9375 722.812 67.1875C724.646 65.4375 727.125 64.5625 730.25 64.5625C733.333 64.5625 735.792 65.4375 737.625 67.1875C739.458 68.9375 740.375 71.1667 740.375 73.875C740.375 76.625 739.438 78.875 737.562 80.625C735.729 82.375 733.292 83.25 730.25 83.25C727.208 83.25 724.75 82.375 722.875 80.625C721.042 78.875 720.125 76.625 720.125 73.875ZM815.125 125.812C815.125 136.229 812.75 144.583 808 150.875C803.292 157.125 796.917 160.25 788.875 160.25C782.042 160.25 776.521 157.875 772.312 153.125V185H754.25V91.375H771L771.625 98C776 92.75 781.708 90.125 788.75 90.125C797.083 90.125 803.562 93.2083 808.188 99.375C812.812 105.542 815.125 114.042 815.125 124.875V125.812ZM797.062 124.5C797.062 118.208 795.938 113.354 793.688 109.938C791.479 106.521 788.25 104.812 784 104.812C778.333 104.812 774.438 106.979 772.312 111.312V139C774.521 143.458 778.458 145.688 784.125 145.688C792.75 145.688 797.062 138.625 797.062 124.5ZM848 74.75V91.375H859.562V104.625H848V138.375C848 140.875 848.479 142.667 849.438 143.75C850.396 144.833 852.229 145.375 854.938 145.375C856.938 145.375 858.708 145.229 860.25 144.938V158.625C856.708 159.708 853.062 160.25 849.312 160.25C836.646 160.25 830.188 153.854 829.938 141.062V104.625H820.062V91.375H829.938V74.75H848Z" fill="black"/>
<path d="M0 117.5V208H181V27H0V117.5ZM145.852 110.283C150.191 111.304 154.135 113.578 157.193 116.821C158.844 118.586 161.316 121.827 161.526 122.625C161.582 122.862 153.72 128.134 148.946 131.081C148.771 131.199 148.064 130.464 147.294 129.31C144.97 125.922 142.521 124.452 138.782 124.186C133.301 123.829 129.766 126.691 129.794 131.494C129.765 132.669 130.028 133.833 130.558 134.882C131.768 137.387 134.036 138.886 141.044 141.924C154.008 147.489 159.546 151.172 162.99 156.387C166.848 162.218 167.702 171.529 165.112 178.48C162.227 185.992 155.094 191.116 145.077 192.796C141.983 193.356 134.619 193.265 131.287 192.649C124.013 191.354 117.118 187.756 112.876 183.045C111.196 181.218 107.955 176.415 108.164 176.093C108.255 175.974 108.99 175.505 109.816 175.03L116.536 171.138L121.751 168.106L122.842 169.724C124.375 172.049 127.701 175.233 129.709 176.291C135.484 179.357 143.409 178.916 147.328 175.409C148.918 174.085 149.806 172.049 149.687 169.99C149.687 167.897 149.421 166.958 148.33 165.391C146.915 163.389 144.059 161.681 135.897 158.146C126.559 154.107 122.52 151.635 118.872 147.659C116.575 145.042 114.877 141.955 113.894 138.615C113.215 136.052 113.04 129.627 113.572 127.065C115.489 118.02 122.322 111.748 132.13 109.892C135.314 109.276 142.735 109.508 145.858 110.277L145.852 110.283ZM103.374 117.856L103.43 125.249H79.8606V192.213H63.186V125.249H39.6503V118.003C39.6503 113.965 39.7408 110.611 39.8539 110.52C39.9444 110.401 54.2604 110.345 71.6421 110.373L103.283 110.464L103.374 117.856Z" fill="black"/>
</svg>
