<svg xmlns="http://www.w3.org/2000/svg" xmlns:xlink="http://www.w3.org/1999/xlink" viewBox="0 0 720 504"><defs><style>.cls-1,.cls-13{mask:url(#mask);}.cls-1{filter:url(#luminosity-noclip-13);}.cls-10,.cls-12,.cls-14,.cls-16,.cls-18,.cls-2,.cls-20,.cls-22,.cls-24,.cls-4,.cls-58,.cls-6,.cls-78,.cls-8{mix-blend-mode:multiply;}.cls-2{fill:url(#linear-gradient);}.cls-3{mask:url(#mask-2);filter:url(#luminosity-noclip-18);}.cls-4{fill:url(#linear-gradient-2);}.cls-5,.cls-7{mask:url(#mask-3);}.cls-5{filter:url(#luminosity-noclip-19);}.cls-6{fill:url(#linear-gradient-3);}.cls-7{filter:url(#luminosity-noclip-20);}.cls-8{fill:url(#linear-gradient-4);}.cls-9{mask:url(#mask-5);filter:url(#luminosity-noclip-21);}.cls-10{fill:url(#linear-gradient-5);}.cls-11,.cls-15{mask:url(#mask-6);}.cls-11{filter:url(#luminosity-noclip-22);}.cls-12{fill:url(#linear-gradient-6);}.cls-13{filter:url(#luminosity-noclip-14);}.cls-14{fill:url(#linear-gradient-7);}.cls-15{filter:url(#luminosity-noclip-23);}.cls-16{fill:url(#linear-gradient-8);}.cls-17{mask:url(#mask-9);filter:url(#luminosity-noclip-24);}.cls-18{fill:url(#linear-gradient-9);}.cls-19{mask:url(#mask-10);filter:url(#luminosity-noclip-15);}.cls-20{fill:url(#linear-gradient-10);}.cls-21,.cls-23{mask:url(#mask-11);}.cls-21{filter:url(#luminosity-noclip-16);}.cls-22{fill:url(#linear-gradient-11);}.cls-23{filter:url(#luminosity-noclip-17);}.cls-24{fill:url(#linear-gradient-12);}.cls-25{isolation:isolate;}.cls-26{fill:#fff;}.cls-27{fill:url(#linear-gradient-13);}.cls-28{fill:#f48f59;}.cls-29,.cls-31,.cls-85,.cls-87{fill:none;stroke:#231f20;stroke-miterlimit:10;}.cls-29,.cls-85,.cls-87{stroke-linecap:round;}.cls-29,.cls-31{stroke-width:1.17px;}.cls-30{fill:url(#linear-gradient-14);}.cls-32{fill:url(#linear-gradient-15);}.cls-33{fill:#c9eaf4;}.cls-34{fill:#e0e6ee;}.cls-35,.cls-65{opacity:0.2;}.cls-36{fill:#f45662;}.cls-37{fill:#b72e3e;}.cls-38,.cls-49,.cls-69{mix-blend-mode:color-burn;}.cls-39{fill:url(#linear-gradient-16);}.cls-40{fill:url(#linear-gradient-17);}.cls-41{fill:url(#linear-gradient-18);}.cls-42{mask:url(#mask-13);}.cls-43{fill:url(#linear-gradient-19);}.cls-44{mask:url(#mask-14);}.cls-45{fill:url(#linear-gradient-20);}.cls-46{mask:url(#mask-15);}.cls-47{fill:url(#linear-gradient-21);}.cls-48{fill:url(#linear-gradient-22);}.cls-49{fill:#d3d3d3;}.cls-50{mask:url(#mask-16);}.cls-51{fill:url(#linear-gradient-23);}.cls-52{mask:url(#mask-17);}.cls-53{fill:url(#linear-gradient-24);}.cls-54{mask:url(#mask-18);}.cls-55{fill:url(#linear-gradient-25);}.cls-56{fill:url(#linear-gradient-26);}.cls-57{fill:url(#linear-gradient-27);}.cls-58{opacity:0.1;}.cls-59{mask:url(#mask-19);}.cls-60{fill:url(#linear-gradient-28);}.cls-61{mask:url(#mask-20);}.cls-62{fill:url(#linear-gradient-29);}.cls-63{mask:url(#mask-21);}.cls-64{fill:url(#linear-gradient-30);}.cls-66{fill:url(#linear-gradient-31);}.cls-67{fill:#1150bf;}.cls-68{fill:#094081;}.cls-69{fill:url(#linear-gradient-32);}.cls-70{mask:url(#mask-22);}.cls-71{fill:url(#linear-gradient-33);}.cls-72{mask:url(#mask-23);}.cls-73{fill:url(#linear-gradient-34);}.cls-74{mask:url(#mask-24);}.cls-75{fill:url(#linear-gradient-35);}.cls-76{fill:#403881;}.cls-77{fill:#201851;}.cls-78{opacity:0.25;}.cls-79{fill:#fd835a;}.cls-80{fill:#413b89;}.cls-81{fill:url(#linear-gradient-36);}.cls-82{fill:url(#linear-gradient-37);}.cls-83{fill:#3d85f9;}.cls-84{fill:#1351bd;}.cls-85{stroke-width:0.75px;}.cls-86{fill:#423980;}.cls-87{stroke-width:0.5px;}.cls-88{fill:url(#linear-gradient-38);}.cls-89{fill:url(#linear-gradient-39);}.cls-90{fill:#184462;opacity:0.07;}.cls-91{fill:#232020;opacity:0.03;}.cls-92{fill:url(#linear-gradient-40);}.cls-93{fill:#232059;}.cls-94{fill:#f59d80;}.cls-95{fill:#d07a62;}.cls-96{fill:#fca080;}.cls-97{fill:#1e194f;}.cls-98{fill:url(#linear-gradient-41);}.cls-99{fill:url(#linear-gradient-42);}.cls-100{fill:url(#linear-gradient-43);}.cls-101{fill:url(#linear-gradient-44);}.cls-102{filter:url(#luminosity-noclip-11);}.cls-103{filter:url(#luminosity-noclip-10);}.cls-104{filter:url(#luminosity-noclip-9);}.cls-105{filter:url(#luminosity-noclip-6);}.cls-106{filter:url(#luminosity-noclip-5);}.cls-107{filter:url(#luminosity-noclip-3);}.cls-108{filter:url(#luminosity-noclip-2);}.cls-109{filter:url(#luminosity-noclip);}</style><filter id="luminosity-noclip" x="576.6" y="-8413.5" width="5.39" height="32766" filterUnits="userSpaceOnUse" color-interpolation-filters="sRGB"><feFlood flood-color="#fff" result="bg"/><feBlend in="SourceGraphic" in2="bg"/></filter><mask id="mask" x="576.6" y="-8413.5" width="5.39" height="32766" maskUnits="userSpaceOnUse"><g class="cls-109"/></mask><linearGradient id="linear-gradient" x1="579.29" y1="389.57" x2="579.29" y2="451.05" gradientUnits="userSpaceOnUse"><stop offset="0.01" stop-color="gray"/><stop offset="1" stop-color="#1a1a1a"/></linearGradient><filter id="luminosity-noclip-2" x="639.27" y="-8413.5" width="11.73" height="32766" filterUnits="userSpaceOnUse" color-interpolation-filters="sRGB"><feFlood flood-color="#fff" result="bg"/><feBlend in="SourceGraphic" in2="bg"/></filter><mask id="mask-2" x="639.27" y="-8413.5" width="11.73" height="32766" maskUnits="userSpaceOnUse"><g class="cls-108"/></mask><linearGradient id="linear-gradient-2" x1="645.13" y1="210.52" x2="645.13" y2="271.99" xlink:href="#linear-gradient"/><filter id="luminosity-noclip-3" x="535.5" y="-8413.5" width="4.52" height="32766" filterUnits="userSpaceOnUse" color-interpolation-filters="sRGB"><feFlood flood-color="#fff" result="bg"/><feBlend in="SourceGraphic" in2="bg"/></filter><mask id="mask-3" x="535.5" y="-8413.5" width="4.52" height="32766" maskUnits="userSpaceOnUse"><g class="cls-107"/></mask><linearGradient id="linear-gradient-3" x1="537.76" y1="357.09" x2="537.76" y2="404.13" xlink:href="#linear-gradient"/><linearGradient id="linear-gradient-4" x1="537.76" y1="357.09" x2="537.76" y2="404.13" xlink:href="#linear-gradient"/><filter id="luminosity-noclip-5" x="529.67" y="-8413.5" width="10.34" height="32766" filterUnits="userSpaceOnUse" color-interpolation-filters="sRGB"><feFlood flood-color="#fff" result="bg"/><feBlend in="SourceGraphic" in2="bg"/></filter><mask id="mask-5" x="529.67" y="-8413.5" width="10.34" height="32766" maskUnits="userSpaceOnUse"><g class="cls-106"/></mask><linearGradient id="linear-gradient-5" x1="534.84" y1="357.09" x2="534.84" y2="404.13" xlink:href="#linear-gradient"/><filter id="luminosity-noclip-6" x="240.71" y="-8413.5" width="2.21" height="32766" filterUnits="userSpaceOnUse" color-interpolation-filters="sRGB"><feFlood flood-color="#fff" result="bg"/><feBlend in="SourceGraphic" in2="bg"/></filter><mask id="mask-6" x="240.71" y="-8413.5" width="2.21" height="32766" maskUnits="userSpaceOnUse"><g class="cls-105"/></mask><linearGradient id="linear-gradient-6" x1="640.09" y1="332.5" x2="640.09" y2="372.73" gradientTransform="matrix(-1, 0, 0, 1, 881.91, 0)" xlink:href="#linear-gradient"/><linearGradient id="linear-gradient-7" x1="579.29" y1="389.57" x2="579.29" y2="451.05" xlink:href="#linear-gradient"/><linearGradient id="linear-gradient-8" x1="640.09" y1="332.5" x2="640.09" y2="372.73" gradientTransform="matrix(-1, 0, 0, 1, 881.91, 0)" xlink:href="#linear-gradient"/><filter id="luminosity-noclip-9" x="240.71" y="-8413.5" width="9.07" height="32766" filterUnits="userSpaceOnUse" color-interpolation-filters="sRGB"><feFlood flood-color="#fff" result="bg"/><feBlend in="SourceGraphic" in2="bg"/></filter><mask id="mask-9" x="240.71" y="-8413.5" width="9.07" height="32766" maskUnits="userSpaceOnUse"><g class="cls-104"/></mask><linearGradient id="linear-gradient-9" x1="636.66" y1="332.5" x2="636.66" y2="372.72" gradientTransform="matrix(-1, 0, 0, 1, 881.91, 0)" xlink:href="#linear-gradient"/><filter id="luminosity-noclip-10" x="563.76" y="-8413.5" width="18.22" height="32766" filterUnits="userSpaceOnUse" color-interpolation-filters="sRGB"><feFlood flood-color="#fff" result="bg"/><feBlend in="SourceGraphic" in2="bg"/></filter><mask id="mask-10" x="563.76" y="-8413.5" width="18.22" height="32766" maskUnits="userSpaceOnUse"><g class="cls-103"/></mask><linearGradient id="linear-gradient-10" x1="572.87" y1="389.58" x2="572.87" y2="451.05" xlink:href="#linear-gradient"/><filter id="luminosity-noclip-11" x="647.53" y="-8413.5" width="3.47" height="32766" filterUnits="userSpaceOnUse" color-interpolation-filters="sRGB"><feFlood flood-color="#fff" result="bg"/><feBlend in="SourceGraphic" in2="bg"/></filter><mask id="mask-11" x="647.53" y="-8413.5" width="3.47" height="32766" maskUnits="userSpaceOnUse"><g class="cls-102"/></mask><linearGradient id="linear-gradient-11" x1="649.26" y1="210.52" x2="649.26" y2="271.99" xlink:href="#linear-gradient"/><linearGradient id="linear-gradient-12" x1="649.26" y1="210.52" x2="649.26" y2="271.99" xlink:href="#linear-gradient"/><linearGradient id="linear-gradient-13" x1="-187.21" y1="245.59" x2="-274.19" y2="74.39" gradientTransform="matrix(-1, 0, 0, 1, 347.92, 0)" gradientUnits="userSpaceOnUse"><stop offset="0" stop-color="#f5995e"/><stop offset="0.29" stop-color="#f9ab60"/><stop offset="0.71" stop-color="#fdbf62"/><stop offset="1" stop-color="#ffc663"/></linearGradient><linearGradient id="linear-gradient-14" x1="694.09" y1="280.93" x2="637.74" y2="170.27" gradientUnits="userSpaceOnUse"><stop offset="0" stop-color="#1252c3"/><stop offset="1" stop-color="#3f86fd"/></linearGradient><linearGradient id="linear-gradient-15" x1="254.62" y1="307.82" x2="198.27" y2="197.16" xlink:href="#linear-gradient-14"/><linearGradient id="linear-gradient-16" x1="112.97" y1="418.74" x2="701.71" y2="418.74" gradientUnits="userSpaceOnUse"><stop offset="0" stop-color="#fff"/><stop offset="1" stop-color="#afafaf"/></linearGradient><linearGradient id="linear-gradient-17" x1="112.97" y1="430.19" x2="701.71" y2="430.19" xlink:href="#linear-gradient-16"/><linearGradient id="linear-gradient-18" x1="112.97" y1="441.63" x2="701.71" y2="441.63" xlink:href="#linear-gradient-16"/><filter id="luminosity-noclip-13" x="576.6" y="434.73" width="5.39" height="5.07" filterUnits="userSpaceOnUse" color-interpolation-filters="sRGB"><feFlood flood-color="#fff" result="bg"/><feBlend in="SourceGraphic" in2="bg"/></filter><mask id="mask-13" x="576.6" y="434.73" width="5.39" height="5.07" maskUnits="userSpaceOnUse"><g class="cls-1"><path class="cls-2" d="M579.29,434.73c-1.49,0-2.69.79-2.69,1.77V438c0,1,1.2,1.76,2.69,1.76S582,439,582,438V436.5C582,435.52,580.78,434.73,579.29,434.73Z"/></g></mask><linearGradient id="linear-gradient-19" x1="579.29" y1="389.57" x2="579.29" y2="451.05" gradientUnits="userSpaceOnUse"><stop offset="0.01" stop-color="#fff"/><stop offset="1" stop-color="#fff"/></linearGradient><filter id="luminosity-noclip-14" x="576.6" y="422.56" width="5.39" height="10.44" filterUnits="userSpaceOnUse" color-interpolation-filters="sRGB"><feFlood flood-color="#fff" result="bg"/><feBlend in="SourceGraphic" in2="bg"/></filter><mask id="mask-14" x="576.6" y="422.56" width="5.39" height="10.44" maskUnits="userSpaceOnUse"><g class="cls-13"><path class="cls-14" d="M579.29,422.56c-1.49,0-2.69.79-2.69,1.77v6.91c0,1,1.2,1.77,2.69,1.77s2.69-.79,2.69-1.77v-6.91C582,423.35,580.78,422.56,579.29,422.56Z"/></g></mask><linearGradient id="linear-gradient-20" x1="579.29" y1="389.57" x2="579.29" y2="451.05" xlink:href="#linear-gradient-19"/><filter id="luminosity-noclip-15" x="563.76" y="410.35" width="18.22" height="10.48" filterUnits="userSpaceOnUse" color-interpolation-filters="sRGB"><feFlood flood-color="#fff" result="bg"/><feBlend in="SourceGraphic" in2="bg"/></filter><mask id="mask-15" x="563.76" y="410.35" width="18.22" height="10.48" maskUnits="userSpaceOnUse"><g class="cls-19"><path class="cls-20" d="M579.29,410.35H566.46c-1.49,0-2.7.79-2.7,1.77s1.21,1.76,2.7,1.76H576.6v5.19c0,1,1.2,1.76,2.69,1.76S582,420,582,419.07v-6.95C582,411.14,580.78,410.35,579.29,410.35Z"/></g></mask><linearGradient id="linear-gradient-21" x1="572.87" y1="389.58" x2="572.87" y2="451.05" xlink:href="#linear-gradient-19"/><linearGradient id="linear-gradient-22" x1="356.45" y1="250.54" x2="659.47" y2="250.54" gradientTransform="matrix(1, 0, 0, 1, 0, 0)" xlink:href="#linear-gradient-13"/><filter id="luminosity-noclip-16" x="647.53" y="255.68" width="3.47" height="5.07" filterUnits="userSpaceOnUse" color-interpolation-filters="sRGB"><feFlood flood-color="#fff" result="bg"/><feBlend in="SourceGraphic" in2="bg"/></filter><mask id="mask-16" x="647.53" y="255.68" width="3.47" height="5.07" maskUnits="userSpaceOnUse"><g class="cls-21"><path class="cls-22" d="M649.26,255.68a1.75,1.75,0,0,0-1.73,1.76V259a1.74,1.74,0,1,0,3.47,0v-1.54A1.75,1.75,0,0,0,649.26,255.68Z"/></g></mask><linearGradient id="linear-gradient-23" x1="649.26" y1="210.52" x2="649.26" y2="271.99" xlink:href="#linear-gradient-19"/><filter id="luminosity-noclip-17" x="647.53" y="243.5" width="3.47" height="10.44" filterUnits="userSpaceOnUse" color-interpolation-filters="sRGB"><feFlood flood-color="#fff" result="bg"/><feBlend in="SourceGraphic" in2="bg"/></filter><mask id="mask-17" x="647.53" y="243.5" width="3.47" height="10.44" maskUnits="userSpaceOnUse"><g class="cls-23"><path class="cls-24" d="M649.26,243.5a1.75,1.75,0,0,0-1.73,1.77v6.91a1.74,1.74,0,1,0,3.47,0v-6.91A1.75,1.75,0,0,0,649.26,243.5Z"/></g></mask><linearGradient id="linear-gradient-24" x1="649.26" y1="210.52" x2="649.26" y2="271.99" xlink:href="#linear-gradient-19"/><filter id="luminosity-noclip-18" x="639.27" y="231.29" width="11.73" height="10.48" filterUnits="userSpaceOnUse" color-interpolation-filters="sRGB"><feFlood flood-color="#fff" result="bg"/><feBlend in="SourceGraphic" in2="bg"/></filter><mask id="mask-18" x="639.27" y="231.29" width="11.73" height="10.48" maskUnits="userSpaceOnUse"><g class="cls-3"><path class="cls-4" d="M649.26,231.29H641a1.77,1.77,0,0,0,0,3.53h6.53V240a1.74,1.74,0,1,0,3.47,0v-6.95A1.75,1.75,0,0,0,649.26,231.29Z"/></g></mask><linearGradient id="linear-gradient-25" x1="645.13" y1="210.52" x2="645.13" y2="271.99" xlink:href="#linear-gradient-19"/><linearGradient id="linear-gradient-26" x1="553.25" y1="389.34" x2="146.63" y2="389.34" gradientUnits="userSpaceOnUse"><stop offset="0" stop-color="#f79f34"/><stop offset="1" stop-color="#ffc446"/></linearGradient><linearGradient id="linear-gradient-27" x1="553.25" y1="380.18" x2="146.63" y2="380.18" xlink:href="#linear-gradient-26"/><filter id="luminosity-noclip-19" x="535.5" y="393.5" width="4.52" height="3.94" filterUnits="userSpaceOnUse" color-interpolation-filters="sRGB"><feFlood flood-color="#fff" result="bg"/><feBlend in="SourceGraphic" in2="bg"/></filter><mask id="mask-19" x="535.5" y="393.5" width="4.52" height="3.94" maskUnits="userSpaceOnUse"><g class="cls-5"><path class="cls-6" d="M537.76,393.5c-1.25,0-2.26.66-2.26,1.48v1c0,.82,1,1.48,2.26,1.48S540,396.78,540,396v-1C540,394.16,539,393.5,537.76,393.5Z"/></g></mask><linearGradient id="linear-gradient-28" x1="537.76" y1="357.09" x2="537.76" y2="404.13" xlink:href="#linear-gradient-19"/><filter id="luminosity-noclip-20" x="535.5" y="382.14" width="4.52" height="9.97" filterUnits="userSpaceOnUse" color-interpolation-filters="sRGB"><feFlood flood-color="#fff" result="bg"/><feBlend in="SourceGraphic" in2="bg"/></filter><mask id="mask-20" x="535.5" y="382.14" width="4.52" height="9.97" maskUnits="userSpaceOnUse"><g class="cls-7"><path class="cls-8" d="M537.76,382.14c-1.25,0-2.26.67-2.26,1.48v7c0,.81,1,1.47,2.26,1.47s2.26-.66,2.26-1.47v-7C540,382.81,539,382.14,537.76,382.14Z"/></g></mask><linearGradient id="linear-gradient-29" x1="537.76" y1="357.09" x2="537.76" y2="404.13" xlink:href="#linear-gradient-19"/><filter id="luminosity-noclip-21" x="529.67" y="373.23" width="10.34" height="7.53" filterUnits="userSpaceOnUse" color-interpolation-filters="sRGB"><feFlood flood-color="#fff" result="bg"/><feBlend in="SourceGraphic" in2="bg"/></filter><mask id="mask-21" x="529.67" y="373.23" width="10.34" height="7.53" maskUnits="userSpaceOnUse"><g class="cls-9"><path class="cls-10" d="M537.76,373.23h-5.83c-1.25,0-2.26.66-2.26,1.48s1,1.47,2.26,1.47h3.57v3.1c0,.82,1,1.48,2.26,1.48s2.26-.66,2.26-1.48v-4.57C540,373.89,539,373.23,537.76,373.23Z"/></g></mask><linearGradient id="linear-gradient-30" x1="534.84" y1="357.09" x2="534.84" y2="404.13" xlink:href="#linear-gradient-19"/><linearGradient id="linear-gradient-31" x1="214.32" y1="343.59" x2="586.7" y2="343.59" xlink:href="#linear-gradient-14"/><linearGradient id="linear-gradient-32" x1="613.22" y1="405.74" x2="613.22" y2="354.86" gradientTransform="matrix(-1, 0, 0, 1, 881.91, 0)" xlink:href="#linear-gradient-16"/><filter id="luminosity-noclip-22" x="240.71" y="368.67" width="2.21" height="3.37" filterUnits="userSpaceOnUse" color-interpolation-filters="sRGB"><feFlood flood-color="#fff" result="bg"/><feBlend in="SourceGraphic" in2="bg"/></filter><mask id="mask-22" x="240.71" y="368.67" width="2.21" height="3.37" maskUnits="userSpaceOnUse"><g class="cls-11"><path class="cls-12" d="M241.81,368.67a1.05,1.05,0,0,1,1.1,1V371a1.11,1.11,0,0,1-2.2,0v-1.37A1.05,1.05,0,0,1,241.81,368.67Z"/></g></mask><linearGradient id="linear-gradient-33" x1="640.09" y1="332.5" x2="640.09" y2="372.73" gradientTransform="matrix(-1, 0, 0, 1, 881.91, 0)" xlink:href="#linear-gradient-19"/><filter id="luminosity-noclip-23" x="240.71" y="356.69" width="2.21" height="10.6" filterUnits="userSpaceOnUse" color-interpolation-filters="sRGB"><feFlood flood-color="#fff" result="bg"/><feBlend in="SourceGraphic" in2="bg"/></filter><mask id="mask-23" x="240.71" y="356.69" width="2.21" height="10.6" maskUnits="userSpaceOnUse"><g class="cls-15"><path class="cls-16" d="M241.81,356.69a1.05,1.05,0,0,1,1.1,1v8.61a1.11,1.11,0,0,1-2.2,0v-8.61A1.05,1.05,0,0,1,241.81,356.69Z"/></g></mask><linearGradient id="linear-gradient-34" x1="640.09" y1="332.5" x2="640.09" y2="372.73" gradientTransform="matrix(-1, 0, 0, 1, 881.91, 0)" xlink:href="#linear-gradient-19"/><filter id="luminosity-noclip-24" x="240.71" y="348.84" width="9.07" height="6.47" filterUnits="userSpaceOnUse" color-interpolation-filters="sRGB"><feFlood flood-color="#fff" result="bg"/><feBlend in="SourceGraphic" in2="bg"/></filter><mask id="mask-24" x="240.71" y="348.84" width="9.07" height="6.47" maskUnits="userSpaceOnUse"><g class="cls-17"><path class="cls-18" d="M242,348.84h6.69a1,1,0,1,1,0,2h-5.77v3.48a1.11,1.11,0,0,1-2.2,0V350A1.22,1.22,0,0,1,242,348.84Z"/></g></mask><linearGradient id="linear-gradient-35" x1="636.66" y1="332.5" x2="636.66" y2="372.72" gradientTransform="matrix(-1, 0, 0, 1, 881.91, 0)" xlink:href="#linear-gradient-19"/><linearGradient id="linear-gradient-36" x1="243.34" y1="466.42" x2="275.91" y2="315.94" gradientTransform="matrix(-1, 0, 0, 1, 856.88, 0)" xlink:href="#linear-gradient-14"/><linearGradient id="linear-gradient-37" x1="169.6" y1="447.01" x2="302.75" y2="447.01" gradientTransform="matrix(-1, 0, 0, 1, 856.88, 0)" gradientUnits="userSpaceOnUse"><stop offset="0" stop-color="#ff9c5c"/><stop offset="1" stop-color="#ffc861"/></linearGradient><linearGradient id="linear-gradient-38" x1="261.62" y1="95.47" x2="269.34" y2="95.47" xlink:href="#linear-gradient-26"/><linearGradient id="linear-gradient-39" x1="157.52" y1="262.88" x2="162.5" y2="262.88" xlink:href="#linear-gradient-26"/><linearGradient id="linear-gradient-40" x1="216.72" y1="251.33" x2="247.4" y2="251.33" xlink:href="#linear-gradient-26"/><linearGradient id="linear-gradient-41" x1="464.65" y1="89.46" x2="466.63" y2="89.46" xlink:href="#linear-gradient-26"/><linearGradient id="linear-gradient-42" x1="471.11" y1="88.95" x2="473.08" y2="88.95" xlink:href="#linear-gradient-26"/><linearGradient id="linear-gradient-43" x1="477.57" y1="88.32" x2="479.54" y2="88.32" xlink:href="#linear-gradient-26"/><linearGradient id="linear-gradient-44" x1="484.02" y1="86.32" x2="486" y2="86.32" xlink:href="#linear-gradient-26"/></defs><g class="cls-25"><g id="Layer_2" data-name="Layer 2"><g id="Layer_1-2" data-name="Layer 1"><rect class="cls-26" width="720" height="504"/><g id="trees"><g id="TREE"><g id="tree-2" data-name="tree"><path class="cls-27" d="M604.35,218.13c-28.4-1.82-61.17-33.92-52.53-53.78s10.62-33,1.87-46.42c-7.92-12.17,21.68-63.74,10.45-83.5,4.2-4,10-6.2,15.37-4.37,6.8,2.32,10.18,9.82,12.32,16.68a157.36,157.36,0,0,1,5.36,23.18c1.15,7.48,1.95,15.52,6.79,21.34,5.31,6.39,14.27,8.57,20.18,14.41a22,22,0,0,1,6.13,19c-1,6-4.49,11.29-7,16.87s-3.9,12.31-.86,17.61c2.68,4.66,8.08,7,11.83,10.82,4.79,4.92,6.57,12.27,5.71,19.08s-4.1,13.15-8.2,18.66a62.35,62.35,0,0,1-7.1,8A57.4,57.4,0,0,1,604.35,218.13Z"/><path class="cls-28" d="M576.33,247c-6.05-13.09-27.88-22.18-36.32-29.4-8.91-7.62-17.06-17.84-18.77-29.78-1.9-13.37,5.4-20.51,11.55-31,10.18-17.38-10.41-34.43-3.44-51.89,3.6-9,14.17-13,19.86-20.85,4.55-6.27,5.57-14.36,6.2-22.08s1.11-15.76,4.86-22.54a20.55,20.55,0,0,1,3.87-5c11.23,19.76-18.37,71.33-10.45,83.5,8.75,13.42,6.77,26.57-1.87,46.42s24.13,52,52.53,53.78a57.4,57.4,0,0,0,20.35-2.39,64,64,0,0,1-13.6,10C599,232.3,584.09,235.59,576.33,247Z"/></g><line class="cls-29" x1="576.28" y1="80.6" x2="576.28" y2="456.15"/><line class="cls-29" x1="576.28" y1="130.31" x2="596.45" y2="105.2"/><line class="cls-29" x1="576.28" y1="181.97" x2="596.45" y2="156.86"/><line class="cls-29" x1="576.28" y1="159.38" x2="556.12" y2="134.26"/><line class="cls-29" x1="576.28" y1="205.47" x2="556.12" y2="180.35"/><line class="cls-29" x1="576.28" y1="235.55" x2="596.45" y2="210.43"/></g><path class="cls-30" d="M682.9,161.38c3.58,2.43,25.71,23.13,18,51.73s-26.67,42.74-51.42,36.64-49.81-24.75-43.38-54S640.48,132.45,682.9,161.38Z"/><line class="cls-31" x1="656.51" y1="195.36" x2="656.51" y2="455.68"/><line class="cls-31" x1="656.51" y1="229.84" x2="671.59" y2="214.76"/><line class="cls-31" x1="656.51" y1="211.5" x2="643.77" y2="198.75"/><path class="cls-32" d="M243.43,188.26c3.57,2.44,25.71,23.14,18,51.74S234.75,282.74,210,276.64s-49.81-24.75-43.38-54S201,159.34,243.43,188.26Z"/><line class="cls-31" x1="217.04" y1="222.25" x2="217.04" y2="422.56"/><line class="cls-31" x1="217.04" y1="256.73" x2="232.11" y2="241.65"/><line class="cls-31" x1="217.04" y1="238.39" x2="204.29" y2="225.64"/></g><g id="books"><rect class="cls-33" x="361.3" y="413.61" width="224.73" height="31.99"/><rect class="cls-34" x="361.3" y="413.61" width="224.73" height="31.99"/><path class="cls-35" d="M385.89,435.37H586v-.88H385.89Zm0-2.66H586v-.88H385.89Zm0,10.66H586v-.88H385.89Zm0-5.33H586v-.88H385.89Zm0-8H586v-.88H385.89Zm0,10.67H586v-.89H385.89Zm0-13.33H586v-.88H385.89Zm0-8H586v-.88H385.89Zm0-3.55v.89H586v-.89Zm0,8.88H586v-.88H385.89Zm0-2.66H586v-.89H385.89Z"/><path class="cls-36" d="M591.4,407.7c2.07,0,3.75,1.11,3.75,2.46v1c0,1.35-1.68,2.46-3.75,2.46H391.71c-2.07,0-3.76,1.11-3.76,2.46v27.06c0,1.36,1.69,2.47,3.76,2.47H591.4c2.07,0,3.75,1.1,3.75,2.46v1c0,1.35-1.68,2.46-3.75,2.46H128.13c-2.06,0-3.75-1.11-3.75-2.46V410.16c0-1.35,1.69-2.46,3.75-2.46Z"/><path class="cls-37" d="M377.69,449V410.16c0-1.35,1.69-2.46,3.75-2.46h210c2.07,0,3.75,1.11,3.75,2.46v1c0,1.35-1.68,2.46-3.75,2.46H391.71c-2.07,0-3.76,1.11-3.76,2.46v27.06c0,1.36,1.69,2.47,3.76,2.47H591.4c2.07,0,3.75,1.1,3.75,2.46v1c0,1.35-1.68,2.46-3.75,2.46h-210C379.38,451.5,377.69,450.39,377.69,449Z"/><g class="cls-38"><path class="cls-39" d="M353.7,422.07c1.4,0,2.54-.75,2.54-1.66v-3.33c0-.92-1.14-1.67-2.54-1.67H145.58c-1.4,0-2.54.75-2.54,1.67v3.33c0,.91,1.14,1.66,2.54,1.66Z"/><path class="cls-40" d="M337.13,433.52c1.4,0,2.54-.75,2.54-1.67v-3.33c0-.91-1.14-1.66-2.54-1.66h-175c-1.39,0-2.54.75-2.54,1.66v3.33c0,.92,1.15,1.67,2.54,1.67Z"/><path class="cls-41" d="M353.7,445c1.4,0,2.54-.74,2.54-1.66V440c0-.92-1.14-1.67-2.54-1.67H145.58c-1.4,0-2.54.75-2.54,1.67v3.33c0,.92,1.14,1.66,2.54,1.66Z"/></g><g class="cls-42"><path class="cls-43" d="M579.29,434.73c-1.49,0-2.69.79-2.69,1.77V438c0,1,1.2,1.76,2.69,1.76S582,439,582,438V436.5C582,435.52,580.78,434.73,579.29,434.73Z"/></g><g class="cls-44"><path class="cls-45" d="M579.29,422.56c-1.49,0-2.69.79-2.69,1.77v6.91c0,1,1.2,1.77,2.69,1.77s2.69-.79,2.69-1.77v-6.91C582,423.35,580.78,422.56,579.29,422.56Z"/></g><g class="cls-46"><path class="cls-47" d="M579.29,410.35H566.46c-1.49,0-2.7.79-2.7,1.77s1.21,1.76,2.7,1.76H576.6v5.19c0,1,1.2,1.76,2.69,1.76S582,420,582,419.07v-6.95C582,411.14,580.78,410.35,579.29,410.35Z"/></g><rect class="cls-33" x="508.95" y="234.55" width="144.65" height="31.99"/><rect class="cls-34" x="508.95" y="234.55" width="144.65" height="31.99"/><path class="cls-35" d="M524.78,256.32H653.6v-.89H524.78Zm0-2.67H653.6v-.88H524.78Zm0,10.66H653.6v-.88H524.78Zm0-5.33H653.6v-.88H524.78Zm0-8H653.6v-.89H524.78Zm0,10.66H653.6v-.89H524.78Zm0-13.33H653.6v-.88H524.78Zm0-8H653.6v-.88H524.78Zm0-3.55v.89H653.6v-.89Zm0,8.88H653.6v-.88H524.78Zm0-2.66H653.6v-.88H524.78Z"/><path class="cls-48" d="M657.06,228.65a2.44,2.44,0,0,1,2.41,2.46v1a2.44,2.44,0,0,1-2.41,2.46H528.52a2.44,2.44,0,0,0-2.41,2.46v27.07a2.44,2.44,0,0,0,2.41,2.46H657.06a2.44,2.44,0,0,1,2.41,2.46v1a2.44,2.44,0,0,1-2.41,2.46H358.87a2.45,2.45,0,0,1-2.42-2.46V231.11a2.44,2.44,0,0,1,2.42-2.46Z"/><path class="cls-49" d="M519.5,270V231.11a2.44,2.44,0,0,1,2.42-2.46H657.06a2.44,2.44,0,0,1,2.41,2.46v1a2.44,2.44,0,0,1-2.41,2.46H528.52a2.44,2.44,0,0,0-2.41,2.46v27.07a2.44,2.44,0,0,0,2.41,2.46H657.06a2.44,2.44,0,0,1,2.41,2.46v1a2.44,2.44,0,0,1-2.41,2.46H521.92A2.45,2.45,0,0,1,519.5,270Z"/><path class="cls-28" d="M504.06,243a1.64,1.64,0,0,0,1.63-1.66V238a1.65,1.65,0,0,0-1.63-1.67h-134a1.66,1.66,0,0,0-1.64,1.67v3.33A1.65,1.65,0,0,0,370.1,243Z"/><path class="cls-28" d="M493.39,254.46A1.66,1.66,0,0,0,495,252.8v-3.34a1.66,1.66,0,0,0-1.64-1.66H380.76a1.65,1.65,0,0,0-1.63,1.66v3.34a1.65,1.65,0,0,0,1.63,1.66Z"/><path class="cls-28" d="M504.06,265.91a1.65,1.65,0,0,0,1.63-1.67v-3.33a1.65,1.65,0,0,0-1.63-1.66h-134a1.66,1.66,0,0,0-1.64,1.66v3.33a1.66,1.66,0,0,0,1.64,1.67Z"/><g class="cls-50"><path class="cls-51" d="M649.26,255.68a1.75,1.75,0,0,0-1.73,1.76V259a1.74,1.74,0,1,0,3.47,0v-1.54A1.75,1.75,0,0,0,649.26,255.68Z"/></g><g class="cls-52"><path class="cls-53" d="M649.26,243.5a1.75,1.75,0,0,0-1.73,1.77v6.91a1.74,1.74,0,1,0,3.47,0v-6.91A1.75,1.75,0,0,0,649.26,243.5Z"/></g><g class="cls-54"><path class="cls-55" d="M649.26,231.29H641a1.77,1.77,0,0,0,0,3.53h6.53V240a1.74,1.74,0,1,0,3.47,0v-6.95A1.75,1.75,0,0,0,649.26,231.29Z"/></g><rect class="cls-33" x="177.15" y="375.96" width="167.71" height="26.77"/><rect class="cls-34" x="177.15" y="375.96" width="167.71" height="26.77"/><path class="cls-35" d="M177.15,394.17H344.87v-.74H177.15Zm0-2.23H344.87v-.74H177.15Zm0,8.92H344.87v-.74H177.15Zm0-4.46H344.87v-.74H177.15Zm0-6.69H344.87V389H177.15Zm0,8.92H344.87v-.74H177.15Zm0-11.15H344.87v-.74H177.15Zm0-6.69H344.87v-.74H177.15Zm0-3v.74H344.87v-.74Zm0,7.43H344.87v-.74H177.15Zm0-2.23H344.87v-.74H177.15Z"/><path class="cls-56" d="M172.65,371c-1.73,0-3.14.93-3.14,2.06v.83c0,1.13,1.41,2.06,3.14,2.06H319.39c1.73,0,3.14.92,3.14,2.05v22.65c0,1.14-1.41,2.06-3.14,2.06H172.65c-1.73,0-3.14.93-3.14,2.06v.83c0,1.13,1.41,2.05,3.14,2.05h367.6c1.73,0,3.15-.92,3.15-2.05V373.07c0-1.13-1.42-2.06-3.15-2.06Z"/><path class="cls-57" d="M540.25,371H324.37l6.76,7.18L543.4,389.34V373.07C543.4,371.94,542,371,540.25,371Z"/><path class="cls-58" d="M540.25,371H324.37l6.76,7.18L543.4,389.34V373.07C543.4,371.94,542,371,540.25,371Z"/><path class="cls-28" d="M331.13,405.61V373.07c0-1.13-1.41-2.06-3.14-2.06H172.65c-1.73,0-3.14.93-3.14,2.06v.83c0,1.13,1.41,2.06,3.14,2.06H319.39c1.73,0,3.14.92,3.14,2.05v22.65c0,1.14-1.41,2.06-3.14,2.06H172.65c-1.73,0-3.14.93-3.14,2.06v.83c0,1.13,1.41,2.05,3.14,2.05H328C329.72,407.66,331.13,406.74,331.13,405.61Z"/><g class="cls-59"><path class="cls-60" d="M537.76,393.5c-1.25,0-2.26.66-2.26,1.48v1c0,.82,1,1.48,2.26,1.48S540,396.78,540,396v-1C540,394.16,539,393.5,537.76,393.5Z"/></g><g class="cls-61"><path class="cls-62" d="M537.76,382.14c-1.25,0-2.26.67-2.26,1.48v7c0,.81,1,1.47,2.26,1.47s2.26-.66,2.26-1.47v-7C540,382.81,539,382.14,537.76,382.14Z"/></g><g class="cls-63"><path class="cls-64" d="M537.76,373.23h-5.83c-1.25,0-2.26.66-2.26,1.48s1,1.47,2.26,1.47h3.57v3.1c0,.82,1,1.48,2.26,1.48s2.26-.66,2.26-1.48v-4.57C540,373.89,539,373.23,537.76,373.23Z"/></g><rect class="cls-33" x="220.31" y="321.47" width="169.81" height="44.24"/><rect class="cls-34" x="220.31" y="321.47" width="169.81" height="44.24"/><g class="cls-65"><rect x="220.31" y="332.87" width="162.86" height="0.8"/><rect x="220.31" y="338.77" width="162.86" height="0.8"/><rect x="220.31" y="341.72" width="162.86" height="0.8"/><rect x="220.31" y="344.67" width="162.86" height="0.8"/><rect x="220.31" y="324.02" width="162.86" height="0.8"/><rect x="220.31" y="326.97" width="162.86" height="0.8"/><rect x="220.31" y="329.92" width="162.86" height="0.8"/><rect x="220.31" y="335.82" width="162.86" height="0.8"/><rect x="220.31" y="347.62" width="162.86" height="0.8"/><rect x="220.31" y="350.57" width="162.86" height="0.8"/><rect x="220.31" y="353.52" width="162.86" height="0.8"/><rect x="220.31" y="356.46" width="162.86" height="0.8"/><rect x="220.31" y="359.41" width="162.86" height="0.8"/><rect x="220.31" y="362.36" width="162.86" height="0.8"/></g><path class="cls-66" d="M216.78,316.14a2.36,2.36,0,0,0-2.46,2.22v.89a2.36,2.36,0,0,0,2.46,2.22H370.19a2.36,2.36,0,0,1,2.46,2.23v39.79a2.36,2.36,0,0,1-2.46,2.22H216.78a2.36,2.36,0,0,0-2.46,2.22v.89a2.36,2.36,0,0,0,2.46,2.22H584.24a2.36,2.36,0,0,0,2.46-2.22V318.36a2.36,2.36,0,0,0-2.46-2.22Z"/><path class="cls-67" d="M379.38,368.82V318.36a2.36,2.36,0,0,0-2.47-2.22H216.78a2.36,2.36,0,0,0-2.46,2.22v.89a2.36,2.36,0,0,0,2.46,2.22H370.19a2.36,2.36,0,0,1,2.46,2.23v39.79a2.36,2.36,0,0,1-2.46,2.22H216.78a2.36,2.36,0,0,0-2.46,2.22v.89a2.36,2.36,0,0,0,2.46,2.22H376.91A2.36,2.36,0,0,0,379.38,368.82Z"/><path class="cls-68" d="M398.91,361.93a1.59,1.59,0,0,1-1.66,1.5H389.9a1.59,1.59,0,0,1-1.67-1.5V325.25a1.6,1.6,0,0,1,1.67-1.5h7.35a1.6,1.6,0,0,1,1.66,1.5Z"/><path class="cls-68" d="M417,361.93a1.59,1.59,0,0,1-1.66,1.5H408a1.59,1.59,0,0,1-1.67-1.5V325.25a1.6,1.6,0,0,1,1.67-1.5h7.35a1.6,1.6,0,0,1,1.66,1.5Z"/><path class="cls-68" d="M435,361.93a1.58,1.58,0,0,1-1.66,1.5H426a1.59,1.59,0,0,1-1.67-1.5V325.25a1.6,1.6,0,0,1,1.67-1.5h7.35a1.59,1.59,0,0,1,1.66,1.5Z"/><path class="cls-68" d="M453.1,361.93a1.59,1.59,0,0,1-1.67,1.5h-7.35a1.59,1.59,0,0,1-1.67-1.5V325.25a1.6,1.6,0,0,1,1.67-1.5h7.35a1.6,1.6,0,0,1,1.67,1.5Z"/><path class="cls-68" d="M471.16,361.93a1.59,1.59,0,0,1-1.67,1.5h-7.35a1.58,1.58,0,0,1-1.66-1.5V325.25a1.59,1.59,0,0,1,1.66-1.5h7.35a1.6,1.6,0,0,1,1.67,1.5Z"/><path class="cls-68" d="M489.22,361.93a1.59,1.59,0,0,1-1.67,1.5H480.2a1.59,1.59,0,0,1-1.66-1.5V325.25a1.6,1.6,0,0,1,1.66-1.5h7.35a1.6,1.6,0,0,1,1.67,1.5Z"/><path class="cls-68" d="M507.28,361.93a1.59,1.59,0,0,1-1.67,1.5h-7.35a1.59,1.59,0,0,1-1.66-1.5V325.25a1.6,1.6,0,0,1,1.66-1.5h7.35a1.6,1.6,0,0,1,1.67,1.5Z"/><path class="cls-68" d="M579.52,361.93a1.58,1.58,0,0,1-1.66,1.5h-7.35a1.59,1.59,0,0,1-1.67-1.5V325.25a1.6,1.6,0,0,1,1.67-1.5h7.35a1.59,1.59,0,0,1,1.66,1.5Z"/><path class="cls-68" d="M561.46,361.93a1.59,1.59,0,0,1-1.66,1.5h-7.35a1.59,1.59,0,0,1-1.67-1.5V325.25a1.6,1.6,0,0,1,1.67-1.5h7.35a1.6,1.6,0,0,1,1.66,1.5Z"/><path class="cls-68" d="M525.34,361.93a1.59,1.59,0,0,1-1.66,1.5h-7.35a1.59,1.59,0,0,1-1.67-1.5V325.25a1.6,1.6,0,0,1,1.67-1.5h7.35a1.6,1.6,0,0,1,1.66,1.5Z"/><path class="cls-68" d="M543.4,361.93a1.59,1.59,0,0,1-1.66,1.5h-7.35a1.59,1.59,0,0,1-1.67-1.5V325.25a1.6,1.6,0,0,1,1.67-1.5h7.35a1.6,1.6,0,0,1,1.66,1.5Z"/><rect class="cls-69" x="247.57" y="348.24" width="42.23" height="57.7"/><path class="cls-36" d="M242,347.44h47a.77.77,0,1,1,0,1.54h-9.26a1.89,1.89,0,0,0-2,1.78v51.77c0,1.09-.72,1.37-1.6.61L260,389.19a2.5,2.5,0,0,0-3.18,0l-16.09,13.95c-.87.76-1.59.48-1.59-.61V350A2.71,2.71,0,0,1,242,347.44Z"/><g class="cls-70"><path class="cls-71" d="M241.81,368.67a1.05,1.05,0,0,1,1.1,1V371a1.11,1.11,0,0,1-2.2,0v-1.37A1.05,1.05,0,0,1,241.81,368.67Z"/></g><g class="cls-72"><path class="cls-73" d="M241.81,356.69a1.05,1.05,0,0,1,1.1,1v8.61a1.11,1.11,0,0,1-2.2,0v-8.61A1.05,1.05,0,0,1,241.81,356.69Z"/></g><g class="cls-74"><path class="cls-75" d="M242,348.84h6.69a1,1,0,1,1,0,2h-5.77v3.48a1.11,1.11,0,0,1-2.2,0V350A1.22,1.22,0,0,1,242,348.84Z"/></g><rect class="cls-33" x="287.55" y="278.25" width="185.15" height="31.99"/><rect class="cls-34" x="287.55" y="278.25" width="185.15" height="31.99"/><g class="cls-65"><rect x="287.55" y="280.67" width="173.61" height="0.88"/><rect x="287.55" y="283.53" width="173.61" height="0.88"/><rect x="287.55" y="286.39" width="173.61" height="0.88"/><rect x="287.55" y="289.25" width="173.61" height="0.88"/><rect x="287.55" y="292.11" width="173.61" height="0.88"/><rect x="287.55" y="294.98" width="173.61" height="0.88"/><rect x="287.55" y="297.84" width="173.61" height="0.88"/><rect x="287.55" y="300.7" width="173.61" height="0.88"/><rect x="287.55" y="303.56" width="173.61" height="0.88"/><rect x="287.55" y="306.42" width="173.61" height="0.88"/></g><path class="cls-76" d="M283.22,272.34a2.79,2.79,0,0,0-3,2.46v1a2.79,2.79,0,0,0,3,2.46h165a2.79,2.79,0,0,1,3,2.46v27.06a2.79,2.79,0,0,1-3,2.46h-165a2.79,2.79,0,0,0-3,2.46v1a2.79,2.79,0,0,0,3,2.46H617a2.8,2.8,0,0,0,3-2.46V274.8a2.8,2.8,0,0,0-3-2.46Z"/><path class="cls-77" d="M469.27,310.4a2.5,2.5,0,0,1-2.71-2.2V280.29a2.5,2.5,0,0,1,2.71-2.21h141a2.51,2.51,0,0,1,2.72,2.21V308.2a2.51,2.51,0,0,1-2.72,2.2Z"/><path class="cls-78" d="M617.8,272.44H358.87L459.5,276.6,620,289.36V274.8A2.62,2.62,0,0,0,617.8,272.44Z"/><path class="cls-49" d="M459.5,313.68V274.8a2.8,2.8,0,0,0-3-2.46H283.22a2.79,2.79,0,0,0-3,2.46v1a2.79,2.79,0,0,0,3,2.46h165a2.79,2.79,0,0,1,3,2.46v27.06a2.79,2.79,0,0,1-3,2.46h-165a2.79,2.79,0,0,0-3,2.46v1a2.79,2.79,0,0,0,3,2.46H456.47A2.8,2.8,0,0,0,459.5,313.68Z"/></g><g id="plants"><g id="plant"><path class="cls-79" d="M548.21,361.16c1.45,36.81,24.61,95.89,46.94,89,5.89-1.82-1.67-29.25-23.28-53.38C556.22,379.28,552.13,366.5,548.21,361.16Z"/><path class="cls-77" d="M614.2,445.52c-.14,2.32,32,5.27,46.9-19,11.6-18.91,18.81-20.61,25-24C643.86,401.79,614.55,439.45,614.2,445.52Z"/><path class="cls-80" d="M625.69,395.57c-.2-2,1.81-16.2-.34-27.36-4.4,4.31-20.73,59.91-20.22,68.94.19,3.33-1.76,12.49,5.21,14.14,7.36,1.75,20.93-16,25.74-28.26,15.9-40.5,4.46-38.78,17.72-61.83C648.53,365,628.47,388.32,625.69,395.57Z"/><path class="cls-79" d="M634.18,379.89c-2.67,3.88-3.89,8.46-6.5,12.25-2.1,3.05-1.9,6.9-3.39,9.83-1.61,3.16-4.42,4.79-4.59,9.22-.08,2.07.44,3.79.26,5.67-.24,2.33-1.21,4.48-1.24,7,0,1.74.51,3.41.56,5.07.13,4.65-7.27,12.29-1.34,16.53-.32,3.93.39,5.33,2.42,5.39,4.33.13,4.18-4.29,5-6.72,1-2.8,4.16-4.63,4.47-8.48.15-2-1-4.33-.78-6.14.16-1.35,1.42-2.1,2.14-3.24,1.85-2.94,1.92-6.35,1.73-9.7-.12-2-1.66-5.12-1.42-6.89.46-3.41,3.93-4.28,2.87-9.19-.32-1.49-1.59-3.29-1.55-4.81s1-2.55,1.55-3.94C635.83,387.86,634.23,383.84,634.18,379.89Z"/><path class="cls-81" d="M617.7,436.26c-4.14-.16-9.38,3.75-12.13,8.07,0-2.72.19-5.44.38-8.16,2.94-2.7,8-1.91,10.89-5.39,3.08-3.66,0-7.77-4.37-5.56-2.13,1.06-4.61,4.63-6.26,7.57.15-1.94.36-4.63.52-6.57.14-1.68.25-3.36.34-5,3.37-2.1,10.56-1.94,11.32-7.49.53-3.9-3.33-6.59-6.45-3.42a28.47,28.47,0,0,0-4.71,7c.09-3.13.08-6.24-.05-9.34,3.69-2.9,12.12-2.06,13.76-7.51,1.34-4.45-4.32-5.48-7.55-3.28s-4.77,6-6.27,9.61c-.12-2.32-.31-4.62-.59-6.93,2.78-2.83,8.58-4.74,9.73-9.34s-2.48-9.41-6.78-4.82c-2.26,2.41-3.16,6.14-3.59,9.75q-.63-3.81-1.53-7.56a30.49,30.49,0,0,1,2.72-4.9c1.38-2,3.41-3.9,3.18-6.43-.39-4.36-3.74-2.13-5.25.72a16.66,16.66,0,0,0-1.52,7.21c-.76-2.79-2-7-3-9.71,1.47-4.47,12.53-13.07,4.54-13.62-3.8-.26-5.31,7.21-5.41,11.68-.58-1.47-2-4.88-2.12-5.12,1.32-3.65,7.76-14.91,2.29-15.53-4.35-.5-4.31,6.76-4,10.34,0,.45.08,1.11.13,1.82q-1.56-3.34-3.33-6.65a20.58,20.58,0,0,0,2.48-5c.41-1.34,1.66-7.15-2-5.13-1.38.77-2,4.92-1.8,7.87-.88-1.54-1.8-3.05-2.78-4.52-5.28-11.26-.07-25.5-8.71-24.13-10.24,1.64-7.33,10.08-4.88,13.24a40.43,40.43,0,0,0,11.38,9.69c1,1.63,4.67,8.89,5.13,9.84-4.07-5.05-12.28-15-15.61-9.56-2.95,4.84,11.43,8.59,16.39,11.19,1.35,2.85,4.35,10.23,4.64,11-1.86-2.1-3.4-5.27-5.89-6.72-2.21-1.29-7.43-2.38-7.48.91-.06,4.67,6.68,5.27,10,6.12,2.38.61,3.36,1.69,4,1.49q2,5.63,3.42,11.43c-2.53-4.64-10-14.59-13.63-9.25-4.71,6.88,9.2,7.07,13.88,10.29a120,120,0,0,1,2.23,12l0,.14c-1.63-3.68-2.89-7.42-6.14-10.24-3-2.56-8.31-3.86-8.37,2.19-.05,4.41,7.69,5.25,11.22,7.39,1.57,1,2.71,2.2,3.53,2.72a110.52,110.52,0,0,1,.62,11.35c-6.2-5.42-10.82-21.07-16.34-14-4.87,6.26,10,7.67,16.34,15.29,0,3.46-.16,6.92-.4,10.4a38.76,38.76,0,0,0-3.41-8c-1-1.95-6.35-7.66-8.88-3.42s5.26,7.76,7.61,9.12a11.32,11.32,0,0,1,4.5,4.77c0,.64-.76,8.55-1,11.89-1.52-5.75-14.55-27-20-15.46-3.47,7.41,12.58,9.25,16.18,11.91a8.45,8.45,0,0,1,3.68,5c-.11,1.93-.19,3.86-.2,5.79-3.06-5.38-10.7-15.75-14.79-8-4.84,9.14,8.11,6.81,10.52,8.19,2.09,1.21,4.46,2,4.38,4.93a56.78,56.78,0,0,0,.77,6.77c.28,1.6,2.82,1.06,2.64-.55a92.22,92.22,0,0,1-.48-9.38c3.71-2.17,11.89-2.14,14.4-4.15C623.41,440.28,622.26,436.44,617.7,436.26Z"/><path class="cls-82" d="M554.14,460.13s4.64-13.73,15.39-9.31c0,0,5.37-17.38,18.56-3.79s9.14-15.59,22.29-13,9.23,12.64,9.23,12.64,12.51-6.45,9.8,4.71c0,0,29.53-14.73,30-2.27,0,0,19.79-3.66,16.37,6.6,0,0,11.48-2.93,11.48,4.39Z"/></g><path class="cls-83" d="M164,445.46c1.08-1.25,6.06-3.14,8.15-6.21s9.36-13.77,14.9-11.68-4.79,9.58-7.86,13.33-3.32,14.59-11.43,14.59S161.61,448.23,164,445.46Z"/><path class="cls-84" d="M163.53,417.55s3.89.11,3.52,5.57-1.83,9.54-1.53,12.46,2.95,14.11-2,14.86-10.62-.94-8.15-9S155.6,416,163.53,417.55Z"/><path class="cls-85" d="M162.34,424.06s-3.6,33-3.6,44.35"/><path class="cls-85" d="M159.84,468.41s2.08-20.3,24.65-37.87"/><path class="cls-86" d="M531.43,443.14c.27,1.5-.75,5.61,0,6.91s2.13,4.14.92,6.65-2.72,9.49,5.56,9.7,6.86-9,5.94-10.79a17.35,17.35,0,0,1-2.59-7.24c-.42-3.72-.8-5-5.35-8.45s-5.23-4.1-6.28-2.8S530.89,440.13,531.43,443.14Z"/><path class="cls-87" d="M534.57,444.48s6.71,14.22,2.39,30.37"/><line class="cls-87" x1="537.26" y1="453" x2="533.48" y2="448.96"/><line class="cls-87" x1="538.03" y1="457.53" x2="540.38" y2="453.64"/><line class="cls-87" x1="538.41" y1="463.12" x2="533.65" y2="458.9"/></g><g id="step_2" data-name="step 2"><path class="cls-34" d="M343.86,205.47H257.05V80.55H353.4V197.33C353.4,201.82,349.13,205.47,343.86,205.47Z"/><rect class="cls-77" x="257.02" y="80.55" width="96.19" height="5.8"/><path class="cls-26" d="M329.1,149.25c1.3,0,1.3-1.47,0-1.47H280.82c-1.3,0-1.3,1.47,0,1.47H329.1Z"/><path class="cls-79" d="M303,90.38a25.51,25.51,0,0,0-19.35,8.84L303,116l19.36-16.77A25.53,25.53,0,0,0,303,90.38Z"/><path class="cls-77" d="M330.22,112.23l-25.35,3.65v25.61a25.6,25.6,0,0,0,25.61-25.61A27.39,27.39,0,0,0,330.22,112.23Z"/><path class="cls-26" d="M283.69,99.3a25.61,25.61,0,0,0,3.08,36.09,26.18,26.18,0,0,0,3,2.15l13.55-21.73Z"/><path class="cls-36" d="M303.24,141.45a25.47,25.47,0,0,1-13.84-4.07l13.84-21.54Z"/><path class="cls-68" d="M331.52,110.82a25.43,25.43,0,0,0-6-13.12l-19.35,16.77Z"/><rect class="cls-36" x="268.37" y="177.19" width="9.41" height="22.66"/><rect class="cls-68" x="268.37" y="168.42" width="9.41" height="10.65"/><rect class="cls-36" x="330.31" y="178.22" width="9.41" height="22.66"/><rect class="cls-68" x="330.31" y="159.09" width="9.47" height="21"/><rect class="cls-36" x="309.66" y="176.43" width="9.41" height="23.94"/><rect class="cls-68" x="309.66" y="174.3" width="9.41" height="15.89"/><rect class="cls-36" x="289.02" y="168.09" width="9.41" height="32.15"/><rect class="cls-68" x="289.02" y="155.64" width="9.41" height="25.71"/><path class="cls-26" d="M260.7,85.09a1.24,1.24,0,1,1,1.24-1.23A1.24,1.24,0,0,1,260.7,85.09Zm0-2.26a1,1,0,1,0,1,1A1,1,0,0,0,260.7,82.83Z"/><path class="cls-26" d="M264.51,85.09a1.24,1.24,0,1,1,1.24-1.23A1.23,1.23,0,0,1,264.51,85.09Zm0-2.26a1,1,0,1,0,1,1A1,1,0,0,0,264.51,82.83Z"/><path class="cls-26" d="M268.33,85.09a1.24,1.24,0,1,1,1.24-1.23A1.24,1.24,0,0,1,268.33,85.09Zm0-2.26a1,1,0,1,0,1,1A1,1,0,0,0,268.33,82.83Z"/><path class="cls-36" d="M264.12,118.46H225.77V91.27h35.91l7.69,8.13v13.44A5.45,5.45,0,0,1,264.12,118.46Z"/><polygon class="cls-88" points="269.34 99.46 261.62 99.66 261.62 91.27 269.34 99.46"/><rect class="cls-26" x="236.29" y="98.33" width="24.46" height="1.16"/><rect class="cls-26" x="232.42" y="103.96" width="28.34" height="1.16"/><rect class="cls-26" x="232.42" y="109.59" width="28.34" height="1.16"/></g><g id="step_1" data-name="step 1"><path class="cls-34" d="M220.16,308.21h-72.4V195.8h81.8v103A9.4,9.4,0,0,1,220.16,308.21Z"/><rect class="cls-83" x="156.44" y="204.78" width="66.22" height="41.88"/><path class="cls-26" d="M198.39,219.3a2.77,2.77,0,0,0,1.65,1.36,4.36,4.36,0,0,0,4.9-1.23c1.62-2.34,1.16-5.7,2.9-8.14a5.7,5.7,0,0,1,3-2.15,5.17,5.17,0,0,1,3.85.36,5.54,5.54,0,0,1,2.5,5,59.28,59.28,0,0,1-1.14,11,9.36,9.36,0,0,1-2.07,4.91c-1.71,1.87-4.53,2.65-7.22,3.06-6.83,1-13.82.41-20.71-.24l-16.62-1.55c-1.56-.15-6.16.09-7.1-1s-.19-4.64.34-5.75c1.19-2.46,4.44-3.85,7.5-3.69,6.88.35,4.16-6.84,6.36-10.25a5.47,5.47,0,0,1,6-2.37c2.12.73,3,2.85,4,4.62a3.84,3.84,0,0,0,2.47,2.06c2,.34,3.61-1.67,5.62-1.59a3.4,3.4,0,0,1,2.71,1.78C198.09,216.8,197.85,218.21,198.39,219.3Z"/><path class="cls-68" d="M218.34,244.38V241.2q0-6.75,0-13.49c0-4.3.36-8.6.29-12.88,0-2-.89-3-3-2.49a9.64,9.64,0,0,0-5.23,3.43c-.88,1.14-1.6,2.57-3,3-2.43.82-4.43-1.93-6.61-3.28a6.8,6.8,0,0,0-7.75.58c-2.56,2.16-3.14,5.9-5.31,8.45a8.73,8.73,0,0,1-10,2.21c-1.37-.64-2.55-1.63-3.9-2.31-5.36-2.69-12.82,1.18-13.71,7.11v12.28S218.44,244.49,218.34,244.38Z"/><rect class="cls-36" x="157.52" y="253.04" width="4.98" height="4.98"/><rect class="cls-89" x="157.52" y="260.39" width="4.98" height="4.98"/><rect class="cls-26" x="166.61" y="254.55" width="14.5" height="1.51"/><rect class="cls-26" x="166.4" y="262.56" width="14.5" height="1.51"/><rect class="cls-26" x="158.17" y="273.86" width="63.19" height="1.64"/><rect class="cls-26" x="158.17" y="278.61" width="28.13" height="22.43"/><rect class="cls-26" x="190.64" y="278.83" width="30.73" height="9.77"/><rect class="cls-26" x="190.31" y="291.17" width="30.73" height="9.77"/><rect class="cls-90" x="214.14" y="239.39" width="34.53" height="24.96"/><rect class="cls-26" x="215.32" y="237.94" width="34.76" height="25.04"/><rect class="cls-68" x="215.32" y="237.94" width="34.72" height="1.99"/><path class="cls-91" d="M250,244.24v-.08h-4.27V240h-.07v4.18h-5.12V240h-.08v4.18h-5.11V240h-.08v4.18h-5.11V240h-.08v4.18H225V240h-.07v4.18h-5.12V240h-.08v4.18h-4.26v.08h4.26V249h-4.26v.08h4.26v4.73h-4.26v.08h4.26v4.73h-4.26v.08h4.26v4.4h.08v-4.4h5.12v4.4H225v-4.4h5.12v4.4h.08v-4.4h5.11v4.4h.08v-4.4h5.11v4.4h.08v-4.4h5.12v4.4h.07v-4.4H250v-.08h-4.27v-4.73H250v-.08h-4.27v-4.73H250V249h-4.27v-4.73Zm-9.54,0V249h-5.11v-4.73Zm-10.3,4.81h5.11v4.73h-5.11Zm-.08,4.73H225v-4.73h5.12Zm5.27-4.73h5.11v4.73h-5.11Zm-.08-4.81V249h-5.11v-4.73Zm-5.19,0V249H225v-4.73Zm-10.31,0h5.12V249h-5.12Zm0,4.81h5.12v4.73h-5.12Zm0,9.54v-4.73h5.12v4.73Zm5.19,0v-4.73h5.12v4.73Zm5.2,0v-4.73h5.11v4.73Zm5.19,0v-4.73h5.11v4.73Zm10.31,0h-5.12v-4.73h5.12Zm0-4.81h-5.12v-4.73h5.12Zm0-4.81h-5.12v-4.73h5.12Z"/><path class="cls-92" d="M246.34,243.15a1.06,1.06,0,0,0-1.06,1.06,1,1,0,0,0,.32.75l-3.69,3.18-.28.24a1.08,1.08,0,0,0-.67-.23,1.06,1.06,0,0,0-1.06,1.06,1.07,1.07,0,0,0,.49.89l-.81,1.94-.35.83a1.57,1.57,0,0,0-.24,0,1.06,1.06,0,0,0-.91.53l-3.57-2.25-2.64-1.67a1,1,0,0,0,.08-.39,1.06,1.06,0,1,0-2.12,0,.75.75,0,0,0,0,.21l-5,2-.49.2a1.06,1.06,0,0,0-2,.43,1.09,1.09,0,0,0,.33.77l-.74.84-3.55,4a1.08,1.08,0,0,0-.59-.18,1.06,1.06,0,0,0,0,2.12,1.05,1.05,0,0,0,1.06-1.06,1.08,1.08,0,0,0-.19-.61l3-3.43,1.32-1.49a1.06,1.06,0,0,0,1.46-1v-.05l.07,0,5.47-2.23a1.08,1.08,0,0,0,.9.49,1,1,0,0,0,.77-.34l2.4,1.51,3.89,2.46a.78.78,0,0,0,0,.16,1.06,1.06,0,0,0,2.12,0,1.05,1.05,0,0,0-.46-.88l1.15-2.79a.83.83,0,0,0,.22,0,1.06,1.06,0,0,0,1.06-1.06,1.09,1.09,0,0,0-.14-.54l.65-.56,2.8-2.41.6-.51a1.15,1.15,0,0,0,.41.08,1.06,1.06,0,0,0,0-2.12Z"/><rect class="cls-77" x="147.76" y="195.8" width="81.8" height="4.93"/><path class="cls-26" d="M150.89,199.66a1,1,0,1,1,1.05-1A1.06,1.06,0,0,1,150.89,199.66Zm0-1.93a.88.88,0,1,0,.87.88A.88.88,0,0,0,150.89,197.73Z"/><path class="cls-26" d="M154.13,199.66a1,1,0,1,1,1.05-1A1,1,0,0,1,154.13,199.66Zm0-1.93a.88.88,0,1,0,.88.88A.89.89,0,0,0,154.13,197.73Z"/><path class="cls-26" d="M157.37,199.66a1.05,1.05,0,1,1,1.06-1A1,1,0,0,1,157.37,199.66Zm0-1.93a.88.88,0,1,0,.88.88A.88.88,0,0,0,157.37,197.73Z"/></g><g id="man"><path class="cls-76" d="M138.45,232.37s39.28,63.67,40.72,72.69-17.54,71.4-17.54,71.4h-20s3.4-45.49,5-50.52a98.32,98.32,0,0,1,4.58-11.21l-35.87-38.92s-4.45,3.35-4.58,4.64-14.67,73.91-16,82S75.87,439,75.47,440.78h-20s4.45-59.55,7.2-67.28,5.7-18.56,5.7-25.71-.79-71.15,0-79.85,4.06-23.39,4.06-23.39Z"/><path class="cls-93" d="M72.4,314.34c-.2-10.57,4.78-8.5,4.78-8.5,3.53,1.74,8.9-1.29,10.47-3.87S92,293.59,92,290.43s-4.29-7.6-4.91-9.21-2.1-11-.33-13.28,14-12.8,14-12.8l-5.36-14.83-23,4.24s-3.28,14.7-4.06,23.39c0,.14,0,.28,0,.44s0,.22,0,.34,0,.11,0,.17,0,.3,0,.47v.1c0,1-.09,2.31-.12,3.83h0c-.39,17.93.22,68.2.22,74.5,0,.74,0,1.54-.1,2.35C68.24,350.14,72.59,324.91,72.4,314.34Z"/><path class="cls-93" d="M158.35,312.68c-1.34-.63-5.48-2.53-7.52-2.69-2.46-.19-28.68-40.05-28.68-40.05l-6.87,5.87,35.87,38.92-2,4.4s6.09-5.51,9.62-6.24C160,312.65,159.5,312.59,158.35,312.68Z"/><g id="body"><path class="cls-67" d="M237.93,136s-13.45,3.19-26.22,5.32a95.19,95.19,0,0,0-21.8,6.25s-43.47-16.5-53.29-19.19-23.63,0-23.63,0l-22.75,3.85s-19.15,7.93-27.79,14.69S44.57,201.06,43.59,208.4s2.36,14.69,1.57,22.06,21.41,47.73,21.41,47.73c1.18-4.06,13.55-10.25,13.55-10.25l-2.75-12.56s15.71,1.16,27.89-.82,33.19-22.19,33.19-22.19,1-18,.4-30,3.92-38.86,3.92-38.86S176,171,188.08,170.77s54.17-22.59,54.17-22.59Zm-163,87.34L72.4,234.56s-1.38-11.14-3-13.27S65.72,214,65.72,214l5.43-11.32s4.55,10,4.65,11.85-1.86,6.86-1.86,7.15A8.24,8.24,0,0,0,74.92,223.34Z"/><path class="cls-68" d="M121.69,127.33a75.92,75.92,0,0,0-8.7,1l-14.18,2.4a65,65,0,0,0,9.69,6.89S124.09,136.75,121.69,127.33Z"/><path class="cls-68" d="M188.08,170.77c4.94-.11,14.95-3.93,25-8.4-16.14,7.57-34.47,6.72-43.89,3.37s-28.41-16.11-28.41-16.11a39.63,39.63,0,0,1,2,6.57,35.34,35.34,0,0,1-.06,7.35S176,171,188.08,170.77Z"/><path class="cls-68" d="M79.14,235.85c-.52-8.5,16.76-8.12,16.76-9.92s-21-2.59-21-2.59L72.4,234.56l5,20.82a155.28,155.28,0,0,0,23.4-.24C89.36,253.19,79.63,243.79,79.14,235.85Z"/><path class="cls-68" d="M73.94,221.69a8.24,8.24,0,0,0,1,1.65Z"/><path class="cls-68" d="M73.94,221.69s3.11-5.81,4-6.07,8.64-2.19,6.29-3,4.58-4.51,6.41-6.57S112.4,191.9,112.4,191.9s-11.26,1-16.76.13-11.13-15.46-11.13-15.46L71.15,202.69s4.55,10,4.65,11.85S73.94,221.4,73.94,221.69Z"/><path class="cls-94" d="M237.93,136s3.8-1.06,4.88-1.45,3.63-4.43,6.09-5.76,6.38-5.87,7.75-5.1-2.55,5.9-2.55,5.9,7.66-3.58,8.94-4.06,7.66-3.19,8.83-2.32-7.36,6.38-7.36,6.38a2.82,2.82,0,0,1,.59,3.38,4.07,4.07,0,0,1-1.87,4.64s.69,2.71-.59,3.77-7.95,3.1-11.09,3.87-9.3,2.93-9.3,2.93Z"/><path class="cls-95" d="M255.16,133.15s-1.08,1.73.4,2.46c0,0-1.67,1.89,0,3,0,0-2,2.85-.78,3.72s5-.24,5-.24-4.27,1.49-6.19.57.54-2.26,0-4.92A5.4,5.4,0,0,1,255.16,133.15Z"/><path class="cls-96" d="M80.12,267.94s1,4.64,1.57,5.22,5.63,5.1,5.83,7.09.39,4.64.39,4.64,2.23,2.58,2.16,3.93.26,5.09-.85,5.42a20.29,20.29,0,0,1-4.12.19s-.79,2.45-2.75,2.51c0,0-1.18,2.58-2.23,2.52a5.86,5.86,0,0,1-2-.52s-1.51,1.93-2.56,1.48S69.52,295.53,69,294s1.18-9.66.66-10.44-3.08-5.41-3.08-5.41S67,274.2,80.12,267.94Z"/><path class="cls-95" d="M87.91,284.89v2.26s-2.39-1.32-2.75-2.48-.68-2.42-.68-2.42,0,2.84.45,3.22,2.95,2.68,3.44,2.48.75-1.44.75-1.44Z"/></g><g id="head"><path class="cls-94" d="M124.21,82s.5,13.53,0,20-1.67,13.92-2.94,15-8.84,1.06-8.84,1.06.49,11.31.88,13.83,0,7.05-7.85,5.5a71.1,71.1,0,0,1-15.22-5.12s2.94-18.73,2.94-22.41a57.78,57.78,0,0,1,.3-6.2s-3.83-1.35-4.23-6.67,3.18-6.48,5.54-4C94.79,93,98.09,70.76,124.21,82Z"/><polygon class="cls-95" points="112.43 118.02 106.34 117.19 112.66 122.73 112.43 118.02"/><path class="cls-95" d="M98.47,84.7a3.69,3.69,0,0,0,2.73,2.75c6.45,1.22,6.86-2.58,6.86-2.58,2,.37,2.21-1,2.21-1,3.49,2.23,11,2.24,14.06,2.14-.06-2.42-.12-4.07-.12-4.07C109.71,75.74,102.24,79.83,98.47,84.7Z"/><path class="cls-95" d="M93.48,103.62a2.78,2.78,0,0,0,3.24-.45,3,3,0,0,1-2.49,2s.73,1.68-1,1.31Z"/><path class="cls-76" d="M130.14,66.05s-.52-7.6-7.33-6.31-19.25,6.05-19.25,6.05-.13-1.93-4.26-.9-11.45,6.19-12,9c0,0-1.25-2.77-2.42-.13s-.92,3.81-.92,3.81-4.71,2.9-4.32,6.12,11.19,23.65,13.22,22.55a1.52,1.52,0,0,0,.44.25.5.5,0,0,0,.63-.14c.36-.48-.41-2.75-.41-2.75s-3.83-1.35-4.23-6.67,3.18-6.48,5.54-4c0,0,1.11,3.93,2.62,3.8s3.79-9.34,3.79-9.34,5.74,1.61,6-3.36c0,0,2,.46,1.76-1.86,0,0,10.22,2,15.22-.26S135.7,67.86,130.14,66.05Z"/><path class="cls-97" d="M94.79,93a4.69,4.69,0,0,0-.53-.48Z"/><path class="cls-97" d="M124.21,82c5-2.26,11.49-14.11,5.93-15.92,4.94,4.91-1.51,5.57-4.55,11S109,82.23,109,82.23,119.21,84.22,124.21,82Z"/><path class="cls-97" d="M79.6,83.71c.39,3.22,11.19,23.65,13.22,22.55a1.52,1.52,0,0,0,.44.25.5.5,0,0,0,.63-.14c.36-.48-.41-2.75-.41-2.75s-3.83-1.35-4.23-6.67c-.36-4.93,2.68-6.28,5-4.44-5.05-4.84.62-7.17-4.45-4.55-5.24,2.71-7-3.41-7-3.41-4.5,0-1.57-4.71-1.55-4.74A5.13,5.13,0,0,0,79.6,83.71Z"/></g><path class="cls-96" d="M141.6,376.46l-.79,8.25s-4.19,14.44-4.52,17.59-.85,5.35,0,5.42,44.49,0,53,0a1.42,1.42,0,0,0,1.44-1.45c-.08-2.69-.62-8.31-3.73-9.57-4.12-1.68-27-10.05-27.76-10.76l2.36-9.48Z"/><path class="cls-76" d="M136.29,407.72c.77.06,44.49,0,53,0a1.42,1.42,0,0,0,1.44-1.45c-.08-2.69-.62-8.31-3.73-9.57-4.12-1.68-27-10.05-27.76-10.76,0,0-4.66.8-4.52,1.38s-13.79,1.4-13.94-2.61c0,0-4.19,14.44-4.52,17.59S135.44,407.65,136.29,407.72Z"/><path class="cls-34" d="M136.29,407.72c.77.06,44.49,0,53,0a1.42,1.42,0,0,0,1.44-1.45c-.08-2.69-.62-8.31-3.73-9.57-1.25-.51-4.22-1.63-7.78-3-2.21,2.92-2.89,10.44-2.89,10.44H136.07C135.81,406.29,135.62,407.67,136.29,407.72Z"/><path class="cls-96" d="M55.44,440.78,54.66,449s-4.19,14.44-4.52,17.6-.85,5.35,0,5.41,44.48,0,53,0a1.42,1.42,0,0,0,1.44-1.45c-.08-2.69-.63-8.31-3.73-9.57-4.13-1.67-27-10.05-27.76-10.76l2.35-9.47Z"/><path class="cls-76" d="M50.14,472c.77.06,44.48,0,53,0a1.42,1.42,0,0,0,1.44-1.45c-.08-2.69-.63-8.31-3.73-9.57-4.13-1.67-27-10.05-27.76-10.76,0,0-4.67.8-4.52,1.38S54.8,453,54.66,449c0,0-4.19,14.44-4.52,17.6S49.29,472,50.14,472Z"/><path class="cls-34" d="M50.14,472c.77.06,44.48,0,53,0a1.42,1.42,0,0,0,1.44-1.45c-.08-2.69-.63-8.31-3.73-9.57-1.25-.51-4.23-1.63-7.78-3-2.22,2.92-2.9,10.45-2.9,10.45H49.92C49.65,470.6,49.47,472,50.14,472Z"/></g><g id="step_3" data-name="step 3"><path class="cls-34" d="M491.34,170.76H404.52V45.85h96.36V162.62C500.88,167.12,496.61,170.76,491.34,170.76Z"/><rect class="cls-77" x="404.61" y="45.85" width="96.19" height="5.8"/><path class="cls-26" d="M408.28,50.39a1.24,1.24,0,1,1,1.24-1.24A1.25,1.25,0,0,1,408.28,50.39Zm0-2.27a1,1,0,1,0,1,1A1,1,0,0,0,408.28,48.12Z"/><path class="cls-26" d="M412.1,50.39a1.24,1.24,0,1,1,1.23-1.24A1.24,1.24,0,0,1,412.1,50.39Zm0-2.27a1,1,0,1,0,1,1A1,1,0,0,0,412.1,48.12Z"/><path class="cls-26" d="M415.91,50.39a1.24,1.24,0,1,1,1.24-1.24A1.25,1.25,0,0,1,415.91,50.39Zm0-2.27a1,1,0,1,0,1,1A1,1,0,0,0,415.91,48.12Z"/><rect class="cls-26" x="411.62" y="59.18" width="39.87" height="2.93"/><rect class="cls-26" x="411.62" y="67.74" width="39.87" height="2.93"/><rect class="cls-26" x="411.62" y="76.3" width="39.87" height="2.93"/><rect class="cls-26" x="411.62" y="84.86" width="39.87" height="2.93"/><rect class="cls-26" x="411.62" y="93.43" width="39.87" height="2.93"/><rect class="cls-26" x="411.62" y="101.99" width="39.87" height="2.93"/><rect class="cls-26" x="453.91" y="112.4" width="39.87" height="2.93"/><rect class="cls-26" x="453.91" y="121.08" width="39.87" height="2.93"/><rect class="cls-26" x="453.91" y="129.77" width="39.87" height="2.93"/><rect class="cls-26" x="453.91" y="138.45" width="39.87" height="2.93"/><rect class="cls-26" x="453.91" y="147.13" width="39.87" height="2.93"/><rect class="cls-26" x="453.91" y="155.81" width="39.87" height="2.93"/><path class="cls-36" d="M447.44,135.51a15.58,15.58,0,0,0-15.53-14.74h-.53v5.29l.53,0a10.29,10.29,0,0,1,10.24,9.46h-1.46l3.91,4.35,4-4.35Z"/><path class="cls-83" d="M435.38,123.68l-4.81-4.42v1.57a15.57,15.57,0,0,0-14.21,15.26h5.28a10.28,10.28,0,0,1,8.95-10V128Z"/><path class="cls-77" d="M447.46,136.74l-2.86,3.12-2.43-2.73c-.18,3.86-2.41,6.34-5.58,8.33h0a10.15,10.15,0,0,1-4.68,1.14,10.3,10.3,0,0,1-10.27-10h1.86l-4.34-4.79-4.41,4.82h1.61A15.53,15.53,0,0,0,440.86,149l.14-.1a.71.71,0,0,0,.14-.1h0A15.93,15.93,0,0,0,447.46,136.74Z"/><rect class="cls-68" x="461.42" y="80.76" width="1.97" height="17.4"/><rect class="cls-98" x="464.65" y="80.76" width="1.97" height="17.4"/><rect class="cls-68" x="467.88" y="80.76" width="1.97" height="17.4"/><rect class="cls-99" x="471.11" y="79.74" width="1.97" height="18.41"/><rect class="cls-68" x="474.34" y="79.74" width="1.97" height="18.41"/><rect class="cls-100" x="477.57" y="78.49" width="1.97" height="19.67"/><rect class="cls-68" x="480.8" y="77.05" width="1.97" height="21.1"/><rect class="cls-101" x="484.02" y="74.48" width="1.97" height="23.68"/><rect class="cls-68" x="487.25" y="70.54" width="1.97" height="27.62"/><path class="cls-77" d="M492.53,71.94,492,65.35l-6.53,2.22,2.73,1.7c-3.38,5-9,8.34-16.64,9.9a48.87,48.87,0,0,1-12.27.83v2.49c.11,0,1.23.11,3,.11a50.32,50.32,0,0,0,9.68-.95c8.3-1.69,14.59-5.49,18.34-11.06Z"/><rect class="cls-77" x="459.85" y="97.07" width="30.16" height="1.68"/></g></g></g></g></svg>