<svg width="720" height="504" viewBox="0 0 720 504" fill="none" xmlns="http://www.w3.org/2000/svg">
<path d="M249.8 448.4C249.8 448.4 250.9 472 249.8 473C248.7 474 217.5 474 217.5 473C217.5 472 228.7 448.4 228.7 448.4H249.8Z" fill="#403880"/>
<path d="M249.8 473C250.1 472.8 250.2 470.9 250.2 468.3C250.2 465.7 245.9 458.1 236.5 458.3C224.9 458.5 220.2 469.4 220.2 469.4H219C218.425 470.567 217.924 471.77 217.5 473C217.5 474 248.7 474 249.8 473Z" fill="#E0E6EE"/>
<path d="M241.2 255.8C241.2 255.8 237.8 335.5 235.5 347.8C233.2 360.1 230.2 368.6 229.2 384C228.2 399.4 228.7 448.4 228.7 448.4C228.7 448.4 241.4 453.8 249.8 448.4C249.8 448.4 261.5 364.8 263.3 353.2C265.1 341.6 273.3 309.6 273.3 309.6V253.2L241.2 255.8Z" fill="#403882"/>
<path d="M249.8 448.4C249.8 448.4 261.5 364.8 263.3 353.2C265.1 341.6 273.3 309.6 273.3 309.6V253.2L241.2 255.8C241.2 255.8 241.1 258.7 240.8 263.4C246 277 261.5 319.4 260 332C258.1 347.2 258.4 366.5 253.4 368.3C248.4 370.1 246.5 371.9 250.9 378.7C255.3 385.5 245.3 450.5 228.7 448.4C228.7 448.4 241.4 453.8 249.8 448.4Z" fill="#232059"/>
<path d="M227.3 153.5C227.3 153.5 205.6 176 208.5 187.8C211.4 199.6 229.2 236.7 238.6 239.9L241.2 255.8C241.2 255.8 267.3 262.9 287.3 253.2C307.3 243.5 270.4 148.6 270.4 148.6L247.9 147.5L227.3 153.5Z" fill="#FFC861"/>
<path d="M265.6 159.2C271.5 164.1 262.5 188.3 256.4 192.9C250.3 197.5 236.7 188.8 236.7 188.8L245.7 223.2L289.6 210C283.1 181.1 270.4 148.6 270.4 148.6L247.9 147.5L246.5 147.9L248.2 150.5C248.2 150.5 259.8 154.3 265.6 159.2Z" fill="#D17E2C"/>
<path d="M238.6 239.9L241.2 255.8C241.2 255.8 260.8 261.1 279.1 256.2V199.9L238.6 239.9Z" fill="#D17E2C"/>
<path d="M250.6 112.1C250.6 112.1 254.9 108.2 252.3 107.6C249.7 107 249.6 109.6 250.6 112.1Z" fill="#1E194F"/>
<path d="M250.2 107.6C250.2 107.6 254.7 129.6 254.7 138.3C254.8 142.4 247 142.6 247 142.6C247 142.6 247.7 146.3 248.1 148.6C248.5 150.9 248.5 156.6 242.1 157.6C235.7 158.6 227.3 153.5 227.3 153.5C227.3 153.5 225.9 136.4 225.3 134.5C224.7 132.6 218.5 116.7 226.4 112.5C234.3 108.3 250.2 107.6 250.2 107.6Z" fill="#F49C80"/>
<path d="M230.4 129.1C230.669 129.37 231.014 129.552 231.388 129.623C231.763 129.695 232.15 129.652 232.5 129.5C232.261 129.874 231.909 130.162 231.496 130.324C231.083 130.485 230.629 130.512 230.2 130.4C228.8 129.8 230.2 129.1 230.2 129.1" fill="#CF7A62"/>
<path d="M236.8 134.7C236.8 134.7 238.1 145.3 238.6 146C239.1 146.7 244.8 150.1 248.2 150.5C248.222 149.865 248.188 149.229 248.1 148.6C247.7 146.3 247 142.6 247 142.6H247.8C245.3 138.4 241.1 134.2 236.8 134.7Z" fill="#CF7A62"/>
<path d="M235.9 119.7C235.9 119.7 240.3 133.5 242.5 132.7C244.7 131.9 249.5 126.4 253.6 127.3C255.5 127.7 259.1 140.8 258 142.4C256.9 144 245.8 147.8 239 143.3L233.6 122.1C233.6 122.1 230.6 118.5 228 120.2C225.4 121.9 228.4 127.6 230.4 129.1C230.4 129.1 230.6 135.4 225.7 136.8C225.7 136.8 216.9 122.1 216.7 119C216.7 119 215.4 120.2 215.2 118C215.052 116.559 215.405 115.111 216.2 113.9C216.2 113.9 216.7 108.9 217.5 108.8C218.3 108.7 218.5 109.7 218.5 109.7C218.5 109.7 227 100.1 231.8 99.2999C236.6 98.4999 233.1 100.8 233.1 100.8C233.1 100.8 242.9 94.8999 253.2 96.5999C259.1 97.5999 252.6 109.2 249.5 110.1C246.4 111 237 113.2 237 113.2C237 113.2 240 114.6 235.9 119.7Z" fill="#403880"/>
<path d="M223.2 122C218.7 125.9 216.7 119 216.7 119C216.9 122.1 225.7 136.8 225.7 136.8C230.6 135.4 230.4 129.1 230.4 129.1C230.4 129.1 226.9 124.7 227 122.3C224.1 125.4 223.2 122 223.2 122Z" fill="#1E194F"/>
<path d="M572.5 368.1C571 406 547.2 466.8 524.2 459.7C518.1 457.8 525.9 429.6 548.1 404.8C564.2 386.8 568.5 373.6 572.5 368.1Z" fill="#FD835A"/>
<path d="M504.5 455C504.7 457.4 471.6 460.4 456.3 435.4C444.3 415.9 436.9 414.2 430.5 410.7C474 410 504.2 448.7 504.5 455Z" fill="#201851"/>
<path d="M492.7 403.5C492.9 401.5 490.8 386.9 493.1 375.4C497.6 379.8 514.4 437.1 513.9 446.4C513.7 449.8 515.7 459.2 508.5 460.9C501.3 462.6 487 444.4 482 431.8C465.6 390.1 477.4 391.9 463.8 368.2C469.2 372.1 489.9 396.1 492.7 403.5Z" fill="#413B89"/>
<path d="M484 387.4C486.7 391.4 488 396.1 490.7 400C493.4 403.9 492.6 407.1 494.2 410.1C495.8 413.1 498.7 415.1 498.9 419.6C499 421.8 498.4 423.5 498.6 425.5C498.8 427.5 499.9 430.1 499.9 432.6C499.9 435.1 499.4 436.2 499.3 437.9C499.2 442.7 506.8 450.5 500.7 454.9C501 458.9 500.3 460.4 498.2 460.4C493.7 460.6 493.9 456 493 453.5C492.1 451 488.7 448.7 488.4 444.8C488.3 442.7 489.5 440.3 489.2 438.5C488.9 436.7 487.8 436.3 487 435.1C485.1 432.1 485 428.6 485.2 425.1C485.4 423.1 487 419.9 486.7 418C486.2 414.5 482.7 413.6 483.7 408.6C484.1 407 485.4 405.2 485.4 403.6C485.4 402 484.3 401 483.7 399.6C482.3 395.6 483.9 391.5 484 387.4Z" fill="#FD835A"/>
<path d="M500.9 445.4C505.2 445.3 510.6 449.3 513.4 453.8C513.4 451 513.2 448.2 513 445.4C510 442.6 504.8 443.4 501.8 439.8C498.8 436.2 501.8 431.8 506.3 434.1C508.5 435.2 511.1 438.8 512.8 441.9C512.6 439.9 512.4 437.1 512.2 435.1L511.9 429.9C508.4 427.8 501 427.9 500.2 422.2C499.7 418.2 503.7 415.4 506.9 418.7C508.873 420.829 510.493 423.26 511.7 425.9C511.6 422.7 511.6 419.5 511.8 416.3C508 413.3 499.3 414.2 497.6 408.6C495.9 403 502.1 402.9 505.4 405.2C508.7 407.5 510.3 411.4 511.8 415.1L512.4 407.9C509.6 405 503.6 403.1 502.4 398.3C501.2 393.5 505 388.6 509.4 393.4C511.7 395.8 512.7 399.7 513.1 403.4C513.5 400.8 514.1 398.2 514.7 395.6C513.873 393.876 512.938 392.206 511.9 390.6C510.5 388.5 508.4 386.5 508.6 383.9C509 379.5 512.5 381.8 514 384.7C515.058 387.023 515.603 389.547 515.6 392.1C516.4 389.2 517.6 384.9 518.6 382.1C517.1 377.5 505.7 368.7 514 368.1C517.9 367.8 519.4 375.5 519.5 380.1L521.7 374.8C520.4 371.1 513.7 359.5 519.4 358.8C525.1 358.1 523.8 365.8 523.4 369.5C523.409 370.135 523.376 370.77 523.3 371.4C524.4 369.1 525.5 366.8 526.7 364.5C525.631 362.89 524.79 361.14 524.2 359.3C523.8 358 522.5 352 526.2 354.1C527.6 354.8 528.2 359.1 528.1 362.2C529 360.6 529.9 359 530.9 357.5C536.4 345.9 531 331.2 539.9 332.7C550.4 334.3 547.4 343 544.9 346.3C541.648 350.324 537.681 353.714 533.2 356.3C532.2 357.9 528.4 365.4 527.9 366.4C532.1 361.2 540.6 350.9 544 356.6C547.4 362.3 532.2 365.4 527.1 368.1C525.7 371 522.6 378.6 522.3 379.4C524.2 377.2 525.8 374 528.4 372.5C531 371 536.1 370 536.1 373.4C536.1 376.8 529.2 378.8 525.8 379.7C522.4 380.6 522.4 381.5 521.7 381.3C520.29 385.132 519.088 389.038 518.1 393C520.8 388.2 528.4 378 532.2 383.5C537 390.6 522.7 390.8 517.9 394.1C516.893 398.151 516.124 402.258 515.6 406.4V406.6C517.2 402.8 518.5 399 521.9 396C525.3 393 530.4 392.1 530.5 398.3C530.6 402.8 522.6 403.7 519 405.9C517.3 406.9 516.2 408.2 515.3 408.7C514.901 412.587 514.7 416.492 514.7 420.4C521.1 414.8 525.8 398.7 531.5 406C537.2 413.3 521.2 413.9 514.7 421.8C514.7 425.3 514.9 428.9 515.1 432.5C515.973 429.618 517.146 426.836 518.6 424.2C519.6 422.2 525.2 416.3 527.8 420.7C530.4 425.1 522.3 428.7 519.9 430.1C517.905 431.229 516.301 432.938 515.3 435C515.3 435.7 516.1 443.8 516.3 447.2C517.9 441.3 531.3 419.4 536.8 431.3C540.4 439 523.9 440.9 520.2 443.6C518.308 444.776 516.945 446.64 516.4 448.8C516.5 450.8 516.6 452.7 516.6 454.7C519.8 449.2 527.6 438.5 531.8 446.5C536 454.5 523.5 453.5 521 454.9C518.5 456.3 516.4 457 516.5 460C516.382 462.348 516.114 464.686 515.7 467C515.4 468.6 512.8 468 513 466.4C513.3 463.2 513.5 459.9 513.5 456.7C509.6 454.5 501.2 454.5 498.6 452.5C496 450.5 496.2 445.6 500.9 445.4Z" fill="url(#paint0_linear)"/>
<path d="M566.4 470C566.4 470 561.6 455.9 550.5 460.4C550.5 460.4 545 442.5 531.4 456.5C517.8 470.5 522 440.5 508.5 443.2C495 445.9 499 456.2 499 456.2C499 456.2 486.1 449.5 488.9 461C488.9 461 458.5 445.9 458 458.7C458 458.7 437.6 454.9 441.1 465.5C441.1 465.5 429.3 462.5 429.3 470H566.4Z" fill="url(#paint1_linear)"/>
<path d="M495 56.3999H291C279.6 56.3999 270.4 64.7999 270.4 75.2999V451.6C270.4 462 279.6 470.4 291 470.4H495C506.3 470.4 515.6 462 515.6 451.6V75.2999C515.6 64.7999 506.3 56.3999 495 56.3999ZM502.7 439.9C502.7 449.8 494.4 457.8 484.2 457.8H301.8C291.5 457.8 283.3 449.8 283.3 439.9V89.4999C283.3 69.2999 291.5 68.3999 301.8 68.3999H338.3C340.4 68.3999 342.2 70.4999 342.2 73.1999V74.3999C342.2 80.5999 346 80.6999 350.7 80.6999H435.2C440 80.6999 443.8 80.5999 443.8 74.3999V73.1999C443.8 70.4999 445.5 68.3999 447.7 68.3999H484.2C494.4 68.3999 502.7 70.9999 502.7 89.4999V439.9Z" fill="#201851"/>
<path d="M502.7 89.4999V439.9C502.7 449.8 494.4 457.8 484.2 457.8H301.8C291.5 457.8 283.3 449.8 283.3 439.9V89.4999C283.3 69.2999 291.5 68.3999 301.8 68.3999H338.3C340.4 68.3999 342.2 70.4999 342.2 73.1999V74.3999C342.2 80.5999 346 80.6999 350.7 80.6999H435.2C440 80.6999 443.8 80.5999 443.8 74.3999V73.1999C443.8 70.4999 445.5 68.3999 447.7 68.3999H484.2C494.4 68.3999 502.7 70.9999 502.7 89.4999Z" fill="#E3E3E3"/>
<path d="M406.8 72.7998H386.2C385.855 72.7998 385.524 72.6629 385.281 72.4191C385.037 72.1753 384.9 71.8446 384.9 71.4998C384.899 71.3335 384.933 71.1688 385 71.0163C385.066 70.8638 385.164 70.7267 385.286 70.6139C385.408 70.501 385.553 70.4149 385.71 70.3608C385.867 70.3067 386.034 70.286 386.2 70.2998H406.8C406.966 70.286 407.133 70.3067 407.29 70.3608C407.447 70.4149 407.592 70.501 407.714 70.6139C407.836 70.7267 407.934 70.8638 408 71.0163C408.066 71.1688 408.101 71.3335 408.1 71.4998V71.4998C408.1 71.8446 407.963 72.1753 407.719 72.4191C407.475 72.6629 407.145 72.7998 406.8 72.7998V72.7998Z" fill="white"/>
<path d="M463 122.1L330.1 121.8C326.908 121.774 323.856 120.487 321.609 118.221C319.361 115.954 318.1 112.892 318.1 109.7V105.2C318.126 102.008 319.413 98.9561 321.679 96.7085C323.946 94.4609 327.008 93.1998 330.2 93.2L463.1 93.5C466.284 93.552 469.321 94.8467 471.563 97.1075C473.805 99.3683 475.074 102.416 475.1 105.6V110.1C475.074 113.292 473.787 116.344 471.521 118.591C469.255 120.839 466.192 122.1 463 122.1V122.1Z" fill="#F5F5F5"/>
<path d="M463 122.1H463.9C464.783 122.035 465.656 121.867 466.5 121.6C467.868 121.194 469.154 120.551 470.3 119.7C471.828 118.455 473.059 116.883 473.9 115.1C474.363 114.051 474.666 112.939 474.8 111.8C474.935 110.538 474.968 109.267 474.9 108C474.967 106.599 474.933 105.196 474.8 103.8C474.523 102.315 473.981 100.893 473.2 99.5998C472.359 98.1667 471.217 96.9329 469.853 95.9835C468.489 95.034 466.936 94.3914 465.3 94.0998C463.512 93.8476 461.705 93.7473 459.9 93.7998H454.1L330.2 93.5998C327.235 93.5728 324.373 94.682 322.2 96.6998C320.056 98.6905 318.706 101.39 318.4 104.3C318.3 105.8 318.4 107.3 318.4 108.7C318.281 110.146 318.416 111.601 318.8 113C319.573 115.724 321.316 118.072 323.7 119.6C324.857 120.385 326.143 120.961 327.5 121.3C328.851 121.553 330.226 121.653 331.6 121.6H356L411.7 121.9H331.6C330.16 121.949 328.719 121.848 327.3 121.6C325.879 121.267 324.526 120.692 323.3 119.9C320.819 118.272 319.036 115.775 318.3 112.9C317.887 111.472 317.718 109.984 317.8 108.5C317.8 107 317.8 105.6 317.9 104.1C318.127 101.032 319.523 98.168 321.8 96.0998C324.081 93.9752 327.083 92.7957 330.2 92.7998L454.1 93.1998H459.9C461.738 93.15 463.578 93.2503 465.4 93.4998C467.074 93.8307 468.659 94.509 470.055 95.4908C471.45 96.4727 472.623 97.7362 473.5 99.1998C474.251 100.543 474.79 101.993 475.1 103.5C475.232 104.929 475.266 106.366 475.2 107.8C475.268 109.067 475.235 110.338 475.1 111.6C474.9 112.768 474.565 113.909 474.1 115C473.28 116.824 472.006 118.408 470.4 119.6C469.231 120.473 467.908 121.117 466.5 121.5C465.656 121.767 464.783 121.935 463.9 122L463 122.1Z" fill="#201851"/>
<path d="M465.5 107.1C465.4 107.1 465.4 106.7 465.2 105.9C464.931 104.792 464.252 103.827 463.3 103.2C462.573 102.637 461.704 102.29 460.79 102.199C459.876 102.107 458.954 102.274 458.131 102.68C457.307 103.087 456.614 103.717 456.131 104.498C455.648 105.28 455.395 106.181 455.4 107.1C455.413 108.098 455.724 109.07 456.295 109.89C456.865 110.71 457.668 111.34 458.6 111.7C459.372 111.996 460.205 112.097 461.025 111.992C461.846 111.887 462.627 111.581 463.3 111.1C464.181 110.403 464.841 109.465 465.2 108.4C465.4 107.6 465.4 107.1 465.5 107.1V107.5C465.507 107.803 465.473 108.106 465.4 108.4C465.303 109.003 465.085 109.579 464.758 110.095C464.431 110.611 464.003 111.055 463.5 111.4C462.793 111.966 461.95 112.337 461.056 112.477C460.161 112.618 459.246 112.522 458.4 112.2C457.344 111.821 456.433 111.123 455.792 110.203C455.151 109.283 454.813 108.186 454.824 107.064C454.835 105.943 455.195 104.853 455.853 103.945C456.512 103.038 457.437 102.358 458.5 102C459.356 101.701 460.274 101.627 461.167 101.785C462.06 101.942 462.898 102.326 463.6 102.9C464.089 103.25 464.501 103.697 464.811 104.213C465.12 104.729 465.321 105.303 465.4 105.9C465.473 106.194 465.507 106.497 465.5 106.8V107.1Z" fill="#201851"/>
<path d="M468.3 116.1C467.357 115.461 466.515 114.686 465.8 113.8C464.5 112.4 463.6 111.2 463.7 111C464.634 111.688 465.475 112.494 466.2 113.4C467.066 114.157 467.779 115.074 468.3 116.1V116.1Z" fill="#201851"/>
<path d="M332.1 76.0999L331.7 76.4999L331.5 76.6999C331.075 76.2528 330.563 75.8979 329.995 75.6571C329.428 75.4162 328.817 75.2947 328.2 75.2999C326.963 75.333 325.784 75.8331 324.9 76.6999C324.9 76.6468 324.879 76.5959 324.841 76.5584C324.804 76.5209 324.753 76.4999 324.7 76.4999L324.4 76.0999L324.9 75.6999L325.9 75.0999L327.2 74.5999H328.9C329.318 74.6056 329.729 74.7083 330.1 74.8999C330.393 74.9711 330.667 75.1078 330.9 75.2999L331.7 75.7999L332.1 76.0999Z" fill="#201851"/>
<path d="M326 77.7L325.5 77.2C326.081 76.5864 326.86 76.197 327.7 76.1C328.298 75.9988 328.912 76.0461 329.487 76.238C330.063 76.4298 330.582 76.7601 331 77.2L330.4 77.7C330.118 77.403 329.776 77.1693 329.396 77.0142C329.017 76.8591 328.609 76.7861 328.2 76.8C327.792 76.7979 327.388 76.8763 327.01 77.0307C326.633 77.1852 326.289 77.4126 326 77.7V77.7Z" fill="#201851"/>
<path d="M329.9 78.3L329.4 78.8C329.238 78.6552 329.048 78.5451 328.841 78.4763C328.635 78.4076 328.417 78.3816 328.2 78.4C327.999 78.3895 327.798 78.4195 327.609 78.4882C327.42 78.557 327.247 78.663 327.1 78.8C326.9 78.6 326.7 78.5 326.6 78.3C326.814 78.0792 327.071 77.9037 327.354 77.7839C327.638 77.664 327.942 77.6023 328.25 77.6023C328.558 77.6023 328.862 77.664 329.146 77.7839C329.429 77.9037 329.686 78.0792 329.9 78.3V78.3Z" fill="#201851"/>
<path d="M328.7 79.2998C328.7 79.4324 328.647 79.5596 328.553 79.6534C328.459 79.7471 328.332 79.7998 328.2 79.7998C328.067 79.7998 327.94 79.7471 327.846 79.6534C327.752 79.5596 327.7 79.4324 327.7 79.2998C327.7 79.1672 327.752 79.04 327.846 78.9463C327.94 78.8525 328.067 78.7998 328.2 78.7998C328.332 78.7998 328.459 78.8525 328.553 78.9463C328.647 79.04 328.7 79.1672 328.7 79.2998Z" fill="#201851"/>
<path d="M298.7 77.1998C298.7 76.8285 298.847 76.4724 299.11 76.2099C299.372 75.9473 299.728 75.7998 300.1 75.7998C300.471 75.7998 300.827 75.9473 301.09 76.2099C301.352 76.4724 301.5 76.8285 301.5 77.1998C301.5 77.5711 301.352 77.9272 301.09 78.1898C300.827 78.4523 300.471 78.5998 300.1 78.5998C299.728 78.5998 299.372 78.4523 299.11 78.1898C298.847 77.9272 298.7 77.5711 298.7 77.1998V77.1998Z" fill="#201851"/>
<path d="M303.1 77.1998C303.1 76.8285 303.248 76.4724 303.51 76.2099C303.773 75.9473 304.129 75.7998 304.5 75.7998C304.871 75.7998 305.228 75.9473 305.49 76.2099C305.753 76.4724 305.9 76.8285 305.9 77.1998C305.9 77.5711 305.753 77.9272 305.49 78.1898C305.228 78.4523 304.871 78.5998 304.5 78.5998C304.129 78.5998 303.773 78.4523 303.51 78.1898C303.248 77.9272 303.1 77.5711 303.1 77.1998V77.1998Z" fill="#201851"/>
<path d="M307.6 77.1998C307.6 77.0159 307.636 76.8339 307.707 76.664C307.777 76.4942 307.88 76.3399 308.01 76.2099C308.14 76.0799 308.294 75.9767 308.464 75.9064C308.634 75.836 308.816 75.7998 309 75.7998C309.184 75.7998 309.366 75.836 309.536 75.9064C309.706 75.9767 309.86 76.0799 309.99 76.2099C310.12 76.3399 310.223 76.4942 310.294 76.664C310.364 76.8339 310.4 77.0159 310.4 77.1998C310.377 77.5634 310.222 77.906 309.964 78.1636C309.706 78.4212 309.364 78.5763 309 78.5998C308.816 78.5998 308.634 78.5636 308.464 78.4932C308.294 78.4229 308.14 78.3198 308.01 78.1898C307.88 78.0597 307.777 77.9054 307.707 77.7356C307.636 77.5657 307.6 77.3836 307.6 77.1998V77.1998Z" fill="#201851"/>
<path d="M312 77.1998C312 76.8285 312.148 76.4724 312.41 76.2099C312.673 75.9473 313.029 75.7998 313.4 75.7998C313.771 75.7998 314.127 75.9473 314.39 76.2099C314.653 76.4724 314.8 76.8285 314.8 77.1998C314.8 77.5711 314.653 77.9272 314.39 78.1898C314.127 78.4523 313.771 78.5998 313.4 78.5998C313.029 78.5998 312.673 78.4523 312.41 78.1898C312.148 77.9272 312 77.5711 312 77.1998V77.1998Z" fill="#201851"/>
<path d="M316.4 77.1998C316.425 76.8196 316.595 76.4632 316.873 76.2032C317.152 75.9432 317.519 75.799 317.9 75.7998C318.084 75.7998 318.266 75.836 318.436 75.9064C318.606 75.9767 318.76 76.0799 318.89 76.2099C319.02 76.3399 319.123 76.4942 319.193 76.6641C319.264 76.8339 319.3 77.016 319.3 77.1998C319.276 77.5634 319.121 77.906 318.864 78.1636C318.606 78.4212 318.263 78.5763 317.9 78.5998C317.519 78.6007 317.152 78.4564 316.873 78.1964C316.595 77.9364 316.425 77.58 316.4 77.1998V77.1998Z" fill="#201851"/>
<path d="M487.4 80.1999H476V74.8999H487.4V80.1999ZM476.6 79.6999H486.9V75.4999H476.6V79.6999Z" fill="#201851"/>
<path d="M484.3 75.7998H476.9V79.3098H484.3V75.7998Z" fill="#201851"/>
<path d="M488.5 76.2H487.5V79.05H488.5V76.2Z" fill="#201851"/>
<path d="M502.8 435.7H283L283.3 137.3H502.8V435.7Z" fill="#BDC2C6"/>
<path d="M418.7 165.4C419.444 165.394 420.185 165.495 420.9 165.7V165.7C423.1 165.9 424.9 168 427.3 167.6C429.7 167.2 429.4 164.4 429.5 162.8V137.3H356.3V161.7C356.3 161.7 356.2 167.2 358.5 167.6C360.8 168 362.8 165.9 364.9 165.7H365C365.679 165.487 366.388 165.386 367.1 165.4C368.229 165.413 369.345 165.648 370.384 166.093C371.422 166.537 372.363 167.181 373.152 167.989C373.941 168.797 374.564 169.753 374.984 170.801C375.404 171.849 375.613 172.97 375.6 174.1C375.613 175.224 375.403 176.34 374.982 177.383C374.561 178.426 373.937 179.375 373.146 180.175C372.355 180.975 371.414 181.61 370.376 182.043C369.338 182.477 368.225 182.7 367.1 182.7L365 182.5H364.9C362.8 182.2 360.9 180.1 358.5 180.5C356.1 180.9 356.3 186.4 356.3 186.4V211.9H429.5V185.3C429.4 183.7 429 180.8 427.3 180.5C425.6 180.2 423.1 182.2 420.9 182.5L418.7 182.7C417.575 182.7 416.462 182.477 415.424 182.043C414.386 181.61 413.445 180.975 412.654 180.175C411.863 179.375 411.239 178.426 410.818 177.383C410.397 176.34 410.187 175.224 410.2 174.1C410.187 172.97 410.396 171.849 410.816 170.801C411.236 169.753 411.859 168.797 412.648 167.989C413.437 167.181 414.378 166.537 415.416 166.093C416.455 165.648 417.571 165.413 418.7 165.4V165.4Z" fill="url(#paint2_linear)"/>
<path d="M418.8 241.1C419.51 241.101 420.217 241.202 420.9 241.4V241.4C423.1 241.6 424.9 243.7 427.3 243.3C429.7 242.9 429.5 238.8 429.5 237.7V211.9H502.8V286.5H478.6C477 286.4 474.2 286 473.9 284.2C473.6 282.4 475.6 279.9 475.9 277.7C476.016 277.006 476.083 276.304 476.1 275.6C476.1 273.346 475.204 271.184 473.61 269.59C472.016 267.995 469.854 267.1 467.6 267.1C465.346 267.1 463.184 267.995 461.589 269.59C459.995 271.184 459.1 273.346 459.1 275.6C459.101 276.31 459.202 277.017 459.4 277.7V277.7C459.7 279.9 461.7 281.8 461.3 284.2C460.9 286.6 458.2 286.4 456.6 286.5H429.5V261.9C429.5 260.7 429.3 256.6 427.3 256.2C425.3 255.8 423.1 257.9 420.9 258.2L418.8 258.4C416.666 258.17 414.692 257.16 413.258 255.563C411.824 253.966 411.031 251.896 411.031 249.75C411.031 247.604 411.824 245.533 413.258 243.937C414.692 242.34 416.666 241.33 418.8 241.1V241.1Z" fill="#F45662"/>
<path d="M440.3 315.4C439.588 315.386 438.879 315.487 438.2 315.7H438.1C436 316 434.1 318 431.8 317.6C429.5 317.2 429.6 314.5 429.5 312.9V286.5H455.8C456.9 286.5 461 286.3 461.3 284.2C461.6 282.1 459.7 279.9 459.4 277.7C459.196 276.985 459.095 276.244 459.1 275.5C458.97 274.299 459.094 273.085 459.465 271.936C459.835 270.786 460.443 269.728 461.25 268.829C462.056 267.931 463.043 267.212 464.146 266.72C465.249 266.228 466.443 265.974 467.65 265.974C468.857 265.974 470.051 266.228 471.154 266.72C472.257 267.212 473.244 267.931 474.05 268.829C474.857 269.728 475.465 270.786 475.835 271.936C476.206 273.085 476.33 274.299 476.2 275.5C476.205 276.244 476.104 276.985 475.9 277.7V277.7C475.6 279.9 473.5 281.8 474 284.2C474.5 286.6 478.4 286.5 479.5 286.5H502.8V361.1H479.2C477.6 361.2 474.8 361.7 474.5 363.4C474.2 365.1 476.2 367.7 476.4 369.9C476.604 370.615 476.705 371.356 476.7 372.1C476.7 374.354 475.804 376.516 474.21 378.11C472.616 379.704 470.454 380.6 468.2 380.6C465.946 380.6 463.784 379.704 462.19 378.11C460.596 376.516 459.7 374.354 459.7 372.1C459.695 371.356 459.796 370.615 460 369.9V369.9C460.2 367.7 462.3 365.8 461.9 363.4C461.5 361 458.8 361.2 457.2 361.1H429.5V336.5C429.6 334.9 430.1 330.8 431.8 330.5C433.5 330.2 436 332.2 438.1 332.5H438.2L440.3 332.7C441.425 332.7 442.538 332.477 443.576 332.043C444.614 331.61 445.555 330.975 446.346 330.175C447.137 329.375 447.761 328.426 448.182 327.383C448.603 326.341 448.813 325.225 448.8 324.1C448.813 322.97 448.604 321.85 448.184 320.801C447.764 319.753 447.141 318.797 446.352 317.989C445.563 317.181 444.622 316.537 443.584 316.093C442.545 315.648 441.429 315.413 440.3 315.4V315.4Z" fill="url(#paint3_linear)"/>
<path d="M345.5 315.4C346.212 315.386 346.921 315.487 347.6 315.7H347.7C349.8 316 351.7 318 354 317.6C356.3 317.2 356.2 314.5 356.3 312.9V286.5H330.1C329 286.5 324.9 286.3 324.5 284.2C324.1 282.1 326.2 279.9 326.4 277.7C326.604 276.985 326.705 276.244 326.7 275.5C326.7 273.246 325.804 271.084 324.21 269.49C322.616 267.896 320.454 267 318.2 267C315.946 267 313.784 267.896 312.19 269.49C310.596 271.084 309.7 273.246 309.7 275.5C309.695 276.244 309.796 276.985 310 277.7C310.2 279.9 312.3 281.8 311.9 284.2C311.5 286.6 307.4 286.5 306.3 286.5H283V361.1H306.6C308.2 361.2 311 361.7 311.3 363.4C311.6 365.1 309.7 367.7 309.4 369.9C309.196 370.615 309.095 371.356 309.1 372.1C309.1 374.354 309.996 376.516 311.59 378.11C313.184 379.704 315.346 380.6 317.6 380.6C319.854 380.6 322.016 379.704 323.61 378.11C325.204 376.516 326.1 374.354 326.1 372.1C326.088 371.363 326.021 370.627 325.9 369.9C325.6 367.7 323.5 365.8 323.9 363.4C324.3 361 327 361.2 328.7 361.1H356.3V336.5C356.2 334.9 355.7 330.8 354 330.5C352.3 330.2 349.8 332.2 347.7 332.5H347.6L345.5 332.7C344.375 332.7 343.262 332.477 342.224 332.044C341.186 331.61 340.245 330.975 339.454 330.175C338.663 329.375 338.039 328.426 337.618 327.384C337.197 326.341 336.987 325.225 337 324.1C336.987 322.971 337.196 321.85 337.616 320.801C338.036 319.753 338.659 318.797 339.448 317.989C340.237 317.182 341.178 316.537 342.216 316.093C343.255 315.648 344.371 315.413 345.5 315.4V315.4Z" fill="#403880"/>
<path d="M345.5 315.4C346.244 315.394 346.985 315.495 347.7 315.7C349.8 315.9 351.7 318 354.1 317.6C356.5 317.2 356.2 314.5 356.3 312.8V286.5H382.6C383.8 286.5 387.7 286.2 388 284.2C388.3 282.2 386.4 279.9 386.1 277.7C385.896 276.985 385.795 276.244 385.8 275.5C385.67 274.299 385.794 273.085 386.165 271.936C386.535 270.786 387.143 269.728 387.95 268.829C388.756 267.931 389.743 267.212 390.846 266.72C391.949 266.228 393.143 265.974 394.35 265.974C395.558 265.974 396.752 266.228 397.854 266.72C398.957 267.212 399.944 267.931 400.75 268.829C401.557 269.728 402.165 270.786 402.535 271.936C402.906 273.085 403.03 274.299 402.9 275.5C402.905 276.244 402.804 276.985 402.6 277.7V277.7C402.3 279.9 400.3 281.8 400.7 284.2C401.1 286.6 404.1 286.4 405.7 286.5H429.5V312.4C429.6 313.9 430 317.1 431.8 317.5C433.6 317.9 436 315.8 438.1 315.5H438.2C438.883 315.302 439.589 315.201 440.3 315.2C442.607 315.2 444.82 316.116 446.452 317.748C448.083 319.38 449 321.592 449 323.9C449 326.207 448.083 328.42 446.452 330.052C444.82 331.683 442.607 332.6 440.3 332.6C439.589 332.599 438.883 332.498 438.2 332.3H438.1C436 332 434.2 329.9 431.8 330.3C429.4 330.7 429.6 335.1 429.5 336.7V361.1H405.9C404.3 361.2 401.5 361.7 401.2 363.4C400.9 365.1 402.9 367.7 403.2 369.9C403.321 370.627 403.388 371.363 403.4 372.1C403.4 374.354 402.505 376.516 400.91 378.11C399.316 379.704 397.154 380.6 394.9 380.6C392.646 380.6 390.484 379.704 388.89 378.11C387.296 376.516 386.4 374.354 386.4 372.1C386.395 371.356 386.496 370.615 386.7 369.9V369.9C387 367.7 389 365.8 388.6 363.4C388.2 361 385.5 361.2 383.9 361.1H356.3V336.5C356.2 334.9 355.7 330.8 354.1 330.5C352.5 330.2 349.8 332.2 347.7 332.5L345.5 332.7C343.366 332.47 341.393 331.46 339.959 329.863C338.525 328.266 337.731 326.196 337.731 324.05C337.731 321.904 338.525 319.833 339.959 318.237C341.393 316.64 343.366 315.63 345.5 315.4Z" fill="#FD835A"/>
<path d="M358.5 256.1C360.9 255.7 362.7 257.8 364.9 258.1C365.582 258.298 366.289 258.399 367 258.4C369.307 258.4 371.52 257.483 373.152 255.852C374.783 254.22 375.7 252.007 375.7 249.7C375.7 247.393 374.783 245.18 373.152 243.548C371.52 241.917 369.307 241 367 241L364.9 241.3C362.7 241.6 360.9 243.7 358.5 243.3C356.1 242.9 356.4 240 356.3 238.4V211.9H429.5V237.4C429.5 237.4 429.6 242.9 427.2 243.4C424.8 243.9 423 241.7 420.9 241.4H420.8C420.121 241.187 419.411 241.086 418.7 241.1C416.392 241.1 414.18 242.017 412.548 243.648C410.916 245.28 410 247.493 410 249.8C410 252.107 410.916 254.32 412.548 255.952C414.18 257.583 416.392 258.5 418.7 258.5C419.411 258.514 420.121 258.412 420.8 258.2H420.9C423 257.9 424.9 255.8 427.2 256.2C429.5 256.6 429.5 262.2 429.5 262.2V286.7H405.4C403.8 286.6 401 286.2 400.7 284.4C400.4 282.6 402.4 280.1 402.6 277.9C402.798 277.217 402.898 276.51 402.9 275.8C402.9 273.546 402.004 271.384 400.41 269.789C398.816 268.195 396.654 267.3 394.4 267.3C392.145 267.3 389.983 268.195 388.389 269.789C386.795 271.384 385.9 273.546 385.9 275.8C385.901 276.51 386.002 277.217 386.2 277.9C386.4 280.1 388.5 282 388.1 284.4C387.7 286.8 385 286.6 383.4 286.7H356.3V261C356.4 259.4 356.8 256.4 358.5 256.1Z" fill="#403880"/>
<path d="M367 406.5C366.289 406.499 365.583 406.398 364.9 406.2V406.2C362.7 406 360.9 403.9 358.5 404.3C356.1 404.7 356.3 408.8 356.3 409.9V435.7H283V361.1H306.6C308.2 361.2 311 361.7 311.3 363.4C311.6 365.1 309.6 367.7 309.3 369.9C309.179 370.627 309.113 371.363 309.1 372.1C309.1 374.354 309.996 376.516 311.59 378.11C313.184 379.704 315.346 380.6 317.6 380.6C319.854 380.6 322.016 379.704 323.61 378.11C325.204 376.516 326.1 374.354 326.1 372.1C326.105 371.356 326.004 370.615 325.8 369.9V369.9C325.6 367.7 323.5 365.8 323.9 363.4C324.3 361 327 361.2 328.6 361.1H356.3V385.8C356.3 386.9 356.5 391.1 358.5 391.4C360.5 391.7 362.7 389.7 364.9 389.5C365.583 389.302 366.289 389.201 367 389.2C369.134 389.43 371.107 390.44 372.541 392.037C373.975 393.633 374.769 395.704 374.769 397.85C374.769 399.996 373.975 402.066 372.541 403.663C371.107 405.26 369.134 406.27 367 406.5V406.5Z" fill="#F45662"/>
<path d="M418.8 406.5C419.51 406.499 420.217 406.398 420.9 406.2C423.1 406 424.9 403.9 427.3 404.3C429.7 404.7 429.5 408.8 429.5 409.9V435.7H502.8V361.1H479.2C477.6 361.2 474.8 361.7 474.6 363.4C474.4 365.1 476.2 367.7 476.5 369.9C476.704 370.615 476.805 371.356 476.8 372.1C476.93 373.3 476.806 374.515 476.435 375.664C476.065 376.813 475.457 377.872 474.65 378.77C473.843 379.669 472.857 380.388 471.754 380.88C470.651 381.372 469.457 381.626 468.25 381.626C467.042 381.626 465.848 381.372 464.746 380.88C463.643 380.388 462.656 379.669 461.85 378.77C461.043 377.872 460.435 376.813 460.064 375.664C459.694 374.515 459.57 373.3 459.7 372.1C459.694 371.356 459.795 370.615 460 369.9V369.9C460.3 367.7 462.3 365.8 461.9 363.4C461.5 361 458.8 361.2 457.2 361.1H429.5V385.8C429.5 386.9 429.3 391.1 427.3 391.4C425.3 391.7 423.1 389.7 420.9 389.5C420.217 389.302 419.51 389.201 418.8 389.2C416.666 389.43 414.692 390.44 413.258 392.037C411.824 393.633 411.031 395.704 411.031 397.85C411.031 399.996 411.824 402.066 413.258 403.663C414.692 405.26 416.666 406.27 418.8 406.5V406.5Z" fill="url(#paint4_linear)"/>
<path d="M427.3 391.5C424.9 391.9 423.1 389.8 420.9 389.5C420.185 389.295 419.444 389.194 418.7 389.2C416.393 389.2 414.18 390.116 412.548 391.748C410.917 393.38 410 395.592 410 397.9C410 400.207 410.917 402.42 412.548 404.052C414.18 405.683 416.393 406.6 418.7 406.6C419.444 406.605 420.185 406.504 420.9 406.3V406.3C423.1 406 424.9 403.9 427.3 404.3C429.7 404.7 429.4 407.6 429.5 409.2V435.7H356.3V410.2C356.3 410.2 356.2 404.7 358.5 404.2C360.8 403.7 362.8 405.9 364.9 406.2H365C365.679 406.412 366.388 406.514 367.1 406.5C369.407 406.5 371.62 405.583 373.252 403.952C374.883 402.32 375.8 400.107 375.8 397.8C375.8 395.492 374.883 393.28 373.252 391.648C371.62 390.016 369.407 389.1 367.1 389.1C366.388 389.086 365.679 389.187 365 389.4H364.9C362.8 389.7 360.9 391.8 358.5 391.4C356.1 391 356.3 385.4 356.3 385.4V361.1H383.9C385.5 361.2 388.3 361.7 388.6 363.4C388.9 365.1 387 367.7 386.7 369.9C386.496 370.615 386.395 371.356 386.4 372.1C386.4 374.354 387.296 376.516 388.89 378.11C390.484 379.704 392.646 380.6 394.9 380.6C397.154 380.6 399.316 379.704 400.91 378.11C402.504 376.516 403.4 374.354 403.4 372.1C403.387 371.363 403.321 370.627 403.2 369.9C402.9 367.7 400.8 365.8 401.2 363.4C401.6 361 404.3 361.2 405.9 361.1H429.5V386.6C429.4 388.3 429 391.2 427.3 391.5Z" fill="url(#paint5_linear)"/>
<path opacity="0.15" d="M429.5 137.3L310.6 435.7L335.8 435.8L456.5 137.3H429.5Z" fill="white"/>
<path opacity="0.15" d="M356.3 435.7L476.2 137.3H502.8L383.4 435.8L356.3 435.7Z" fill="white"/>
<g style="mix-blend-mode:multiply" opacity="0.2">
<g style="mix-blend-mode:multiply" opacity="0.2">
<path d="M475.8 183.3V208C475.8 209.1 475.6 213.2 473.5 213.6C471.4 214 469.3 211.9 467.2 211.6H467.1L465 211.4C463.875 211.4 462.762 211.623 461.724 212.057C460.686 212.49 459.745 213.125 458.954 213.925C458.163 214.725 457.539 215.674 457.118 216.717C456.697 217.759 456.487 218.875 456.5 220C456.487 221.129 456.696 222.25 457.116 223.299C457.536 224.347 458.159 225.303 458.948 226.111C459.737 226.919 460.678 227.563 461.717 228.007C462.755 228.452 463.871 228.687 465 228.7C465.711 228.706 466.419 228.605 467.1 228.4H467.2C469.3 228.2 471.1 226.1 473.5 226.5C475.9 226.9 475.8 231 475.8 232.1V257.9H515.6V183.3H475.8Z" fill="black"/>
</g>
<g style="mix-blend-mode:multiply" opacity="0.2">
<path d="M298.5 197.9L360.4 158.8L346.6 137C346 136 343.9 132.4 345.5 131C347.1 129.6 350 130.2 351.9 129.2H352C352.669 128.983 353.308 128.68 353.9 128.3C355.591 126.964 356.725 125.048 357.085 122.924C357.444 120.799 357.002 118.617 355.844 116.8C354.686 114.982 352.896 113.659 350.818 113.087C348.741 112.514 346.525 112.732 344.6 113.7C344.001 114.045 343.461 114.484 343 115H342.9C341.3 116.4 340.9 119.2 338.6 120.1C336.3 121 334.3 117.5 333.7 116.5L320.5 95.7L297.1 110.5L278.5 122.3L270.4 127.4V153.4L285.2 176.8L270.4 187.4V293.3H285.5V268.7C285.5 267.5 285.7 263.4 287.7 263C289.7 262.6 292 264.7 294.1 265C294.825 265.156 295.56 265.256 296.3 265.3C298.607 265.3 300.82 264.383 302.452 262.752C304.083 261.12 305 258.907 305 256.6C305 254.293 304.083 252.08 302.452 250.448C300.82 248.817 298.607 247.9 296.3 247.9C295.556 247.895 294.815 247.996 294.1 248.2V248.2C292 248.5 290.1 250.6 287.7 250.1C285.3 249.6 285.5 245.6 285.5 244.5V218.7H274.2L292.6 188.6L298.5 197.9Z" fill="black"/>
</g>
</g>
<path d="M346.6 108.7C346.001 109.045 345.461 109.484 345 110H344.9C343.3 111.4 342.9 114.2 340.6 115.1C338.3 116 336.3 112.5 335.7 111.5L322.5 90.7L299.1 105.5L280.5 117.3L260.6 129.8L300.5 192.9L362.4 153.8L348.6 132C348 131 345.9 127.4 347.5 126C349.1 124.6 352 125.2 353.9 124.2H354C354.669 123.983 355.308 123.68 355.9 123.3C357.591 121.964 358.726 120.048 359.085 117.924C359.444 115.799 359.002 113.617 357.844 111.8C356.687 109.982 354.896 108.659 352.818 108.087C350.741 107.514 348.525 107.732 346.6 108.7V108.7Z" fill="#F45662"/>
<path d="M236.7 188.8L248.2 208.1L274.3 181.6C274.3 181.6 283.7 187.5 285.2 192.9C285.2 192.9 254.2 245.8 238.6 239.9C223 234 236.7 188.8 236.7 188.8Z" fill="#FFC861"/>
<g style="mix-blend-mode:multiply" opacity="0.2">
<path d="M300.6 166.1C300.629 165.999 300.636 165.892 300.618 165.788C300.601 165.685 300.561 165.586 300.5 165.5C300.28 165.155 299.968 164.878 299.6 164.7L300.6 161.3C300.635 161.207 300.634 161.104 300.597 161.011C300.56 160.919 300.489 160.843 300.4 160.8C299.959 160.396 299.396 160.15 298.8 160.1L299.1 158.9C299.134 158.849 299.156 158.791 299.164 158.731C299.172 158.67 299.166 158.609 299.147 158.551C299.128 158.493 299.095 158.44 299.052 158.397C299.01 158.353 298.957 158.32 298.9 158.3C297 157.2 296.1 158.2 296.1 158.2C295.197 157.863 294.203 157.863 293.3 158.2C292 158.9 289.6 166.6 289.6 166.6L285.8 169.7L293.6 182C295.3 180 296.8 178.1 297.3 177.4C297.8 176.7 300.2 167.8 300.6 166.1Z" fill="black"/>
</g>
<path d="M274.3 181.6L277.8 177.5C277.8 177.5 278.7 168.8 279.7 167.4C280.7 166 282.4 164.3 282.4 164.3L284.7 168L289.6 164C289.6 164 292 156.3 293.3 155.7C293.74 155.501 294.217 155.398 294.7 155.398C295.183 155.398 295.66 155.501 296.1 155.7C296.1 155.7 297 154.6 298.9 155.7C298.997 155.761 299.07 155.855 299.107 155.964C299.143 156.074 299.141 156.192 299.1 156.3L298.8 157.6C299.093 157.588 299.386 157.635 299.66 157.738C299.935 157.841 300.187 157.998 300.4 158.2C300.497 158.261 300.57 158.355 300.607 158.464C300.643 158.574 300.641 158.692 300.6 158.8L299.6 162.2C299.968 162.378 300.28 162.655 300.5 163C300.561 163.086 300.601 163.185 300.618 163.288C300.636 163.392 300.629 163.499 300.6 163.6C300.2 165.3 298 173.6 297.3 174.8C296.6 176 290.7 182.8 289.6 184.9L285.2 192.9L274.3 181.6Z" fill="#F49C80"/>
<path d="M475.8 174.4V199C475.8 200.2 475.6 204.3 473.5 204.7C471.4 205.1 469.3 203 467.2 202.7H467.1C466.419 202.495 465.711 202.394 465 202.4C462.692 202.4 460.48 203.317 458.848 204.948C457.216 206.58 456.3 208.793 456.3 211.1C456.3 213.407 457.216 215.62 458.848 217.252C460.48 218.883 462.692 219.8 465 219.8C465.711 219.806 466.419 219.705 467.1 219.5H467.2C469.3 219.2 471.1 217.1 473.5 217.6C475.9 218.1 475.8 222.1 475.8 223.2V249H549V174.4H475.8Z" fill="url(#paint6_linear)"/>
<g style="mix-blend-mode:multiply" opacity="0.2">
<path d="M508.9 244.8C508.9 244.8 507.2 246.8 514.4 246.7C519.126 246.731 523.817 247.507 528.3 249H532.9L549 238.2V228.1L508.9 244.8Z" fill="black"/>
</g>
<path d="M577.7 115C577.7 115 586.1 144.6 589.1 144.9C591.46 144.892 593.799 144.452 596 143.6L598.9 153.2L621.7 150.4L613.5 130.2C613.5 130.2 614.2 105.6 599.7 105.3C595.545 105.203 591.421 106.021 587.618 107.698C583.816 109.374 580.43 111.867 577.7 115Z" fill="#F49C80"/>
<path d="M589.1 144.9C591.46 144.892 593.798 144.452 596 143.6L595.2 139.7C594.7 142.7 589.1 144.9 589.1 144.9Z" fill="#CF7A62"/>
<path d="M596.5 128C596.5 128 598.2 128.2 599 125.3L599.7 127.4C599.7 127.4 597.6 128.6 596.5 128Z" fill="#CF7A62"/>
<path d="M593.3 121.1C593.3 121.1 595.3 117.9 597.3 118.3C599.3 118.7 599.9 122.2 599 125.3C598.1 128.4 598.9 128.6 599.5 129.3C600.865 130.611 602.3 131.846 603.8 133C603.8 133 611.1 132.9 613.5 130.2C613.5 130.2 616.2 112.8 615.8 111.9C615.4 111 614.1 108.8 614.1 108.8C614.1 108.8 616.1 108.2 615.4 107.5C614.558 106.816 613.654 106.214 612.7 105.7C612.7 105.7 611.2 102 610.6 102C610 102 609.6 102.7 609.6 102.7C609.016 101.809 608.233 101.066 607.314 100.528C606.394 99.9901 605.362 99.6725 604.3 99.6C600.7 99.3 591.8 100 588 99.3C584.2 98.6 580.2 98 579.9 98.7C579.735 99.3564 579.735 100.044 579.9 100.7C579.9 100.7 573.4 99.9 572.9 101.4C572.4 102.9 573.3 106.7 573.3 106.7C573.3 106.7 569.9 106.2 570.5 109.7C571.1 113.2 575.8 117.3 580.4 116.8L585.5 116.1C585.5 116.1 587.3 119.3 589.7 119C589.7 119 591.6 124 592.3 123.5C593 123 593.3 121.1 593.3 121.1Z" fill="#403880"/>
<path d="M595.3 122.1C595.3 122.1 595.9 120.9 596.7 121.1C597.5 121.3 597.4 123.9 596.2 124.5C595 125.1 597 122.1 596.1 122.3C595.2 122.5 595.3 122.1 595.3 122.1Z" fill="#CF7A62"/>
<path d="M599.5 129.3C600.865 130.611 602.3 131.846 603.8 133C603.8 133 611.1 132.9 613.5 130.2C613.5 130.2 616.2 112.8 615.8 111.9C615.5 123.8 611 127.1 607.6 128.2C604.2 129.3 598.9 128.6 599.5 129.3Z" fill="#1E194F"/>
<path d="M636.8 448.9C636.8 448.9 628.8 449.2 627.3 451C625.8 452.8 618.7 452.9 617.3 451.5C617 454 604 460.5 599.3 462.1C594.6 463.7 593.7 472 593.9 472.7C594.1 473.4 631.399 472.1 638.099 471.9C638.227 471.901 638.352 471.875 638.469 471.823C638.585 471.772 638.689 471.696 638.774 471.602C638.859 471.508 638.923 471.396 638.962 471.275C639.001 471.154 639.014 471.026 639 470.9C638.983 470.099 639.016 469.297 639.099 468.5C639.099 467 636.8 448.9 636.8 448.9Z" fill="#403880"/>
<path d="M627.3 451C628.8 449.2 636.8 448.9 636.8 448.9V442.1L617.2 445.8V451.5C618.7 452.9 625.9 452.9 627.3 451Z" fill="#F49C80"/>
<path d="M593.9 472.7C594.1 473.3 631.399 472.1 638.099 471.9C638.227 471.901 638.352 471.875 638.469 471.823C638.585 471.772 638.689 471.697 638.774 471.602C638.859 471.508 638.923 471.396 638.962 471.275C639.001 471.154 639.014 471.026 639 470.9C638.983 470.099 639.016 469.297 639.099 468.5L607.7 469.4C607.4 461.4 609.2 457.6 609.2 457.6C605.982 459.275 602.677 460.777 599.3 462.1C594.6 463.6 593.7 472 593.9 472.7Z" fill="#DFE5ED"/>
<path d="M537.5 452.1C537.7 451.4 534.8 450.4 534.8 450.4C532.6 453.8 519.4 458.8 512.9 460.9C507.9 462.5 506.3 468.7 505.8 471.5C505.752 471.667 505.745 471.843 505.779 472.013C505.812 472.184 505.886 472.344 505.993 472.48C506.1 472.617 506.238 472.726 506.396 472.799C506.554 472.872 506.726 472.907 506.9 472.9H555.4C555.557 472.9 555.713 472.869 555.859 472.809C556.005 472.748 556.137 472.66 556.248 472.548C556.36 472.437 556.448 472.305 556.508 472.159C556.569 472.014 556.6 471.858 556.6 471.7V453.1C549.4 453.1 551.4 455 548.5 455.5C545.6 456 537.4 452.7 537.5 452.1Z" fill="#403880"/>
<path d="M536.6 445.6L534.8 450.4C534.8 450.4 537.7 451.4 537.5 452.1C537.3 452.8 545.5 456 548.5 455.5C551.5 455 549.4 453.1 556.6 453.1L558.3 446.8L536.6 445.6Z" fill="#F49C80"/>
<path d="M505.8 471.5C505.752 471.667 505.745 471.843 505.779 472.013C505.812 472.184 505.886 472.344 505.993 472.48C506.1 472.617 506.238 472.726 506.396 472.799C506.554 472.872 506.726 472.907 506.9 472.9H555.4C555.557 472.9 555.713 472.869 555.859 472.809C556.005 472.748 556.137 472.66 556.248 472.549C556.36 472.437 556.448 472.305 556.508 472.159C556.569 472.014 556.6 471.858 556.6 471.7V469.5H521.3L522.2 457.5C518.8 458.9 515.4 460.1 512.9 460.9C507.9 462.5 506.3 468.7 505.8 471.5Z" fill="#DFE5ED"/>
<path d="M632.9 246.7C632.9 246.7 637.9 266.6 634.8 279.6C631.7 292.6 633.5 341.3 634.3 346.4C635.1 351.5 639.9 364 638.9 380.7C637.9 397.4 636.8 442.1 636.8 442.1C636.8 442.1 624.7 451.7 617.2 445.8C617.2 445.8 607.6 349 607 341.7C606.4 334.4 602.3 308.3 602.3 308.3C602.3 308.3 587.3 344.3 585.7 355.2C584.1 366.1 579.5 392.2 571.6 409.6C566.366 421.699 561.924 434.125 558.3 446.8C558.3 446.8 543.7 453.7 536.6 445.6C536.6 445.6 555.6 351.5 559.1 338.6C562.6 325.7 580.2 252.1 580.2 252.1L632.9 246.7Z" fill="#403880"/>
<path d="M602.3 308.3L609.4 289.3L619.4 285C619.4 285 612.5 292.2 612.5 297.7C612.5 303.2 607.7 348.8 607.7 348.8L602.3 308.3Z" fill="#232059"/>
<path d="M533.5 228.1L526.6 234.2C526.6 234.2 518 235.2 516.5 235.6C515 236 510.2 243.2 509 244.2C507.8 245.2 511.6 246.6 513.1 244.9L508.8 249H506.2C506.2 249 509 251.7 509.9 251.6C510.8 251.5 514.4 250.4 514.4 250.4C514.4 250.4 516.3 252 517.4 251.6C518.5 251.2 519.5 249.7 520.6 250.2C521.7 250.7 523.8 249.4 524.5 249.7C525.138 249.934 525.827 249.992 526.495 249.869C527.164 249.746 527.787 249.446 528.3 249C529.6 247.7 540.9 239.9 540.9 239.9L533.5 228.1Z" fill="#F49C80"/>
<path d="M558.6 192.4L551.8 186.4C551.8 186.4 547 186.5 545.2 184.6C543.4 182.7 537.9 178.5 537.7 177.7C537.5 176.9 539.8 175.9 540.3 176C541.95 176.618 543.554 177.353 545.1 178.2L540.9 174.4H533.8C533.8 174.4 539.9 170.6 541 170.8L542.7 171.1C542.7 171.1 550.2 170.5 551.7 171.5C553.2 172.5 557.8 177.8 557.8 177.8L566.5 181.6L558.6 192.4Z" fill="#F49C80"/>
<path d="M558.6 192.4C558.6 192.4 557.5 182.7 563.9 180.5L585.9 189.8L577.7 208.1L558.6 192.4Z" fill="#094080"/>
<path d="M607.6 148.2C613.9 147 622.9 145.3 625.8 148.2C628.7 151.1 639.3 169.8 638.3 178.4C637.3 187 631.7 235.9 631.7 238.4C631.921 241.189 632.322 243.962 632.9 246.7C632.9 246.7 618.8 255.5 605.9 255.5C597.232 255.341 588.61 254.201 580.2 252.1L577.7 216.7L540.9 239.9C540.9 239.9 533.1 233.5 533.5 228.1L559.2 203C559.2 203 584.1 162.8 588 158.2C591.9 153.6 603.1 149.1 607.6 148.2Z" fill="#1150BE"/>
<path d="M577.7 216.7L605.5 182.7L578.8 231.1L577.7 216.7Z" fill="#094080"/>
<path d="M137.8 213.4C137.8 213.4 141.1 204.3 130.7 204.5C120.3 204.7 118.2 213.6 116.6 217.6C115 221.6 121.6 228 128.4 224.6C135.2 221.2 137.8 213.4 137.8 213.4Z" fill="#403880"/>
<path d="M125.5 205.4C119.5 207.9 117.9 214.4 116.6 217.6C115.3 220.8 121.6 228 128.4 224.6C129.315 224.149 130.185 223.613 131 223L129.4 222.8C111.6 221.3 125.3 205.7 125.5 205.4Z" fill="#1E194F"/>
<path d="M139.6 214.3C139.6 214.3 136.8 211.6 132.8 215.2C128.8 218.8 126.8 224 128.5 225.7C130.2 227.4 139.6 214.3 139.6 214.3Z" fill="#F45662"/>
<path d="M160.8 219.9C160.8 219.9 164.2 220.4 160.4 225.9C156.6 231.4 158.7 219.8 160.8 219.9Z" fill="#1E194F"/>
<path d="M159.5 220.5C159.5 220.5 164.1 245.4 161.6 252.3C160.6 255.3 152.5 254.3 152.5 254.3L153.1 264.4L132.8 263.5C132.8 263.5 134.8 247.7 134.7 245.3C134.6 242.9 131.3 227.9 137.3 224.2C143.3 220.5 159.5 220.5 159.5 220.5Z" fill="#F49C80"/>
<path d="M142.9 240.8C142.9 240.8 144.7 241.8 145.6 241.4C145.14 241.798 144.575 242.056 143.973 242.145C143.371 242.234 142.756 242.148 142.2 241.9C140.4 241 142.9 240.8 142.9 240.8Z" fill="#CF7A62"/>
<path d="M145.6 233.1C145.6 233.1 142.4 230.6 140.2 232.7C138 234.8 139.9 239.7 143.8 241.2C143.8 241.2 140.6 247.8 134.7 246.5C134.7 246.5 126.2 235.6 126.8 229.8C127.4 224 133.9 215.5 139.1 213.7C144.3 211.9 146.2 212 149.8 212.6C153.4 213.2 161.9 215.5 161.4 217.9C161.074 219.339 160.535 220.721 159.8 222C159.8 222 158.8 222.1 158.3 224.4C157.8 226.7 156.8 232 148.9 233.2C148.9 233.2 148.2 236.4 147.6 236.5C147 236.6 145.6 233.1 145.6 233.1Z" fill="#403880"/>
<path d="M244.1 453C244 452.3 246.1 451.5 246.1 451.5C248.3 455 261.4 459.7 267.6 461.8C273.8 463.9 274 469.6 274.4 472.4C274.448 472.567 274.455 472.743 274.421 472.913C274.388 473.084 274.314 473.244 274.207 473.38C274.1 473.517 273.962 473.626 273.804 473.699C273.646 473.772 273.474 473.806 273.3 473.8H227C226.847 473.801 226.695 473.769 226.555 473.708C226.414 473.646 226.288 473.556 226.185 473.443C226.081 473.33 226.002 473.197 225.953 473.052C225.904 472.906 225.886 472.753 225.9 472.6L227.1 454C234 454.1 230.9 455.9 233.7 456.4C236.5 456.9 244.2 453.6 244.1 453Z" fill="#403880"/>
<path d="M246.2 450V451.5C246.2 451.5 244.1 452.3 244.2 453C244.3 453.7 236.6 456.9 233.8 456.4C231 455.9 234.1 454.1 227.2 454L227.7 447.5L246.2 450Z" fill="#F49C80"/>
<path d="M274.4 472.4C274.448 472.567 274.455 472.743 274.421 472.913C274.388 473.084 274.314 473.244 274.207 473.38C274.1 473.517 273.962 473.626 273.804 473.699C273.646 473.772 273.474 473.807 273.3 473.8H227C226.847 473.801 226.695 473.769 226.555 473.708C226.414 473.646 226.288 473.556 226.185 473.443C226.081 473.33 226.002 473.197 225.953 473.052C225.904 472.906 225.886 472.753 225.9 472.6V470.4H259.6L258.8 458.4C262 459.8 265.3 461 267.6 461.8C272.4 463.3 274 469.6 274.4 472.4Z" fill="#DFE5ED"/>
<path d="M100.2 472.6H56.9C56.9 472.6 54.2 471 54.6 470.4C55 469.8 85.6 446.4 86.7 447C87.8 447.6 98 455 102.9 454.8C102.9 454.8 105.9 469.7 100.2 472.6Z" fill="#403880"/>
<path d="M102.9 454.8L101.5 454.6C101.5 454.6 101 459.2 100.2 459.8C99.3999 460.4 93.9999 468.2 94.4999 468.9C94.9999 469.6 96.2999 471.2 96.0999 472.6H100.2C105.9 469.7 102.9 454.8 102.9 454.8Z" fill="#F49C80"/>
<path d="M88.8 448.4L86.7 447C85.6 446.4 55 469.8 54.6 470.4C54.2 471 56.9 472.6 56.9 472.6H75.1L70 462.9L88.8 448.4Z" fill="#DFE5ED"/>
<path d="M171.5 335.2C171.5 335.2 243.9 347.5 248.4 349.6C252.9 351.7 258.8 363.7 258.6 370.7C258.4 377.7 246.2 450 246.2 450C246.2 450 231.1 450.9 227.6 447.5C227.6 447.5 225.2 400.7 226.3 394.3C227.4 387.9 229.4 380.7 229.4 380.7L174.2 379.9C174.2 379.9 182.9 446.6 181 450.2C179.1 453.8 171.1 461.2 165.9 462.4C160.7 463.6 100.2 472.6 100.2 472.6L102.9 454.8C102.9 454.8 140.1 441.3 144.1 440.7C147.285 440.029 150.399 439.058 153.4 437.8L133.8 384.6C133.8 384.6 120.9 372.3 125.2 349.6C129.5 326.9 171.5 335.2 171.5 335.2Z" fill="#1150BE"/>
<path d="M171.5 335.2C171.5 335.2 129.5 326.9 125.2 349.6C125 350.7 124.9 351.7 124.7 352.8C131.142 349.453 137.21 345.431 142.8 340.8C151.2 333.5 171.5 335.2 171.5 335.2Z" fill="#094080"/>
<path d="M174.2 379.9C174.2 379.9 164.5 379.6 162.7 379C160.9 378.4 155.2 374.6 155.2 374.6C155.2 374.6 160.7 383.3 163 386.2C165.3 389.1 178.8 418.5 178.8 418.5L174.2 379.9Z" fill="#094080"/>
<path d="M254.5 286.5L258.8 286.8L265.7 283.4C265.7 283.4 270.5 279 272.4 279.5C274.3 280 273.5 280.7 273.3 280.9C273.1 281.1 269 286.3 269 286.3H282.1C281.666 287.193 281.129 288.032 280.5 288.8C280.1 289.1 269.7 294.2 268.5 294.5L254.5 298.8V286.5Z" fill="#F49C80"/>
<path d="M131.6 261.6C135.2 260.9 149.2 259.5 158.3 263.1C167.4 266.7 206.9 284.7 206.9 284.7L254.5 286.5C254.5 286.5 256.6 296 254.5 298.8C254.5 298.8 213.8 303.6 202.3 302.5C190.8 301.4 171.9 295.6 171.9 295.6C171.9 295.6 166.4 308.7 167 311C167.6 313.3 171.5 335.2 171.5 335.2C171.5 335.2 153.9 332.7 142.7 339.8C131.5 346.9 125.2 349.6 125.2 349.6C125.2 349.6 128.5 324.1 127.6 320.3C126.7 316.5 122.6 287.9 123 278.8C123.4 269.7 128.1 262.3 131.6 261.6Z" fill="#403880"/>
<path d="M171.9 295.6L159.1 291.5L168.6 304.4L171.9 295.6Z" fill="#232059"/>
<path d="M294.3 240.9C293.556 240.894 292.815 240.995 292.1 241.2V241.2C290 241.5 288.1 243.6 285.7 243.1C283.3 242.6 283.5 238.6 283.5 237.5V211.7H210.2V286.3H234.4C236 286.2 238.8 285.8 239.1 284C239.4 282.2 237.4 279.7 237.1 277.6C236.984 276.905 236.917 276.204 236.9 275.5C236.9 273.245 237.796 271.083 239.39 269.489C240.984 267.895 243.146 267 245.4 267C247.655 267 249.817 267.895 251.411 269.489C253.005 271.083 253.9 273.245 253.9 275.5C253.899 276.21 253.798 276.917 253.6 277.6V277.6C253.4 279.7 251.3 281.6 251.7 284C252.1 286.4 254.8 286.2 256.4 286.3H283.5V261.7C283.5 260.5 283.7 256.4 285.7 256C287.7 255.6 290 257.7 292.1 258C292.825 258.155 293.56 258.256 294.3 258.3C296.608 258.3 298.82 257.383 300.452 255.752C302.084 254.12 303 251.907 303 249.6C303 247.292 302.084 245.079 300.452 243.448C298.82 241.816 296.608 240.9 294.3 240.9V240.9Z" fill="url(#paint7_linear)"/>
<path d="M303.1 463.3C303.1 463.3 302.1 428.9 290 426.4C277.9 423.9 276.2 447.8 290 471.5L303.1 463.3Z" fill="url(#paint8_linear)"/>
<path d="M296.8 467.4H296.6C290.9 444.2 288.4 435.7 288.4 435.6C288.4 435.5 288.4 435.4 288.5 435.3L288.8 435.5C288.8 435.5 291.3 444.1 297 467.3C297.1 467.4 297 467.5 296.9 467.5L296.8 467.4Z" fill="#231F20"/>
<path d="M307.3 471.5C307.3 471.5 325.7 454 318.8 445.6C311.9 437.2 294.6 451.8 290 471.5H307.3Z" fill="url(#paint9_linear)"/>
<path d="M300.1 469.2H300C299.9 469.2 299.8 469.1 299.9 469C304.4 458.6 313.4 450.4 313.4 450.3H313.7C313.721 450.319 313.738 450.342 313.75 450.368C313.761 450.394 313.768 450.422 313.768 450.45C313.768 450.478 313.761 450.506 313.75 450.532C313.738 450.558 313.721 450.581 313.7 450.6C313.6 450.7 304.8 458.9 300.3 469.1L300.1 469.2Z" fill="#231F20"/>
<path d="M291.7 471.5C291.7 471.5 287 451.6 277.5 453.3C268 455 277.5 471.4 277.5 471.4L291.7 471.5Z" fill="url(#paint10_linear)"/>
<path d="M282.4 469C282.3 469 282.2 469 282.2 468.9L279 457.3C279 457.2 279 457.1 279.2 457.1C279.4 457.1 279.4 457.1 279.4 457.2L282.6 468.8C282.6 468.853 282.579 468.904 282.541 468.941C282.504 468.979 282.453 469 282.4 469V469Z" fill="#231F20"/>
<defs>
<linearGradient id="paint0_linear" x1="505.23" y1="476.51" x2="538.78" y2="321.54" gradientUnits="userSpaceOnUse">
<stop stop-color="#1252C3"/>
<stop offset="1" stop-color="#3F86FD"/>
</linearGradient>
<linearGradient id="paint1_linear" x1="429.3" y1="456.52" x2="566.41" y2="456.52" gradientUnits="userSpaceOnUse">
<stop stop-color="#FF9C5C"/>
<stop offset="1" stop-color="#FFC861"/>
</linearGradient>
<linearGradient id="paint2_linear" x1="533.6" y1="368.9" x2="385.69" y2="164.64" gradientUnits="userSpaceOnUse">
<stop stop-color="#F5995E"/>
<stop offset="0.29" stop-color="#F9AB60"/>
<stop offset="0.71" stop-color="#FDBF62"/>
<stop offset="1" stop-color="#FFC663"/>
</linearGradient>
<linearGradient id="paint3_linear" x1="37868.9" y1="44446.3" x2="20160.7" y2="28808.2" gradientUnits="userSpaceOnUse">
<stop stop-color="#F5995E"/>
<stop offset="0.29" stop-color="#F9AB60"/>
<stop offset="0.71" stop-color="#FDBF62"/>
<stop offset="1" stop-color="#FFC663"/>
</linearGradient>
<linearGradient id="paint4_linear" x1="48760.2" y1="36076.6" x2="43482.4" y2="27485.8" gradientUnits="userSpaceOnUse">
<stop stop-color="#1252C3"/>
<stop offset="1" stop-color="#3F86FD"/>
</linearGradient>
<linearGradient id="paint5_linear" x1="31633.5" y1="33625.2" x2="20536" y2="18586.6" gradientUnits="userSpaceOnUse">
<stop stop-color="#F5995E"/>
<stop offset="0.29" stop-color="#F9AB60"/>
<stop offset="0.71" stop-color="#FDBF62"/>
<stop offset="1" stop-color="#FFC663"/>
</linearGradient>
<linearGradient id="paint6_linear" x1="53809.8" y1="21427.9" x2="48086.7" y2="13182.8" gradientUnits="userSpaceOnUse">
<stop stop-color="#1252C3"/>
<stop offset="1" stop-color="#3F86FD"/>
</linearGradient>
<linearGradient id="paint7_linear" x1="20178.9" y1="25918.9" x2="23263.8" y2="15410.4" gradientUnits="userSpaceOnUse">
<stop stop-color="#1252C3"/>
<stop offset="1" stop-color="#3F86FD"/>
</linearGradient>
<linearGradient id="paint8_linear" x1="297.8" y1="470.97" x2="288.21" y2="436.84" gradientUnits="userSpaceOnUse">
<stop stop-color="#F79F34"/>
<stop offset="1" stop-color="#FFC446"/>
</linearGradient>
<linearGradient id="paint9_linear" x1="299.72" y1="472.22" x2="311.63" y2="447.54" gradientUnits="userSpaceOnUse">
<stop stop-color="#FBB62C"/>
<stop offset="1" stop-color="#FFCE44"/>
</linearGradient>
<linearGradient id="paint10_linear" x1="-326.366" y1="9124.63" x2="-249.197" y2="8834.46" gradientUnits="userSpaceOnUse">
<stop stop-color="#FBB62C"/>
<stop offset="1" stop-color="#FFCE44"/>
</linearGradient>
</defs>
</svg>
