<svg xmlns="http://www.w3.org/2000/svg" xmlns:xlink="http://www.w3.org/1999/xlink" viewBox="0 0 720 504"><defs><style>.cls-1,.cls-38,.cls-42,.cls-46,.cls-48{isolation:isolate;}.cls-15,.cls-2{fill:#fff;}.cls-3{fill:#403882;}.cls-4{fill:#fda181;}.cls-5{fill:#e1e7ef;}.cls-6{fill:#d07a62;}.cls-7{fill:#403881;}.cls-8{fill:#232059;}.cls-9{fill:#1150bf;}.cls-10,.cls-56{fill:#094081;}.cls-11{fill:#f59d80;}.cls-12{fill:#75acfc;}.cls-13{fill:url(#linear-gradient);}.cls-14{fill:url(#linear-gradient-2);}.cls-15,.cls-57{opacity:0.6;}.cls-16{fill:#1e194f;}.cls-17{fill:#c7ccd1;}.cls-18{fill:url(#linear-gradient-3);}.cls-19{fill:#fe845a;}.cls-20,.cls-22,.cls-25{fill:none;stroke:#231f20;stroke-miterlimit:10;}.cls-20,.cls-25{stroke-linecap:round;}.cls-20{stroke-width:1.3px;}.cls-21{fill:url(#linear-gradient-4);}.cls-22{stroke-width:1.23px;}.cls-23{fill:url(#linear-gradient-5);}.cls-24{fill:#f59059;}.cls-25{stroke-width:1.13px;}.cls-26{fill:#483e6b;}.cls-27{fill:#413b8a;}.cls-28{fill:url(#linear-gradient-6);}.cls-29{fill:url(#linear-gradient-7);}.cls-30{fill:#1f0d52;}.cls-31{fill:#2e89ff;}.cls-32{fill:#201851;}.cls-33{fill:url(#linear-gradient-8);}.cls-34{fill:url(#linear-gradient-9);}.cls-35{fill:url(#linear-gradient-10);}.cls-36{fill:url(#linear-gradient-11);}.cls-37{fill:url(#linear-gradient-12);}.cls-38{opacity:0.5;mix-blend-mode:multiply;}.cls-39{fill:url(#linear-gradient-13);}.cls-40{fill:#e4e4e4;}.cls-41{fill:#f55662;}.cls-42{opacity:0.4;}.cls-43{fill:#1a2e35;}.cls-44{fill:url(#linear-gradient-14);}.cls-45{fill:url(#linear-gradient-15);}.cls-46,.cls-56{opacity:0.3;}.cls-47{fill:url(#linear-gradient-16);}.cls-48{opacity:0.2;}.cls-49{fill:url(#linear-gradient-17);}.cls-50{fill:url(#linear-gradient-18);}.cls-51{fill:url(#linear-gradient-19);}.cls-52{fill:url(#linear-gradient-20);}.cls-53{fill:url(#linear-gradient-21);}.cls-54{fill:url(#linear-gradient-22);}.cls-55{fill:url(#linear-gradient-23);}.cls-58{fill:url(#linear-gradient-24);}.cls-59{fill:url(#linear-gradient-25);}.cls-60{fill:url(#linear-gradient-26);}.cls-61{fill:url(#linear-gradient-27);}.cls-62{fill:url(#linear-gradient-28);}.cls-63{fill:url(#linear-gradient-29);}.cls-64{fill:#231f20;}.cls-65{fill:url(#linear-gradient-30);}.cls-66{fill:url(#linear-gradient-31);}.cls-67{fill:#fca080;}.cls-68{fill:#e0e6ee;}.cls-69{fill:url(#linear-gradient-32);}.cls-70{fill:url(#linear-gradient-33);}</style><linearGradient id="linear-gradient" x1="369.8" y1="250.09" x2="357.05" y2="224.46" gradientUnits="userSpaceOnUse"><stop offset="0" stop-color="#1252c4"/><stop offset="1" stop-color="#3f87fe"/></linearGradient><linearGradient id="linear-gradient-2" x1="374.42" y1="247.79" x2="361.68" y2="222.16" gradientTransform="translate(460.61 -190.85) rotate(71.45)" xlink:href="#linear-gradient"/><linearGradient id="linear-gradient-3" x1="530.44" y1="40.74" x2="594.67" y2="197.82" gradientTransform="matrix(-1, 0, 0, 1, 1137.34, 0)" gradientUnits="userSpaceOnUse"><stop offset="0.05" stop-color="#fbd15b"/><stop offset="1" stop-color="#f9a45a"/></linearGradient><linearGradient id="linear-gradient-4" x1="569.52" y1="290.63" x2="511.99" y2="177.66" gradientTransform="matrix(-1, 0, 0, 1, 1137.34, 0)" xlink:href="#linear-gradient"/><linearGradient id="linear-gradient-5" x1="254.51" y1="261.76" x2="168.09" y2="91.65" gradientTransform="matrix(-1, 0, 0, 1, 347.92, 0)" gradientUnits="userSpaceOnUse"><stop offset="0" stop-color="#f69a5e"/><stop offset="0.29" stop-color="#faac60"/><stop offset="0.71" stop-color="#fec062"/><stop offset="1" stop-color="#ffc763"/></linearGradient><linearGradient id="linear-gradient-6" x1="123.09" y1="472.13" x2="171.82" y2="416.8" gradientUnits="userSpaceOnUse"><stop offset="0" stop-color="#ff9d5c"/><stop offset="1" stop-color="#ffc961"/></linearGradient><linearGradient id="linear-gradient-7" x1="124.39" y1="454.97" x2="56.04" y2="413.01" xlink:href="#linear-gradient"/><linearGradient id="linear-gradient-8" x1="99.7" y1="476.41" x2="99.7" y2="358.99" xlink:href="#linear-gradient-6"/><linearGradient id="linear-gradient-9" x1="118.01" y1="467.61" x2="77.07" y2="453.06" xlink:href="#linear-gradient-6"/><linearGradient id="linear-gradient-10" x1="62.51" y1="455.61" x2="220.11" y2="455.61" xlink:href="#linear-gradient"/><linearGradient id="linear-gradient-11" x1="231.21" y1="479.74" x2="261.83" y2="338.24" gradientTransform="matrix(-1, 0, 0, 1, 836.35, 0)" xlink:href="#linear-gradient"/><linearGradient id="linear-gradient-12" x1="161.88" y1="461.49" x2="287.07" y2="461.49" gradientTransform="matrix(-1, 0, 0, 1, 836.35, 0)" xlink:href="#linear-gradient-6"/><linearGradient id="linear-gradient-13" x1="469.56" y1="356.21" x2="559.99" y2="356.21" gradientTransform="translate(1029.55 712.41) rotate(-180)" xlink:href="#linear-gradient"/><linearGradient id="linear-gradient-14" x1="198.87" y1="472.01" x2="239.57" y2="472.01" gradientUnits="userSpaceOnUse"><stop offset="0" stop-color="#f8a034"/><stop offset="1" stop-color="#ffc546"/></linearGradient><linearGradient id="linear-gradient-15" x1="377.48" y1="259.52" x2="405.57" y2="259.52" xlink:href="#linear-gradient"/><linearGradient id="linear-gradient-16" x1="413.35" y1="274.4" x2="413.35" y2="268.43" xlink:href="#linear-gradient"/><linearGradient id="linear-gradient-17" x1="417.69" y1="257.69" x2="423.52" y2="257.69" xlink:href="#linear-gradient"/><linearGradient id="linear-gradient-18" x1="377.05" y1="262.56" x2="367.27" y2="240.46" xlink:href="#linear-gradient"/><linearGradient id="linear-gradient-19" x1="338.08" y1="279.8" x2="328.3" y2="257.7" xlink:href="#linear-gradient"/><linearGradient id="linear-gradient-20" x1="329.4" y1="261.81" x2="376.91" y2="261.81" xlink:href="#linear-gradient"/><linearGradient id="linear-gradient-21" x1="329.05" y1="261.96" x2="377.25" y2="261.96" gradientTransform="matrix(1, 0, 0, 1, 0, 0)" xlink:href="#linear-gradient-3"/><linearGradient id="linear-gradient-22" x1="357.56" y1="271.18" x2="347.79" y2="249.08" xlink:href="#linear-gradient"/><linearGradient id="linear-gradient-23" x1="307.87" y1="268.91" x2="307.87" y2="258.31" xlink:href="#linear-gradient"/><linearGradient id="linear-gradient-24" x1="298.18" y1="268.7" x2="298.18" y2="260.46" xlink:href="#linear-gradient"/><linearGradient id="linear-gradient-25" x1="288.5" y1="268.56" x2="288.5" y2="257.95" xlink:href="#linear-gradient"/><linearGradient id="linear-gradient-26" x1="278.81" y1="268.28" x2="278.81" y2="264.16" xlink:href="#linear-gradient"/><linearGradient id="linear-gradient-27" x1="263.91" y1="283.44" x2="512.05" y2="283.44" gradientTransform="translate(775.96 566.88) rotate(-180)" xlink:href="#linear-gradient"/><linearGradient id="linear-gradient-28" x1="255.74" y1="276.59" x2="520.22" y2="276.59" xlink:href="#linear-gradient"/><linearGradient id="linear-gradient-29" x1="-119.78" y1="480.27" x2="-111.67" y2="451.42" gradientTransform="matrix(-1, 0, 0, 1, 252, 0)" xlink:href="#linear-gradient-14"/><linearGradient id="linear-gradient-30" x1="-121.4" y1="481.33" x2="-131.48" y2="460.47" gradientTransform="matrix(-1, 0, 0, 1, 252, 0)" gradientUnits="userSpaceOnUse"><stop offset="0" stop-color="#fcb72c"/><stop offset="1" stop-color="#ffcf44"/></linearGradient><linearGradient id="linear-gradient-31" x1="-108.58" y1="482.64" x2="-104.99" y2="469.25" xlink:href="#linear-gradient-30"/><linearGradient id="linear-gradient-32" x1="325.17" y1="220.79" x2="312.43" y2="195.15" gradientTransform="matrix(0.95, -0.29, 0.31, 0.91, -42.18, 111.73)" xlink:href="#linear-gradient"/><linearGradient id="linear-gradient-33" x1="329.8" y1="218.49" x2="317.05" y2="192.85" gradientTransform="matrix(0.3, 0.95, -0.9, 0.32, 400.82, -167.47)" xlink:href="#linear-gradient"/></defs><g class="cls-1"><g id="Layer_2" data-name="Layer 2"><g id="Layer_1-2" data-name="Layer 1"><rect class="cls-2" width="720" height="504"/><g id="man"><g id="shoes"><path class="cls-3" d="M492.73,436.49l.74,19.87s1.81,11.89,1.6,13.49-22.52,9.7-26.13,10.16-9.78-.5-9.88-2.3-.21-7.44,6.58-10.31c0,0,11.16-9.13,12.32-11.15L475.63,440Z"/><path class="cls-4" d="M478,456.25s1-1.49,4.84-1,3.82,2.18,4.78,2.66,5.89-1.59,5.89-1.59l-.74-19.87L475.63,440Z"/><path class="cls-5" d="M459.06,477.71c.1,1.8,6.26,2.76,9.88,2.3s25.91-8.57,26.13-10.16a15.62,15.62,0,0,0-.13-2.41c-.89.42-6.31,3-8.9,3.93-2.83,1.06-11.26,3.33-11.26,3.33a8.29,8.29,0,0,0-9.14-7.3C458.85,470.27,459,475.9,459.06,477.71Z"/><path class="cls-6" d="M476.44,445.66s9.46,3.9,16.64.29l-.35-9.46L475.63,440Z"/><path class="cls-3" d="M460.64,429.38l3.94,16.76s3.83,9.58,3.83,10.43S452,473.22,450,473.75s-11.18.81-12.11-.61,0-7.65,6.31-10.76c0,0,6.3-11.62,6.37-12.89s-5.17-13.81-5.17-13.81Z"/><path class="cls-4" d="M450.56,449.49s3-1.15,3.77-.73,1.33,1.14,2.44.73,7.81-3.35,7.81-3.35l-3.94-16.76-15.25,6.3Z"/><path class="cls-5" d="M437.88,473.14c.93,1.42,10.13,1.13,12.11.61s18.41-16.33,18.41-17.18a12.75,12.75,0,0,0-.65-2.16L450,470.8c-.74-7.38-5.84-8.42-5.84-8.42C437.88,465.49,437,471.72,437.88,473.14Z"/><path class="cls-6" d="M447.57,441.51s9.42.92,14.91-4.28l-1.84-7.85-15.25,6.3Z"/></g><g id="pants"><path class="cls-7" d="M546.58,316.5s6.93,27.75,2,32.15c-1.28,1.13-60.34,1.42-60.34,1.42s3.4,30.16,4.82,46,2.12,42.49,2.12,42.49-6.51,5.69-12.89,5.46-8.63-4.75-8.63-4.75-13.88-63.16-15.16-72.65-2-14.59-2-14.59l-12.18,4.67s6.23,19.12,8.21,27.9,11,47.16,11,47.16-5,5.67-9.91,6.94a19.18,19.18,0,0,1-8.5.43s-37-82.85-34.13-91.63,13.17-17.85,25.63-23.94,48.15-16.43,48.15-16.43S533,296.53,546.58,316.5Z"/><path class="cls-8" d="M550.12,344.83h0c-2.2,7-62.9,0-62.9,0l1,5.24s59.06-.29,60.34-1.42A6.4,6.4,0,0,0,550.12,344.83Z"/><path class="cls-8" d="M456.51,352.05s-1.7-15.08,2.34-18.7,37.6-19.12,37.6-19.12-46.1,16.36-52.48,24.44.36,18.05.36,18.05Z"/></g><g id="body"><path class="cls-9" d="M486.8,206s34,6.81,38.26,13.91,8.21,29,10.05,44.2S543.75,306,543.75,306l2.83,10.48a177.21,177.21,0,0,1-28-5.52c-14-4.11-33.71-3.83-33.71-3.83L473.5,270.61,449.85,255l-1.13-4.1s-29.74,10.19-38.1,6.51S379.18,223,379.18,223L388,211s20,18.84,22.94,21.1,5.1,5.52,6,5.52,41.07-18.44,46-20.62S486.8,206,486.8,206Z"/><path class="cls-10" d="M511.6,288.74c7.37-3.11,14.7-42.61,14.7-42.61L505,235.18s-5.74,13.91-14.24,14.76-27.35-7-33.29-14.76c0,0-39.08,8.36-40.35,6.6s-2.69,1.78-9.63-1.19-26.07-20.69-26.07-20.69L379.18,223s23.09,30.77,31.44,34.45,38.1-6.51,38.1-6.51l14.16-5.71,10.62,25.39,3,9.67S504.24,291.86,511.6,288.74Z"/><path class="cls-9" d="M449.85,255l-1.13-4.1s-2.13-8.81.57-9.15,45.88,13,47.16,15.52c0,0,10.05-31.22,16.14-32.6s16.86,10.22,13.17,24.1-12.88,33.29-18.27,33.57-34-11.76-34-11.76Z"/><path class="cls-11" d="M388,211s-5.59-5.37-6.87-6.91a28.44,28.44,0,0,0-6.16-4.78c-.64-.15-7.86-2.65-8.87-1.8s-.16,2.28-.85,3.13a5.34,5.34,0,0,0-1.48,3.53c0,1.62-1.33,1.62-1.12,3.8s-1.21,3.4,0,4.41,5.57,2.07,8.18,2,9.05,7.81,9.05,7.81Z"/><path class="cls-6" d="M373.93,208.72c.39-.85,1.53-.71,1.53-.71-.39-1,0-4.75-2.13-5.07,0,0-5.8,8.06-6.62,11C372.39,215.58,372.86,213.25,373.93,208.72Z"/><path class="cls-12" d="M371.44,234.12l-2.91-17.36,6.1-18.18a3.35,3.35,0,0,0,2.77-2.51v0c.59-1.76.06-3.52-1.18-3.94l-4.12-1.39c-1.25-.41-2.73.68-3.32,2.43l0,0a3.33,3.33,0,0,0,.69,3.67L363.36,215l-12.79,12.1c-2.46,2.32-2.39,6.84.11,7.68l16,5.38C369.22,241,372,237.45,371.44,234.12Z"/><path class="cls-9" d="M370.48,190.92c.26.62,1.52,1.43,3.18,2s3.15.67,3.72.34a1.94,1.94,0,0,0-1.15-1.16l-4.12-1.39A2,2,0,0,0,370.48,190.92Z"/><path class="cls-13" d="M370.2,234.8l-1.36-8.07c-.19.53-2.95.08-6.19-1s-5.72-2.39-5.56-2.93l-5.94,5.62a3.69,3.69,0,0,0-1.11,2.72,2,2,0,0,0,1.19,2l16,5.38a2,2,0,0,0,2.17-.91A3.7,3.7,0,0,0,370.2,234.8Z"/><ellipse class="cls-14" cx="362.97" cy="224.76" rx="1.02" ry="6.2" transform="translate(34.43 497.39) rotate(-71.45)"/><ellipse class="cls-9" cx="362.97" cy="224.76" rx="1.02" ry="6.2" transform="translate(34.43 497.39) rotate(-71.45)"/><path class="cls-15" d="M365.14,216.56s-12.63,13.28-10.59,15.06S365.14,216.56,365.14,216.56Z"/><path class="cls-11" d="M373.33,202.94c1.46.89,2.13,1.32,2.13,1.32l-.53-5s-5.77-3.08-6.37-2.65c-.41.29-.72,1.48.14,2.83L368,199c-1.3-.4-6,13.14-4.44,13.91s5.89,1,7.12.93,1.22-2.65,1.22-2.65a2.92,2.92,0,0,0,.72-2.63,2.17,2.17,0,0,0,.53-2.61s1.35-.5,1.19-1.73A3.19,3.19,0,0,0,373.33,202.94Z"/></g><g id="head"><path class="cls-11" d="M444,186.56s6.94,24.49,15.22,32.37a5.25,5.25,0,0,0,5.18,1.24c1.33-.41,2.55-1.67,4-2.75l5.2,5.57c1.49,1.59,7.22,2.87,10.09,0s5.52-15.29,5.52-15.29l-9.66-6.8s3.18-6.8.53-11.9S447.9,157.88,444,186.56Z"/><path class="cls-6" d="M461.71,180.91a31.66,31.66,0,0,0,1.86-5.31c-8.53-4.07-17.55-4-19.6,11,0,0,.59,2.08,1.63,5.21C449.11,191.81,457.43,190.8,461.71,180.91Z"/><path class="cls-7" d="M480.09,189s-2.73-2.62-4.46,1.56,0,6.23-2.48,5.74-2.94-7.79-2.94-7.79-8.67,1.26-8.5-7.6c0,0-8.1,10.64-18.59,7.35s-10.87-14-8.78-17.17,10.77-4.36,10.77-4.36,13.45-5.45,15.65-4.11,14.73-.28,16.57,2.48a17.91,17.91,0,0,1,2.26,6.94s2.48,1,2,5.24S480.09,189,480.09,189Z"/><path class="cls-6" d="M468.41,217.42l5.68-6.43s-3,6.87-2.34,8.82a10.1,10.1,0,0,0,1.86,3.18Z"/><path class="cls-6" d="M479.56,200.9a2.25,2.25,0,0,1-2.69.74s2.24,1.71,4,.18Z"/><path class="cls-16" d="M452.68,179c-4.74,2-4.95-.57-4.95-.57-1.63-4.39-7.72,1.7-11.55-1.48s1.9-8.33,2-8.41a8.21,8.21,0,0,0-3.83,2.57c-2.09,3.15-1.7,13.87,8.78,17.17s18.59-7.35,18.59-7.35C456.86,183.91,452.68,179,452.68,179Z"/></g></g><path id="shadow" class="cls-17" d="M581.35,474.18c0-3.64-33.16-6.58-74.07-6.58s-74.07,2.94-74.07,6.58c0,1-56.29,2-93.73,2-100.8,0-182.51,2.25-182.51,5s81.71,5,182.51,5S522,484,522,481.24C522,481,581.35,477.4,581.35,474.18Z"/><g id="trees"><ellipse class="cls-18" cx="565.93" cy="140.92" rx="44.62" ry="92.98"/><path class="cls-19" d="M541.86,62.62c-7,16.41-11.25,38-11.25,61.73,0,51.35,20,93,44.62,93,8.86,0,17.12-5.39,24.07-14.68-8.18,19.17-20.09,31.25-33.37,31.25-24.64,0-44.62-41.63-44.62-93C521.31,108,529.5,79.15,541.86,62.62Z"/><g id="TREE"><line class="cls-20" x1="565.32" y1="85.34" x2="565.32" y2="464.77"/><line class="cls-20" x1="565.32" y1="127.35" x2="547.93" y2="106.12"/><line class="cls-20" x1="565.32" y1="171" x2="547.93" y2="149.77"/><line class="cls-20" x1="565.32" y1="151.91" x2="582.71" y2="130.68"/><line class="cls-20" x1="565.32" y1="190.85" x2="582.71" y2="169.63"/><line class="cls-20" x1="565.32" y1="216.27" x2="547.93" y2="195.05"/></g><path class="cls-21" d="M579.24,168.58c-3.64,2.49-26.24,23.62-18.37,52.82S588.1,265,613.36,258.8s50.85-25.26,44.29-55.12S622.55,139.05,579.24,168.58Z"/><line class="cls-22" x1="606.19" y1="203.28" x2="606.19" y2="469.03"/><line class="cls-22" x1="606.19" y1="238.47" x2="590.8" y2="223.08"/><line class="cls-22" x1="606.19" y1="219.75" x2="619.2" y2="206.74"/><g id="TREE-2" data-name="TREE"><g id="tree-3" data-name="tree"><path class="cls-23" d="M162.18,234.48C134,232.67,101.4,200.77,110,181s10.55-32.79,1.87-46.13c-7.88-12.09,21.54-63.33,10.38-83,4.17-4,9.94-6.16,15.27-4.35,6.76,2.31,10.12,9.76,12.24,16.58a157.9,157.9,0,0,1,5.33,23c1.13,7.43,1.94,15.43,6.74,21.21,5.28,6.34,14.18,8.52,20.05,14.32A21.86,21.86,0,0,1,188,141.61c-1,6-4.46,11.21-6.92,16.75s-3.87,12.24-.85,17.5c2.66,4.63,8,6.92,11.75,10.75,4.76,4.89,6.52,12.19,5.67,19s-4.07,13.06-8.14,18.54a63.84,63.84,0,0,1-7.06,8A57.19,57.19,0,0,1,162.18,234.48Z"/><path class="cls-24" d="M134.34,263.11c-6-13-27.7-22-36.09-29.21-8.85-7.57-17-17.73-18.65-29.59C77.71,191,85,183.93,91.07,173.5c10.12-17.27-10.34-34.22-3.41-51.56,3.57-8.94,14.08-12.93,19.73-20.72,4.53-6.23,5.53-14.27,6.16-21.94s1.1-15.66,4.83-22.39A20.32,20.32,0,0,1,122.23,52c11.16,19.63-18.26,70.87-10.38,83,8.68,13.34,6.72,26.4-1.87,46.13s24,51.63,52.2,53.44a57.19,57.19,0,0,0,20.22-2.37A63.92,63.92,0,0,1,168.89,242C156.89,248.55,142.05,251.83,134.34,263.11Z"/></g><line class="cls-25" x1="134.29" y1="97.82" x2="134.29" y2="470.98"/><line class="cls-25" x1="134.29" y1="147.22" x2="154.33" y2="122.27"/><line class="cls-25" x1="134.29" y1="198.55" x2="154.33" y2="173.59"/><line class="cls-25" x1="134.29" y1="176.1" x2="114.26" y2="151.15"/><line class="cls-25" x1="134.29" y1="221.89" x2="114.26" y2="196.94"/><line class="cls-25" x1="134.29" y1="251.78" x2="154.33" y2="226.83"/></g></g><g id="plants"><g id="plant"><path class="cls-26" d="M41.28,434.26c5.55-1.85,13.75-.29,16.87,5.43a27.26,27.26,0,0,1,5.73,3.66c-1.25-1.45-2.49-3.1-2.35-5.13.16-2.39,2.07-2.09,3.24-.8s.7,2.21.63,4c-.05,1.48.22,2.72.18,3.34l1.73,1.42c.87.7,1.75,1.39,2.63,2.08-.25-.45-.51-.88-.61-1.08-.92-1.95-2.27-4.29-2.1-6.7s2.32-3.65,3.93-2.05c1.36,1.35.08,3.63-.32,5.41a21,21,0,0,0-.26,4.92q2.23,1.74,4.52,3.4a14.68,14.68,0,0,1-2.53-5.92c-.35-2.95,2.63-2.81,4.13-1.63s1.11,3.42,1,5.39a22.1,22.1,0,0,0,.12,4.07c.8.56,1.6,1.12,2.41,1.66L82.07,457a10.6,10.6,0,0,1-1.4-5.14c0-1,0-2.8.87-3.38,1.15-.73,2.31.54,2.7,1.54,1,2.49-.46,5.94-.06,8.33q2.43,1.54,4.92,3a14.56,14.56,0,0,1-2.52-5.06c-.29-1.21-.24-2.78.68-3.58s2.5-.21,3.1,1a9.94,9.94,0,0,1,.64,4.09c.06,1.5.58,3.41.4,4.86.79.43,1.58.85,2.38,1.26l.44.22c-.26-.51-.48-1-.64-1.38a5.74,5.74,0,0,1-.54-3.72c.33-1.28,1.59-2.37,2.62-1.91.86.38,1.18,1.61,1.09,2.71s-.46,2.16-.56,3.26a9.77,9.77,0,0,0,.11,2c1.83.83,3.68,1.6,5.54,2.33a15.43,15.43,0,0,1-1.5-4.37,5.08,5.08,0,0,1,.5-3.07,1.93,1.93,0,0,1,2.4-1c.83.45,1,1.73.85,2.81-.12.69-.59,5.07-1,6.16,1.82.71,3.64,1.4,5.45,2.14.67.27.41,1.43-.32,1.3a39.61,39.61,0,0,1-7.37-2.18,19,19,0,0,0-1.84,1.43c-.85,1-1.46,2.28-2.36,3.24s-2.28,1.55-3.25.86a1.51,1.51,0,0,1-.59-.82c-.34-1.09.49-2.3,1.34-3a10,10,0,0,1,5-2.38c-1.5-.64-3-1.33-4.44-2l-.48.1a5.37,5.37,0,0,0-2.26.82,9.23,9.23,0,0,0-1.43,1.55,11.7,11.7,0,0,1-2.14,2,4,4,0,0,1-2.73.89,2,2,0,0,1-1.56-2.21,3.16,3.16,0,0,1,1.24-1.85,9.43,9.43,0,0,1,5.61-2,15.82,15.82,0,0,1,2.58.12c-1.85-.91-3.68-1.9-5.48-2.93a6.78,6.78,0,0,0-2.22,1.2l-2.76,2.15A10.73,10.73,0,0,1,80.26,468a4.38,4.38,0,0,1-4.47-.92,2.12,2.12,0,0,1-.78-1.79,2.67,2.67,0,0,1,1.47-1.79,13.88,13.88,0,0,1,6.18-2,18.63,18.63,0,0,1,3.09,0Q83.34,460,81,458.44A14.25,14.25,0,0,0,74.8,460c-1.14.62-2.21,1.42-3.36,2a5.46,5.46,0,0,1-3.59.7,2.09,2.09,0,0,1-1.71-2.15,2.78,2.78,0,0,1,.35-1c1.17-2.1,3.56-2.76,5.66-2.83a22.87,22.87,0,0,1,7.5.81q-3-2.09-5.94-4.32a12.31,12.31,0,0,0-4,1.45,44.24,44.24,0,0,1-6.4,3.17,5.07,5.07,0,0,1-4.2-.17,1.13,1.13,0,0,1-.49-.5,1.59,1.59,0,0,1,.24-1.37,6.39,6.39,0,0,1,2.54-2.28A13.85,13.85,0,0,1,69.24,452a20.77,20.77,0,0,1,3.84.7c-1.87-1.45-3.73-2.94-5.56-4.45l-.38-.32c-1.35.87-2.79,1.63-4.16,2.44s-2.91,1.65-4.34,1.24a1.84,1.84,0,0,1-1.12-.82,2.6,2.6,0,0,1,.32-2.6,4.55,4.55,0,0,1,2.08-1.49,13.36,13.36,0,0,1,5-.68c-1-.9-2.08-1.8-3.16-2.65a.3.3,0,0,1,0,.1c-2.14.93-4.07,2.61-6.23,3.45a6,6,0,0,1-5.08-.28,1.39,1.39,0,0,1-.86-1.21,1.79,1.79,0,0,1,.68-1.12,9.5,9.5,0,0,1,6.07-2.3,15,15,0,0,1,4,.33,19.21,19.21,0,0,0-6-3.06l-.07,0a16.08,16.08,0,0,0-4-.12c-1.65.19-3.3.59-4.95.67a6.78,6.78,0,0,1-4.66-1.22c-.94-.75-1.63-2.33-.86-3.43A2.77,2.77,0,0,1,41.28,434.26Z"/><path class="cls-27" d="M130.15,381.66c14.69,30.13,11.72,59.94,4.13,60.25C105.49,443.1,103.94,377.1,118,339.37,120.25,345.81,119.52,359.84,130.15,381.66Z"/><path class="cls-28" d="M150.93,425.39c15.3-13.45,15.7-20.24,17.76-26.39,7.3,38.12-22.19,70.52-27.62,71.79C139,471.28,131.3,442.66,150.93,425.39Z"/><path class="cls-29" d="M112.68,438c5.11,6.75,13.2,16.27,12.2,25.05-.35,3.12-4.46,8.79-7.2,6.2-8.39-4.9-44-12.11-58.33-47.9-3.27-8.17-5.06-24.61-25.59-37.16C60.8,385.77,99,420,112.68,438Z"/><path class="cls-30" d="M75.56,400.94c1.24,1.49,1.55,3.93,3.15,4.84,1.19.67,2.77.34,4.13,1.52a14.2,14.2,0,0,1,3,4c1.57,2.95,1.7,5.84,2.58,8.94.81,2.87,3.8,4,6.07,6a28.5,28.5,0,0,1,7.41,10.8c1,2.33,1.18,6.14,2.73,7.8,1.09,1.16,3,1.7,4.14,3a13.36,13.36,0,0,1,2.44,5.63c.92,4-1.51,6-5.18,6.54-4.34-1.92-11.8-6.21-13.89-10.86-.91-2-.18-2.24-1.8-3.26-2.76-1.76-5.59-2.19-7.4-5.29a20.17,20.17,0,0,1-2.58-8.18c-.13-2,.58-2.89-.58-4.45-1.84-2.46-4.37-3.69-5.76-6.65a23.75,23.75,0,0,1-1.72-6.62c-.22-1.51.32-2.53.32-3.86,0-2.39-2.4-3.78-3.37-6-1.06-2.45-1.27-5.42-1.48-8.08C70.61,396.31,73.86,398.91,75.56,400.94Z"/><path class="cls-31" d="M132.07,420.6c1-7.05,14.35-31.93,18.3-36.42-7.26,23.3,2.64,19.47-3.48,58.93-1.86,11.95-10.46,30.58-17.4,30.49-6.57-.08-6.66-8.68-7.5-11.63-2.27-8,1.21-61.07,4.29-65.81C130.44,405.73,131.49,418.87,132.07,420.6Z"/><path class="cls-32" d="M133.42,420.15c1.58-3.92,1.76-8.27,3.37-12.27.84,3.53,3.07,6.8,2.56,10.54-.19,1.35-.86,2.58-.61,3.85s1.78,2.72,2.36,4c1.94,4.19-1,5.66-.73,8.81.14,1.64,2.15,4.14,2.65,5.89.85,3,1.46,6,.4,9-.42,1.17-1.4,2.09-1.27,3.34.17,1.66,1.67,3.53,1.93,5.34.5,3.51-2,5.79-2.3,8.5-.27,2.34.75,6.27-3.15,7-1.83.36-2.75-.75-3.25-4.34-6.16-2.61-1.07-10.94-2.12-15.08-.37-1.48-1.19-2.86-1.52-4.43-.47-2.23,0-4.36-.28-6.49-.21-1.72-1-3.16-1.37-5-.74-4,1.46-6,2.26-9.18C133.11,426.71,132.15,423.31,133.42,420.15Z"/><path class="cls-32" d="M114.33,439.21c.75.83,1.26,2,2,2.7a43.08,43.08,0,0,1-2.54-11.86c-.23-3.53-1.29-7.95-.43-11.41a44.52,44.52,0,0,1,6,9.39c2.19,4.39,4.35,8.82,6.51,13.22a129.59,129.59,0,0,1,7.61,20.58c.91,3,4.29,9.52,1.27,12.22a2.74,2.74,0,0,1-3.25.52c-1.53-1-2.78-2.75-4-4.07a49,49,0,0,1-8.74-12.41c-1.86-4-3.81-8-5.41-12.15-1.18-3.07-2.84-6.83-2.51-10.18C112,436.89,113.24,438,114.33,439.21Z"/><path class="cls-33" d="M77.47,359.22C85.2,357,82,370.59,88,380.3c1,1.23,2,2.51,3,3.81-.47-2.66-.37-6.51.81-7.36,3.09-2.23,2.57,3.21,2.33,4.47a19,19,0,0,1-1.72,4.86c1.31,1.87,2.56,3.79,3.75,5.71-.13-.65-.23-1.24-.32-1.65-.7-3.22-1.5-9.84,2.51-9.85,5.06,0,.38,10.94-.44,14.41.12.21,1.8,3.16,2.48,4.45-.38-4.09.21-11.07,3.69-11.23,7.35-.35-1.82,8.67-2.69,12.9,1.17,2.37,2.76,6.07,3.75,8.53a15.3,15.3,0,0,1,.62-6.73c1.07-2.76,3.9-5.15,4.72-1.22.47,2.29-1.18,4.25-2.22,6.2a28.38,28.38,0,0,0-2,4.77c.81,2.21,1.55,4.46,2.2,6.73,0-3.34.44-6.84,2.24-9.28,3.43-4.64,7.23-.52,6.69,3.68s-5.64,6.68-7.87,9.55c.49,2.07.91,4.16,1.27,6.25,1-3.41,2-7.12,4.7-9.43s8-2,7.23,2.2c-.91,5.14-8.69,5.27-11.75,8.3.45,2.82.79,5.66,1,8.52a26,26,0,0,1,3.55-6.9c2.5-3.23,6.31-1.18,6.24,2.42-.1,5.15-6.68,5.77-9.52,8,.09,1.54.17,3.08.22,4.63.06,1.79.16,4.27.23,6.05,1.19-2.86,3.07-6.37,4.9-7.57,3.78-2.48,7,.95,4.57,4.61-2.3,3.48-7,3.3-9.35,6.07.12,2.5.28,5,.52,7.48,2-4.23,6.41-8.36,10.21-8.65,4.17-.32,5.62,3.06,2.75,6-2.07,2.1-9.54,2.94-12.69,5.31a82,82,0,0,0,1.44,8.5c.33,1.45-1.93,2.21-2.36.79a52.91,52.91,0,0,1-1.42-6.1c-.24-2.69-2.48-3.15-4.52-4-2.34-1-13.9,2.5-10.46-6.35,2.91-7.48,11,1.16,14.34,5.74-.19-1.76-.33-3.52-.43-5.3a7.73,7.73,0,0,0-3.89-4.19c-3.57-2-18.4-2-16-9.14,3.7-11.11,17.84,6.89,19.84,12-.15-3.06-.34-10.36-.36-10.94a10.32,10.32,0,0,0-4.62-3.87c-2.28-1-9.74-3.42-7.91-7.51s7.36.5,8.46,2.17a36.36,36.36,0,0,1,4,7c-.16-3.2-.39-6.38-.74-9.53-6.6-6.28-20.31-6-16.53-12.21,4.28-7.07,10.15,6.71,16.38,11A99.64,99.64,0,0,0,107.07,424c-.8-.39-2-1.4-3.5-2.1-3.45-1.58-10.6-1.53-11-5.55-.59-5.53,4.43-4.91,7.4-2.89,3.27,2.23,4.81,5.5,6.68,8.69l0-.13a108.41,108.41,0,0,0-3.31-10.69c-4.61-2.44-17.31-1.14-13.75-7.91,2.77-5.26,10.62,3,13.41,7q-1.92-5.13-4.33-10.06c-.59.25-1.6-.63-3.83-.93-3.11-.42-9.32-.25-9.76-4.52-.31-3,4.57-2.56,6.72-1.62,2.43,1.06,4.17,3.78,6.08,5.5-.34-.67-3.85-7.08-5.39-9.54-4.8-1.84-18.32-3.73-16.13-8.46,2.46-5.32,11,2.88,15.25,7.06-.53-.82-4.67-7-5.73-8.43a37.15,37.15,0,0,1-11.41-7.62C71.85,369.19,68.3,361.8,77.47,359.22Z"/><path class="cls-34" d="M86.7,450.87c20.68-1.56,25.64,15.34,25.17,16.65-8.17,2.89-17.27,2.66-31.83-7.6-7.83-5.51-13.29-14.39-13.63-14.94C70.4,448.37,79.73,451.4,86.7,450.87Z"/><path class="cls-35" d="M62.51,477.53h157.6s.19-14-13.28-13.74-16.21,5.82-16.21,5.82,16.8-25.87,3.12-25.09-21.87,9.59-26.75,1.19-11.83-18.37-18.61-6.66-1.51,22.46-9.12,20.7-19.16-8.56-19.93,1.29c0,0-17.37-2.07-14,5.55S74,466.2,62.51,477.53Z"/></g><g id="plant-2" data-name="plant"><path class="cls-19" d="M543.7,380.77c1.37,34.6,23.15,90.15,44.15,83.65,5.53-1.71-1.58-27.5-21.89-50.19C551.24,397.8,547.39,385.78,543.7,380.77Z"/><path class="cls-32" d="M605.75,460.09c-.13,2.18,30.09,5,44.1-17.87,10.91-17.78,17.69-19.37,23.54-22.53C633.65,419,606.09,454.38,605.75,460.09Z"/><path class="cls-27" d="M616.56,413.12c-.19-1.86,1.7-15.23-.32-25.72-4.14,4.05-19.49,56.33-19,64.82.18,3.12-1.65,11.74,4.9,13.29,6.92,1.64,19.68-15.05,24.2-26.57,14.95-38.08,4.2-36.47,16.66-58.13C638,384.42,619.17,406.3,616.56,413.12Z"/><path class="cls-19" d="M624.55,398.38c-2.51,3.64-3.66,7.95-6.12,11.51-2,2.88-1.78,6.49-3.19,9.25-1.51,3-4.15,4.5-4.31,8.67-.08,1.94.42,3.56.24,5.32-.22,2.2-1.14,4.22-1.17,6.57,0,1.63.49,3.2.53,4.76.13,4.37-6.83,11.55-1.25,15.54-.31,3.7.36,5,2.27,5.07,4.07.12,3.93-4,4.72-6.31.92-2.64,3.91-4.37,4.2-8,.15-1.87-.93-4.07-.73-5.77.15-1.28,1.34-2,2-3.05,1.74-2.77,1.81-6,1.63-9.12-.11-1.86-1.57-4.82-1.34-6.48.43-3.21,3.7-4,2.7-8.64-.3-1.4-1.49-3.09-1.46-4.52s1-2.4,1.46-3.71C626.1,405.87,624.59,402.09,624.55,398.38Z"/><path class="cls-36" d="M609.05,451.38c-3.89-.15-8.82,3.53-11.41,7.59.05-2.56.19-5.11.36-7.68,2.77-2.53,7.48-1.79,10.24-5.06,2.89-3.44,0-7.31-4.11-5.23-2,1-4.33,4.35-5.89,7.12.15-1.82.34-4.35.49-6.18.13-1.58.24-3.16.32-4.73,3.17-2,9.93-1.83,10.64-7.06.5-3.66-3.13-6.19-6.06-3.21a26.86,26.86,0,0,0-4.42,6.6c.08-2.94.07-5.86-.05-8.78,3.47-2.73,11.4-1.94,12.94-7.06,1.25-4.18-4.07-5.15-7.1-3.09s-4.49,5.69-5.9,9c-.11-2.18-.3-4.35-.55-6.51,2.61-2.66,8.06-4.46,9.14-8.79s-2.33-8.84-6.37-4.53c-2.13,2.27-3,5.78-3.38,9.17-.39-2.39-.88-4.76-1.44-7.11a30.45,30.45,0,0,1,2.56-4.61c1.3-1.87,3.21-3.67,3-6-.37-4.1-3.53-2-4.95.68a15.73,15.73,0,0,0-1.43,6.77c-.71-2.62-1.89-6.58-2.79-9.13,1.37-4.2,11.78-12.29,4.26-12.8-3.57-.25-5,6.78-5.08,11-.55-1.39-1.9-4.59-2-4.81,1.24-3.44,7.3-14,2.15-14.61-4.08-.46-4.05,6.36-3.72,9.72,0,.43.07,1.05.13,1.71-1-2.09-2-4.18-3.14-6.25a18.86,18.86,0,0,0,2.33-4.74c.39-1.25,1.57-6.72-1.84-4.82-1.3.72-1.86,4.63-1.69,7.4-.83-1.45-1.71-2.86-2.62-4.24-5-10.6-.07-24-8.19-22.69-9.63,1.53-6.89,9.47-4.59,12.44a37.7,37.7,0,0,0,10.7,9.11c.91,1.54,4.39,8.36,4.83,9.25-3.83-4.75-11.55-14.11-14.68-9-2.78,4.55,10.74,8.07,15.41,10.51,1.27,2.69,4.09,9.62,4.35,10.35-1.74-2-3.19-4.95-5.53-6.32-2.08-1.21-7-2.23-7,.85-.06,4.4,6.28,5,9.39,5.76,2.24.57,3.16,1.59,3.79,1.4q1.86,5.3,3.21,10.75c-2.37-4.36-9.38-13.72-12.81-8.7-4.43,6.47,8.65,6.65,13.05,9.68.88,3.71,1.59,7.47,2.1,11.27v.13c-1.52-3.46-2.71-7-5.77-9.62-2.78-2.41-7.81-3.64-7.87,2.05,0,4.15,7.24,4.94,10.56,7,1.47.9,2.54,2.06,3.31,2.55a102.94,102.94,0,0,1,.58,10.67c-5.83-5.09-10.17-19.81-15.36-13.13-4.58,5.89,9.4,7.22,15.37,14.38,0,3.26-.16,6.51-.38,9.78a36.77,36.77,0,0,0-3.21-7.54c-.92-1.83-6-7.2-8.35-3.21s5,7.29,7.16,8.57a10.64,10.64,0,0,1,4.23,4.48c0,.61-.71,8.05-.92,11.18-1.43-5.4-13.69-25.39-18.77-14.53-3.26,7,11.83,8.7,15.21,11.2a8,8,0,0,1,3.47,4.73c-.11,1.81-.18,3.63-.2,5.44-2.87-5.06-10.06-14.81-13.9-7.54-4.55,8.59,7.63,6.4,9.89,7.7,2,1.14,4.19,1.87,4.12,4.64a54,54,0,0,0,.72,6.36c.27,1.51,2.65,1,2.49-.51a87.17,87.17,0,0,1-.45-8.83c3.48-2,11.18-2,13.53-3.89C614.41,455.16,613.33,451.55,609.05,451.38Z"/><path class="cls-37" d="M549.28,473.83s4.37-12.91,14.47-8.75c0,0,5.06-16.35,17.46-3.57s8.59-14.66,20.95-12.2,8.68,11.89,8.68,11.89,11.77-6.07,9.22,4.43c0,0,27.77-13.85,28.23-2.14,0,0,18.6-3.44,15.39,6.2,0,0,10.79-2.75,10.79,4.14Z"/></g></g><g id="chair"><polygon class="cls-32" points="508.42 358.67 508.91 379.71 511.12 476.23 518.43 476.23 520.63 379.71 521.12 358.67 508.42 358.67"/><polygon class="cls-38" points="508.42 358.67 508.91 370.83 520.63 370.83 521.12 358.67 508.42 358.67"/><polygon class="cls-32" points="468.72 475.89 475.47 360.16 486.51 360.16 477.06 475.89 468.72 475.89"/><polygon class="cls-38" points="486.51 360.02 485.66 370.83 474.86 370.83 475.47 360.02 486.51 360.02"/><polygon class="cls-32" points="552.49 475.89 543.03 360.16 554.07 360.16 560.83 475.89 552.49 475.89"/><polygon class="cls-38" points="543.04 360.02 543.89 370.83 554.69 370.83 554.08 360.02 543.04 360.02"/><path class="cls-39" d="M469.56,348.31H560a0,0,0,0,1,0,0v10.8a5,5,0,0,1-5,5H474.56a5,5,0,0,1-5-5v-10.8A0,0,0,0,1,469.56,348.31Z" transform="translate(1029.55 712.41) rotate(180)"/><polygon class="cls-38" points="508.42 358.67 508.91 379.71 511.12 476.23 517.39 476.23 510.48 358.67 508.42 358.67"/><rect class="cls-40" x="465.23" y="356.21" width="99.1" height="7.9" rx="2.01" transform="translate(1029.55 720.31) rotate(180)"/><rect class="cls-40" x="465.23" y="356.21" width="99.1" height="7.9" rx="2.01" transform="translate(1029.55 720.31) rotate(180)"/></g><g id="discovery"><path class="cls-32" d="M293.56,477.85a39.8,39.8,0,0,1-27.06-10.22,68.5,68.5,0,0,1-7.13-7.75c-3.4-4.11-6.92-8.35-11.73-11-5.26-2.87-9.69-3.45-13.15-1.72-5.8,2.91-7.08,11.39-7.09,11.48l-1.35-.2c0-.37,1.39-9.28,7.82-12.5,3.89-1.95,8.75-1.36,14.43,1.74,5,2.76,8.64,7.1,12.12,11.3a68.8,68.8,0,0,0,7,7.6c22.05,19.54,53.6,7.26,73.59-12.41,33.68-33.17,41.78-77.31,47.7-123.42,2.15-16.8,6.26-35.93,20.41-50.38a32.84,32.84,0,0,1,5.11-4.37l.76,1.14a31,31,0,0,0-4.89,4.19c-13.86,14.16-17.91,33-20,49.59-5.94,46.37-14.1,90.75-48.09,124.22C328.83,468.08,310.8,477.85,293.56,477.85Z"/><path class="cls-41" d="M278.61,480.35c-27,0-38.63-16.61-46.29-27.6-4.25-6.1-7.33-10.51-11-9.16-10.71,3.89-9.06,16.27-9,16.79l-1.35.2c0-.14-1.9-14,9.87-18.28,4.69-1.71,8,3.07,12.61,9.67,7.51,10.76,18.84,27,45.17,27,13.19,0,27.33-8.12,39.83-22.87,25.33-29.88,47.4-91.92,33.36-176.44l1.35-.23c14.11,85-8.13,147.44-33.66,177.56C306.72,472.06,292.21,480.35,278.61,480.35Z"/><g class="cls-42"><path class="cls-41" d="M278.61,480.35c-27,0-38.63-16.61-46.29-27.6-4.25-6.1-7.33-10.51-11-9.16-10.71,3.89-9.06,16.27-9,16.79l-1.35.2c0-.14-1.9-14,9.87-18.28,4.69-1.71,8,3.07,12.61,9.67,7.51,10.76,18.84,27,45.17,27,13.19,0,27.33-8.12,39.83-22.87,25.33-29.88,47.4-91.92,33.36-176.44l1.35-.23c14.11,85-8.13,147.44-33.66,177.56C306.72,472.06,292.21,480.35,278.61,480.35Z"/></g><path class="cls-43" d="M230.81,464.57h-8.17v-4.09a4.09,4.09,0,0,1,4.08-4.09h0a4.09,4.09,0,0,1,4.09,4.09Z"/><path class="cls-40" d="M230.81,464.57h-8.17v-4.09a4.09,4.09,0,0,1,4.08-4.09h0a4.09,4.09,0,0,1,4.09,4.09Z"/><path class="cls-43" d="M215.72,464.57h-8.17v-4.09a4.09,4.09,0,0,1,4.08-4.09h0a4.09,4.09,0,0,1,4.09,4.09Z"/><path class="cls-40" d="M215.72,464.57h-8.17v-4.09a4.09,4.09,0,0,1,4.08-4.09h0a4.09,4.09,0,0,1,4.09,4.09Z"/><path class="cls-44" d="M200.75,464h36.94a1.88,1.88,0,0,1,1.88,1.88V480a0,0,0,0,1,0,0H198.87a0,0,0,0,1,0,0V465.9A1.88,1.88,0,0,1,200.75,464Z"/><path class="cls-45" d="M378.59,272.69a2.79,2.79,0,0,1-.5,0,.68.68,0,0,1-.61-.75.69.69,0,0,1,.75-.61,7,7,0,0,0,5-1.8c1.93-1.85,2.78-5,2.54-9.27-.33-5.75,1.46-10.14,5-12.38a10.55,10.55,0,0,1,10.45-.22c5.8,3.22,4.1,11.67,4,12a.69.69,0,0,1-.81.53.7.7,0,0,1-.53-.82c0-.07,1.57-7.82-3.34-10.55a9.17,9.17,0,0,0-9.06.19c-2.21,1.39-4.76,4.44-4.38,11.14.27,4.73-.74,8.22-3,10.35A8.18,8.18,0,0,1,378.59,272.69Z"/><g class="cls-46"><path d="M378.59,272.69a2.79,2.79,0,0,1-.5,0,.68.68,0,0,1-.61-.75.69.69,0,0,1,.75-.61,7,7,0,0,0,5-1.8c1.93-1.85,2.78-5,2.54-9.27-.33-5.75,1.46-10.14,5-12.38a10.55,10.55,0,0,1,10.45-.22c5.8,3.22,4.1,11.67,4,12a.69.69,0,0,1-.81.53.7.7,0,0,1-.53-.82c0-.07,1.57-7.82-3.34-10.55a9.17,9.17,0,0,0-9.06.19c-2.21,1.39-4.76,4.44-4.38,11.14.27,4.73-.74,8.22-3,10.35A8.18,8.18,0,0,1,378.59,272.69Z"/></g><path class="cls-41" d="M412,273.1c-7.37,0-14.82-2.19-21-4-4-1.18-7.5-2.21-10-2.34-9.48-.49-17.16,5.73-17.24,5.79a.69.69,0,0,1-.87-1.06c.33-.27,8.18-6.66,18.18-6.1,2.66.15,6.21,1.19,10.32,2.4,11.29,3.31,26.74,7.86,37.79-2.26,8.69-7.95,9.32-15.06,7-19.07a6.73,6.73,0,0,0-7.8-3.31c-7.31,2.26-8,14.06-8,14.18a.66.66,0,0,1-.72.65.68.68,0,0,1-.65-.72c0-.52.75-12.87,9-15.42a8.1,8.1,0,0,1,9.4,3.94c2.57,4.46,2,12.27-7.28,20.77C424.65,271.46,418.34,273.1,412,273.1Z"/><g class="cls-42"><path class="cls-41" d="M412,273.1c-7.37,0-14.82-2.19-21-4-4-1.18-7.5-2.21-10-2.34-9.48-.49-17.16,5.73-17.24,5.79a.69.69,0,0,1-.87-1.06c.33-.27,8.18-6.66,18.18-6.1,2.66.15,6.21,1.19,10.32,2.4,11.29,3.31,26.74,7.86,37.79-2.26,8.69-7.95,9.32-15.06,7-19.07a6.73,6.73,0,0,0-7.8-3.31c-7.31,2.26-8,14.06-8,14.18a.66.66,0,0,1-.72.65.68.68,0,0,1-.65-.72c0-.52.75-12.87,9-15.42a8.1,8.1,0,0,1,9.4,3.94c2.57,4.46,2,12.27-7.28,20.77C424.65,271.46,418.34,273.1,412,273.1Z"/></g><path class="cls-47" d="M394.78,261.38h37.14a1.8,1.8,0,0,1,1.8,1.8v10.45a0,0,0,0,1,0,0H393a0,0,0,0,1,0,0V263.18A1.8,1.8,0,0,1,394.78,261.38Z"/><path class="cls-48" d="M394.78,261.38h37.14a1.8,1.8,0,0,1,1.8,1.8v10.45a0,0,0,0,1,0,0H393a0,0,0,0,1,0,0V263.18A1.8,1.8,0,0,1,394.78,261.38Z"/><polygon class="cls-40" points="402.78 255.1 402.78 261.81 405.15 261.96 408.75 254.42 407.39 253.57 404.75 258.49 404.25 255.03 402.78 255.1"/><polygon class="cls-49" points="417.69 253.57 417.69 261.81 421.28 261.81 423.52 254.15 422.3 253.88 419.6 257.96 418.5 253.57 417.69 253.57"/><polygon class="cls-40" points="417.69 253.57 417.69 261.81 421.28 261.81 423.52 254.15 422.3 253.88 419.6 257.96 418.5 253.57 417.69 253.57"/><path class="cls-50" d="M374.13,251.11h4.64a.53.53,0,0,1,.53.53v19.24a0,0,0,0,1,0,0H373.6a0,0,0,0,1,0,0V251.64A.53.53,0,0,1,374.13,251.11Z"/><path class="cls-51" d="M327.54,251.11h4.64a.53.53,0,0,1,.53.53v19.24a0,0,0,0,1,0,0H327a0,0,0,0,1,0,0V251.64A.53.53,0,0,1,327.54,251.11Z"/><path class="cls-52" d="M329.87,252.74h46.57a.47.47,0,0,1,.47.47v17.68a0,0,0,0,1,0,0H329.4a0,0,0,0,1,0,0V253.21A.47.47,0,0,1,329.87,252.74Z"/><path class="cls-40" d="M329.87,252.74h46.57a.47.47,0,0,1,.47.47v17.68a0,0,0,0,1,0,0H329.4a0,0,0,0,1,0,0V253.21A.47.47,0,0,1,329.87,252.74Z"/><path class="cls-53" d="M376.91,270.34h0L329.39,270a.35.35,0,0,1-.34-.34.34.34,0,0,1,.34-.34l31.95-1.11-31.95-.3a.35.35,0,0,1,0-.69l31.94-1.05-31.94-.35a.35.35,0,0,1,0-.69l31.95-1-31.95-.4a.37.37,0,0,1-.34-.34.35.35,0,0,1,.34-.35l31.94-.94-31.94-.46a.37.37,0,0,1-.34-.34.35.35,0,0,1,.34-.35l31.95-.89-31.95-.52a.34.34,0,0,1,0-.68l31.94-.84-31.94-.57a.34.34,0,1,1,0-.68l31.95-.78-31.95-.63a.34.34,0,0,1,0-.68l47.51-1.09a.33.33,0,0,1,.35.34.34.34,0,0,1-.33.35L345.6,255l31.32.61a.35.35,0,0,1,0,.69L345.6,257l31.31.55a.35.35,0,0,1,0,.69l-31.33.82,31.32.51a.34.34,0,0,1,.34.33.35.35,0,0,1-.33.35l-31.32.87,31.31.46a.34.34,0,0,1,.34.34.34.34,0,0,1-.33.34l-31.32.93,31.31.4a.34.34,0,0,1,.34.34.34.34,0,0,1-.33.34l-31.32,1,31.31.35a.34.34,0,0,1,.34.33.34.34,0,0,1-.33.35l-31.32,1,31.31.3a.34.34,0,0,1,.34.33.34.34,0,0,1-.33.35l-31.33,1.09,31.32.24a.34.34,0,1,1,0,.68Z"/><path class="cls-54" d="M350.83,251.11h4.64a.53.53,0,0,1,.53.53v19.24a0,0,0,0,1,0,0h-5.69a0,0,0,0,1,0,0V251.64A.53.53,0,0,1,350.83,251.11Z"/><path class="cls-40" d="M325,270.34h56a.41.41,0,0,1,.41.41v2.87a0,0,0,0,1,0,0H324.6a0,0,0,0,1,0,0v-2.87A.41.41,0,0,1,325,270.34Z"/><path class="cls-11" d="M448.26,242.69s-8-2.23-10.29-2.38-10.88,4.88-11.68,4.88-1.28,2.66,0,3.24,3.61-1.43,4.57,0,.74,3,2.86,3,2.08,3.5,3.46,3.34,2.07,1.81,4.46,1.23a73.14,73.14,0,0,1,8.21-1C447.53,247.26,448.26,242.69,448.26,242.69Z"/><path class="cls-12" d="M309.26,240.32h-2.79a1.52,1.52,0,0,0-1.52,1.52v0a1.52,1.52,0,0,0,.82,1.34v24.57a1.75,1.75,0,0,0,1.75,1.75h.69a1.75,1.75,0,0,0,1.76-1.75V243.21a1.52,1.52,0,0,0,.82-1.34v0A1.52,1.52,0,0,0,309.26,240.32Z"/><path class="cls-9" d="M305.53,240.65a4.93,4.93,0,0,0,2.34.39,4.85,4.85,0,0,0,2.33-.39,1.51,1.51,0,0,0-.94-.33h-2.79A1.55,1.55,0,0,0,305.53,240.65Z"/><path class="cls-55" d="M307.87,254.75c-.72,0-1.3-.19-1.32-.42v13.45a1,1,0,0,0,1,1h.69a1,1,0,0,0,1-1V254.33C309.17,254.56,308.59,254.75,307.87,254.75Z"/><path class="cls-10" d="M309.19,254.33c0,.23-.59.42-1.32.42s-1.32-.19-1.32-.42.59-.43,1.32-.43S309.19,254.09,309.19,254.33Z"/><path class="cls-56" d="M309.19,254.33c0,.23-.59.42-1.32.42s-1.32-.19-1.32-.42.59-.43,1.32-.43S309.19,254.09,309.19,254.33Z"/><g class="cls-57"><path class="cls-2" d="M306.53,243.39v24.39a.39.39,0,0,0,.78,0V243.39a.39.39,0,0,0-.78,0Z"/></g><path class="cls-12" d="M299.58,240.14h-2.79a1.53,1.53,0,0,0-1.53,1.53v0a1.5,1.5,0,0,0,.83,1.34v24.58a1.75,1.75,0,0,0,1.75,1.75h.69a1.75,1.75,0,0,0,1.75-1.75V243a1.49,1.49,0,0,0,.82-1.34v0A1.52,1.52,0,0,0,299.58,240.14Z"/><path class="cls-9" d="M295.85,240.47a4.81,4.81,0,0,0,2.33.4,4.86,4.86,0,0,0,2.34-.4,1.53,1.53,0,0,0-.94-.33h-2.79A1.53,1.53,0,0,0,295.85,240.47Z"/><path class="cls-58" d="M298.18,257.69c-.72,0-1.3-.14-1.32-.32v10.45a.89.89,0,0,0,1,.76h.69a.89.89,0,0,0,1-.76V257.37C299.49,257.55,298.9,257.69,298.18,257.69Z"/><path class="cls-10" d="M299.51,257.36c0,.19-.6.33-1.33.33s-1.32-.14-1.32-.33.59-.32,1.32-.32S299.51,257.18,299.51,257.36Z"/><path class="cls-56" d="M299.51,257.36c0,.19-.6.33-1.33.33s-1.32-.14-1.32-.33.59-.32,1.32-.32S299.51,257.18,299.51,257.36Z"/><g class="cls-57"><path class="cls-2" d="M296.85,243.21v24.4a.39.39,0,0,0,.77,0v-24.4a.39.39,0,0,0-.77,0Z"/></g><path class="cls-12" d="M289.89,240H287.1a1.53,1.53,0,0,0-1.52,1.53v0a1.52,1.52,0,0,0,.82,1.35v24.57a1.75,1.75,0,0,0,1.75,1.75h.69a1.75,1.75,0,0,0,1.75-1.75V242.86a1.53,1.53,0,0,0,.83-1.35v0A1.54,1.54,0,0,0,289.89,240Z"/><path class="cls-9" d="M286.16,240.3a5,5,0,0,0,2.34.39,5,5,0,0,0,2.33-.39,1.48,1.48,0,0,0-.94-.34H287.1A1.48,1.48,0,0,0,286.16,240.3Z"/><path class="cls-59" d="M288.5,254.39c-.73,0-1.31-.18-1.32-.41v13.45a1,1,0,0,0,1,1h.69a1,1,0,0,0,1-1V254C289.8,254.21,289.22,254.39,288.5,254.39Z"/><path class="cls-10" d="M289.82,254c0,.23-.59.42-1.32.42s-1.33-.19-1.33-.42.6-.42,1.33-.42S289.82,253.74,289.82,254Z"/><path class="cls-56" d="M289.82,254c0,.23-.59.42-1.32.42s-1.33-.19-1.33-.42.6-.42,1.33-.42S289.82,253.74,289.82,254Z"/><g class="cls-57"><path class="cls-2" d="M287.16,243v24.4a.39.39,0,0,0,.78,0V243a.39.39,0,0,0-.78,0Z"/></g><path class="cls-12" d="M280.21,239.79h-2.8a1.52,1.52,0,0,0-1.52,1.52v0a1.54,1.54,0,0,0,.82,1.35v24.57a1.75,1.75,0,0,0,1.76,1.75h.69a1.75,1.75,0,0,0,1.75-1.75V242.68a1.54,1.54,0,0,0,.82-1.35v0A1.52,1.52,0,0,0,280.21,239.79Z"/><path class="cls-9" d="M276.47,240.12a7.21,7.21,0,0,0,4.68,0,1.49,1.49,0,0,0-.94-.33h-2.8A1.49,1.49,0,0,0,276.47,240.12Z"/><path class="cls-60" d="M278.81,262.78a2.93,2.93,0,0,1-1.32-.16v5.22c0,.21.44.38,1,.38h.69c.53,0,1-.17,1-.38v-5.22A2.93,2.93,0,0,1,278.81,262.78Z"/><path class="cls-10" d="M280.13,262.62a5.53,5.53,0,0,1-2.64,0,5.21,5.21,0,0,1,2.64,0Z"/><path class="cls-56" d="M280.13,262.62a5.53,5.53,0,0,1-2.64,0,5.21,5.21,0,0,1,2.64,0Z"/><g class="cls-57"><path class="cls-2" d="M277.47,242.86v24.39a.39.39,0,0,0,.78,0V242.86a.39.39,0,0,0-.78,0Z"/></g><path class="cls-32" d="M317.58,246.87a.85.85,0,0,0,.86-.86v-.83a.85.85,0,0,0-.86-.86H269.1a.85.85,0,0,0-.86.86V246a.85.85,0,0,0,.86.86h1.36v24.2H269.1a.86.86,0,0,0-.86.86v.84a.86.86,0,0,0,.86.86h48.48a.86.86,0,0,0,.86-.86v-.84a.86.86,0,0,0-.86-.86h-1.36v-24.2ZM314,271.07H272.66v-24.2H314Z"/></g><g id="table"><polygon class="cls-32" points="420.49 480.01 434.61 283.44 423.48 283.44 411.92 480.01 420.49 480.01"/><polygon class="cls-38" points="422.87 293.37 433.88 293.37 434.62 283.78 423.48 283.78 422.87 293.37"/><polygon class="cls-32" points="358.01 480.01 359.29 283.44 348.15 283.44 349.44 480.01 358.01 480.01"/><polygon class="cls-38" points="348.15 283.78 348.37 293.37 359.07 293.37 359.29 283.78 348.15 283.78"/><polygon class="cls-32" points="269.75 480.01 283.87 283.44 272.74 283.44 261.18 480.01 269.75 480.01"/><polygon class="cls-38" points="272.13 293.37 283.14 293.37 283.88 283.78 272.74 283.78 272.13 293.37"/><polygon class="cls-32" points="514.78 480.01 503.23 283.44 492.09 283.44 506.21 480.01 514.78 480.01"/><polygon class="cls-38" points="503.23 283.78 492.09 283.78 492.83 293.37 503.83 293.37 503.23 283.78"/><path class="cls-61" d="M266.07,278.18H509.89a2.16,2.16,0,0,1,2.16,2.16v8.36a0,0,0,0,1,0,0H263.91a0,0,0,0,1,0,0v-8.36A2.16,2.16,0,0,1,266.07,278.18Z" transform="translate(775.96 566.88) rotate(180)"/><rect class="cls-48" x="263.91" y="278.18" width="248.15" height="5.26" transform="translate(775.96 561.62) rotate(180)"/><path class="cls-62" d="M258.7,279.55H517.26a3,3,0,0,0,3-3h0a3,3,0,0,0-3-3H258.7a3,3,0,0,0-3,3h0A3,3,0,0,0,258.7,279.55Z"/></g><g id="plant_3" data-name="plant 3"><path class="cls-63" d="M376.24,473.79s-.84-29.05-11.06-31.2-11.67,18.11,0,38.13Z"/><path class="cls-64" d="M371,477.27a.17.17,0,0,1-.17-.13c-4.87-19.6-7-26.8-7-26.88a.17.17,0,0,1,.12-.2.16.16,0,0,1,.21.11c0,.07,2.12,7.29,7,26.89a.19.19,0,0,1-.13.21Z"/><path class="cls-65" d="M379.78,480.72s15.57-14.77,9.73-21.92-20.43,5.24-24.33,21.92Z"/><path class="cls-64" d="M373.7,478.75l-.07,0a.16.16,0,0,1-.09-.22c3.86-8.75,11.4-15.71,11.47-15.78a.18.18,0,0,1,.25,0,.17.17,0,0,1,0,.24c-.08.07-7.56,7-11.39,15.68A.18.18,0,0,1,373.7,478.75Z"/><path class="cls-66" d="M366.6,480.72s-4-16.8-12-15.37,0,15.25,0,15.25Z"/><path class="cls-64" d="M358.74,478.63a.17.17,0,0,1-.17-.13l-2.67-9.77a.16.16,0,0,1,.12-.2.16.16,0,0,1,.21.11l2.68,9.78a.16.16,0,0,1-.13.2Z"/></g><g id="lady"><g id="head-2" data-name="head"><path class="cls-11" d="M244.17,76.62s-.67,38.71-6,39.73c-3.19.6-8.71-.75-8.71-.75l-1.27,12.64L205,125.69s4.35-11.79,4.67-15.19S210.18,68.23,244.17,76.62Z"/><path class="cls-6" d="M233.55,101.37s1.45-.18,2.41-2.51c0,0-.42,2.16-3.43,5.91s-3.08,8.92-8.86,9.56Z"/><path class="cls-7" d="M233.55,101.37s-6.12,13.74-9.88,13-2.9-1.84-5.66-1-7,1-8.4-2.48-6.76-14.52-6.33-22.94,2.27-21.32,7.51-24.22,18.9-1.63,18.9-1.63a18.89,18.89,0,0,1,11.33.35c6.23,2.13,4.68,8.36,5.17,9s2.75,5.89-2.06,6.94l0-1.74a2.4,2.4,0,0,0-1.61,1.74c-.47,1.5-1.22,8.74-4.4,9,0,0,.31,5.7-.75,5.88s-1.77-1.91-1.77-1.91-2.12-4-4.88-2.34S228.52,103.07,233.55,101.37Z"/><path class="cls-16" d="M244.17,76.62l0,1.74c4.81-1,2.56-6.31,2.06-6.94C246,76.51,244.17,76.62,244.17,76.62Z"/><path class="cls-16" d="M209.61,110.86c1.44,3.48,5.64,3.33,8.4,2.48s1.91.21,5.66,1,9.88-13,9.88-13c-4.46,1.51-5.38-8.06-3.59-11.42-1.05,1.17-2.86,2.91-3.74,2.18-1.27-1.06-8.81,1.17-12.11-6.59s7.55-9.88,0-11.26c-7.36-1.34-5.47-8.39-5.38-8.73-3.68,4.7-5.09,15.15-5.45,22.37C202.85,96.34,208.17,107.39,209.61,110.86Z"/><path class="cls-41" d="M211.35,74.71a2.16,2.16,0,0,1,1.56,2.58C212.49,79.35,210,89,206,88S211.35,74.71,211.35,74.71Z"/><path class="cls-7" d="M211.35,74.71s-.26-9.51-9-10.09-13.92,3.13-13.33,7.11c0,0-6.91,12.27,2.92,17s15.24-1.11,15.35-2.87S211.91,77.78,211.35,74.71Z"/><path class="cls-16" d="M189.05,71.73S182.14,84,192,88.78s15.24-1.11,15.35-2.87c0-.77.94-2.44,1.88-4.33-3.74,4.56-15.11,4.07-15.69-1.51s2.65-7.22-1.76-7.54,1.1-6.36,1.17-6.43C190.15,67.46,188.73,69.56,189.05,71.73Z"/><path class="cls-6" d="M229.41,115.6v-.85s6.62,2,8.71,1.6C238.12,116.35,236.46,117.13,229.41,115.6Z"/></g><g id="shoes-2" data-name="shoes"><path class="cls-7" d="M256.81,469.6c-6.79-.85-17-9-17-9l0-15.53-18.13,1,1.7,16.07s-3.4,18.86-2,19.71,42.2,1.91,43.19,0S263.61,470.45,256.81,469.6Z"/><path class="cls-67" d="M239.84,460.63s-3.77.75-3.63,1.46-12.82.12-12.82.12l-1.7-16.07,18.13-1Z"/><path class="cls-68" d="M221.41,481.92c1.41.85,42.2,1.91,43.19,0s-1-11.47-7.79-12.32a13.23,13.23,0,0,1-1.43-.27h0c-2.5.93-2.11,10.68-2.11,10.68a30.55,30.55,0,0,1-8.28.57c-5.38-.22-23.89-1.5-23.9-1.5C221,480.65,221.09,481.73,221.41,481.92Z"/><path class="cls-67" d="M166.42,449.69V464s-2.12,15.4-.85,16,12.11,1.2,17.1.67,12-2.55,13.07-2.55-.21-11-3.83-12.21a31.19,31.19,0,0,1-7.75-4.42l.43-11.81Z"/><path class="cls-7" d="M165.57,480c1.28.57,12.11,1.2,17.1.67s12-2.55,13.07-2.55-.21-11-3.83-12.21a31.19,31.19,0,0,1-7.75-4.42,18.86,18.86,0,0,1-7.22,2.93c-4.18.71-10.52-.39-10.52-.39S164.3,479.44,165.57,480Z"/><path class="cls-68" d="M165.57,480c1.28.57,12.11,1.2,17.1.67s12-2.55,13.07-2.55-.21-11-3.83-12.21a16.17,16.17,0,0,1-1.82-.74h0c2.05,1.08.22,11.49.22,11.49s-8.92,1.7-13.81,1.7a81.25,81.25,0,0,1-11.34-1.13C165.15,478.79,165.25,479.87,165.57,480Z"/></g><g id="pants-2" data-name="pants"><path class="cls-7" d="M246.48,223.53s0,84-2,109.41-2.83,117.83-2.83,117.83-13.84,6.86-19.79,2.34c0,0-9.88-63.42-8.39-81.65a411.8,411.8,0,0,0,1.27-45.69c-.42-9-3.61-53.47-3.61-53.47s-10.2,61.05-11.9,74.37-12.53,80.68-12.74,90.95A111.81,111.81,0,0,1,185,454.51s-15.51,5-19.76,0c0,0-3.18-57.44,1.91-93.91s14.73-103,14.73-103-1.7-26.69,8.5-42.41C205.39,192,246.48,223.53,246.48,223.53Z"/><path class="cls-8" d="M232.72,226.41s7.1,14.22,7.31,17.56S246,289.1,246,289.1l.52-65.57Z"/><path class="cls-8" d="M203.85,259.73s2.55,17.08.7,23.63-7.08,75.66-7.09,75.71c.83-5.54,1.47-9.91,1.78-12.4,1.7-13.32,11.9-74.37,11.9-74.37V261.37S205.83,261.64,203.85,259.73Z"/></g><g id="body-2" data-name="body"><path class="cls-9" d="M205.94,123c3.57.1,18.3-.26,34.59,6.11s14.73,11.41,16.85,14.63,22.09,42.87,22.09,42.87,14.9-4.82,21-6.37a27.42,27.42,0,0,0,9.68-4.39,6.87,6.87,0,0,1,3.34-4,13.18,13.18,0,0,1,4.78-1.41v3.08l8.95-1.81a8.3,8.3,0,0,0-.35,2.69,6,6,0,0,1,.47,3.3c-.33,1.16.42,2.16-.12,3.61s.22,2.41-.77,3.4-9,2.12-11.58,3.08-29.87,22.29-39,20.9-25.59-26.32-25.59-26.32-5,18.13-4.53,23.65.71,18.13.71,18.13-20,6.66-35.64,1.84-20.45-10.55-20.45-10.55,3.4-15.93,2.41-20.61-4.82-7.74-7.22-13.93-.57-34.22,3.54-42.43S201,122.88,205.94,123Z"/><path class="cls-10" d="M188,141.61c0-.08,0-.14,0-.22-3.3,10.54-4.59,33.94-2.41,39.52,2.4,6.19,6.23,9.26,7.22,13.93,0,0-1-17.13-2.69-25.49S185.94,151.39,188,141.61Z"/><path class="cls-10" d="M241.09,193.42c-2.4,7.65-5,12.19-8.64,12.61s7.09,4.25,7.51,7.86-7.23,13.23-7.24,13.25a82.62,82.62,0,0,0,13.76-3s-.29-12.6-.71-18.13,4.53-23.65,4.53-23.65l-10.76-19.1S243.5,185.78,241.09,193.42Z"/><path class="cls-12" d="M331.67,202.54l-8.09-14.91.23-18.28a3.14,3.14,0,0,0,1.86-3.08v0c0-1.77-1-3.22-2.33-3.24l-4.35-.05c-1.31,0-2.39,1.4-2.41,3.17v0a3.13,3.13,0,0,0,1.78,3.12l-.24,18.28-8.47,14.7c-1.62,2.82-.18,6.9,2.46,6.93l16.92.22C331.66,209.44,333.22,205.4,331.67,202.54Z"/><path class="cls-9" d="M317.52,163.62c.43.48,1.88.85,3.63.87s3.2-.31,3.65-.78a2.06,2.06,0,0,0-1.46-.72l-4.35-.05A2,2,0,0,0,317.52,163.62Z"/><path class="cls-69" d="M330.69,203.51l-3.76-6.92c0,.53-2.79.93-6.21.89s-6.17-.52-6.18-1l-3.94,6.83a3.39,3.39,0,0,0-.22,2.79,2,2,0,0,0,1.75,1.51l16.92.21a2,2,0,0,0,1.79-1.45A3.44,3.44,0,0,0,330.69,203.51Z"/><ellipse class="cls-70" cx="320.73" cy="196.51" rx="0.97" ry="6.2" transform="translate(120.1 514.68) rotate(-89.26)"/><ellipse class="cls-9" cx="320.73" cy="196.51" rx="0.97" ry="6.2" transform="translate(120.1 514.68) rotate(-89.26)"/><path class="cls-15" d="M320.29,188.44s-8,15.72-5.47,16.74S320.29,188.44,320.29,188.44Z"/><path class="cls-11" d="M326.5,184.72c1-1,.24-1.95.77-3.4s-.21-2.45.12-3.61a6,6,0,0,0-.47-3.3c-.21-.63.81-1.06.35-2.69s-3.49-1.68-3.49-1.68a4.84,4.84,0,0,1-.22,1.42c-.25.78-5.24,2.07-5.24,2.07v-3.08a13.18,13.18,0,0,0-4.78,1.41,6.87,6.87,0,0,0-3.34,4,25.11,25.11,0,0,1-6.4,3.36c0,.14,4.39,7.32,3.08,13.91,4.17-2.86,7.26-5,8-5.34C317.47,186.84,325.5,185.71,326.5,184.72Z"/></g></g></g></g></g></svg>