<svg xmlns="http://www.w3.org/2000/svg" xmlns:xlink="http://www.w3.org/1999/xlink" viewBox="0 0 720 504"><defs><style>.cls-1{fill:#fff;}.cls-2{fill:url(#linear-gradient);}.cls-3{fill:#fe845a;}.cls-26,.cls-34,.cls-4,.cls-6,.cls-9{fill:none;}.cls-34,.cls-4,.cls-6,.cls-9{stroke:#231f20;stroke-miterlimit:10;}.cls-26,.cls-34,.cls-4,.cls-9{stroke-linecap:round;}.cls-4{stroke-width:1.3px;}.cls-5{fill:url(#linear-gradient-2);}.cls-6{stroke-width:1.23px;}.cls-7{fill:url(#linear-gradient-3);}.cls-8{fill:#f59059;}.cls-9{stroke-width:1.13px;}.cls-10{fill:#c7ccd1;}.cls-11{fill:#483e6b;}.cls-12{fill:#413b8a;}.cls-13{fill:url(#linear-gradient-4);}.cls-14{fill:url(#linear-gradient-5);}.cls-15{fill:#1f0d52;}.cls-16{fill:#2e89ff;}.cls-17{fill:#201851;}.cls-18{fill:url(#linear-gradient-6);}.cls-19{fill:url(#linear-gradient-7);}.cls-20{fill:url(#linear-gradient-8);}.cls-21{fill:url(#linear-gradient-9);}.cls-22{fill:#231f20;}.cls-23{fill:url(#linear-gradient-10);}.cls-24{fill:url(#linear-gradient-11);}.cls-25{fill:#f55662;}.cls-26{stroke:#1e2150;stroke-linejoin:round;stroke-width:0.4px;}.cls-27{fill:#4a5a9c;}.cls-28{fill:#f79f81;}.cls-29{fill:#d17a62;}.cls-30{fill:#403882;}.cls-31{fill:#c8c8c8;}.cls-32{fill:#ececec;}.cls-33{fill:#0b0d09;}.cls-34{stroke-width:0.46px;stroke-dasharray:1.84;}.cls-35{fill:#1c1058;}.cls-36{fill:#fda181;}.cls-37{fill:#e1e7ef;}.cls-38{fill:#232059;}.cls-39{fill:#ffc861;}.cls-40{fill:#d17e2c;}.cls-41{fill:#726fc1;}.cls-42{fill:url(#linear-gradient-12);}.cls-43{fill:#f69e80;}.cls-44{fill:#403881;}.cls-45{fill:#f59d80;}.cls-46{fill:#1150bf;}.cls-47{fill:#094081;}.cls-48{opacity:0.2;fill:url(#linear-gradient-13);}.cls-49{fill:#c45;}</style><linearGradient id="linear-gradient" x1="529.86" y1="45.19" x2="594.08" y2="202.27" gradientTransform="matrix(-1, 0, 0, 1, 1137.34, 0)" gradientUnits="userSpaceOnUse"><stop offset="0.05" stop-color="#fbd15b"/><stop offset="1" stop-color="#f9a45a"/></linearGradient><linearGradient id="linear-gradient-2" x1="568.93" y1="295.08" x2="511.4" y2="182.11" gradientTransform="matrix(-1, 0, 0, 1, 1137.34, 0)" gradientUnits="userSpaceOnUse"><stop offset="0" stop-color="#1252c4"/><stop offset="1" stop-color="#3f87fe"/></linearGradient><linearGradient id="linear-gradient-3" x1="253.93" y1="266.21" x2="167.5" y2="96.1" gradientTransform="matrix(-1, 0, 0, 1, 347.92, 0)" gradientUnits="userSpaceOnUse"><stop offset="0" stop-color="#f69a5e"/><stop offset="0.29" stop-color="#faac60"/><stop offset="0.71" stop-color="#fec062"/><stop offset="1" stop-color="#ffc763"/></linearGradient><linearGradient id="linear-gradient-4" x1="375.85" y1="459.41" x2="424.58" y2="404.08" gradientUnits="userSpaceOnUse"><stop offset="0" stop-color="#ff9d5c"/><stop offset="1" stop-color="#ffc961"/></linearGradient><linearGradient id="linear-gradient-5" x1="377.16" y1="442.24" x2="308.8" y2="400.28" gradientTransform="matrix(1, 0, 0, 1, 0, 0)" xlink:href="#linear-gradient-2"/><linearGradient id="linear-gradient-6" x1="352.46" y1="463.68" x2="352.46" y2="346.26" xlink:href="#linear-gradient-4"/><linearGradient id="linear-gradient-7" x1="370.77" y1="454.89" x2="329.83" y2="440.33" xlink:href="#linear-gradient-4"/><linearGradient id="linear-gradient-8" x1="315.27" y1="442.89" x2="472.87" y2="442.89" gradientTransform="matrix(1, 0, 0, 1, 0, 0)" xlink:href="#linear-gradient-2"/><linearGradient id="linear-gradient-9" x1="124.88" y1="464.49" x2="132.98" y2="435.64" gradientTransform="matrix(-1, 0, 0, 1, 252, 0)" gradientUnits="userSpaceOnUse"><stop offset="0" stop-color="#f8a034"/><stop offset="1" stop-color="#ffc546"/></linearGradient><linearGradient id="linear-gradient-10" x1="123.25" y1="465.55" x2="113.18" y2="444.69" gradientTransform="matrix(-1, 0, 0, 1, 252, 0)" gradientUnits="userSpaceOnUse"><stop offset="0" stop-color="#fcb72c"/><stop offset="1" stop-color="#ffcf44"/></linearGradient><linearGradient id="linear-gradient-11" x1="136.07" y1="466.86" x2="139.66" y2="453.47" xlink:href="#linear-gradient-10"/><linearGradient id="linear-gradient-12" x1="435.86" y1="222.15" x2="397.69" y2="203.52" gradientTransform="matrix(1, 0, 0, 1, 0, 0)" xlink:href="#linear-gradient-2"/><linearGradient id="linear-gradient-13" x1="304.32" y1="259.75" x2="321.32" y2="259.75" gradientTransform="matrix(1, 0, 0, 1, 0, 0)" xlink:href="#linear-gradient-2"/></defs><g id="Layer_2" data-name="Layer 2"><g id="Layer_1-2" data-name="Layer 1"><rect class="cls-1" width="720" height="504"/><g id="trees"><ellipse class="cls-2" cx="566.52" cy="145.37" rx="44.62" ry="92.98"/><path class="cls-3" d="M542.45,67.06c-7,16.42-11.26,38-11.26,61.74,0,51.35,20,93,44.62,93,8.87,0,17.13-5.39,24.07-14.68-8.17,19.17-20.09,31.25-33.36,31.25-24.64,0-44.62-41.63-44.62-93C521.9,112.49,530.09,83.6,542.45,67.06Z"/><g id="TREE"><line class="cls-4" x1="565.91" y1="89.78" x2="565.91" y2="461.49"/><line class="cls-4" x1="565.91" y1="131.79" x2="548.52" y2="110.57"/><line class="cls-4" x1="565.91" y1="175.44" x2="548.52" y2="154.22"/><line class="cls-4" x1="565.91" y1="156.35" x2="583.3" y2="135.13"/><line class="cls-4" x1="565.91" y1="195.3" x2="583.3" y2="174.08"/><line class="cls-4" x1="565.91" y1="220.72" x2="548.52" y2="199.5"/></g><path class="cls-5" d="M579.83,173c-3.65,2.48-26.25,23.62-18.37,52.82s27.23,43.63,52.49,37.4S664.8,238,658.24,208.13,623.13,143.5,579.83,173Z"/><line class="cls-6" x1="606.77" y1="207.72" x2="606.77" y2="460.08"/><line class="cls-6" x1="606.77" y1="242.92" x2="591.38" y2="227.53"/><line class="cls-6" x1="606.77" y1="224.2" x2="619.78" y2="211.19"/><g id="TREE-2" data-name="TREE"><g id="tree-3" data-name="tree"><path class="cls-7" d="M162.76,238.92c-28.22-1.8-60.77-33.7-52.19-53.43s10.55-32.79,1.86-46.13c-7.88-12.09,21.54-63.33,10.38-83,4.17-4,9.94-6.16,15.27-4.34,6.76,2.3,10.12,9.76,12.25,16.58a156.59,156.59,0,0,1,5.32,23c1.14,7.43,1.94,15.42,6.75,21.2,5.27,6.35,14.18,8.52,20,14.32a21.88,21.88,0,0,1,6.09,18.87c-1,6-4.46,11.22-6.92,16.76s-3.88,12.24-.86,17.5c2.66,4.63,8,6.92,11.75,10.75,4.76,4.89,6.53,12.19,5.68,19s-4.08,13.06-8.15,18.54a62.28,62.28,0,0,1-7.06,8A56.93,56.93,0,0,1,162.76,238.92Z"/><path class="cls-8" d="M134.93,267.56c-6-13-27.71-22-36.1-29.21-8.85-7.57-17-17.73-18.64-29.59-1.9-13.28,5.36-20.38,11.47-30.81,10.11-17.27-10.34-34.22-3.41-51.56,3.57-8.94,14.07-12.93,19.73-20.72,4.52-6.23,5.53-14.27,6.16-21.94s1.1-15.66,4.82-22.4a20.77,20.77,0,0,1,3.85-4.94c11.16,19.64-18.26,70.88-10.38,83,8.69,13.34,6.72,26.4-1.86,46.13s24,51.63,52.19,53.43A56.93,56.93,0,0,0,183,236.55a63.31,63.31,0,0,1-13.5,9.9C157.48,253,142.64,256.28,134.93,267.56Z"/></g><line class="cls-9" x1="134.88" y1="102.27" x2="134.88" y2="464.19"/><line class="cls-9" x1="134.88" y1="151.67" x2="154.91" y2="126.71"/><line class="cls-9" x1="134.88" y1="203" x2="154.91" y2="178.04"/><line class="cls-9" x1="134.88" y1="180.55" x2="114.85" y2="155.59"/><line class="cls-9" x1="134.88" y1="226.34" x2="114.85" y2="201.39"/><line class="cls-9" x1="134.88" y1="256.23" x2="154.91" y2="231.28"/></g></g><g id="shadow"><path class="cls-10" d="M513.27,470.39c0,1.72-23.35,4.85-52.17,4.85s-51.65-2.12-51.65-3.84S432.29,469,461.1,469,513.27,468.66,513.27,470.39Z"/><path class="cls-10" d="M241.66,469.77c-23.55,0-43.1.46-49.46,1.57H181.25c-28.81,0-51.65.69-51.65,2.42s22.84,3.84,51.65,3.84a362.92,362.92,0,0,0,37.59-1.85,16.63,16.63,0,0,1,2.45-.09c6.23.23,13.11.36,20.37.36,28.82,0,52.18-3.13,52.18-4.85S270.48,469.77,241.66,469.77Z"/></g><g id="grass"><g id="plants"><g id="plant"><path class="cls-11" d="M294.05,421.53c5.54-1.84,13.75-.28,16.87,5.43a27.5,27.5,0,0,1,5.72,3.67c-1.24-1.45-2.49-3.1-2.35-5.13.16-2.4,2.07-2.09,3.24-.8s.7,2.21.64,3.95c-.06,1.48.21,2.73.17,3.35.57.47,1.15.95,1.73,1.41l2.63,2.09c-.25-.45-.51-.88-.6-1.09-.93-1.94-2.27-4.29-2.11-6.69s2.32-3.66,3.93-2.06c1.36,1.35.08,3.64-.32,5.42a21,21,0,0,0-.26,4.92c1.49,1.15,3,2.29,4.52,3.39a14.57,14.57,0,0,1-2.53-5.92c-.34-3,2.63-2.8,4.13-1.63s1.11,3.42,1,5.4a22,22,0,0,0,.12,4.06c.8.57,1.6,1.12,2.41,1.67l1.89,1.26a10.66,10.66,0,0,1-1.4-5.14c0-1,0-2.8.88-3.38,1.14-.74,2.3.54,2.69,1.54,1,2.48-.46,5.93-.06,8.33q2.43,1.55,4.92,3a14.74,14.74,0,0,1-2.52-5.06c-.29-1.21-.24-2.78.68-3.58s2.5-.22,3.1,1a9.92,9.92,0,0,1,.64,4.08c.06,1.5.58,3.42.4,4.87.79.43,1.58.85,2.38,1.26l.45.21c-.27-.5-.49-1-.65-1.37a5.74,5.74,0,0,1-.54-3.72c.33-1.28,1.59-2.37,2.62-1.92.86.38,1.18,1.62,1.09,2.71s-.46,2.17-.56,3.27a9.63,9.63,0,0,0,.11,2c1.83.84,3.68,1.6,5.54,2.34a15.43,15.43,0,0,1-1.5-4.37,5.05,5.05,0,0,1,.5-3.07,1.93,1.93,0,0,1,2.4-1c.83.46,1,1.73.85,2.82-.11.68-.59,5.06-1,6.16,1.82.7,3.64,1.4,5.46,2.13.66.28.4,1.44-.33,1.3a39.8,39.8,0,0,1-7.37-2.17,20.53,20.53,0,0,0-1.84,1.42c-.84,1-1.46,2.29-2.36,3.25s-2.28,1.55-3.25.86a1.6,1.6,0,0,1-.59-.82c-.34-1.09.49-2.3,1.34-3.05a10,10,0,0,1,4.95-2.37c-1.5-.65-3-1.34-4.44-2l-.48.09a5.39,5.39,0,0,0-2.26.83,9.56,9.56,0,0,0-1.43,1.54,11,11,0,0,1-2.14,2,3.86,3.86,0,0,1-2.73.89,2,2,0,0,1-1.56-2.21,3.12,3.12,0,0,1,1.25-1.84,9.46,9.46,0,0,1,5.61-2,15.76,15.76,0,0,1,2.57.13q-2.78-1.38-5.48-2.94a7,7,0,0,0-2.22,1.21l-2.76,2.15a10.69,10.69,0,0,1-2.81,1.75,4.36,4.36,0,0,1-4.47-.91,2.12,2.12,0,0,1-.78-1.79,2.67,2.67,0,0,1,1.47-1.79,14.07,14.07,0,0,1,6.18-2,20,20,0,0,1,3.09,0q-2.42-1.47-4.77-3a14.25,14.25,0,0,0-6.18,1.56c-1.14.62-2.21,1.41-3.36,2a5.4,5.4,0,0,1-3.59.7,2.08,2.08,0,0,1-1.71-2.14,2.71,2.71,0,0,1,.35-1c1.17-2.1,3.57-2.76,5.66-2.83a22.6,22.6,0,0,1,7.5.81c-2-1.39-4-2.83-5.93-4.33a12.38,12.38,0,0,0-4,1.46,44.18,44.18,0,0,1-6.4,3.16,5,5,0,0,1-4.2-.16,1.13,1.13,0,0,1-.49-.5,1.62,1.62,0,0,1,.24-1.38,6.44,6.44,0,0,1,2.54-2.27,13.85,13.85,0,0,1,7.82-1.49,21.62,21.62,0,0,1,3.84.69c-1.87-1.45-3.73-2.93-5.56-4.45l-.38-.32c-1.35.88-2.79,1.64-4.16,2.44s-2.91,1.65-4.34,1.25a1.86,1.86,0,0,1-1.12-.83,2.58,2.58,0,0,1,.32-2.59,4.46,4.46,0,0,1,2.09-1.49,13.33,13.33,0,0,1,5-.68c-1-.9-2.09-1.8-3.16-2.65,0,0,0,.06,0,.09-2.14.94-4.07,2.62-6.23,3.46a6.08,6.08,0,0,1-5.08-.28,1.4,1.4,0,0,1-.86-1.21,1.74,1.74,0,0,1,.69-1.12,9.45,9.45,0,0,1,6.06-2.3,14.89,14.89,0,0,1,4,.32,19.42,19.42,0,0,0-6-3.06l-.07,0a15.62,15.62,0,0,0-4-.12c-1.65.19-3.3.59-4.95.67a6.84,6.84,0,0,1-4.66-1.23c-.94-.74-1.63-2.32-.85-3.42A2.65,2.65,0,0,1,294.05,421.53Z"/><path class="cls-12" d="M382.92,368.94c14.68,30.12,11.71,59.93,4.12,60.25-28.79,1.19-30.34-64.81-16.29-102.55C373,333.08,372.28,347.12,382.92,368.94Z"/><path class="cls-13" d="M403.69,412.67c15.3-13.46,15.7-20.25,17.76-26.4,7.3,38.12-22.18,70.52-27.62,71.8C391.75,458.55,384.06,429.94,403.69,412.67Z"/><path class="cls-14" d="M365.44,425.27c5.11,6.76,13.2,16.28,12.2,25.05-.35,3.13-4.46,8.79-7.2,6.21-8.39-4.91-44-12.12-58.32-47.9-3.28-8.17-5.06-24.61-25.6-37.16C313.56,373.05,351.8,407.27,365.44,425.27Z"/><path class="cls-15" d="M328.32,388.22c1.24,1.49,1.55,3.93,3.15,4.83,1.19.68,2.77.35,4.13,1.53a14.2,14.2,0,0,1,3,4c1.57,2.94,1.7,5.84,2.58,8.94.82,2.86,3.8,4,6.07,5.94a28.68,28.68,0,0,1,7.42,10.81c1,2.33,1.17,6.13,2.72,7.79,1.09,1.17,3,1.7,4.14,3a13.45,13.45,0,0,1,2.44,5.64c.92,4-1.51,6-5.18,6.54-4.33-1.92-11.8-6.21-13.89-10.86-.91-2-.18-2.24-1.8-3.27-2.76-1.75-5.59-2.19-7.4-5.28a20.21,20.21,0,0,1-2.58-8.18c-.13-2,.58-2.89-.58-4.45-1.83-2.47-4.36-3.69-5.75-6.65a23.49,23.49,0,0,1-1.73-6.63c-.22-1.51.32-2.53.32-3.86,0-2.38-2.4-3.78-3.37-6-1.06-2.45-1.27-5.43-1.48-8.08C323.37,383.59,326.62,386.18,328.32,388.22Z"/><path class="cls-16" d="M384.83,407.88c1-7.06,14.35-31.93,18.3-36.43-7.26,23.31,2.64,19.47-3.48,58.94-1.86,11.94-10.45,30.57-17.4,30.48-6.57-.08-6.66-8.68-7.5-11.62-2.27-8,1.21-61.07,4.29-65.81C383.21,393,384.25,406.15,384.83,407.88Z"/><path class="cls-17" d="M386.18,407.43c1.58-3.92,1.76-8.27,3.37-12.28.84,3.53,3.08,6.81,2.56,10.55-.19,1.35-.86,2.57-.61,3.84s1.78,2.73,2.36,4c1.94,4.19-1,5.66-.73,8.81.14,1.63,2.16,4.14,2.66,5.88.84,3,1.46,6,.39,9-.42,1.17-1.4,2.09-1.27,3.34.17,1.66,1.67,3.53,1.93,5.34.5,3.51-2,5.79-2.3,8.49-.27,2.35.76,6.27-3.15,7-1.83.35-2.75-.76-3.25-4.34C382,454.51,387.07,446.19,386,442c-.37-1.47-1.19-2.86-1.52-4.42-.47-2.23,0-4.36-.28-6.5-.21-1.71-1-3.15-1.37-5-.74-4,1.46-6,2.26-9.18C385.87,414,384.91,410.59,386.18,407.43Z"/><path class="cls-17" d="M367.09,426.48c.75.84,1.26,1.95,2,2.71a43.15,43.15,0,0,1-2.54-11.87c-.23-3.52-1.29-7.95-.43-11.41a44.59,44.59,0,0,1,6,9.4c2.19,4.39,4.35,8.82,6.51,13.22a130.62,130.62,0,0,1,7.62,20.58c.9,3,4.28,9.51,1.26,12.21a2.71,2.71,0,0,1-3.24.52c-1.54-1-2.79-2.74-4-4.07a48.5,48.5,0,0,1-8.74-12.4c-1.86-4-3.82-8-5.41-12.16-1.19-3.06-2.85-6.82-2.52-10.17C364.77,424.17,366,425.28,367.09,426.48Z"/><path class="cls-18" d="M330.23,346.5c7.73-2.18,4.49,11.37,10.51,21.07,1,1.24,2.05,2.52,3,3.82-.47-2.66-.37-6.51.81-7.36,3.09-2.23,2.57,3.2,2.33,4.46a19,19,0,0,1-1.72,4.87c1.31,1.87,2.56,3.79,3.75,5.7-.13-.64-.23-1.23-.32-1.64-.7-3.22-1.5-9.84,2.51-9.85,5.06,0,.38,10.94-.44,14.41.13.21,1.8,3.16,2.48,4.44-.38-4.09.21-11.06,3.69-11.22,7.35-.35-1.82,8.67-2.69,12.89,1.17,2.37,2.76,6.08,3.75,8.54a15.45,15.45,0,0,1,.62-6.73c1.08-2.76,3.9-5.15,4.72-1.22.47,2.28-1.17,4.24-2.22,6.2a28.66,28.66,0,0,0-2,4.76c.82,2.22,1.55,4.46,2.21,6.74,0-3.34.43-6.84,2.23-9.28,3.43-4.64,7.24-.53,6.69,3.68s-5.64,6.67-7.87,9.55q.75,3.1,1.27,6.25c1-3.41,2-7.13,4.7-9.43s8-2,7.23,2.19c-.91,5.14-8.69,5.28-11.75,8.31.45,2.82.79,5.65,1,8.51a26.28,26.28,0,0,1,3.55-6.9c2.5-3.22,6.31-1.17,6.24,2.43-.1,5.15-6.68,5.77-9.52,8,.1,1.54.17,3.08.22,4.63.07,1.79.16,4.27.23,6,1.19-2.85,3.07-6.37,4.9-7.56,3.78-2.49,7,.94,4.57,4.61-2.3,3.48-6.95,3.3-9.35,6.06.12,2.51.28,5,.52,7.49,2-4.23,6.41-8.36,10.21-8.65,4.17-.32,5.63,3.06,2.75,6-2.07,2.1-9.54,2.93-12.69,5.3a82.61,82.61,0,0,0,1.44,8.51c.33,1.44-1.92,2.21-2.36.78a50.27,50.27,0,0,1-1.41-6.09c-.25-2.69-2.49-3.15-4.53-4-2.33-1-13.9,2.5-10.46-6.35,2.91-7.48,11,1.16,14.34,5.74-.19-1.76-.33-3.53-.43-5.3a7.73,7.73,0,0,0-3.89-4.19c-3.56-2.05-18.4-2-16-9.14,3.7-11.12,17.84,6.89,19.84,12-.15-3.07-.34-10.36-.36-10.95a10.45,10.45,0,0,0-4.62-3.87c-2.28-1-9.74-3.42-7.91-7.5s7.36.5,8.46,2.17a36.28,36.28,0,0,1,4,6.95c-.16-3.19-.39-6.37-.74-9.53-6.6-6.27-20.31-6-16.53-12.2,4.28-7.07,10.15,6.71,16.38,11a102.66,102.66,0,0,0-1.76-10.28c-.81-.39-2-1.4-3.51-2.1-3.45-1.59-10.6-1.53-11-5.55-.59-5.53,4.43-4.91,7.4-2.89,3.27,2.23,4.81,5.5,6.68,8.69l0-.13c-.92-3.63-2-7.2-3.3-10.7-4.61-2.43-17.32-1.13-13.76-7.91,2.77-5.26,10.62,3,13.41,7q-1.92-5.13-4.33-10.06c-.59.25-1.59-.63-3.83-.93-3.11-.42-9.32-.25-9.76-4.52-.31-3,4.57-2.57,6.72-1.62,2.43,1.06,4.17,3.78,6.09,5.5-.35-.68-3.86-7.08-5.4-9.54-4.8-1.84-18.31-3.73-16.13-8.46,2.46-5.33,11,2.88,15.25,7.06-.53-.82-4.67-7.05-5.73-8.43a36.79,36.79,0,0,1-11.4-7.63C324.61,356.46,321.06,349.07,330.23,346.5Z"/><path class="cls-19" d="M339.46,438.15c20.68-1.57,25.64,15.33,25.17,16.65-8.16,2.89-17.27,2.65-31.83-7.6-7.83-5.51-13.29-14.39-13.63-14.94C323.16,435.65,332.49,438.68,339.46,438.15Z"/><path class="cls-20" d="M315.27,464.8h157.6s.2-14-13.28-13.73-16.21,5.82-16.21,5.82,16.8-25.87,3.13-25.09-21.88,9.59-26.76,1.18-11.82-18.37-18.61-6.65-1.5,22.46-9.12,20.7-19.16-8.56-19.93,1.28c0,0-17.36-2.06-14,5.56S326.79,453.48,315.27,464.8Z"/></g></g><g id="plant_3" data-name="plant 3"><path class="cls-21" d="M131.59,458s-.84-29.05-11.06-31.2-11.68,18.12,0,38.14Z"/><path class="cls-22" d="M126.3,461.49a.17.17,0,0,1-.16-.13c-4.88-19.6-7-26.8-7-26.87a.16.16,0,0,1,.12-.21.16.16,0,0,1,.21.11c0,.07,2.12,7.29,7,26.89a.18.18,0,0,1-.13.21Z"/><path class="cls-23" d="M135.12,465s15.57-14.78,9.74-21.93-20.44,5.24-24.33,21.93Z"/><path class="cls-22" d="M129,463H129a.19.19,0,0,1-.09-.23C132.75,454,140.28,447,140.36,447a.16.16,0,0,1,.24,0,.15.15,0,0,1,0,.23c-.07.07-7.56,7-11.39,15.68A.18.18,0,0,1,129,463Z"/><path class="cls-24" d="M122,465s-4-16.81-12-15.38,0,15.26,0,15.26Z"/><path class="cls-22" d="M114.08,462.85a.17.17,0,0,1-.16-.13L111.24,453a.17.17,0,0,1,.33-.08l2.68,9.77a.16.16,0,0,1-.12.2Z"/></g><path class="cls-16" d="M200,465s-.82-6.52,6.3-9.77,11.2.61,11.2.61-2-2.85.4-4.07,5.09,2.44,5.09,2.44-4-8.51,2.79-11.48,11.05,5.17,11.05,5.17,2.64-5.29,5.29-4.27a2.58,2.58,0,0,1,1.63,3.46,14.46,14.46,0,0,1,10.78.61,7.81,7.81,0,0,1,4.68,8.55s2.62-2.06,5.48-1a7.82,7.82,0,0,1,4.09,3.55s2.32-4.82,6.51-6.8a15,15,0,0,1,8.95-.81s-1-2.44.82-3.46,4.88,3.25,4.88,3.25,3.25-4.88,7.32-3.66.62,5.9.62,5.9,8.7-.65,9.84,6.39c0,0,6-.59,7.42,5.42Z"/><path class="cls-15" d="M276.44,464.89h53.47a3,3,0,0,0-3.47-1.84s1.5-1.36.55-1.77a3.11,3.11,0,0,0-2.32.41s-.54-3.95-5.71-5.31-6.4,1-6.4,1,.28-5.72-6.12-7.21-8.57,2-8.57,2-.95-2.32-2.31-1.5-.28,2.72-.28,2.72-2-1.09-2.72-.14.82,2.18.82,2.18-2.72-2.18-7.35.41-3.54,6.39-3.54,6.39A6.11,6.11,0,0,0,276.44,464.89Z"/><path class="cls-25" d="M609.41,455c-3.46-6.37-12.23-8.68-18.11-4.77A13.2,13.2,0,0,0,576,444.66a27.35,27.35,0,0,0-9.1-10.93,17.67,17.67,0,0,0-9.64-3.45,11.27,11.27,0,0,0-9.13,4.23c-2.89,3.82-2.78,9.19-2.54,14.07a9.2,9.2,0,0,0-9.78.43,10.43,10.43,0,0,0-4.16,9.37,5.17,5.17,0,0,0-6.36-.18,6.06,6.06,0,0,0-2,6.49H612A22.67,22.67,0,0,0,609.41,455Z"/><line class="cls-26" x1="549.35" y1="446.47" x2="555.93" y2="464.73"/><path class="cls-1" d="M554.61,442.07c.67,1-1.36,3.73-4.52,6.16s-6.27,3.61-6.94,2.64,1.36-3.72,4.53-6.15S554,441.11,554.61,442.07Z"/><path class="cls-27" d="M550.58,444.33c.19.27-.37,1-1.23,1.68s-1.71,1-1.89.72.37-1,1.24-1.68S550.4,444.07,550.58,444.33Z"/><line class="cls-26" x1="573.64" y1="446.47" x2="567.06" y2="464.73"/><path class="cls-1" d="M568.38,442.07c-.67,1,1.36,3.73,4.52,6.16s6.27,3.61,6.94,2.64-1.36-3.72-4.53-6.15S569,441.11,568.38,442.07Z"/><path class="cls-27" d="M572.41,444.33c-.18.27.37,1,1.23,1.68s1.71,1,1.89.72-.37-1-1.23-1.68S572.59,444.07,572.41,444.33Z"/><line class="cls-26" x1="558.98" y1="465.09" x2="561.56" y2="447.43"/><path class="cls-1" d="M567.06,447.67a5.51,5.51,0,1,1-5.5-5.82A5.67,5.67,0,0,1,567.06,447.67Z"/><path class="cls-27" d="M563.09,447.67a1.54,1.54,0,1,1-1.53-1.63A1.58,1.58,0,0,1,563.09,447.67Z"/></g><g id="man_3" data-name="man 3"><g id="head"><path class="cls-28" d="M454.66,138s-.39,24.95-4.93,30.93a1.25,1.25,0,0,1-1,.49h-4.15v4.77L422.24,178l2.39-12.16S415.15,129.49,454.66,138Z"/><path class="cls-29" d="M449.26,169.3c-1.67.11-4.67-3-4.67-3v3.14h4.15A1.31,1.31,0,0,0,449.26,169.3Z"/><path class="cls-30" d="M446.92,143.66s-1.73-2.27-4-1.66-2.79,6.9-1.66,9.43l-4.06,11s-3.62,4.59-12.61,3.47c0,0-7.51-17.21-7.9-24,0,0-1.83.81-1.74,0s3.23-6.88,3.23-6.88-1.23-2.79-.62-2.84,1.75,0,1.75,0,3.75-10.12,6.33-10.56,16.58,1.71,21.73,2,15.15,2,15.76,2.75-6.51,8.29-6.51,8.29,2.84.09,2.88.92-4.71,5.41-8.85,5.32c0,0-.33,1.71-1.31,2.1,0,0-1,4.21-1.66,4.19S446.92,143.66,446.92,143.66Z"/><path class="cls-29" d="M441.3,151.43s1,2.21,2.91,2.21c0,0-1.15.54-3.54-.5Z"/></g><g id="map"><polygon class="cls-31" points="523.79 235.63 558.12 157.36 538.22 164.76 523.79 159.75 508.66 164.76 495.74 154.4 473.63 218.76 498.88 232.14 523.79 235.63"/><polygon class="cls-32" points="499.87 229.15 477.42 217.26 497.24 159.57 508.03 168.22 523.73 163.03 538.29 168.06 552.35 162.81 521.89 232.24 499.87 229.15"/><path class="cls-33" d="M497.29,159.76,508,168.35l15.75-5.21,14.49,5L552.13,163l-30.31,69.1L499.89,229,477.56,217.2l19.73-57.44m-.11-.38-.11.31-19.73,57.44-.06.19.17.09,22.33,11.83,0,0h0l21.94,3.07.17,0,.07-.16,30.31-69.1.22-.5-.51.19-13.8,5.12-14.41-5-.08,0-.07,0-15.63,5.18-10.62-8.52-.26-.2Z"/><g id="man_2" data-name="man 2"><path class="cls-3" d="M499.93,174.42c1.16,2.09,3.2,4.13,2.68,5.29s-5.13,3-5.24,3.84,2.56,3.39,2.56,3.39,4.42,5.05,4.71,6,1.17,4.25,1.22,4.54,4.66-.53,4.66-.53l3.08.06a7.58,7.58,0,0,1,1.25-3.72c1.14-1.52,2.36-4,2.54-4s10.82.7,11.28.24-.4-.88,1.05-1.11,2.56-.35,2.56-.35.53-3.72,1.81-4.31,5.87-5.23,6.16-5.76a8.76,8.76,0,0,0,0-3.31c-.11-.35,5.84-9.45,5.84-9.45h0l-7.84,2.91-14.49-5L508,168.35l-6.26-5-1.47,6.83A4.29,4.29,0,0,0,499.93,174.42Z"/><path class="cls-3" d="M499.89,229l21.93,3.07,14-32a99.83,99.83,0,0,0-11.47-.84c-3,.23-1.75,2-2.64,3.41s-1.67,1.36-3.53,1.71-5.12,5.24-5.12,5.24-.7,13.27-.82,13.62-14.9-2.79-14.9-2.79l.47-9a34.39,34.39,0,0,0,1.4-3.84,9.19,9.19,0,0,0-.93-2.09l-.47-.12v-5c0-.25-8.12-7.91-10.92-10.55l-9.35,27.21Z"/></g><path class="cls-34" d="M521.29,167.42s-11.56,6-9,9.85,12.4,3.93,6.64,9.07-8.65,3.12-7.77,6.9,10.72,13.36,10.6,16.76-.44,3.93-.44,3.93"/><path class="cls-35" d="M521.29,156.87a4.07,4.07,0,0,0-4.07,4.07,7.19,7.19,0,0,0,1.94,4.68,9.82,9.82,0,0,0,1.93,1.74.36.36,0,0,0,.4,0,9.82,9.82,0,0,0,1.93-1.74,7.19,7.19,0,0,0,1.94-4.68A4.07,4.07,0,0,0,521.29,156.87Zm0,5.58a1.57,1.57,0,1,1,1.56-1.57A1.56,1.56,0,0,1,521.29,162.45Z"/></g><g id="shoes"><path class="cls-30" d="M469.82,454l-.71,16.41a1.66,1.66,0,0,0,1.67,1.73c6.73,0,31-.21,38.24-1.65a2.21,2.21,0,0,0,1.76-2.31c-.18-2.64-.8-7.5-2.95-8.51-3-1.4-10.35-3.41-14.46-5.55a34.94,34.94,0,0,1-7.48-5.51Z"/><path class="cls-36" d="M486,448.73s-1.79,2.57-1.4,3.58-8.48,3.23-14.73,1.66l-1-10.7,17.28-2.09Z"/><path class="cls-37" d="M470.78,472.11c6.73,0,31-.21,38.24-1.65a2.21,2.21,0,0,0,1.76-2.31c-.18-2.64-.8-7.5-2.95-8.51-1.05-.5-2.66-1.07-4.47-1.7a26.88,26.88,0,0,1,.95,9.59s-24.72,2.81-35.18,2.36l0,.49A1.66,1.66,0,0,0,470.78,472.11Z"/><path class="cls-36" d="M437.46,454.31l.79-5.94-18.16,1.23,0,6.39s4.69,7.63,4.86,7.63S437.14,459.61,437.46,454.31Z"/><path class="cls-30" d="M437.46,454.31s12.33,7.48,12.94,9.36,1.23,7.69.59,8-31.83.7-32.06,0,1.22-16,1.22-16,5.14,0,6.31.85,4.56,1.07,5.92,1.13,3.93-.28,4.12-1S437.46,454.31,437.46,454.31Z"/><path class="cls-37" d="M418.93,471.71c.23.7,31.42.35,32.06,0s0-6.16-.59-8c-.18-.55-1.37-1.58-2.95-2.76a31.81,31.81,0,0,1-.24,8.76H419A12,12,0,0,0,418.93,471.71Z"/></g><g id="pants"><path class="cls-30" d="M474,266s14.66,77,13.73,93.33-1.63,82.75-1.63,82.75-13.27,4.71-17.28,2.1c0,0-8.38-49.58-7.33-59.18S462.86,362,462.86,362l-15.19-46.08s-1.57,60.75-4.19,84.14-5.23,48.35-5.23,48.35-14.49,3.67-18.16,1.23c0,0-2.27-46.26-1.57-58.66s1.24-20.77.88-35.26-1-46.61-1-46.61-4.06-22.53-2.66-34.39,2.59-9.08,2.69-12.4S474,266,474,266Z"/><path class="cls-38" d="M457,273.66a22.69,22.69,0,0,0-4.38-10.11c-15.64-1.64-34.15-3.18-34.21-1.27-.1,3.32-1.3.54-2.69,12.4a68.31,68.31,0,0,0-.12,11.37C437.16,289,457,273.66,457,273.66Z"/><path class="cls-38" d="M437,304.65v.75l5.35,11L446,362.17c1.08-23.2,1.67-46.29,1.67-46.29l-2-6Z"/></g><g id="body"><path class="cls-28" d="M529.37,204.09l2.88-1.6s3.8-8.38,4.89-9.38,5.59-6.59,5.59-6.59c.7.26,1.39,1.83,1.39,1.83l2.19-4.06s2.27,9.34,2.31,9.56.09-.26,0,1-.13,6.76-.7,7.55-4.8,6.28-7.11,8-7.17,6.34-7.17,6.34Z"/><path class="cls-39" d="M403.57,194.9s6.4-14,10.24-15.48,26.3-6.34,32.35-6.26l6,.09s7.68.7,11.52,4.77,38.18,38.76,38.18,38.76l27.46-12.69s5.47,7,4.31,12.69c0,0-28.25,22.33-30.12,22.85-3,.83-9.24-3.06-9.24-3.06l-23.49-14L474,266s-19.32,11.65-36.9,11.12S416,276,416,276,401.35,207,403.57,194.9Z"/><polygon class="cls-40" points="470.83 222.6 457.01 212.97 472.27 242.46 470.83 222.6"/><path class="cls-40" d="M411.76,254.93C414.1,267,416,276,416,276s3.49.58,21.06,1.11c6.79.2,13.84-1.41,19.93-3.47l-17-81.15S423.48,228.89,411.76,254.93Z"/><path class="cls-28" d="M474.41,188.94s7.42-6.35,7.8-6.58,6.37-4.63,6.66-4.66.09,3.2-.64,4.19-2.85,3.26-3.08,4.43-3.61,9.86-3.61,9.86Z"/><polygon class="cls-29" points="475 188.44 482.47 193.76 481.54 196.18 474.41 188.94 475 188.44"/></g><g id="backpack"><path class="cls-30" d="M419.16,275s-22.9,0-23.68-2-2.69-22.78-2.13-24.27a8.78,8.78,0,0,1,2.73-3h22.34Z"/><path d="M407.08,192.51s5.1,4,5.45.29,8.1-15.25,8.1-15.25c-2.26.54-4.17,1-5.48,1.43C412.1,181.77,407.08,192.51,407.08,192.51Z"/><path class="cls-30" d="M439.09,189.91s15.45,74.7,14.52,78-22.69,10.37-22.69,10.37-29.91.92-31.19-1.76-7.92-70.64-6.06-74.71S437.91,185.94,439.09,189.91Z"/><path d="M428.69,189.1c-.09,1.52,7.33-.54,7.33-.54s8.69-14.5,13-15.35l-2.87-.05a47.89,47.89,0,0,0-6.76.69C435.13,177.24,428.78,187.58,428.69,189.1Z"/><path class="cls-41" d="M418.42,245.76H396.08a8.78,8.78,0,0,0-2.73,3,1.86,1.86,0,0,0-.07.38l22,.23Z"/><path class="cls-38" d="M453.61,267.87c.93-3.26-14.52-78-14.52-78s-19.17,2-20.57,12.82,12.4,75.51,12.4,75.51S452.68,271.13,453.61,267.87Z"/><path class="cls-38" d="M418.52,202.73l-23.89,26.34c.24,3,.5,6.12.77,9.23,0,0,19.37-5,21.29-6.74S418.52,202.73,418.52,202.73Z"/><path class="cls-42" d="M439.09,189.91s.29-1.91-8.44-1.38-27.23,4.45-28.8,5.58-9.78,4.19-10.21,11.61-3.48,27.5-2.92,27.67,26.66-2.18,27.88-6.54,1.22-21.27,1.92-24.12S423.88,192.52,439.09,189.91Z"/><polygon class="cls-37" points="410.84 205.2 410.27 211.44 396.96 213.01 397.27 206.77 410.84 205.2"/><path d="M405.08,222.89a83,83,0,0,0-.58,9.77c.18,3.11.27,4.25.27,4.25H399.2a57.19,57.19,0,0,1,0-13.32Z"/><path class="cls-38" d="M418.42,245.76l5.08,26.3L419.16,275s-4.07-23.39-3.84-25.61S418.42,245.76,418.42,245.76Z"/><polygon points="461.07 215.8 449.98 244.74 451.63 253.79 466.62 219.66 461.07 215.8"/></g></g><g id="head-2" data-name="head"><path class="cls-30" d="M285.31,225.37s3.42,2.06,2.26,4.13-9.74,14.66-8.84,18.09,15.79,11.76-4,20.28-57.08-13.37-54.8-20.1,4.79-15.63,9-15.21,6,4.16,12.34-8.66,12.13-16.17,25-14.9S290.18,213.66,285.31,225.37Z"/><path class="cls-38" d="M274.72,267.87c19.53-8.41,5.31-16.63,4-20.14-1.38-2.3-1.48-5.41,1.84-10.7,6.31-10.07,2-11.94,2-11.94s-16.4,12.66-24.13,12-13.44-9.77-13.44-9.77a46.84,46.84,0,0,0-3.35,9.82c-.9,4.7-19,.7-21.87,10.88C218.66,255.1,255.19,276.27,274.72,267.87Z"/><path class="cls-43" d="M278.63,220.88c-2.74-.2-6.13,1.58-9,5.71s-9.08,5.29-14.2,2.14c0,0-1.84,2.94-2.53,2.71s-.55-3.56-.55-3.56-2.65-4.06-5.89-2.11-2.1,8.18.81,11.09c-1.24,2-8.26,9.76-8.26,9.76s-11.78,19.46,1.27,24.32c8.24,3.07,15.89-16.2,15.89-16.2l1.42-3.24s1.64,1.65,6,2.07c5.41.53,16.9-23.85,19-28.48h0S281.37,221.08,278.63,220.88Z"/><polygon class="cls-29" points="257.62 251.5 253.65 248.41 256.73 253.16 257.62 251.5"/></g><g id="legs"><path class="cls-44" d="M234.23,411.71h0c-.77-15.9-8.3-39.26-8.3-39.26l33.45,17.07s11.24-19,24-17.47h0c-12-13.18-50.39-39.21-50.39-39.21s-14.22-16.6-51.46-4.86c0,0-7.82,20.15,0,31.3s24.85,52.43,24.85,52.43S224.28,404.93,234.23,411.71Z"/><path class="cls-38" d="M213.41,333.84a30.22,30.22,0,0,1,13.67-3.13c-.44-1.75-6.19-4.24-13.48-6.43-7.9-1.1-18.44-.61-32.09,3.7,0,0-.33.86-.79,2.32C186.84,331.88,207.27,336.83,213.41,333.84Z"/><polygon class="cls-38" points="225.93 372.45 220.97 354.71 239.85 379.56 225.93 372.45"/><path class="cls-45" d="M262.91,454.5s24.89-67.67,24-76.93c-.13-1.31-1.42-3.22-3.51-5.52-12.74-1.58-24,17.47-24,17.47S256,398.84,255,405.2s-1.59,25.55-6.48,47.83c-.59,2.67-1.23,7.06,0,8.62,2.27,2.91,25.3,1.47,25.3,1.47s-7.63-3.28-9.73-4.4S262.91,454.5,262.91,454.5Z"/><path class="cls-12" d="M263.39,453.18a5.36,5.36,0,0,0,2.74,5.82c3.62,1.82,17,5.7,17.84,7.76s-.23,5.66-.23,5.75a40.52,40.52,0,0,1-11.59,1.13c-5.92-.3-10.91-1.37-17.17-1.57s-9.34-1.71-9.44-2.54a92.16,92.16,0,0,1,3-16.5s2.83.85,3.29,1.51S260,457.69,260,457,261.47,452.47,263.39,453.18Z"/><path class="cls-37" d="M245.54,469.53c.1.83,3.18,2.35,9.44,2.54s11.25,1.27,17.17,1.57a40.52,40.52,0,0,0,11.59-1.13c0-.09,1.05-3.7.23-5.75-.4-1-3.79-2.44-7.58-3.86-3.08,1.88-3.31,8.62-3.31,8.62-3.46.06-10-.91-16.89-1.24a26.32,26.32,0,0,1-10.5-2.69A15,15,0,0,0,245.54,469.53Z"/><path class="cls-45" d="M149,444.29s.59,9.2,6.85,10.37c0,0,66.26-22,75.4-29.64,2.54-2.14,3.25-7.17,2.95-13.31h0c-9.95-6.78-27.87,0-27.87,0s-15.26,5.74-23.48,11.87S149,444.29,149,444.29Z"/><path class="cls-30" d="M146.27,469.1c2.35,1.8,11.24,3.91,14.62,4.66a17.13,17.13,0,0,0,.41-2c.39-2.59-2.89-4.31-4.73-5.27s-2.42-10.3-2.42-10.3c2.33-.49,2.4-1.42,2.4-1.42s-1.47-3-2.57-3.16-2.79-.77-3.26-1.58-.76-2.71-.4-3.2-1.29-2.57-1.29-2.57-6.27.77-10,1.53C140.29,451.56,143.9,467.27,146.27,469.1Z"/><path class="cls-37" d="M136.39,446.62c-.74.86,4.28,21.27,8.47,24.94,3.58,3.12,12.21,3.87,14.69,4a1,1,0,0,0,.95-.61,11,11,0,0,0,.39-1.21c-3.38-.75-12.27-2.86-14.62-4.66s-6-17.54-7.23-23.28A7.53,7.53,0,0,0,136.39,446.62Z"/><path class="cls-37" d="M161.3,471.79c.39-2.59-2.89-4.31-4.73-5.27a1,1,0,0,1-.33-.27s-3.88,0-7.09,4.26a100.63,100.63,0,0,0,11.74,3.25A17.13,17.13,0,0,0,161.3,471.79Z"/></g><g id="body-2" data-name="body"><path class="cls-46" d="M278.46,309.39c-.15,0-5.33-15.16-5.33-15.16l5.43-2.42L275,279.09l-6,1.15s-2.44-8.56-3.91-10.23-10.62-11.41-10.62-11.41-2.2,6.08-8.36,4.13S239,246.62,239,246.62s-17-3.19-27.77,4.25-17,32.3-19.76,44.63-10,32.48-10,32.48,21.33,7.43,33.85,3.91,17.61.95,17.61.95-1.17-7,1.57-12.69,10.07-14.38,10.07-14.38l10-3.33s10.86,21.23,14.67,22.89c3.55,1.55,27.87,1.83,38.28,1.47a114.41,114.41,0,0,1,3.24-11.66C301.1,313.5,278.58,309.39,278.46,309.39Z"/><path class="cls-43" d="M327.18,329.15c3.13.19,9.49.73,9.88.44s.36-1.64-.12-1.86a41.19,41.19,0,0,0,5.06.34c.83-.14.44-2.52-.22-2.64a21.57,21.57,0,0,0,3.3-.05,2.69,2.69,0,0,0-1.93-2.74,1.94,1.94,0,0,0-1.35-2.22c-.63-.17-6.21-.32-7-.44s-5.89-1.49-5.89-1.49a2.38,2.38,0,0,1,1.05-1.2c.69-.27,3.91-1.59,4.18-2.33a1.23,1.23,0,0,0-1.1-1.76c-1.1-.05-9.07,2-9.56,2.13a38.82,38.82,0,0,1-8.56.47c-.54-.06-2-.31-4.12-.66a114.41,114.41,0,0,0-3.24,11.66c.79,0,1.51-.06,2.13-.1C318.37,326.21,324.05,329,327.18,329.15Z"/><path class="cls-25" d="M283.12,294.31a1.51,1.51,0,0,1-1.09-2.53l21.42-22.95a1.5,1.5,0,0,1,2.2,2.05l-21.43,22.95A1.47,1.47,0,0,1,283.12,294.31Z"/><path class="cls-43" d="M275,279.09s.55,11.29,3.59,12.72c0,0,3.72-1.82,4.69-1.82s6.73-.09,7.46-.48,3.21-4.63,3.89-4.77,1.86-.71,2-1.37.83-2.23,1.93-2.57,2.28-2.13,2.72-3.13a1.25,1.25,0,0,0-.49-1.57s-1,.93-4.94,1a36.5,36.5,0,0,1-5.8-.14s3.13-3,3.48-4.62-.59-2.28-.89-2.18-5.75,4.15-9,5c-2.45.62-3.25,2.57-5.14,3.16A20.06,20.06,0,0,1,275,279.09Z"/><path class="cls-47" d="M223.58,309c-5-1.42-13-25-14.67-35.27,0,0,.68,34.34,2.83,36.88,1.7,2,16.61,7.28,22.88,9.43,2.79-5.67,10-14.22,10-14.22S228.57,310.37,223.58,309Z"/><polygon class="cls-47" points="254.59 302.44 273.13 294.23 274.76 298.98 256.73 306.5 254.59 302.44"/><path class="cls-47" d="M269,280.24l-34,6.55-.77-10.17s2.43,7.14,3.21,7.33S269,280.24,269,280.24Z"/><path class="cls-47" d="M259.19,263.67l-4.75-5.07s-2.2,6.08-8.36,4.13C246.08,262.73,253.77,266,259.19,263.67Z"/><path class="cls-25" d="M322.2,250.21c-1.77-1.8-4.44-2.4-7.51-1.7a17.24,17.24,0,0,0-8.16,4.84,17.64,17.64,0,0,0-4.75,8.3c-.7,3.12-.1,5.84,1.66,7.63a6.94,6.94,0,0,0,5.09,2A11,11,0,0,0,311,271a17.21,17.21,0,0,0,8.16-4.84,17.64,17.64,0,0,0,4.75-8.3C324.56,254.72,324,252,322.2,250.21Zm-1.1,7a14.75,14.75,0,0,1-4,6.9,14.33,14.33,0,0,1-6.78,4.06c-2.1.48-3.83.16-4.89-.92s-1.38-2.84-.9-5a14.75,14.75,0,0,1,4-6.9,14.41,14.41,0,0,1,6.78-4.06,7.72,7.72,0,0,1,1.78-.22,4.23,4.23,0,0,1,3.11,1.14C321.25,253.32,321.58,255.08,321.1,257.21Z"/><path class="cls-48" d="M317.09,251.1a7.72,7.72,0,0,0-1.78.22,14.41,14.41,0,0,0-6.78,4.06,14.75,14.75,0,0,0-4,6.9c-.48,2.13-.15,3.89.9,5s2.79,1.4,4.89.92a14.33,14.33,0,0,0,6.78-4.06,14.75,14.75,0,0,0,4-6.9c.48-2.13.15-3.89-.9-5A4.23,4.23,0,0,0,317.09,251.1Z"/></g><path class="cls-17" d="M326.79,299a11.53,11.53,0,0,1,5.53-3.49c3.43-.9,4.83-.62,5.15,0s.33,1.29.65,1.39.69.31.6.76,0,.8.25,1,.48.51.4.67-.5.44-.16.82.84.68.69,1.28-.67.44-.63,1,.5.78,0,1.25-.68.37-.84.83-.77.89-2.13.91a14,14,0,0,1-7.77-3.62C326.12,299.33,326.79,299,326.79,299Z"/><path class="cls-40" d="M327,298.72a11.53,11.53,0,0,1,5.28-3.21,10.63,10.63,0,0,1,4.33-.5l.11.15c.33.6.34,1.28.65,1.38s.69.31.6.76,0,.81.25,1,.49.5.4.66-.49.44-.16.82.85.69.7,1.28-.68.44-.64,1,.51.78,0,1.24-.68.38-.84.83-.5.92-1.86.94-4.46-2.39-6.91-4.79A8.67,8.67,0,0,0,327,298.72Z"/><path class="cls-17" d="M326.53,298.87s-1.19-2.58-.28-7.09,4.22-9.6,6.88-9c2.15.52.78,2.82.9,3.61s.46.95.53,1.67a2.1,2.1,0,0,0,.71,1.67c.62.61.49,1.37.8,1.87a2.06,2.06,0,0,1,0,1.75,89.35,89.35,0,0,1-7.92,5.35C327,299.45,326.82,299.78,326.53,298.87Z"/><path class="cls-39" d="M327.65,299s-1.8-1.92-.89-6.43,3.88-9.19,5.36-8.71c2.11.69,1,2,1.13,2.79s1.27,1.7,1.34,2.42c0,.27.32.52.72.75.57.6.46,1.34.76,1.83a2.06,2.06,0,0,1,0,1.75,89.35,89.35,0,0,1-7.92,5.35l-.52.31S327.65,299,327.65,299Z"/><path class="cls-17" d="M322.66,298.23a12.72,12.72,0,0,1,6.1-3.85c3.79-1,5.33-.69,5.69,0s.37,1.41.71,1.52.77.34.67.84,0,.89.28,1.07.53.56.44.73-.55.49-.18.91.93.75.77,1.41-.75.49-.7,1.1.55.86,0,1.38-.76.41-.93.91-.85,1-2.35,1a15.49,15.49,0,0,1-8.57-4C321.92,298.59,322.66,298.23,322.66,298.23Z"/><path class="cls-39" d="M322.93,297.92a12.74,12.74,0,0,1,5.83-3.54,11.53,11.53,0,0,1,4.78-.56.7.7,0,0,1,.13.17c.36.66.37,1.41.71,1.52s.77.34.67.84,0,.89.28,1.07.53.56.44.73-.55.49-.18.91.93.75.77,1.41-.75.49-.7,1.1.55.86,0,1.38-.76.41-.93.91-.55,1-2.06,1-4.92-2.63-7.62-5.28A9.24,9.24,0,0,0,322.93,297.92Z"/><path class="cls-17" d="M322.37,298.08s-1.31-2.84-.31-7.83,4.67-10.59,7.6-9.89c2.37.57.86,3.11,1,4s.51,1,.59,1.84A2.3,2.3,0,0,0,332,288c.68.67.55,1.5.88,2.06a2.29,2.29,0,0,1,0,1.93c-.24.47-7.37,5.13-8.74,5.91S322.69,299.09,322.37,298.08Z"/><path class="cls-40" d="M323.61,298.22s-2-2.12-1-7.11,4.29-10.14,5.93-9.61c2.32.76,1.12,2.21,1.25,3.09s1.4,1.87,1.47,2.66c0,.3.36.57.8.83.62.67.5,1.48.83,2a2.29,2.29,0,0,1,0,1.93c-.24.47-7.37,5.13-8.74,5.91l-.58.35S323.61,298.24,323.61,298.22Z"/><path class="cls-17" d="M325.71,304.25l-.27-.6c-.27-.61-1.87-3.19-1.87-3.19s-.9-2.56-1.4-3.55a3.91,3.91,0,0,0-1.19-1.39.61.61,0,0,0-.09-.41.66.66,0,0,0-.72-.31,32.19,32.19,0,0,1-.74-4.29,10.06,10.06,0,0,1,0-1.57,2.67,2.67,0,0,0,.42-1c.15-.62.17-1.14.05-1.17s-.33.45-.48,1.07a2.07,2.07,0,0,0-.08,1.15,7.58,7.58,0,0,0-.11,1.76,31.5,31.5,0,0,0,.78,4.07.32.32,0,0,0-.25,0,24,24,0,0,1-1.11-3.24,6.45,6.45,0,0,1-.17-1.29,1.9,1.9,0,0,0,.27-.88c.07-.51,0-1-.09-1s-.26.38-.33.9,0,.89.07,1a4.9,4.9,0,0,0,.1,1.44,23.25,23.25,0,0,0,1.16,3.16.36.36,0,0,0,0,.41h0a.65.65,0,0,0,.08.47.69.69,0,0,0,.33.28,3.67,3.67,0,0,0,.66,1.7c.64.92,2.46,2.92,2.46,2.92s1.53,2.63,1.93,3.15l.41.52s.17.21.23.17S325.71,304.25,325.71,304.25Z"/><path class="cls-17" d="M393,337.56a.29.29,0,1,1-.06-.41A.29.29,0,0,1,393,337.56Z"/><path class="cls-17" d="M393,337.25a.15.15,0,0,1-.22,0,.16.16,0,0,1,0-.22.16.16,0,1,1,.25.19Z"/><path class="cls-17" d="M392.81,337.62l-.16-.15h0l-.19-.11a1.66,1.66,0,0,0-.62.57c-.26.41-.78,1.48-.78,1.48s-.81,1.06-1,1.31L390,341s-.06.1,0,.12.11-.07.11-.07l.2-.21c.2-.21,1-1.28,1-1.28s.89-.79,1.21-1.16A1.68,1.68,0,0,0,392.81,337.62Z"/><path class="cls-17" d="M392.89,337.15a14.33,14.33,0,0,1,.34-2,4.81,4.81,0,0,1,.23-.62,1.11,1.11,0,0,0,.32-.35c.15-.23.23-.43.19-.46s-.2.13-.35.36-.22.4-.19.44a3.36,3.36,0,0,0-.3.68,12.91,12.91,0,0,0-.27,1.74C392.81,337.3,392.89,337.15,392.89,337.15Z"/><path class="cls-17" d="M392.88,337.15a15.56,15.56,0,0,0,1.84-.89,3.47,3.47,0,0,0,.53-.39,1.23,1.23,0,0,1,.25-.4c.18-.21.35-.34.39-.31s-.07.23-.24.43-.33.32-.38.31a2.5,2.5,0,0,1-.57.47,14.34,14.34,0,0,1-1.6.75C392.76,337.26,392.88,337.15,392.88,337.15Z"/><path class="cls-49" d="M392.22,337.78a5.63,5.63,0,0,0-2.49-2c-1.61-.61-2.29-.55-2.48-.28s-.23.6-.38.64-.35.11-.33.33,0,.39-.17.46-.26.21-.23.3.22.23,0,.4-.44.29-.4.58.31.25.26.51-.28.35-.08.6.31.22.36.44.33.47,1,.55a6.77,6.77,0,0,0,3.93-1.34C392.52,338,392.22,337.78,392.22,337.78Z"/><path class="cls-49" d="M392.11,337.63a5.54,5.54,0,0,0-2.38-1.81,5.05,5.05,0,0,0-2.06-.47.13.13,0,0,0-.06.07c-.19.27-.23.6-.39.63s-.35.11-.32.34,0,.39-.18.45-.26.22-.22.3.21.24,0,.4-.44.29-.4.58.3.25.26.52-.29.35-.08.6.31.21.36.44.2.46.85.54,2.27-.92,3.58-2A4.42,4.42,0,0,1,392.11,337.63Z"/><path class="cls-49" d="M392.46,338a5.61,5.61,0,0,1,2.58,1.85c1,1.38,1.16,2.06.94,2.31s-.51.39-.5.55,0,.36-.23.4-.37.14-.39.29-.14.31-.22.3-.29-.14-.4.08-.16.51-.45.55-.32-.23-.56-.11-.26.37-.56.24-.29-.23-.52-.22-.54-.18-.8-.79a6.79,6.79,0,0,1,.21-4.15C392.19,337.72,392.46,338,392.46,338Z"/><path class="cls-49" d="M392.63,338a5.6,5.6,0,0,1,2.41,1.78,5.13,5.13,0,0,1,1,1.86l0,.08c-.21.25-.52.38-.51.54s0,.36-.23.41-.37.13-.39.29-.14.31-.22.3-.29-.15-.4.07-.15.51-.45.55-.32-.22-.56-.1-.26.37-.56.24-.29-.24-.52-.23-.5-.06-.76-.67.26-2.44.89-4A4.09,4.09,0,0,0,392.63,338Z"/><path class="cls-17" d="M392.35,337.73a6,6,0,0,0,.5-3.4c-.21-2.23-1.54-4.85-2.86-4.68-1.06.14-.52,1.32-.62,1.7s-.27.44-.34.78a1,1,0,0,1-.43.77c-.32.26-.3.63-.48.86a1,1,0,0,0-.1.84,45.34,45.34,0,0,0,3.54,3C392.12,338,392.16,338.16,392.35,337.73Z"/><path class="cls-25" d="M391.8,337.73s1-.83.76-3.05-1.4-4.63-2.14-4.47c-1.05.22-.59.9-.68,1.28s-.7.76-.77,1.1c0,.13-.19.23-.39.33s-.29.61-.46.84a1,1,0,0,0-.1.84,45.34,45.34,0,0,0,3.54,3l.23.17Z"/><path class="cls-17" d="M392.47,337.82a6,6,0,0,1,3.14-1.41c2.19-.42,5.08.14,5.28,1.45.16,1.06-1.13.87-1.46,1.07s-.35.38-.66.54a1,1,0,0,0-.62.62c-.16.39-.52.47-.69.7a1,1,0,0,1-.78.33,44.24,44.24,0,0,1-3.85-2.57C392.29,338.12,392.12,338.12,392.47,337.82Z"/><path class="cls-25" d="M392.62,338.35s.54-1.16,2.73-1.58,4.84.08,4.89.83c.07,1.07-.71.82-1.05,1s-.53.87-.84,1c-.12.06-.17.24-.21.46s-.51.45-.68.67a1,1,0,0,1-.78.33,44.24,44.24,0,0,1-3.85-2.57l-.23-.18Z"/></g></g></svg>