<svg width="720" height="504" viewBox="0 0 720 504" fill="none" xmlns="http://www.w3.org/2000/svg">
<path d="M355.06 450.2C473.878 450.2 570.2 447.173 570.2 443.44C570.2 439.706 473.878 436.68 355.06 436.68C236.241 436.68 139.92 439.706 139.92 443.44C139.92 447.173 236.241 450.2 355.06 450.2Z" fill="#C7CCD1"/>
<path d="M616.21 68.7998H524.41V288.18H616.21V68.7998Z" fill="#ECECEC"/>
<path opacity="0.3" d="M590.75 68.7998H561.48L529.47 288.18H558.73L590.75 68.7998Z" fill="#FAFAFA"/>
<g style="mix-blend-mode:multiply" opacity="0.4">
<path d="M617.16 66.0098H523.83V68.9898H617.16V66.0098Z" fill="black"/>
</g>
<g style="mix-blend-mode:multiply" opacity="0.4">
<path d="M617.16 287.98H523.83V291.82H617.16V287.98Z" fill="black"/>
</g>
<path d="M620.79 296.57H519.6V60.5698H620.79V296.57ZM527.32 291.13H613.08V65.9998H527.32V291.13Z" fill="#C8C8C8"/>
<path d="M510.56 68.7998H418.76V288.18H510.56V68.7998Z" fill="#ECECEC"/>
<path opacity="0.3" d="M496.89 68.7998H491.52L459.51 288.18H464.87L496.89 68.7998Z" fill="#FAFAFA"/>
<g style="mix-blend-mode:multiply" opacity="0.4">
<path d="M511.5 66.0098H418.17V68.9898H511.5V66.0098Z" fill="black"/>
</g>
<g style="mix-blend-mode:multiply" opacity="0.4">
<path d="M511.5 287.98H418.17V291.82H511.5V287.98Z" fill="black"/>
</g>
<path d="M515.14 296.57H414V60.5698H515.14V296.57ZM421.66 291.13H507.42V65.9998H421.66V291.13Z" fill="#C8C8C8"/>
<path opacity="0.3" d="M422.58 287.98L464.54 68.9897H487.02L450.85 287.98H422.58Z" fill="#FAFAFA"/>
<path d="M404.1 68.7998H312.3V288.18H404.1V68.7998Z" fill="#ECECEC"/>
<path opacity="0.3" d="M390.42 68.7998H385.06L353.04 288.18H358.41L390.42 68.7998Z" fill="#FAFAFA"/>
<g style="mix-blend-mode:multiply" opacity="0.4">
<path d="M405.04 66.0098H311.71V68.9898H405.04V66.0098Z" fill="black"/>
</g>
<g style="mix-blend-mode:multiply" opacity="0.4">
<path d="M405.04 287.98H311.71V291.82H405.04V287.98Z" fill="black"/>
</g>
<path d="M408.67 296.57H307.49V60.5698H408.67V296.57ZM315.2 291.13H401V65.9998H315.2V291.13Z" fill="#C8C8C8"/>
<path opacity="0.3" d="M316.12 287.98L358.08 68.9897H380.56L344.39 287.98H316.12Z" fill="#FAFAFA"/>
<g style="mix-blend-mode:multiply" opacity="0.4">
<g style="mix-blend-mode:multiply" opacity="0.4">
<path d="M250.73 113.77H193.68V189.59H250.73V113.77Z" fill="black"/>
</g>
</g>
<path d="M252.29 112.22H195.24V188.04H252.29V112.22Z" fill="#C8C8C8"/>
<path d="M248.53 114.87H198.61V184.02H248.53V114.87Z" fill="white"/>
<path d="M239.79 127.13L206.66 125.86V173.02H239.79V127.13Z" fill="#C8C8C8"/>
<g style="mix-blend-mode:multiply" opacity="0.4">
<g style="mix-blend-mode:multiply" opacity="0.4">
<path d="M206.66 173.02L239.79 148.79L206.66 125.86V173.02Z" fill="black"/>
</g>
</g>
<path d="M149 307.57C149 307.57 162.39 289 164.4 279.93C166.41 270.86 164.83 268.93 164.83 268.93C164.83 268.93 172.93 247.52 172.51 246.15C172.09 244.78 170.43 243.23 168.97 243.57C167.51 243.91 127.19 267.47 127.97 278.73C128.75 289.99 137.94 306.89 149 307.57Z" fill="#413B89"/>
<path d="M164.85 269C164.85 269 172.95 247.59 172.53 246.22C172.11 244.85 170.45 243.3 168.99 243.64C168.99 243.64 167.86 244.19 164.17 261.64C160.48 279.09 149.02 307.64 149.02 307.64C149.02 307.64 162.41 289.07 164.42 280C166.43 270.93 164.85 269 164.85 269Z" fill="#201851"/>
<path d="M162 270.39C162 270.39 153.58 295.32 149.05 307.57C144.52 319.82 131.86 378.43 135.64 390" stroke="black" stroke-width="0.67" stroke-miterlimit="10" stroke-linecap="round"/>
<path d="M146.6 232.58C146.6 232.58 140.86 257.71 139.33 278.01C137.8 298.31 133.23 375.42 133.23 375.42" stroke="black" stroke-width="0.53" stroke-miterlimit="10" stroke-linecap="round"/>
<path d="M147 234.09C147 234.09 152.83 247.72 156.47 246.68C160.11 245.64 162.93 239.08 165.32 232.58C167.71 226.08 174.58 188.19 174.9 186.58C175.22 184.97 165.53 165.24 165.53 165.24C165.53 165.24 141 216.71 147 234.09Z" fill="#201851"/>
<path d="M165.87 165.6C165.87 165.6 167.01 172.89 166.49 174.86C165.97 176.83 151.3 201 149.74 214.1C148.18 227.2 146.91 232.89 146.91 232.89C146.91 232.89 137.91 239.7 134.44 238.89C130.97 238.08 124.44 225.64 126.04 222C127.64 218.36 154.11 172 154.94 172.18C155.77 172.36 156.81 177.59 156.81 177.59L157.33 169.79L165.87 165.6Z" fill="#413B89"/>
<path d="M122.57 278.53C123.668 277.357 125.046 276.484 126.576 275.992C128.105 275.501 129.734 275.407 131.31 275.72C136.83 276.72 143.97 270.72 143.78 265.52C143.59 260.32 136.83 243.97 129.13 240.33C121.43 236.69 102.07 221.7 102.07 221.7V224.51L99.1499 220.24L90.8799 217.48C90.8799 217.48 94.2599 247.09 102.38 258.13C110.5 269.17 122.57 278.53 122.57 278.53Z" fill="#413B89"/>
<path d="M102.07 257.82C110.19 268.82 122.26 278.22 122.26 278.22C122.26 278.22 94.6197 240.3 90.9297 219.91C91.9997 227.49 95.4597 248.83 102.07 257.82Z" fill="#201851"/>
<path d="M115.59 268.58C115.59 268.58 119.49 273.85 122.26 278.22C125.03 282.59 133.36 363.22 131.84 378.06" stroke="black" stroke-width="0.53" stroke-miterlimit="10" stroke-linecap="round"/>
<path d="M148.93 329.5H122.84C122.84 329.5 101.71 387.67 105.36 407C109.01 426.33 112.93 432.83 112.93 432.83H158.84C158.84 432.83 162.75 426.31 166.4 407C170.05 387.69 148.93 329.5 148.93 329.5Z" fill="url(#paint0_linear)"/>
<path d="M113.29 359C111.53 365.08 109.8 371.53 108.38 377.78H163.38C161.96 371.53 160.23 365.08 158.47 359H113.29Z" fill="#201851"/>
<path d="M107.87 418.32C108.59 421.12 109.28 423.45 109.87 425.37H161.81C162.44 423.45 163.14 421.12 163.86 418.32H107.87Z" fill="#201851"/>
<path d="M537.01 311.15H471.55C466.204 311.15 461.87 315.484 461.87 320.83V320.84C461.87 326.186 466.204 330.52 471.55 330.52H537.01C542.356 330.52 546.69 326.186 546.69 320.84V320.83C546.69 315.484 542.356 311.15 537.01 311.15Z" fill="#F25662"/>
<path d="M536.59 311.15H472C471.632 311.153 471.265 311.176 470.9 311.22C468.01 312.22 466.22 313.46 465.9 314.74L464.9 314.32C463.27 316.099 462.367 318.426 462.37 320.84C462.37 323.407 463.39 325.869 465.205 327.685C467.021 329.5 469.483 330.52 472.05 330.52H481.55L478.89 321.19C487.15 322.58 495.515 323.249 503.89 323.19C524.89 323.19 541.89 319.63 541.89 315.24C541.87 313.72 539.94 312.34 536.59 311.15Z" fill="#A43447"/>
<path d="M504.28 444.33C503.708 444.327 503.159 444.101 502.752 443.699C502.344 443.297 502.11 442.752 502.1 442.18L500.75 330.52H507.81L506.45 442.18C506.445 442.752 506.214 443.299 505.807 443.702C505.401 444.104 504.852 444.33 504.28 444.33V444.33Z" fill="black"/>
<path d="M560.24 444.33C559.77 444.329 559.313 444.175 558.938 443.892C558.563 443.609 558.29 443.212 558.16 442.76L525.41 330.52H532.83L562.34 441.6C562.424 441.922 562.433 442.258 562.367 442.584C562.301 442.91 562.161 443.216 561.959 443.479C561.756 443.743 561.496 443.956 561.198 444.104C560.9 444.251 560.573 444.329 560.24 444.33V444.33Z" fill="black"/>
<path d="M448.32 444.33C448.79 444.329 449.247 444.175 449.622 443.892C449.997 443.609 450.27 443.212 450.4 442.76L483.15 330.52H475.72L446.22 441.6C446.134 441.922 446.123 442.259 446.189 442.585C446.254 442.912 446.393 443.219 446.596 443.483C446.8 443.747 447.061 443.961 447.359 444.108C447.658 444.254 447.987 444.331 448.32 444.33Z" fill="black"/>
<path d="M173.82 330.52H239.28C244.626 330.52 248.96 326.186 248.96 320.84V320.83C248.96 315.484 244.626 311.15 239.28 311.15H173.82C168.474 311.15 164.14 315.484 164.14 320.83V320.84C164.14 326.186 168.474 330.52 173.82 330.52Z" fill="#F25662"/>
<path d="M174.24 311.15H238.81C239.178 311.153 239.545 311.176 239.91 311.22C242.8 312.22 244.59 313.46 244.91 314.74L245.91 314.32C247.541 316.099 248.444 318.426 248.44 320.84C248.44 322.111 248.19 323.37 247.703 324.544C247.217 325.719 246.504 326.786 245.605 327.685C244.706 328.584 243.639 329.297 242.465 329.783C241.29 330.27 240.031 330.52 238.76 330.52H229.26L231.92 321.19C225.23 322.41 216.5 321.85 206.92 321.85C185.92 321.85 169.45 322.34 168.92 315.2C168.85 313.72 170.89 312.34 174.24 311.15Z" fill="#A43447"/>
<path d="M206.55 444.33C207.122 444.327 207.671 444.101 208.078 443.699C208.486 443.297 208.72 442.752 208.73 442.18L210.08 330.52H203L204.36 442.18C204.363 442.465 204.421 442.747 204.533 443.009C204.644 443.271 204.806 443.509 205.01 443.709C205.213 443.908 205.454 444.066 205.718 444.173C205.982 444.279 206.265 444.333 206.55 444.33V444.33Z" fill="black"/>
<path d="M150.59 444.33C151.06 444.329 151.517 444.175 151.892 443.892C152.267 443.609 152.54 443.212 152.67 442.76L185.42 330.52H178L148.49 441.6C148.406 441.922 148.397 442.258 148.463 442.584C148.529 442.91 148.669 443.216 148.872 443.479C149.074 443.743 149.334 443.956 149.632 444.104C149.93 444.251 150.258 444.329 150.59 444.33V444.33Z" fill="black"/>
<path d="M262.51 444.33C262.04 444.329 261.583 444.175 261.208 443.892C260.833 443.609 260.56 443.212 260.43 442.76L227.68 330.52H235.11L264.61 441.6C264.696 441.922 264.707 442.259 264.642 442.585C264.576 442.912 264.437 443.219 264.234 443.483C264.031 443.747 263.77 443.961 263.471 444.108C263.172 444.254 262.843 444.331 262.51 444.33V444.33Z" fill="black"/>
<path d="M265.88 161.34C263.539 159.73 260.835 158.726 258.011 158.421C255.186 158.115 252.33 158.517 249.7 159.59C240.24 163.17 237.96 181.83 233.52 184.5C229.08 187.17 223.61 187.96 223.02 192.91C222.43 197.86 228.76 204.39 228.76 204.39C228.76 204.39 252.24 210.52 257.26 200.28C262.28 190.04 265.88 161.34 265.88 161.34Z" fill="#403881"/>
<path d="M257.26 200.28C262.26 190.04 265.88 161.34 265.88 161.34C258.66 160.19 251.88 162.2 248.36 172.66C244.84 183.12 239.26 184.66 229.77 190.17C225.9 192.41 224.51 195.33 224.21 198C225.43 200.326 226.961 202.476 228.76 204.39C228.76 204.39 252.24 210.52 257.26 200.28Z" fill="#1E194F"/>
<path d="M284.52 174.85C284.52 174.85 281.78 202.17 277.87 204.46C273.96 206.75 267.3 203.87 267.3 203.87C264.992 207.091 262.923 210.477 261.11 214C258.63 219 258.57 228.41 255.83 229.26C253.09 230.11 239.83 206.55 246.7 200.04C251.39 195.61 255.96 191.11 255.96 191.11C255.96 191.11 253.64 190.11 253.84 186.43C254.04 182.75 260.33 169.74 284.52 174.85Z" fill="#F49C80"/>
<path d="M267.57 161.87C267.57 161.87 263.98 159.87 258.7 162.59C253.42 165.31 251.07 172.37 252.11 174.52C253.15 176.67 267.57 161.87 267.57 161.87Z" fill="#F25662"/>
<path d="M284.52 174.85C284.52 174.85 276.92 173.85 274.33 178.43C271.74 183.01 269.81 187.67 262.33 185.43C262.33 185.43 261.02 187.37 260.65 186.8C260.405 186.08 260.319 185.316 260.4 184.56C260.4 184.56 259 180.99 255.7 182.66C252.96 184.06 254.23 190.39 255.99 191.04C255.99 191.04 247.38 188.69 249.2 180.28C251.02 171.87 258.27 164.62 267.6 161.82C276.93 159.02 287.6 168.02 285.73 173.04C285.73 173.04 287.62 174.28 287.23 175.35C286.225 177.138 285.11 178.861 283.89 180.51L284.52 174.85Z" fill="#403881"/>
<path d="M284.52 174.85C284.52 174.85 286.31 175.32 285.9 176.77C285.389 178.11 284.717 179.382 283.9 180.56L284.52 174.85Z" fill="#1E194F"/>
<path d="M258 185.25C258 185.25 256.57 184.58 256.19 186.54C255.81 188.5 257.29 188.8 257.29 188.8C257.29 188.8 256.05 187.7 257.07 186.8C258.09 185.9 258 186.1 258 185.25Z" fill="#D07A62"/>
<path d="M267.3 203.87C264.248 202.443 261.524 200.401 259.3 197.87C259.3 197.87 264.01 204.57 266.01 205.67L267.3 203.87Z" fill="#D07A62"/>
<path d="M254.65 316.72C254.65 316.72 251.65 334.06 254.13 347.96C256.61 361.86 267 403 267.43 405.88C267.86 408.76 266.85 411.61 267.43 412.71C268.01 413.81 268.87 433.25 274.15 436.36C279.43 439.47 287 435.94 287.46 432.95C287.92 429.96 278.13 415.02 276.46 402.22C274.79 389.42 265.35 314.43 265.35 314.43L254.65 316.72Z" fill="#D07A62"/>
<path d="M266.66 281.23C266.66 281.23 283.87 281.78 285.73 289.64C287.59 297.5 286.8 392 286.8 392C286.8 392 294.24 413.76 297.47 419.71C300.7 425.66 287.1 426.57 280.47 419.71C273.84 412.85 271.07 402.06 271.07 402.06C271.831 398.515 272.193 394.896 272.15 391.27C271.95 386.14 260.77 326.98 260.51 321.49C260.381 319.896 260.381 318.294 260.51 316.7L251.51 316.76C251.51 316.76 255.45 282.05 266.66 281.23Z" fill="#F59D80"/>
<path d="M182.33 269.71C182.33 269.71 173.03 280.13 171.33 285.62C169.63 291.11 165.28 314.48 174.13 316.74C182.98 319 251.45 316.74 251.45 316.74C251.45 316.74 258.12 281.96 266.62 281.23L227.35 275.89C227.35 275.89 199.54 271 182.33 269.71Z" fill="#403880"/>
<path d="M266.66 281.23L227.39 275.89C227.39 275.89 199.54 270.96 182.33 269.71C182.33 269.71 228.89 296.38 234.96 295.89C239.82 295.5 248.83 300.59 255.19 301.59C258 292.12 262 281.63 266.66 281.23Z" fill="#1E194F"/>
<path d="M265.93 281.35C255.28 283.59 251.49 316.74 251.49 316.74H254.65C254.65 316.74 259.37 283.54 265.93 281.35Z" fill="#D07A62"/>
<path d="M250.71 196.19C249.536 195.849 248.344 195.572 247.14 195.36C246.55 195.36 242.68 199.47 242.68 199.47C242.68 199.47 218.68 199.7 214.35 202.57C210.02 205.44 199.09 222.33 199.09 222.33C199.09 222.33 190.54 258.07 187.8 261.88C185.06 265.69 182.33 269.71 182.33 269.71C182.33 269.71 210.7 271.71 226.74 279.98C226.74 279.98 229.48 266.98 232.12 263.05C234.296 260.119 236.787 257.436 239.55 255.05C239.55 255.05 254.55 254.05 256.55 251.05C257.96 249 259.29 247.24 259.29 247.24L280.97 241.14C280.97 241.14 273.34 219.55 270.54 216.36C267.74 213.17 266.36 212.57 266.36 212.57C266.51 210.848 266.554 209.118 266.49 207.39C266.291 206.954 266.005 206.562 265.65 206.24C265.65 206.24 261.6 210.68 260.65 212.57C259.7 214.46 255.95 228.16 254.32 227.57C252.69 226.98 248.92 215.12 248.85 208.2C248.78 201.28 249 197.88 250.71 196.19Z" fill="#F25662"/>
<path d="M213.83 247.21C214.28 244.89 220.3 239.67 224.4 241.76C228.5 243.85 220.35 237.98 221.33 234C222.31 230.02 222.98 226.7 222.98 226.7C222.76 226.7 215.91 234.13 215.91 234.13C215.91 234.13 201.85 246.92 189.35 258.31C188.973 259.556 188.453 260.754 187.8 261.88C185.07 265.7 182.33 269.71 182.33 269.71C182.33 269.71 206.56 271.38 222.89 278.2L224.4 269.78C224.4 269.78 213.37 249.52 213.83 247.21Z" fill="#CD3650"/>
<path d="M199.089 222.33L215.909 234.13L204.999 248.22C204.999 248.22 235.649 282.78 238.129 283.7C240.609 284.62 254.039 285.7 255.129 286.24C256.219 286.78 265.299 292.11 265.339 292.4C265.379 292.69 263.699 293.81 262.429 293.68C260.77 293.233 259.156 292.63 257.609 291.88C257.609 291.88 264.549 299.48 264.549 299.58C263.872 300.18 263.012 300.532 262.109 300.58C261.713 300.543 261.332 300.409 260.999 300.19C260.465 300.436 259.887 300.572 259.299 300.59C258.589 300.54 254.929 298.1 254.929 298.1L257.839 300.6C257.839 300.6 256.399 302.01 254.969 301.29C253.539 300.57 248.049 296.17 247.599 296.11C247.149 296.05 240.059 296.6 236.869 295.42C233.679 294.24 187.869 263.42 185.439 259.03C183.009 254.64 182.609 251.86 183.439 248.86C184.269 245.86 199.089 222.33 199.089 222.33Z" fill="#F59D80"/>
<path d="M274.19 223.4C272.74 228.79 269.76 242.16 268.51 242.32C266.95 242.51 263.33 232.97 263.33 232.97C262.59 236.84 259.84 247.06 259.33 247.21L281.01 241.11C281.01 241.11 277.36 230.82 274.19 223.4Z" fill="#CD3650"/>
<path d="M261.07 246.71C261.07 246.71 268.41 281.35 270.57 282.71C272.73 284.07 279.37 285.25 280.57 284.57C281.77 283.89 287.81 275.17 287.57 269.21C287.33 263.25 283.75 227.21 284.05 223.42C284.35 219.63 285.05 209.19 284.5 208.21C283.95 207.23 277.85 204.45 277.85 204.45C275.913 205.27 273.778 205.503 271.71 205.12C271.71 205.12 270.71 205.65 270.71 205.86C270.71 206.07 269.88 211.39 270.47 211.73C270.823 211.94 271.229 212.045 271.64 212.03C271.953 212.873 272.551 213.581 273.33 214.03C273.33 214.03 272.79 218.08 274.33 219.94C275.87 221.8 274.93 226.46 274.8 228.06C274.67 229.66 272.25 243.56 272.25 243.56L261.07 246.71Z" fill="#F59D80"/>
<path d="M272.25 243.57L270.37 260.57C270.37 260.57 267.19 249.81 265.72 249.17C264.25 248.53 261.67 249.48 261.67 249.48L261.07 246.72L272.25 243.57Z" fill="#D07A62"/>
<path d="M199.089 222.33L214.949 235.37L215.909 234.13L199.089 222.33Z" fill="#D07A62"/>
<path d="M261.27 214.24C261.27 214.24 263.15 213.38 264.11 215.68C265.07 217.98 265.77 220.48 265.77 220.48C265.77 220.48 263.55 215.32 261.27 214.24Z" fill="#CD3650"/>
<path d="M266.39 212.54L266.16 215.8L271.96 218.58C271.96 218.58 270.85 215.32 266.39 212.54Z" fill="#CD3650"/>
<path d="M247.8 215.41L240.6 219.62C240.6 219.62 244.6 220.53 244.74 220.3C244.88 220.07 247.8 215.41 247.8 215.41Z" fill="#CD3650"/>
<path d="M267.83 415.1C267.83 415.1 268.36 423.16 269.2 428.79C270.04 434.42 271.25 442.32 273.06 443.05C274.87 443.78 288.96 444.52 290.67 443.05C292.38 441.58 291.16 437.7 290.28 436.05C289.4 434.4 283 421.74 283 421.74C283 421.74 287 434.27 281.06 435.05C275.12 435.83 272.65 432.81 271.62 429.29C270.59 425.77 267.83 415.1 267.83 415.1Z" fill="#403881"/>
<path d="M297.469 419.69C297.469 419.69 301.149 425.57 301.279 427.28C301.409 428.99 301.009 431.13 300.369 431.82C299.729 432.51 288.269 434.46 284.109 431.12C279.949 427.78 277.219 421.42 277.219 421.42C277.253 423.389 277.18 425.359 276.999 427.32C276.779 427.48 275.799 427.71 275.379 427.09C274.959 426.47 273.649 416.71 272.379 414.15C271.109 411.59 269.429 405.22 271.249 401.09C271.249 401.09 279.959 420.37 286.559 422.09C293.159 423.81 296.999 421.42 297.469 419.69Z" fill="#403881"/>
<path d="M275.38 427.09C275.8 427.71 276.78 427.48 277 427.32C277.18 425.359 277.253 423.389 277.22 421.42C277.22 421.42 279.96 427.78 284.11 431.12C288.26 434.46 299.73 432.51 300.37 431.82C300.744 431.299 300.988 430.695 301.08 430.06C298.44 430.71 290.3 432.46 286.35 430.39C281.59 427.89 278 420.88 277.48 420.45C276.96 420.02 271.98 413.98 270.91 409.64C271.217 411.197 271.711 412.711 272.38 414.15C273.65 416.71 275 426.48 275.38 427.09Z" fill="#1E194F"/>
<path d="M273.059 443.05C274.869 443.78 288.959 444.52 290.669 443.05C290.966 442.757 291.195 442.403 291.342 442.013C291.489 441.623 291.549 441.206 291.519 440.79C288.893 441.401 286.214 441.759 283.519 441.86C279.569 442.004 275.616 441.712 271.729 440.99C272.109 442.09 272.559 442.85 273.059 443.05Z" fill="#1E194F"/>
<path d="M455.36 144.29C455.36 144.29 461.91 176.02 462.53 176.77C463.15 177.52 467.16 177.77 468.79 177.42C470.489 176.97 472.159 176.415 473.79 175.76C473.79 175.76 477.29 186.76 478.37 187.39C479.45 188.02 485.61 190.57 490.89 186.8C496.17 183.03 499.69 171.29 499.69 171.29C499.69 171.29 493.63 170.41 493.29 169.97C492.95 169.53 490.29 165.13 490.29 165.13C490.29 165.13 492.44 144.13 486.43 141.13C480.42 138.13 458.44 135.2 455.36 144.29Z" fill="#F59D80"/>
<path d="M473.7 151.53C473.7 151.53 475.44 157.23 476.17 157.08C476.9 156.93 477.96 152.19 477.96 152.19C477.96 152.19 479.96 149.19 482.6 150.29C485.24 151.39 485.2 158.36 482.85 160.36C483.735 162.066 484.975 163.563 486.485 164.751C487.996 165.939 489.743 166.791 491.61 167.25C491.61 167.25 498.11 144.78 497.82 142.53C497.53 140.28 492.73 136.91 492.73 136.91C492.73 136.91 491.41 130.5 490.97 130.4C490.53 130.3 489.84 131.58 489.84 131.58C489.84 131.58 487.64 126.34 482.9 125.66C478.16 124.98 452.28 129.08 449.44 133.58C449.44 133.58 449.05 145.88 455.85 146.65L455.43 144.93C455.913 144.179 456.565 143.55 457.335 143.096C458.104 142.641 458.968 142.372 459.86 142.31C462.77 142.24 465.46 142.36 465.86 143.71C466.26 145.06 467.03 149.4 468.6 150.07C470.268 150.66 471.971 151.148 473.7 151.53V151.53Z" fill="#403881"/>
<path d="M473.81 175.76L478.3 173.81L474.53 177.94L473.81 175.76Z" fill="#D07A62"/>
<path d="M482.85 160.36C482.85 160.36 481.3 161.71 480.03 160.83C480.468 161.231 481.021 161.486 481.611 161.557C482.201 161.629 482.798 161.515 483.32 161.23L482.85 160.36Z" fill="#D07A62"/>
<path d="M480 154C480 154 480.67 153.13 481.4 153.25C482.13 153.37 482.7 155.53 481.32 156.98C481.32 156.98 482.02 154.89 481.32 154.5C480.62 154.11 479.16 155.27 480 154Z" fill="#D07A62"/>
<path d="M482.85 160.36C483.735 162.066 484.975 163.563 486.485 164.751C487.996 165.939 489.743 166.791 491.61 167.25C491.61 167.25 498.11 144.78 497.82 142.53C497.82 142.53 497.57 148.96 492.58 150.16C489.31 151.04 485.871 151.085 482.58 150.29C485.27 151.41 485.2 158.36 482.85 160.36Z" fill="#1E194F"/>
<path d="M446 400L447.28 410.95C447.28 410.95 432 422.8 429.92 409L428 402L446 400Z" fill="#FCA080"/>
<path d="M447.28 410.92C447.28 410.92 449.71 429.24 449.34 429.42C448.97 429.6 407.09 429.36 402.54 429.34C402.429 429.338 402.322 429.295 402.241 429.219C402.16 429.144 402.11 429.04 402.1 428.93C401.98 427.13 401.72 420.05 405.57 418.5C409.98 416.72 423.45 412.38 425.9 409.8C428.35 407.22 428.9 406.53 429.33 406.74C429.76 406.95 432.91 409.07 432.85 410.91C432.79 412.75 432.7 413.81 433.34 413.69C433.98 413.57 440.26 414 441.12 412.69C441.98 411.38 447.28 410.92 447.28 410.92Z" fill="#1E194F"/>
<path d="M449.34 429.42C449 429.59 407.09 429.36 402.54 429.34C402.429 429.338 402.322 429.295 402.241 429.219C402.16 429.143 402.11 429.04 402.1 428.93C401.98 427.13 401.72 420.05 405.57 418.5C407.72 417.63 412.03 416.15 416.16 414.57C418.39 418.15 418.24 426.32 418.24 426.32L449.16 426.27C449.353 427.308 449.413 428.366 449.34 429.42V429.42Z" fill="#DFE5ED"/>
<path d="M455 410L455.68 417.76C455.68 417.76 459.28 424.15 466.35 424.27C473.42 424.39 474.91 420.8 474.91 420.8V413.41L455 410Z" fill="#FCA080"/>
<path d="M455.6 416.83C455.6 416.83 456.11 415.63 458.44 416.28C460.77 416.93 464.44 419.18 464.52 420.33C464.6 421.48 464.02 422.94 464.52 422.91C465.02 422.88 469.14 422.91 470.07 422.01C471 421.11 471.53 420.21 474.91 419.84C474.91 419.84 476.3 431.17 476.3 433.22C476.3 433.22 476.58 436.52 476.3 436.66C476.02 436.8 457.14 443.77 452.58 444.24C448.02 444.71 433.79 443.24 433.51 442.56C433.23 441.88 433.23 432.95 435.84 431.65C438.45 430.35 449.84 425.01 452.4 422.22C453.858 420.687 454.952 418.844 455.6 416.83Z" fill="#403880"/>
<path d="M476.3 436.66C476.02 436.8 457.14 443.77 452.58 444.24C448.02 444.71 433.79 443.24 433.51 442.56C433.23 441.88 433.23 432.95 435.84 431.65C436.68 431.23 438.45 430.38 440.53 429.34C455.36 426.91 458.35 439.12 458.35 439.12C461.35 438.38 476.3 433.22 476.3 433.22C476.3 433.22 476.58 436.52 476.3 436.66Z" fill="#DFE5ED"/>
<path d="M537.24 270.33C537.24 270.33 548.91 308.67 538.48 315.59C528.05 322.51 476.39 318.46 476.39 318.46C476.39 318.46 480.96 343.46 480.7 350.67C480.44 357.88 475 413.41 475 413.41C475 413.41 459 418.89 454 410.54L442.65 312.46L429.87 312.59C429.87 312.59 438.21 334.11 438.34 338.22C438.47 342.33 446.11 400.43 446.11 400.43C446.11 400.43 436.42 407.28 428.01 402C428.01 402 396.21 319.63 396.08 310.89C395.95 302.15 395.3 293.15 397.52 291.07C399.74 288.99 412.91 282.07 421.39 279.98C429.87 277.89 484.39 271.59 484.39 271.59L537.24 270.33Z" fill="#403880"/>
<path d="M443.2 302.87C444.5 300.78 457.32 292.11 463.38 289.27C469.44 286.43 499.7 280.37 499.7 280.37C499.7 280.37 502.61 300.82 504.7 301.6C506.41 302.25 533.53 298.6 542.64 297.31C541.64 284.61 537.28 270.31 537.28 270.31L484.37 271.57C484.37 271.57 429.87 277.87 421.37 279.96C412.87 282.05 399.72 288.96 397.5 291.05C395.28 293.14 395.93 302.13 396.06 310.87C396.19 319.61 428 402 428 402C436.41 407.28 446.1 400.43 446.1 400.43C446.1 400.43 438.46 342.33 438.33 338.22C438.2 334.11 429.86 312.59 429.86 312.59L442.64 312.46C442.64 312.46 441.89 305 443.2 302.87Z" fill="#232059"/>
<path d="M485.69 279.73L465.83 279.33L472.57 288.06L485.69 279.73Z" fill="#A43447"/>
<path d="M477.25 185.38C477.25 185.38 482.33 188.54 487.67 187.17C493.01 185.8 499.72 171.29 499.72 171.29L509.52 278.41C509.52 278.41 491.33 278.74 483.89 275.22L477.25 185.38Z" fill="#FFC761"/>
<path d="M509.52 278.41L508.37 265.81L488 268.5C488 268.5 485.26 238.5 484.48 222.59C483.7 206.68 477.25 185.38 477.25 185.38L483.89 275.22C491.33 278.74 509.52 278.41 509.52 278.41Z" fill="#D07E2C"/>
<path d="M414.86 225.2C414.86 225.2 410.33 223.14 409.77 222.33C409.21 221.52 406.87 212.87 406.58 212.33C406.29 211.79 397.71 203.78 397.32 203.65C396.93 203.52 395.82 205.71 396.01 206.72C396.742 208.584 397.591 210.401 398.55 212.16C398.55 212.16 398.85 213.16 398.62 213.16C398.39 213.16 388.45 209.58 387.79 209.28C383.843 208.937 379.881 208.797 375.92 208.86C375.85 209.431 375.935 210.011 376.165 210.539C376.395 211.066 376.763 211.523 377.23 211.86C378.4 212.38 386.36 214.11 386.36 214.11C386.36 214.11 383.91 216.32 384.66 217.73C385.092 218.552 385.668 219.29 386.36 219.91C386.36 219.91 385.36 221.91 385.67 222.45C386.302 223.165 387.029 223.79 387.83 224.31C387.656 224.718 387.567 225.157 387.567 225.6C387.567 226.043 387.656 226.482 387.83 226.89C388.48 227.89 394.15 230.41 394.83 230.28C394.83 230.28 399.26 232.76 402.69 232.76C404.48 232.76 409.24 237.98 409.24 237.98L414.86 225.2Z" fill="#F59D80"/>
<path d="M496.89 170.84C496.89 170.84 493.36 205.84 493.39 226.26C493.42 246.68 502.39 296.8 504.96 297.59C507.53 298.38 549.37 295.59 552.11 290.93C552.11 290.93 539.29 262.86 539 260.22C538.71 257.58 537.73 250.83 537.73 250.83C537.73 250.83 539.34 248.92 539.24 248.33C539.14 247.74 534.81 180.2 526 175.88C518.78 172.37 496.89 170.84 496.89 170.84Z" fill="#1150BD"/>
<path d="M474.74 178.57C474.74 178.57 481.37 190.24 483.32 223.24C485.27 256.24 484.15 274.32 483.89 275.24C483.63 276.16 474.63 272.75 474.63 272.75C474.63 272.75 477.25 269.75 477.25 263.17C477.25 256.59 474.14 244.29 474.14 244.29C474.14 244.29 462.21 268.34 460 268.63C456.77 269.126 453.473 268.96 450.31 268.14C446.79 267.07 407.37 239.14 407.37 239.14L414.9 225.25L450.9 240.7C450.9 240.7 458.82 188.56 461.07 186.21C463.32 183.86 474.74 178.57 474.74 178.57Z" fill="#1150BD"/>
<path d="M474.14 244.27L465.83 212.67L467.77 256.56L474.14 244.27Z" fill="#094080"/>
<path d="M500.65 174.62C500.65 174.62 505.93 195.26 505.93 196.34C505.93 197.42 496.25 222.46 496.25 222.46C496.25 222.46 507.299 199 507.299 198C507.299 197 500.65 174.62 500.65 174.62Z" fill="#094080"/>
<path d="M473.82 182.35C473.95 182.64 473.22 205.92 473.63 207.1C474.04 208.28 481.63 222.46 481.63 222.46C481.63 222.46 472.44 209.84 472.54 207.98L473.82 182.35Z" fill="#094080"/>
<path d="M539 260.22C538.71 257.58 537.729 250.83 537.729 250.83C537.729 250.83 532.84 256.6 532.15 257.28C531.46 257.96 499 273.9 499 273.91C499.67 277.64 500.35 281.15 501 284.26C509.27 281.35 533.45 272.8 542.52 269.42C541.141 266.436 539.965 263.362 539 260.22V260.22Z" fill="#094080"/>
<path d="M495.85 253.78L515.52 239.54L520.8 237.91L515.13 237L511 208.76C511 208.76 511.16 237.33 511 237.76C510.84 238.19 495.85 253.78 495.85 253.78Z" fill="#094080"/>
<path d="M478.81 266.45L463.38 270.68L470.28 284.58C470.28 284.58 475.08 281.35 477.28 279.73C479.045 278.593 480.984 277.752 483.02 277.24L478.81 266.45Z" fill="#F59D80"/>
<path d="M499 273.91L483.57 280C483.57 280 478.4 267 478.49 264.59L495.85 253.8C495.85 253.8 501.62 270.23 499 273.91Z" fill="#1150BD"/>
<path d="M398.62 215.41C398.62 215.41 397.74 221.82 400.23 224.02L397.1 221.87C396.865 222.523 396.675 223.191 396.53 223.87C396.53 224.19 396.92 225.37 396.73 225.76C396.73 225.76 398.14 228.08 396.89 229.38C396.89 229.38 397.58 227.1 396.14 226.61C396.14 226.61 396.14 224.61 395.2 223.93C395.476 223.018 395.63 222.073 395.66 221.12C395.46 220.8 389.5 216.4 389.5 216.4C389.5 216.4 395.32 219.24 395.76 218.99C396.788 217.859 397.743 216.663 398.62 215.41V215.41Z" fill="#D07A62"/>
<path d="M407.33 289.37L391.74 246.2L456.7 247.37L472.57 288.06L485.69 279.73L485.93 281.79L472.87 290.86L407.33 289.37Z" fill="#F25662"/>
<path d="M473.74 287.32L457.8 246.64L393.08 245.38L391.74 246.2L456.7 247.37L472.57 288.06L473.74 287.32Z" fill="#201851"/>
<path d="M472.57 288.06L472.87 290.86L407.33 289.37L406.11 285.99L472.57 288.06Z" fill="#A43447"/>
<path d="M431.82 265.71C431.375 265.602 430.918 265.551 430.46 265.56C430.819 265.899 431.087 266.323 431.239 266.793C431.391 267.263 431.422 267.764 431.33 268.25C431.087 268.939 430.625 269.531 430.015 269.933C429.404 270.336 428.679 270.528 427.95 270.48C428.599 271.142 429.425 271.604 430.33 271.81C432.54 272.35 434.66 271.42 435.07 269.73C435.48 268.04 434 266.25 431.82 265.71Z" fill="#201851"/>
<path d="M426.68 289.64H266.15V297.72H426.68V289.64Z" fill="url(#paint1_linear)"/>
<path d="M348.99 297.72H343.85V444.33H348.99V297.72Z" fill="#201851"/>
<path d="M346.42 438.85L316.42 444.33H346.42H376.41L346.42 438.85Z" fill="#201851"/>
<path d="M304.94 283.9H299.86C298.681 283.897 297.552 283.427 296.72 282.593C295.887 281.759 295.42 280.628 295.42 279.45V272.45C295.42 271.272 295.887 270.141 296.72 269.307C297.552 268.473 298.681 268.003 299.86 268H301.45V270H299.86C299.54 270 299.223 270.063 298.928 270.186C298.632 270.309 298.364 270.489 298.138 270.715C297.912 270.942 297.734 271.211 297.612 271.507C297.49 271.803 297.429 272.12 297.43 272.44V279.44C297.429 279.76 297.49 280.077 297.612 280.373C297.734 280.669 297.912 280.938 298.138 281.165C298.364 281.391 298.632 281.571 298.928 281.694C299.223 281.817 299.54 281.88 299.86 281.88H304.94V283.9Z" fill="url(#paint2_linear)"/>
<path d="M299.86 270H301.45V268H299.86C299.649 268.005 299.438 268.025 299.23 268.06L299.48 270.06C299.605 270.03 299.732 270.01 299.86 270V270Z" fill="#1351BD"/>
<path d="M304.94 281.89H300.97L301.22 283.9H304.94V281.89Z" fill="#1351BD"/>
<path d="M299.83 264.6L302.97 289.64H314.19L317.34 264.6H299.83Z" fill="url(#paint3_linear)"/>
<path d="M300.77 272.07L301.3 276.31H315.87L316.4 272.07H300.77Z" fill="#201851"/>
<path d="M310.22 258.52C311.315 257.499 312.03 256.137 312.25 254.657C312.47 253.176 312.181 251.665 311.43 250.37C310.695 248.925 310.312 247.326 310.312 245.705C310.312 244.084 310.695 242.485 311.43 241.04C311.43 241.04 304.43 248.28 307.43 252.04C310.43 255.8 310.22 258.52 310.22 258.52Z" fill="#C7CCD1"/>
<path d="M305.75 248.32C305.75 248.32 305 251.45 306.37 253.37C307.74 255.29 308.55 258.07 307.84 259.63C307.753 258.707 307.468 257.813 307.006 257.009C306.543 256.205 305.914 255.51 305.16 254.97C302.52 253 305.75 248.32 305.75 248.32Z" fill="#C7CCD1"/>
<path d="M375.12 283.9H380.2C381.379 283.897 382.508 283.427 383.34 282.593C384.173 281.759 384.64 280.628 384.64 279.45V272.45C384.64 271.272 384.173 270.141 383.34 269.307C382.508 268.473 381.379 268.003 380.2 268H378.62V270H380.2C380.52 270 380.837 270.063 381.132 270.186C381.428 270.309 381.696 270.489 381.922 270.715C382.148 270.942 382.326 271.211 382.448 271.507C382.57 271.803 382.631 272.12 382.63 272.44V279.44C382.631 279.76 382.57 280.077 382.448 280.373C382.326 280.669 382.148 280.938 381.922 281.165C381.696 281.391 381.428 281.571 381.132 281.694C380.837 281.817 380.52 281.88 380.2 281.88H375.12V283.9Z" fill="url(#paint4_linear)"/>
<path d="M380.2 270H378.62V268H380.2C380.411 268.005 380.622 268.025 380.83 268.06L380.58 270.06C380.455 270.03 380.328 270.009 380.2 270V270Z" fill="#1351BD"/>
<path d="M375.12 281.89H379.09L378.84 283.9H375.12V281.89Z" fill="#1351BD"/>
<path d="M380.23 264.6L377.09 289.64H365.87L362.73 264.6H380.23Z" fill="url(#paint5_linear)"/>
<path d="M379.29 272.07L378.76 276.31H364.2L363.66 272.07H379.29Z" fill="#201851"/>
<path d="M373.85 258.52C374.944 257.499 375.661 256.138 375.882 254.658C376.104 253.178 375.818 251.666 375.07 250.37C374.335 248.925 373.951 247.326 373.951 245.705C373.951 244.084 374.335 242.485 375.07 241.04C375.07 241.04 368.07 248.28 371.07 252.04C374.07 255.8 373.85 258.52 373.85 258.52Z" fill="#C7CCD1"/>
<path d="M369.38 248.32C369.38 248.32 368.63 251.45 370 253.37C371.37 255.29 372.19 258.07 371.47 259.63C371.382 258.712 371.098 257.824 370.637 257.025C370.177 256.227 369.55 255.536 368.8 255C366.16 253 369.38 248.32 369.38 248.32Z" fill="#C7CCD1"/>
<path d="M346 100C345.998 101.547 346.332 103.076 346.978 104.481C347.624 105.886 348.568 107.134 349.743 108.14C350.919 109.145 352.299 109.883 353.788 110.303C355.276 110.723 356.838 110.815 358.366 110.572C359.894 110.329 361.351 109.758 362.636 108.898C363.921 108.038 365.005 106.909 365.811 105.589C366.618 104.269 367.129 102.79 367.308 101.253C367.487 99.7171 367.331 98.1601 366.85 96.69L363.19 84.25H350.19L346.52 96.69C346.173 97.7591 345.998 98.8762 346 100Z" fill="url(#paint6_linear)"/>
<path d="M350.1 84.24H363.63C364.033 84.24 364.36 83.9132 364.36 83.51V83.06C364.36 82.6568 364.033 82.33 363.63 82.33H350.1C349.697 82.33 349.37 82.6568 349.37 83.06V83.51C349.37 83.9132 349.697 84.24 350.1 84.24Z" fill="#403882"/>
<path d="M350.45 82.3398H363.29V77.1798H350.45V82.3398Z" fill="#403882"/>
<path d="M350.45 82.3398H363.29V81.5098H350.45V82.3398Z" fill="#201851"/>
<path d="M358.93 84.25C358.93 84.25 359.01 103.48 360.49 103.51C361.97 103.54 365 98.76 358.58 97C352.16 95.24 349.37 99.29 350.9 99.44C352.43 99.59 353.9 97.77 354.09 93.57C354.28 89.37 354.29 84.26 354.29 84.26" stroke="#F59059" stroke-width="0.98" stroke-miterlimit="10"/>
<path opacity="0.5" d="M373.38 77.1799H339.88L291.69 103.2H421.56L373.38 77.1799Z" fill="#201851"/>
<path d="M374.31 75.27H338.95V77.18H374.31V75.27Z" fill="#201851"/>
<path d="M357.13 32.1799H356.13V76.2299H357.13V32.1799Z" fill="#201851"/>
<path d="M646.81 272.29C643.93 261.76 622.96 271.78 611.4 292.44L611.2 292.79C609.2 296.44 606.13 302.06 604.98 306.21C591.25 355.8 607 356 607.32 356C614.52 354.85 619.22 345.43 624.9 327.19C625.73 325.627 626.429 323.998 626.99 322.32L618.59 321.62L615.18 321.33L617.84 320.75L628.04 318.54C628.538 316.252 628.853 313.928 628.98 311.59C629.41 304.07 634.06 297.7 638.54 291.8L631.84 286.86L640.48 289.22C644.83 283.48 648.38 278.05 646.81 272.29Z" fill="#413B89"/>
<path d="M606.08 392.3C605.58 321.41 631.88 275 645.23 269.7" stroke="black" stroke-width="0.66" stroke-miterlimit="10"/>
<path d="M607.16 312.62L602.41 316.9L607.27 315.43C607.64 330.3 604.95 344.43 597.73 345.75C588.16 347.49 582.8 321.95 582.47 303.97L589.31 305.75L582.53 301.27C582.53 300.15 582.63 296.91 582.71 295.91C583.66 285.33 587.22 274.55 593.6 267.83C597.677 274.644 600.955 281.905 603.37 289.47C605.586 297 606.859 304.776 607.16 312.62V312.62Z" fill="#201851"/>
<g style="mix-blend-mode:multiply" opacity="0.35">
<path d="M582.71 295.91L603.37 289.46C600.953 281.899 597.675 274.642 593.6 267.83C587.22 274.54 583.65 285.34 582.71 295.91Z" fill="#042942"/>
</g>
<path d="M594.77 271.45C597.6 301.29 598.38 370.95 596.67 391.45" stroke="black" stroke-width="0.66" stroke-miterlimit="10"/>
<path d="M582.7 295.91C586.02 289.55 591.4 286.57 597.17 284.5L595.39 274.82L599.56 283.69C608.16 280.99 617.17 279.59 621.56 271.84C622.56 270.01 621.77 267.72 620.26 266.24C618.627 264.703 616.693 263.522 614.58 262.77L604.35 265.86L610 261.68C599.4 260.4 585.54 267.24 582.7 295.91Z" fill="#413B89"/>
<path d="M588.33 356.08C582.87 358.31 573.69 346.44 566.64 330.88C566.24 329.97 565.84 329.07 565.44 328.13C564.68 326.337 563.954 324.513 563.26 322.66L567.66 321.94L561.93 318.94C558.84 309.75 556.81 300.22 556.83 292.08L577.94 296.3C582.94 304.54 587.06 315.99 589.49 326.69L587.32 332.94L590.32 330.85C592.77 343.55 592.54 354.36 588.33 356.08Z" fill="url(#paint7_linear)"/>
<path d="M588.33 356.08C582.87 358.31 573.69 346.44 566.64 330.88C566.24 329.97 565.84 329.07 565.44 328.13C564.68 326.337 563.954 324.513 563.26 322.66L567.66 321.94L561.93 318.94C558.84 309.75 556.81 300.22 556.83 292.08L577.94 296.3C582.94 304.54 587.06 315.99 589.49 326.69L587.32 332.94L590.32 330.85C592.77 343.55 592.54 354.36 588.33 356.08Z" fill="#201851"/>
<path d="M563.07 296.79C578.57 329.25 593.92 366.52 591.9 392.3" stroke="black" stroke-width="0.66" stroke-miterlimit="10"/>
<path d="M577.94 296.29C574.688 295.904 571.4 296.608 568.59 298.29L561.22 294.29L566.92 299.5C565.423 300.696 564.127 302.124 563.08 303.73L562.67 304.33C560.94 303.02 558.67 301.4 558.45 301.25L561.1 306.5C552.66 317.22 541.7 319.57 544.3 309.14C544.84 307.01 545.3 304.56 546.17 301.79L551.37 298.18L547.1 298.89C547.261 298.334 547.496 297.802 547.8 297.31C549.068 295.262 550.865 293.595 553.002 292.484C555.139 291.374 557.536 290.861 559.94 291C566.07 291.29 575 292.39 577.94 296.29Z" fill="#413B89"/>
<path d="M616.25 432.8H578.98L568.48 382.58H627.72L616.25 432.8Z" fill="url(#paint8_linear)"/>
<path d="M570.51 392.3L572.8 403.26H623L625.5 392.3H570.51Z" fill="#201851"/>
<defs>
<linearGradient id="paint0_linear" x1="189.6" y1="321.35" x2="106.64" y2="423.09" gradientUnits="userSpaceOnUse">
<stop offset="0.05" stop-color="#FAD05B"/>
<stop offset="1" stop-color="#F8A35A"/>
</linearGradient>
<linearGradient id="paint1_linear" x1="47797.5" y1="2249.93" x2="47882.6" y2="3965.95" gradientUnits="userSpaceOnUse">
<stop offset="0.05" stop-color="#FAD05B"/>
<stop offset="1" stop-color="#F8A35A"/>
</linearGradient>
<linearGradient id="paint2_linear" x1="276.09" y1="301.13" x2="307.4" y2="270.08" gradientUnits="userSpaceOnUse">
<stop stop-color="#1252C3"/>
<stop offset="1" stop-color="#3F86FD"/>
</linearGradient>
<linearGradient id="paint3_linear" x1="5192.48" y1="7888.78" x2="5926.53" y2="7379.74" gradientUnits="userSpaceOnUse">
<stop stop-color="#1252C3"/>
<stop offset="1" stop-color="#3F86FD"/>
</linearGradient>
<linearGradient id="paint4_linear" x1="-1750.05" y1="5055.97" x2="-2187.08" y2="4796.39" gradientUnits="userSpaceOnUse">
<stop stop-color="#1252C3"/>
<stop offset="1" stop-color="#3F86FD"/>
</linearGradient>
<linearGradient id="paint5_linear" x1="-3461.9" y1="7888.78" x2="-4195.95" y2="7380.19" gradientUnits="userSpaceOnUse">
<stop stop-color="#1252C3"/>
<stop offset="1" stop-color="#3F86FD"/>
</linearGradient>
<linearGradient id="paint6_linear" x1="371.26" y1="78.38" x2="349.36" y2="105.85" gradientUnits="userSpaceOnUse">
<stop stop-color="#F5995E"/>
<stop offset="0.29" stop-color="#F9AB60"/>
<stop offset="0.71" stop-color="#FDBF62"/>
<stop offset="1" stop-color="#FFC663"/>
</linearGradient>
<linearGradient id="paint7_linear" x1="556.83" y1="324.21" x2="591.9" y2="324.21" gradientUnits="userSpaceOnUse">
<stop stop-color="#117233"/>
<stop offset="1" stop-color="#17A350"/>
</linearGradient>
<linearGradient id="paint8_linear" x1="34535.5" y1="18539.6" x2="36590.9" y2="22273.2" gradientUnits="userSpaceOnUse">
<stop offset="0.05" stop-color="#FAD05B"/>
<stop offset="1" stop-color="#F8A35A"/>
</linearGradient>
</defs>
</svg>
