<svg width="256" height="108" viewBox="0 0 256 108" fill="none" xmlns="http://www.w3.org/2000/svg">
<path d="M152.984 37.214C147.387 37.214 143.219 39.962 143.219 46.576C143.219 51.559 145.966 55.019 152.682 55.019C158.375 55.019 162.242 51.664 162.242 46.369C162.242 40.369 158.782 37.214 152.984 37.214V37.214ZM141.794 83.915C140.469 85.54 139.149 87.268 139.149 89.305C139.149 93.372 144.335 94.596 151.459 94.596C157.359 94.596 165.397 94.182 165.397 88.696C165.397 85.435 161.53 85.234 156.644 84.928L141.794 83.915V83.915ZM171.907 37.521C173.735 39.861 175.671 43.118 175.671 47.797C175.671 59.089 166.82 65.701 154.004 65.701C150.745 65.701 147.795 65.295 145.966 64.787L142.607 70.177L152.576 70.787C170.178 71.909 180.551 72.419 180.551 85.944C180.551 97.646 170.279 104.255 152.576 104.255C134.163 104.255 127.143 99.575 127.143 91.539C127.143 86.961 129.178 84.524 132.739 81.161C129.381 79.742 128.263 77.2 128.263 74.451C128.263 72.211 129.381 70.178 131.215 68.243C133.045 66.313 135.079 64.378 137.521 62.14C132.537 59.698 128.771 54.408 128.771 46.878C128.771 35.181 136.504 27.147 152.066 27.147C156.442 27.147 159.088 27.549 161.428 28.164H181.268V36.808L171.907 37.521V37.521Z" fill="#2F2707"/>
<path d="M199.166 19.0341C193.366 19.0341 190.009 15.6741 190.009 9.8731C190.009 4.0801 193.365 0.923096 199.166 0.923096C205.066 0.923096 208.424 4.0801 208.424 9.8731C208.424 15.6741 205.067 19.0341 199.166 19.0341ZM186.04 80.1711V72.1381L191.23 71.4281C192.655 71.2231 192.857 70.9191 192.857 69.3901V39.4801C192.857 38.3641 192.553 37.6481 191.532 37.3461L186.04 35.4111L187.158 27.1731H208.219V69.3901C208.219 71.0201 208.317 71.2231 209.848 71.4291L215.036 72.1391V80.1711H186.04V80.1711Z" fill="#2F2707"/>
<path d="M255.267 76.227C250.891 78.362 244.482 80.295 238.681 80.295C226.575 80.295 221.999 75.417 221.999 63.915V37.264C221.999 36.654 221.999 36.247 221.182 36.247H214.062V27.19C223.017 26.17 226.575 21.694 227.694 10.605H237.36V25.055C237.36 25.765 237.36 26.072 238.175 26.072H252.518V36.245H237.36V60.558C237.36 66.56 238.786 68.898 244.277 68.898C247.129 68.898 250.076 68.188 252.517 67.272L255.267 76.226" fill="#2F2707"/>
<path d="M104.529 49.5301L58.013 3.01708C57.3759 2.37984 56.6196 1.87435 55.7872 1.52947C54.9548 1.18459 54.0625 1.00708 53.1615 1.00708C52.2604 1.00708 51.3682 1.18459 50.5358 1.52947C49.7034 1.87435 48.947 2.37984 48.31 3.01708L38.651 12.6771L50.904 24.9291C52.3443 24.4393 53.8929 24.3626 55.3745 24.7078C56.8561 25.0529 58.2115 25.8062 59.287 26.8821C60.3683 27.9648 61.1232 29.3298 61.4655 30.8212C61.8079 32.3126 61.7238 33.8702 61.223 35.3161L73.03 47.1251C75.887 46.1411 79.184 46.7781 81.465 49.0631C82.2233 49.821 82.8249 50.7208 83.2354 51.7113C83.6458 52.7018 83.8571 53.7634 83.8571 54.8356C83.8571 55.9077 83.6458 56.9694 83.2354 57.9598C82.8249 58.9503 82.2233 59.8502 81.465 60.6081C80.1307 61.9436 78.3749 62.7754 76.4964 62.962C74.6179 63.1486 72.7327 62.6784 71.1618 61.6314C69.591 60.5845 68.4314 59.0255 67.8807 57.2199C67.3299 55.4142 67.4219 53.4735 68.141 51.7281L57.129 40.7161L57.128 69.6961C57.9263 70.0908 58.6554 70.6122 59.287 71.2401C60.0453 71.9982 60.6468 72.8983 61.0572 73.8889C61.4676 74.8795 61.6788 75.9413 61.6788 77.0136C61.6788 78.0858 61.4676 79.1476 61.0572 80.1382C60.6468 81.1289 60.0453 82.029 59.287 82.7871C56.097 85.9771 50.927 85.9771 47.742 82.7871C46.7905 81.8363 46.0886 80.665 45.6989 79.3776C45.3091 78.0901 45.2436 76.7263 45.508 75.4074C45.7724 74.0884 46.3586 72.8553 47.2145 71.8176C48.0704 70.7798 49.1695 69.9696 50.414 69.4591V40.2091C49.4128 39.8002 48.5042 39.1942 47.742 38.4271C45.326 36.0141 44.745 32.4691 45.983 29.5021L33.905 17.4221L2.01098 49.3141C1.37366 49.9514 0.868102 50.708 0.523181 51.5406C0.178261 52.3733 0.000732422 53.2658 0.000732422 54.1671C0.000732422 55.0684 0.178261 55.9608 0.523181 56.7935C0.868102 57.6262 1.37366 58.3828 2.01098 59.0201L48.527 105.534C49.8138 106.821 51.5589 107.543 53.3785 107.543C55.1981 107.543 56.9432 106.821 58.23 105.534L104.529 59.2371C105.816 57.9496 106.538 56.2038 106.538 54.3836C106.538 52.5633 105.816 50.8176 104.529 49.5301" fill="#DE4C36"/>
</svg>
