<svg width="256" height="256" viewBox="0 0 32 32" fill="none" xmlns="http://www.w3.org/2000/svg">
<path d="M16.5402 12.663H19.4002V15.587H20.8462C21.5225 15.5839 22.1938 15.4715 22.8342 15.254C23.1705 15.1427 23.4942 14.9966 23.8002 14.818C23.4088 14.2762 23.1768 13.6358 23.1302 12.969C23.0099 11.996 23.2597 11.0134 23.8302 10.216L24.1302 9.86802L24.4882 10.156C25.4375 10.8521 26.0808 11.8884 26.2832 13.048C27.387 12.709 28.58 12.8201 29.6022 13.357L29.9952 13.583L29.7882 13.983C29.3695 14.688 28.7509 15.2527 28.0108 15.6058C27.2708 15.9588 26.4426 16.0842 25.6312 15.966C23.1512 22.134 17.7602 25.054 11.2222 25.054C7.8442 25.054 4.7462 23.791 2.9812 20.795L2.9522 20.746L2.7002 20.227C2.11896 18.9053 1.89184 17.4551 2.0412 16.019L2.0812 15.586H4.5262V12.663H7.3872V9.80002H13.1082V6.94202H16.5402V12.663Z" fill="#0096E6"/>
<path d="M12.0061 24.567C10.6069 23.9708 9.48511 22.8673 8.86607 21.478C8.12645 21.6759 7.36712 21.791 6.60207 21.821C6.26874 21.8397 5.92041 21.849 5.55707 21.849C5.13574 21.849 4.69207 21.8367 4.22607 21.812C5.12584 22.7488 6.2167 23.481 7.42455 23.9588C8.63239 24.4366 9.92893 24.6488 11.2261 24.581C11.4874 24.581 11.7474 24.5764 12.0061 24.567V24.567Z" fill="white"/>
<path d="M7.08 13.3459H7.28V15.4129H7.08V13.3459ZM6.704 13.3459H6.904V15.4129H6.7V13.3459H6.704ZM6.328 13.3459H6.528V15.4129H6.328V13.3459ZM5.952 13.3459H6.152V15.4129H5.952V13.3459ZM5.576 13.3459H5.776V15.4129H5.576V13.3459ZM5.208 13.3459H5.408V15.4129H5.208V13.3459ZM5 13.1399H7.482V15.6189H5V13.1399ZM7.859 10.2789H10.339V12.7579H7.863L7.859 10.2789ZM9.936 10.4859H10.136V12.5519H9.936V10.4859ZM9.56 10.4859H9.76V12.5519H9.56V10.4859ZM9.184 10.4859H9.384V12.5519H9.184V10.4859ZM8.808 10.4859H9.008V12.5519H8.808V10.4859ZM8.432 10.4859H8.632V12.5519H8.432V10.4859ZM8.064 10.4859H8.264V12.5519H8.064V10.4859ZM7.857 13.1389H10.337V15.6189H7.863V13.1399L7.857 13.1389ZM9.934 13.3459H10.134V15.4129H9.934V13.3459ZM9.558 13.3459H9.758V15.4129H9.558V13.3459ZM9.182 13.3459H9.382V15.4129H9.182V13.3459ZM8.806 13.3459H9.006V15.4129H8.806V13.3459ZM8.43 13.3459H8.63V15.4129H8.43V13.3459ZM8.062 13.3459H8.262V15.4129H8.062V13.3459ZM10.716 13.1389H13.2V15.6189H10.72V13.1399L10.716 13.1389ZM12.792 13.3459H13V15.4129H12.8L12.792 13.3459ZM12.416 13.3459H12.616V15.4129H12.416V13.3459ZM12.04 13.3459H12.24V15.4129H12.04V13.3459ZM11.664 13.3459H11.864V15.4129H11.664V13.3459ZM11.288 13.3459H11.488V15.4129H11.288V13.3459ZM10.92 13.3459H11.12V15.4129H10.92V13.3459ZM10.714 10.2789H13.2V12.7579H10.72V10.2789H10.714ZM12.79 10.4859H13V12.5519H12.8L12.79 10.4859ZM12.414 10.4859H12.614V12.5519H12.414V10.4859ZM12.038 10.4859H12.238V12.5519H12.038V10.4859ZM11.662 10.4859H11.862V12.5519H11.662V10.4859ZM11.286 10.4859H11.486V12.5519H11.286V10.4859ZM10.918 10.4859H11.118V12.5519H10.918V10.4859ZM13.572 13.1389H16.051V15.6189H13.571V13.1399L13.572 13.1389ZM15.648 13.3459H15.848V15.4129H15.648V13.3459ZM15.272 13.3459H15.472V15.4129H15.272V13.3459ZM14.896 13.3459H15.096V15.4129H14.896V13.3459ZM14.52 13.3459H14.72V15.4129H14.52V13.3459ZM14.144 13.3459H14.344V15.4129H14.144V13.3459ZM13.776 13.3459H13.968V15.4129H13.768V13.3459H13.776ZM13.57 10.2789H16.049V12.7579H13.569V10.2789H13.57ZM15.646 10.4859H15.846V12.5519H15.646V10.4859ZM15.27 10.4859H15.47V12.5519H15.27V10.4859ZM14.894 10.4859H15.094V12.5519H14.894V10.4859ZM14.518 10.4859H14.718V12.5519H14.518V10.4859ZM14.142 10.4859H14.342V12.5519H14.142V10.4859ZM13.774 10.4859H13.966V12.5519H13.766V10.4859H13.774ZM13.568 7.41895H16.047V9.89994H13.567V7.41895H13.568ZM15.644 7.62495H15.844V9.69095H15.644V7.62495ZM15.268 7.62495H15.468V9.69095H15.268V7.62495ZM14.892 7.62495H15.092V9.69095H14.892V7.62495ZM14.516 7.62495H14.716V9.69095H14.516V7.62495ZM14.14 7.62495H14.34V9.69095H14.14V7.62495ZM13.772 7.62495H13.964V9.69095H13.764V7.62495H13.772ZM16.426 13.1389H18.905V15.6189H16.425V13.1399L16.426 13.1389ZM18.502 13.3459H18.697V15.4129H18.497V13.3459H18.502ZM18.126 13.3459H18.332V15.4129H18.126V13.3459ZM17.75 13.3459H17.95V15.4129H17.75V13.3459ZM17.374 13.3459H17.574V15.4129H17.374V13.3459ZM16.998 13.3459H17.198V15.4129H16.993V13.3459H16.998ZM16.63 13.3459H16.83V15.4129H16.636V13.3459H16.63Z" fill="white"/>
<path d="M10.1879 19.6379C10.3232 19.6379 10.4554 19.6781 10.5679 19.7532C10.6804 19.8284 10.7681 19.9352 10.8198 20.0602C10.8716 20.1852 10.8852 20.3227 10.8588 20.4554C10.8324 20.5881 10.7672 20.7099 10.6716 20.8056C10.5759 20.9013 10.454 20.9664 10.3213 20.9928C10.1887 21.0192 10.0511 21.0056 9.92615 20.9539C9.80117 20.9021 9.69434 20.8144 9.61918 20.7019C9.54402 20.5895 9.50391 20.4572 9.50391 20.3219C9.50391 20.1405 9.57597 19.9666 9.70425 19.8383C9.83252 19.71 10.0065 19.6379 10.1879 19.6379ZM10.1879 19.8319C10.2484 19.8319 10.3085 19.8431 10.3649 19.8649C10.338 19.8803 10.3151 19.9017 10.2979 19.9274C10.2807 19.9531 10.2697 19.9824 10.2657 20.0131C10.2618 20.0438 10.265 20.075 10.2752 20.1042C10.2853 20.1335 10.3021 20.16 10.3242 20.1816C10.3464 20.2032 10.3732 20.2194 10.4026 20.2289C10.4321 20.2384 10.4633 20.241 10.4939 20.2364C10.5245 20.2318 10.5536 20.2201 10.579 20.2023C10.6043 20.1846 10.6252 20.1611 10.6399 20.1339C10.6807 20.2309 10.6892 20.3384 10.6642 20.4405C10.6391 20.5427 10.5819 20.6341 10.5009 20.7012C10.4199 20.7683 10.3195 20.8076 10.2145 20.8132C10.1094 20.8189 10.0054 20.7905 9.91769 20.7325C9.83 20.6744 9.76332 20.5896 9.72751 20.4907C9.6917 20.3918 9.68867 20.2841 9.71886 20.1833C9.74905 20.0825 9.81085 19.9942 9.89514 19.9313C9.97943 19.8683 10.0817 19.8342 10.1869 19.8339L10.1879 19.8319Z" fill="white"/>
</svg>
