<svg width="256" height="256" viewBox="0 0 256 256" fill="none" xmlns="http://www.w3.org/2000/svg">
<g clip-path="url(#clip0)">
<path d="M128.152 0.000932656C148.929 0.000932656 168.492 4.85493 186.844 14.2579L189.27 15.4719L187.147 17.1399C181.991 21.2349 177.896 26.5429 175.317 32.6089L174.559 34.2769L173.043 33.5189C158.938 26.8459 143.924 23.3579 128.303 23.3579C70.521 23.3579 23.659 70.3719 23.659 128.002C23.659 185.632 70.369 232.647 128.152 232.647C185.934 232.647 232.796 185.633 232.796 128.002C232.796 114.202 230.218 100.704 224.758 87.9639L224 86.2959L225.668 85.5379C231.886 83.2629 237.346 79.4719 241.744 74.6179L243.412 72.4949L244.474 74.9219C252.209 91.7559 256 109.652 256 127.699C256 198.22 198.521 255.699 128 255.699C57.479 255.699 0 198.22 0 127.7C0 57.1799 57.479 -0.300067 128.152 0.000932656ZM128.152 69.7649C160.152 69.7649 186.389 95.8509 186.54 128.154C186.54 160.457 160.455 186.543 128.152 186.543C95.848 186.543 69.763 160.457 69.763 128.154C69.763 95.8509 96 69.7649 128.152 69.7649V69.7649ZM211.716 21.5379C226.457 21.5379 238.408 33.4879 238.408 48.2299C238.408 62.9709 226.458 74.9219 211.716 74.9219C196.974 74.9219 185.024 62.9719 185.024 48.2299C185.024 33.4879 196.974 21.5379 211.716 21.5379V21.5379Z" fill="#3880FF"/>
</g>
<defs>
<clipPath id="clip0">
<rect width="256" height="256" fill="white"/>
</clipPath>
</defs>
</svg>
