<svg width="256" height="125" viewBox="0 0 256 125" fill="none" xmlns="http://www.w3.org/2000/svg">
<g clip-path="url(#clip0)">
<path d="M184.315 67.704C197.784 59.968 211.217 52.169 224.732 44.514C237.56 37.245 252.652 43.948 255.561 58.092C257.244 66.274 253.591 75.113 246.204 79.418C221.986 93.531 197.733 107.588 173.359 121.43C165.815 125.714 158.044 124.926 151.169 119.676C144.185 114.346 141.984 106.994 143.622 98.437C145.492 91.923 149.772 87.568 155.609 84.31C165.259 78.924 174.754 73.254 184.315 67.704" fill="#FABC05"/>
<path d="M194.203 62.0791C180.768 54.2831 167.299 46.5481 153.911 38.6731C141.202 31.1971 139.462 14.7751 150.256 5.18308C156.5 -0.363922 165.981 -1.62092 173.403 2.62408C197.735 16.5411 222.035 30.5171 246.209 44.7041C253.691 49.0951 256.893 56.2201 255.786 64.7991C254.661 73.5111 249.396 79.0931 241.166 81.9541C234.589 83.5921 228.678 82.0621 222.938 78.6361C213.448 72.9711 203.79 67.5831 194.203 62.0791" fill="#109D58"/>
<path d="M71.7521 56.563C63.1311 61.461 54.5051 66.35 45.8921 71.263C40.8551 74.137 35.8721 77.109 30.8091 79.935C20.6061 85.63 8.48405 82.292 2.69905 72.261C-2.82195 62.689 0.351054 50.279 10.1771 44.543C34.2021 30.52 58.2891 16.599 82.4631 2.83303C89.8771 -1.38797 97.5691 -0.856974 104.425 4.19003C111.661 9.51703 114.03 17.013 112.405 25.8C111.397 27.927 110.795 30.42 109.285 32.095C106.831 34.82 104.041 37.429 100.935 39.345C91.3231 45.272 81.4951 50.85 71.7521 56.563" fill="#E94436"/>
<path d="M61.867 62.0571C70.42 67.0731 78.967 72.1001 87.528 77.1021C92.535 80.0281 97.6 82.8571 102.579 85.8281C112.613 91.8181 115.784 103.984 109.989 114.009C104.459 123.577 92.126 127.035 82.245 121.392C58.088 107.597 33.989 93.6991 9.98103 79.6461C2.61803 75.3361 -0.767972 68.4091 0.175028 59.9481C1.17003 51.0171 6.47703 45.2181 14.9 42.2311C17.245 42.0421 19.705 41.3161 21.911 41.7861C25.498 42.5501 29.153 43.6611 32.365 45.3931C42.304 50.7531 52.048 56.4751 61.867 62.0571" fill="#4385F3"/>
</g>
<defs>
<clipPath id="clip0">
<rect width="256" height="125" fill="white"/>
</clipPath>
</defs>
</svg>
