<svg width="869" height="230" viewBox="0 0 869 230" fill="none" xmlns="http://www.w3.org/2000/svg">
<path d="M253.875 159V68H285.75C296.792 68 305.167 70.125 310.875 74.375C316.583 78.5833 319.438 84.7708 319.438 92.9375C319.438 97.3958 318.292 101.333 316 104.75C313.708 108.125 310.521 110.604 306.438 112.188C311.104 113.354 314.771 115.708 317.438 119.25C320.146 122.792 321.5 127.125 321.5 132.25C321.5 141 318.708 147.625 313.125 152.125C307.542 156.625 299.583 158.917 289.25 159H253.875ZM272.625 119.375V143.938H288.688C293.104 143.938 296.542 142.896 299 140.812C301.5 138.688 302.75 135.771 302.75 132.062C302.75 123.729 298.438 119.5 289.812 119.375H272.625ZM272.625 106.125H286.5C295.958 105.958 300.688 102.188 300.688 94.8125C300.688 90.6875 299.479 87.7292 297.062 85.9375C294.688 84.1042 290.917 83.1875 285.75 83.1875H272.625V106.125ZM331.625 124.562C331.625 117.854 332.917 111.875 335.5 106.625C338.083 101.375 341.792 97.3125 346.625 94.4375C351.5 91.5625 357.146 90.125 363.562 90.125C372.688 90.125 380.125 92.9167 385.875 98.5C391.667 104.083 394.896 111.667 395.562 121.25L395.688 125.875C395.688 136.25 392.792 144.583 387 150.875C381.208 157.125 373.438 160.25 363.688 160.25C353.938 160.25 346.146 157.125 340.312 150.875C334.521 144.625 331.625 136.125 331.625 125.375V124.562ZM349.688 125.875C349.688 132.292 350.896 137.208 353.312 140.625C355.729 144 359.188 145.688 363.688 145.688C368.062 145.688 371.479 144.021 373.938 140.688C376.396 137.312 377.625 131.938 377.625 124.562C377.625 118.271 376.396 113.396 373.938 109.938C371.479 106.479 368.021 104.75 363.562 104.75C359.146 104.75 355.729 106.479 353.312 109.938C350.896 113.354 349.688 118.667 349.688 125.875ZM404 124.562C404 117.854 405.292 111.875 407.875 106.625C410.458 101.375 414.167 97.3125 419 94.4375C423.875 91.5625 429.521 90.125 435.938 90.125C445.062 90.125 452.5 92.9167 458.25 98.5C464.042 104.083 467.271 111.667 467.938 121.25L468.062 125.875C468.062 136.25 465.167 144.583 459.375 150.875C453.583 157.125 445.812 160.25 436.062 160.25C426.312 160.25 418.521 157.125 412.688 150.875C406.896 144.625 404 136.125 404 125.375V124.562ZM422.062 125.875C422.062 132.292 423.271 137.208 425.688 140.625C428.104 144 431.562 145.688 436.062 145.688C440.438 145.688 443.854 144.021 446.312 140.688C448.771 137.312 450 131.938 450 124.562C450 118.271 448.771 113.396 446.312 109.938C443.854 106.479 440.396 104.75 435.938 104.75C431.521 104.75 428.104 106.479 425.688 109.938C423.271 113.354 422.062 118.667 422.062 125.875ZM500.812 74.75V91.375H512.375V104.625H500.812V138.375C500.812 140.875 501.292 142.667 502.25 143.75C503.208 144.833 505.042 145.375 507.75 145.375C509.75 145.375 511.521 145.229 513.062 144.938V158.625C509.521 159.708 505.875 160.25 502.125 160.25C489.458 160.25 483 153.854 482.75 141.062V104.625H472.875V91.375H482.75V74.75H500.812ZM559.062 140.312C559.062 138.104 557.958 136.375 555.75 135.125C553.583 133.833 550.083 132.688 545.25 131.688C529.167 128.312 521.125 121.479 521.125 111.188C521.125 105.188 523.604 100.188 528.562 96.1875C533.562 92.1458 540.083 90.125 548.125 90.125C556.708 90.125 563.562 92.1458 568.688 96.1875C573.854 100.229 576.438 105.479 576.438 111.938H558.375C558.375 109.354 557.542 107.229 555.875 105.562C554.208 103.854 551.604 103 548.062 103C545.021 103 542.667 103.688 541 105.062C539.333 106.438 538.5 108.188 538.5 110.312C538.5 112.312 539.438 113.938 541.312 115.188C543.229 116.396 546.438 117.458 550.938 118.375C555.438 119.25 559.229 120.25 562.312 121.375C571.854 124.875 576.625 130.938 576.625 139.562C576.625 145.729 573.979 150.729 568.688 154.562C563.396 158.354 556.562 160.25 548.188 160.25C542.521 160.25 537.479 159.25 533.062 157.25C528.688 155.208 525.25 152.438 522.75 148.938C520.25 145.396 519 141.583 519 137.5H536.125C536.292 140.708 537.479 143.167 539.688 144.875C541.896 146.583 544.854 147.438 548.562 147.438C552.021 147.438 554.625 146.792 556.375 145.5C558.167 144.167 559.062 142.438 559.062 140.312ZM609.938 74.75V91.375H621.5V104.625H609.938V138.375C609.938 140.875 610.417 142.667 611.375 143.75C612.333 144.833 614.167 145.375 616.875 145.375C618.875 145.375 620.646 145.229 622.188 144.938V158.625C618.646 159.708 615 160.25 611.25 160.25C598.583 160.25 592.125 153.854 591.875 141.062V104.625H582V91.375H591.875V74.75H609.938ZM669.562 108.312C667.104 107.979 664.938 107.812 663.062 107.812C656.229 107.812 651.75 110.125 649.625 114.75V159H631.562V91.375H648.625L649.125 99.4375C652.75 93.2292 657.771 90.125 664.188 90.125C666.188 90.125 668.062 90.3958 669.812 90.9375L669.562 108.312ZM715.625 159C714.792 157.375 714.188 155.354 713.812 152.938C709.438 157.812 703.75 160.25 696.75 160.25C690.125 160.25 684.625 158.333 680.25 154.5C675.917 150.667 673.75 145.833 673.75 140C673.75 132.833 676.396 127.333 681.688 123.5C687.021 119.667 694.708 117.729 704.75 117.688H713.062V113.812C713.062 110.688 712.25 108.188 710.625 106.312C709.042 104.438 706.521 103.5 703.062 103.5C700.021 103.5 697.625 104.229 695.875 105.688C694.167 107.146 693.312 109.146 693.312 111.688H675.25C675.25 107.771 676.458 104.146 678.875 100.812C681.292 97.4792 684.708 94.875 689.125 93C693.542 91.0833 698.5 90.125 704 90.125C712.333 90.125 718.938 92.2292 723.812 96.4375C728.729 100.604 731.188 106.479 731.188 114.062V143.375C731.229 149.792 732.125 154.646 733.875 157.938V159H715.625ZM700.688 146.438C703.354 146.438 705.812 145.854 708.062 144.688C710.312 143.479 711.979 141.875 713.062 139.875V128.25H706.312C697.271 128.25 692.458 131.375 691.875 137.625L691.812 138.688C691.812 140.938 692.604 142.792 694.188 144.25C695.771 145.708 697.938 146.438 700.688 146.438ZM805.938 125.812C805.938 136.229 803.562 144.583 798.812 150.875C794.104 157.125 787.729 160.25 779.688 160.25C772.854 160.25 767.333 157.875 763.125 153.125V185H745.062V91.375H761.812L762.438 98C766.812 92.75 772.521 90.125 779.562 90.125C787.896 90.125 794.375 93.2083 799 99.375C803.625 105.542 805.938 114.042 805.938 124.875V125.812ZM787.875 124.5C787.875 118.208 786.75 113.354 784.5 109.938C782.292 106.521 779.062 104.812 774.812 104.812C769.146 104.812 765.25 106.979 763.125 111.312V139C765.333 143.458 769.271 145.688 774.938 145.688C783.562 145.688 787.875 138.625 787.875 124.5Z" fill="#a4a4a4"/>
<g clip-path="url(#clip0)">
<path d="M74.5078 105.275V76.4424H95.3116C106.683 76.4424 113.334 81.7836 113.334 90.8998C113.334 100.273 106.274 105.275 92.7169 105.275H74.5078ZM74.5078 149.244H96.6907C110.529 149.244 117.845 143.634 117.845 133.15C117.845 122.807 110.248 117.395 95.8024 117.395H74.5078V149.244V149.244Z" fill="#a4a4a4"/>
<path d="M46.7727 22C34.3738 22 22.4828 26.9254 13.7155 35.6928C4.94814 44.4601 0.0227051 56.3511 0.0227051 68.75V162.25C0.0227051 174.649 4.94814 186.54 13.7155 195.307C22.4828 204.075 34.3738 209 46.7727 209H140.273C152.672 209 164.563 204.075 173.33 195.307C182.097 186.54 187.023 174.649 187.023 162.25V68.75C187.023 56.3511 182.097 44.4601 173.33 35.6928C164.563 26.9254 152.672 22 140.273 22H46.7727V22ZM59.1615 162.25V63.4322H98.8873C117.435 63.4322 128.609 72.8874 128.609 88.0928C128.609 98.4246 121.012 107.669 111.276 109.317V110.486C124.635 111.854 133.529 121.367 133.529 134.247C133.529 151.638 120.86 162.25 99.7755 162.25H59.1615V162.25Z" fill="#a4a4a4"/>
</g>
<defs>
<clipPath id="clip0">
<rect width="187" height="187" fill="white" transform="translate(0 22)"/>
</clipPath>
</defs>
</svg>
