<svg width="568" height="230" viewBox="0 0 568 230" fill="none" xmlns="http://www.w3.org/2000/svg">
<path d="M296 159H277.25V120H240.688V159H221.938V68H240.688V104.875H277.25V68H296V159ZM379.062 83.1875H351.188V159H332.438V83.1875H304.938V68H379.062V83.1875ZM414.312 68L437.688 134L460.938 68H485.562V159H466.75V134.125L468.625 91.1875L444.062 159H431.188L406.688 91.25L408.562 134.125V159H389.812V68H414.312ZM520.688 143.938H560.5V159H501.938V68H520.688V143.938Z" fill="#a4a4a4"/>
<path d="M0 31L13.4689 183.1L73.9108 200L134.51 183.079L148 31H0.0104902H0ZM122.961 173.404L74.2465 186.998V187.072L74.1206 187.029L73.9948 187.072V186.998L25.2803 173.404L13.7626 43.4426H134.479L122.961 173.404V173.404ZM96.7366 118.5L94.5966 142.688L73.9108 148.307L53.2775 142.709L51.9558 127.816H33.3574L35.9484 157.116L73.9843 167.71L111.905 157.116L116.992 99.8464H49.4697L47.7808 80.7388H118.671L120.328 62.0854H27.5251L32.5287 118.5H96.7366Z" fill="#a4a4a4"/>
</svg>
