<?xml version="1.0" encoding="UTF-8" standalone="no"?><!DOCTYPE svg PUBLIC "-//W3C//DTD SVG 1.1//EN" "http://www.w3.org/Graphics/SVG/1.1/DTD/svg11.dtd"><svg width="100%" height="100%" viewBox="0 0 2546 472" version="1.1" xmlns="http://www.w3.org/2000/svg" xmlns:xlink="http://www.w3.org/1999/xlink" xml:space="preserve" xmlns:serif="http://www.serif.com/" style="fill-rule:evenodd;clip-rule:evenodd;stroke-linejoin:round;stroke-miterlimit:2;"><g><path d="M0,238c0,-152.667 43.333,-238 186,-238c142.667,0 185.333,84.667 185.333,238c0,155.333 -42.666,233.333 -185.333,233.333c-143.333,0 -186,-79.333 -186,-233.333Zm294.667,0c-0,-113.333 -20.834,-173.333 -108.667,-173.333c-87.833,-0 -109.333,60 -109.333,173.333c-0,114 20.833,168.667 109.333,168.667c88.5,-0 108.667,-52.5 108.667,-168.667Z" style="fill:#004b73;fill-rule:nonzero;"/><path d="M457.333,7.333l129.167,0l138.667,391.334l10,-0l-0,-391.334l74,0l-0,456.667l-126.667,0l-141.833,-392l-9.334,-0l0,392l-74,0l0,-456.667Z" style="fill:#004b73;fill-rule:nonzero;"/><path d="M870.833,7.333l333.334,0l-0,66l-128.834,0l0,390.667l-74.666,0l-0,-390.667l-129.834,0l0,-66Z" style="fill:#004b73;fill-rule:nonzero;"/><path d="M1311.33,7.333l147.334,0l113.333,456.667l-74.667,0l-24.666,-98l-175.334,0l-24.666,98l-74,0l112.666,-456.667Zm0.667,293.334l145.833,-0l-55.833,-231.334l-33.333,0l-56.667,231.334Z" style="fill:#004b73;fill-rule:nonzero;"/><path d="M1948.67,7.333l-112,456.667l-145.334,0l-112.166,-456.667l77.5,0l90.666,391.334l33.334,-0l90.666,-391.334l77.334,0Z" style="fill:#004b73;fill-rule:nonzero;"/><rect x="2014.67" y="7.333" width="74" height="456.667" style="fill:#004b73;fill-rule:nonzero;"/><path d="M2173.96,238c0,-152.667 43.375,-238 186.042,-238c142.667,0 185.333,84.667 185.333,238c0,155.333 -42.666,233.333 -185.333,233.333c-143.333,0 -186.042,-79.333 -186.042,-233.333Zm294.709,0c-0,-113.333 -20.834,-173.333 -108.667,-173.333c-87.833,-0 -109.333,60 -109.333,173.333c-0,114 20.833,168.667 109.333,168.667c88.5,-0 108.667,-52.5 108.667,-168.667Z" style="fill:#004b73;fill-rule:nonzero;"/></g></svg>