<svg width="667" height="190" viewBox="0 0 667 190" fill="none" xmlns="http://www.w3.org/2000/svg">
<path d="M321.125 139H302.375L265.875 79.125V139H247.125V48H265.875L302.438 108V48H321.125V139ZM367.438 140.25C357.521 140.25 349.438 137.208 343.188 131.125C336.979 125.042 333.875 116.938 333.875 106.812V105.062C333.875 98.2708 335.188 92.2083 337.812 86.875C340.438 81.5 344.146 77.375 348.938 74.5C353.771 71.5833 359.271 70.125 365.438 70.125C374.688 70.125 381.958 73.0417 387.25 78.875C392.583 84.7083 395.25 92.9792 395.25 103.688V111.062H352.188C352.771 115.479 354.521 119.021 357.438 121.688C360.396 124.354 364.125 125.688 368.625 125.688C375.583 125.688 381.021 123.167 384.938 118.125L393.812 128.062C391.104 131.896 387.438 134.896 382.812 137.062C378.188 139.188 373.062 140.25 367.438 140.25ZM365.375 84.75C361.792 84.75 358.875 85.9583 356.625 88.375C354.417 90.7917 353 94.25 352.375 98.75H377.5V97.3125C377.417 93.3125 376.333 90.2292 374.25 88.0625C372.167 85.8542 369.208 84.75 365.375 84.75ZM442.188 120.312C442.188 118.104 441.083 116.375 438.875 115.125C436.708 113.833 433.208 112.688 428.375 111.688C412.292 108.312 404.25 101.479 404.25 91.1875C404.25 85.1875 406.729 80.1875 411.688 76.1875C416.688 72.1458 423.208 70.125 431.25 70.125C439.833 70.125 446.688 72.1458 451.812 76.1875C456.979 80.2292 459.562 85.4792 459.562 91.9375H441.5C441.5 89.3542 440.667 87.2292 439 85.5625C437.333 83.8542 434.729 83 431.188 83C428.146 83 425.792 83.6875 424.125 85.0625C422.458 86.4375 421.625 88.1875 421.625 90.3125C421.625 92.3125 422.562 93.9375 424.438 95.1875C426.354 96.3958 429.562 97.4583 434.062 98.375C438.562 99.25 442.354 100.25 445.438 101.375C454.979 104.875 459.75 110.938 459.75 119.562C459.75 125.729 457.104 130.729 451.812 134.562C446.521 138.354 439.688 140.25 431.312 140.25C425.646 140.25 420.604 139.25 416.188 137.25C411.812 135.208 408.375 132.438 405.875 128.938C403.375 125.396 402.125 121.583 402.125 117.5H419.25C419.417 120.708 420.604 123.167 422.812 124.875C425.021 126.583 427.979 127.438 431.688 127.438C435.146 127.438 437.75 126.792 439.5 125.5C441.292 124.167 442.188 122.438 442.188 120.312ZM493.062 54.75V71.375H504.625V84.625H493.062V118.375C493.062 120.875 493.542 122.667 494.5 123.75C495.458 124.833 497.292 125.375 500 125.375C502 125.375 503.771 125.229 505.312 124.938V138.625C501.771 139.708 498.125 140.25 494.375 140.25C481.708 140.25 475.25 133.854 475 121.062V84.625H465.125V71.375H475V54.75H493.062ZM552.562 48H571.312V111C571.312 116.792 570.021 121.917 567.438 126.375C564.896 130.792 561.292 134.208 556.625 136.625C551.958 139.042 546.688 140.25 540.812 140.25C531.188 140.25 523.688 137.812 518.312 132.938C512.938 128.021 510.25 121.083 510.25 112.125H529.125C529.125 116.583 530.062 119.875 531.938 122C533.812 124.125 536.771 125.188 540.812 125.188C544.396 125.188 547.25 123.958 549.375 121.5C551.5 119.042 552.562 115.542 552.562 111V48ZM634.562 115.125C634.562 111.583 633.312 108.875 630.812 107C628.312 105.083 623.812 103.083 617.312 101C610.812 98.875 605.667 96.7917 601.875 94.75C591.542 89.1667 586.375 81.6458 586.375 72.1875C586.375 67.2708 587.75 62.8958 590.5 59.0625C593.292 55.1875 597.271 52.1667 602.438 50C607.646 47.8333 613.479 46.75 619.938 46.75C626.438 46.75 632.229 47.9375 637.312 50.3125C642.396 52.6458 646.333 55.9583 649.125 60.25C651.958 64.5417 653.375 69.4167 653.375 74.875H634.625C634.625 70.7083 633.312 67.4792 630.688 65.1875C628.062 62.8542 624.375 61.6875 619.625 61.6875C615.042 61.6875 611.479 62.6667 608.938 64.625C606.396 66.5417 605.125 69.0833 605.125 72.25C605.125 75.2083 606.604 77.6875 609.562 79.6875C612.562 81.6875 616.958 83.5625 622.75 85.3125C633.417 88.5208 641.188 92.5 646.062 97.25C650.938 102 653.375 107.917 653.375 115C653.375 122.875 650.396 129.062 644.438 133.562C638.479 138.021 630.458 140.25 620.375 140.25C613.375 140.25 607 138.979 601.25 136.438C595.5 133.854 591.104 130.333 588.062 125.875C585.062 121.417 583.562 116.25 583.562 110.375H602.375C602.375 120.417 608.375 125.438 620.375 125.438C624.833 125.438 628.312 124.542 630.812 122.75C633.312 120.917 634.562 118.375 634.562 115.125Z" fill="black"/>
<path d="M112.73 27.0428C109.254 21.5765 110.366 17.9719 112.284 14.2504C114.001 10.919 114.703 5.12949 108.635 0.573507C114.221 -1.48111 123.036 2.15151 123.188 8.80503C119.946 13.2614 111.092 15.0323 112.73 27.0428V27.0428ZM152.835 149.877C150.124 158.661 151.36 163.334 139.566 181.571C160.419 167.504 170.258 149.343 173.505 128.731C175.544 137.326 175.736 145.122 174.935 152.489C192.216 129.757 204.056 83.917 164.231 37.8376C162.629 58.2057 142.915 74.2433 120.179 67.9548C159.162 63.6608 161.66 14.1299 128.171 2.69269C128.825 16.4722 110.009 11.9599 115.543 30.3943C96.3779 19.5599 54.5058 17.3333 37.8598 33.7706C29.2785 42.2443 23.421 49.2524 12.696 49.7156C3.84097 50.0977 -7.85249 64.4558 7.36178 71.7987C8.81478 77.9177 13.9216 81.4018 16.8828 82.0023C16.1459 92.8987 18.4658 87.3432 21.8649 82.5935C20.7226 96.3674 22.6052 91.4054 27.9324 84.3189C73.0052 75.2107 97.8967 111.939 98.1783 134.498C97.9803 130.405 91.4321 125.645 87.9669 126.956C85.6257 131.912 83.0746 136.119 79.9262 138.195C80.2552 134.908 80.0307 131.622 79.4331 128.336C78.3947 132.31 76.4401 136.436 73.3159 140.758C67.1013 141.104 58.4039 136.486 60.9337 128.829C64.5027 121.383 57.5025 119.835 51.8631 121.967C47.6255 123.569 44.7617 128.005 44.3703 129.384C42.9565 134.36 43.4215 145.468 53.0905 152.834C50.5558 153.301 47.9535 153.716 46.1841 154.756C62.6314 164.696 79.4193 161.337 88.7678 157.587C104.074 151.446 114.631 134.449 116.282 121.337C120.531 139.78 112.92 160.277 95.8591 171.27C100.734 171.785 110.274 168.485 120.031 165.009C112.655 174.284 103.839 183.079 89.3968 190C117.843 187.619 138.65 173.347 152.836 149.877" fill="black"/>
</svg>
