<?xml version="1.0" encoding="utf-8"?>
<!-- Generator: Adobe Illustrator 19.0.0, SVG Export Plug-In . SVG Version: 6.00 Build 0)  -->
<svg version="1.1" xmlns="http://www.w3.org/2000/svg" xmlns:xlink="http://www.w3.org/1999/xlink" x="0px" y="0px"
	 viewBox="0 0 600 600" style="enable-background:new 0 0 600 600;" xml:space="preserve">
<style type="text/css">
	.st0{fill:url(#XMLID_7_);}
	.st1{fill:#EFE5E9;}
	.st2{fill:#F8B143;}
	.st3{fill:url(#XMLID_8_);}
	.st4{fill:url(#XMLID_9_);}
	.st5{fill:#F05F86;}
	.st6{fill:url(#XMLID_10_);}
	.st7{fill:url(#XMLID_17_);}
	.st8{fill:url(#XMLID_21_);}
	.st9{fill:url(#XMLID_26_);}
	.st10{fill:#E5F1F6;}
	.st11{fill:url(#XMLID_27_);}
	.st12{fill:url(#XMLID_28_);}
	.st13{fill:url(#XMLID_29_);}
	.st14{fill:url(#XMLID_30_);}
	.st15{fill:url(#XMLID_31_);}
	.st16{fill:url(#XMLID_32_);}
	.st17{fill:url(#XMLID_33_);}
	.st18{fill:url(#XMLID_34_);}
	.st19{fill:#ACD5EE;}
	.st20{fill:url(#XMLID_35_);}
	.st21{fill:url(#XMLID_36_);}
	.st22{fill:url(#XMLID_37_);}
	.st23{fill:#B8E0EA;}
	.st24{fill:url(#XMLID_38_);}
	.st25{fill:url(#XMLID_39_);}
	.st26{fill:url(#XMLID_40_);}
	.st27{fill:url(#XMLID_41_);}
	.st28{fill:url(#XMLID_42_);}
	.st29{fill:url(#XMLID_43_);}
	.st30{fill:url(#XMLID_44_);}
	.st31{fill:url(#XMLID_45_);}
	.st32{fill:url(#XMLID_46_);}
	.st33{fill:url(#XMLID_47_);}
	.st34{fill:url(#XMLID_48_);}
	.st35{fill:#DE5072;}
	.st36{fill:url(#XMLID_49_);}
	.st37{fill:url(#XMLID_50_);}
	.st38{fill:url(#XMLID_51_);}
	.st39{fill:url(#XMLID_52_);}
	.st40{fill:url(#XMLID_53_);}
	.st41{fill:url(#XMLID_54_);}
	.st42{fill:url(#XMLID_55_);}
	.st43{fill:url(#XMLID_56_);}
	.st44{fill:url(#XMLID_57_);}
	.st45{fill:url(#XMLID_58_);}
	.st46{fill:url(#XMLID_59_);}
	.st47{fill:url(#XMLID_60_);}
	.st48{fill:url(#XMLID_61_);}
	.st49{fill:url(#XMLID_62_);}
	.st50{fill:url(#XMLID_63_);}
	.st51{fill:#201F50;}
	.st52{fill:url(#XMLID_64_);}
	.st53{fill:url(#XMLID_65_);}
	.st54{fill:url(#XMLID_66_);}
	.st55{fill:url(#XMLID_67_);}
	.st56{fill:#23255A;}
	.st57{fill:url(#XMLID_68_);}
	.st58{fill:url(#XMLID_69_);}
	.st59{fill:url(#XMLID_70_);}
	.st60{fill:url(#XMLID_71_);}
	.st61{fill:url(#XMLID_72_);}
	.st62{fill:url(#XMLID_73_);}
	.st63{fill:url(#XMLID_74_);}
	.st64{fill:url(#XMLID_75_);}
	.st65{fill:url(#XMLID_76_);}
	.st66{fill:url(#XMLID_77_);}
	.st67{fill:url(#XMLID_78_);}
	.st68{fill:url(#XMLID_79_);}
	.st69{fill:url(#XMLID_80_);}
	.st70{fill:url(#XMLID_81_);}
	.st71{fill:url(#XMLID_82_);}
	.st72{fill:url(#XMLID_83_);}
	.st73{fill:url(#XMLID_84_);}
	.st74{fill:url(#XMLID_85_);}
	.st75{fill:url(#XMLID_86_);}
	.st76{fill:url(#XMLID_87_);}
	.st77{fill:url(#XMLID_88_);}
	.st78{fill:url(#XMLID_89_);}
	.st79{fill:url(#XMLID_90_);}
	.st80{fill:url(#XMLID_91_);}
	.st81{fill:url(#XMLID_92_);}
	.st82{fill:url(#XMLID_93_);}
	.st83{fill:url(#XMLID_94_);}
	.st84{fill:url(#XMLID_95_);}
	.st85{fill:url(#XMLID_96_);}
	.st86{fill:url(#XMLID_97_);}
	.st87{fill:url(#XMLID_98_);}
	.st88{fill:url(#XMLID_99_);}
	.st89{fill:url(#XMLID_100_);}
	.st90{fill:url(#XMLID_101_);}
	.st91{fill:url(#XMLID_102_);}
	.st92{fill:url(#XMLID_103_);}
	.st93{fill:url(#XMLID_104_);}
	.st94{fill:url(#XMLID_105_);}
	.st95{fill:url(#XMLID_106_);}
	.st96{fill:url(#XMLID_107_);}
	.st97{fill:url(#XMLID_108_);}
	.st98{fill:url(#XMLID_109_);}
	.st99{fill:url(#XMLID_110_);}
	.st100{fill:url(#XMLID_111_);}
	.st101{fill:url(#XMLID_112_);}
	.st102{fill:url(#XMLID_113_);}
	.st103{fill:url(#XMLID_114_);}
	.st104{fill:url(#XMLID_115_);}
	.st105{fill:url(#XMLID_116_);}
	.st106{fill:url(#XMLID_117_);}
	.st107{fill:url(#XMLID_118_);}
	.st108{fill:url(#XMLID_119_);}
	.st109{fill:url(#XMLID_120_);}
	.st110{fill:url(#XMLID_121_);}
	.st111{fill:url(#XMLID_122_);}
	.st112{fill:url(#XMLID_123_);}
	.st113{fill:url(#XMLID_124_);}
	.st114{fill:url(#XMLID_125_);}
	.st115{fill:url(#XMLID_126_);}
	.st116{fill:url(#XMLID_127_);}
	.st117{fill:url(#XMLID_128_);}
	.st118{fill:url(#XMLID_129_);}
	.st119{fill:url(#XMLID_130_);}
	.st120{fill:url(#XMLID_131_);}
	.st121{fill:url(#XMLID_132_);}
	.st122{fill:url(#XMLID_133_);}
	.st123{fill:url(#XMLID_134_);}
	.st124{fill:url(#XMLID_135_);}
	.st125{fill:url(#XMLID_136_);}
	.st126{fill:url(#XMLID_137_);}
	.st127{fill:url(#XMLID_138_);}
	.st128{fill:url(#XMLID_139_);}
	.st129{fill:url(#XMLID_140_);}
</style>
<g id="FLOOR">
	<linearGradient id="XMLID_7_" gradientUnits="userSpaceOnUse" x1="244" y1="525.304" x2="244" y2="519.4355">
		<stop  offset="0" style="stop-color:#59AAC0"/>
		<stop  offset="1" style="stop-color:#69C2C4"/>
	</linearGradient>
	<rect id="XMLID_1_" x="113" y="523" class="st0" width="262" height="3"/>
</g>
<g id="ORNAMENT_1">
	<g id="XMLID_1499_">
		<g id="XMLID_1509_">
			<circle id="XMLID_1511_" class="st1" cx="99.1" cy="262.7" r="3.9"/>
			<circle id="XMLID_1510_" class="st1" cx="114" cy="252.3" r="2.3"/>
		</g>
		<g id="XMLID_1506_">
			<circle id="XMLID_1508_" class="st1" cx="242.9" cy="87.9" r="3.9"/>
			<circle id="XMLID_1507_" class="st1" cx="257.8" cy="77.5" r="2.3"/>
		</g>
		<g id="XMLID_1503_">
			<circle id="XMLID_1505_" class="st1" cx="283" cy="328.4" r="4.9"/>
			<circle id="XMLID_1504_" class="st1" cx="305.3" cy="332.3" r="2.9"/>
		</g>
		<g id="XMLID_1500_">
			<circle id="XMLID_1502_" class="st1" cx="454.4" cy="217.9" r="4.2"/>
			<circle id="XMLID_1501_" class="st1" cx="470.2" cy="206.8" r="2.5"/>
		</g>
	</g>
</g>
<g id="ORNAMENT_2">
	<g id="XMLID_1512_">
		<path id="XMLID_1518_" class="st2" d="M441,94.5c-4.6,0-8.4,3.8-8.4,8.4c0-4.6-3.8-8.4-8.4-8.4c4.6,0,8.4-3.8,8.4-8.4
			C432.6,90.8,436.4,94.5,441,94.5z"/>
		<path id="XMLID_1517_" class="st2" d="M490.1,225.4c-3.3,0-5.9,2.7-5.9,5.9c0-3.3-2.7-5.9-5.9-5.9c3.3,0,5.9-2.7,5.9-5.9
			C484.2,222.7,486.8,225.4,490.1,225.4z"/>
		<path id="XMLID_1516_" class="st2" d="M306.7,81.1c-3.3,0-5.9,2.7-5.9,5.9c0-3.3-2.7-5.9-5.9-5.9c3.3,0,5.9-2.7,5.9-5.9
			C300.7,78.5,303.4,81.1,306.7,81.1z"/>
		<path id="XMLID_1515_" class="st2" d="M508.9,184.2c-4.6,0-8.4,3.8-8.4,8.4c0-4.6-3.8-8.4-8.4-8.4c4.6,0,8.4-3.8,8.4-8.4
			C500.5,180.5,504.3,184.2,508.9,184.2z"/>
		<path id="XMLID_1514_" class="st2" d="M326.9,343.2c-4.6,0-8.4,3.8-8.4,8.4c0-4.6-3.8-8.4-8.4-8.4c4.6,0,8.4-3.8,8.4-8.4
			C318.5,339.4,322.3,343.2,326.9,343.2z"/>
		<path id="XMLID_1513_" class="st2" d="M193.3,104c-6.3,0-11.5,5.1-11.5,11.5c0-6.3-5.1-11.5-11.5-11.5c6.3,0,11.5-5.1,11.5-11.5
			C181.8,98.9,187,104,193.3,104z"/>
	</g>
</g>
<g id="ORNAMENT_3">
	<g id="XMLID_2378_">
		<g id="XMLID_349_">
			
				<linearGradient id="XMLID_8_" gradientUnits="userSpaceOnUse" x1="227.5353" y1="329.7072" x2="213.8534" y2="376.1065" gradientTransform="matrix(0.9491 0.315 -0.315 0.9491 175.263 -309.0355)">
				<stop  offset="0.1179" style="stop-color:#EE5A77"/>
				<stop  offset="1" style="stop-color:#801C56"/>
			</linearGradient>
			<path id="XMLID_2302_" class="st3" d="M290.9,98.2c-1.7,1.8-3.9,3.6-6.3,5.2c-4,2.7-11.7,5.4-11.7,5.4s-5.8-7.7-7.7-12.1
				c-4-9.4-3.7-16.5,3.2-18.8c1.9-0.6,3.5-0.6,4.9-0.1c4.2,1.5,6.2,6.9,6.4,7.9c1-0.9,8.9-6.2,13.7,0.5
				C296.2,90.1,294.6,94.4,290.9,98.2z"/>
			
				<linearGradient id="XMLID_9_" gradientUnits="userSpaceOnUse" x1="212.1635" y1="369.5077" x2="229.2162" y2="331.0398" gradientTransform="matrix(0.9491 0.315 -0.315 0.9491 175.263 -309.0355)">
				<stop  offset="0.1179" style="stop-color:#EE5A77"/>
				<stop  offset="1" style="stop-color:#801C56"/>
			</linearGradient>
			<path id="XMLID_2300_" class="st4" d="M290.9,98.2c-1.7,1.8-3.9,3.6-6.3,5.2c-4,2.7-11.7,5.4-11.7,5.4s-5.8-7.7-7.7-12.1
				c-4-9.4-3.7-16.5,3.2-18.8c1.9-0.6,3.5-0.6,4.9-0.1c-2.3,3.2-9.6,9-0.2,17.3C279.5,100.8,286.5,99.9,290.9,98.2z"/>
			<path id="XMLID_2293_" class="st5" d="M289.7,84c-4.2-1.3-6.5,0.6-4.3,4.3c3.1,5.3,7.9,3.5,8.2,1.4C294,86.9,292.4,84.8,289.7,84
				z"/>
		</g>
		<g id="XMLID_2295_">
			
				<linearGradient id="XMLID_10_" gradientUnits="userSpaceOnUse" x1="475.3898" y1="15.6093" x2="467.8202" y2="41.28" gradientTransform="matrix(0.9222 -0.3866 0.3866 0.9222 -109.8249 460.4596)">
				<stop  offset="0.1179" style="stop-color:#EE5A77"/>
				<stop  offset="1" style="stop-color:#801C56"/>
			</linearGradient>
			<path id="XMLID_2298_" class="st6" d="M344.3,299.2c0,1.4-0.3,2.9-0.8,4.4c-0.7,2.6-2.9,6.5-2.9,6.5s-5.2-1.1-7.6-2.3
				c-5.1-2.4-7.5-5.5-5.5-9c0.6-1,1.3-1.5,2-1.8c2.3-0.9,5.1,0.6,5.5,1c0.1-0.7,1.5-5.8,5.9-4.8
				C343.6,293.9,344.5,296.3,344.3,299.2z"/>
			
				<linearGradient id="XMLID_17_" gradientUnits="userSpaceOnUse" x1="466.8852" y1="37.6292" x2="476.3198" y2="16.3466" gradientTransform="matrix(0.9222 -0.3866 0.3866 0.9222 -109.8249 460.4596)">
				<stop  offset="0.1179" style="stop-color:#EE5A77"/>
				<stop  offset="1" style="stop-color:#801C56"/>
			</linearGradient>
			<path id="XMLID_2297_" class="st7" d="M344.3,299.2c0,1.4-0.3,2.9-0.8,4.4c-0.7,2.6-2.9,6.5-2.9,6.5s-5.2-1.1-7.6-2.3
				c-5.1-2.4-7.5-5.5-5.5-9c0.6-1,1.3-1.5,2-1.8c0.2,2.2-0.7,7.2,6.2,7.3C340.6,304.5,343.1,301.5,344.3,299.2z"/>
			<path id="XMLID_2296_" class="st5" d="M338.7,293.7c-2.2,1-2.5,2.6-0.2,3.4c3.2,1.1,4.6-1.4,3.9-2.4
				C341.6,293.4,340.1,293.1,338.7,293.7z"/>
		</g>
		<g id="XMLID_2335_">
			
				<linearGradient id="XMLID_21_" gradientUnits="userSpaceOnUse" x1="387.415" y1="-252.8515" x2="377.9403" y2="-220.7198" gradientTransform="matrix(0.8672 -0.498 0.498 0.8672 -72.2438 537.6467)">
				<stop  offset="0.1179" style="stop-color:#EE5A77"/>
				<stop  offset="1" style="stop-color:#801C56"/>
			</linearGradient>
			<path id="XMLID_2338_" class="st8" d="M151.1,134c0.2,1.7,0,3.7-0.2,5.6c-0.5,3.3-2.6,8.5-2.6,8.5s-6.6-0.5-9.8-1.6
				c-6.7-2.2-10.2-5.7-8.2-10.3c0.5-1.3,1.3-2.1,2.2-2.6c2.7-1.5,6.4,0,7,0.3c0-0.9,0.9-7.5,6.6-6.8
				C149.4,127.6,150.8,130.4,151.1,134z"/>
			
				<linearGradient id="XMLID_26_" gradientUnits="userSpaceOnUse" x1="376.77" y1="-225.2895" x2="388.5791" y2="-251.9286" gradientTransform="matrix(0.8672 -0.498 0.498 0.8672 -72.2438 537.6467)">
				<stop  offset="0.1179" style="stop-color:#EE5A77"/>
				<stop  offset="1" style="stop-color:#801C56"/>
			</linearGradient>
			<path id="XMLID_2337_" class="st9" d="M151.1,134c0.2,1.7,0,3.7-0.2,5.6c-0.5,3.3-2.6,8.5-2.6,8.5s-6.6-0.5-9.8-1.6
				c-6.7-2.2-10.2-5.7-8.2-10.3c0.5-1.3,1.3-2.1,2.2-2.6c0.6,2.6,0.2,9.1,8.8,8.1C147.2,141.2,149.9,137.1,151.1,134z"/>
			<path id="XMLID_2336_" class="st5" d="M143.3,128.1c-2.6,1.6-2.7,3.6,0.2,4.2c4.2,0.9,5.5-2.5,4.5-3.6
				C146.8,127.3,144.9,127.1,143.3,128.1z"/>
		</g>
	</g>
</g>
<g id="ORNAMENT_4">
	<g id="XMLID_2396_">
		<g id="XMLID_336_">
			<circle id="XMLID_337_" class="st10" cx="385.2" cy="116.6" r="3.6"/>
			<circle id="XMLID_338_" class="st10" cx="397.9" cy="116.6" r="3.6"/>
			<circle id="XMLID_339_" class="st10" cx="410.6" cy="116.6" r="3.6"/>
		</g>
		<g id="XMLID_2386_">
			<circle id="XMLID_2390_" class="st10" cx="270.3" cy="296.7" r="3.1"/>
			<circle id="XMLID_2388_" class="st10" cx="281.3" cy="296.7" r="3.1"/>
			<circle id="XMLID_2387_" class="st10" cx="292.2" cy="296.7" r="3.1"/>
		</g>
	</g>
</g>
<g id="LETTER">
	<g id="XMLID_305_">
		<linearGradient id="XMLID_27_" gradientUnits="userSpaceOnUse" x1="399.538" y1="267.4251" x2="483.2355" y2="267.4251">
			<stop  offset="0.1179" style="stop-color:#EE5A77"/>
			<stop  offset="1" style="stop-color:#801C56"/>
		</linearGradient>
		<path id="XMLID_1534_" class="st11" d="M479.2,293.9h-75.6c-2.2,0-4-1.8-4-4v-43.7c0-2.8,2.3-5.1,5.1-5.1h73.5
			c2.8,0,5.1,2.3,5.1,5.1v43.7C483.2,292.1,481.4,293.9,479.2,293.9z"/>
		<linearGradient id="XMLID_28_" gradientUnits="userSpaceOnUse" x1="420.4624" y1="292.0083" x2="420.4624" y2="224.9842">
			<stop  offset="0.1179" style="stop-color:#EE5A77"/>
			<stop  offset="1" style="stop-color:#801C56"/>
		</linearGradient>
		<polygon id="XMLID_1533_" class="st12" points="399.5,246.5 441.4,267.7 399.5,290.8 		"/>
		<linearGradient id="XMLID_29_" gradientUnits="userSpaceOnUse" x1="462.3286" y1="292.0083" x2="462.3286" y2="224.9842">
			<stop  offset="0.1179" style="stop-color:#EE5A77"/>
			<stop  offset="1" style="stop-color:#801C56"/>
		</linearGradient>
		<polygon id="XMLID_1532_" class="st13" points="483.3,246.5 441.4,267.7 483.3,290.8 		"/>
		<linearGradient id="XMLID_30_" gradientUnits="userSpaceOnUse" x1="441.3867" y1="302.553" x2="441.3867" y2="249.1479">
			<stop  offset="0.1179" style="stop-color:#EE5A77"/>
			<stop  offset="1" style="stop-color:#801C56"/>
		</linearGradient>
		<path id="XMLID_1531_" class="st14" d="M483.2,289.7L483.2,289.7c0,2.3-1.8,4.1-3.9,4.1h-75.8c-2.2,0-3.9-1.9-3.9-4.1l0,0
			l32.3-26.2c6.6-5.4,15.9-5.2,22.4,0.5L483.2,289.7z"/>
		<linearGradient id="XMLID_31_" gradientUnits="userSpaceOnUse" x1="441.3867" y1="267.1771" x2="441.3867" y2="200.4636">
			<stop  offset="0.1179" style="stop-color:#EE5A77"/>
			<stop  offset="1" style="stop-color:#801C56"/>
		</linearGradient>
		<path id="XMLID_1530_" class="st15" d="M399.5,247.7v-2.1c0-2.5,2.2-4.6,5-4.6h73.7c2.8,0,5,2.1,5,4.6v2.1l-34.8,24.8
			c-5.2,3.7-12.4,3.5-17.4-0.3L399.5,247.7z"/>
	</g>
</g>
<g id="SCREEN">
	<g id="XMLID_2395_">
		<g id="XMLID_1529_">
			<linearGradient id="XMLID_32_" gradientUnits="userSpaceOnUse" x1="235.4828" y1="204.9801" x2="426.6313" y2="204.9801">
				<stop  offset="0.1179" style="stop-color:#23255A"/>
				<stop  offset="1" style="stop-color:#161541"/>
			</linearGradient>
			<path id="XMLID_278_" class="st16" d="M420.6,273.4H241.5c-3.3,0-6-2.7-6-6V142.7c0-3.3,2.7-6,6-6h179.1c3.3,0,6,2.7,6,6v124.6
				C426.6,270.6,423.9,273.4,420.6,273.4z"/>
			<linearGradient id="XMLID_33_" gradientUnits="userSpaceOnUse" x1="343.3748" y1="213.68" x2="299.2366" y2="182.5055">
				<stop  offset="0" style="stop-color:#E0EDF3"/>
				<stop  offset="1" style="stop-color:#FAF1F1"/>
			</linearGradient>
			<path id="XMLID_279_" class="st17" d="M418.6,268.5h-175c-2.1,0-3.8-1.7-3.8-3.8V145.3c0-2.1,1.7-3.8,3.8-3.8h175
				c2.1,0,3.8,1.7,3.8,3.8v119.3C422.4,266.7,420.7,268.5,418.6,268.5z"/>
			<linearGradient id="XMLID_34_" gradientUnits="userSpaceOnUse" x1="282.1808" y1="123.8212" x2="363.2768" y2="258.3967">
				<stop  offset="0" style="stop-color:#E0EDF3"/>
				<stop  offset="1" style="stop-color:#D1E2EE"/>
			</linearGradient>
			<path id="XMLID_2299_" class="st18" d="M413.4,264.9H247.9c-2,0-3.6-1.6-3.6-3.6V147.2c0-2,1.6-3.6,3.6-3.6h165.5
				c2,0,3.6,1.6,3.6,3.6v114.1C417,263.3,415.4,264.9,413.4,264.9z"/>
		</g>
		<g id="XMLID_2393_">
			<g id="XMLID_2379_">
				<g id="XMLID_2321_">
					<g id="XMLID_2294_">
						<path id="XMLID_2309_" class="st19" d="M409.6,158.5v100.7c0,1.8-1.4,3.2-3.2,3.2H262.3c-1.8,0-3.2-1.4-3.2-3.2V158.5
							c0-1.8,1.4-3.2,3.2-3.2h144.1C408.2,155.3,409.6,156.7,409.6,158.5z"/>
					</g>
					<g id="XMLID_293_">
						<g id="XMLID_1526_">
							<linearGradient id="XMLID_35_" gradientUnits="userSpaceOnUse" x1="333.1358" y1="211.1667" x2="293.2537" y2="92.4479">
								<stop  offset="0" style="stop-color:#E0EDF3"/>
								<stop  offset="1" style="stop-color:#FAF1F1"/>
							</linearGradient>
							<path id="XMLID_2331_" class="st20" d="M406.3,154.6v100.7c0,1.8-1.4,3.2-3.2,3.2H259c-1.8,0-3.2-1.4-3.2-3.2V154.6
								c0-1.8,1.4-3.2,3.2-3.2h144.1C404.9,151.5,406.3,152.9,406.3,154.6z"/>
							<linearGradient id="XMLID_36_" gradientUnits="userSpaceOnUse" x1="255.8045" y1="162.0363" x2="406.3095" y2="162.0363">
								<stop  offset="0.1385" style="stop-color:#F7B142"/>
								<stop  offset="1" style="stop-color:#EF794A"/>
							</linearGradient>
							<path id="XMLID_291_" class="st21" d="M406.3,154.6v18H255.8v-18c0-1.8,1.4-3.2,3.2-3.2h144.1
								C404.9,151.5,406.3,152.9,406.3,154.6z"/>
						</g>
						<linearGradient id="XMLID_37_" gradientUnits="userSpaceOnUse" x1="327.4664" y1="256.0648" x2="377.5509" y2="176.6098">
							<stop  offset="0" style="stop-color:#E0EDF3"/>
							<stop  offset="1" style="stop-color:#D1E2EE"/>
						</linearGradient>
						<path id="XMLID_2329_" class="st22" d="M406.3,227v28.3c0,1.8-1.4,3.2-3.2,3.2H259c-1.8,0-3.2-1.4-3.2-3.2v-10.8
							c15.5,10,43.8-3.4,81-13.9c39.3-11.1,25.7-0.9,44.5,8C391.7,243.5,400.5,235.4,406.3,227z"/>
					</g>
				</g>
				<path id="XMLID_309_" class="st19" d="M305.8,219.2h80c1.5,0,2.7-1.2,2.7-2.7v0c0-1.5-1.2-2.7-2.7-2.7h-80
					c-1.5,0-2.7,1.2-2.7,2.7v0C303,218,304.3,219.2,305.8,219.2z"/>
			</g>
			<g id="XMLID_2325_">
				<rect id="XMLID_2324_" x="374.6" y="187.7" class="st23" width="8.8" height="1.4"/>
				<rect id="XMLID_2323_" x="374.6" y="191.7" class="st23" width="15.7" height="1.4"/>
				<rect id="XMLID_2322_" x="374.6" y="195.8" class="st23" width="15.7" height="1.4"/>
			</g>
		</g>
	</g>
</g>
<g id="PAPER_2">
	<g id="XMLID_340_">
		<g id="XMLID_295_">
			<path id="XMLID_303_" class="st10" d="M480.8,170.6h-36.4c-2.3,0-4.2-1.9-4.2-4.2V114c0-2.3,1.9-4.2,4.2-4.2h36.4
				c2.3,0,4.2,1.9,4.2,4.2v52.4C485,168.7,483.1,170.6,480.8,170.6z"/>
			<g id="XMLID_296_">
				<linearGradient id="XMLID_38_" gradientUnits="userSpaceOnUse" x1="448.718" y1="118.1556" x2="466.0583" y2="118.1556">
					<stop  offset="0" style="stop-color:#70CBF2"/>
					<stop  offset="1" style="stop-color:#E3EDF5"/>
				</linearGradient>
				<rect id="XMLID_302_" x="448.7" y="117.3" class="st24" width="17.3" height="1.7"/>
				<linearGradient id="XMLID_39_" gradientUnits="userSpaceOnUse" x1="448.718" y1="125.8287" x2="479.4537" y2="125.8287">
					<stop  offset="0" style="stop-color:#70CBF2"/>
					<stop  offset="1" style="stop-color:#E3EDF5"/>
				</linearGradient>
				<rect id="XMLID_301_" x="448.7" y="125" class="st25" width="30.7" height="1.7"/>
				<linearGradient id="XMLID_40_" gradientUnits="userSpaceOnUse" x1="448.718" y1="133.5017" x2="479.4537" y2="133.5017">
					<stop  offset="0" style="stop-color:#70CBF2"/>
					<stop  offset="1" style="stop-color:#E3EDF5"/>
				</linearGradient>
				<rect id="XMLID_300_" x="448.7" y="132.6" class="st26" width="30.7" height="1.7"/>
				<linearGradient id="XMLID_41_" gradientUnits="userSpaceOnUse" x1="448.718" y1="141.1748" x2="479.4537" y2="141.1748">
					<stop  offset="0" style="stop-color:#70CBF2"/>
					<stop  offset="1" style="stop-color:#E3EDF5"/>
				</linearGradient>
				<rect id="XMLID_299_" x="448.7" y="140.3" class="st27" width="30.7" height="1.7"/>
				<linearGradient id="XMLID_42_" gradientUnits="userSpaceOnUse" x1="448.718" y1="148.8479" x2="479.4537" y2="148.8479">
					<stop  offset="0" style="stop-color:#70CBF2"/>
					<stop  offset="1" style="stop-color:#E3EDF5"/>
				</linearGradient>
				<rect id="XMLID_298_" x="448.7" y="148" class="st28" width="30.7" height="1.7"/>
				<linearGradient id="XMLID_43_" gradientUnits="userSpaceOnUse" x1="448.718" y1="156.521" x2="466.0583" y2="156.521">
					<stop  offset="0" style="stop-color:#70CBF2"/>
					<stop  offset="1" style="stop-color:#E3EDF5"/>
				</linearGradient>
				<rect id="XMLID_297_" x="448.7" y="155.7" class="st29" width="17.3" height="1.7"/>
			</g>
		</g>
		<g id="XMLID_280_">
			<linearGradient id="XMLID_44_" gradientUnits="userSpaceOnUse" x1="434.1633" y1="203.3188" x2="454.3487" y2="155.945">
				<stop  offset="0" style="stop-color:#E0EDF3"/>
				<stop  offset="1" style="stop-color:#FAF1F1"/>
			</linearGradient>
			<path id="XMLID_281_" class="st30" d="M476.7,176.6h-36.4c-2.3,0-4.2-1.9-4.2-4.2V120c0-2.3,1.9-4.2,4.2-4.2h36.4
				c2.3,0,4.2,1.9,4.2,4.2v52.4C481,174.7,479.1,176.6,476.7,176.6z"/>
			<g id="XMLID_282_">
				<rect id="XMLID_283_" x="443.1" y="124.8" class="st23" width="17.3" height="1.7"/>
				<rect id="XMLID_286_" x="443.1" y="132.5" class="st23" width="30.7" height="1.7"/>
				<rect id="XMLID_289_" x="443.1" y="140.1" class="st23" width="30.7" height="1.7"/>
				<rect id="XMLID_290_" x="443.1" y="147.8" class="st23" width="30.7" height="1.7"/>
				<rect id="XMLID_292_" x="443.1" y="155.5" class="st23" width="30.7" height="1.7"/>
				<rect id="XMLID_294_" x="443.1" y="163.2" class="st23" width="17.3" height="1.7"/>
			</g>
		</g>
	</g>
</g>
<g id="PAPER_1">
	<g id="XMLID_2394_">
		<g id="XMLID_1527_">
			<linearGradient id="XMLID_45_" gradientUnits="userSpaceOnUse" x1="365.239" y1="136.5236" x2="319.3282" y2="315.9931">
				<stop  offset="0" style="stop-color:#FFFFFF"/>
				<stop  offset="1" style="stop-color:#E3EDF5"/>
			</linearGradient>
			<path id="XMLID_314_" class="st31" d="M347.5,157.4h24.9c0,0-10.5-0.9-16.1,22.8s-14.6,66.5-16.1,71.4s-3.4,5.6-6.4,5.6
				s-11.3,0-11.3,0L347.5,157.4z"/>
			<linearGradient id="XMLID_46_" gradientUnits="userSpaceOnUse" x1="358.8154" y1="222.5078" x2="367.955" y2="178.4416">
				<stop  offset="0" style="stop-color:#FFFFFF"/>
				<stop  offset="1" style="stop-color:#E3EDF5"/>
			</linearGradient>
			<path id="XMLID_315_" class="st32" d="M372.3,157.4c0,0,6,1.5,3.2,16c-2.8,14.5-8.9,36.7-11.7,44.4s5.9,11.6,5.9,11.6h-24.6
				c0,0,10.2-44.9,12.9-55.9C360.6,162.4,365.9,157.3,372.3,157.4z"/>
			<linearGradient id="XMLID_47_" gradientUnits="userSpaceOnUse" x1="377.1459" y1="193.8969" x2="372.5761" y2="218.7045">
				<stop  offset="0" style="stop-color:#FFFFFF"/>
				<stop  offset="1" style="stop-color:#E3EDF5"/>
			</linearGradient>
			<path id="XMLID_316_" class="st33" d="M369.7,229.3c0,0,5.6,1.2,6.4-5c0.9-6.1,0.9-5.7,2.2-7.6s4.2-2,4.2-2h-17.7
				c0,0-1.2,3.4-1.7,5.5C362.7,222.2,363.9,227.6,369.7,229.3z"/>
		</g>
		<linearGradient id="XMLID_48_" gradientUnits="userSpaceOnUse" x1="298.9302" y1="269.4277" x2="349.2875" y2="39.3639">
			<stop  offset="0" style="stop-color:#FFFFFF"/>
			<stop  offset="1" style="stop-color:#E3EDF5"/>
		</linearGradient>
		<path id="XMLID_311_" class="st34" d="M303.5,118.5c0,0,9.1,0.2,23.4,0.2c14.8,0,31.7-0.2,31.7-0.2s-27.4,114.4-30.2,125.3
			c-2.9,10.9,5.2,13.5,5.2,13.5h-55.4c0,0-8.1-2.3-5.7-13c1-4.8,6-25.5,11.1-47C289.9,170.7,303.5,118.5,303.5,118.5z"/>
		<g id="XMLID_317_">
			<g id="XMLID_318_">
				<g id="XMLID_319_">
					<path id="XMLID_2318_" class="st35" d="M330.4,175.5h-5.8c-0.7,0-1.3-0.3-1.7-0.8c-0.4-0.5-0.5-1.2-0.3-1.9l1.6-5.8
						c0.4-1.3,1.7-2.3,3-2.3h5.8c0.7,0,1.3,0.3,1.7,0.8c0.4,0.5,0.5,1.2,0.3,1.9l-1.6,5.8C333,174.4,331.7,175.5,330.4,175.5z
						 M327.2,165.9c-0.8,0-1.6,0.7-1.8,1.4l-1.6,5.8c-0.1,0.3-0.1,0.6,0.1,0.8c0.1,0.2,0.4,0.3,0.7,0.3h5.8c0.8,0,1.6-0.7,1.8-1.4
						l1.6-5.8c0.1-0.3,0.1-0.6-0.1-0.8c-0.1-0.2-0.4-0.3-0.7-0.3H327.2z"/>
				</g>
				<g id="XMLID_320_">
					<path id="XMLID_2317_" class="st35" d="M328.4,173c-0.1,0-0.1,0-0.2,0c-0.2,0-0.3-0.2-0.4-0.3l-1.5-3c-0.2-0.3,0-0.7,0.3-0.8
						c0.3-0.2,0.7,0,0.8,0.3l1.2,2.4l12.2-8.1c0.3-0.2,0.7-0.1,0.9,0.2c0.2,0.3,0.1,0.7-0.2,0.9l-12.8,8.5
						C328.7,172.9,328.6,173,328.4,173z"/>
				</g>
				<g id="XMLID_321_">
					<g id="XMLID_322_">
						<path id="XMLID_2316_" class="st23" d="M317.2,168.4h-21.3c-0.3,0-0.6-0.3-0.6-0.6s0.3-0.6,0.6-0.6h21.3
							c0.3,0,0.6,0.3,0.6,0.6S317.5,168.4,317.2,168.4z"/>
					</g>
					<g id="XMLID_323_">
						<path id="XMLID_2315_" class="st23" d="M315.9,173.2h-21.3c-0.3,0-0.6-0.3-0.6-0.6c0-0.3,0.3-0.6,0.6-0.6h21.3
							c0.3,0,0.6,0.3,0.6,0.6C316.5,172.9,316.2,173.2,315.9,173.2z"/>
					</g>
				</g>
			</g>
			<g id="XMLID_324_">
				<g id="XMLID_328_">
					<path id="XMLID_2312_" class="st35" d="M326.2,191.1h-5.8c-0.7,0-1.3-0.3-1.7-0.8c-0.4-0.5-0.5-1.2-0.3-1.9l1.6-5.8
						c0.4-1.3,1.7-2.3,3-2.3h5.8c0.7,0,1.3,0.3,1.7,0.8c0.4,0.5,0.5,1.2,0.3,1.9l-1.6,5.8C328.8,190,327.5,191.1,326.2,191.1z
						 M323,181.5c-0.8,0-1.6,0.7-1.8,1.4l-1.6,5.8c-0.1,0.3,0,0.6,0.1,0.8c0.1,0.2,0.4,0.3,0.7,0.3h5.8c0.8,0,1.6-0.7,1.8-1.4
						l1.6-5.8c0.1-0.3,0.1-0.6-0.1-0.8c-0.1-0.2-0.4-0.3-0.7-0.3H323z"/>
				</g>
				<g id="XMLID_327_">
					<path id="XMLID_2311_" class="st35" d="M324.2,188.6c-0.1,0-0.1,0-0.2,0c-0.2,0-0.3-0.2-0.4-0.3l-1.5-3c-0.2-0.3,0-0.7,0.3-0.8
						c0.3-0.2,0.7,0,0.8,0.3l1.2,2.4l12.2-8.1c0.3-0.2,0.7-0.1,0.9,0.2c0.2,0.3,0.1,0.7-0.2,0.9l-12.8,8.5
						C324.5,188.5,324.4,188.6,324.2,188.6z"/>
				</g>
				<g id="XMLID_325_">
					<g id="XMLID_326_">
						<path id="XMLID_2310_" class="st23" d="M313,184h-21.3c-0.3,0-0.6-0.3-0.6-0.6s0.3-0.6,0.6-0.6H313c0.3,0,0.6,0.3,0.6,0.6
							S313.3,184,313,184z"/>
					</g>
					<g id="XMLID_329_">
						<path id="XMLID_2308_" class="st23" d="M311.7,188.8h-21.3c-0.3,0-0.6-0.3-0.6-0.6s0.3-0.6,0.6-0.6h21.3
							c0.3,0,0.6,0.3,0.6,0.6S312,188.8,311.7,188.8z"/>
					</g>
				</g>
			</g>
			<g id="XMLID_330_">
				<g id="XMLID_334_">
					<path id="XMLID_2305_" class="st35" d="M322,206.7h-5.8c-0.7,0-1.3-0.3-1.7-0.8c-0.4-0.5-0.5-1.2-0.3-1.9l1.6-5.8
						c0.4-1.3,1.7-2.3,3-2.3h5.8c0.7,0,1.3,0.3,1.7,0.8c0.4,0.5,0.5,1.2,0.3,1.9l-1.6,5.8C324.6,205.6,323.3,206.7,322,206.7z
						 M318.8,197.1c-0.8,0-1.6,0.7-1.8,1.4l-1.6,5.8c-0.1,0.3-0.1,0.6,0.1,0.8c0.1,0.2,0.4,0.3,0.7,0.3h5.8c0.8,0,1.6-0.7,1.8-1.4
						l1.6-5.8c0.1-0.3,0.1-0.6-0.1-0.8c-0.1-0.2-0.4-0.3-0.7-0.3H318.8z"/>
				</g>
				<g id="XMLID_333_">
					<path id="XMLID_2304_" class="st35" d="M320,204.2c-0.1,0-0.1,0-0.2,0c-0.2,0-0.3-0.2-0.4-0.3l-1.5-3c-0.2-0.3,0-0.7,0.3-0.8
						c0.3-0.2,0.7,0,0.8,0.3l1.2,2.4l12.2-8.1c0.3-0.2,0.7-0.1,0.9,0.2c0.2,0.3,0.1,0.7-0.2,0.9l-12.8,8.5
						C320.3,204.1,320.2,204.2,320,204.2z"/>
				</g>
				<g id="XMLID_331_">
					<g id="XMLID_332_">
						<path id="XMLID_2303_" class="st23" d="M308.8,199.6h-21.3c-0.3,0-0.6-0.3-0.6-0.6s0.3-0.6,0.6-0.6h21.3
							c0.3,0,0.6,0.3,0.6,0.6S309.1,199.6,308.8,199.6z"/>
					</g>
					<g id="XMLID_335_">
						<path id="XMLID_2301_" class="st23" d="M307.5,204.4h-21.3c-0.3,0-0.6-0.3-0.6-0.6s0.3-0.6,0.6-0.6h21.3
							c0.3,0,0.6,0.3,0.6,0.6S307.8,204.4,307.5,204.4z"/>
					</g>
				</g>
			</g>
		</g>
	</g>
</g>
<g id="BODY_2">
	<linearGradient id="XMLID_49_" gradientUnits="userSpaceOnUse" x1="177.8444" y1="240.4517" x2="186.2508" y2="276.6359">
		<stop  offset="0" style="stop-color:#EF794A"/>
		<stop  offset="1" style="stop-color:#CC5E3E"/>
	</linearGradient>
	<path id="XMLID_352_" class="st36" d="M145.2,307.8c0,0,7.9,7.3,47.8,8.2c41.7,1,49.4-5.5,49.4-5.5s-12.3-15.1-46.8-15.3
		S145.2,307.8,145.2,307.8z"/>
</g>
<g id="LEFT_LEG_2">
	<g id="XMLID_2356_">
		<linearGradient id="XMLID_50_" gradientUnits="userSpaceOnUse" x1="133.2304" y1="480.3288" x2="132.2155" y2="489.3174">
			<stop  offset="0.1179" style="stop-color:#24245A"/>
			<stop  offset="1" style="stop-color:#343977"/>
		</linearGradient>
		<path id="XMLID_346_" class="st37" d="M125,479.3c0,0-0.7,3.5,6.8,4.9c7.5,1.4,9.5-1.6,9.5-1.6s-1.3-2.8-7.1-3.9
			C127.3,477.5,125,479.3,125,479.3z"/>
		<linearGradient id="XMLID_51_" gradientUnits="userSpaceOnUse" x1="126.9997" y1="483.2439" x2="138.9646" y2="483.2439">
			<stop  offset="0.1436" style="stop-color:#F7AFAA"/>
			<stop  offset="0.9333" style="stop-color:#E58880"/>
		</linearGradient>
		<path id="XMLID_375_" class="st38" d="M139,477l-1.8,6.5l-2,7.4c0,0-1.7,2.3-4.9,1.4c-3.1-0.9-3.3-2.4-3.3-2.4l1.3-8.1l1.2-7.5
			C133,473.1,139,477,139,477z"/>
		<g id="XMLID_351_">
			<linearGradient id="XMLID_52_" gradientUnits="userSpaceOnUse" x1="133.311" y1="468.0618" x2="133.6735" y2="481.4722">
				<stop  offset="0.1436" style="stop-color:#F7AFAA"/>
				<stop  offset="0.9333" style="stop-color:#E58880"/>
			</linearGradient>
			<path id="XMLID_370_" class="st39" d="M139,477l-1.8,6.5c-0.9-0.5-1.9-1-3.3-1.5c-2.2-0.7-4.1-0.6-5.6-0.3l1.2-7.5
				C133,473.1,139,477,139,477z"/>
			<g id="XMLID_1524_">
				<g id="XMLID_1522_">
					<linearGradient id="XMLID_53_" gradientUnits="userSpaceOnUse" x1="146.6429" y1="287.4797" x2="146.6429" y2="410.1318">
						<stop  offset="0.1179" style="stop-color:#24245A"/>
						<stop  offset="1" style="stop-color:#343977"/>
					</linearGradient>
					<path id="XMLID_358_" class="st40" d="M166.2,399.1c0,0-0.3,5.5-4.7,23.2c-4.4,17.7-20.3,56.4-20.3,56.4s0,0-4.4-1.8
						c-0.2-0.1-0.4-0.1-0.6-0.2c-4.3-1.6-9.1-1.3-9.1-1.3s1.6-25.8,6.2-47.6c4.7-21.8,9.1-32.8,9.1-32.8c3.9-6.5,9.6-7.3,15.9-5.7
						c2.2,0.6,3.9,2,5.1,3.6C165.5,395.7,166.2,399.1,166.2,399.1z"/>
					<linearGradient id="XMLID_54_" gradientUnits="userSpaceOnUse" x1="158.4127" y1="378.599" x2="142.3202" y2="510.8188">
						<stop  offset="0.1179" style="stop-color:#24245A"/>
						<stop  offset="1" style="stop-color:#343977"/>
					</linearGradient>
					<path id="XMLID_356_" class="st41" d="M166.2,399.1c0,0-0.3,5.5-4.7,23.2c-4.4,17.7-20.3,56.4-20.3,56.4s0,0-4.4-1.8
						c-0.2-0.1-0.4-0.1-0.6-0.2c3.1-8.2,7.5-20.1,11.5-31.8c5.9-17.1,13.4-43.5,15.7-52C165.5,395.7,166.2,399.1,166.2,399.1z"/>
				</g>
				<linearGradient id="XMLID_55_" gradientUnits="userSpaceOnUse" x1="135.0442" y1="456.4341" x2="135.9134" y2="505.3959">
					<stop  offset="0.1179" style="stop-color:#24245A"/>
					<stop  offset="1" style="stop-color:#343977"/>
				</linearGradient>
				<path id="XMLID_2371_" class="st42" d="M145.8,473.4l-4.5,9.2c0,0-0.9-1.3-3.2-2.4c-1-0.5-2.2-1-3.7-1.3
					c-6.6-1.5-9.3,0.3-9.3,0.3l0.4-11.1c0,0,2.7-1.7,7.5-1.5c1.2,0,2.5,0.2,4,0.6C144.3,469.1,145.8,473.4,145.8,473.4z"/>
				<linearGradient id="XMLID_56_" gradientUnits="userSpaceOnUse" x1="116.7987" y1="473.4432" x2="117.8954" y2="473.4432">
					<stop  offset="0.1179" style="stop-color:#24245A"/>
					<stop  offset="1" style="stop-color:#343977"/>
				</linearGradient>
				<path id="XMLID_2361_" class="st43" d="M138.1,480.2c-1-0.5-2.2-1-3.7-1.3c-6.6-1.5-9.3,0.3-9.3,0.3l0.4-11.1
					c0,0,2.7-1.7,7.5-1.5c-0.9,1.6-1.9,4-1.7,5.8c0.3,2.9,6.2,3.5,6.8,7.3C138.1,479.9,138.1,480.1,138.1,480.2z"/>
			</g>
		</g>
		<g id="XMLID_342_">
			<linearGradient id="XMLID_57_" gradientUnits="userSpaceOnUse" x1="141.3057" y1="497.8695" x2="143.9153" y2="532.0843">
				<stop  offset="0" style="stop-color:#7E331A"/>
				<stop  offset="1" style="stop-color:#642B1D"/>
			</linearGradient>
			<path id="XMLID_363_" class="st44" d="M162.9,522.6c-0.5,0.4-1.8,0.9-3.7,1.2c-2.8,0.5-6.7,0.5-11-1
				c-7.3-2.6-15.6-12.8-19.4-15.3c-3.8-2.4-6.9-4-6.9-4s0-1.2,0.1-3.1c0.1-2.1,0.5-5,1.3-7.7c1.6-5,4.2-7.1,4.2-7.1s5.2-2.4,9,1.7
				c3.8,4.2,4.8,6.1,4.8,6.1s7.1,13.7,12.8,20.3C159.8,520.4,164.1,521.8,162.9,522.6z"/>
			<linearGradient id="XMLID_58_" gradientUnits="userSpaceOnUse" x1="140.3217" y1="471.7734" x2="144.3393" y2="499.5616">
				<stop  offset="0" style="stop-color:#7E331A"/>
				<stop  offset="1" style="stop-color:#913D22"/>
			</linearGradient>
			<path id="XMLID_2355_" class="st45" d="M137.2,493.3c-2.3,0.7,2.7,10.6,7.8,16.2c5.1,5.6,9.9,9.7,8.5,6.3
				c-1.3-3.4-5.9-7.4-9.6-13.4C140.3,496.3,138.9,492.7,137.2,493.3z"/>
			<linearGradient id="XMLID_59_" gradientUnits="userSpaceOnUse" x1="146.2752" y1="538.8357" x2="142.9407" y2="524.3379">
				<stop  offset="0" style="stop-color:#501800"/>
				<stop  offset="1" style="stop-color:#4D1B0B"/>
			</linearGradient>
			<path id="XMLID_361_" class="st46" d="M159.2,523.8c-2.8,0.5-6.7,0.5-11-1c-7.3-2.6-15.6-12.8-19.4-15.3c-3.8-2.4-6.9-4-6.9-4
				s0-1.2,0.1-3.1c1.3-1.2,4.3-3,8.8-0.2c6.1,3.8,10.2,13.4,18.6,19C153.2,521.9,156.6,523.2,159.2,523.8z"/>
			<linearGradient id="XMLID_60_" gradientUnits="userSpaceOnUse" x1="124.9302" y1="498.6562" x2="127.5933" y2="533.5731">
				<stop  offset="0" style="stop-color:#7E331A"/>
				<stop  offset="1" style="stop-color:#642B1D"/>
			</linearGradient>
			<path id="XMLID_347_" class="st47" d="M130.5,500.8c0,0-2.9,8.1-3.9,12.7c-1,4.6-1.4,7.7-1.4,7.7s-0.7,0.7-2.2,0.7s-1.6,0-1.6,0
				s0.1-10.7,0.3-15.2c0.1-4.6,0.3-6.3,0.3-6.3S127.1,496.3,130.5,500.8z"/>
		</g>
	</g>
</g>
<g id="LEFT_LEG_1">
	<g id="XMLID_1521_">
		<linearGradient id="XMLID_61_" gradientUnits="userSpaceOnUse" x1="170.0352" y1="287.4797" x2="170.0352" y2="410.1318">
			<stop  offset="0.1179" style="stop-color:#24245A"/>
			<stop  offset="1" style="stop-color:#343977"/>
		</linearGradient>
		<path id="XMLID_367_" class="st48" d="M199.4,295.3c-0.2,2.1-0.4,4.6-0.8,7.6c-0.6,5.5-1.6,12.3-3,19.7c-2,10.4-5.1,22-9.7,32.8
			c-9.7,22.5-20.1,49.6-28.8,61.4c-0.2,0.3-0.5,0.7-0.7,1c-8.4,10.2-16.6,0.5-15.5-10c1-10.7,8-66.6,11.1-84.6
			c1-5.9,2.2-11.2,3.6-15.8c2.8-9.4,6.6-16.2,12-20.3C185.8,273.1,200.4,283.8,199.4,295.3z"/>
		<linearGradient id="XMLID_62_" gradientUnits="userSpaceOnUse" x1="174.6506" y1="380.5753" x2="158.558" y2="512.7952">
			<stop  offset="0.1179" style="stop-color:#24245A"/>
			<stop  offset="1" style="stop-color:#343977"/>
		</linearGradient>
		<path id="XMLID_353_" class="st49" d="M195.6,322.5c-2,10.4-5.1,22-9.7,32.8c-9.7,22.5-20.1,49.6-28.8,61.4
			c-0.2,0.3-0.5,0.7-0.7,1c2.4-9.2,6.7-24.2,16.7-54.7C183.3,331.4,192,324.2,195.6,322.5z"/>
		<linearGradient id="XMLID_63_" gradientUnits="userSpaceOnUse" x1="170.6557" y1="372.4504" x2="168.481" y2="327.2173">
			<stop  offset="0.1179" style="stop-color:#24245A"/>
			<stop  offset="1" style="stop-color:#343977"/>
		</linearGradient>
		<path id="XMLID_344_" class="st50" d="M158.7,312.7c0,0,2.4-1,8.8-2.3c6.4-1.3,11.6-0.9,11.6-0.9l-2.2,20.4l-11.1,5.3l-8.6-4.8
			C157.2,330.5,157.6,317,158.7,312.7z"/>
		<path id="XMLID_365_" class="st51" d="M199.4,295.3c-0.2,2.1-0.4,4.6-0.8,7.6c-2.9-0.2-5.8-0.2-8.8-0.2
			c-17.5,0.3-28.5,2.7-34.4,4.6c2.8-9.4,6.6-16.2,12-20.3C185.8,273.1,200.4,283.8,199.4,295.3z"/>
	</g>
</g>
<g id="RIGHT_LEG_1">
	<g id="XMLID_4_">
		<linearGradient id="XMLID_64_" gradientUnits="userSpaceOnUse" x1="211.0943" y1="287.4831" x2="211.0943" y2="410.1257">
			<stop  offset="0.1179" style="stop-color:#24245A"/>
			<stop  offset="1" style="stop-color:#343977"/>
		</linearGradient>
		<path id="XMLID_2368_" class="st52" d="M241.7,393.8c-0.1,6.3-0.3,11.1-0.8,14.6c-1,6.6-3.3,9.1-8,10.2c-0.6,0.1-1.2,0.2-1.8,0.2
			c-2.2,0.2-4.3-0.3-6.2-1.4c-3.4-1.9-6.2-5.7-8.5-10.8c-3-6.9-17.2-36.8-25.2-58.4c-2-5.4-3.7-10.4-4.6-14.3
			c-3.4-13.6-5.9-23.3-6-30.9c-0.1-3.3,0.3-6.3,1.2-9c3.6-11.1,10.9-15.8,30-13.7c5,0.5,9,1.9,12.3,3.9c8.9,5.3,12.4,15.3,14.3,26.4
			c0.1,0.5,0.2,1.1,0.3,1.6C241.2,328.2,241.8,375.6,241.7,393.8z"/>
		<linearGradient id="XMLID_65_" gradientUnits="userSpaceOnUse" x1="251.6647" y1="365.4197" x2="205.2718" y2="318.1569">
			<stop  offset="3.730356e-002" style="stop-color:#18759A"/>
			<stop  offset="1" style="stop-color:#343977"/>
		</linearGradient>
		<path id="XMLID_362_" class="st53" d="M241.7,393.8c-0.1,6.3-0.3,11.1-0.8,14.6c-1.1-9.7-2.1-22.3-4.7-51.4
			c-3-33.5-9.1-60.5-12.2-72.8c8.9,5.3,12.4,15.3,14.3,26.4c0.1,0.5,0.2,1.1,0.3,1.6C241.2,328.2,241.8,375.6,241.7,393.8z"/>
		<linearGradient id="XMLID_66_" gradientUnits="userSpaceOnUse" x1="214.0635" y1="369.8624" x2="211.8888" y2="324.6293">
			<stop  offset="0.1179" style="stop-color:#24245A"/>
			<stop  offset="1" style="stop-color:#343977"/>
		</linearGradient>
		<path id="XMLID_350_" class="st54" d="M222,310.9c0,0-2.6-0.8-9.6-1.7c-7-0.8-12.7-0.1-12.7-0.1l2.4,20.3l12.2,4.5l9.5-5.4
			C223.6,328.5,223.2,315.1,222,310.9z"/>
		<linearGradient id="XMLID_67_" gradientUnits="userSpaceOnUse" x1="205.684" y1="364.8466" x2="205.684" y2="422.4819">
			<stop  offset="0.1179" style="stop-color:#24245A"/>
			<stop  offset="1" style="stop-color:#343977"/>
		</linearGradient>
		<path id="XMLID_2366_" class="st55" d="M224.8,417.4c-3.4-1.9-6.2-5.7-8.5-10.8c-3-6.9-17.2-36.8-25.2-58.4
			c-2-5.4-3.7-10.4-4.6-14.3c0,0,6.3-8.1,16.7,15c10.4,23.1,19.2,44.5,21.2,64.7C224.5,414.8,224.7,416.1,224.8,417.4z"/>
		<path id="XMLID_2350_" class="st56" d="M227.9,305.3c0,0,6.6,48,8.7,66.1s3.3,31.7,3.3,31.7s-0.6-34.4-3.9-59.7
			s-5.6-37.1-5.6-37.1L227.9,305.3z"/>
		<path id="XMLID_2349_" class="st56" d="M236.8,308.7c0,0,1.6,14.3-0.4,18.1c-2.1,3.8-3.8,3.3-3.8,3.3l-0.5-2.7c0,0,2,0.1,3.4-2.5
			c1.4-2.7,0-16.7,0-16.7L236.8,308.7z"/>
		<path id="XMLID_364_" class="st51" d="M238.3,310.7c-9.3-3.1-28.4-8.4-48.5-8c-3.4,0.1-6.5,0.2-9.3,0.4c-0.1-3.3,0.3-6.3,1.2-9
			c3.6-11.1,10.9-15.8,30-13.7C230.1,282.4,235.6,295.4,238.3,310.7z"/>
	</g>
</g>
<g id="RIGHT_LEG_2">
	<g id="XMLID_2353_">
		
			<linearGradient id="XMLID_68_" gradientUnits="userSpaceOnUse" x1="365.5337" y1="284.1281" x2="364.5167" y2="293.1357" gradientTransform="matrix(1.0615 -0.2875 0.2614 0.9652 -224.7648 313.8141)">
			<stop  offset="0.1179" style="stop-color:#24245A"/>
			<stop  offset="1" style="stop-color:#343977"/>
		</linearGradient>
		<path id="XMLID_1520_" class="st57" d="M228.6,484.3c0,0,0.2,3.6,8.5,2.8c8.3-0.8,9.5-3.7,9.5-3.7s-1.9-2.9-8.3-2.3
			C230.6,481.9,228.6,484.3,228.6,484.3z"/>
		<linearGradient id="XMLID_69_" gradientUnits="userSpaceOnUse" x1="232.2069" y1="486.4748" x2="242.8816" y2="486.4748">
			<stop  offset="0.1436" style="stop-color:#F7AFAA"/>
			<stop  offset="0.9333" style="stop-color:#E58880"/>
		</linearGradient>
		<path id="XMLID_374_" class="st58" d="M242.9,492.7c0,0-1.2,1.4-4.3,1.8c-3.1,0.4-4-1.3-4-1.3l-1.3-7.6l-1-5.9
			c4.2-2.2,10-0.8,10-0.8l0.2,5.3L242.9,492.7z"/>
		<g id="XMLID_348_">
			<linearGradient id="XMLID_70_" gradientUnits="userSpaceOnUse" x1="247.4247" y1="493.6428" x2="252.354" y2="519.7388">
				<stop  offset="0" style="stop-color:#7E331A"/>
				<stop  offset="1" style="stop-color:#642B1D"/>
			</linearGradient>
			<path id="XMLID_377_" class="st59" d="M270.6,523.6c-0.9,0.4-2.5,0.8-4.5,1c-2.8,0.3-6.2,0.2-8.9-0.8
				c-4.5-1.7-20.6-17.3-26.1-18.1c0,0-0.2-1-0.4-2.6c-0.2-1.5-0.3-3.5-0.2-5.8c0.3-4.8,1.8-7.7,1.8-7.7s3.1-2.4,7.2-1.5
				c4.1,0.9,6.9,4.1,6.9,4.1s14.7,22.2,19.6,26.2C271,522.4,272.7,522.6,270.6,523.6z"/>
			<linearGradient id="XMLID_71_" gradientUnits="userSpaceOnUse" x1="248.2515" y1="471.7734" x2="252.269" y2="499.5616">
				<stop  offset="0" style="stop-color:#7E331A"/>
				<stop  offset="1" style="stop-color:#913D22"/>
			</linearGradient>
			<path id="XMLID_2351_" class="st60" d="M245.1,493.3c-2.3,0.7,2.7,10.6,7.8,16.2c5.1,5.6,9.9,9.7,8.5,6.3
				c-1.3-3.4-5.9-7.4-9.6-13.4C248.2,496.3,246.9,492.7,245.1,493.3z"/>
			<linearGradient id="XMLID_72_" gradientUnits="userSpaceOnUse" x1="235.0981" y1="477.902" x2="244.9848" y2="505.0905">
				<stop  offset="0" style="stop-color:#501800"/>
				<stop  offset="1" style="stop-color:#4D1B0B"/>
			</linearGradient>
			<path id="XMLID_373_" class="st61" d="M266.1,524.7c-2.8,0.3-6.2,0.2-8.9-0.8c-4.5-1.7-20.6-17.3-26.1-18.1c0,0-0.2-1-0.4-2.6
				c1.1-1.1,3.5-2.6,8.1-1c7,2.4,12.2,9.1,18.3,15.5C261.8,522.5,263.6,523.7,266.1,524.7z"/>
			<linearGradient id="XMLID_73_" gradientUnits="userSpaceOnUse" x1="233.9896" y1="504.0945" x2="239.9337" y2="519.7521">
				<stop  offset="0" style="stop-color:#7E331A"/>
				<stop  offset="1" style="stop-color:#642B1D"/>
			</linearGradient>
			<path id="XMLID_345_" class="st62" d="M242.1,503.7c0,0-2.9,5.3-3.9,10.4c-1,5.1-1.2,8-1.2,8h-4.4c0,0-1-9.5-1.4-14.2
				c-0.4-4.7-0.3-5.1-0.3-5.1S235.1,499.5,242.1,503.7z"/>
		</g>
		<g id="XMLID_372_">
			<linearGradient id="XMLID_74_" gradientUnits="userSpaceOnUse" x1="234.6951" y1="472.0697" x2="237.3047" y2="480.7683">
				<stop  offset="0.1436" style="stop-color:#F7AFAA"/>
				<stop  offset="0.9333" style="stop-color:#E58880"/>
			</linearGradient>
			<path id="XMLID_371_" class="st63" d="M242.5,484.2c-1.1,0-2.4,0-3.9,0.1c-2.3,0.2-4.1,0.7-5.3,1.3l-1-5.9c4.2-2.2,10-0.8,10-0.8
				L242.5,484.2z"/>
			<g id="XMLID_1523_">
				<linearGradient id="XMLID_75_" gradientUnits="userSpaceOnUse" x1="230.9343" y1="287.4804" x2="230.9343" y2="410.1356">
					<stop  offset="0.1179" style="stop-color:#24245A"/>
					<stop  offset="1" style="stop-color:#343977"/>
				</linearGradient>
				<path id="XMLID_2369_" class="st64" d="M245.5,481.2c0,0-2.9-1.1-7.5-1.2c-1,0-1.9,0-2.7,0.1c-3.2,0.5-5.6,1.8-5.6,1.8
					s-8.7-41.8-11.6-60.5c-2.3-15.2-2.9-25.4,2.5-29.6c1.3-1,2.8-1.6,4.8-2c12.8-2.1,15.4,8.8,17.2,23.6
					C244.3,428.1,245.5,481.2,245.5,481.2z"/>
				<linearGradient id="XMLID_76_" gradientUnits="userSpaceOnUse" x1="211.9969" y1="372.2703" x2="234.242" y2="480.612">
					<stop  offset="0.1179" style="stop-color:#24245A"/>
					<stop  offset="1" style="stop-color:#343977"/>
				</linearGradient>
				<path id="XMLID_2365_" class="st65" d="M235.3,480.1c-3.2,0.5-5.6,1.8-5.6,1.8s-8.7-41.8-11.6-60.5c-2.3-15.2-2.9-25.4,2.5-29.6
					c1.8,6.8,3,13.6,3.8,21.9C226,429.3,231.1,459.8,235.3,480.1z"/>
				<linearGradient id="XMLID_77_" gradientUnits="userSpaceOnUse" x1="236.393" y1="454.619" x2="237.2626" y2="503.6044">
					<stop  offset="0.1179" style="stop-color:#24245A"/>
					<stop  offset="1" style="stop-color:#343977"/>
				</linearGradient>
				<path id="XMLID_2370_" class="st66" d="M248,471.1l-1.3,12.3c0,0-2.5-1.6-6.8-1.7c-0.4,0-0.8,0-1.3,0c-7.2,0.4-9.9,3-9.9,3
					l-3.3-11.6c0,0,4.4-3.6,11.7-3.8h1C244.8,469.4,248,471.1,248,471.1z"/>
				<linearGradient id="XMLID_78_" gradientUnits="userSpaceOnUse" x1="231.9799" y1="476.3965" x2="232.8038" y2="476.3965">
					<stop  offset="0.1179" style="stop-color:#24245A"/>
					<stop  offset="1" style="stop-color:#343977"/>
				</linearGradient>
				<path id="XMLID_2362_" class="st67" d="M248,471.1l-1.3,12.3c0,0-2.5-1.6-6.8-1.7c0.3-1.6,0.5-3.6,0.7-5.7
					c0.1-2.6-1-4.9-2.3-6.6C244.8,469.4,248,471.1,248,471.1z"/>
			</g>
		</g>
	</g>
</g>
<g id="LEFT_ARM_2">
	<g id="XMLID_2374_">
		<g id="XMLID_402_">
			<g id="XMLID_368_">
				<g id="XMLID_369_">
					<linearGradient id="XMLID_79_" gradientUnits="userSpaceOnUse" x1="102.7741" y1="189.8307" x2="84.5068" y2="198.0945">
						<stop  offset="0" style="stop-color:#E0EDF3"/>
						<stop  offset="1" style="stop-color:#FAF1F1"/>
					</linearGradient>
					<path id="XMLID_386_" class="st68" d="M91.6,199.3c0,0,4.2,1.6,7.5,2.5s4.7,0.9,4.7,0.9l17.9-34.7
						C121.7,168,112.8,186.2,91.6,199.3z"/>
					<linearGradient id="XMLID_80_" gradientUnits="userSpaceOnUse" x1="112.0076" y1="190.6159" x2="88.8111" y2="199.0246">
						<stop  offset="0" style="stop-color:#E0EDF3"/>
						<stop  offset="1" style="stop-color:#FAF1F1"/>
					</linearGradient>
					<path id="XMLID_383_" class="st69" d="M121.7,168c0,0-7.8,17.6-17.6,27.3s-12.6,12.1-12.6,12.1l15.2,4.3
						C106.8,211.7,119.6,179,121.7,168z"/>
					<linearGradient id="XMLID_81_" gradientUnits="userSpaceOnUse" x1="107.5079" y1="257.0241" x2="127.9498" y2="179.1709">
						<stop  offset="0" style="stop-color:#D5D5D5"/>
						<stop  offset="1" style="stop-color:#E3EDF5"/>
					</linearGradient>
					<path id="XMLID_376_" class="st70" d="M121.7,168c0,0-6.2,15.9-12.7,27.4c-6.5,11.6-13.5,20.3-13.5,20.3s11.1,2.5,21.5,3
						c10.4,0.5,15.6,0.5,15.6,0.5s8.2-14,13-23.7s5.6-20.9,5.6-20.9S126.3,169.6,121.7,168z"/>
				</g>
				<g id="XMLID_2367_">
					<linearGradient id="XMLID_82_" gradientUnits="userSpaceOnUse" x1="135.4763" y1="168.3017" x2="144.0313" y2="211.8019">
						<stop  offset="0.1436" style="stop-color:#F7AFAA"/>
						<stop  offset="0.9333" style="stop-color:#E58880"/>
					</linearGradient>
					<path id="XMLID_2392_" class="st71" d="M146.4,198.9c0.2,3.6-8.9,4.6-8.9,4.6l-1.6-8.6l-0.7-3.7l-0.1-0.8c0,0-0.6-2,0.2-4
						c0.3-0.7,0.7-1.4,1.5-1.9c2.9-2.2,5.5,0.9,5.5,0.9l1.2,3.8l1.3,4.1l0.1,0.3L146.4,198.9z"/>
					<linearGradient id="XMLID_83_" gradientUnits="userSpaceOnUse" x1="140.2774" y1="178.0182" x2="140.8573" y2="190.7762">
						<stop  offset="0.1436" style="stop-color:#F7AFAA"/>
						<stop  offset="0.9333" style="stop-color:#E58880"/>
					</linearGradient>
					<path id="XMLID_400_" class="st72" d="M146.4,199c0.2,3.6-8.9,4.6-8.9,4.6l-1.6-8.6c0.9-0.5,2.1-1,3.9-1.3
						c1.9-0.3,3.5-0.3,4.9-0.1L146.4,199z"/>
					<linearGradient id="XMLID_84_" gradientUnits="userSpaceOnUse" x1="138.1381" y1="167.784" x2="146.6925" y2="211.2811">
						<stop  offset="0.1436" style="stop-color:#F7AFAA"/>
						<stop  offset="0.9333" style="stop-color:#E58880"/>
					</linearGradient>
					<path id="XMLID_2391_" class="st73" d="M149.8,180.2c-0.7,1.1-4.1,6.5-6.3,9.2c-0.4,0.5-0.8,1-1.1,1.2
						c-1.4,1.3-4.1,1.3-5.6,1.1c-0.5-0.1-0.8-0.1-1-0.2c0,0-0.2-0.1-0.4-0.2c0,0-0.1,0-0.1,0c-0.8-0.5-2.4-1.4-2.9-2.7
						c-0.7-1.7,1-6.5,1.5-9.5c0.4-3,1.1-7.1,1-7.4c-0.2-0.3-2.4-0.8-2.5-1.1c-0.1-0.1,0.9-1.5,1.8-2.4c0.6-0.7,1.3-1.2,1.5-1.1
						c0.7,0.2,2.3,1.8,2.3,1.8s0.9-1.1,2.1-1.5c0.3-0.1,0.7-0.2,1-0.1c1.6,0.3,1.6,1.9,1.8,1.8c0.2-0.1,0.8-0.9,1.6-1
						c0.3-0.1,0.7,0,1.1,0.2c1.5,0.9,1.6,1.6,1.7,1.9c0.1,0.2,0.7,0.4,1.3,1.4c0.1,0.2,0.2,0.4,0.3,0.6c0.2,0.6,0.5,1.7,0.8,2.9
						C150,177.2,150.3,179.4,149.8,180.2z"/>
					<linearGradient id="XMLID_85_" gradientUnits="userSpaceOnUse" x1="132.0149" y1="162.4534" x2="134.6926" y2="182.0209">
						<stop  offset="0.1436" style="stop-color:#F7AFAA"/>
						<stop  offset="0.9333" style="stop-color:#E58880"/>
					</linearGradient>
					<path id="XMLID_2382_" class="st74" d="M133.8,187.7c0.5,2.3,1.4,3,1.4,3.6c0,0,0,0,0,0.1c-0.8-0.4-2.5-1.4-3-2.7
						c-0.7-1.7,1-6.5,1.5-9.5c0.4-3,1.1-7.1,1-7.4c-0.2-0.3-2.4-0.8-2.5-1.1c-0.1-0.1,0.9-1.5,1.8-2.4c0.9,0,2.3,0.5,2.6,2.7
						C136.8,173.1,133.4,185.4,133.8,187.7z"/>
					<linearGradient id="XMLID_86_" gradientUnits="userSpaceOnUse" x1="139.0537" y1="165.1642" x2="139.3283" y2="174.7763">
						<stop  offset="0.1436" style="stop-color:#F7AFAA"/>
						<stop  offset="0.9333" style="stop-color:#E58880"/>
					</linearGradient>
					<path id="XMLID_2380_" class="st75" d="M140.3,171.9c0,0-1.1,0.9-1.3,0c-0.2-0.9-1.3-2.9-1.3-2.9s0.9-1.1,2.1-1.5
						c0.2,0.3,0.4,0.8,0.6,1.6C140.7,170.7,140.3,171.9,140.3,171.9z"/>
					<linearGradient id="XMLID_87_" gradientUnits="userSpaceOnUse" x1="143.7194" y1="166.0105" x2="143.9775" y2="175.0446">
						<stop  offset="0.1436" style="stop-color:#F7AFAA"/>
						<stop  offset="0.9333" style="stop-color:#E58880"/>
					</linearGradient>
					<path id="XMLID_2384_" class="st76" d="M144.9,170.9c0,1.5-1,2.2-1.4,1.6c-0.5-0.6-0.4-2.6-0.7-3.2c0.2-0.1,0.8-0.9,1.6-1
						C144.6,168.7,144.9,169.8,144.9,170.9z"/>
					<linearGradient id="XMLID_88_" gradientUnits="userSpaceOnUse" x1="147.812" y1="168.1179" x2="148.0681" y2="177.0819">
						<stop  offset="0.1436" style="stop-color:#F7AFAA"/>
						<stop  offset="0.9333" style="stop-color:#E58880"/>
					</linearGradient>
					<path id="XMLID_2385_" class="st77" d="M148.4,174.3c0,1-0.5,0-0.6-1.1c-0.1-1-0.6-2.9-0.6-2.9c0.1,0.2,0.7,0.4,1.3,1.4
						C148.6,172.5,148.4,173.6,148.4,174.3z"/>
					<linearGradient id="XMLID_89_" gradientUnits="userSpaceOnUse" x1="143.452" y1="174.1836" x2="142.2848" y2="185.9927">
						<stop  offset="0.1436" style="stop-color:#F7AFAA"/>
						<stop  offset="0.9333" style="stop-color:#E58880"/>
					</linearGradient>
					<path id="XMLID_2389_" class="st78" d="M149.8,180.2c-0.7,1.1-4.1,6.5-6.3,9.2l1.3,4.1l0.1,0.3c-0.6-0.1-1.4-0.3-2.1-0.2
						c-1.4,0.1-4.9,1.2-4.9,1.2l-1.1-3l-0.8-2.4c0,0-0.5-0.6-0.6-2.8c0-0.1,0-0.2,0-0.4c0-2.5,1.2-10.7,1.9-11.9
						c0.7-1.3,1.5-0.6,2.5,0c1.1,0.6,2.1-0.9,2.6-0.5c0.5,0.4,1.5,1.3,2.4,0.8c0.8-0.5,1.5-0.4,2.2-0.1c0.6,0.4,0.8,1.5,1.4,0.9
						c0.3-0.3,0.9-0.3,1.4-0.1C150,177.2,150.3,179.4,149.8,180.2z"/>
				</g>
			</g>
			<g id="XMLID_343_">
				<linearGradient id="XMLID_90_" gradientUnits="userSpaceOnUse" x1="146.7742" y1="192.6049" x2="134.3128" y2="212.4154">
					<stop  offset="0.1179" style="stop-color:#EE5A77"/>
					<stop  offset="1" style="stop-color:#801C56"/>
				</linearGradient>
				<path id="XMLID_2383_" class="st79" d="M148.9,201.2c0,0-2.5-1.5-6.3,0.1c-0.3,0.1-0.6,0.2-0.9,0.4c-3.9,1.9-5.1,4.4-5.1,4.4
					l-1-6.7c0,0-0.6-2.1,3.1-4c0.2-0.1,0.3-0.2,0.5-0.3c5.4-2.6,7.4,0.2,7.4,0.2L148.9,201.2z"/>
				<linearGradient id="XMLID_91_" gradientUnits="userSpaceOnUse" x1="144.9711" y1="192.3902" x2="136.3889" y2="202.5516">
					<stop  offset="0.1179" style="stop-color:#EE5A77"/>
					<stop  offset="1" style="stop-color:#801C56"/>
				</linearGradient>
				<path id="XMLID_2381_" class="st80" d="M141.7,201.7c-3.9,1.9-5.1,4.4-5.1,4.4l-1-6.7c0,0-0.6-2.1,3.1-4c0.1,0.9,0.4,2,1.1,3.4
					C140.5,199.8,141.1,200.8,141.7,201.7z"/>
			</g>
		</g>
		<g id="XMLID_2373_">
			<linearGradient id="XMLID_92_" gradientUnits="userSpaceOnUse" x1="144.9909" y1="315.1459" x2="153.1097" y2="123.1951">
				<stop  offset="0.1385" style="stop-color:#F7B142"/>
				<stop  offset="1" style="stop-color:#EF794A"/>
			</linearGradient>
			<path id="XMLID_399_" class="st81" d="M157.5,251.8c-0.4,0.4-0.9,0.9-1.5,1.3c-5.6,4.6-10.5,1.3-11.9-0.9
				c-1.3-2.2-1.3-4.6-3.2-16.7c-2-12.1-4.8-30.2-4.8-30.2s0-2.3,3.9-5.3c0.6-0.5,1.2-0.8,1.8-1c3.4-1.4,6.7,0,6.7,0
				s1.3,2.2,4.2,10.4c2.9,8.2,8.7,27.4,8.7,27.4C162,242.9,161.7,247.6,157.5,251.8z"/>
			<linearGradient id="XMLID_93_" gradientUnits="userSpaceOnUse" x1="158.9053" y1="250.0136" x2="137.1586" y2="216.7411">
				<stop  offset="0.1385" style="stop-color:#F7B142"/>
				<stop  offset="1" style="stop-color:#EF794A"/>
			</linearGradient>
			<path id="XMLID_396_" class="st82" d="M157.5,251.8c-0.4,0.4-0.9,0.9-1.5,1.3c-5.6,4.6-10.5,1.3-11.9-0.9
				c-1.3-2.2-3.4-3.8-5.4-15.9c-2-12.1-2.6-30.9-2.6-30.9s0-2.3,3.9-5.3c0.6-0.5,1.2-0.8,1.8-1c0.3,7.4,2,30.4,9.1,42.5
				C153.7,246.2,155.8,249.5,157.5,251.8z"/>
			<linearGradient id="XMLID_94_" gradientUnits="userSpaceOnUse" x1="151.8752" y1="215.6493" x2="153.4085" y2="192.3708">
				<stop  offset="0.1385" style="stop-color:#F7B142"/>
				<stop  offset="1" style="stop-color:#FAD58D"/>
			</linearGradient>
			<path id="XMLID_2375_" class="st83" d="M147.3,199.6c-1.9,0.2,3.8,15.1,6.6,21.3c2.8,6.2,3.2,6.3,3.2,6.3s-4-15.9-5.8-20.4
				C149.6,202.3,149.1,199.4,147.3,199.6z"/>
		</g>
	</g>
</g>
<g id="LEFT_ARM_1">
	<g id="XMLID_2372_">
		<linearGradient id="XMLID_95_" gradientUnits="userSpaceOnUse" x1="163.9572" y1="315.9482" x2="172.076" y2="123.9973">
			<stop  offset="0.1385" style="stop-color:#F7B142"/>
			<stop  offset="1" style="stop-color:#EF794A"/>
		</linearGradient>
		<path id="XMLID_397_" class="st84" d="M188.6,219.3c-5.2,6.4-12.8,15.1-20.1,22.4s-13.7,15.4-19.4,14.2c-2.5-0.5-4.1-1.9-4.9-3.7
			c-1.1-2.3-0.9-5.5,0.4-8.8c2.2-5.9,9.4-21.8,16.1-33.5c10.5-18.3,20.7-20.6,26.1-14.8l0.1,0.1
			C192.3,201.1,193.8,212.9,188.6,219.3z"/>
		<linearGradient id="XMLID_96_" gradientUnits="userSpaceOnUse" x1="157.6357" y1="218.6959" x2="158.9458" y2="198.8056">
			<stop  offset="0.1385" style="stop-color:#F7B142"/>
			<stop  offset="1" style="stop-color:#FAD58D"/>
		</linearGradient>
		<path id="XMLID_2377_" class="st85" d="M164,206c1.9-2.2-0.5,7-4.1,13c-2.7,4.5-9.1,8.8-9.1,8.8S161.4,209,164,206z"/>
		<linearGradient id="XMLID_97_" gradientUnits="userSpaceOnUse" x1="193.4392" y1="196.1311" x2="154.2952" y2="253.5424">
			<stop  offset="0.1385" style="stop-color:#F7B142"/>
			<stop  offset="1" style="stop-color:#EF794A"/>
		</linearGradient>
		<path id="XMLID_393_" class="st86" d="M188.6,219.3c-5.2,6.4-12.8,15.1-20.1,22.4s-13.7,15.4-19.4,14.2c-2.5-0.5-4.1-1.9-4.9-3.7
			c3.5-2.3,8.6-6.4,14.1-13c10.9-12.9,24.6-37,28.5-44.1l0.1,0.1C192.3,201.1,193.8,212.9,188.6,219.3z"/>
	</g>
</g>
<g id="BODY_1">
	<g id="XMLID_380_">
		<linearGradient id="XMLID_98_" gradientUnits="userSpaceOnUse" x1="193.4632" y1="317.2009" x2="201.5822" y2="125.2453">
			<stop  offset="0.1385" style="stop-color:#F7B142"/>
			<stop  offset="1" style="stop-color:#EF794A"/>
		</linearGradient>
		<path id="XMLID_2364_" class="st87" d="M242.4,310.5c0,0-5.2-4.4-16.1-8.2c-7.4-2.6-17.5-4.9-30.4-5.3
			c-31.9-1-50.7,10.7-50.7,10.7l16.9-33.3l4.4-8.7v0c0,0-0.5-33.9-0.8-49.8c0-0.5,0-1,0-1.5v0c0-3.8,0.3-7,0.9-9.8
			c1.7-8.1,5.4-12.2,9.2-14.7c4-2.7,20.6-9.9,38.1-5.7c5.2,1.2,10.4,3.5,15.5,7.1c1.6,1.2,3.4,4.6,5.1,9.1
			c4.2,11.3,7.5,29.2,5.5,34.9c-2.8,8-8.7,20.5-8.3,25.3c0.2,2.6,3.3,16.8,6.1,29.4C240.1,300.9,242.4,310.5,242.4,310.5z"/>
		<linearGradient id="XMLID_99_" gradientUnits="userSpaceOnUse" x1="188.0596" y1="242.6044" x2="190.2567" y2="198.9382">
			<stop  offset="0.1385" style="stop-color:#F7B142"/>
			<stop  offset="1" style="stop-color:#EF794A"/>
		</linearGradient>
		<path id="XMLID_2359_" class="st88" d="M202.2,210.8c-15.1,13.4-28,7.7-32.4,1.2c-1.5-2.2-2.6-4.7-3.2-7.5
			c1.7-8.1,5.4-12.2,9.2-14.7c4-2.7,20.6-9.9,38.1-5.7C214.3,185.9,216.2,198.4,202.2,210.8z"/>
		<linearGradient id="XMLID_100_" gradientUnits="userSpaceOnUse" x1="215.0171" y1="249.4793" x2="155.285" y2="237.9448">
			<stop  offset="0.1385" style="stop-color:#F7B142"/>
			<stop  offset="1" style="stop-color:#EF794A"/>
		</linearGradient>
		<path id="XMLID_354_" class="st89" d="M201.8,262.5c0,0-19.5-0.4-29.3,1.7c-2.2,0.5-4.2,1-6,1.5c0,0-0.5-33.9-0.8-49.8
			c0-0.5,0-1,0-1.5c2.5,7,7.9,21.6,14,30.3C187.9,256.5,201.8,262.5,201.8,262.5z"/>
		<linearGradient id="XMLID_101_" gradientUnits="userSpaceOnUse" x1="234.9733" y1="304.7587" x2="231.2658" y2="242.7609">
			<stop  offset="0.1385" style="stop-color:#F7B142"/>
			<stop  offset="1" style="stop-color:#EF794A"/>
		</linearGradient>
		<path id="XMLID_378_" class="st90" d="M226.3,302.3l1-43.4c0,0-4.3-13.8-6.4-25.2c-2.1-11.4,4.1-15.7,4.1-15.7
			c3.6-11.5,7.1-16.1,9.5-17.8c4.2,11.3,7.5,29.3,5.5,35c-2.8,8-8.7,20.5-8.3,25.3c0.4,4.8,10.8,49.9,10.8,49.9
			S237.2,306.1,226.3,302.3z"/>
		<linearGradient id="XMLID_102_" gradientUnits="userSpaceOnUse" x1="191.0021" y1="323.0217" x2="207.4799" y2="241.4565">
			<stop  offset="0.1385" style="stop-color:#F7B142"/>
			<stop  offset="1" style="stop-color:#EF794A"/>
		</linearGradient>
		<path id="XMLID_2363_" class="st91" d="M242.4,310.5c0,0-5.2-4.4-16.1-8.2c-7.4-2.6-17.5-4.9-30.4-5.3
			c-31.9-1-50.7,10.7-50.7,10.7l13-25.7l3.9-7.6c2.2,1.2,4.8,2.3,7.9,3.5c10.3,3.7,25.1,1.9,21.8,6.6c-3.3,4.7-1.6,5.2,18.1,6.6
			c12,0.9,21.8-0.1,27.7-1.1c0.9,4,1.7,7.7,2.5,11C241.4,306.6,242.4,310.5,242.4,310.5z"/>
		<linearGradient id="XMLID_103_" gradientUnits="userSpaceOnUse" x1="162.2889" y1="272.4389" x2="201.0117" y2="313.0842">
			<stop  offset="0.1385" style="stop-color:#F7B142"/>
			<stop  offset="1" style="stop-color:#EF794A"/>
		</linearGradient>
		<path id="XMLID_2357_" class="st92" d="M242.4,310.5c0,0-5.2-4.4-16.1-8.2c-7.4-2.6-17.5-4.9-30.4-5.3
			c-31.9-1-50.7,10.7-50.7,10.7l13-25.7c4.9,1.4,11.7,2.9,17.1,2.9c9.9,0,14.2,2.5,10.5,5.1c-3.7,2.7,20.6,3.9,36.9,5.6
			c6.6,0.7,12.6,2.9,17.4,5.3C241.4,306.6,242.4,310.5,242.4,310.5z"/>
	</g>
</g>
<g id="HEAD">
	<g id="XMLID_2339_">
		<g id="XMLID_2334_">
			<linearGradient id="XMLID_104_" gradientUnits="userSpaceOnUse" x1="214.367" y1="159.0963" x2="182.3309" y2="171.5719">
				<stop  offset="0.1436" style="stop-color:#F7AFAA"/>
				<stop  offset="0.9333" style="stop-color:#E58880"/>
			</linearGradient>
			<path id="XMLID_2343_" class="st93" d="M219.4,159.1c0,1-0.1,2.1-0.2,3.3c-0.6,6.7-1.3,10.8-2.3,13.4c-0.8,2.1-1.9,3.2-3.1,3.8
				c-5.1,2.5-17.5-3.1-19.7-10.8c-2.2-7.6-1.8-14.9,0.3-19c2.8-5.5,7.8-7.2,14.2-6.6C214.5,143.8,219.5,148.1,219.4,159.1z"/>
			<linearGradient id="XMLID_105_" gradientUnits="userSpaceOnUse" x1="198.9713" y1="156.005" x2="212.0506" y2="163.523">
				<stop  offset="0.1436" style="stop-color:#F7AFAA"/>
				<stop  offset="0.9333" style="stop-color:#E58880"/>
			</linearGradient>
			<path id="XMLID_2341_" class="st94" d="M214.2,171.4c0.4,2.5,0.9,4.5,1.9,6.1c-0.8,1.1-1,1.4-2.3,2.1
				c-5.1,2.5-17.5-3.1-19.7-10.8c-2.2-7.6-1.8-14.9,0.3-19c2.8-5.5,7.8-7.2,14.2-6.6c5.9,0.5,10.8,3.3,10.7,14.3
				c-1.5,1.6-4.5,1.4-4.5,1.4S212.9,162.8,214.2,171.4z"/>
		</g>
		<g id="XMLID_2332_">
			<linearGradient id="XMLID_106_" gradientUnits="userSpaceOnUse" x1="206.2956" y1="157.516" x2="218.7359" y2="169.9562">
				<stop  offset="0.1436" style="stop-color:#F7AFAA"/>
				<stop  offset="0.9333" style="stop-color:#E58880"/>
			</linearGradient>
			<path id="XMLID_341_" class="st95" d="M211.8,157.6c0,0-0.7-2.9-3.5-0.8c-2.9,2-0.6,8.3,0.8,9.4c1.4,1.2,2.6,1.6,3.3,0.3
				S212.3,158.5,211.8,157.6z"/>
			<linearGradient id="XMLID_107_" gradientUnits="userSpaceOnUse" x1="209.4917" y1="153.5253" x2="209.78" y2="159.1464">
				<stop  offset="0.1436" style="stop-color:#F7AFAA"/>
				<stop  offset="0.9333" style="stop-color:#E58880"/>
			</linearGradient>
			<path id="XMLID_2333_" class="st96" d="M209.9,158.1c-1.4,0.3-1.9,1.8-1.2,3.9c0.7,2.1,2.3,3.2,2.7,2.4c0.4-0.8,0-1.8-0.8-2.4
				s-0.3-1.6,0.3-1.5C211.5,160.7,211.4,157.7,209.9,158.1z"/>
		</g>
	</g>
</g>
<g id="HAIR">
	<g id="XMLID_2340_">
		<g id="XMLID_2330_">
			<linearGradient id="XMLID_108_" gradientUnits="userSpaceOnUse" x1="205.8124" y1="115.5039" x2="187.8558" y2="201.3302">
				<stop  offset="0" style="stop-color:#5E5441"/>
				<stop  offset="0.9247" style="stop-color:#4F443B"/>
			</linearGradient>
			<path id="XMLID_395_" class="st97" d="M220,153c0,3.3-4,4.5-4,4.5l-1.9,6.6l-1.6-5.7c0,0-1.1-3.7-3.4-1.4
				c-2.3,2.3-0.8,8.2,1.2,10.4c0.5,0.5,1,1.2,1.4,1.9c1.2,2.3,1.9,5.6,2,10.1c0.1,6-0.7,21.4-19.8,31.9c-19.1,10.5-32.2-8.2-25.5-21
				c3.2-6.2,7.1-9.8,10.5-12.2c3.6-2.6,6.8-3.7,8-5.3c1.9-2.4-1.6-13.5-2.7-18.8c-1.1-5.3,1.4-8.7,7.6-10.9c6.1-2.2,10-4,17.8-2.1
				C218.3,143,220,149.7,220,153z"/>
			<linearGradient id="XMLID_109_" gradientUnits="userSpaceOnUse" x1="187.3746" y1="154.1664" x2="211.2993" y2="140.895">
				<stop  offset="0" style="stop-color:#5E5441"/>
				<stop  offset="0.9247" style="stop-color:#B0A05A"/>
			</linearGradient>
			<path id="XMLID_2327_" class="st98" d="M198.6,141.3c-0.4,0-7.4,3-9.5,7.5c-2.2,4.5-1.6,14.4-1.6,14.4s-4.3-8.8-2.5-14.8
				S198.6,141.3,198.6,141.3z"/>
			<linearGradient id="XMLID_110_" gradientUnits="userSpaceOnUse" x1="184.2106" y1="126.5069" x2="189.0801" y2="176.4201">
				<stop  offset="0" style="stop-color:#5E5441"/>
				<stop  offset="1" style="stop-color:#413830"/>
			</linearGradient>
			<path id="XMLID_390_" class="st99" d="M194,211.3c-19.1,10.5-32.2-8.2-25.5-21c3.2-6.2,7.1-9.8,10.5-12.2
				c-2.3,3-4.8,7.6-2.9,12.2c3.1,7.3,12.3,5.7,13,5.6c-0.5,0.3-4.6,2.3-10.2,1.9c-6-0.4-7.2-4.2-7.2-4.2s-1,4.1,4.1,6.6
				c5,2.4,24.4,0.7,31.3-10c5.1-8,5-16.9,4.7-20.8c1.2,2.3,1.9,5.6,2,10.1C213.9,185.3,213.1,200.8,194,211.3z"/>
		</g>
		<g id="XMLID_2328_">
			<linearGradient id="XMLID_111_" gradientUnits="userSpaceOnUse" x1="217.3319" y1="117.914" x2="199.3754" y2="203.7403">
				<stop  offset="0" style="stop-color:#5E5441"/>
				<stop  offset="0.9247" style="stop-color:#4F443B"/>
			</linearGradient>
			<path id="XMLID_394_" class="st100" d="M220,154.8c-3.5,2.2-9,1.6-13.2-0.2c-1.4-0.6-2.7-1.3-3.6-2c-3.6-2.9-5.2-5.7-4.4-10.9
				c0,0,1.9-7,9.6-8.8c6.7-1.5,12.8,2.5,15.1,6.4c0.4,0.6,0.6,1.3,0.8,1.9C225.4,145.7,224.7,151.8,220,154.8z"/>
			<linearGradient id="XMLID_112_" gradientUnits="userSpaceOnUse" x1="209.6445" y1="141.3848" x2="228.7419" y2="130.7911">
				<stop  offset="0" style="stop-color:#5E5441"/>
				<stop  offset="0.9247" style="stop-color:#B0A05A"/>
			</linearGradient>
			<path id="XMLID_2326_" class="st101" d="M202.8,136.1c0,0,7.2-3.8,14.3-0.4c7.1,3.4,6.6,7.2,6.6,7.2s1.3-5.2-6.6-8.8
				C209.5,130.5,202.8,136.1,202.8,136.1z"/>
			<linearGradient id="XMLID_113_" gradientUnits="userSpaceOnUse" x1="212.3591" y1="127.97" x2="218.0657" y2="162.894">
				<stop  offset="0" style="stop-color:#5E5441"/>
				<stop  offset="1" style="stop-color:#413830"/>
			</linearGradient>
			<path id="XMLID_391_" class="st102" d="M220,154.8c-3.5,2.2-9,1.6-13.2-0.2c2.6,0.1,6.2-0.2,8.2-2.4c3.7-3.8,3.5-10.4,3.5-10.4
				s0.6,0.5,1.6,3.1c0.9,2.4,0,5.1-0.1,5.4c0.3-0.1,2.5-1.3,3.4-6.1c0.4-1.9,0.3-3.5,0.1-4.8c0.4,0.6,0.6,1.3,0.8,1.9
				C225.4,145.7,224.7,151.8,220,154.8z"/>
		</g>
	</g>
</g>
<g id="RIGHT_ARM_2">
	<g id="XMLID_2376_">
		<g id="XMLID_2342_">
			
				<linearGradient id="XMLID_114_" gradientUnits="userSpaceOnUse" x1="267.5463" y1="276.9682" x2="246.8341" y2="321.1881" gradientTransform="matrix(0.9922 0.1243 -0.1243 0.9922 64.6487 -126.3651)">
				<stop  offset="0.1436" style="stop-color:#F7AFAA"/>
				<stop  offset="0.9333" style="stop-color:#E58880"/>
			</linearGradient>
			<path id="XMLID_360_" class="st103" d="M285,202.8c0,0-3-3.4-3.6-5.9c-0.5-1.9,0.4-4,0.7-5.1c0.5-2.2,3.5-3.2,3.6-2.3
				c0,0.8-1.7,2.8-1,4.4c0.8,1.7,1.7,3.4,2.2,3.7s2.2,0.6,2.6,2.4c0.4,1.9-1,4.8-1,4.8S286.8,204.9,285,202.8z"/>
			<g id="XMLID_366_">
				<path id="XMLID_392_" class="st35" d="M315.9,179.7l-2.9,4.4l-45.3,17.7c-1.6-0.2-2.3-0.9-2.7-1.6c-0.6-1.4,0.1-3.1,0.1-3.1
					s0,0,0,0l45.3-18.6c0,0,0,0,0,0L315.9,179.7z"/>
				
					<linearGradient id="XMLID_115_" gradientUnits="userSpaceOnUse" x1="319.0349" y1="108.9974" x2="324.4216" y2="123.5085" gradientTransform="matrix(0.9948 -0.1016 0.1016 0.9948 -40.4584 108.8524)">
					<stop  offset="0.1179" style="stop-color:#EE5A77"/>
					<stop  offset="1" style="stop-color:#801C56"/>
				</linearGradient>
				<path id="XMLID_388_" class="st104" d="M315.9,179.7l-2.9,4.4l-45.3,17.7c-1.6-0.2-2.3-0.9-2.7-1.6L315.9,179.7z"/>
				
					<linearGradient id="XMLID_116_" gradientUnits="userSpaceOnUse" x1="338.2756" y1="109.6869" x2="350.8589" y2="104.8412" gradientTransform="matrix(0.9948 -0.1016 0.1016 0.9948 -40.4584 108.8524)">
					<stop  offset="0.1179" style="stop-color:#EE5A77"/>
					<stop  offset="1" style="stop-color:#801C56"/>
				</linearGradient>
				<path id="XMLID_387_" class="st105" d="M313,184.1c0,0,0.5-1.9-0.2-3.3c-0.7-1.3-2.1-2.2-2.3-2.3l5.4,1.2L313,184.1z"/>
				
					<linearGradient id="XMLID_117_" gradientUnits="userSpaceOnUse" x1="290.3952" y1="113.0444" x2="298.0513" y2="123.8968" gradientTransform="matrix(0.9948 -0.1016 0.1016 0.9948 -40.4584 108.8524)">
					<stop  offset="0.1179" style="stop-color:#EE5A77"/>
					<stop  offset="1" style="stop-color:#801C56"/>
				</linearGradient>
				<path id="XMLID_389_" class="st106" d="M267.7,201.8c-1.6-0.2-2.3-0.9-2.7-1.6c-0.6-1.4,0.1-3.1,0.1-3.1s0,0,0,0
					c0.2,0,1.8-0.1,2.8,1.4C269,200.2,267.7,201.8,267.7,201.8z"/>
				<linearGradient id="XMLID_118_" gradientUnits="userSpaceOnUse" x1="290.7775" y1="210.9893" x2="289.1054" y2="190.1638">
					<stop  offset="0.1179" style="stop-color:#EE5A77"/>
					<stop  offset="1" style="stop-color:#E88486"/>
				</linearGradient>
				<path id="XMLID_379_" class="st107" d="M267.4,196.6c0,0,42.1-17.5,42.6-17.5c0.5,0,1.2-0.1,0.9,0.6
					c-0.4,0.7-41.6,17.5-42.4,17.7C267.7,197.6,266.2,197.4,267.4,196.6z"/>
			</g>
			<g id="XMLID_6_">
				<g id="XMLID_5_">
					<linearGradient id="XMLID_119_" gradientUnits="userSpaceOnUse" x1="279.7228" y1="225.2734" x2="295.7853" y2="202.3984">
						<stop  offset="0.1436" style="stop-color:#F7AFAA"/>
						<stop  offset="0.9333" style="stop-color:#E58880"/>
					</linearGradient>
					<path id="XMLID_25_" class="st108" d="M294.6,211.3c-2.3,3.9-9.1,12.9-9.1,12.9s-1-0.1-2.3-0.5c-2.1-0.7-4.8-2.3-3.7-5.6
						l9.1-11.3c0,0,0,0,0-0.1c1.4-1.5,4.3-0.9,5.5,0.1c0.1,0.1,0.3,0.2,0.4,0.3C295.7,208.4,295.4,209.8,294.6,211.3z"/>
					<linearGradient id="XMLID_120_" gradientUnits="userSpaceOnUse" x1="280.2154" y1="204.6635" x2="288.8821" y2="215.4135">
						<stop  offset="0.1436" style="stop-color:#F7AFAA"/>
						<stop  offset="0.9333" style="stop-color:#E58880"/>
					</linearGradient>
					<path id="XMLID_18_" class="st109" d="M294.6,211.3c-2.3,3.9-9.1,12.9-9.1,12.9s-1-0.1-2.3-0.5c1.9-2.5,10.5-13.8,11.3-16.5
						C295.7,208.4,295.4,209.8,294.6,211.3z"/>
				</g>
				<g id="XMLID_2_">
					<linearGradient id="XMLID_121_" gradientUnits="userSpaceOnUse" x1="288.2957" y1="188.6793" x2="292.1082" y2="218.3668">
						<stop  offset="0.1436" style="stop-color:#F7AFAA"/>
						<stop  offset="0.9333" style="stop-color:#E58880"/>
					</linearGradient>
					<path id="XMLID_24_" class="st110" d="M296.8,204.5c0,2.9-1.3,5.6-2.6,6.5c-0.5,0.4-1.4,0.6-2.3,0.7c-1.3,0.1-2.7-0.2-3.3-1.1
						c-0.2-0.3-0.6-1.1-1.1-2.1c-1.7-3.5-4.3-10.1-4.8-11.8c-0.3-1-0.4-2-0.4-2.7c0-0.9,0.3-1.5,0.7-1.6c0.8-0.1,1.7,0.6,2.3,0.2
						c0.6-0.4,1.6-0.5,2.7,0.2c1,0.8,1.4-0.2,2.1-0.3c0.8-0.1,1,0.7,1.5,0.7c0.5,0,1-0.8,1.7-0.5c0.7,0.3,1.6-0.1,2.4,1.3
						c0.1,0.1,0.2,0.3,0.2,0.5C296.3,196.6,296.8,201.8,296.8,204.5z"/>
					<linearGradient id="XMLID_122_" gradientUnits="userSpaceOnUse" x1="283.5393" y1="191.5902" x2="306.7199" y2="177.157">
						<stop  offset="0.1436" style="stop-color:#F7AFAA"/>
						<stop  offset="0.9333" style="stop-color:#E58880"/>
					</linearGradient>
					<path id="XMLID_20_" class="st111" d="M293,187.5c-0.1,0.2-3.2,2.7-5.7,4.4c0,0,0,0,0,0c-1.3,0.9-2.3,1.6-2.7,1.7
						c-1,0.3-2.3,0.1-2.3-0.4c0,0,0.1-0.8,1-1.9c0.9-1.1,5.1-5.8,6-6.1c0.8-0.3,1.4-0.5,2.5,0.4c0,0,0.1,0.1,0.1,0.1
						C292.9,186.4,293.2,187.1,293,187.5z"/>
					<linearGradient id="XMLID_123_" gradientUnits="userSpaceOnUse" x1="289.9203" y1="182.4098" x2="290.0852" y2="185.0469">
						<stop  offset="0.1436" style="stop-color:#F7AFAA"/>
						<stop  offset="0.9333" style="stop-color:#E58880"/>
					</linearGradient>
					<path id="XMLID_15_" class="st112" d="M292.7,186.6c-0.1,0.2-2.4,1.9-4.8,3.6c0.4-0.8,2.3-3.9,3.6-4.9
						C292.5,186.1,292.8,186.3,292.7,186.6z"/>
					<linearGradient id="XMLID_124_" gradientUnits="userSpaceOnUse" x1="284.7623" y1="193.5642" x2="307.9466" y2="179.1287">
						<stop  offset="0.1436" style="stop-color:#F7AFAA"/>
						<stop  offset="0.9333" style="stop-color:#E58880"/>
					</linearGradient>
					<path id="XMLID_22_" class="st113" d="M294.2,187.5c0,0.1-0.4,0.5-0.8,1l0,0c-1.5,1.6-4.3,4.6-4.8,5c-0.9,0.9-2.8,0.6-2.9-0.5
						c0-0.6,0.5-1.4,2.3-2.9c1.7-1.5,4.3-3.8,5.1-3.9c0.3,0,0.6,0.1,0.8,0.3C294.1,186.8,294.2,187.3,294.2,187.5z"/>
					<linearGradient id="XMLID_125_" gradientUnits="userSpaceOnUse" x1="292.3235" y1="181.3696" x2="291.5735" y2="189.8279">
						<stop  offset="0.1436" style="stop-color:#F7AFAA"/>
						<stop  offset="0.9333" style="stop-color:#E58880"/>
					</linearGradient>
					<path id="XMLID_13_" class="st114" d="M294.2,187.5c0,0.1-0.4,0.5-0.8,1l0,0l-4.3,3.8c0,0-0.3-0.3,0.2-1.2
						c0.5-0.9,4-4.2,4.5-4.6l0,0C294.1,186.8,294.2,187.3,294.2,187.5z"/>
					<linearGradient id="XMLID_126_" gradientUnits="userSpaceOnUse" x1="285.6131" y1="194.9148" x2="308.7534" y2="180.5067">
						<stop  offset="0.1436" style="stop-color:#F7AFAA"/>
						<stop  offset="0.9333" style="stop-color:#E58880"/>
					</linearGradient>
					<path id="XMLID_23_" class="st115" d="M296,188.7c-0.5,1.2-2.9,3.5-4.3,4.7c-0.5,0.4-0.8,0.7-0.9,0.8c-0.9,0.5-2.5-0.2-2.2-1.8
						c0.2-1,5.3-5.3,6-5.5c0.3-0.1,0.8,0,1.1,0.2C296.1,187.3,296.3,187.9,296,188.7z"/>
					<linearGradient id="XMLID_127_" gradientUnits="userSpaceOnUse" x1="294.5501" y1="181.567" x2="293.8001" y2="190.0254">
						<stop  offset="0.1436" style="stop-color:#F7AFAA"/>
						<stop  offset="0.9333" style="stop-color:#E58880"/>
					</linearGradient>
					<path id="XMLID_12_" class="st116" d="M296,188.7c-0.5,1.2-2.9,3.5-4.3,4.7c-0.1-0.7-1.1-2,2.5-5.3c0.5-0.5,1.2-1,1.5-1.1
						C296.1,187.3,296.3,187.9,296,188.7z"/>
					<linearGradient id="XMLID_128_" gradientUnits="userSpaceOnUse" x1="287.6326" y1="198.1684" x2="310.8191" y2="183.7315">
						<stop  offset="0.1436" style="stop-color:#F7AFAA"/>
						<stop  offset="0.9333" style="stop-color:#E58880"/>
					</linearGradient>
					<path id="XMLID_19_" class="st117" d="M299.7,194.1c-0.4,0.8-1,2.3-1.8,3c-0.3,0.4-0.7,0.5-1,0.4c-1-0.4-1.6-2.1-1.6-2.1
						s0,0,0,0c-0.2,0-1.7-0.5-2.9-1c-1.3-0.5-1.7-0.5-0.5-2.7c1.2-2.2,3.9-4.1,4.4-3.9c0.5,0.2,1.2,1,2.5,2.8
						C300.1,192.2,300.2,192.8,299.7,194.1z"/>
					<linearGradient id="XMLID_129_" gradientUnits="userSpaceOnUse" x1="297.8054" y1="187.4989" x2="296.1804" y2="197.6239">
						<stop  offset="0.1436" style="stop-color:#F7AFAA"/>
						<stop  offset="0.9333" style="stop-color:#E58880"/>
					</linearGradient>
					<path id="XMLID_16_" class="st118" d="M297.9,197c-0.3,0.4-0.7,0.5-1,0.4c-1-0.4-1.6-2.1-1.6-2.1s0,0,0,0
						c-0.2-0.4-0.2-0.8-0.2-1.1c0.1-1.1,1.7-2.2,1.7-2.2S296.7,193.6,297.9,197z"/>
					<linearGradient id="XMLID_130_" gradientUnits="userSpaceOnUse" x1="287.8611" y1="197.4154" x2="295.4444" y2="204.6654">
						<stop  offset="0.1436" style="stop-color:#F7AFAA"/>
						<stop  offset="0.9333" style="stop-color:#E58880"/>
					</linearGradient>
					<path id="XMLID_11_" class="st119" d="M296.8,204.5c0,2.9-1.3,5.6-2.6,6.5c-0.5,0.4-1.4,0.6-2.3,0.7c1.3-2,2.4-3.7,2.6-4.6
						c0.8-3,0.4-12.3,0.4-12.3c0.3-0.3,0.5-0.3,0.8-0.2C296.3,196.6,296.8,201.8,296.8,204.5z"/>
					<linearGradient id="XMLID_131_" gradientUnits="userSpaceOnUse" x1="294.1378" y1="190.6944" x2="284.3253" y2="205.5069">
						<stop  offset="0.1436" style="stop-color:#F7AFAA"/>
						<stop  offset="0.9333" style="stop-color:#E58880"/>
					</linearGradient>
					<path id="XMLID_14_" class="st120" d="M291.8,208.8c-1.2,0.3-2.8-0.7-4.2-0.3c0,0-0.1,0-0.1,0c-1.7-3.5-4.3-10.1-4.8-11.8
						c-0.3-1-0.4-2-0.4-2.7c1.1,0.1,3.1,0.3,5.5,0.6c3.6,0.3,4.5,0,4.9,1.8C293.1,198.1,292.9,208.6,291.8,208.8z"/>
				</g>
			</g>
		</g>
		<g id="XMLID_2347_">
			<g id="XMLID_355_">
				<linearGradient id="XMLID_132_" gradientUnits="userSpaceOnUse" x1="283.5169" y1="212.1303" x2="282.4302" y2="226.3128">
					<stop  offset="0.1179" style="stop-color:#EE5A77"/>
					<stop  offset="1" style="stop-color:#801C56"/>
				</linearGradient>
				<path id="XMLID_2354_" class="st121" d="M288.9,220.4l-3.8,5.3c0,0,0.3-2.2-2.2-5.2c-0.1-0.1-0.2-0.3-0.4-0.4
					c-3.1-3.5-5.5-2.6-5.5-2.6l4.1-5.4c0,0,2.9-0.5,5.7,2.7c0.1,0.1,0.2,0.3,0.3,0.4C289.8,218.3,288.9,220.4,288.9,220.4z"/>
				<linearGradient id="XMLID_133_" gradientUnits="userSpaceOnUse" x1="279.8526" y1="209.6099" x2="288.0915" y2="223.6161">
					<stop  offset="0.1179" style="stop-color:#EE5A77"/>
					<stop  offset="1" style="stop-color:#801C56"/>
				</linearGradient>
				<path id="XMLID_2352_" class="st122" d="M288.9,220.4l-3.8,5.3c0,0,0.3-2.2-2.2-5.2c0.3-0.3,0.5-0.6,0.8-1
					c1.6-1.9,2.5-3.5,3.1-4.8c0.1,0.1,0.2,0.3,0.3,0.4C289.8,218.3,288.9,220.4,288.9,220.4z"/>
			</g>
			<g id="XMLID_2344_">
				<linearGradient id="XMLID_134_" gradientUnits="userSpaceOnUse" x1="263.7077" y1="320.1672" x2="271.8264" y2="128.2164">
					<stop  offset="0.1385" style="stop-color:#F7B142"/>
					<stop  offset="1" style="stop-color:#EF794A"/>
				</linearGradient>
				<path id="XMLID_384_" class="st123" d="M286.5,226c0,0-12.2,22.8-18.7,31.5c-6.5,8.7-9.1,11.4-15.8,8.3c-1.8-0.9-3-2.3-3.6-4
					c-1.8-4.6-0.1-11.2,1.7-15.3c3.2-7.3,9.6-13.8,15.9-20c6.2-6.2,10.3-9.9,10.3-9.9s3.5-0.7,7.2,2.8c0.4,0.4,0.7,0.7,1,1
					C286.9,223.5,286.5,226,286.5,226z"/>
				<linearGradient id="XMLID_135_" gradientUnits="userSpaceOnUse" x1="267.1853" y1="224.8211" x2="270.4898" y2="231.6135">
					<stop  offset="0.1385" style="stop-color:#F7B142"/>
					<stop  offset="1" style="stop-color:#FAD58D"/>
				</linearGradient>
				<path id="XMLID_2346_" class="st124" d="M273.6,219.3c3-2.9,5.2-2.1,4.3,0s-19.8,16-19.8,16S269.2,223.6,273.6,219.3z"/>
				<linearGradient id="XMLID_136_" gradientUnits="userSpaceOnUse" x1="248.3542" y1="243.9986" x2="286.4897" y2="243.9986">
					<stop  offset="0.1385" style="stop-color:#F7B142"/>
					<stop  offset="1" style="stop-color:#EF794A"/>
				</linearGradient>
				<path id="XMLID_381_" class="st125" d="M286.5,226c0,0-10.6,24.8-17.1,33.5c-6.5,8.7-10.7,9.4-17.4,6.3c-1.8-0.9-3-2.3-3.6-4
					c3.5,0.4,9.9,0,15.6-6.3c6.7-7.4,16.5-27.1,20.4-35.1C286.9,223.5,286.5,226,286.5,226z"/>
			</g>
		</g>
	</g>
</g>
<g id="RIGHT_ARM_1">
	<g id="XMLID_2345_">
		<linearGradient id="XMLID_137_" gradientUnits="userSpaceOnUse" x1="237.2345" y1="319.0475" x2="245.3533" y2="127.0967">
			<stop  offset="0.1385" style="stop-color:#F7B142"/>
			<stop  offset="1" style="stop-color:#EF794A"/>
		</linearGradient>
		<path id="XMLID_382_" class="st126" d="M261.7,265.3c-0.3,0.4-0.7,0.7-1.1,1.1c-4.2,3.2-10.9-0.8-19-9.8
			c-8.1-9-14.8-15.7-17.9-21.2c-1.8-3.2-3.8-6.8-5.2-11c-1.7-5.1-2.4-11-0.6-17.6c3.4-12.3,7.3-16.8,11.4-15.6
			c0,0,5.7,5.6,14.8,20.2c9.1,14.7,18.2,36,19.8,41C265.3,256.9,264.9,262,261.7,265.3z"/>
		<linearGradient id="XMLID_138_" gradientUnits="userSpaceOnUse" x1="241.607" y1="216.8645" x2="243.8652" y2="182.5819">
			<stop  offset="0.1385" style="stop-color:#F7B142"/>
			<stop  offset="1" style="stop-color:#FAD58D"/>
		</linearGradient>
		<path id="XMLID_2348_" class="st127" d="M228.1,193.1c-2.1,1.4,1.2,7.9,10,18.2c8.8,10.3,17.9,23.1,17.9,23.1s-5.2-11.3-12.5-23.3
			S230.3,191.5,228.1,193.1z"/>
		<linearGradient id="XMLID_139_" gradientUnits="userSpaceOnUse" x1="252.2535" y1="231.2973" x2="235.3637" y2="250.1438">
			<stop  offset="0.1385" style="stop-color:#F7B142"/>
			<stop  offset="1" style="stop-color:#EF794A"/>
		</linearGradient>
		<path id="XMLID_2360_" class="st128" d="M261.7,265.3c-0.3,0.4-0.7,0.8-1.2,1.1c-1.4,1.1-3.1,1.4-5.1,0.9
			c-3.8-1-8.6-4.7-13.9-10.6c-8-9-14.8-15.7-17.9-21.2c-0.1-0.2-0.3-0.5-0.4-0.8c-1.7-3-3.5-6.4-4.7-10.2c2,2.4,5.3,6.1,7.9,8.6
			c4.2,4,0-9.6,5-7.5c5,2.1,9.9,21.7,18.1,31.6C253.7,262.2,258,264.4,261.7,265.3z"/>
		<linearGradient id="XMLID_140_" gradientUnits="userSpaceOnUse" x1="233.4766" y1="259.8627" x2="238.008" y2="252.9626">
			<stop  offset="0.1385" style="stop-color:#F7B142"/>
			<stop  offset="1" style="stop-color:#EF794A"/>
		</linearGradient>
		<path id="XMLID_2358_" class="st129" d="M255.5,267.3c-3.8-1-8.6-4.7-13.9-10.6c-8-9-14.8-15.7-17.9-21.2
			c-0.1-0.2-0.3-0.5-0.4-0.8c1,0.4,2.1,0.8,3,1.2c3.2,1.4,3.2,1.5,5.3-1.5c2.1-3,5.8,9.6,13,21.3
			C248.8,262.7,252.9,265.8,255.5,267.3z"/>
	</g>
</g>
</svg>
