<?xml version="1.0" encoding="utf-8"?>
<!-- Generator: Adobe Illustrator 19.0.0, SVG Export Plug-In . SVG Version: 6.00 Build 0)  -->
<svg version="1.1" xmlns="http://www.w3.org/2000/svg" xmlns:xlink="http://www.w3.org/1999/xlink" x="0px" y="0px"
	 viewBox="0 0 600 600" style="enable-background:new 0 0 600 600;" xml:space="preserve">
<style type="text/css">
	.st0{fill:url(#SVGID_1_);}
	.st1{fill:url(#SVGID_2_);}
	.st2{fill:url(#SVGID_3_);}
	.st3{fill:url(#SVGID_4_);}
	.st4{fill:url(#SVGID_5_);}
	.st5{fill:url(#SVGID_6_);}
	.st6{fill:url(#SVGID_7_);}
	.st7{fill:url(#SVGID_8_);}
	.st8{fill:url(#SVGID_9_);}
	.st9{fill:url(#SVGID_10_);}
	.st10{fill:url(#SVGID_11_);}
	.st11{fill:url(#SVGID_12_);}
	.st12{fill:url(#SVGID_13_);}
	.st13{fill:url(#SVGID_14_);}
	.st14{fill:url(#SVGID_15_);}
	.st15{fill:url(#SVGID_16_);}
	.st16{fill:url(#SVGID_17_);}
	.st17{fill:url(#SVGID_18_);}
	.st18{fill:url(#SVGID_19_);}
	.st19{fill:#EFE5E9;}
	.st20{fill:#F8B143;}
	.st21{fill:url(#SVGID_20_);}
	.st22{fill:url(#SVGID_21_);}
	.st23{fill:url(#SVGID_22_);}
	.st24{fill:url(#SVGID_23_);}
	.st25{fill:url(#SVGID_24_);}
	.st26{fill:url(#SVGID_25_);}
	.st27{fill:url(#SVGID_26_);}
	.st28{fill:url(#SVGID_27_);}
	.st29{fill:url(#SVGID_28_);}
	.st30{fill:#ACD5EE;}
	.st31{fill:#FFFFFF;}
	.st32{fill:url(#SVGID_29_);}
	.st33{fill:url(#SVGID_30_);}
	.st34{fill:url(#SVGID_31_);}
	.st35{fill:url(#SVGID_32_);}
	.st36{fill:url(#SVGID_33_);}
	.st37{fill:url(#SVGID_34_);}
	.st38{fill:url(#SVGID_35_);}
	.st39{fill:url(#SVGID_36_);}
	.st40{fill:url(#SVGID_37_);}
	.st41{fill:url(#SVGID_38_);}
	.st42{fill:url(#SVGID_39_);}
	.st43{fill:#DAEAF3;}
	.st44{fill:url(#SVGID_40_);}
	.st45{fill:url(#SVGID_41_);}
	.st46{fill:url(#SVGID_42_);}
	.st47{fill:url(#SVGID_43_);}
	.st48{fill:url(#SVGID_44_);}
	.st49{fill:url(#SVGID_45_);}
	.st50{fill:url(#SVGID_46_);}
	.st51{fill:url(#SVGID_47_);}
	.st52{fill:url(#SVGID_48_);}
	.st53{fill:url(#SVGID_49_);}
	.st54{fill:url(#SVGID_50_);}
	.st55{fill:url(#SVGID_51_);}
	.st56{fill:url(#SVGID_52_);}
	.st57{fill:url(#SVGID_53_);}
	.st58{fill:url(#SVGID_54_);}
	.st59{fill:url(#SVGID_55_);}
	.st60{fill:url(#SVGID_56_);}
	.st61{fill:url(#SVGID_57_);}
	.st62{fill:url(#SVGID_58_);}
	.st63{fill:url(#SVGID_59_);}
	.st64{fill:url(#SVGID_60_);}
	.st65{fill:url(#SVGID_61_);}
	.st66{fill:url(#SVGID_62_);}
	.st67{fill:url(#SVGID_63_);}
	.st68{fill:url(#SVGID_64_);}
	.st69{fill:url(#SVGID_65_);}
	.st70{fill:url(#SVGID_66_);}
	.st71{fill:url(#SVGID_67_);}
	.st72{fill:url(#SVGID_68_);}
	.st73{fill:url(#SVGID_69_);}
	.st74{fill:url(#SVGID_70_);}
	.st75{fill:url(#SVGID_71_);}
	.st76{fill:url(#SVGID_72_);}
	.st77{fill:url(#SVGID_73_);}
	.st78{fill:url(#SVGID_74_);}
	.st79{fill:url(#SVGID_75_);}
	.st80{fill:url(#SVGID_76_);}
	.st81{fill:url(#SVGID_77_);}
	.st82{fill:url(#SVGID_78_);}
	.st83{fill:url(#SVGID_79_);}
	.st84{fill:url(#SVGID_80_);}
	.st85{fill:url(#SVGID_81_);}
	.st86{fill:url(#SVGID_82_);}
	.st87{fill:url(#XMLID_2_);}
	.st88{fill:url(#XMLID_3_);}
	.st89{fill:url(#SVGID_83_);}
	.st90{fill:url(#SVGID_84_);}
	.st91{fill:url(#SVGID_85_);}
	.st92{fill:url(#SVGID_86_);}
	.st93{fill:url(#XMLID_4_);}
	.st94{fill:url(#XMLID_5_);}
	.st95{fill:url(#SVGID_87_);}
	.st96{fill:url(#SVGID_88_);}
	.st97{fill:url(#SVGID_89_);}
	.st98{fill:url(#SVGID_90_);}
	.st99{fill:url(#SVGID_91_);}
	.st100{fill:url(#SVGID_92_);}
	.st101{fill:url(#SVGID_93_);}
	.st102{fill:url(#SVGID_94_);}
	.st103{fill:url(#SVGID_95_);}
	.st104{fill:url(#SVGID_96_);}
	.st105{fill:url(#SVGID_97_);}
	.st106{fill:url(#SVGID_98_);}
	.st107{fill:url(#SVGID_99_);}
	.st108{fill:url(#SVGID_100_);}
	.st109{fill:url(#SVGID_101_);}
	.st110{fill:url(#SVGID_102_);}
	.st111{fill:url(#SVGID_103_);}
	.st112{fill:url(#SVGID_104_);}
	.st113{fill:url(#SVGID_105_);}
	.st114{fill:url(#SVGID_106_);}
	.st115{fill:url(#SVGID_107_);}
	.st116{fill:#FAFDFE;}
	.st117{fill:#EF5A77;}
	.st118{fill:url(#SVGID_108_);}
	.st119{fill:url(#SVGID_109_);}
	.st120{fill:url(#SVGID_110_);}
	.st121{fill:url(#SVGID_111_);}
	.st122{fill:url(#SVGID_112_);}
	.st123{fill:url(#SVGID_113_);}
	.st124{fill:url(#SVGID_114_);}
	.st125{fill:url(#SVGID_115_);}
	.st126{fill:url(#SVGID_116_);}
	.st127{fill:url(#SVGID_117_);}
	.st128{fill:url(#SVGID_118_);}
	.st129{fill:url(#SVGID_119_);}
	.st130{fill:url(#SVGID_120_);}
	.st131{fill:url(#SVGID_121_);}
	.st132{fill:url(#SVGID_122_);}
	.st133{fill:url(#SVGID_123_);}
	.st134{fill:url(#SVGID_124_);}
	.st135{fill:url(#SVGID_125_);}
	.st136{fill:url(#SVGID_126_);}
	.st137{fill:url(#SVGID_127_);}
	.st138{fill:url(#SVGID_128_);}
	.st139{fill:url(#SVGID_129_);}
	.st140{fill:url(#SVGID_130_);}
	.st141{fill:url(#SVGID_131_);}
	.st142{fill:url(#SVGID_132_);}
	.st143{fill:url(#SVGID_133_);}
	.st144{fill:url(#SVGID_134_);}
	.st145{fill:url(#SVGID_135_);}
	.st146{fill:url(#SVGID_136_);}
	.st147{fill:url(#SVGID_137_);}
	.st148{fill:url(#SVGID_138_);}
	.st149{fill:url(#SVGID_139_);}
	.st150{fill:url(#SVGID_140_);}
	.st151{fill:url(#SVGID_141_);}
	.st152{fill:url(#SVGID_142_);}
	.st153{fill:url(#SVGID_143_);}
	.st154{fill:url(#SVGID_144_);}
	.st155{fill:url(#SVGID_145_);}
	.st156{fill:url(#SVGID_146_);}
	.st157{fill:url(#SVGID_147_);}
	.st158{fill:url(#SVGID_148_);}
	.st159{fill:url(#SVGID_149_);}
	.st160{fill:url(#SVGID_150_);}
	.st161{fill:url(#SVGID_151_);}
</style>
<g id="FLOOR">
	<linearGradient id="SVGID_1_" gradientUnits="userSpaceOnUse" x1="126" y1="522.25" x2="243" y2="522.25">
		<stop  offset="0" style="stop-color:#FBECEA"/>
		<stop  offset="1" style="stop-color:#E1D9E3"/>
	</linearGradient>
	<polygon class="st0" points="126,520 243,520 172,524.5 	"/>
</g>
<g id="PLANT">
	<g>
		<g>
			<g>
				<linearGradient id="SVGID_2_" gradientUnits="userSpaceOnUse" x1="209.7571" y1="450.9154" x2="174.7571" y2="518.9154">
					<stop  offset="0" style="stop-color:#64BCC3"/>
					<stop  offset="1" style="stop-color:#59AAC0"/>
				</linearGradient>
				<path class="st1" d="M210.1,468.6c-1.4,4-3.8,8.9-6.9,15.1c-8.4,16.5-32.5,38.7-32.5,38.7s3.1-15.9,11.2-35.9
					c0.8-2.1,1.7-4.2,2.7-6.3c10.1-22.8,18.6-29.4,24.7-24.7C212.4,458,212.5,461.9,210.1,468.6z"/>
				<linearGradient id="SVGID_3_" gradientUnits="userSpaceOnUse" x1="216.3432" y1="441.1404" x2="182.5932" y2="503.6404">
					<stop  offset="0" style="stop-color:#64BCC3"/>
					<stop  offset="1" style="stop-color:#59AAC0"/>
				</linearGradient>
				<path class="st2" d="M210.1,468.6c-1.4,4-3.8,8.9-6.9,15.1c-8.4,16.5-32.5,38.7-32.5,38.7s3.1-15.9,11.2-35.9
					c-0.7,5.8,0.2,8.5,1.8,8.4c4.7-0.2,15.6-25.5,15.6-25.5s5,2.3,9.3,0C209.2,469.2,209.7,468.9,210.1,468.6z"/>
			</g>
			<g>
				<linearGradient id="SVGID_4_" gradientUnits="userSpaceOnUse" x1="140.3164" y1="555.9898" x2="201.5197" y2="392.9441">
					<stop  offset="0" style="stop-color:#64BCC3"/>
					<stop  offset="1" style="stop-color:#59AAC0"/>
				</linearGradient>
				<path class="st3" d="M186,472.7c-3.8,22.5-13.3,44.9-15.2,49.1c-0.2,0.5-0.3,0.7-0.3,0.7s-7.2-22-9.2-46.5
					c-0.6-7.3-0.3-14.5,0.6-21.1c0,0,0,0,0,0c2.3-15.5,8.5-27.3,16.9-26.5C187.9,429.1,190.7,445.3,186,472.7z"/>
				<linearGradient id="SVGID_5_" gradientUnits="userSpaceOnUse" x1="173.1631" y1="491.4068" x2="134.1631" y2="423.1568">
					<stop  offset="0" style="stop-color:#64BCC3"/>
					<stop  offset="1" style="stop-color:#59AAC0"/>
				</linearGradient>
				<path class="st4" d="M170.8,521.8c-0.2,0.5-0.3,0.7-0.3,0.7s-7.2-22-9.2-46.5c-0.6-7.3-0.3-14.5,0.6-21.1c0.4,1,0.9,2,1.5,2.8
					c3.5,4.5,9.3-2.8,9.3-2.8s-1.8,12.8-2.5,38.3C169.9,504.9,170.3,514.6,170.8,521.8z"/>
			</g>
			<g>
				<linearGradient id="SVGID_6_" gradientUnits="userSpaceOnUse" x1="161.4263" y1="512.4412" x2="147.6763" y2="471.1912">
					<stop  offset="0" style="stop-color:#64BCC3"/>
					<stop  offset="1" style="stop-color:#59AAC0"/>
				</linearGradient>
				<path class="st5" d="M170.8,522.3c0,0-15-8.3-23.8-28.3c-1-2.3-1.8-4.4-2.5-6.4c-5.2-15-1.2-19.8,1.2-20.5
					c2.4-0.8,9.8,7.6,15.5,20.3c0.7,1.6,1.5,3.3,2.1,5.1C169.2,508,170.8,522.3,170.8,522.3z"/>
				<linearGradient id="SVGID_7_" gradientUnits="userSpaceOnUse" x1="166.921" y1="522.0074" x2="152.7543" y2="487.3408">
					<stop  offset="0" style="stop-color:#64BCC3"/>
					<stop  offset="1" style="stop-color:#59AAC0"/>
				</linearGradient>
				<path class="st6" d="M170.8,522.3c0,0-15-8.3-23.8-28.3c-1-2.3-1.8-4.4-2.5-6.4c1,0.3,2,0.3,2.8-0.6c2.9-3.3,0.5-9.4,0.5-9.4
					s9.5,20,12.8,18.6c1.9-0.8,1.4-5.4,0.7-8.9c0.7,1.6,1.5,3.3,2.1,5.1C169.2,508,170.8,522.3,170.8,522.3z"/>
			</g>
			<g>
				<linearGradient id="SVGID_8_" gradientUnits="userSpaceOnUse" x1="138.7287" y1="539.8526" x2="237.9787" y2="473.3526">
					<stop  offset="0" style="stop-color:#64BCC3"/>
					<stop  offset="1" style="stop-color:#59AAC0"/>
				</linearGradient>
				<path class="st7" d="M212.7,498.3c-2,1.7-4.4,3.5-7.1,5.5c-16.7,11.8-34.5,18.3-35,18.5c0.3-0.4,7.4-9.6,16.5-19.2
					c2.5-2.7,5.1-5.4,7.8-7.9c12.6-12,23.9-16.8,26.5-13.3C223.6,484.7,222.9,489.7,212.7,498.3z"/>
				<linearGradient id="SVGID_9_" gradientUnits="userSpaceOnUse" x1="176.1526" y1="517.2447" x2="224.1526" y2="484.2447">
					<stop  offset="0" style="stop-color:#64BCC3"/>
					<stop  offset="1" style="stop-color:#59AAC0"/>
				</linearGradient>
				<path class="st8" d="M212.7,498.3c-2,1.7-4.4,3.5-7.1,5.5c-16.7,11.8-34.5,18.3-35,18.5c0.3-0.4,7.4-9.6,16.5-19.2
					c0.4,2.2,2,3.4,6.1,0.3c6-4.5,16.6-12.9,17.3-13.5c-0.5,0.5-7.8,7.8-4,8.6C208.3,498.9,210.7,498.6,212.7,498.3z"/>
			</g>
		</g>
		<g>
			<linearGradient id="SVGID_10_" gradientUnits="userSpaceOnUse" x1="157.2529" y1="424.5316" x2="107.2529" y2="550.5316">
				<stop  offset="0" style="stop-color:#FBECEA"/>
				<stop  offset="1" style="stop-color:#E1D9E3"/>
			</linearGradient>
			<path class="st9" d="M146.2,442.6c-2.5,1-1.9,6,0,9.5c1.9,3.4,5.3,2.9,4.9-2.8S147.8,442,146.2,442.6z"/>
			
				<linearGradient id="SVGID_11_" gradientUnits="userSpaceOnUse" x1="164.6113" y1="421.0873" x2="104.3987" y2="572.8232" gradientTransform="matrix(0.925 0.3523 -0.1613 0.7034 77.0321 72.6299)">
				<stop  offset="0" style="stop-color:#FBECEA"/>
				<stop  offset="1" style="stop-color:#E1D9E3"/>
			</linearGradient>
			<path class="st10" d="M172.8,411.4c-2.2-0.5-3.3,2.4-2.8,5.1c0.4,2.7,3.1,3.8,4.5,0.6C175.8,413.9,174.2,411.7,172.8,411.4z"/>
			
				<linearGradient id="SVGID_12_" gradientUnits="userSpaceOnUse" x1="191.0831" y1="408.0341" x2="153.4383" y2="502.8988" gradientTransform="matrix(0.925 0.3523 -0.1613 0.7034 77.0321 72.6299)">
				<stop  offset="0" style="stop-color:#FBECEA"/>
				<stop  offset="1" style="stop-color:#E1D9E3"/>
			</linearGradient>
			<path class="st11" d="M195.1,417.3c-1.4-0.3-2,1.5-1.8,3.2s2,2.4,2.8,0.4C197,418.9,196,417.5,195.1,417.3z"/>
			<linearGradient id="SVGID_13_" gradientUnits="userSpaceOnUse" x1="198.9849" y1="448.121" x2="148.9849" y2="574.121">
				<stop  offset="0" style="stop-color:#FBECEA"/>
				<stop  offset="1" style="stop-color:#E1D9E3"/>
			</linearGradient>
			<path class="st12" d="M203.8,434.2c-1.9-0.2-3.3,3.1-3.3,6s2.3,3.7,4,0C206.3,436.4,205,434.3,203.8,434.2z"/>
			
				<linearGradient id="SVGID_14_" gradientUnits="userSpaceOnUse" x1="226.0477" y1="450.1642" x2="189.9022" y2="541.2508" gradientTransform="matrix(0.6493 0.5927 -0.3505 0.7893 240.3079 -24.9314)">
				<stop  offset="0" style="stop-color:#FBECEA"/>
				<stop  offset="1" style="stop-color:#E1D9E3"/>
			</linearGradient>
			<path class="st13" d="M226.3,467.4c-0.7-1.2-2.4-0.4-3.5,0.8c-1,1.3-0.4,2.9,1.6,2.2C226.5,469.7,226.8,468.1,226.3,467.4z"/>
			
				<linearGradient id="SVGID_15_" gradientUnits="userSpaceOnUse" x1="107.1287" y1="557.1127" x2="70.9832" y2="648.1993" gradientTransform="matrix(0.6416 -0.6011 0.7596 0.411 -364.894 289.9208)">
				<stop  offset="0" style="stop-color:#FBECEA"/>
				<stop  offset="1" style="stop-color:#E1D9E3"/>
			</linearGradient>
			<path class="st14" d="M129.8,457.7c-1.2,0.6-0.6,2.4,0.5,3.5c1.2,1.1,2.9,0.6,2.4-1.4C132.1,457.7,130.5,457.3,129.8,457.7z"/>
			
				<linearGradient id="SVGID_16_" gradientUnits="userSpaceOnUse" x1="160.2569" y1="529.052" x2="124.1114" y2="620.1385" gradientTransform="matrix(0.8748 -8.785062e-002 0.3537 0.7879 -178.8736 20.9353)">
				<stop  offset="0" style="stop-color:#FBECEA"/>
				<stop  offset="1" style="stop-color:#E1D9E3"/>
			</linearGradient>
			<path class="st15" d="M148.7,427.9c-1.3-0.3-2,1.5-1.7,3.1c0.3,1.6,1.9,2.3,2.7,0.3C150.6,429.4,149.6,428.1,148.7,427.9z"/>
			
				<linearGradient id="SVGID_17_" gradientUnits="userSpaceOnUse" x1="234.5609" y1="571.6893" x2="198.4155" y2="662.7759" gradientTransform="matrix(0.605 0.6379 -0.4064 0.762 333.0054 -113.7984)">
				<stop  offset="0" style="stop-color:#FBECEA"/>
				<stop  offset="1" style="stop-color:#E1D9E3"/>
			</linearGradient>
			<path class="st16" d="M239.4,474.3c-0.6-1.2-2.4-0.6-3.5,0.6s-0.6,2.9,1.4,2.3C239.4,476.6,239.8,475,239.4,474.3z"/>
			
				<linearGradient id="SVGID_18_" gradientUnits="userSpaceOnUse" x1="129.4804" y1="582.7781" x2="79.4804" y2="708.7781" gradientTransform="matrix(0.6492 -0.5929 0.7542 0.4207 -396.7865 314.8733)">
				<stop  offset="0" style="stop-color:#FBECEA"/>
				<stop  offset="1" style="stop-color:#E1D9E3"/>
			</linearGradient>
			<path class="st17" d="M130.6,487.7c-1.7,0.8-0.9,3.3,0.7,4.9c1.6,1.6,4,0.9,3.3-1.9S131.7,487.2,130.6,487.7z"/>
		</g>
	</g>
</g>
<g id="CLOUD_2">
	<g>
		<linearGradient id="SVGID_19_" gradientUnits="userSpaceOnUse" x1="103.2558" y1="148.1981" x2="200.0575" y2="148.1981">
			<stop  offset="0" style="stop-color:#E0EDF3"/>
			<stop  offset="1" style="stop-color:#FAF1F1"/>
		</linearGradient>
		<path class="st18" d="M200.1,164.4l-33.3-7.9c0,0,8-7.1,3.7-11.2c-4.3-4.1-12.8,2.2-12.8,2.2s9.6-10,3.7-14.7
			c-5.9-4.6-17.9,9.1-17.9,9.1s2.5-4.8-3.6-5.4c-6-0.6-7.7,11.6-7.7,11.6s-3.4-4.5-10.9-1.7c-7.5,2.8-2.3,11-2.3,11l-15.7,6.9H200.1
			z"/>
	</g>
</g>
<g id="ORNAMENT_1">
	<g>
		<circle class="st19" cx="198.2" cy="298.3" r="4.3"/>
		<circle class="st19" cx="298.3" cy="307" r="4.2"/>
		<circle class="st19" cx="224.3" cy="291.6" r="2.5"/>
		<circle class="st19" cx="430.6" cy="253.6" r="4"/>
		<circle class="st19" cx="443.7" cy="259.4" r="1.4"/>
		<circle class="st19" cx="433.2" cy="212.8" r="1.4"/>
		<circle class="st19" cx="438.4" cy="206" r="2.4"/>
		<circle class="st19" cx="448" cy="245.1" r="7"/>
		<circle class="st19" cx="428.3" cy="122.5" r="1.6"/>
		<circle class="st19" cx="412.8" cy="121.9" r="3.3"/>
		<circle class="st19" cx="430.6" cy="91.7" r="3.3"/>
		<circle class="st19" cx="361.5" cy="97.8" r="1.7"/>
		<circle class="st19" cx="345.8" cy="93.7" r="4.2"/>
		<circle class="st19" cx="175.3" cy="97.7" r="2.5"/>
		<circle class="st19" cx="156.3" cy="86.8" r="6"/>
	</g>
</g>
<g id="ORNAMENT_2">
	<g>
		<path class="st20" d="M286.9,98.1c-2.9,0-5.2,2.3-5.2,5.2c0-2.9-2.3-5.2-5.2-5.2c2.9,0,5.2-2.3,5.2-5.2
			C281.7,95.8,284,98.1,286.9,98.1z"/>
		<path class="st20" d="M270.3,84.9c-1.7,0-3.1,1.4-3.1,3.1c0-1.7-1.4-3.1-3.1-3.1c1.7,0,3.1-1.4,3.1-3.1
			C267.1,83.5,268.5,84.9,270.3,84.9z"/>
		<path class="st20" d="M402.6,89.6c-5.9,0-10.6,4.7-10.6,10.6c0-5.9-4.7-10.6-10.6-10.6c5.9,0,10.6-4.7,10.6-10.6
			C392,84.8,396.7,89.6,402.6,89.6z"/>
		<path class="st20" d="M427.6,192.4c-3,0-5.4,2.4-5.4,5.4c0-3-2.4-5.4-5.4-5.4c3,0,5.4-2.4,5.4-5.4
			C422.2,190,424.6,192.4,427.6,192.4z"/>
		<path class="st20" d="M258.3,303.8c-3.6,0-6.5,2.9-6.5,6.5c0-3.6-2.9-6.5-6.5-6.5c3.6,0,6.5-2.9,6.5-6.5
			C251.8,300.9,254.7,303.8,258.3,303.8z"/>
		<path class="st20" d="M278.5,292.3c-2.3,0-4.2,1.9-4.2,4.2c0-2.3-1.9-4.2-4.2-4.2c2.3,0,4.2-1.9,4.2-4.2
			C274.3,290.4,276.2,292.3,278.5,292.3z"/>
		<path class="st20" d="M136.1,252.2c-2,0-3.6,1.6-3.6,3.6c0-2-1.6-3.6-3.6-3.6c2,0,3.6-1.6,3.6-3.6
			C132.5,250.5,134.1,252.2,136.1,252.2z"/>
		<path class="st20" d="M98.6,169.6c-4,0-7.3,3.3-7.3,7.3c0-4-3.3-7.3-7.3-7.3c4,0,7.3-3.3,7.3-7.3
			C91.3,166.4,94.6,169.6,98.6,169.6z"/>
		<path class="st20" d="M109.9,156.9c-2.2,0-4,1.8-4,4c0-2.2-1.8-4-4-4c2.2,0,4-1.8,4-4C105.9,155.1,107.7,156.9,109.9,156.9z"/>
		<path class="st20" d="M144.6,97c-3,0-5.4,2.4-5.4,5.4c0-3-2.4-5.4-5.4-5.4c3,0,5.4-2.4,5.4-5.4C139.1,94.5,141.6,97,144.6,97z"/>
	</g>
</g>
<g id="ROUND_1">
	<linearGradient id="SVGID_20_" gradientUnits="userSpaceOnUse" x1="325.6895" y1="88.3091" x2="290.6895" y2="206.8091">
		<stop  offset="0.1179" style="stop-color:#EE5A77"/>
		<stop  offset="1" style="stop-color:#801C56"/>
	</linearGradient>
	<circle class="st21" cx="320.1" cy="107.3" r="17.9"/>
</g>
<g id="ROUND_2">
	<linearGradient id="SVGID_21_" gradientUnits="userSpaceOnUse" x1="118.9786" y1="181.1516" x2="210.9786" y2="316.1516">
		<stop  offset="0.1385" style="stop-color:#F7B142"/>
		<stop  offset="1" style="stop-color:#EF794A"/>
	</linearGradient>
	<circle class="st22" cx="135.1" cy="204.7" r="34.9"/>
</g>
<g id="SCREEN_1">
	<g>
		<linearGradient id="SVGID_22_" gradientUnits="userSpaceOnUse" x1="265.8776" y1="111" x2="265.8776" y2="338.1783">
			<stop  offset="0" style="stop-color:#E0EDF3"/>
			<stop  offset="1" style="stop-color:#D1E2EE"/>
		</linearGradient>
		<path class="st23" d="M385.1,280.7H146.6c-3.6,0-6.5-2.9-6.5-6.5V114.2c0-3.6,2.9-6.5,6.5-6.5h238.5c3.6,0,6.5,2.9,6.5,6.5v159.9
			C391.7,277.8,388.8,280.7,385.1,280.7z"/>
		<linearGradient id="SVGID_23_" gradientUnits="userSpaceOnUse" x1="265.8776" y1="304.6667" x2="265.8776" y2="212.5309">
			<stop  offset="0" style="stop-color:#E0EDF3"/>
			<stop  offset="1" style="stop-color:#FAF1F1"/>
		</linearGradient>
		<path class="st24" d="M378.9,274.5h-226c-2.9,0-5.2-2.3-5.2-5.2V119.1c0-2.9,2.3-5.2,5.2-5.2h226c2.9,0,5.2,2.3,5.2,5.2v150.1
			C384.1,272.1,381.8,274.5,378.9,274.5z"/>
	</g>
</g>
<g id="SCREEN_2">
	<g>
		<g>
			<linearGradient id="SVGID_24_" gradientUnits="userSpaceOnUse" x1="265.2253" y1="155.1447" x2="268.2862" y2="337.653">
				<stop  offset="0" style="stop-color:#E0EDF3"/>
				<stop  offset="1" style="stop-color:#D1E2EE"/>
			</linearGradient>
			<path class="st25" d="M379.7,121.6v145.2c0,2.6-2.1,4.7-4.7,4.7H156.8c-2.6,0-4.7-2.1-4.7-4.7V121.6c0-2.6,2.1-4.7,4.7-4.7H375
				C377.6,116.9,379.7,119,379.7,121.6z"/>
			<g>
				<linearGradient id="SVGID_25_" gradientUnits="userSpaceOnUse" x1="368.1729" y1="307.794" x2="330.5062" y2="259.4607">
					<stop  offset="0" style="stop-color:#E0EDF3"/>
					<stop  offset="1" style="stop-color:#D1E2EE"/>
				</linearGradient>
				<path class="st26" d="M379.7,185.7v81.1c0,2.6-2.1,4.7-4.7,4.7H233.2c-1.4-3.6-1.7-7.3,0.1-10.8c6-11.3,26-14,41-7.3
					c15,6.7,13.1-4.8,25-21.3c11-15.3,27.7-3,38.7-10.3c11-7.3,1-10,9.3-27.3C353.1,182.4,369.8,183.7,379.7,185.7z"/>
				<linearGradient id="SVGID_26_" gradientUnits="userSpaceOnUse" x1="318.5977" y1="238.8766" x2="376.2643" y2="346.21">
					<stop  offset="0" style="stop-color:#E0EDF3"/>
					<stop  offset="1" style="stop-color:#D1E2EE"/>
				</linearGradient>
				<path class="st27" d="M379.7,197.6v69.2c0,2.6-2.1,4.7-4.7,4.7H252.8c7.1-9.8,25.7-11.8,39.8-5.5c15,6.7,13.1-4.8,25-21.3
					c11-15.3,27.7-3,38.7-10.3c11-7.3,1-10,9.3-27.3C368.5,201.2,373.8,198.6,379.7,197.6z"/>
				<linearGradient id="SVGID_27_" gradientUnits="userSpaceOnUse" x1="232.2857" y1="164.1811" x2="296.2857" y2="228.8478">
					<stop  offset="0" style="stop-color:#E0EDF3"/>
					<stop  offset="1" style="stop-color:#D1E2EE"/>
				</linearGradient>
				<path class="st28" d="M323,116.9c-1.6,5.5-8,12.7-22.7,16.8c-11.9,3.3-35.3-7-42,7c-6.7,14-11.7,27.7-26.7,28.7s-25-7-31.7,3
					c-11.1,16.7,2,23.3-15.7,39.7c-6.3,5.8-19.7,10.3-32.3,10.1V121.6c0-2.6,2.1-4.7,4.7-4.7H323z"/>
				<linearGradient id="SVGID_28_" gradientUnits="userSpaceOnUse" x1="169.2398" y1="91.2688" x2="235.5732" y2="175.9355">
					<stop  offset="0" style="stop-color:#E0EDF3"/>
					<stop  offset="1" style="stop-color:#D1E2EE"/>
				</linearGradient>
				<path class="st29" d="M298.4,116.9c-3.1,1.8-7,3.5-11.8,4.8c-11.9,3.3-35.3-7-42,7c-6.7,14-11.7,27.7-26.7,28.7s-25-7-31.7,3
					c-11.1,16.7,2,23.3-15.7,39.7c-4,3.7-10.9,6.8-18.6,8.6v-87c0-2.6,2.1-4.7,4.7-4.7H298.4z"/>
			</g>
		</g>
		<g>
			<path class="st30" d="M379.7,121.6v7.4H152v-7.4c0-2.6,2.1-4.7,4.7-4.7H375C377.6,116.9,379.7,119,379.7,121.6z"/>
			<g>
				<circle class="st31" cx="351.2" cy="123.2" r="2.4"/>
				<circle class="st31" cx="358.4" cy="123.2" r="2.4"/>
				<circle class="st31" cx="365.5" cy="123.2" r="2.4"/>
			</g>
		</g>
	</g>
</g>
<g id="DASHBOARD">
	<g>
		<g>
			<g>
				<path class="st30" d="M363.7,141.6h-6.8c-2.1,0-3.8-1.7-3.8-3.8l0,0c0-2.1,1.7-3.8,3.8-3.8h6.8c2.1,0,3.8,1.7,3.8,3.8l0,0
					C367.5,139.9,365.8,141.6,363.7,141.6z"/>
				<path class="st30" d="M346.2,141.6h-6.8c-2.1,0-3.8-1.7-3.8-3.8l0,0c0-2.1,1.7-3.8,3.8-3.8h6.8c2.1,0,3.8,1.7,3.8,3.8l0,0
					C350,139.9,348.3,141.6,346.2,141.6z"/>
			</g>
			<linearGradient id="SVGID_29_" gradientUnits="userSpaceOnUse" x1="175.9384" y1="120.8041" x2="190.2718" y2="181.8041">
				<stop  offset="0" style="stop-color:#FFFFFF"/>
				<stop  offset="1" style="stop-color:#E3EDF5"/>
			</linearGradient>
			<path class="st32" d="M192.7,141.6h-25.5c-2.1,0-3.8-1.7-3.8-3.8l0,0c0-2.1,1.7-3.8,3.8-3.8h25.5c2.1,0,3.8,1.7,3.8,3.8l0,0
				C196.5,139.9,194.8,141.6,192.7,141.6z"/>
		</g>
		<g>
			<path class="st30" d="M360.4,163.1H170.5c-3.9,0-7.1-3.2-7.1-7.1v0c0-3.9,3.2-7.1,7.1-7.1h189.9c3.9,0,7.1,3.2,7.1,7.1v0
				C367.5,159.9,364.3,163.1,360.4,163.1z"/>
			<linearGradient id="SVGID_30_" gradientUnits="userSpaceOnUse" x1="265.4255" y1="138.5" x2="265.4255" y2="230.5869">
				<stop  offset="0" style="stop-color:#FFFFFF"/>
				<stop  offset="1" style="stop-color:#E3EDF5"/>
			</linearGradient>
			<path class="st33" d="M360.4,161.5H170.5c-3.9,0-7.1-3.2-7.1-7.1v0c0-3.9,3.2-7.1,7.1-7.1h189.9c3.9,0,7.1,3.2,7.1,7.1v0
				C367.5,158.3,364.3,161.5,360.4,161.5z"/>
			<g>
				<g>
					<path class="st30" d="M182.4,156.6h-10.6c-1.1,0-2-0.9-2-2v-0.2c0-1.1,0.9-2,2-2h10.6c1.1,0,2,0.9,2,2v0.2
						C184.4,155.7,183.5,156.6,182.4,156.6z"/>
					<path class="st30" d="M202.6,156.6H192c-1.1,0-2-0.9-2-2v-0.2c0-1.1,0.9-2,2-2h10.6c1.1,0,2,0.9,2,2v0.2
						C204.6,155.7,203.7,156.6,202.6,156.6z"/>
					<path class="st30" d="M222.8,156.6h-10.6c-1.1,0-2-0.9-2-2v-0.2c0-1.1,0.9-2,2-2h10.6c1.1,0,2,0.9,2,2v0.2
						C224.8,155.7,223.9,156.6,222.8,156.6z"/>
				</g>
				<path class="st30" d="M360.3,156.6h-20.8c-1.1,0-2.1-0.9-2.1-2.1l0,0c0-1.1,0.9-2.1,2.1-2.1h20.8c1.1,0,2.1,0.9,2.1,2.1l0,0
					C362.3,155.7,361.4,156.6,360.3,156.6z"/>
			</g>
		</g>
		<g>
			<path class="st30" d="M215.3,177.1v57.5c0,3.4-2.7,6.1-6.1,6.1h-40.1c-3.4,0-6.1-2.7-6.1-6.1v-57.5c0-3.4,2.7-6.1,6.1-6.1h40.1
				C212.6,171,215.3,173.7,215.3,177.1z"/>
			<linearGradient id="SVGID_31_" gradientUnits="userSpaceOnUse" x1="196.2391" y1="172.2865" x2="172.7391" y2="278.2865">
				<stop  offset="0" style="stop-color:#FFFFFF"/>
				<stop  offset="1" style="stop-color:#E3EDF5"/>
			</linearGradient>
			<path class="st34" d="M215.3,175.5V233c0,3.4-2.7,6.1-6.1,6.1h-40.1c-3.4,0-6.1-2.7-6.1-6.1v-57.5c0-3.4,2.7-6.1,6.1-6.1h40.1
				C212.6,169.4,215.3,172.1,215.3,175.5z"/>
			<linearGradient id="SVGID_32_" gradientUnits="userSpaceOnUse" x1="203.0155" y1="161.2158" x2="126.3489" y2="299.8823">
				<stop  offset="0.1179" style="stop-color:#EE5A77"/>
				<stop  offset="1" style="stop-color:#801C56"/>
			</linearGradient>
			<path class="st35" d="M215.3,175.5v23.2H163v-23.2c0-1.5,0.5-2.8,1.4-3.9c1.1-1.4,2.8-2.2,4.7-2.2h40.1
				C212.5,169.4,215.3,172.1,215.3,175.5z"/>
			<linearGradient id="SVGID_33_" gradientUnits="userSpaceOnUse" x1="191.5869" y1="180.2949" x2="147.6004" y2="259.8532">
				<stop  offset="0.1179" style="stop-color:#EE5A77"/>
				<stop  offset="1" style="stop-color:#801C56"/>
			</linearGradient>
			<path class="st36" d="M213.5,198.7H163v-23.2c0-1.5,0.5-2.8,1.4-3.9c5.5,0,12.5,1.1,12.6,7.2c0.2,10,7.2,12.7,15.3,11.3
				c8.2-1.3,19,0.2,20.8,7.2C213.3,197.8,213.4,198.3,213.5,198.7z"/>
			<linearGradient id="SVGID_34_" gradientUnits="userSpaceOnUse" x1="197.8949" y1="175.828" x2="142.7699" y2="226.328">
				<stop  offset="0.1179" style="stop-color:#EE5A77"/>
				<stop  offset="1" style="stop-color:#801C56"/>
			</linearGradient>
			<path class="st37" d="M206.5,198.7H163v-21.6c4.8,0.4,9.8,2,9.9,7.1c0.2,10,7.2,12.7,15.3,11.3
				C194.5,194.5,202.4,195.1,206.5,198.7z"/>
			<linearGradient id="SVGID_35_" gradientUnits="userSpaceOnUse" x1="180.3995" y1="183.6411" x2="197.8955" y2="183.6411">
				<stop  offset="0" style="stop-color:#FFFFFF"/>
				<stop  offset="1" style="stop-color:#E3EDF5"/>
			</linearGradient>
			<circle class="st38" cx="189.1" cy="183.6" r="8.7"/>
			<g>
				<path class="st30" d="M190.7,211.8h-19.3c-1.3,0-2.4-1.1-2.4-2.4l0,0c0-1.3,1.1-2.4,2.4-2.4h19.3c1.3,0,2.4,1.1,2.4,2.4l0,0
					C193.1,210.7,192.1,211.8,190.7,211.8z"/>
				<path class="st30" d="M190.7,226.4h-19.3c-1.3,0-2.4-1.1-2.4-2.4l0,0c0-1.3,1.1-2.4,2.4-2.4h19.3c1.3,0,2.4,1.1,2.4,2.4l0,0
					C193.1,225.3,192.1,226.4,190.7,226.4z"/>
				<circle class="st30" cx="204.3" cy="209.4" r="3.3"/>
				<circle class="st30" cx="204.3" cy="224" r="3.3"/>
			</g>
		</g>
		<g>
			<linearGradient id="SVGID_36_" gradientUnits="userSpaceOnUse" x1="192.0526" y1="215.4707" x2="181.386" y2="389.4707">
				<stop  offset="0.1385" style="stop-color:#F7B142"/>
				<stop  offset="1" style="stop-color:#EF794A"/>
			</linearGradient>
			<path class="st39" d="M215.3,254.4v17.1H163v-17.1c0-3.4,2.7-6.1,6.1-6.1h40.1C212.6,248.3,215.3,251.1,215.3,254.4z"/>
			<linearGradient id="SVGID_37_" gradientUnits="userSpaceOnUse" x1="203.5818" y1="241.2784" x2="203.5818" y2="281.7017">
				<stop  offset="0" style="stop-color:#FFFFFF"/>
				<stop  offset="1" style="stop-color:#E3EDF5"/>
			</linearGradient>
			<path class="st40" d="M208.4,267.8h-9.7c-1.1,0-2.1-0.9-2.1-2.1V256c0-1.1,0.9-2.1,2.1-2.1h9.7c1.1,0,2.1,0.9,2.1,2.1v9.7
				C210.5,266.9,209.6,267.8,208.4,267.8z"/>
		</g>
		<g>
			<path class="st30" d="M293.3,222.2h-63.5c-2.7,0-5-2.2-5-5v-41.4c0-2.7,2.2-5,5-5h63.5c2.7,0,5,2.2,5,5v41.4
				C298.3,220,296.1,222.2,293.3,222.2z"/>
			<linearGradient id="SVGID_38_" gradientUnits="userSpaceOnUse" x1="304.8981" y1="132.0256" x2="180.8981" y2="312.5256">
				<stop  offset="0" style="stop-color:#FFFFFF"/>
				<stop  offset="1" style="stop-color:#E3EDF5"/>
			</linearGradient>
			<path class="st41" d="M293.3,220.8h-63.5c-2.7,0-5-2.2-5-5v-41.4c0-2.7,2.2-5,5-5h63.5c2.7,0,5,2.2,5,5v41.4
				C298.3,218.5,296.1,220.8,293.3,220.8z"/>
			<g>
				<path class="st30" d="M244.3,191.6h-10.7c-0.9,0-1.7-0.7-1.7-1.7v-10.7c0-0.9,0.7-1.7,1.7-1.7h10.7c0.9,0,1.7,0.7,1.7,1.7v10.7
					C246,190.9,245.2,191.6,244.3,191.6z"/>
				<g>
					<path class="st30" d="M281.9,182.9h-27.2c-0.7,0-1.3-0.6-1.3-1.3l0,0c0-0.7,0.6-1.3,1.3-1.3h27.2c0.7,0,1.3,0.6,1.3,1.3l0,0
						C283.3,182.3,282.7,182.9,281.9,182.9z"/>
					<path class="st30" d="M274.2,189h-19.4c-0.7,0-1.3-0.6-1.3-1.3l0,0c0-0.7,0.6-1.3,1.3-1.3h19.4c0.7,0,1.3,0.6,1.3,1.3l0,0
						C275.5,188.4,274.9,189,274.2,189z"/>
				</g>
				<path class="st30" d="M244.3,213h-10.7c-0.9,0-1.7-0.7-1.7-1.7v-10.7c0-0.9,0.7-1.7,1.7-1.7h10.7c0.9,0,1.7,0.7,1.7,1.7v10.7
					C246,212.2,245.2,213,244.3,213z"/>
				<g>
					<path class="st30" d="M281.9,204.3h-27.2c-0.7,0-1.3-0.6-1.3-1.3v0c0-0.7,0.6-1.3,1.3-1.3h27.2c0.7,0,1.3,0.6,1.3,1.3v0
						C283.3,203.7,282.7,204.3,281.9,204.3z"/>
					<path class="st30" d="M274.2,210.4h-19.4c-0.7,0-1.3-0.6-1.3-1.3l0,0c0-0.7,0.6-1.3,1.3-1.3h19.4c0.7,0,1.3,0.6,1.3,1.3l0,0
						C275.5,209.8,274.9,210.4,274.2,210.4z"/>
				</g>
			</g>
		</g>
		<g>
			<path class="st30" d="M363.1,222.2h-57.4c-2.7,0-5-2.2-5-5v-41.4c0-2.7,2.2-5,5-5h57.4c2.7,0,5,2.2,5,5v41.4
				C368.1,220,365.8,222.2,363.1,222.2z"/>
			<path class="st30" d="M363.1,220.8h-57.4c-2.7,0-5-2.2-5-5v-41.4c0-2.7,2.2-5,5-5h57.4c2.7,0,5,2.2,5,5v41.4
				C368.1,218.5,365.8,220.8,363.1,220.8z"/>
			<g>
				<path class="st31" d="M357.4,217.5v-0.8h3l0,0.5l0,0.2H357.4z M354.5,217.5h-3v-0.8h3V217.5z M348.6,217.5h-3v-0.8h3V217.5z
					 M342.7,217.5h-3v-0.8h3V217.5z M336.7,217.5h-3v-0.8h3V217.5z M330.8,217.5h-3v-0.8h3V217.5z M324.9,217.5h-3v-0.8h3V217.5z
					 M319,217.5h-3v-0.8h3V217.5z M313.1,217.5h-3v-0.8h3V217.5z M307.1,217.3c-1-0.3-1.9-1-2.5-2l0.7-0.4c0.4,0.8,1.2,1.4,2,1.6
					L307.1,217.3z M363.4,216.3l-0.5-0.5c0.7-0.6,1-1.5,1.1-2.4l0.8,0C364.6,214.5,364.2,215.5,363.4,216.3z M304.8,212.3h-0.8v-3
					h0.8V212.3z M364.7,210.4h-0.8v-3h0.8V210.4z M304.8,206.4h-0.8v-3h0.8V206.4z M364.7,204.5h-0.8v-3h0.8V204.5z M304.8,200.4
					h-0.8v-3h0.8V200.4z M364.7,198.6h-0.8v-3h0.8V198.6z M304.8,194.5h-0.8v-3h0.8V194.5z M364.7,192.7h-0.8v-3h0.8V192.7z
					 M304.8,188.6h-0.8v-3h0.8V188.6z M364.7,186.8h-0.8v-3h0.8V186.8z M304.8,182.7h-0.8v-3h0.8V182.7z M364.7,180.9h-0.8v-3h0.8
					V180.9z M304.8,176.8l-0.8,0c0.1-1.1,0.5-2.1,1.3-2.9l0.5,0.5C305.2,175,304.9,175.9,304.8,176.8z M363.5,175.2
					c-0.5-0.8-1.2-1.4-2-1.6l0.2-0.7c1.1,0.3,1.9,1,2.5,2L363.5,175.2z M358.6,173.4h-3v-0.8h3V173.4z M352.7,173.4h-3v-0.8h3V173.4
					z M346.8,173.4h-3v-0.8h3V173.4z M340.8,173.4h-3v-0.8h3V173.4z M334.9,173.4h-3v-0.8h3V173.4z M329,173.4h-3v-0.8h3V173.4z
					 M323.1,173.4h-3v-0.8h3V173.4z M317.2,173.4h-3v-0.8h3V173.4z M311.3,173.4h-2.9l0-0.8h3V173.4z"/>
			</g>
		</g>
		<g>
			<linearGradient id="SVGID_39_" gradientUnits="userSpaceOnUse" x1="284.3521" y1="243.0757" x2="201.9552" y2="175.1098">
				<stop  offset="0" style="stop-color:#FFFFFF"/>
				<stop  offset="1" style="stop-color:#E3EDF5"/>
			</linearGradient>
			<path class="st42" d="M367.5,238.9v32.6H224.8v-32.6c0-5.5,4.5-10,10-10h122.5C363,228.8,367.5,233.3,367.5,238.9z"/>
			<g>
				<path class="st43" d="M267.8,248.3h-30.6c-1.5,0-2.7-1.2-2.7-2.7l0,0c0-1.5,1.2-2.7,2.7-2.7h30.6c1.5,0,2.7,1.2,2.7,2.7l0,0
					C270.5,247.1,269.3,248.3,267.8,248.3z"/>
				<path class="st43" d="M267.8,257.5h-30.6c-1.5,0-2.7-1.2-2.7-2.7l0,0c0-1.5,1.2-2.7,2.7-2.7h30.6c1.5,0,2.7,1.2,2.7,2.7l0,0
					C270.5,256.3,269.3,257.5,267.8,257.5z"/>
				<path class="st43" d="M267.8,266.7h-30.6c-1.5,0-2.7-1.2-2.7-2.7l0,0c0-1.5,1.2-2.7,2.7-2.7h30.6c1.5,0,2.7,1.2,2.7,2.7l0,0
					C270.5,265.5,269.3,266.7,267.8,266.7z"/>
			</g>
			<linearGradient id="SVGID_40_" gradientUnits="userSpaceOnUse" x1="266.2664" y1="222.7939" x2="370.933" y2="276.1273">
				<stop  offset="0" style="stop-color:#FFFFFF"/>
				<stop  offset="1" style="stop-color:#E3EDF5"/>
			</linearGradient>
			<path class="st44" d="M367.5,238.9v32.6h-87.4c13.8-4.3,22.7-8.6,17.2-21.8c-4.6-11.1,0.5-17.3,8.1-20.9h52.1
				C363,228.8,367.5,233.3,367.5,238.9z"/>
			<linearGradient id="SVGID_41_" gradientUnits="userSpaceOnUse" x1="248.9779" y1="204.5945" x2="317.9779" y2="238.9278">
				<stop  offset="0" style="stop-color:#FFFFFF"/>
				<stop  offset="1" style="stop-color:#E3EDF5"/>
			</linearGradient>
			<path class="st45" d="M367.5,238.9v32.6h-46.2c6.7-4.8,9.3-10.3,3.7-18.9c-7.3-11.5-1.2-19.1,7.4-23.8h25
				C363,228.8,367.5,233.3,367.5,238.9z"/>
			<g>
				<rect x="286" y="243" class="st30" width="11.3" height="23.7"/>
				<rect x="302.7" y="250.7" class="st30" width="11.3" height="16"/>
				<rect x="319.3" y="243" class="st30" width="11.3" height="23.7"/>
				<rect x="336" y="251" class="st30" width="11.3" height="15.7"/>
			</g>
		</g>
	</g>
</g>
<g id="RIGHT_LEG_1">
	<g>
		<g>
			<linearGradient id="SVGID_42_" gradientUnits="userSpaceOnUse" x1="335.1042" y1="340.6833" x2="366.7709" y2="475.6833">
				<stop  offset="0" style="stop-color:#0F445A"/>
				<stop  offset="1" style="stop-color:#013031"/>
			</linearGradient>
			<path class="st46" d="M365.9,358.9c-2.2,3.9-5.3,7.8-9.6,11.5c-1.4,1.2-2.8,2.4-4.1,3.5c-0.7,0.6-1.3,1.1-2,1.6
				c-0.7,0.5-1.3,1.1-2,1.6c-0.6,0.5-1.2,1-1.9,1.4c-0.7,0.5-1.3,1-2,1.5c-0.6,0.4-1.2,0.9-1.8,1.3c-0.6,0.4-1.2,0.8-1.8,1.3
				c-0.6,0.4-1.2,0.8-1.7,1.2c-0.6,0.4-1.2,0.8-1.8,1.1c-0.4,0.2-0.7,0.4-1.1,0.6c-1.7,1-3.2,1.9-4.7,2.7c-0.2,0.1-0.3,0.2-0.5,0.3
				c-0.4,0.2-0.8,0.4-1.1,0.5c-0.1,0-0.1,0.1-0.2,0.1c-0.5,0.2-0.9,0.4-1.4,0.6c-2,0.8-3.7,1.3-5.2,1.6c-7,1.1-15.5-2.7-14.1-11.8
				c1.4-9,7.6-18.2,15.6-29.3c4.5-6.2,9.3-12.3,13.8-17.1c3.5-3.8,6.7-6.8,9.4-8.7c5.6-3.8,11.4-5.9,16.6,0c0.6,0.7,1.3,1.5,1.9,2.4
				c1.2,1.8,2.2,4,2.9,6.6v0c0.2,0.7,0.4,1.5,0.6,2.3c0.1,0.5,0.2,1,0.3,1.6C371.2,343.6,370.3,351.3,365.9,358.9z"/>
			<linearGradient id="SVGID_43_" gradientUnits="userSpaceOnUse" x1="340.7304" y1="352.4946" x2="366.3971" y2="372.6613">
				<stop  offset="0" style="stop-color:#0F445A"/>
				<stop  offset="1" style="stop-color:#013031"/>
			</linearGradient>
			<path class="st47" d="M365.9,358.9c-2.2,3.9-5.3,7.8-9.6,11.5c-1.4,1.2-2.8,2.4-4.1,3.5c-0.7,0.6-1.3,1.1-2,1.6
				c-0.7,0.5-1.3,1.1-2,1.6c-0.6,0.5-1.2,1-1.9,1.4c-0.7,0.5-1.3,1-2,1.5c-0.6,0.4-1.2,0.9-1.8,1.3c-0.6,0.4-1.2,0.8-1.8,1.3
				c-0.6,0.4-1.2,0.8-1.7,1.2c-0.6,0.4-1.2,0.8-1.8,1.1c-0.4,0.2-0.7,0.4-1.1,0.6c-1.7,1-3.2,1.9-4.7,2.7c-0.2,0.1-0.3,0.2-0.5,0.3
				c-0.4,0.2-0.8,0.4-1.1,0.5c-0.1,0-0.1,0.1-0.2,0.1c-0.5,0.2-0.9,0.4-1.4,0.6c0-3.2,1.8-8.5,9.6-19.3c4.6-6.4,9.4-14.1,13.7-21.6
				c5.6-9.9,10.4-19.3,12.9-24.4c0.6,0.7,1.3,1.5,1.9,2.4c1.2,1.8,2.2,4,2.9,6.6v0c0.2,0.7,0.4,1.5,0.6,2.3c0.1,0.5,0.2,1,0.3,1.6
				C371.2,343.6,370.3,351.3,365.9,358.9z"/>
			<linearGradient id="SVGID_44_" gradientUnits="userSpaceOnUse" x1="370.905" y1="379.6375" x2="330.5717" y2="342.4708">
				<stop  offset="0" style="stop-color:#0F445A"/>
				<stop  offset="1" style="stop-color:#013031"/>
			</linearGradient>
			<path class="st48" d="M365.9,358.9c-2.2,3.9-5.3,7.8-9.6,11.5c-1.4,1.2-2.8,2.4-4.1,3.5c-0.7,0.6-1.3,1.1-2,1.6
				c-0.7,0.5-1.3,1.1-2,1.6c-0.6,0.5-1.2,1-1.9,1.4c-0.7,0.5-1.3,1-2,1.5c-0.6,0.4-1.2,0.9-1.8,1.3c-0.6,0.4-1.2,0.8-1.8,1.3
				c-0.6,0.4-1.2,0.8-1.7,1.2c-0.6,0.4-1.2,0.8-1.8,1.1c-0.4,0.2-0.7,0.4-1.1,0.6c-1.7,1-3.2,1.9-4.7,2.7c1.1-3.3,3.9-7.9,9.8-14.2
				c6.7-7.2,12.1-14.2,16.4-20.4c6.2-9,9.9-16.3,11.8-20.2c0.2,0.7,0.4,1.5,0.6,2.3c0.1,0.5,0.2,1,0.3,1.6
				C371.2,343.6,370.3,351.3,365.9,358.9z"/>
			<linearGradient id="SVGID_45_" gradientUnits="userSpaceOnUse" x1="310.2103" y1="339.1979" x2="328.2217" y2="356.822">
				<stop  offset="0" style="stop-color:#3F93B0"/>
				<stop  offset="1" style="stop-color:#1A576A"/>
			</linearGradient>
			<path class="st49" d="M338.1,334c-0.6,0.4-9.7,18.6-16.1,29.5c-4.5,7.7-12.5,12.5-10.3,7.6C318.7,356,338.1,334,338.1,334z"/>
		</g>
		<linearGradient id="SVGID_46_" gradientUnits="userSpaceOnUse" x1="349.0417" y1="365.0107" x2="361.7084" y2="305.3441">
			<stop  offset="0" style="stop-color:#0F445A"/>
			<stop  offset="1" style="stop-color:#013031"/>
		</linearGradient>
		<path class="st50" d="M365.9,358.9c-2.1-1.2-4.2-2.5-6.4-4.1c-0.6-0.4-1.2-0.8-1.8-1.3c-2.2-1.6-4.2-3.2-6-4.9
			c-6.7-6-10.8-11.8-13.2-15.7c3.5-3.8,6.7-6.8,9.4-8.7c5.6-3.8,11.4-5.9,16.6,0c0.6,0.7,1.3,1.5,1.9,2.4c1.2,1.8,2.2,4,2.9,6.6v0
			c0.2,0.7,0.4,1.5,0.6,2.3c0.1,0.5,0.2,1,0.3,1.6C371.2,343.6,370.3,351.3,365.9,358.9z"/>
	</g>
</g>
<g id="RIGHT_LEG_2">
	<g>
		<g>
			<g>
				<linearGradient id="SVGID_47_" gradientUnits="userSpaceOnUse" x1="348.8989" y1="418.6467" x2="358.2322" y2="440.9801">
					<stop  offset="0" style="stop-color:#BCBEC0"/>
					<stop  offset="1" style="stop-color:#E3EDF5"/>
				</linearGradient>
				<path class="st51" d="M365.5,442c0,0-1.2,4.1-3.3,4.8c-2.1,0.7-3.3-0.2-3.3-0.2l-3.6-3.8l-5.9-6.3l7.6-5l3.4,4.3L365.5,442z"/>
				<linearGradient id="SVGID_48_" gradientUnits="userSpaceOnUse" x1="349.0019" y1="422.9622" x2="359.0019" y2="444.7956">
					<stop  offset="0" style="stop-color:#BCBEC0"/>
					<stop  offset="1" style="stop-color:#E3EDF5"/>
				</linearGradient>
				<path class="st52" d="M360.6,435.8c-0.4,1.1-1.1,2.5-2.3,4c-1,1.2-1.9,2.2-2.8,2.9l-5.9-6.3l7.6-5L360.6,435.8z"/>
			</g>
			<g>
				<linearGradient id="SVGID_49_" gradientUnits="userSpaceOnUse" x1="362.0723" y1="458.5725" x2="392.0723" y2="466.5725">
					<stop  offset="0.1179" style="stop-color:#24245A"/>
					<stop  offset="1" style="stop-color:#171441"/>
				</linearGradient>
				<path class="st53" d="M374,454.6c-1.7,7.2-5.6,22.6-7.8,24.7c-1.8,1.8-3.1,1.9-4.4,1.1h0c-0.3-0.2-0.6-0.4-0.9-0.7
					c-1.5-1.5-1.4-5.7-1.4-13.6s-1.8-18.9-1.8-18.9s1-0.7,2.9-3.7c1.9-3,2.5-5.5,2.5-5.5c0.7-0.1,1.3-0.1,1.9-0.1
					c6.1,0.1,10.3,3.4,10.3,3.4S375.7,447.4,374,454.6z"/>
				<linearGradient id="SVGID_50_" gradientUnits="userSpaceOnUse" x1="342.2446" y1="457.9729" x2="379.7446" y2="460.3479">
					<stop  offset="0.1179" style="stop-color:#24245A"/>
					<stop  offset="1" style="stop-color:#171441"/>
				</linearGradient>
				<path class="st54" d="M374,454.6c-1.7,7.2-5.6,22.6-7.8,24.7c-0.7,0.7-1.3,1.1-1.8,1.3c-0.9,0.4-1.8,0.3-2.6-0.3h0
					c-0.3-1.7,0-4,0.8-6.9c1.6-6.2,0.8-13.9-0.2-23.5c-0.6-6.2,1.3-10.1,2.7-12.1c3.2,0.1,5.9,1,7.6,1.8c1.7,0.8,2.6,1.6,2.6,1.6
					S375.7,447.4,374,454.6z"/>
				<linearGradient id="SVGID_51_" gradientUnits="userSpaceOnUse" x1="357.0171" y1="464.8488" x2="379.0171" y2="455.3488">
					<stop  offset="0.1179" style="stop-color:#24245A"/>
					<stop  offset="1" style="stop-color:#171441"/>
				</linearGradient>
				<path class="st55" d="M374,454.6c-1.7,7.2-5.6,22.6-7.8,24.7c-0.7,0.7-1.3,1.1-1.8,1.3c0.1-1.2,0.4-2.5,0.8-4
					c1.6-6.2,1.8-13.6,0.8-23.3c-1-9.7,4.6-13.3,4.6-13.3l2.2-0.3c1.7,0.8,2.6,1.6,2.6,1.6S375.7,447.4,374,454.6z"/>
				<linearGradient id="SVGID_52_" gradientUnits="userSpaceOnUse" x1="382.5157" y1="454.2508" x2="401.8907" y2="445.2508">
					<stop  offset="0.1179" style="stop-color:#24245A"/>
					<stop  offset="1" style="stop-color:#171441"/>
				</linearGradient>
				<path class="st56" d="M372.4,439.6c0,0-0.2,7.5-3.1,21s-5.8,20.2-5.8,20.2l3.1,0.2c0,0,4.1-11,6.6-22s2.2-17.7,2.2-17.7
					L372.4,439.6z"/>
			</g>
		</g>
		<g>
			<linearGradient id="SVGID_53_" gradientUnits="userSpaceOnUse" x1="319.4428" y1="344.357" x2="351.1095" y2="479.357">
				<stop  offset="0" style="stop-color:#0F445A"/>
				<stop  offset="1" style="stop-color:#013031"/>
			</linearGradient>
			<path class="st57" d="M357.3,435.3c-2.3,2.9-6.5,5.7-6.5,5.7s-2.4-2.7-5.9-6.5c-5.2-5.9-12.7-14.5-17.2-20.6
				c-7.5-10-17.1-23-18.3-28.7c-1.1-5.7,3.5-20.8,18-11.2c0.2,0.2,0.5,0.3,0.7,0.5c4.2,3.2,6.9,9,14.1,22.2
				c7.6,13.9,16.8,32.7,16.8,32.7S359.6,432.4,357.3,435.3z"/>
			<linearGradient id="SVGID_54_" gradientUnits="userSpaceOnUse" x1="317.6736" y1="376.7709" x2="366.1736" y2="446.2709">
				<stop  offset="0" style="stop-color:#0F445A"/>
				<stop  offset="1" style="stop-color:#013031"/>
			</linearGradient>
			<path class="st58" d="M357.3,435.3c-2,2.5-5.3,4.9-6.2,5.6c-0.1,0.1-0.2,0.2-0.2,0.2s-2.4-2.7-5.9-6.5c0.9-1.1,1.8-2.6,2.4-4.4
				c1.7-5.5-6-20.2-13.2-31c-10.5-15.9-9.3-21.5-6.1-24.6c1.5,1.2,2.9,2.7,4.4,4.9c2.4,3.6,5.2,9,9.7,17.3
				c7.6,13.9,16.8,32.7,16.8,32.7S359.6,432.4,357.3,435.3z"/>
			<linearGradient id="SVGID_55_" gradientUnits="userSpaceOnUse" x1="337.736" y1="407.2841" x2="302.3951" y2="378.1329">
				<stop  offset="0" style="stop-color:#0F445A"/>
				<stop  offset="1" style="stop-color:#013031"/>
			</linearGradient>
			<path class="st59" d="M357.8,438.4c-2,2.5-3.8,4.4-4.8,5c0.1-0.3-3.9-3.9-3.8-4.2c1.9-4.8,4.8-4.5,1.1-16.6
				c-3.6-12.1-14.7-27.8-18.1-35.3c-1.9-4.2-1-6.7,0.2-8c2.4,3.6,5.2,9,9.7,17.3c7.6,13.9,19,35.9,19,35.9S360,435.5,357.8,438.4z"
				/>
			<linearGradient id="SVGID_56_" gradientUnits="userSpaceOnUse" x1="333.3682" y1="418.6008" x2="369.6127" y2="475.8486">
				<stop  offset="0" style="stop-color:#0F445A"/>
				<stop  offset="1" style="stop-color:#013031"/>
			</linearGradient>
			<path class="st60" d="M313.8,393.6c2.3-1.7,13.7,9.5,19.4,18.7s13.6,23.9,13.6,23.9s-14.8-16-23.9-29
				C315,396,313.8,393.6,313.8,393.6z"/>
		</g>
	</g>
</g>
<g id="LEFT_LEG_1">
	<g>
		<g>
			<linearGradient id="SVGID_57_" gradientUnits="userSpaceOnUse" x1="454.2916" y1="469.6201" x2="370.9583" y2="358.2867">
				<stop  offset="0" style="stop-color:#1D5C5C"/>
				<stop  offset="1" style="stop-color:#085375"/>
			</linearGradient>
			<path class="st61" d="M391.2,426c-2.8,0.1-6.1-1.4-8.7-4.5c-5.9-7.1-13.2-15.3-23.7-36.5c-8.3-16.7-10.8-23.7-11.3-27
				c-0.2-0.9-0.2-1.5-0.1-2c0.1-1.1,0.3-6.1,0.6-10.7c0.2-4.6,0.4-8.8,0.4-8.8c7.7-15.9,18.9-14.3,30.6-9.4c4.4,1.9,7.6,4.3,9.9,6.9
				c6.3,7.2,5.8,15.5,5.8,15.5s0.4,7.1,1,14.4c0.2,2.6,0.5,5.3,0.7,7.6c1,8.8,1,31.6,1.7,43.8C398.5,422.3,395.3,425.8,391.2,426z"
				/>
			<linearGradient id="SVGID_58_" gradientUnits="userSpaceOnUse" x1="393.1132" y1="430.9719" x2="361.8632" y2="382.9719">
				<stop  offset="0" style="stop-color:#18586C"/>
				<stop  offset="1" style="stop-color:#07435E"/>
			</linearGradient>
			<path class="st62" d="M391.2,426c-2.8,0.1-6.1-1.4-8.7-4.5c-5.9-7.1-13.2-15.3-23.7-36.5c-8.3-16.7-10.8-23.7-11.3-27
				c2.2,0.5,7.8,3.2,17.8,22.2c9.5,18.1,13.9,29.9,23.1,42.3C389.5,423.7,390.4,424.9,391.2,426z"/>
			<linearGradient id="SVGID_59_" gradientUnits="userSpaceOnUse" x1="396.9607" y1="387.8236" x2="391.9607" y2="347.9903">
				<stop  offset="0" style="stop-color:#18586C"/>
				<stop  offset="1" style="stop-color:#07435E"/>
			</linearGradient>
			<path class="st63" d="M398.1,415.1c-1.3-5-4-29.1-6.2-50.6c-1.3-12.6-2.4-24.3-3.1-30.7c6.3,7.2,5.8,15.5,5.8,15.5
				s0.4,7.1,1,14.4c0.2,2.6,0.5,5.3,0.7,7.6C397.3,380.1,397.3,402.9,398.1,415.1z"/>
			<linearGradient id="SVGID_60_" gradientUnits="userSpaceOnUse" x1="399.2334" y1="426.9874" x2="367.9834" y2="378.9874">
				<stop  offset="0" style="stop-color:#18586C"/>
				<stop  offset="1" style="stop-color:#07435E"/>
			</linearGradient>
			<path class="st64" d="M347.8,357.8c0,0,10.5,6.4,18.1,10s10.1,7,6.6,7.3s-10.5-1.6-10.5-1.6s11,8.3,7.7,7.6s-13.6-6.7-16.1-9.5
				C351.2,368.8,347.8,357.8,347.8,357.8z"/>
			<linearGradient id="SVGID_61_" gradientUnits="userSpaceOnUse" x1="412.7973" y1="358.7061" x2="385.2973" y2="391.7061">
				<stop  offset="0" style="stop-color:#3F93B0"/>
				<stop  offset="1" style="stop-color:#1A576A"/>
			</linearGradient>
			<path class="st65" d="M389.1,366.1c-3.8-0.4-5.7,3.4-1.1,17.3s7.2,24.6,6.8,19c-0.4-5.6-1.3-18.1-2.3-26
				C391.5,368.4,392.6,366.5,389.1,366.1z"/>
			<linearGradient id="SVGID_62_" gradientUnits="userSpaceOnUse" x1="350.9611" y1="326.2485" x2="351.9611" y2="355.2485">
				<stop  offset="0" style="stop-color:#18586C"/>
				<stop  offset="1" style="stop-color:#07435E"/>
			</linearGradient>
			<path class="st66" d="M356.4,346.3c0,0-2.8,8.9-2.6,16c0.2,7.1,0.3,10,0.3,10s-3.3-2.4-5-7.8s-2.3-7-1.6-14.8
				c0.7-7.8,0.7-10,0.7-10S353.9,344.8,356.4,346.3z"/>
		</g>
		<linearGradient id="SVGID_63_" gradientUnits="userSpaceOnUse" x1="367.9487" y1="369.0245" x2="380.6154" y2="309.3578">
			<stop  offset="0" style="stop-color:#0F445A"/>
			<stop  offset="1" style="stop-color:#013031"/>
		</linearGradient>
		<path class="st67" d="M395.6,363.7c-1.2,0.4-2.5,0.7-3.8,0.9c-2,0.3-4,0.5-6.1,0.5h0c-0.5,0-1,0-1.4-0.1c0,0,0,0,0,0
			c-7-0.5-15.1-3.4-24.8-10.1c-1.4-1-2.7-1.9-3.9-2.9c-2.7-2.1-5-4.2-7.1-6.3c-0.2-0.2-0.4-0.4-0.6-0.6c0.2-4.6,0.4-8.8,0.4-8.8
			c7.7-15.9,18.9-14.3,30.6-9.4c4.4,1.9,7.6,4.3,9.9,6.9c6.3,7.2,5.8,15.5,5.8,15.5S395,356.4,395.6,363.7z"/>
	</g>
</g>
<g id="LEFT_LEG_2">
	<g>
		<g>
			<g>
				<linearGradient id="SVGID_64_" gradientUnits="userSpaceOnUse" x1="408.1184" y1="438.1955" x2="434.7851" y2="473.1955">
					<stop  offset="0" style="stop-color:#BCBEC0"/>
					<stop  offset="1" style="stop-color:#E3EDF5"/>
				</linearGradient>
				<path class="st68" d="M435.9,465.1c0,0-0.7,4.4-2.8,5.5c-2.1,1-3.4,0.2-3.4,0.2l-4.2-3.5l-6.9-5.8l7.3-6.2l4.1,4.1L435.9,465.1z
					"/>
				<linearGradient id="SVGID_65_" gradientUnits="userSpaceOnUse" x1="434.1275" y1="470.6118" x2="412.4609" y2="448.1118">
					<stop  offset="0" style="stop-color:#BCBEC0"/>
					<stop  offset="1" style="stop-color:#E3EDF5"/>
				</linearGradient>
				<path class="st69" d="M430,459.3c-0.3,1.2-0.9,2.8-1.9,4.5c-0.9,1.4-1.8,2.5-2.6,3.4l-6.9-5.8l7.3-6.2L430,459.3z"/>
			</g>
			<g>
				<linearGradient id="SVGID_66_" gradientUnits="userSpaceOnUse" x1="433.3633" y1="485.4344" x2="453.8633" y2="471.9344">
					<stop  offset="0.1179" style="stop-color:#24245A"/>
					<stop  offset="1" style="stop-color:#171441"/>
				</linearGradient>
				<path class="st70" d="M446.4,477.2c-0.9,7.7-3,24.4-5,26.9c-1.6,2.1-3,2.3-4.4,1.7l0,0c-0.3-0.2-0.7-0.4-1-0.6
					c-1.8-1.3-2.2-5.8-3.2-14.1s-4.3-19.5-4.3-19.5s1-0.9,2.6-4.3s1.9-6.1,1.9-6.1c0.7-0.1,1.3-0.2,2-0.3c6.5-0.7,11.2,2.3,11.2,2.3
					S447.3,469.5,446.4,477.2z"/>
				<linearGradient id="SVGID_67_" gradientUnits="userSpaceOnUse" x1="421.6674" y1="499.6412" x2="451.5007" y2="468.8079">
					<stop  offset="0.1179" style="stop-color:#24245A"/>
					<stop  offset="1" style="stop-color:#171441"/>
				</linearGradient>
				<path class="st71" d="M446.4,477.2c-0.9,7.7-3,24.4-5,26.9c-0.6,0.8-1.2,1.3-1.7,1.6c-0.9,0.5-1.8,0.5-2.7,0.1l0,0
					c-0.5-1.8-0.5-4.2-0.1-7.3c0.9-6.7-1-14.6-3.2-24.6c-1.4-6.4,0.1-10.7,1.3-13c3.4-0.3,6.3,0.3,8.2,1c1.9,0.6,2.9,1.3,2.9,1.3
					S447.3,469.5,446.4,477.2z"/>
				<linearGradient id="SVGID_68_" gradientUnits="userSpaceOnUse" x1="429.6017" y1="498.67" x2="442.7267" y2="481.17">
					<stop  offset="0.1179" style="stop-color:#24245A"/>
					<stop  offset="1" style="stop-color:#171441"/>
				</linearGradient>
				<path class="st72" d="M446.4,477.2c-0.9,7.7-3,24.4-5,26.9c-0.6,0.8-1.2,1.3-1.7,1.6c0-1.3,0.1-2.7,0.3-4.3
					c0.9-6.7,0.1-14.5-2.1-24.5c-2.2-10,3.1-14.5,3.1-14.5l2.2-0.6c1.9,0.6,2.9,1.3,2.9,1.3S447.3,469.5,446.4,477.2z"/>
				<linearGradient id="SVGID_69_" gradientUnits="userSpaceOnUse" x1="429.4603" y1="501.6061" x2="458.8353" y2="461.3561">
					<stop  offset="0.1179" style="stop-color:#24245A"/>
					<stop  offset="1" style="stop-color:#171441"/>
				</linearGradient>
				<path class="st73" d="M442.9,461.7c0,0,0.8,7.9-0.6,22.5s-3.5,21.9-3.5,21.9l3.2-0.2c0,0,2.9-12,4.1-23.9
					c1.2-11.9,0-18.8,0-18.8L442.9,461.7z"/>
			</g>
		</g>
		<g>
			<linearGradient id="SVGID_70_" gradientUnits="userSpaceOnUse" x1="439.8529" y1="480.4275" x2="356.5196" y2="369.0941">
				<stop  offset="0" style="stop-color:#1D5C5C"/>
				<stop  offset="1" style="stop-color:#085375"/>
			</linearGradient>
			<path class="st74" d="M425.5,460.1c-2.9,3.2-6.1,5.8-6.1,5.8s-8.2-7.6-16.4-17.1c-8.1-9.6-17.6-20.4-22.8-29.9
				c-3.2-5.9-3.9-10.3-3-13.6c0.5-2,1.6-3.6,3.1-4.8c3.6-3.1,8.3-3.3,11.7-1.6c1,0.5,2,1.3,2.7,2.1c4.4,5.3,7.2,9.3,13.3,21.5
				c4,8,11.5,19,16.1,25.6c1.5,2.1,2.7,3.8,3.4,4.8c0.4,0.6,0.7,1,0.7,1S428.4,456.9,425.5,460.1z"/>
			<linearGradient id="SVGID_71_" gradientUnits="userSpaceOnUse" x1="392.8676" y1="418.0346" x2="429.9009" y2="477.4966">
				<stop  offset="0" style="stop-color:#18586C"/>
				<stop  offset="1" style="stop-color:#07435E"/>
			</linearGradient>
			<path class="st75" d="M427,462.6c-2.3,3.6-5.2,5.6-5.2,5.6s-10.6-9.8-18.8-19.4c-8.1-9.6-17.6-20.4-22.8-29.9
				c-3.2-5.9-3.9-10.3-3-13.6c2.5,4.3,6.3,10.7,9.7,15.6c0,0,20.5,26.8,27.4,32c3.7,2.8,9,1.7,13.2,0.1c0.4,0.6,2.4,3.3,2.4,3.3
				S429.6,458.6,427,462.6z"/>
			<linearGradient id="SVGID_72_" gradientUnits="userSpaceOnUse" x1="434.2723" y1="473.1539" x2="417.6056" y2="444.1539">
				<stop  offset="0" style="stop-color:#3F93B0"/>
				<stop  offset="1" style="stop-color:#1A576A"/>
			</linearGradient>
			<path class="st76" d="M424.1,448.1c0,0.1,0,0.2,0,0.3c-1.1,4-16-15.7-22.8-25.8c-10-15.1-10.7-21.6-9.3-23.8c1,0.5,2,1.3,2.7,2.1
				c4.4,5.3,7.2,9.3,13.3,21.5C412.1,430.5,419.5,441.5,424.1,448.1z"/>
			
				<linearGradient id="SVGID_73_" gradientUnits="userSpaceOnUse" x1="436.355" y1="403.4917" x2="405.7022" y2="440.275" gradientTransform="matrix(0.9313 -0.3642 0.3642 0.9313 -128.5131 175.4138)">
				<stop  offset="0" style="stop-color:#3F93B0"/>
				<stop  offset="1" style="stop-color:#1A576A"/>
			</linearGradient>
			<path class="st77" d="M400.6,412.9c-2.8,0.5-2.9,3.8,3.3,12.8c5.7,8.2,19.8,25.6,19.8,25.6s-11.8-19.9-16-26.4
				C404,418.8,401.6,412.7,400.6,412.9z"/>
		</g>
	</g>
</g>
<g id="HEAD_1_">
	<g>
		<g>
			<g>
				
					<linearGradient id="SVGID_74_" gradientUnits="userSpaceOnUse" x1="402.4408" y1="254.0532" x2="395.9998" y2="248.7402" gradientTransform="matrix(0.9877 -0.1563 0.1563 0.9877 -34.9365 66.2748)">
					<stop  offset="0.1436" style="stop-color:#F7AFAA"/>
					<stop  offset="0.9333" style="stop-color:#E58880"/>
				</linearGradient>
				<path class="st78" d="M410.5,246.3l-2.8,7.6l-3.8,10.3c0,0-1.2,2.1-4.1,1.6c-2.9-0.5-2.8-2.2-2.4-3.6c0.1-0.5,0.9-3,1.8-5.8
					c1.4-4.5,3.2-10,3.2-10S408.1,242.8,410.5,246.3z"/>
				
					<linearGradient id="SVGID_75_" gradientUnits="userSpaceOnUse" x1="404.235" y1="268.994" x2="406.043" y2="243.5302" gradientTransform="matrix(0.9877 -0.1563 0.1563 0.9877 -34.9365 66.2748)">
					<stop  offset="0.1436" style="stop-color:#F7AFAA"/>
					<stop  offset="0.9333" style="stop-color:#E58880"/>
				</linearGradient>
				<path class="st79" d="M410.5,246.3l-2.8,7.6c-1.9,1.1-4.3,2.1-6.8,2.4c-0.6,0.1-1.2,0.1-1.7,0.1c1.4-4.5,3.2-10,3.2-10
					S408.1,242.8,410.5,246.3z"/>
			</g>
			<g>
				<linearGradient id="SVGID_76_" gradientUnits="userSpaceOnUse" x1="397.9565" y1="238.2486" x2="423.4565" y2="248.6236">
					<stop  offset="0.1436" style="stop-color:#F7AFAA"/>
					<stop  offset="0.9333" style="stop-color:#E58880"/>
				</linearGradient>
				<path class="st80" d="M412.2,243.5c-4.2,9.8-14.1,10-16.1,9.7c-0.3,0-0.6-0.2-0.8-0.4c-1.8-1.5-3.5-7.1-2.2-16
					c0.1-1.1,0.3-2.1,0.6-3c2-7.6,6.9-8.6,10.4-8.1C413.9,227,416.4,233.8,412.2,243.5z"/>
				<linearGradient id="SVGID_77_" gradientUnits="userSpaceOnUse" x1="391.791" y1="221.8921" x2="407.791" y2="247.5171">
					<stop  offset="0.1436" style="stop-color:#F7AFAA"/>
					<stop  offset="0.9333" style="stop-color:#E58880"/>
				</linearGradient>
				<path class="st81" d="M412.2,243.5c-4.2,9.8-14.1,10-16.1,9.7c-0.3,0-0.6-0.2-0.8-0.4c0.7,0,1.5-0.2,2.5-0.4
					c4.4-1.2,11.5-10.3,10.3-13.1c-1.1-2.8-1-5.7-1-5.7s-1.7,1.7-7.6,1.8c-2.7,0-4.6-0.7-5.9-1.5c2-7.6,6.9-8.6,10.4-8.1
					C413.9,227,416.4,233.8,412.2,243.5z"/>
			</g>
			<linearGradient id="SVGID_78_" gradientUnits="userSpaceOnUse" x1="388.5909" y1="233.2214" x2="394.5965" y2="240.0459">
				<stop  offset="0.1436" style="stop-color:#F7AFAA"/>
				<stop  offset="0.9333" style="stop-color:#E58880"/>
			</linearGradient>
			<path class="st82" d="M396.1,236.9l-5.2,3.9c0,0,1,1.2,2.1,1.8s2,0.9,2,0.9L396.1,236.9z"/>
		</g>
		<g>
			<linearGradient id="SVGID_79_" gradientUnits="userSpaceOnUse" x1="410.2396" y1="223.8899" x2="404.6493" y2="258.7733">
				<stop  offset="0.1179" style="stop-color:#24245A"/>
				<stop  offset="1" style="stop-color:#171441"/>
			</linearGradient>
			<path class="st83" d="M419.6,244.3c-1.4,2.2-4.4,3.4-7,4.6c-2.4,1.1-5.2,1.7-5.2,1.7s0.3-2.4,1-5.9c0.5-2.7,1.1-4.9,1.1-4.9
				s-1.1-1.8-1.6-4.5c-0.5-2.7-0.1-4-0.1-4s-4.1,0.6-7.8,0.1c-3.7-0.5-4-1-4-1s0.6-1.3,1.8-2.9c0.9-1.2,2.1-2.5,3.7-3.3
				c6.7-3.8,12.1-0.5,14.4,0.7c2.5,1.4,4.2,2.9,4.9,4.3c0.8,1.5,0.7,5.2,0.4,8.8C420.9,241.1,420.2,243.4,419.6,244.3z"/>
			<linearGradient id="SVGID_80_" gradientUnits="userSpaceOnUse" x1="414.2446" y1="212.3135" x2="408.783" y2="233.614">
				<stop  offset="0.1179" style="stop-color:#24245A"/>
				<stop  offset="1" style="stop-color:#171441"/>
			</linearGradient>
			<path class="st84" d="M419.6,244.3c-0.1,0.2-0.4,0.5-0.7,0.8c-2.1,1.8-3.1,2.4-6.1,3.8c-2.4,1.1-5.4,1.7-5.4,1.7s0.5-2.4,1.3-6.6
				c0.7-3.5,0.7-4.3,0.7-4.3s-1-1.7-1.6-4.4c-0.3-1.7-0.3-2.9-0.2-3.5v0c0.1-0.4,0.1-0.6,0.1-0.6s-4.1,0.6-7.8,0.1c-3.7-0.5-4-1-4-1
				s0.6-1.3,1.8-2.9c1.3,0.3,3.2,0.7,5.2,0.7c3.7,0.1,5.7-2.2,5.7-2.2s1.8,7.9,7.8,10.4c1.4,0.6,2.7,0.9,3.7,1
				C420.3,240.5,420.2,243.4,419.6,244.3z"/>
			<linearGradient id="SVGID_81_" gradientUnits="userSpaceOnUse" x1="415.927" y1="230.6274" x2="414.7582" y2="222.2046">
				<stop  offset="0.1179" style="stop-color:#24245A"/>
				<stop  offset="1" style="stop-color:#00648D"/>
			</linearGradient>
			<path class="st85" d="M410.8,223c0,0,4.6,1.4,7.5,3.8c0.9,0.8,2,2.4,1.3,3.6S413,224.8,410.8,223z"/>
			<linearGradient id="SVGID_82_" gradientUnits="userSpaceOnUse" x1="415.4063" y1="233.0152" x2="411.4509" y2="243.3547">
				<stop  offset="0.1179" style="stop-color:#24245A"/>
				<stop  offset="1" style="stop-color:#171441"/>
			</linearGradient>
			<path class="st86" d="M418.9,245.1c-2.5,2.4-4.1,2.8-6.7,4c-2.4,1.1-4.8,1.5-4.8,1.5s0.2-3.3,1.3-6.7c0.9-2.9,0.8-4.1,0.8-4.1
				s-1.1-1.8-1.6-4.5c-0.3-1.7-0.3-2.9-0.2-3.5v0l0.2-0.5c0,0,0.8,4.7,3.6,7.6c2.8,2.9,4.8,2.5,4.8,2.5s-0.3,2.4-1.4,3.1
				c-1.1,0.7-1.4,0.8-1.4,0.8s2.4,0.7,4.4,0.1C418.3,245.3,418.7,245.2,418.9,245.1z"/>
		</g>
		<g id="XMLID_35_">
			<linearGradient id="XMLID_2_" gradientUnits="userSpaceOnUse" x1="415.6206" y1="241.9837" x2="403.9267" y2="246.8014">
				<stop  offset="0.1436" style="stop-color:#F7AFAA"/>
				<stop  offset="0.9333" style="stop-color:#E58880"/>
			</linearGradient>
			<path id="XMLID_37_" class="st87" d="M409,242.8c0.6-1,2.8-3.4,4.4-2s0.7,3.5-1.5,5.4c-1.2,1-2.6,1.5-3.7,1.7
				c-0.8,0.2-1.4-0.6-1.1-1.3C407.7,245.3,408.6,243.6,409,242.8z"/>
			<linearGradient id="XMLID_3_" gradientUnits="userSpaceOnUse" x1="416.1931" y1="240.8018" x2="411.463" y2="243.9115">
				<stop  offset="0.1436" style="stop-color:#F7AFAA"/>
				<stop  offset="0.9333" style="stop-color:#E58880"/>
			</linearGradient>
			<path id="XMLID_36_" class="st88" d="M410.3,244.5c0.7-0.8-0.4-1.4-0.1-1.7c0.6-0.6,1.6-1.2,2.3-0.5c1.1,1,0.5,2.4-1,3.7
				c-0.8,0.7-1.7,1-2.5,1.1c-0.5,0.1-0.9-0.4-0.7-0.9c0.2-0.5,0.3-1.2,0.7-1.5C409,244.6,409.6,245.2,410.3,244.5z"/>
		</g>
	</g>
</g>
<g id="HAIR">
	<g>
		<g>
			<linearGradient id="SVGID_83_" gradientUnits="userSpaceOnUse" x1="398.5291" y1="223.31" x2="392.8344" y2="258.8453">
				<stop  offset="0.1179" style="stop-color:#24245A"/>
				<stop  offset="1" style="stop-color:#171441"/>
			</linearGradient>
			<path class="st89" d="M410.3,229.1c0,0.1,0,0.1-0.1,0.2c0,0-2.8,6.8-12.4,4.9c-9.6-1.9-13.5-9.8-10.8-15.7
				c0.8-1.8,2.1-3.2,3.5-4.1c3.2-2.3,7.2-2.3,9.4-1.8c3.5,0.8,6.9,3.8,8.5,7C410.1,223,410.9,226.2,410.3,229.1z"/>
			<linearGradient id="SVGID_84_" gradientUnits="userSpaceOnUse" x1="402.1906" y1="209.5651" x2="396.4407" y2="231.9897">
				<stop  offset="0.1179" style="stop-color:#24245A"/>
				<stop  offset="1" style="stop-color:#171441"/>
			</linearGradient>
			<path class="st90" d="M410.3,229.1c0,0.1,0,0.1-0.1,0.2c0,0-0.5,1.2-1.9,2.5c-1.8,1.7-5.1,3.5-10.6,2.4
				c-9.1-1.8-13.1-9-11.2-14.8c0.1-0.3,0.2-0.6,0.4-0.9c0.8-1.8,2.1-3.2,3.5-4.1c-0.1,1.5,0,4.5,2,6.3c2.7,2.5,6.6,2.5,6.6,2.5
				s-1.7,0.8-3.5,0.7c-1.7-0.1-3.1-0.5-3.3-0.6c0.4,0.3,4.1,2.8,9.7,4C406.1,228.3,408.9,228.8,410.3,229.1z"/>
			<linearGradient id="SVGID_85_" gradientUnits="userSpaceOnUse" x1="396.8873" y1="227.1616" x2="392.6461" y2="238.2482">
				<stop  offset="0.1179" style="stop-color:#24245A"/>
				<stop  offset="1" style="stop-color:#171441"/>
			</linearGradient>
			<path class="st91" d="M408.4,231.8c-1.8,1.7-5.1,3.5-10.6,2.4c-9.1-1.8-13.1-9-11.2-14.8c0.6,1.4,1.8,3.7,3.4,5.2
				c2.5,2.3,4.5,3,4.5,3s-1.8,0.1-3.3-0.2c-1.3-0.3-1.4-0.4-1.5-0.4c0.2,0.2,3.5,3,13.3,4.2C405.2,231.5,406.9,231.7,408.4,231.8z"
				/>
			<linearGradient id="SVGID_86_" gradientUnits="userSpaceOnUse" x1="403.914" y1="228.1083" x2="399.0712" y2="211.9934">
				<stop  offset="0.1179" style="stop-color:#24245A"/>
				<stop  offset="1" style="stop-color:#00648D"/>
			</linearGradient>
			<path class="st92" d="M394.6,212.9c-2.5,0.5-1.8,2.3,1.4,2.3c3.2,0.1,6.8,0.7,9.3,3.3s3.8,4.9,3.8,4.9s-1.7-6.2-5.4-8.8
				S396.3,212.5,394.6,212.9z"/>
		</g>
		<g id="XMLID_38_">
			
				<linearGradient id="XMLID_4_" gradientUnits="userSpaceOnUse" x1="402.6337" y1="348.4621" x2="415.4404" y2="358.1887" gradientTransform="matrix(0.2417 0.9703 -0.9703 0.2417 647.7257 -252.4486)">
				<stop  offset="0.1179" style="stop-color:#24245A"/>
				<stop  offset="1" style="stop-color:#171441"/>
			</linearGradient>
			<path id="XMLID_40_" class="st93" d="M409.8,223.8c0,0-2.3-4.7-2.8-7.8c-0.4-2,0.8-3.5,1.9-3c0.6,0.2,1.1,1,1.4,2.5
				C410.9,219.5,410,223.1,409.8,223.8C409.8,223.8,409.8,223.8,409.8,223.8z"/>
			
				<linearGradient id="XMLID_5_" gradientUnits="userSpaceOnUse" x1="396.4279" y1="341.2306" x2="398.1591" y2="344.0438" gradientTransform="matrix(0.2417 0.9703 -0.9703 0.2417 647.7257 -252.4486)">
				<stop  offset="0.1179" style="stop-color:#24245A"/>
				<stop  offset="1" style="stop-color:#171441"/>
			</linearGradient>
			<path id="XMLID_39_" class="st94" d="M409.8,223.8c0,0-2.3-4.7-2.8-7.8c-0.4-2,0.8-3.5,1.9-3c-0.2,1.5-0.4,4.9,0.2,8.1
				C409.3,222,409.6,222.9,409.8,223.8C409.8,223.8,409.8,223.8,409.8,223.8z"/>
		</g>
	</g>
</g>
<g id="RIGHT_ARM_1">
	<g>
		<linearGradient id="SVGID_87_" gradientUnits="userSpaceOnUse" x1="351.3462" y1="280.2063" x2="326.3462" y2="327.5396">
			<stop  offset="0" style="stop-color:#59AAC0"/>
			<stop  offset="1" style="stop-color:#4F83C4"/>
		</linearGradient>
		<path class="st95" d="M389.8,278.5c-3.2,9.8-16.4,18.1-21.2,17.5c-1.8-0.2-2.7-1.1-3.4-2.5c-1.1-2.4-1.1-6.1-2.1-9.4
			c-1.6-5.2-8.5-14.8-11.2-18.9c-2.7-4.2-10.3-11.6-14.6-20.8c-1.8-3.8-1.5-6.8-0.1-8.9c1.8-3,5.6-4.2,8.3-3.4
			c4.6,1.3,6.6,3.7,15.9,13.2c9.3,9.5,25.5,14.2,25.5,14.2C392.3,261.5,393,268.7,389.8,278.5z"/>
		<linearGradient id="SVGID_88_" gradientUnits="userSpaceOnUse" x1="359.2759" y1="240.2379" x2="346.4426" y2="278.2379">
			<stop  offset="0" style="stop-color:#59AAC0"/>
			<stop  offset="1" style="stop-color:#4F83C4"/>
		</linearGradient>
		<path class="st96" d="M366.2,287.8c-0.2,2.2-0.6,4.1-0.9,5.7c-1-2.2-1.1-5.5-1.8-8.6c-0.1-0.3-0.1-0.6-0.2-0.9
			c-1.6-5.2-8.5-14.8-11.2-18.9c-2.7-4.2-10.3-11.6-14.6-20.8c-0.7-1.5-1.1-2.9-1.2-4.2c-0.2-1.9,0.3-3.5,1-4.7
			c0.1,0.2,0.2,0.3,0.3,0.5c5.7,8.6,14.6,18.2,17.2,21.8c2.6,3.6,5.6,9.5,5.3,7.2s0.6-11.8,3.7-8.8
			C366.9,259.1,367.2,277.5,366.2,287.8z"/>
		<linearGradient id="SVGID_89_" gradientUnits="userSpaceOnUse" x1="359.7769" y1="224.7141" x2="350.1102" y2="261.2141">
			<stop  offset="0" style="stop-color:#59AAC0"/>
			<stop  offset="1" style="stop-color:#4F83C4"/>
		</linearGradient>
		<path class="st97" d="M364.3,278c-0.1,3.3-0.5,5.5-0.9,6.9c-0.1-0.3-0.1-0.6-0.2-0.9c-1.6-5.2-8.5-14.8-11.2-18.9
			c-2.7-4.2-10.3-11.6-14.6-20.8c-0.7-1.5-1.1-2.9-1.2-4.2c7.5,10.4,16.4,20.5,19.6,25.3c3.4,5.3,5.6,7.3,6.3,5.4
			C362.7,269,364.6,271.1,364.3,278z"/>
	</g>
</g>
<g id="RIGHT_ARM_2">
	<g>
		<g>
			<linearGradient id="SVGID_90_" gradientUnits="userSpaceOnUse" x1="316.5037" y1="199.933" x2="332.1287" y2="224.433">
				<stop  offset="0.1436" style="stop-color:#F7AFAA"/>
				<stop  offset="0.9333" style="stop-color:#E58880"/>
			</linearGradient>
			<path class="st98" d="M329.3,212.8c0,0-3.5,1.5-5.7,4.1l-4.4-6l-1.9-2.6c0,0-1.3-2.9,1.1-4.2c2.4-1.3,4.4-0.3,5.4,1.1
				c0.5,0.7,2,2.8,3.4,4.6C328.2,211.3,329.3,212.8,329.3,212.8z"/>
			<linearGradient id="SVGID_91_" gradientUnits="userSpaceOnUse" x1="319.0955" y1="198.1219" x2="324.5955" y2="212.8719">
				<stop  offset="0.1436" style="stop-color:#F7AFAA"/>
				<stop  offset="0.9333" style="stop-color:#E58880"/>
			</linearGradient>
			<path class="st99" d="M329.3,212.8c0,0-3.5,1.5-5.7,4.1l-4.4-6c1.3,0.3,2.8,0.5,4.4,0.1c1.4-0.3,2.5-0.8,3.5-1.2
				C328.2,211.3,329.3,212.8,329.3,212.8z"/>
			<linearGradient id="SVGID_92_" gradientUnits="userSpaceOnUse" x1="317.278" y1="199.4392" x2="332.903" y2="223.9392">
				<stop  offset="0.1436" style="stop-color:#F7AFAA"/>
				<stop  offset="0.9333" style="stop-color:#E58880"/>
			</linearGradient>
			<path class="st100" d="M323.7,205c0,0-2.1-7.5-2.7-9.5s-2.3-4.9-3.2-6.5c-0.9-1.7-4.3-5.8-5.3-5.2c-1,0.7,0.5,3.1,1.8,4.8
				c1.2,1.7,1.9,3.3,1.6,5.2c-0.3,1.9-3.9,5.2-3.9,6.7s0.8,3.5,2.7,5.4c1.5,1.5,3.2,3.2,4.1,3.3C319.6,209.4,325.3,208.4,323.7,205z
				"/>
			<linearGradient id="SVGID_93_" gradientUnits="userSpaceOnUse" x1="304.8143" y1="181.9662" x2="323.8977" y2="206.9662">
				<stop  offset="0.1436" style="stop-color:#F7AFAA"/>
				<stop  offset="0.9333" style="stop-color:#E58880"/>
			</linearGradient>
			<path class="st101" d="M308.9,186.2c-0.5,0.4-0.9,1.8,1.6,5.1s3.5,4.5,4.1,6.1c0.6,1.6,2.2,1.5,2.5,1.2c0.3-0.3,0.6-1.1-0.4-3.2
				C315.7,193.2,309.9,185.3,308.9,186.2z"/>
			<linearGradient id="SVGID_94_" gradientUnits="userSpaceOnUse" x1="301.7801" y1="184.2823" x2="320.8635" y2="209.2823">
				<stop  offset="0.1436" style="stop-color:#F7AFAA"/>
				<stop  offset="0.9333" style="stop-color:#E58880"/>
			</linearGradient>
			<path class="st102" d="M304.6,190.5c-0.3,0.5-0.4,2,3,4.4c3.3,2.4,4.6,3.3,5.6,4.7s2.5,0.8,2.7,0.5c0.2-0.3,0.2-1.2-1.3-3
				C313.1,195.4,305.3,189.5,304.6,190.5z"/>
			<linearGradient id="SVGID_95_" gradientUnits="userSpaceOnUse" x1="299.9185" y1="185.7033" x2="319.0019" y2="210.7033">
				<stop  offset="0.1436" style="stop-color:#F7AFAA"/>
				<stop  offset="0.9333" style="stop-color:#E58880"/>
			</linearGradient>
			<path class="st103" d="M305.3,196c-0.2,0.4,0.2,1.2,3,2.8s3.5,2.5,4.4,3.5c0.9,1,2,0.4,2.2,0.1c0.2-0.3,0.1-1-1.3-2.2
				C312.4,199,305.8,195.1,305.3,196z"/>
			<linearGradient id="SVGID_96_" gradientUnits="userSpaceOnUse" x1="310.9967" y1="191.6129" x2="318.3465" y2="204.3653">
				<stop  offset="0.1436" style="stop-color:#F7AFAA"/>
				<stop  offset="0.9333" style="stop-color:#E58880"/>
			</linearGradient>
			<path class="st104" d="M312.1,201.7c0,0-0.6-1.7,1.9-4.8c1.9-2.3,1.8-5.3,1.8-5.3s1.4,3.1,1.8,5.4c1.2,5.9-1.2,6.4-1.2,6.4
				S313,204.7,312.1,201.7z"/>
			<linearGradient id="SVGID_97_" gradientUnits="userSpaceOnUse" x1="312.9882" y1="202.9344" x2="327.4406" y2="225.5957">
				<stop  offset="0.1436" style="stop-color:#F7AFAA"/>
				<stop  offset="0.9333" style="stop-color:#E58880"/>
			</linearGradient>
			<path class="st105" d="M318.2,208.6c0,0-3.6-1.1-5.1-1.9c-1.5-0.8-3.5-1.5-4.5-2.5c-1-1-1.9-1.6-1.8-2.3c0.1-0.8,1.6-1.2,3.4-0.1
				s2.4,0.4,4.8,0.7c2.4,0.3,4.1,0,4.8,1.9S320.3,208.5,318.2,208.6z"/>
		</g>
		<g>
			<g>
				<linearGradient id="SVGID_98_" gradientUnits="userSpaceOnUse" x1="329.9878" y1="209.9137" x2="325.3793" y2="217.3806">
					<stop  offset="0" style="stop-color:#59AAC0"/>
					<stop  offset="1" style="stop-color:#4F83C4"/>
				</linearGradient>
				<path class="st106" d="M333.3,214.2c-5.4,1.4-8.3,9.2-8.3,9.2l-4-7.4c0,0,0.1-1.9,2.1-4.1c0,0,0,0,0,0c2-2.2,6.2-3.2,6.2-3.2
					l2.9,4L333.3,214.2z"/>
				<linearGradient id="SVGID_99_" gradientUnits="userSpaceOnUse" x1="328.5575" y1="210.0828" x2="325.6407" y2="219.9999">
					<stop  offset="0" style="stop-color:#59AAC0"/>
					<stop  offset="1" style="stop-color:#4F83C4"/>
				</linearGradient>
				<path class="st107" d="M333.3,214.2c-5.4,1.4-8.3,9.2-8.3,9.2l-4-7.4c0,0,0-0.7,0.5-1.7c0.3-0.7,0.8-1.5,1.6-2.4c0,0,0,0,0,0
					c0.1,1.3,0.6,2.7,2.2,2.8c2.6,0.1,5.2-1.6,6.9-1.9L333.3,214.2L333.3,214.2z"/>
				<linearGradient id="SVGID_100_" gradientUnits="userSpaceOnUse" x1="327.6835" y1="205.8956" x2="327.1001" y2="215.6376">
					<stop  offset="0" style="stop-color:#59AAC0"/>
					<stop  offset="1" style="stop-color:#4F83C4"/>
				</linearGradient>
				<path class="st108" d="M333.3,214.2c-5.4,1.4-8.3,9.2-8.3,9.2l-4-7.4c0,0,0-0.7,0.5-1.7c0.5,0.7,1.3,1.3,2.5,1.7
					C326.8,216.7,331.2,215,333.3,214.2L333.3,214.2z"/>
			</g>
			<g>
				<linearGradient id="SVGID_101_" gradientUnits="userSpaceOnUse" x1="325.0178" y1="266.3005" x2="300.0178" y2="313.6338">
					<stop  offset="0" style="stop-color:#59AAC0"/>
					<stop  offset="1" style="stop-color:#4F83C4"/>
				</linearGradient>
				<path class="st109" d="M358.9,245.2c0,2.1-1.7,8.2-6.1,10c-1,0.4-2.1,0.6-3.3,0.5c-6.8-0.6-8.4-4.1-11.7-9
					c-3.3-4.9-9.5-14.8-11.1-17.8c-1.6-3-2.7-4.8-2.7-4.8s0.5-3.3,2.6-5.9c0.4-0.6,1-1.1,1.6-1.5c3.5-2.6,5.8-3,5.8-3
					s14.2,17.2,18.3,22.1C356.6,240.7,358.9,242.6,358.9,245.2z"/>
				<linearGradient id="SVGID_102_" gradientUnits="userSpaceOnUse" x1="340.2981" y1="233.8287" x2="327.4648" y2="271.8287">
					<stop  offset="0" style="stop-color:#59AAC0"/>
					<stop  offset="1" style="stop-color:#4F83C4"/>
				</linearGradient>
				<path class="st110" d="M352.8,255.2c-1,0.4-2.1,0.6-3.3,0.5c-0.5,0-0.9-0.1-1.4-0.2c-5.6-0.9-7.3-4.3-10.3-8.8
					c-3.3-4.9-9.5-14.8-11.1-17.8c-1.6-3-2.7-4.8-2.7-4.8s0.2-1.6,1.1-3.4c0.4-0.8,0.9-1.7,1.5-2.5c2.1,3.7,6.6,11.3,10.8,17.6
					C342.2,242.9,349,250.7,352.8,255.2z"/>
				<linearGradient id="SVGID_103_" gradientUnits="userSpaceOnUse" x1="341.3424" y1="219.8319" x2="331.6757" y2="256.3319">
					<stop  offset="0" style="stop-color:#59AAC0"/>
					<stop  offset="1" style="stop-color:#4F83C4"/>
				</linearGradient>
				<path class="st111" d="M348.1,255.5c-5.6-0.9-7.3-4.3-10.3-8.8c-3.3-4.9-9.5-14.8-11.1-17.8c-1.6-3-2.7-4.8-2.7-4.8
					s0.2-1.6,1.1-3.4c1.1,3.1,3.7,8.8,8.9,16.4C338.5,243.6,343.8,250.1,348.1,255.5z"/>
			</g>
		</g>
	</g>
</g>
<g id="BOX_1">
	<g>
		<g>
			<path class="st30" d="M292.9,216l-49.4-28.5c-2.2-1.3-3-4.1-1.7-6.3l20.7-35.9c1.3-2.2,4.1-3,6.3-1.7l49.4,28.5
				c2.2,1.3,3,4.1,1.7,6.3l-20.7,35.9C297.9,216.6,295.1,217.3,292.9,216z"/>
			<linearGradient id="SVGID_104_" gradientUnits="userSpaceOnUse" x1="274.3145" y1="172.9746" x2="230.5608" y2="136.8839">
				<stop  offset="0" style="stop-color:#FFFFFF"/>
				<stop  offset="1" style="stop-color:#E3EDF5"/>
			</linearGradient>
			<path class="st112" d="M293.1,213.8l-49.4-28.5c-1.8-1-2.4-3.4-1.4-5.2l20.8-36.1c1-1.8,3.4-2.4,5.2-1.4l49.4,28.5
				c1.8,1,2.4,3.4,1.4,5.2l-20.8,36.1C297.2,214.2,294.9,214.9,293.1,213.8z"/>
			<g>
				<linearGradient id="SVGID_105_" gradientUnits="userSpaceOnUse" x1="287.3425" y1="200.8948" x2="281.0091" y2="179.2281">
					<stop  offset="0" style="stop-color:#E0EDF3"/>
					<stop  offset="1" style="stop-color:#D1E2EE"/>
				</linearGradient>
				<path class="st113" d="M316.5,176.1l-19.8,34.3c-0.8,1.4-2.7,1.9-4.1,1.1l-34.6-20l-12-6.9c-1.4-0.8-1.9-2.7-1.1-4.1l19.8-34.3
					c0.8-1.4,2.7-1.9,4.1-1.1L305,166l10.4,6C316.8,172.8,317.3,174.6,316.5,176.1z"/>
			</g>
			<linearGradient id="SVGID_106_" gradientUnits="userSpaceOnUse" x1="276.9464" y1="179.9341" x2="265.9464" y2="150.9341">
				<stop  offset="0" style="stop-color:#E0EDF3"/>
				<stop  offset="1" style="stop-color:#D1E2EE"/>
			</linearGradient>
			<path class="st114" d="M305,166c-1.3,9.8-7.1,15.6-17.7,9.8c-12.1-6.6-17.2,1.2-21.5,10.2c-1.3,2.7-4.2,4.6-7.8,5.5l-12-6.9
				c0,0-0.1,0-0.1-0.1c-1.4-0.8-1.8-2.7-1-4.1l19.8-34.3c0.8-1.4,2.7-1.9,4.1-1.1l28.6,16.5L305,166z"/>
			<linearGradient id="SVGID_107_" gradientUnits="userSpaceOnUse" x1="264.1025" y1="134.1001" x2="272.3525" y2="179.3501">
				<stop  offset="0" style="stop-color:#E0EDF3"/>
				<stop  offset="1" style="stop-color:#D1E2EE"/>
			</linearGradient>
			<path class="st115" d="M297.5,161.6c-2.6,5.9-7.9,8.3-16.1,3.9c-12.1-6.7-18.9,0.5-21.5,10.2c-1.6,5.8-8.2,7.9-13.9,8.9
				c-1.4-0.8-1.8-2.7-1-4.1l19.8-34.3c0.8-1.4,2.7-1.9,4.1-1.1L297.5,161.6z"/>
		</g>
		<g>
			<g>
				<g>
					<path class="st116" d="M284.3,159.8l-11.7-6.9c-1-0.6-2.3-0.3-2.9,0.8l-5.8,9.9c-0.6,1-0.3,2.3,0.8,2.9l11.7,6.9
						c1,0.6,2.3,0.3,2.9-0.8l5.8-9.9C285.6,161.7,285.3,160.4,284.3,159.8z M282.9,162.3l-5,8.6c-0.3,0.5-0.8,0.6-1.3,0.3l-10.1-5.9
						c-0.5-0.3-0.6-0.8-0.3-1.3l5-8.6c0.3-0.5,0.9-0.6,1.3-0.3l10.1,5.9C283,161.2,283.1,161.8,282.9,162.3z"/>
				</g>
				<polygon class="st117" points="270.4,159.3 271.6,167.4 296.1,162.3 275.3,163.6 274.3,158.8 				"/>
			</g>
			<g>
				<path class="st116" d="M304,177.9l-11.2-6.6c-0.7-0.4-0.9-1.2-0.5-1.9l0,0c0.4-0.7,1.2-0.9,1.9-0.5l11.2,6.6
					c0.7,0.4,0.9,1.2,0.5,1.9l0,0C305.5,178.1,304.7,178.3,304,177.9z"/>
				<path class="st116" d="M300.7,183.6l-11.2-6.6c-0.7-0.4-0.9-1.2-0.5-1.9l0,0c0.4-0.7,1.2-0.9,1.9-0.5l11.2,6.6
					c0.7,0.4,0.9,1.2,0.5,1.9l0,0C302.2,183.8,301.3,184,300.7,183.6z"/>
			</g>
		</g>
		<g>
			<g>
				<g>
					<path class="st116" d="M274.5,176.3l-11.7-6.9c-1-0.6-2.3-0.3-2.9,0.8l-5.8,9.9c-0.6,1-0.3,2.3,0.8,2.9l11.7,6.9
						c1,0.6,2.3,0.3,2.9-0.8l5.8-9.9C275.8,178.2,275.5,176.9,274.5,176.3z M273,178.8l-5,8.6c-0.3,0.5-0.9,0.6-1.3,0.3l-10.1-5.9
						c-0.5-0.3-0.6-0.8-0.3-1.3l5-8.6c0.3-0.5,0.8-0.6,1.3-0.3l10.1,5.9C273.2,177.7,273.3,178.3,273,178.8z"/>
				</g>
				<polygon class="st117" points="260.6,175.8 261.8,183.9 286.3,178.8 265.5,180.1 264.5,175.3 				"/>
			</g>
			<g>
				<path class="st116" d="M294.2,194.4l-11.2-6.6c-0.7-0.4-0.9-1.2-0.5-1.9l0,0c0.4-0.7,1.2-0.9,1.9-0.5l11.2,6.6
					c0.7,0.4,0.9,1.2,0.5,1.9v0C295.7,194.6,294.9,194.8,294.2,194.4z"/>
				<path class="st116" d="M290.9,200.1l-11.2-6.6c-0.7-0.4-0.9-1.2-0.5-1.9l0,0c0.4-0.7,1.2-0.9,1.9-0.5l11.2,6.6
					c0.7,0.4,0.9,1.2,0.5,1.9l0,0C292.4,200.3,291.5,200.5,290.9,200.1z"/>
			</g>
		</g>
	</g>
</g>
<g id="HEAD">
	<g>
		<g>
			<linearGradient id="SVGID_108_" gradientUnits="userSpaceOnUse" x1="392.3609" y1="301.869" x2="367.3609" y2="349.2024">
				<stop  offset="0" style="stop-color:#59AAC0"/>
				<stop  offset="1" style="stop-color:#4F83C4"/>
			</linearGradient>
			<path class="st118" d="M420.1,288.1c-0.3,0.8-0.6,1.6-1,2.6c-2.9,8.4-7.9,24.4-11,39.1c-3.4,16.4-0.6,26.8-0.6,26.8s0,0-6.1,0.2
				c-6.1,0.2-19.7-0.8-36-7.8c-2.1-0.9-4.1-2-6-3.1c-5.8-3.5-10.9-7.8-14.7-11.8c-0.4-0.4-0.8-0.9-1.2-1.3c-4.1-4.5-6.6-8.4-6.6-9.6
				c0-2.9,21.7-11.5,26.5-36.3c0.3-1.5,0.6-2.9,0.9-4.2c0.4-1.6,0.8-3,1.3-4.4c5.8-17.8,15.4-19,18.2-19.2c0.8,0,2.2,0.2,4.1,0.7
				c5.7,1.4,15.3,4.6,21,7.3c1.8,0.8,3.5,1.7,5.1,2.6c5.3,2.8,9.4,5.7,10.3,7.4C425.7,279.2,422.8,280.9,420.1,288.1z"/>
			<linearGradient id="SVGID_109_" gradientUnits="userSpaceOnUse" x1="379.3172" y1="285.1309" x2="398.0672" y2="347.1309">
				<stop  offset="0" style="stop-color:#59AAC0"/>
				<stop  offset="1" style="stop-color:#4F83C4"/>
			</linearGradient>
			<path class="st119" d="M419.2,290.7c-0.8,2.4-1.9,5.5-3,9c-2.7,8.6-5.8,19.7-8,30.2c-3.4,16.4-0.6,26.8-0.6,26.8s0,0-6.1,0.2
				c-4.4,0.1-12.7-0.3-23.2-3.3c-4-1.1-8.3-2.6-12.8-4.6c-2.1-0.9-4.1-2-6-3.1c3.9,0,10.8-0.7,19.7-4.5c14.1-6,19.2-41.1,29.9-48.2
				C414.3,289.7,417.4,289.7,419.2,290.7z"/>
			<linearGradient id="SVGID_110_" gradientUnits="userSpaceOnUse" x1="380.1758" y1="277.1253" x2="391.6758" y2="310.3753">
				<stop  offset="0" style="stop-color:#59AAC0"/>
				<stop  offset="1" style="stop-color:#4F83C4"/>
			</linearGradient>
			<path class="st120" d="M408.2,329.8c-3.4,16.4-0.6,26.8-0.6,26.8s0,0-6.1,0.2c-4.4,0.1-12.7-0.3-23.2-3.3
				c12.3-1.1,19.9-4.4,14.5-9c-3.3-2.9,1-7.4,5.7-13.1c4.8-5.7,4.4-20,10.5-28.4c3.2-4.4,5.6-4.4,7-3.4
				C413.5,308.2,410.4,319.4,408.2,329.8z"/>
			<linearGradient id="SVGID_111_" gradientUnits="userSpaceOnUse" x1="403.7009" y1="277.38" x2="396.9406" y2="243.7564">
				<stop  offset="0" style="stop-color:#59AAC0"/>
				<stop  offset="1" style="stop-color:#4F83C4"/>
			</linearGradient>
			<path class="st121" d="M401.3,278.7c-12.4-3.9-13.2-15.9-13.2-18.9c0.6,0.1,1.3,0.3,2.1,0.5c5.8,1.5,13.9,4.4,19,6.8
				c1.3,0.6,2.5,1.2,3.7,1.8c0.5,0.3,1,0.5,1.4,0.8c0,0,0,0.1,0.1,0.1C416.5,274.3,416.1,283.3,401.3,278.7z"/>
			<linearGradient id="SVGID_112_" gradientUnits="userSpaceOnUse" x1="410.1093" y1="277.9159" x2="398.2343" y2="263.7909">
				<stop  offset="0" style="stop-color:#59AAC0"/>
				<stop  offset="1" style="stop-color:#4F83C4"/>
			</linearGradient>
			<path class="st122" d="M412.8,268.9c0.2,3.1-4.1,8.6-13.2,5c-9.6-3.8-11.7-11.6-9.5-13.6c5.8,1.5,13.9,4.4,19,6.8
				C410.4,267.7,411.7,268.3,412.8,268.9z"/>
			<linearGradient id="SVGID_113_" gradientUnits="userSpaceOnUse" x1="342.1284" y1="264.3734" x2="362.6284" y2="348.3734">
				<stop  offset="0" style="stop-color:#64BCC3"/>
				<stop  offset="1" style="stop-color:#59AAC0"/>
			</linearGradient>
			<path class="st123" d="M359.6,306.3c-7.1,7.7-5.4,5.9-9.1,16.5c-2,5.6-4.1,8.9-6.9,10c-4.1-4.5-6.6-8.4-6.6-9.6
				c0-2.9,21.7-11.5,26.5-36.3c0.3-1.5,1.4-6.1,1.7-7.5C364.9,286.4,363.8,301.7,359.6,306.3z"/>
			<linearGradient id="SVGID_114_" gradientUnits="userSpaceOnUse" x1="368.1339" y1="264.8391" x2="379.1339" y2="357.0891">
				<stop  offset="0" style="stop-color:#59AAC0"/>
				<stop  offset="1" style="stop-color:#4F83C4"/>
			</linearGradient>
			<path class="st124" d="M377.8,280.9c0,0-0.9,27,2.3,39.3s0.7,22-8.1,19.5c-8.9-2.5-2.8-46.3,0.6-58
				C376,270,378.1,274.1,377.8,280.9z"/>
			<linearGradient id="SVGID_115_" gradientUnits="userSpaceOnUse" x1="388.7084" y1="262.3857" x2="399.7084" y2="354.6357">
				<stop  offset="0" style="stop-color:#59AAC0"/>
				<stop  offset="1" style="stop-color:#4F83C4"/>
			</linearGradient>
			<path class="st125" d="M384.7,265.3c0,0,3.6,10.8,8.2,18.1c4.6,7.3,10,17.2,5,18.1c-5,0.9-10.9-12.9-13.6-24
				C381.5,266.4,382.1,261.8,384.7,265.3z"/>
		</g>
		<g>
			<linearGradient id="SVGID_116_" gradientUnits="userSpaceOnUse" x1="397.0867" y1="256.6231" x2="421.2534" y2="288.1231">
				<stop  offset="0" style="stop-color:#59AAC0"/>
				<stop  offset="1" style="stop-color:#4F83C4"/>
			</linearGradient>
			<path class="st126" d="M413.6,262.8c0,0-2.5,4-3.1,5.5s-0.6,1.4-0.6,1.4s-4.3,1-9.7-0.3c-2.9-0.7-5.2-1.9-6.8-3.2
				c-1.4-1.1-3.2-2.7-3.5-3.6l0-7.2c0,0,6.3-0.8,13.6,1.8c1.2,0.4,2.4,0.9,3.3,1.3C411.7,260.7,413.6,262.8,413.6,262.8z"/>
			<linearGradient id="SVGID_117_" gradientUnits="userSpaceOnUse" x1="388.1448" y1="250.612" x2="412.9781" y2="272.9453">
				<stop  offset="0" style="stop-color:#59AAC0"/>
				<stop  offset="1" style="stop-color:#4F83C4"/>
			</linearGradient>
			<path class="st127" d="M413.6,262.8c0,0-2.5,4-3.1,5.5s-0.6,1.4-0.6,1.4s-4.3,1-9.7-0.3c-1-0.2-2-0.5-2.8-0.9
				c-1.6-0.7-2.9-1.5-4-2.4c2.9,0.4,4.7,0.6,8.5-2.4c3.5-2.8,4.9-4.5,5-5.3c1.8,0.8,3.1,1.6,4.2,2.3
				C412.8,261.9,413.6,262.8,413.6,262.8z"/>
			<linearGradient id="SVGID_118_" gradientUnits="userSpaceOnUse" x1="394.3805" y1="257.4901" x2="414.1305" y2="271.7401">
				<stop  offset="0" style="stop-color:#59AAC0"/>
				<stop  offset="1" style="stop-color:#4F83C4"/>
			</linearGradient>
			<path class="st128" d="M413.6,262.8c0,0-2.5,4-3.1,5.5s-0.6,1.4-0.6,1.4s-4.3,1-9.7-0.3c-1-0.2-2-0.5-2.8-0.9
				c2.3,0.5,5.9,0.6,9.1-1.9c3.1-2.5,4.2-4.2,4.6-5.8C412.8,261.9,413.6,262.8,413.6,262.8z"/>
		</g>
	</g>
</g>
<g id="BOX_2">
	<g>
		<path class="st30" d="M493.5,352.8l-19.1,31.7c-1.8,3-5.6,3.9-8.5,2.1L378,333.9l-19.2-11.5c-2.9-1.8-3.9-5.6-2.1-8.5l19.1-31.7
			c1.8-3,5.6-3.9,8.5-2.1l71.5,43l35.6,21.4C494.4,346.1,495.3,349.9,493.5,352.8z"/>
		<linearGradient id="SVGID_119_" gradientUnits="userSpaceOnUse" x1="412.8011" y1="321.9991" x2="325.2027" y2="249.7429">
			<stop  offset="0" style="stop-color:#E0EDF3"/>
			<stop  offset="1" style="stop-color:#D1E2EE"/>
		</linearGradient>
		<path class="st129" d="M494,352.1L475,383.8c-1.8,3-5.6,3.9-8.5,2.1l-87.9-52.8l-19.2-11.5c-2.9-1.8-3.9-5.6-2.1-8.5l19.1-31.7
			c1.8-3,5.6-3.9,8.5-2.1l71.5,43l35.6,21.4C494.9,345.3,495.8,349.1,494,352.1z"/>
		<linearGradient id="SVGID_120_" gradientUnits="userSpaceOnUse" x1="387.9799" y1="255.7752" x2="467.9799" y2="394.2752">
			<stop  offset="0" style="stop-color:#E0EDF3"/>
			<stop  offset="1" style="stop-color:#D1E2EE"/>
		</linearGradient>
		<path class="st130" d="M494,352.1L475,383.8c-1.8,3-5.6,3.9-8.5,2.1l-68.3-41.1l-19.6-11.8c1.4-2.8,3.3-5.5,6-7.6
			c13.5-11,28-1,39,11.5s27.5,10,28-6.5c0.1-4.4,2-7,4.8-8.3l24.9,14.9l10.7,6.4C494.9,345.3,495.8,349.1,494,352.1z"/>
		<linearGradient id="SVGID_121_" gradientUnits="userSpaceOnUse" x1="457.1715" y1="375.0292" x2="434.6715" y2="314.5292">
			<stop  offset="0" style="stop-color:#E0EDF3"/>
			<stop  offset="1" style="stop-color:#D1E2EE"/>
		</linearGradient>
		<path class="st131" d="M494,352.1l-1.8,3L475,383.8c-1.8,3-5.6,3.9-8.5,2.1l-13.5-8.1l-54.8-32.9l-0.1-0.2c0,0,12.8-5.8,28,6.8
			s32.8,16.3,34.8,5.5c1.9-10.4,5.5-20.7,20.5-19.9l10.7,6.4C494.9,345.3,495.8,349.1,494,352.1z"/>
		<linearGradient id="SVGID_122_" gradientUnits="userSpaceOnUse" x1="458.0573" y1="329.5784" x2="478.0573" y2="380.3284">
			<stop  offset="0" style="stop-color:#E0EDF3"/>
			<stop  offset="1" style="stop-color:#D1E2EE"/>
		</linearGradient>
		<path class="st132" d="M492.3,355.1L475,383.8c-1.8,3-5.6,3.9-8.5,2.1l-13.5-8.1c7.6,1.9,9.7-3.9,10.8-9.8
			c1.9-10.3,9.1-16.4,24.1-15.6L492.3,355.1z"/>
		<linearGradient id="SVGID_123_" gradientUnits="userSpaceOnUse" x1="460.7714" y1="333.2264" x2="313.1119" y2="238.5643">
			<stop  offset="0.1385" style="stop-color:#F7B142"/>
			<stop  offset="1" style="stop-color:#EF794A"/>
		</linearGradient>
		<path class="st133" d="M494,352.1l-3.2,5.3l-53.3-32l-64.5-38.7l3.2-5.3c1.8-3,5.6-3.9,8.5-2.1l53.3,32l53.8,32.3
			C494.9,345.3,495.8,349.1,494,352.1z"/>
		<linearGradient id="SVGID_124_" gradientUnits="userSpaceOnUse" x1="420.9817" y1="281.0293" x2="465.9817" y2="335.696">
			<stop  offset="0.1385" style="stop-color:#F7B142"/>
			<stop  offset="1" style="stop-color:#EF794A"/>
		</linearGradient>
		<path class="st134" d="M494,352.1l-3.2,5.3l-32.5-19.5l-20.8-12.5c0.2-2,0.3-4.4,0.1-7.1c-0.2-2.6,0-4.9,0.5-7.1l22.7,13.6
			l31.1,18.7C494.9,345.3,495.8,349.1,494,352.1z"/>
		<linearGradient id="SVGID_125_" gradientUnits="userSpaceOnUse" x1="493.0442" y1="360.0514" x2="404.3775" y2="263.3847">
			<stop  offset="0.1385" style="stop-color:#F7B142"/>
			<stop  offset="1" style="stop-color:#EF794A"/>
		</linearGradient>
		<path class="st135" d="M494,352.1l-3.2,5.3l-32.5-19.5c0-0.1,0-0.1,0-0.2c-0.3-5.1,0.8-9.4,2.5-12.8l31.1,18.7
			C494.9,345.3,495.8,349.1,494,352.1z"/>
		<g>
			<path class="st30" d="M389.4,329.1l-16.5-9.9c-1.5-0.9-2-2.8-1.1-4.3l7.7-12.9c0.9-1.5,2.8-2,4.3-1.1l16.5,9.9
				c1.5,0.9,2,2.8,1.1,4.3l-7.7,12.9C392.8,329.5,390.9,329.9,389.4,329.1z"/>
			<path class="st30" d="M425.9,350.9l-16.5-9.9c-1.5-0.9-2-2.8-1.1-4.3l7.7-12.9c0.9-1.5,2.8-2,4.3-1.1l16.5,9.9
				c1.5,0.9,2,2.8,1.1,4.3l-7.7,12.9C429.3,351.4,427.3,351.8,425.9,350.9z"/>
			<path class="st30" d="M462.3,372.8l-16.5-9.9c-1.5-0.9-2-2.8-1.1-4.3l7.7-12.9c0.9-1.5,2.8-2,4.3-1.1l16.5,9.9
				c1.5,0.9,2,2.8,1.1,4.3l-7.7,12.9C465.7,373.2,463.8,373.7,462.3,372.8z"/>
		</g>
		<g>
			<linearGradient id="SVGID_126_" gradientUnits="userSpaceOnUse" x1="391.719" y1="299.6074" x2="366.969" y2="362.8574">
				<stop  offset="0" style="stop-color:#FFFFFF"/>
				<stop  offset="1" style="stop-color:#E3EDF5"/>
			</linearGradient>
			<path class="st136" d="M389.5,326.6l-16.5-9.9c-1.5-0.9-2-2.8-1.1-4.3l7.7-12.9c0.9-1.5,2.8-2,4.3-1.1l16.5,9.9
				c1.5,0.9,2,2.8,1.1,4.3l-7.7,12.9C392.9,327,391,327.4,389.5,326.6z"/>
			<linearGradient id="SVGID_127_" gradientUnits="userSpaceOnUse" x1="430.7393" y1="314.8763" x2="405.9893" y2="378.1263">
				<stop  offset="0" style="stop-color:#FFFFFF"/>
				<stop  offset="1" style="stop-color:#E3EDF5"/>
			</linearGradient>
			<path class="st137" d="M425.9,348.4l-16.5-9.9c-1.5-0.9-2-2.8-1.1-4.3l7.7-12.9c0.9-1.5,2.8-2,4.3-1.1l16.5,9.9
				c1.5,0.9,2,2.8,1.1,4.3l-7.7,12.9C429.3,348.9,427.4,349.3,425.9,348.4z"/>
			<linearGradient id="SVGID_128_" gradientUnits="userSpaceOnUse" x1="469.7597" y1="330.1451" x2="445.0097" y2="393.3951">
				<stop  offset="0" style="stop-color:#FFFFFF"/>
				<stop  offset="1" style="stop-color:#E3EDF5"/>
			</linearGradient>
			<path class="st138" d="M462.3,370.3l-16.5-9.9c-1.5-0.9-2-2.8-1.1-4.3l7.7-12.9c0.9-1.5,2.8-2,4.3-1.1l16.5,9.9
				c1.5,0.9,2,2.8,1.1,4.3l-7.7,12.9C465.8,370.7,463.8,371.2,462.3,370.3z"/>
		</g>
	</g>
</g>
<g id="LEFT_ARM_1">
	<g>
		<linearGradient id="SVGID_129_" gradientUnits="userSpaceOnUse" x1="420.2293" y1="316.5882" x2="395.2293" y2="363.9216">
			<stop  offset="0" style="stop-color:#59AAC0"/>
			<stop  offset="1" style="stop-color:#4F83C4"/>
		</linearGradient>
		<path class="st139" d="M444.5,321.2c-0.2,0.9-0.6,1.6-1.1,2.1c-2.6,2.7-8.3,1.7-11.6-0.5c-4-2.7-7-6.7-16.4-21
			c-1.7-2.6-2.8-5.1-3.5-7.6c-3.1-11,2.7-19.9,7.3-20c2.3,0,2.9,0,5.5,2.7s12.9,18.5,16.6,26.8C444.9,312.2,445.8,316,444.5,321.2z"
			/>
		<linearGradient id="SVGID_130_" gradientUnits="userSpaceOnUse" x1="426.9011" y1="326.0008" x2="428.0678" y2="297.6675">
			<stop  offset="0" style="stop-color:#59AAC0"/>
			<stop  offset="1" style="stop-color:#4F83C4"/>
		</linearGradient>
		<path class="st140" d="M443.4,323.3c-0.7,0.7-1.5,1.2-2.5,1.4c-2.8,0.7-6.6-0.3-9.1-1.9c-3.4-2.3-6.1-5.5-12.4-15c0,0,0,0,0,0
			c-1.2-1.7-2.4-3.7-3.9-5.9c-1.7-2.6-2.8-5.1-3.5-7.6c4.6,5.7,13.6,16.2,23.9,24.1C438.5,320.5,441.1,322.1,443.4,323.3z"/>
		<linearGradient id="SVGID_131_" gradientUnits="userSpaceOnUse" x1="429.6538" y1="326.1142" x2="430.8205" y2="297.7809">
			<stop  offset="0" style="stop-color:#59AAC0"/>
			<stop  offset="1" style="stop-color:#4F83C4"/>
		</linearGradient>
		<path class="st141" d="M440.8,324.7c-2.8,0.7-6.6-0.3-9.1-1.9c-3.4-2.3-6.1-5.5-12.4-15c4.8,4.7,10.7,9.9,17,14.2
			C437.9,323,439.4,323.9,440.8,324.7z"/>
		<linearGradient id="SVGID_132_" gradientUnits="userSpaceOnUse" x1="432.1472" y1="323.8389" x2="434.1472" y2="271.3389">
			<stop  offset="0" style="stop-color:#59AAC0"/>
			<stop  offset="1" style="stop-color:#68C2C4"/>
		</linearGradient>
		<path class="st142" d="M425.8,281c-2.4,0.3-2.3,2.9,3.7,11s12.6,15,12.6,15s-6.2-12.2-9.6-17.6C429.3,284.1,427.8,280.7,425.8,281
			z"/>
	</g>
</g>
<g id="LEFT_ARM_2">
	<g>
		<g>
			<g>
				<linearGradient id="SVGID_133_" gradientUnits="userSpaceOnUse" x1="399.9086" y1="337.516" x2="426.2419" y2="339.516">
					<stop  offset="0.1436" style="stop-color:#F7AFAA"/>
					<stop  offset="0.9333" style="stop-color:#E58880"/>
				</linearGradient>
				<path class="st143" d="M413.7,339.6l-3.9,2.4l-2.8,1.8l-0.3-0.6l-3.4-6.5l-0.1-0.2l0.2-0.1l1.2-0.8l2.7-1.9l1.7-1.2
					c0,0,2.6,0.9,3.8,2.2C414,336,413.7,339.6,413.7,339.6z"/>
				<linearGradient id="SVGID_134_" gradientUnits="userSpaceOnUse" x1="399.5709" y1="341.9625" x2="425.9042" y2="343.9625">
					<stop  offset="0.1436" style="stop-color:#F7AFAA"/>
					<stop  offset="0.9333" style="stop-color:#E58880"/>
				</linearGradient>
				<path class="st144" d="M409.8,342c0,0-4.5,5.4-7.1,6.4c-0.7,0.3-1.2,0.4-1.6,0.4c0,0,0,0,0,0c-0.4,0-0.7-0.1-1-0.2
					c-0.2-0.1-0.4-0.3-0.7-0.4c0,0-0.1,0-0.1-0.1c-0.1-0.1-0.3-0.1-0.5-0.2c-1-0.3-1.5-1.3-1.7-1.8c0,0,0,0,0,0
					c-0.1-0.2-0.1-0.3-0.1-0.3s-0.9,0.1-1.5-0.7c-0.5-0.6-0.6-1.2-0.9-1.7h0c0,0,0,0,0,0c-0.1-0.2-0.3-0.3-0.4-0.4
					c-0.8-0.4-1-1-1.3-1.8c-0.1-0.2,0-0.4,0.2-0.6l0,0c1.7-0.5,2.3-1.1,3.6-2c0.5-0.3,0.8-1.5,1.3-1.8c1.3-0.8,3.2-0.9,4.7-1.1
					c0.8-0.1,1.5-0.1,1.8-0.2c0.1,0,0.2,0,0.2,0s2.2,0.3,3.3,2.4c0.5,0.9,0.9,1.8,1.2,2.5C409.5,341.2,409.7,341.8,409.8,342
					C409.8,342,409.8,342,409.8,342z"/>
				<linearGradient id="SVGID_135_" gradientUnits="userSpaceOnUse" x1="399.4677" y1="342.6102" x2="425.5023" y2="344.5875">
					<stop  offset="0.1436" style="stop-color:#F7AFAA"/>
					<stop  offset="0.9333" style="stop-color:#E58880"/>
				</linearGradient>
				<path class="st145" d="M394.9,343.3c0,0-0.4,0.1-0.9,0.2c-0.3,0.1-0.8,0.1-1.2,0.2c-0.4,0.1-0.9,0.1-1.3,0.2h-0.1
					c-0.4,0-0.8,0-1.1,0c-0.8-0.1-1.3-0.5-1.7-1c-0.3-0.4-0.5-0.9-0.7-1.1c-0.3-0.5-0.3-2.1-0.3-2.1l2.6,1.5l2.9-0.7
					C393,342.4,394.9,343.3,394.9,343.3z"/>
				<linearGradient id="SVGID_136_" gradientUnits="userSpaceOnUse" x1="399.3498" y1="345.3657" x2="426.3088" y2="347.4132">
					<stop  offset="0.1436" style="stop-color:#F7AFAA"/>
					<stop  offset="0.9333" style="stop-color:#E58880"/>
				</linearGradient>
				<path class="st146" d="M397.5,346c0,0-0.5,0.1-1.1,0.2c0,0-0.1,0-0.2,0c-0.6,0.1-1.2,0.2-1.6,0.3c-0.8,0.1-2,0.2-2.9-0.3
					c-0.2-0.1-0.4-0.3-0.5-0.6c-0.5-0.7-0.6-1.8-0.6-1.8c2.7-0.1,4.4-0.6,4.4-0.6s0,0.7,1,1.5C396.8,345.6,397.5,346,397.5,346z"/>
				<linearGradient id="SVGID_137_" gradientUnits="userSpaceOnUse" x1="400.1901" y1="336.2293" x2="425.0583" y2="338.118">
					<stop  offset="0.1436" style="stop-color:#F7AFAA"/>
					<stop  offset="0.9333" style="stop-color:#E58880"/>
				</linearGradient>
				<path class="st147" d="M397.3,338.4c0,0-0.3-0.2-0.8-0.3c0,0-0.1,0-0.1,0c-0.3-0.1-0.6-0.2-0.9-0.3c-1-0.3-2.3-0.4-3.2-1.5
					c-0.3-0.3-0.5-0.7-0.6-1.1c-0.1-0.3-0.1-0.6-0.1-0.8c0-0.5,0.2-0.9,0.4-1.1c0.4-0.3,2.5,0.9,4,1.4c1.5,0.5,6.8,1,6.8,1
					C405.5,337.6,397.3,338.4,397.3,338.4z"/>
				<linearGradient id="SVGID_138_" gradientUnits="userSpaceOnUse" x1="399.0943" y1="347.4749" x2="428.7917" y2="349.7304">
					<stop  offset="0.1436" style="stop-color:#F7AFAA"/>
					<stop  offset="0.9333" style="stop-color:#E58880"/>
				</linearGradient>
				<path class="st148" d="M399.5,348.2c0,0-0.5,0-1.3,0.1c-0.5,0-1.1,0.1-1.7,0.2c-0.7,0.1-1.3,0.2-1.7,0.2c-0.6,0-1-0.1-1.3-0.3
					c-0.1-0.1-0.2-0.1-0.2-0.2c-0.4-0.5-0.7-1.5-0.7-1.5c1,0.1,4.5-0.7,4.5-0.7s0.3,0.4,0.7,1.1c0.4,0.7,1.3,1.1,1.6,1.2
					C399.4,348.1,399.4,348.1,399.5,348.2C399.5,348.2,399.5,348.2,399.5,348.2z"/>
				<linearGradient id="SVGID_139_" gradientUnits="userSpaceOnUse" x1="398.8915" y1="349.0405" x2="426.8205" y2="351.1617">
					<stop  offset="0.1436" style="stop-color:#F7AFAA"/>
					<stop  offset="0.9333" style="stop-color:#E58880"/>
				</linearGradient>
				<path class="st149" d="M401.3,348.8c0,0-0.1,0-0.2,0.1c0,0,0,0,0,0c-0.5,0.2-1.9,0.8-3,0.9c-1.3,0.1-2.5,0-2.8-0.3
					c-0.2-0.2-0.5-0.6-0.6-0.8c0,0-0.1-0.1-0.1-0.1c0.1,0,0.2,0,0.3-0.1c0.1,0,0.2,0,0.2,0s2.4-0.3,2.9-0.4c0.3-0.1,0.5-0.1,0.8,0
					c0.2,0,0.4,0,0.5,0c0,0,0.1,0,0.1,0c0,0,0,0,0,0c0.2,0,0.3,0,0.3,0s0.3,0.3,0.7,0.4c0.1,0.1,0.3,0.1,0.4,0.2
					C401.3,348.8,401.3,348.8,401.3,348.8z"/>
			</g>
			<linearGradient id="SVGID_140_" gradientUnits="userSpaceOnUse" x1="396.2084" y1="334.5912" x2="409.2084" y2="347.0287">
				<stop  offset="0.1436" style="stop-color:#F7AFAA"/>
				<stop  offset="0.9333" style="stop-color:#E58880"/>
			</linearGradient>
			<path class="st150" d="M413.7,339.6l-3.9,2.4c0,0,0,0.1,0,0.1s-4.5,5.4-7.1,6.4c-0.7,0.3-1.2,0.4-1.6,0.4c0,0,0,0,0,0
				c-0.5,0.2-1.9,0.8-3,0.9c-1.3,0.1-2.5,0-2.8-0.2l0.9-0.1c0,0,2-0.2,3.9-0.8c0.1,0,0.2-0.1,0.2-0.1c0.2-0.1,0.4-0.2,0.6-0.3
				c1.7-0.8,4.3-3.7,5.6-5.1c0.3-0.3,0.4-0.5,0.6-0.6c0.4-0.4,1.3-1.1,2-2.1c0.9-1.1,1.7-2.4,1.4-3.7c-0.3-1.6-2.3-2.6-3.4-3.1
				l1.7-1.2c0,0,2.6,0.9,3.8,2.2C414,336,413.7,339.6,413.7,339.6z"/>
			<g>
				<linearGradient id="SVGID_141_" gradientUnits="userSpaceOnUse" x1="389.4433" y1="332.2279" x2="396.8554" y2="338.0609">
					<stop  offset="0.1436" style="stop-color:#F7AFAA"/>
					<stop  offset="0.9333" style="stop-color:#E58880"/>
				</linearGradient>
				<path class="st151" d="M398.4,337.4l-1.3,0.9c-0.3-0.1-1.2-0.5-1.6-0.6c-1-0.3-2.3-0.4-3.2-1.5c-0.3-0.3-0.5-0.7-0.6-1.1
					c-0.1-0.3-0.1-0.6-0.1-0.8c0.2,0.4,0.8,1.1,2.2,1.8C395.9,337.1,398.4,337.4,398.4,337.4z"/>
				<g>
					<linearGradient id="SVGID_142_" gradientUnits="userSpaceOnUse" x1="398.4026" y1="339.9223" x2="392.648" y2="342.6528">
						<stop  offset="0.1436" style="stop-color:#F7AFAA"/>
						<stop  offset="0.9333" style="stop-color:#E58880"/>
					</linearGradient>
					<path class="st152" d="M394.6,343.4c0,0-0.2,0.1-0.5,0.2c-0.3,0.1-0.8,0.1-1.2,0.2c-0.4,0.1-0.9,0.1-1.3,0.2h-0.1
						c-0.4,0-0.8,0-1.1,0c-0.8-0.1-1.3-0.5-1.7-1c0,0,0,0,0,0c0,0,1.7,0.4,3.2,0.4C393.4,343.2,394.7,343.2,394.6,343.4z"/>
					<linearGradient id="SVGID_143_" gradientUnits="userSpaceOnUse" x1="399.819" y1="343.0724" x2="394.1654" y2="345.7549">
						<stop  offset="0.1436" style="stop-color:#F7AFAA"/>
						<stop  offset="0.9333" style="stop-color:#E58880"/>
					</linearGradient>
					<path class="st153" d="M396.9,346c0,0-0.2,0.1-0.5,0.2c0,0-0.1,0-0.2,0c-0.6,0.1-1.2,0.2-1.6,0.3c-0.8,0.1-2,0.2-2.9-0.3
						c-0.2-0.1-0.4-0.3-0.5-0.6c0.7,0,4,0,4.7,0C396.7,345.6,396.9,345.9,396.9,346z"/>
					<linearGradient id="SVGID_144_" gradientUnits="userSpaceOnUse" x1="400.8288" y1="345.8425" x2="395.6255" y2="348.3114">
						<stop  offset="0.1436" style="stop-color:#F7AFAA"/>
						<stop  offset="0.9333" style="stop-color:#E58880"/>
					</linearGradient>
					<path class="st154" d="M398.8,348.1C398.8,348.1,398.8,348.1,398.8,348.1c-0.2,0.1-0.4,0.1-0.6,0.1c-0.9,0.2-2.7,0.5-3.6,0.5
						c0,0-0.1-0.1-0.1-0.1c0.1,0,0.2,0,0.3-0.1c-0.6,0-1-0.1-1.3-0.3c-0.1-0.1-0.2-0.1-0.2-0.2c0.9-0.1,3.4-0.3,4.1-0.3
						C398.3,347.8,398.9,348,398.8,348.1z"/>
				</g>
			</g>
		</g>
		<g>
			<linearGradient id="SVGID_145_" gradientUnits="userSpaceOnUse" x1="406.2552" y1="337.4703" x2="415.1719" y2="334.137">
				<stop  offset="0" style="stop-color:#59AAC0"/>
				<stop  offset="1" style="stop-color:#4F83C4"/>
			</linearGradient>
			<path class="st155" d="M418.9,338.7l-6,3.3l-0.5-0.3l-1-0.6l1.2-0.8c0,0-0.7-3.1-1.7-4.5c-1.2-1.7-2.9-2.5-2.9-2.5l-1.5,1
				l-0.2-0.8c-0.1-0.6,0.1-1.2,0.6-1.5l3.9-2.8l1.1-0.7c0,0,2.3,0.6,4.8,3.8C419.4,335.4,418.9,338.7,418.9,338.7z"/>
			<linearGradient id="SVGID_146_" gradientUnits="userSpaceOnUse" x1="405.916" y1="328.341" x2="410.4576" y2="332.716">
				<stop  offset="0" style="stop-color:#59AAC0"/>
				<stop  offset="1" style="stop-color:#4F83C4"/>
			</linearGradient>
			<path class="st156" d="M418.9,338.7l-6,3.3l-0.5-0.3c1.2-0.9,3.4-3.2,2.1-7.2c-0.9-2.9-2.4-4.5-3.5-5.4l1.1-0.7
				c0,0,2.3,0.6,4.8,3.8C419.4,335.4,418.9,338.7,418.9,338.7z"/>
		</g>
		<g>
			<linearGradient id="SVGID_147_" gradientUnits="userSpaceOnUse" x1="429.1949" y1="321.3236" x2="404.1949" y2="368.6569">
				<stop  offset="0" style="stop-color:#59AAC0"/>
				<stop  offset="1" style="stop-color:#4F83C4"/>
			</linearGradient>
			<path class="st157" d="M445.2,318.1c-0.3,2.8-1.4,5.8-4.3,8.6c-6.3,6.1-22.3,13.3-22.3,13.3s-0.7-5.5-2.9-8.1
				c0,0-0.1-0.1-0.1-0.1c-2.1-2.5-5.6-3.4-5.6-3.4s1.3-1.3,4.9-4.2c3.6-2.9,14-13.5,18.7-15.7c4.8-2.2,9-1.1,10.2,1.8
				C444.7,311.9,445.6,314.8,445.2,318.1z"/>
			<linearGradient id="SVGID_148_" gradientUnits="userSpaceOnUse" x1="430.6727" y1="320.017" x2="429.8394" y2="336.6836">
				<stop  offset="0" style="stop-color:#59AAC0"/>
				<stop  offset="1" style="stop-color:#4F83C4"/>
			</linearGradient>
			<path class="st158" d="M445.2,318.1c-0.2,1.6-0.6,3.2-1.5,4.9c0,0,0,0,0,0c-0.7,1.3-1.6,2.5-2.8,3.7
				c-6.3,6.1-22.3,13.3-22.3,13.3s-0.3-2.2-1.1-4.5c-0.4-1.3-1-2.6-1.8-3.5c0,0-0.1-0.1-0.1-0.1c3.4-0.4,8.1-1.4,13.7-3.9
				C437.8,324,443,320,445.2,318.1z"/>
			<linearGradient id="SVGID_149_" gradientUnits="userSpaceOnUse" x1="431.1036" y1="320.0385" x2="430.2703" y2="336.7052">
				<stop  offset="0" style="stop-color:#59AAC0"/>
				<stop  offset="1" style="stop-color:#4F83C4"/>
			</linearGradient>
			<path class="st159" d="M443.7,323c-0.7,1.3-1.6,2.5-2.8,3.7c-6.3,6.1-22.3,13.3-22.3,13.3s-0.3-2.2-1.1-4.5
				c3.1-0.5,6.9-1.6,11.3-3.6C436.2,328.5,441.1,325.1,443.7,323z"/>
			<linearGradient id="SVGID_150_" gradientUnits="userSpaceOnUse" x1="449.8684" y1="310.5081" x2="415.7017" y2="321.1747">
				<stop  offset="0" style="stop-color:#59AAC0"/>
				<stop  offset="1" style="stop-color:#68C2C4"/>
			</linearGradient>
			<path class="st160" d="M429,312.8c-4.2,2.5-16.1,13.8-16.1,13.8s19.9-10.1,21.7-12S435.5,309.1,429,312.8z"/>
		</g>
	</g>
</g>
<g id="CLOUD_1">
	<linearGradient id="SVGID_151_" gradientUnits="userSpaceOnUse" x1="352.3872" y1="166.856" x2="462.15" y2="166.856">
		<stop  offset="0" style="stop-color:#E0EDF3"/>
		<stop  offset="1" style="stop-color:#FAF1F1"/>
	</linearGradient>
	<path class="st161" d="M462.1,185.3l-37.8-8.9c0,0,9.1-8.1,4.2-12.7s-14.5,2.5-14.5,2.5s10.9-11.4,4.2-16.6
		c-6.7-5.3-20.3,10.3-20.3,10.3s2.8-5.4-4-6.1c-6.8-0.7-8.8,13.1-8.8,13.1s-3.9-5.1-12.4-1.9c-8.5,3.2-2.6,12.4-2.6,12.4l-17.7,7.9
		H462.1z"/>
</g>
</svg>
