<?xml version="1.0" encoding="utf-8"?>
<!-- Generator: Adobe Illustrator 19.0.0, SVG Export Plug-In . SVG Version: 6.00 Build 0)  -->
<svg version="1.1" xmlns="http://www.w3.org/2000/svg" xmlns:xlink="http://www.w3.org/1999/xlink" x="0px" y="0px"
	 viewBox="0 0 600 600" style="enable-background:new 0 0 600 600;" xml:space="preserve">
<style type="text/css">
	.st0{fill:url(#XMLID_31_);}
	.st1{fill:#ABD6F1;}
	.st2{fill:url(#XMLID_32_);}
	.st3{fill:url(#XMLID_36_);}
	.st4{fill:url(#XMLID_38_);}
	.st5{fill:url(#XMLID_39_);}
	.st6{fill:url(#XMLID_40_);}
	.st7{fill:url(#XMLID_41_);}
	.st8{fill:url(#XMLID_42_);}
	.st9{fill:url(#XMLID_43_);}
	.st10{fill:url(#XMLID_44_);}
	.st11{fill:url(#XMLID_45_);}
	.st12{fill:url(#XMLID_46_);}
	.st13{fill:url(#XMLID_47_);}
	.st14{fill:url(#XMLID_48_);}
	.st15{fill:url(#XMLID_49_);}
	.st16{fill:url(#XMLID_50_);}
	.st17{fill:#1E1D4C;}
	.st18{fill:url(#XMLID_51_);}
	.st19{fill:#ACD5EE;}
	.st20{fill:#8CCFF1;}
	.st21{fill:url(#XMLID_52_);}
	.st22{fill:url(#XMLID_53_);}
	.st23{fill:url(#XMLID_54_);}
	.st24{fill:url(#XMLID_55_);}
	.st25{fill:url(#XMLID_56_);}
	.st26{fill:url(#XMLID_57_);}
	.st27{fill:url(#XMLID_58_);}
	.st28{fill:url(#XMLID_59_);}
	.st29{fill:url(#XMLID_60_);}
	.st30{fill:url(#XMLID_61_);}
	.st31{fill:url(#XMLID_62_);}
	.st32{fill:url(#XMLID_63_);}
	.st33{fill:url(#XMLID_64_);}
	.st34{fill:url(#XMLID_65_);}
	.st35{fill:url(#XMLID_66_);}
	.st36{fill:url(#XMLID_67_);}
	.st37{fill:url(#XMLID_68_);}
	.st38{fill:url(#XMLID_69_);}
	.st39{fill:url(#XMLID_70_);}
	.st40{fill:url(#XMLID_71_);}
	.st41{fill:url(#XMLID_72_);}
	.st42{fill:url(#XMLID_73_);}
	.st43{fill:url(#XMLID_74_);}
	.st44{fill:url(#XMLID_75_);}
	.st45{fill:url(#XMLID_76_);}
	.st46{fill:url(#XMLID_77_);}
	.st47{fill:url(#XMLID_78_);}
	.st48{fill:url(#XMLID_79_);}
	.st49{fill:url(#XMLID_80_);}
	.st50{fill:url(#XMLID_81_);}
	.st51{fill:url(#XMLID_82_);}
	.st52{fill:url(#XMLID_83_);}
	.st53{fill:url(#XMLID_84_);}
	.st54{fill:url(#XMLID_85_);}
	.st55{fill:url(#XMLID_86_);}
	.st56{fill:url(#XMLID_87_);}
	.st57{fill:url(#XMLID_88_);}
	.st58{fill:url(#XMLID_89_);}
	.st59{fill:url(#XMLID_90_);}
	.st60{fill:url(#XMLID_91_);}
	.st61{fill:url(#XMLID_92_);}
	.st62{fill:url(#XMLID_93_);}
	.st63{fill:url(#XMLID_94_);}
	.st64{fill:url(#XMLID_95_);}
	.st65{fill:url(#XMLID_96_);}
	.st66{fill:url(#XMLID_97_);}
	.st67{fill:url(#XMLID_98_);}
	.st68{fill:url(#XMLID_99_);}
	.st69{fill:url(#XMLID_100_);}
	.st70{fill:url(#XMLID_101_);}
	.st71{fill:url(#XMLID_102_);}
	.st72{fill:url(#XMLID_103_);}
	.st73{fill:url(#XMLID_104_);}
	.st74{fill:url(#XMLID_105_);}
	.st75{fill:url(#XMLID_106_);}
	.st76{fill:url(#XMLID_107_);}
	.st77{fill:url(#XMLID_108_);}
	.st78{fill:#FFFFFF;}
	.st79{fill:#F8B143;}
	.st80{fill:#EFE5E9;}
	.st81{fill:url(#XMLID_109_);}
	.st82{fill:url(#XMLID_110_);}
	.st83{fill:url(#XMLID_111_);}
	.st84{fill:url(#XMLID_112_);}
	.st85{fill:url(#XMLID_113_);}
	.st86{fill:url(#XMLID_114_);}
	.st87{fill:url(#XMLID_115_);}
	.st88{fill:url(#XMLID_116_);}
	.st89{fill:url(#XMLID_117_);}
	.st90{fill:url(#XMLID_118_);}
	.st91{fill:url(#XMLID_119_);}
	.st92{fill:url(#XMLID_120_);}
	.st93{fill:url(#XMLID_121_);}
	.st94{fill:url(#XMLID_122_);}
	.st95{fill:url(#XMLID_123_);}
	.st96{fill:url(#XMLID_124_);}
	.st97{fill:url(#XMLID_125_);}
	.st98{fill:url(#XMLID_126_);}
	.st99{fill:url(#XMLID_127_);}
	.st100{fill:url(#XMLID_128_);}
	.st101{fill:url(#XMLID_129_);}
	.st102{fill:url(#XMLID_130_);}
	.st103{fill:url(#XMLID_131_);}
	.st104{fill:url(#XMLID_132_);}
	.st105{fill:url(#XMLID_133_);}
	.st106{fill:url(#XMLID_134_);}
	.st107{fill:url(#XMLID_135_);}
	.st108{fill:url(#XMLID_136_);}
	.st109{fill:url(#XMLID_137_);}
	.st110{fill:url(#XMLID_138_);}
	.st111{fill:url(#XMLID_139_);}
	.st112{fill:url(#XMLID_140_);}
	.st113{fill:url(#XMLID_141_);}
	.st114{fill:url(#XMLID_142_);}
	.st115{fill:url(#XMLID_143_);}
	.st116{fill:url(#XMLID_144_);}
	.st117{fill:url(#XMLID_145_);}
	.st118{fill:url(#XMLID_146_);}
	.st119{fill:url(#XMLID_147_);}
	.st120{fill:url(#XMLID_148_);}
	.st121{fill:url(#XMLID_149_);}
	.st122{fill:url(#XMLID_150_);}
	.st123{fill:url(#XMLID_151_);}
	.st124{fill:url(#XMLID_152_);}
	.st125{fill:url(#XMLID_153_);}
	.st126{fill:url(#XMLID_154_);}
	.st127{fill:url(#XMLID_155_);}
	.st128{fill:url(#XMLID_156_);}
	.st129{fill:url(#XMLID_157_);}
	.st130{fill:url(#XMLID_158_);}
	.st131{fill:url(#XMLID_159_);}
	.st132{fill:url(#XMLID_160_);}
	.st133{fill:url(#XMLID_161_);}
	.st134{fill:url(#XMLID_162_);}
	.st135{fill:url(#XMLID_163_);}
	.st136{fill:url(#XMLID_164_);}
	.st137{fill:url(#XMLID_165_);}
	.st138{fill:url(#XMLID_166_);}
	.st139{fill:url(#XMLID_167_);}
	.st140{fill:url(#XMLID_168_);}
	.st141{fill:url(#XMLID_169_);}
	.st142{fill:url(#XMLID_170_);}
	.st143{fill:url(#XMLID_171_);}
	.st144{fill:url(#XMLID_172_);}
	.st145{fill:url(#XMLID_173_);}
	.st146{fill:url(#XMLID_174_);}
	.st147{fill:url(#XMLID_175_);}
	.st148{fill:url(#XMLID_176_);}
	.st149{fill:url(#XMLID_177_);}
	.st150{fill:url(#XMLID_178_);}
	.st151{fill:url(#XMLID_179_);}
	.st152{fill:url(#XMLID_180_);}
	.st153{fill:url(#XMLID_181_);}
	.st154{fill:url(#XMLID_182_);}
	.st155{fill:url(#XMLID_183_);}
	.st156{fill:url(#XMLID_184_);}
	.st157{fill:url(#XMLID_185_);}
	.st158{fill:url(#XMLID_186_);}
	.st159{fill:url(#XMLID_187_);}
</style>
<g id="CHAT_BOX_1">
	<g id="XMLID_2245_">
		<linearGradient id="XMLID_31_" gradientUnits="userSpaceOnUse" x1="125.3378" y1="222.0247" x2="91.1965" y2="145.9181">
			<stop  offset="0" style="stop-color:#E0EDF3"/>
			<stop  offset="1" style="stop-color:#FAF1F1"/>
		</linearGradient>
		<path id="XMLID_2251_" class="st0" d="M162,202.2H63.6c-1.7,0-3.4-1.4-3.8-3.1L53,170.5c-0.4-1.7,0.6-3.1,2.3-3.1h98.4
			c1.7,0,3.4,1.4,3.8,3.1l6.8,28.5C164.7,200.8,163.7,202.2,162,202.2z"/>
		<g id="XMLID_2247_">
			<path id="XMLID_2250_" class="st1" d="M93.7,178.3H66.8c-0.9,0-1.8-0.7-2-1.6v0c-0.2-0.9,0.3-1.6,1.2-1.6h26.8
				c0.9,0,1.8,0.7,2,1.6v0C95.1,177.6,94.5,178.3,93.7,178.3z"/>
			<path id="XMLID_2249_" class="st1" d="M110.6,186.4H68.8c-0.9,0-1.8-0.7-2-1.6l0,0c-0.2-0.9,0.3-1.6,1.2-1.6h41.8
				c0.9,0,1.8,0.7,2,1.6l0,0C112.1,185.7,111.5,186.4,110.6,186.4z"/>
			<path id="XMLID_2248_" class="st1" d="M112.5,194.6H70.7c-0.9,0-1.8-0.7-2-1.6l0,0c-0.2-0.9,0.3-1.6,1.2-1.6h41.8
				c0.9,0,1.8,0.7,2,1.6l0,0C114,193.8,113.4,194.6,112.5,194.6z"/>
		</g>
		<path id="XMLID_2246_" class="st1" d="M128.5,184.8c-1.3-5.6,2.1-10.1,7.7-10.1s11.2,4.5,12.6,10.1c1.3,5.6-2.1,10.1-7.7,10.1
			S129.9,190.4,128.5,184.8z"/>
	</g>
</g>
<g id="CHAT_BOX_2">
	<g id="XMLID_1386_">
		<linearGradient id="XMLID_32_" gradientUnits="userSpaceOnUse" x1="292.6776" y1="175.4608" x2="475.4758" y2="102.1993">
			<stop  offset="0" style="stop-color:#E0EDF3"/>
			<stop  offset="1" style="stop-color:#FAF1F1"/>
		</linearGradient>
		<path id="XMLID_1373_" class="st2" d="M470,143.1h-98.4c-1.7,0-3.4-1.4-3.8-3.1l-6.8-28.5c-0.4-1.7,0.6-3.1,2.3-3.1h98.4
			c1.7,0,3.4,1.4,3.8,3.1l6.8,28.5C472.7,141.7,471.7,143.1,470,143.1z"/>
		<g id="XMLID_1375_">
			<path id="XMLID_1374_" class="st1" d="M401.6,119.3h-26.8c-0.9,0-1.8-0.7-2-1.6v0c-0.2-0.9,0.3-1.6,1.2-1.6h26.8
				c0.9,0,1.8,0.7,2,1.6v0C403.1,118.6,402.5,119.3,401.6,119.3z"/>
			<path id="XMLID_1381_" class="st1" d="M418.6,127.4h-41.8c-0.9,0-1.8-0.7-2-1.6l0,0c-0.2-0.9,0.3-1.6,1.2-1.6h41.8
				c0.9,0,1.8,0.7,2,1.6l0,0C420,126.7,419.5,127.4,418.6,127.4z"/>
			<path id="XMLID_1382_" class="st1" d="M420.5,135.5h-41.8c-0.9,0-1.8-0.7-2-1.6l0,0c-0.2-0.9,0.3-1.6,1.2-1.6h41.8
				c0.9,0,1.8,0.7,2,1.6l0,0C422,134.8,421.4,135.5,420.5,135.5z"/>
		</g>
		<path id="XMLID_1385_" class="st1" d="M436.5,125.8c-1.3-5.6,2.1-10.1,7.7-10.1c5.6,0,11.2,4.5,12.6,10.1
			c1.3,5.6-2.1,10.1-7.7,10.1C443.5,135.9,437.8,131.4,436.5,125.8z"/>
	</g>
</g>
<g id="FOLDER_1">
	<g id="XMLID_2235_">
		
			<linearGradient id="XMLID_36_" gradientUnits="userSpaceOnUse" x1="108.6128" y1="261.2513" x2="178.5217" y2="264.8673" gradientTransform="matrix(1.0069 4.141525e-002 0 1 -1.3316 -7.9899)">
			<stop  offset="0.1179" style="stop-color:#EE5A77"/>
			<stop  offset="1" style="stop-color:#801C56"/>
		</linearGradient>
		<path id="XMLID_2243_" class="st3" d="M123.7,228l56.9,0.5c3.6,0,6.6,2.8,7,6.4l6.8,53.6c0.3,3.6-2.2,6.7-5.8,7l-49.6,1.1
			c-3.4,0.3-6.6-1.9-7.5-5.3l-14.1-55.2C116.3,231.9,119.3,227.9,123.7,228z"/>
		
			<linearGradient id="XMLID_38_" gradientUnits="userSpaceOnUse" x1="163.3725" y1="264.4777" x2="147.2263" y2="242.2767" gradientTransform="matrix(1.0069 4.141525e-002 0 1 -1.3316 -7.9899)">
			<stop  offset="0" style="stop-color:#E0EDF3"/>
			<stop  offset="1" style="stop-color:#FAF1F1"/>
		</linearGradient>
		<path id="XMLID_2241_" class="st4" d="M193.4,237.2l-0.1,1.7l0.3,51.5c-0.1,2.1-1.7,3.8-3.8,4l-50.9,1c-2.3,0.2-4.5-1.4-4.9-3.7
			l-4.2-22.9l-5.7-31.6c-0.5-2.6,1.4-4.9,4.1-5l60.7,0.3C191.3,232.4,193.5,234.6,193.4,237.2z"/>
		
			<linearGradient id="XMLID_39_" gradientUnits="userSpaceOnUse" x1="152.255" y1="240.2389" x2="136.6854" y2="204.7749" gradientTransform="matrix(1.0069 4.141525e-002 0 1 -1.3316 -7.9899)">
			<stop  offset="0" style="stop-color:#E0EDF3"/>
			<stop  offset="1" style="stop-color:#FAF1F1"/>
		</linearGradient>
		<path id="XMLID_2239_" class="st5" d="M193.3,238.9l0.3,51.5c-0.1,2.1-1.7,3.8-3.8,4l-50.9,1c-2.3,0.2-4.5-1.4-4.9-3.7l-4.2-22.9
			c0.5-0.8,0.9-1.8,1.2-3.1c1.5-6.9,1.2-23.1,1.2-23.1L193.3,238.9z"/>
		
			<linearGradient id="XMLID_40_" gradientUnits="userSpaceOnUse" x1="125.7275" y1="274.0116" x2="186.2617" y2="260.0833" gradientTransform="matrix(1.0329 6.744106e-002 0 1 -4.8668 -9.525)">
			<stop  offset="0.1179" style="stop-color:#EE5A77"/>
			<stop  offset="1" style="stop-color:#801C56"/>
		</linearGradient>
		<path id="XMLID_2238_" class="st6" d="M201.8,236.7l-5,44.5l-2,11c-0.4,1.9-1.9,3.4-3.7,3.5l-53.9-0.3c-2.6,0.2-5-2.2-5-5v-47.1
			c0-2.4,1.8-4.3,4-4.4l36.3-0.6c1.6,0,3-1,3.7-2.5l1-2.3c0.6-1.6,2.1-2.5,3.7-2.5l16.3-0.1C200,230.9,202.3,233.8,201.8,236.7z"/>
		
			<linearGradient id="XMLID_41_" gradientUnits="userSpaceOnUse" x1="117.6284" y1="272.6344" x2="171.4663" y2="274.2415" gradientTransform="matrix(1.0329 6.744106e-002 0 1 -4.8668 -9.525)">
			<stop  offset="0.1179" style="stop-color:#EE5A77"/>
			<stop  offset="1" style="stop-color:#801C56"/>
		</linearGradient>
		<path id="XMLID_2237_" class="st7" d="M197,279.2l-1.9,11.2l-0.3,1.9c-0.4,1.9-1.9,3.4-3.7,3.5l-53.9-0.3c-2.6,0.2-5-2.2-5-5
			v-38.8c4.1-1.4,10-2.1,16.9,1.9c12.3,7.2,21.1,20,32.4,24.9C188.2,281.4,191.7,279.8,197,279.2z"/>
		
			<linearGradient id="XMLID_42_" gradientUnits="userSpaceOnUse" x1="108.1723" y1="277.0764" x2="208.2144" y2="287.5225" gradientTransform="matrix(1.0329 6.744106e-002 0 1 -4.8668 -9.525)">
			<stop  offset="0.1179" style="stop-color:#EE5A77"/>
			<stop  offset="1" style="stop-color:#801C56"/>
		</linearGradient>
		<path id="XMLID_2236_" class="st8" d="M195.1,290.4l-0.3,1.9c-0.4,1.9-1.9,3.4-3.7,3.5l-53.9-0.3c-2.6,0.2-5-2.2-5-5v-25.3
			c4-0.9,9.8-1.2,16.3,1.9c12.3,5.8,20.4,18.2,31.9,21.5C186.2,290.2,191.9,291.1,195.1,290.4z"/>
	</g>
</g>
<g id="SCREEN_1">
	<g id="XMLID_27_">
		<g id="XMLID_2224_">
			<linearGradient id="XMLID_43_" gradientUnits="userSpaceOnUse" x1="349.3536" y1="461.342" x2="226.6591" y2="69.7865">
				<stop  offset="0.1179" style="stop-color:#755884"/>
				<stop  offset="1" style="stop-color:#343977"/>
			</linearGradient>
			<path id="XMLID_35_" class="st9" d="M401.3,405.8L252.8,416c-5.4,0.4-10.3-3.3-11.6-8.6l-67.7-295.6c-1-4.6,2.4-8.9,7-9l76.2-0.9
				l63-0.7c4.9-0.1,9.1,3.2,10.4,7.9l5.4,20.2l72,267.6C408.8,401.2,405.7,405.5,401.3,405.8z"/>
			<linearGradient id="XMLID_44_" gradientUnits="userSpaceOnUse" x1="288.3157" y1="73.8668" x2="362.2609" y2="464.72">
				<stop  offset="0.1179" style="stop-color:#755884"/>
				<stop  offset="1" style="stop-color:#343977"/>
			</linearGradient>
			<path id="XMLID_33_" class="st10" d="M335.7,130.2c0,0-4.6-14.9-6.1-18.7c-1.5-3.8-3-7.5-8.5-8.5c-4.1-0.7-44.6-0.8-64.2-1
				l63-0.7c4.9-0.1,9.1,3.2,10.4,7.9l5.4,20.2L335.7,130.2z"/>
			<linearGradient id="XMLID_45_" gradientUnits="userSpaceOnUse" x1="302.9643" y1="315.0154" x2="397.3816" y2="681.4825">
				<stop  offset="0" style="stop-color:#E0EDF3"/>
				<stop  offset="1" style="stop-color:#54A4C1"/>
			</linearGradient>
			<path id="XMLID_1388_" class="st11" d="M182.8,115l66.3,290.1c0.4,1.9,2.2,3.2,4.2,3.1l143.4-9.8c2.5-0.2,4.2-2.6,3.6-5
				L325,111.6c-0.5-1.8-2.1-3-3.9-3l-134.5,1.5C184.1,110.2,182.2,112.6,182.8,115z"/>
			<g id="XMLID_1394_">
				<linearGradient id="XMLID_46_" gradientUnits="userSpaceOnUse" x1="165.0872" y1="93.1477" x2="206.1634" y2="310.265">
					<stop  offset="0" style="stop-color:#755884"/>
					<stop  offset="0.4462" style="stop-color:#343977"/>
					<stop  offset="0.9946" style="stop-color:#1E1D4D"/>
				</linearGradient>
				<polygon id="XMLID_1389_" class="st12" points="241.3,407.4 223.8,424.5 155.5,131.2 173.8,112.5 				"/>
				<linearGradient id="XMLID_47_" gradientUnits="userSpaceOnUse" x1="162.9102" y1="93.5596" x2="203.9865" y2="310.6768">
					<stop  offset="0.1179" style="stop-color:#755884"/>
					<stop  offset="1" style="stop-color:#343977"/>
				</linearGradient>
				<path id="XMLID_1391_" class="st13" d="M155.5,131.2l18.2-18.7c0,0-1-2.9,0.3-5.5s2.7-3.2,3.5-3.5c0.8-0.3,1.7-0.6,1.7-0.6
					s-3.9-0.4-8.7,3.6c-4.8,4.1-13.8,14.4-13.8,14.4S153.5,123.9,155.5,131.2z"/>
				<linearGradient id="XMLID_48_" gradientUnits="userSpaceOnUse" x1="175.4014" y1="91.1964" x2="216.4776" y2="308.3137">
					<stop  offset="0" style="stop-color:#755884"/>
					<stop  offset="0.4462" style="stop-color:#343977"/>
					<stop  offset="0.9946" style="stop-color:#1E1D4D"/>
				</linearGradient>
				<path id="XMLID_1392_" class="st14" d="M241.3,407.4c0,0,0.5,2.1,2.3,4.7c1.8,2.6,5.9,3.8,7.9,3.9L235,432.7
					c0,0-3.2,0.3-6.5-1.3s-4.7-6.8-4.7-6.8L241.3,407.4z"/>
				<linearGradient id="XMLID_49_" gradientUnits="userSpaceOnUse" x1="140.4847" y1="378.2551" x2="515.5055" y2="466.8091">
					<stop  offset="0" style="stop-color:#755884"/>
					<stop  offset="0.4462" style="stop-color:#343977"/>
					<stop  offset="0.9946" style="stop-color:#1E1D4D"/>
				</linearGradient>
				<polygon id="XMLID_1390_" class="st15" points="235,432.7 387.2,423.3 394.9,406.2 251.5,416 				"/>
				<linearGradient id="XMLID_50_" gradientUnits="userSpaceOnUse" x1="146.4662" y1="352.9238" x2="521.487" y2="441.4778">
					<stop  offset="0" style="stop-color:#755884"/>
					<stop  offset="0.4462" style="stop-color:#343977"/>
					<stop  offset="0.9946" style="stop-color:#1E1D4D"/>
				</linearGradient>
				<path id="XMLID_1393_" class="st16" d="M387.2,423.3c0,0,4.9-0.4,7.7-0.5c2.8-0.1,6.6-1.6,8.2-6.8c1.9-6.5,4.4-15,4.4-15
					s-1.8,3.6-4.3,4.1c-2.5,0.5-8.3,1.2-8.3,1.2L387.2,423.3z"/>
				<path id="XMLID_2233_" class="st17" d="M311.5,417l39.1-2.5c1.8-0.1,3.1,1.6,2.6,3.3l0,0.2c-0.3,1-1.2,1.7-2.3,1.8l-39,2.3
					c-1.8,0.1-3.1-1.6-2.6-3.3l0,0C309.6,417.7,310.5,417,311.5,417z"/>
			</g>
			<linearGradient id="XMLID_51_" gradientUnits="userSpaceOnUse" x1="369.8952" y1="454.9052" x2="247.1999" y2="63.3472">
				<stop  offset="0.1179" style="stop-color:#755884"/>
				<stop  offset="1" style="stop-color:#343977"/>
			</linearGradient>
			<path id="XMLID_1395_" class="st18" d="M226,103.9l8,14.2c1.7,2.2,4.3,3.5,7.1,3.4l44.5-1.3c2.6-0.1,4.8-1.9,5.4-4.4l2.7-11.8
				H226z"/>
		</g>
		<g id="XMLID_2234_">
			<g id="XMLID_2219_">
				<g id="XMLID_1402_">
					<path id="XMLID_1399_" class="st19" d="M322.4,387.8c-0.8-5,2.7-9.6,7.7-10.3c5-0.7,9.7,2.8,10.5,7.8c0.8,5-2.7,9.6-7.7,10.3
						C327.8,396.3,323.1,392.8,322.4,387.8z"/>
					<path id="XMLID_1401_" class="st20" d="M324,387.6c-0.6-4.1,2.2-7.9,6.3-8.4c4.1-0.6,8,2.3,8.6,6.4c0.6,4.1-2.2,7.9-6.3,8.4
						C328.5,394.5,324.6,391.7,324,387.6z"/>
				</g>
				<g id="XMLID_2218_">
					<g id="XMLID_1397_">
						
							<linearGradient id="XMLID_52_" gradientUnits="userSpaceOnUse" x1="308.5641" y1="308.2176" x2="290.989" y2="201.79" gradientTransform="matrix(1.0075 1.247895e-002 0 1 -1.9211 -3.2018)">
							<stop  offset="0" style="stop-color:#E0EDF3"/>
							<stop  offset="1" style="stop-color:#54A4C1"/>
						</linearGradient>
						<path id="XMLID_2221_" class="st21" d="M377.5,362L259,368.5c-2.6,0.1-4.9-1.6-5.4-4l-0.5-2.4l-1-4.5l-1.2-5.4
							c-0.7-2.9,1.5-5.7,4.6-5.8l118.4-6.5c2.5-0.1,4.9,1.6,5.4,4l1.3,5.6l1.1,4.9l0.4,1.8C382.7,359.1,380.5,361.8,377.5,362z"/>
						
							<linearGradient id="XMLID_53_" gradientUnits="userSpaceOnUse" x1="320.9384" y1="388.8611" x2="312.1508" y2="321.9777" gradientTransform="matrix(1.0075 1.247895e-002 0 1 -1.9211 -3.2018)">
							<stop  offset="0" style="stop-color:#24ACE3"/>
							<stop  offset="1" style="stop-color:#465A8C"/>
						</linearGradient>
						<path id="XMLID_2242_" class="st22" d="M382,358.5c-0.6,1.9-2.3,3.4-4.5,3.5L259,368.5c-2.6,0.1-4.9-1.6-5.4-4l0,0l-1.5-6.9
							c1.8-1.8,4.7-3.7,9.2-4c8.4-0.5,10.7,8.8,21.5,8.2c10.8-0.6,8.2-9.3,16.7-10.3c8.6-1,12.6,7.6,21.8,5.4
							c9.2-2.3,7-10.4,14.3-11.3c7.3-0.9,12.2,10.8,21.7,9.9c9.5-0.9,4.8-7.3,11.8-8.7c4.5-0.9,8.9,1.1,11.5,2.7l1.5,6.7
							C382.2,357,382.2,357.8,382,358.5z"/>
						
							<linearGradient id="XMLID_54_" gradientUnits="userSpaceOnUse" x1="313.2964" y1="313.0587" x2="318.9597" y2="379.6689" gradientTransform="matrix(1.0075 1.247895e-002 0 1 -1.9211 -3.2018)">
							<stop  offset="0" style="stop-color:#4ABDCD"/>
							<stop  offset="1" style="stop-color:#0796AF"/>
						</linearGradient>
						<path id="XMLID_2240_" class="st23" d="M382,358.5c-0.6,1.9-2.3,3.4-4.5,3.5L259,368.5c-2.6,0.1-4.9-1.6-5.4-4l0,0
							c1.9-1,4.9-2.1,8.9-2.3c8.4-0.5,9.9,5.1,20.6,4.5c10.8-0.6,8.9-5.8,17.6-6.6c8.6-0.8,11.8,4.3,21.2,2.8
							c9.3-1.6,7.9-6.4,15.2-7.1c7.3-0.7,11.2,6.2,20.8,5.5c9.5-0.7,5.4-4.5,12.5-5.5c4.6-0.6,8.8,0.5,11.2,1.4L382,358.5z"/>
					</g>
					<g id="XMLID_1404_">
						<path id="XMLID_1403_" class="st19" d="M365.2,311.9l-27.9,1.1c-1.5,0.1-2.9-0.8-3.2-1.9l-0.8-3.6c-0.3-1.1,0.7-2,2.2-2.1
							l27.9-1.1c1.5-0.1,2.9,0.8,3.2,1.9l0.8,3.6C367.7,310.9,366.7,311.8,365.2,311.9z"/>
						<path id="XMLID_1406_" class="st19" d="M362.2,298.6l-27.9,1.1c-1.5,0.1-2.9-0.8-3.2-1.9l-0.8-3.6c-0.3-1.1,0.7-2,2.2-2.1
							l27.9-1.1c1.5-0.1,2.9,0.8,3.2,1.9l0.8,3.6C364.6,297.6,363.6,298.5,362.2,298.6z"/>
					</g>
				</g>
			</g>
		</g>
	</g>
</g>
<g id="SCREEN_2">
	<g id="XMLID_2214_">
		
			<linearGradient id="XMLID_55_" gradientUnits="userSpaceOnUse" x1="255.1314" y1="209.6441" x2="351.1537" y2="131.4037" gradientTransform="matrix(1.0119 1.786916e-002 0 1 -2.0538 -3.0807)">
			<stop  offset="0" style="stop-color:#ACD5EE"/>
			<stop  offset="1" style="stop-color:#FAF1F1;stop-opacity:0"/>
		</linearGradient>
		<path id="XMLID_2437_" class="st24" d="M365,244.7l-108,7l-31.3,2c-3.2,0.2-6.1-1.9-6.8-5l-6-25.1l-19-79.6c-1-4,2.1-7.7,6.2-7.7
			l137.4,0c2.9,0,5.5,2,6.3,4.8l26.9,95.7C371.8,240.6,369.1,244.4,365,244.7z"/>
		<g id="XMLID_2212_">
			
				<linearGradient id="XMLID_56_" gradientUnits="userSpaceOnUse" x1="197.4888" y1="187.976" x2="372.6091" y2="187.976" gradientTransform="matrix(1.0119 1.786916e-002 0 1 -2.0538 -3.0807)">
				<stop  offset="0" style="stop-color:#E0EDF3"/>
				<stop  offset="1" style="stop-color:#FAF1F1"/>
			</linearGradient>
			<path id="XMLID_1437_" class="st25" d="M369.1,239.7l-108,7l-31.3,2c-3.2,0.2-6.1-1.9-6.8-5l-6-25.1L198,139
				c-1-4,2.1-7.7,6.2-7.7l137.4,0c2.9,0,5.5,2,6.3,4.8l26.9,95.7C375.8,235.6,373.1,239.4,369.1,239.7z"/>
			<g id="XMLID_2428_">
				<g id="XMLID_1413_">
					
						<linearGradient id="XMLID_57_" gradientUnits="userSpaceOnUse" x1="347.4512" y1="98.8329" x2="321.8452" y2="240.7326" gradientTransform="matrix(1.0119 1.786916e-002 0 1 -2.0538 -3.0807)">
						<stop  offset="0.1179" style="stop-color:#24245A"/>
						<stop  offset="1" style="stop-color:#343977"/>
					</linearGradient>
					<polygon id="XMLID_1428_" class="st26" points="370.1,203.7 321,205.2 303,141.8 353,142.7 353.9,146.1 369.2,200.5 					"/>
					
						<linearGradient id="XMLID_58_" gradientUnits="userSpaceOnUse" x1="322.9719" y1="145.8329" x2="355.8694" y2="204.8338" gradientTransform="matrix(1.0119 1.786916e-002 0 1 -2.0538 -3.0807)">
						<stop  offset="0" style="stop-color:#E0EDF3"/>
						<stop  offset="1" style="stop-color:#FAF1F1"/>
					</linearGradient>
					<polygon id="XMLID_1426_" class="st27" points="369.8,201 323.4,201.9 307.2,144.5 354.1,145.3 					"/>
				</g>
				<g id="XMLID_1415_">
					<path id="XMLID_1414_" class="st19" d="M337.9,156.4l-17.8-0.1c-0.4,0-0.7-0.3-0.9-0.7l0,0c-0.2-0.6,0.3-1.2,0.9-1.2l17.8,0.1
						c0.4,0,0.7,0.3,0.9,0.7l0,0C338.9,155.8,338.5,156.4,337.9,156.4z"/>
					<path id="XMLID_1416_" class="st19" d="M345.3,163.3l-23.2-0.1c-0.4,0-0.7-0.3-0.9-0.7l0,0c-0.2-0.6,0.3-1.2,0.9-1.2l23.2,0.1
						c0.4,0,0.7,0.3,0.9,0.7l0,0C346.3,162.7,345.8,163.3,345.3,163.3z"/>
					<path id="XMLID_1417_" class="st19" d="M347.1,170.2l-23.2-0.1c-0.4,0-0.7-0.3-0.9-0.7l0,0c-0.2-0.6,0.3-1.2,0.9-1.2l23.2,0.1
						c0.4,0,0.7,0.3,0.9,0.7l0,0C348.1,169.6,347.7,170.2,347.1,170.2z"/>
					<path id="XMLID_1420_" class="st19" d="M354.7,177.1l-29-0.1c-0.4,0-0.7-0.3-0.9-0.7l0,0c-0.2-0.6,0.3-1.2,0.9-1.2l29,0.1
						c0.4,0,0.7,0.3,0.9,0.7l0,0C355.7,176.5,355.3,177.1,354.7,177.1z"/>
					<path id="XMLID_1422_" class="st19" d="M345.3,183.9l-17.8-0.1c-0.4,0-0.7-0.3-0.9-0.7l0,0c-0.2-0.6,0.3-1.2,0.9-1.2l17.8,0.1
						c0.4,0,0.7,0.3,0.9,0.7v0C346.3,183.3,345.9,183.9,345.3,183.9z"/>
					<path id="XMLID_1425_" class="st19" d="M360.1,190.8l-30.7-0.1c-0.4,0-0.7-0.3-0.9-0.7l0,0c-0.2-0.6,0.3-1.2,0.9-1.2l30.7,0.1
						c0.4,0,0.7,0.3,0.9,0.7l0,0C361.1,190.3,360.7,190.8,360.1,190.8z"/>
				</g>
			</g>
			<g id="XMLID_2435_">
				<g id="XMLID_2433_">
					
						<linearGradient id="XMLID_59_" gradientUnits="userSpaceOnUse" x1="244.7966" y1="257.9397" x2="228.9707" y2="196.4143" gradientTransform="matrix(1.0119 1.786916e-002 0 1 -2.0538 -3.0807)">
						<stop  offset="0.1231" style="stop-color:#E8A759"/>
						<stop  offset="1" style="stop-color:#E2713C"/>
					</linearGradient>
					<path id="XMLID_1435_" class="st28" d="M261.1,246.6l-31.3,2c-3.2,0.2-6.1-1.9-6.8-5l-6-25.1l36.7-0.8L261.1,246.6z"/>
					
						<linearGradient id="XMLID_60_" gradientUnits="userSpaceOnUse" x1="233.3697" y1="209.0545" x2="241.3715" y2="259.0217" gradientTransform="matrix(1.0119 1.786916e-002 0 1 -2.0538 -3.0807)">
						<stop  offset="0.1231" style="stop-color:#E8A759"/>
						<stop  offset="1" style="stop-color:#E2713C"/>
					</linearGradient>
					<polygon id="XMLID_1412_" class="st29" points="218.2,224 254.9,222.9 252.7,214.8 216.1,215.1 					"/>
				</g>
				<g id="XMLID_2434_">
					
						<linearGradient id="XMLID_61_" gradientUnits="userSpaceOnUse" x1="227.1351" y1="207.0106" x2="244.8282" y2="207.0106" gradientTransform="matrix(1.0119 1.786916e-002 0 1 -2.0538 -3.0807)">
						<stop  offset="0.1179" style="stop-color:#24245A"/>
						<stop  offset="1" style="stop-color:#343977"/>
					</linearGradient>
					<path id="XMLID_1429_" class="st30" d="M227.8,201.1c0,0,3,8.2,4,10.9c1,2.7,1.5,3.1,1.5,3.1l12.4-0.1l-1.6-13.5L227.8,201.1z"
						/>
					<g id="XMLID_1433_">
						
							<linearGradient id="XMLID_62_" gradientUnits="userSpaceOnUse" x1="227.8148" y1="176.1151" x2="234.3941" y2="204.744" gradientTransform="matrix(1.0119 1.786916e-002 0 1 -2.0538 -3.0807)">
							<stop  offset="0.1231" style="stop-color:#FFD65B"/>
							<stop  offset="0.9692" style="stop-color:#F7923A"/>
						</linearGradient>
						<path id="XMLID_1427_" class="st31" d="M236.2,201.6c0,0-3.5-4.3-5.6-7.3s-2.1-6.1-0.7-6.7c1.4-0.6,2.8,2.6,4.9,7.2
							C236.8,199.5,236.2,201.6,236.2,201.6z"/>
						
							<linearGradient id="XMLID_63_" gradientUnits="userSpaceOnUse" x1="234.0312" y1="174.6865" x2="240.6105" y2="203.3154" gradientTransform="matrix(1.0119 1.786916e-002 0 1 -2.0538 -3.0807)">
							<stop  offset="0.1231" style="stop-color:#FFD65B"/>
							<stop  offset="0.9692" style="stop-color:#F7923A"/>
						</linearGradient>
						<path id="XMLID_1430_" class="st32" d="M241.4,189.9c-1.1,0.1-3.9,2.3-4.8,4.7c-0.9,2.4-0.7,3.9-0.7,3.9s3.8-4.5,5.2-5.5
							S242.8,189.8,241.4,189.9z"/>
						
							<linearGradient id="XMLID_64_" gradientUnits="userSpaceOnUse" x1="229.9684" y1="175.6201" x2="236.5478" y2="204.249" gradientTransform="matrix(1.0119 1.786916e-002 0 1 -2.0538 -3.0807)">
							<stop  offset="0.1231" style="stop-color:#FFD65B"/>
							<stop  offset="0.9692" style="stop-color:#F7923A"/>
						</linearGradient>
						<path id="XMLID_1431_" class="st33" d="M235.5,196.7c0,0,0.2-12.7-2.6-18.2s-3.9-4.6-4-1.3c-0.1,3.2,1.8,8.2,3.5,11.5
							S235.5,196.7,235.5,196.7z"/>
						
							<linearGradient id="XMLID_65_" gradientUnits="userSpaceOnUse" x1="234.39" y1="174.604" x2="240.9693" y2="203.2329" gradientTransform="matrix(1.0119 1.786916e-002 0 1 -2.0538 -3.0807)">
							<stop  offset="0.1231" style="stop-color:#FFD65B"/>
							<stop  offset="0.9692" style="stop-color:#F7923A"/>
						</linearGradient>
						<path id="XMLID_1432_" class="st34" d="M239.2,178.8c-2.3-0.1-3.4,6.3-3.6,8.4c-0.3,2.1,0.3,10.6,0.3,10.6s2.8-9,3.8-12.6
							C240.7,181.4,241.1,178.9,239.2,178.8z"/>
					</g>
				</g>
			</g>
		</g>
	</g>
</g>
<g id="F_LEFT_ARM_1">
	<g id="XMLID_2405_">
		
			<linearGradient id="XMLID_66_" gradientUnits="userSpaceOnUse" x1="3188.2759" y1="16.4741" x2="3201.1887" y2="29.0426" gradientTransform="matrix(-0.9861 6.837250e-002 0.296 0.9209 3444.3435 -48.399)">
			<stop  offset="0.1179" style="stop-color:#EE5A77"/>
			<stop  offset="1" style="stop-color:#801C56"/>
		</linearGradient>
		<path id="XMLID_2407_" class="st35" d="M292.5,192.5c3.1,2,6.9,4.3,12.8,7.4c4.4,2.3,10.9,5.1,13.8,3.3c0.4-0.2,0.7-0.6,1-1
			c2-3.5-0.6-5.4-4.4-8.5c-3.1-2.5-26.5-17.5-27.4-17.6c-2.6-0.5-4.6-0.9-5.3,3.3c-0.1,0.4-0.1,0.8-0.2,1.3
			C282.4,186.3,289.2,190.4,292.5,192.5z"/>
		
			<linearGradient id="XMLID_67_" gradientUnits="userSpaceOnUse" x1="3166.9053" y1="10.8278" x2="3198.3552" y2="24.7163" gradientTransform="matrix(-0.9861 6.837250e-002 0.296 0.9209 3444.3435 -48.399)">
			<stop  offset="0.1179" style="stop-color:#EE5A77"/>
			<stop  offset="1" style="stop-color:#801C56"/>
		</linearGradient>
		<path id="XMLID_2406_" class="st36" d="M292.5,192.5c3.1,2,6.9,4.3,12.8,7.4c4.4,2.3,10.9,5.1,13.8,3.3c-2.6-1.2-5.8-3.1-10.4-5.4
			c-10.3-5.1-22.4-15.5-25.7-18.5c-0.1,0.4-0.1,0.8-0.2,1.3C282.4,186.3,289.2,190.4,292.5,192.5z"/>
	</g>
</g>
<g id="F_LEFT_ARM_2">
	<g id="XMLID_2391_">
		<g id="XMLID_2395_">
			<g id="XMLID_2397_">
				
					<linearGradient id="XMLID_68_" gradientUnits="userSpaceOnUse" x1="3152.0723" y1="-0.7085" x2="3165.4155" y2="13.4956" gradientTransform="matrix(-0.9861 6.837250e-002 0.296 0.9209 3444.3435 -48.399)">
					<stop  offset="0" style="stop-color:#C66B50"/>
					<stop  offset="1" style="stop-color:#7B452B"/>
				</linearGradient>
				<path id="XMLID_2404_" class="st37" d="M325.4,178.8c0,0,1-2.2,0.9-2.5s0.7-2.8,1.1-3.4c0.4-0.6,2.4-0.4,3.3-0.9
					c0.9-0.5,1.6-0.4,2,0.4c0.4,0.8,2,2.9,1.8,3.6c-0.2,0.7-1.5,2.6-2.6,3.1c-0.8,0.4-1.7,1.2-1.7,1.3s-0.5,1.2-0.5,1.2L325.4,178.8
					z"/>
				
					<linearGradient id="XMLID_69_" gradientUnits="userSpaceOnUse" x1="3153.5522" y1="-2.0987" x2="3166.8955" y2="12.1054" gradientTransform="matrix(-0.9861 6.837250e-002 0.296 0.9209 3444.3435 -48.399)">
					<stop  offset="0" style="stop-color:#C66B50"/>
					<stop  offset="1" style="stop-color:#7B452B"/>
				</linearGradient>
				<path id="XMLID_2403_" class="st38" d="M328.4,172.3c0,0,2.5-3.5,3.1-4.5s1.3-1.6,1.8-1.4s0.4,1-0.3,2.4
					c-0.7,1.5-2.3,3.9-2.3,3.9l-2.1,1.2C328.6,173.9,328.1,173.5,328.4,172.3z"/>
				
					<linearGradient id="XMLID_70_" gradientUnits="userSpaceOnUse" x1="3101.7996" y1="-376.6571" x2="3106.6777" y2="-374.3328" gradientTransform="matrix(-0.9376 0.191 0.4253 0.9034 3403.2676 -77.9218)">
					<stop  offset="0" style="stop-color:#C66B50"/>
					<stop  offset="1" style="stop-color:#7B452B"/>
				</linearGradient>
				<path id="XMLID_2402_" class="st39" d="M335.1,174.5c0.5,0.5,0.2,0.8-0.6,1.5s-1.9,1.1-2.5,0.7c-0.7-0.4-0.3-0.9,0.3-1.4
					C332.9,174.7,334.3,173.7,335.1,174.5z"/>
				
					<linearGradient id="XMLID_71_" gradientUnits="userSpaceOnUse" x1="3102.6189" y1="-378.1793" x2="3106.5215" y2="-375.9124" gradientTransform="matrix(-0.9376 0.191 0.4253 0.9034 3403.2676 -77.9218)">
					<stop  offset="0" style="stop-color:#C66B50"/>
					<stop  offset="1" style="stop-color:#7B452B"/>
				</linearGradient>
				<path id="XMLID_2401_" class="st40" d="M334.3,172.9c0.6,0.6,0.2,0.8-0.6,1.6c-0.8,0.7-2,1.1-2.7,0.7s-0.3-1,0.3-1.5
					C332.1,173.2,333.6,172.1,334.3,172.9z"/>
				
					<linearGradient id="XMLID_72_" gradientUnits="userSpaceOnUse" x1="3103.5764" y1="-379.9784" x2="3105.5564" y2="-376.6641" gradientTransform="matrix(-0.9376 0.191 0.4253 0.9034 3403.2676 -77.9218)">
					<stop  offset="0" style="stop-color:#C66B50"/>
					<stop  offset="1" style="stop-color:#7B452B"/>
				</linearGradient>
				<path id="XMLID_2400_" class="st41" d="M333.5,171.3c0.6,0.6,0.2,0.9-0.6,1.6c-0.8,0.8-2,1.2-2.8,0.7c-0.7-0.4-0.4-1,0.3-1.6
					C331.2,171.5,332.7,170.4,333.5,171.3z"/>
				
					<linearGradient id="XMLID_73_" gradientUnits="userSpaceOnUse" x1="3160.2041" y1="0.8503" x2="3165.4268" y2="13.1893" gradientTransform="matrix(-0.9861 6.837250e-002 0.296 0.9209 3444.3435 -48.399)">
					<stop  offset="0" style="stop-color:#C66B50"/>
					<stop  offset="1" style="stop-color:#7B452B"/>
				</linearGradient>
				<path id="XMLID_2399_" class="st42" d="M329.9,177.6c0.3-0.3,0.6-1-0.3-2.6c-0.9-1.6-1.5-2.7-2.5-3.3s-1.6-0.7-1.8,0
					c-0.2,0.7-0.1,1.6,0.2,3.1c0.2,1.1,0.2,2.2,1,2.9C327.4,178.5,329.2,178.4,329.9,177.6z"/>
				
					<linearGradient id="XMLID_74_" gradientUnits="userSpaceOnUse" x1="3159.6675" y1="1.0775" x2="3164.8901" y2="13.4164" gradientTransform="matrix(-0.9861 6.837250e-002 0.296 0.9209 3444.3435 -48.399)">
					<stop  offset="0" style="stop-color:#C66B50"/>
					<stop  offset="1" style="stop-color:#7B452B"/>
				</linearGradient>
				<path id="XMLID_2398_" class="st43" d="M325.7,171.2c0.2-0.2,1.4-0.5,3.1-0.4c1.7,0,2.6-0.4,2.9,0.1c0.3,0.5-0.3,1.1-1.6,1.5
					c-1.2,0.4-2,0.7-2.5,0.6C327.1,172.9,325,172.1,325.7,171.2z"/>
			</g>
			
				<linearGradient id="XMLID_75_" gradientUnits="userSpaceOnUse" x1="3162.1575" y1="14.6746" x2="3169.7432" y2="14.6746" gradientTransform="matrix(-0.9861 6.837250e-002 0.296 0.9209 3444.3435 -48.399)">
				<stop  offset="0.1126" style="stop-color:#26245A"/>
				<stop  offset="1" style="stop-color:#393B78"/>
			</linearGradient>
			<path id="XMLID_2396_" class="st44" d="M323.1,181.8l1.3-3.9c0,0,2.1,0.3,4.1,1.8c1.3,1,2.5,2.5,2.5,2.5l-2.4,2.9
				c0,0-1-1.5-2.5-2.3C324.5,182.1,323.1,181.8,323.1,181.8z"/>
		</g>
		<g id="XMLID_2392_">
			
				<linearGradient id="XMLID_76_" gradientUnits="userSpaceOnUse" x1="3168.874" y1="13.5514" x2="3196.8804" y2="53.1508" gradientTransform="matrix(-0.9861 6.837250e-002 0.296 0.9209 3444.3435 -48.399)">
				<stop  offset="0.1179" style="stop-color:#EE5A77"/>
				<stop  offset="1" style="stop-color:#801C56"/>
			</linearGradient>
			<path id="XMLID_2394_" class="st45" d="M310.6,198.9c0.3,1,0.9,1.8,1.6,2.6c0.6,0.7,1.3,1.2,2.1,1.6c0,0,0,0,0,0
				c0.3,0.2,0.7,0.3,1,0.4c0.1,0,0.2,0.1,0.3,0.1c2.8,0.7,4.5-0.6,5.9-2.8c1.4-2.2,7.8-15.8,7.8-15.9c0-0.1-0.4-0.9-1.9-1.9
				c-0.1-0.1-0.2-0.1-0.3-0.2c-1.7-1.1-4.9-2.3-4.9-2.3s-9.8,10.7-11.3,14C310.1,196.1,310.2,197.6,310.6,198.9z"/>
			
				<linearGradient id="XMLID_77_" gradientUnits="userSpaceOnUse" x1="3165.4177" y1="8.5894" x2="3187.4558" y2="44.2863" gradientTransform="matrix(-0.9861 6.837250e-002 0.296 0.9209 3444.3435 -48.399)">
				<stop  offset="0.1179" style="stop-color:#EE5A77"/>
				<stop  offset="1" style="stop-color:#801C56"/>
			</linearGradient>
			<path id="XMLID_2393_" class="st46" d="M310.6,198.9c0.3,1,0.9,1.8,1.6,2.6c0.6,0.7,1.3,1.2,2.1,1.6c0,0,0,0,0,0
				c0.4,0.2,0.7,0.3,1,0.4c0.1,0,0.2,0.1,0.3,0.1c2.8,0.7,4.5-0.6,5.9-2.8c1.4-2.2,8.6-15.2,8.6-15.3c0-0.1-1.3-1.5-2.8-2.5
				c-1.3,3-4.9,9-9.2,12.3C315.4,197.3,312.9,198.5,310.6,198.9z"/>
		</g>
	</g>
</g>
<g id="F_HEAD_2">
	
		<linearGradient id="XMLID_78_" gradientUnits="userSpaceOnUse" x1="3203.3823" y1="-29.885" x2="3224.3872" y2="14.6213" gradientTransform="matrix(-0.9861 6.837250e-002 0.296 0.9209 3444.3435 -48.399)">
		<stop  offset="0" style="stop-color:#304A54"/>
		<stop  offset="1" style="stop-color:#0F2935"/>
	</linearGradient>
	<path id="XMLID_2411_" class="st47" d="M287.8,171.6c-1.7-3.4-5.1-3.7-5.1-3.7s2.9-1,2-3.3s-3.9-3.6-3.9-3.6s3.1-2.4,1.9-3.6
		c-1.1-1.2-3.2-0.6-3.2-0.6s2.8-3.3-0.2-6s-6.2-0.2-6.2-0.2s1.7-3.1-1.3-3.6s-4.6,2.5-4.6,2.5s-4.1-1.9-6.2,0.1s-0.2,3.6-0.2,3.6
		s-4.8,0.5-2.7,5.6c2.2,5.1,5.9,6,5.9,6s-4.9,1.6-3.4,4.6c1.5,3,4.2,2.4,4.2,2.4s-3.1,2.4-2.1,5.4c1,3,6,5.4,12.3,5.5
		C284.9,182.9,289.5,175.1,287.8,171.6z"/>
</g>
<g id="F_BODY">
	<g id="XMLID_29_">
		<g id="XMLID_2408_">
			
				<linearGradient id="XMLID_79_" gradientUnits="userSpaceOnUse" x1="3215.4875" y1="84.916" x2="3215.4875" y2="54.0854" gradientTransform="matrix(-0.9861 6.837250e-002 0.296 0.9209 3444.3435 -48.399)">
				<stop  offset="0.1179" style="stop-color:#EE5A77"/>
				<stop  offset="1" style="stop-color:#801C56"/>
			</linearGradient>
			<path id="XMLID_2410_" class="st48" d="M276,245.9l41.5-2.9c0,0-0.1-0.7-0.6-3.6c-0.1-0.6-0.2-1.3-0.4-2.1
				c-0.8-3.3-2.1-7.8-2.1-7.8c-1.4-4-3-5.4-3-5.4s-7.3,3.6-16.1,4.2c-8.7,0.6-23.6-3.2-23.6-3.2s-0.6,1.1-0.1,6.4c0,0.1,0,0.1,0,0.2
				C272.2,237.1,276,245.9,276,245.9z"/>
			
				<linearGradient id="XMLID_80_" gradientUnits="userSpaceOnUse" x1="3215.1724" y1="99.608" x2="3215.1724" y2="57.9212" gradientTransform="matrix(-0.9861 6.837250e-002 0.296 0.9209 3444.3435 -48.399)">
				<stop  offset="0.1179" style="stop-color:#EE5A77"/>
				<stop  offset="1" style="stop-color:#801C56"/>
			</linearGradient>
			<path id="XMLID_2409_" class="st49" d="M271.6,231.5c5.1,2.4,16.2,7.1,25.4,8.3c9.5,1.2,16.7-1.2,19.4-2.5
				c-0.8-3.3-2.1-7.8-2.1-7.8c-1.4-4-3-5.4-3-5.4s-7.3,3.6-16.1,4.2c-8.7,0.6-23.6-3.2-23.6-3.2S271.1,226.3,271.6,231.5z"/>
		</g>
		<g id="XMLID_2379_">
			<g id="XMLID_2388_">
				
					<linearGradient id="XMLID_81_" gradientUnits="userSpaceOnUse" x1="3213.8159" y1="52.9503" x2="3213.8159" y2="12.1454" gradientTransform="matrix(-0.9861 6.837250e-002 0.296 0.9209 3444.3435 -48.399)">
					<stop  offset="0.1126" style="stop-color:#26245A"/>
					<stop  offset="1" style="stop-color:#393B78"/>
				</linearGradient>
				<path id="XMLID_2390_" class="st50" d="M274,229.7c0,0,20.4,8.6,28.2,7s12.2-6.7,12.2-6.7s-1.2-2.5-4.3-8
					c-2.3-4.2-7.3-13.9-10.3-21.4c-0.9-2.3-1.6-4.4-2-6c-0.3-1.4-0.8-2.9-1.3-4.4c-2.1-5.7-5.4-11.5-6.9-13
					c-1.9-1.9-8.7-4.6-13.3-4.3c-11.4,0.6-15.2,6.3-15.2,6.3s0.2,5.3,1.9,9.3c1.7,4,8.6,11,10.3,18.3C275,214.2,274,229.7,274,229.7
					z"/>
				
					<linearGradient id="XMLID_82_" gradientUnits="userSpaceOnUse" x1="3212.5591" y1="17.1387" x2="3212.5591" y2="58.4688" gradientTransform="matrix(-0.9861 6.837250e-002 0.296 0.9209 3444.3435 -48.399)">
					<stop  offset="0.1126" style="stop-color:#26245A"/>
					<stop  offset="1" style="stop-color:#393B78"/>
				</linearGradient>
				<path id="XMLID_2389_" class="st51" d="M269.2,191c0,0,2.2,5.2,12.1,10.6c5.9,3.2,10.3,3.3,13.5,2.2c2.2-0.7,3.9-2,5-3.1
					c-0.9-2.3-1.6-4.4-2-6c-0.3-1.4-0.8-2.9-1.3-4.4c-1.5,0.4-3.6,0.8-6.6,1.1c-0.3,0-0.6,0.1-1,0.1
					C279.2,192.7,269.2,191,269.2,191z"/>
			</g>
			<g id="XMLID_2380_">
				<g id="XMLID_2385_">
					
						<linearGradient id="XMLID_83_" gradientUnits="userSpaceOnUse" x1="3201.4812" y1="9.218" x2="3201.4812" y2="57.9939" gradientTransform="matrix(-0.9861 6.837250e-002 0.296 0.9209 3444.3435 -48.399)">
						<stop  offset="0.1179" style="stop-color:#EE5A77"/>
						<stop  offset="1" style="stop-color:#801C56"/>
					</linearGradient>
					<path id="XMLID_2387_" class="st52" d="M278.4,173c0,0,5.6,8.2,9.5,14.9c0.7,1.2,1.3,2.4,1.9,3.6c1.8,3.8,3.4,8.1,4.9,12.3
						c1,2.6,1.9,5.2,2.9,7.7c3.1,7.8,10.8,25.3,10.8,25.3s2.9-1,5.3-3.2c2.4-2.2,2.7-3.8,2.7-3.8s-15.7-27.7-16-29.5
						c0,0,0-0.1,0-0.2c-0.3-1.8-0.4-7.5-1.3-10.7c-0.1-0.4-0.2-0.8-0.4-1.1c-1.2-2.8-6.6-10.1-9.4-11.8
						C286.5,174.7,280.6,172.8,278.4,173z"/>
					
						<linearGradient id="XMLID_84_" gradientUnits="userSpaceOnUse" x1="3200.9233" y1="52.6052" x2="3200.9233" y2="12.5666" gradientTransform="matrix(-0.9861 6.837250e-002 0.296 0.9209 3444.3435 -48.399)">
						<stop  offset="0.1179" style="stop-color:#EE5A77"/>
						<stop  offset="1" style="stop-color:#801C56"/>
					</linearGradient>
					<path id="XMLID_2386_" class="st53" d="M289.8,191.6c1.8,3.8,3.4,8.1,4.9,12.3c2.7-0.9,4.5-2.5,5.6-3.7
						c-0.3-1.8-0.4-7.5-1.3-10.7C298.1,190,295.6,190.9,289.8,191.6z"/>
				</g>
				<g id="XMLID_2381_">
					
						<linearGradient id="XMLID_85_" gradientUnits="userSpaceOnUse" x1="3227.4622" y1="9.218" x2="3227.4622" y2="57.9939" gradientTransform="matrix(-0.9861 6.837250e-002 0.296 0.9209 3444.3435 -48.399)">
						<stop  offset="0.1179" style="stop-color:#EE5A77"/>
						<stop  offset="1" style="stop-color:#801C56"/>
					</linearGradient>
					<path id="XMLID_2384_" class="st54" d="M269.7,227c0,0,1,1.6,6.4,4.9c0.2,0.1,0.4,0.3,0.7,0.4c5.3,3,10.8,4.1,10.8,4.1
						s-5.7-24.1-9-36.3c-0.4-1.4-0.7-2.7-1-3.8c-0.4-1.4-0.8-3-1.2-4.5c-2.3-8.9-4.4-18.6-4.4-18.6c-5.2,0.4-11.4,5-11.6,6
						c-0.1,0.6-0.3,2.1-0.2,4c0,1.3,0.2,2.7,0.5,4.3c0.7,3.9,9.5,14.7,10.3,17.3C271.8,207.4,269.7,227,269.7,227z"/>
					
						<linearGradient id="XMLID_86_" gradientUnits="userSpaceOnUse" x1="3230.6433" y1="-2.5716" x2="3230.6433" y2="63.9898" gradientTransform="matrix(-0.9861 6.837250e-002 0.296 0.9209 3444.3435 -48.399)">
						<stop  offset="0.1179" style="stop-color:#EE5A77"/>
						<stop  offset="1" style="stop-color:#801C56"/>
					</linearGradient>
					<path id="XMLID_2383_" class="st55" d="M269.7,227c0,0,1,1.6,6.4,4.9c0.2,0.1,0.4,0.3,0.7,0.4c-0.1-1.1-0.3-2.5-0.5-4.3
						c-0.7-6.5,0.6-19.6-1.1-24.8c-1.8-5.2-3.4-11.9-7.2-17.5c-2.4-3.5-6.5-2.9-7.8-2.4c0,1.3,0.2,2.7,0.5,4.3
						c0.7,3.9,9.5,14.7,10.3,17.3C271.8,207.4,269.7,227,269.7,227z"/>
					
						<linearGradient id="XMLID_87_" gradientUnits="userSpaceOnUse" x1="3227.1692" y1="24.1988" x2="3213.74" y2="27.8144" gradientTransform="matrix(-0.9861 6.837250e-002 0.296 0.9209 3444.3435 -48.399)">
						<stop  offset="0.1179" style="stop-color:#C3436B"/>
						<stop  offset="1" style="stop-color:#801C56"/>
					</linearGradient>
					<path id="XMLID_2382_" class="st56" d="M269.2,191c0,0,1.8,4.2,9.4,9c-0.4-1.4-0.7-2.7-1-3.8c-0.4-1.4-0.8-3-1.2-4.5
						C272.1,191.5,269.2,191,269.2,191z"/>
				</g>
			</g>
		</g>
	</g>
</g>
<g id="F_RIGHT_ARM_1">
	<g id="XMLID_2373_">
		
			<linearGradient id="XMLID_88_" gradientUnits="userSpaceOnUse" x1="3237.749" y1="9.2188" x2="3237.749" y2="57.9947" gradientTransform="matrix(-0.9861 6.837250e-002 0.296 0.9209 3444.3435 -48.399)">
			<stop  offset="0.1179" style="stop-color:#EE5A77"/>
			<stop  offset="1" style="stop-color:#801C56"/>
		</linearGradient>
		<path id="XMLID_2378_" class="st57" d="M252.4,211.9c1.5,0.3,3.1,0,4.1-0.8c0.6-0.5,1.8-2.1,3.3-4.1c0,0,0,0,0,0
			c3.6-4.9,8.6-12.1,8.6-12.1s1.6-1.5,2-4.7c0.2-1.7,0.1-3.9-0.9-6.5c-2.7-7.7-8.9-4.8-8.9-4.8s-2.6,2.8-6.6,11.8
			c-4,9-5.9,14.4-5.2,18C249.1,210.5,250.7,211.6,252.4,211.9z"/>
		<g id="XMLID_2375_">
			
				<linearGradient id="XMLID_89_" gradientUnits="userSpaceOnUse" x1="3226.0088" y1="12.8088" x2="3240.2991" y2="37.085" gradientTransform="matrix(-0.9861 6.837250e-002 0.296 0.9209 3444.3435 -48.399)">
				<stop  offset="0.1179" style="stop-color:#EE5A77"/>
				<stop  offset="1" style="stop-color:#801C56"/>
			</linearGradient>
			<path id="XMLID_2377_" class="st58" d="M269.7,187.4c0.5,0.8,0.9,1.8,0.9,2.7c0,0.5-0.1,0.9-0.2,1.3c-0.8,2-7.9,11.8-10.4,15.4
				c-0.6,0.8-0.9,1.3-0.9,1.3c-3,0.4-5.1-0.1-3.2-3.7c1.9-3.4,3.8-10.8,8.8-14C265.8,189.7,268.3,188.3,269.7,187.4z"/>
			
				<linearGradient id="XMLID_90_" gradientUnits="userSpaceOnUse" x1="3224.2642" y1="10.8433" x2="3239.5874" y2="38.3908" gradientTransform="matrix(-0.9861 6.837250e-002 0.296 0.9209 3444.3435 -48.399)">
				<stop  offset="0.1179" style="stop-color:#EE5A77"/>
				<stop  offset="1" style="stop-color:#801C56"/>
			</linearGradient>
			<path id="XMLID_2376_" class="st59" d="M259,208.1c0.2-0.3,0.5-0.7,0.9-1.1c0,0,0,0,0,0c3.6-4.9,8.6-12.1,8.6-12.1s1.6-1.5,2-4.7
				c-0.1,0-0.2,0-0.2,0c-7.9,3.4-12.7,13.4-12.5,15.6C257.7,206.8,258.4,207.7,259,208.1z"/>
		</g>
		
			<linearGradient id="XMLID_91_" gradientUnits="userSpaceOnUse" x1="3239.6768" y1="20.4811" x2="3228.6577" y2="0.337" gradientTransform="matrix(-0.9861 6.837250e-002 0.296 0.9209 3444.3435 -48.399)">
			<stop  offset="0" style="stop-color:#EE5A77"/>
			<stop  offset="1" style="stop-color:#F8BAAF"/>
		</linearGradient>
		<path id="XMLID_2374_" class="st60" d="M259.1,182c0.7-0.9,4.8-2.1,0.3,5.9c-3.1,5.5-9,12.9-9,12.9S255.2,186.9,259.1,182z"/>
	</g>
</g>
<g id="F_RIGHT_ARM_2">
	<g id="XMLID_539_">
		<g id="XMLID_2343_">
			
				<linearGradient id="XMLID_92_" gradientUnits="userSpaceOnUse" x1="2898.488" y1="-1040.7888" x2="2908.4741" y2="-1062.6545" gradientTransform="matrix(-0.7875 0.4283 0.6631 0.8181 3260.6245 -159.9523)">
				<stop  offset="0" style="stop-color:#C66B50"/>
				<stop  offset="1" style="stop-color:#7B452B"/>
			</linearGradient>
			<path id="XMLID_2345_" class="st61" d="M279.6,223.3c0,0,1.8,1,3,1.2c1.1,0.2,4.8,1.2,5.4,1.2c0.5,0.1,2.2,0.8,2.3,1.2
				c0.1,0.4,0,1-1.5,0.7c-1.4-0.2-2.8-0.7-2.9-0.3c0,0.5,3.5,2.2,4.6,2.7c1.1,0.6,3.1,0.9,3.4,1.2c0.3,0.4,0.4,0.9-0.8,0.7
				c-1.2-0.2-3-0.7-3.8-1c-0.8-0.3-0.8-0.3-0.8-0.3s1.6,1,3.4,1.4c1.7,0.4,3.2,0.8,3.5,1.5c0.3,0.7-1.7,0.5-3.6-0.1
				c-1.9-0.6-2.8-0.9-2.8-0.9s2.2,1.1,3.5,1.4c1.3,0.4,1.7,0.7,1.8,1.2c0.1,0.4-2.4,0-4.4-0.9s-3.2-1.7-3.2-1.7s1.8,1.3,2.7,1.7
				c0.9,0.5,1.5,1,1.4,1.2c-0.1,0.2-1.5,0-4.6-2.1c-3.1-2.1-6-5.1-6.9-5.9c-0.9-0.8-1.6-1.4-1.6-1.4S276.7,223.6,279.6,223.3z"/>
			
				<linearGradient id="XMLID_93_" gradientUnits="userSpaceOnUse" x1="2899.3455" y1="-1050.9988" x2="2908.3557" y2="-1050.9988" gradientTransform="matrix(-0.7875 0.4283 0.6631 0.8181 3260.6245 -159.9523)">
				<stop  offset="0.1126" style="stop-color:#26245A"/>
				<stop  offset="1" style="stop-color:#393B78"/>
			</linearGradient>
			<path id="XMLID_2344_" class="st62" d="M275.2,219.8l5.6,2.8c0,0,0.7,2.5-0.6,4c-1.3,1.5-2.2,1.9-2.2,1.9l-5.5-3.5
				C272.6,225.1,276.5,222.7,275.2,219.8z"/>
		</g>
		<g id="XMLID_621_">
			
				<linearGradient id="XMLID_94_" gradientUnits="userSpaceOnUse" x1="3240.0544" y1="11.0096" x2="3240.0544" y2="54.1737" gradientTransform="matrix(-0.9861 6.837250e-002 0.296 0.9209 3444.3435 -48.399)">
				<stop  offset="0.1179" style="stop-color:#EE5A77"/>
				<stop  offset="1" style="stop-color:#801C56"/>
			</linearGradient>
			<path id="XMLID_2342_" class="st63" d="M254.4,215.2c4.9,3.7,18.1,11,18.1,11s0.7-0.1,2.1-1.5c0.4-0.4,0.7-1,1-1.6
				c0.6-1.6,0.8-3.5,0.8-3.5s-4.8-2.8-11.6-8.3c-3.9-3.1-7-5.8-9.6-7c-1.1-0.5-2.1-0.8-3-0.7c-0.7,0.1-1.3,0.4-1.9,0.9
				C247,207.8,249.5,211.5,254.4,215.2z"/>
			
				<linearGradient id="XMLID_95_" gradientUnits="userSpaceOnUse" x1="3249.7495" y1="23.1415" x2="3238.5583" y2="40.2726" gradientTransform="matrix(-0.9861 6.837250e-002 0.296 0.9209 3444.3435 -48.399)">
				<stop  offset="0.1179" style="stop-color:#EE5A77"/>
				<stop  offset="1" style="stop-color:#801C56"/>
			</linearGradient>
			<path id="XMLID_880_" class="st64" d="M261.5,211.9c6.1,5.8,13.5,10.6,14.2,11.2c0.6-1.6,0.8-3.5,0.8-3.5s-4.8-2.8-11.6-8.3
				c-3.9-3.1-7-5.8-9.6-7C255.7,206.7,257.9,208.5,261.5,211.9z"/>
		</g>
	</g>
</g>
<g id="F_HEAD_1">
	<g id="XMLID_2348_">
		<g id="XMLID_2370_">
			
				<linearGradient id="XMLID_96_" gradientUnits="userSpaceOnUse" x1="3213.2163" y1="-0.4666" x2="3217.6929" y2="-0.4666" gradientTransform="matrix(-0.9861 6.837250e-002 0.296 0.9209 3444.3435 -48.399)">
				<stop  offset="0" style="stop-color:#C66B50"/>
				<stop  offset="1" style="stop-color:#7B452B"/>
			</linearGradient>
			<path id="XMLID_2372_" class="st65" d="M270.1,167.1l0.7,1.7l2.6,6.4c0,0,0.9,0.5,2.1,0.4c1.2-0.1,1.5-1.1,1.5-1.1l-1.6-4
				l-1.3-3.3c0,0-1.1-0.9-2.2-0.8C270.7,166.5,270.1,167.1,270.1,167.1z"/>
			
				<linearGradient id="XMLID_97_" gradientUnits="userSpaceOnUse" x1="3212.9336" y1="2.3962" x2="3215.4014" y2="-3.2281" gradientTransform="matrix(-0.9861 6.837250e-002 0.296 0.9209 3444.3435 -48.399)">
				<stop  offset="0" style="stop-color:#C66B50"/>
				<stop  offset="1" style="stop-color:#7B452B"/>
			</linearGradient>
			<path id="XMLID_2371_" class="st66" d="M270.1,167.1l0.7,1.7c0.8,0.7,1.6,1.2,2.4,1.5c1,0.3,1.7,0.3,2.3,0.2l-1.3-3.3
				c0,0-1.1-0.9-2.2-0.8C270.7,166.5,270.1,167.1,270.1,167.1z"/>
		</g>
		<g id="XMLID_2366_">
			
				<linearGradient id="XMLID_98_" gradientUnits="userSpaceOnUse" x1="3210.6914" y1="-10.9518" x2="3229.0276" y2="-11.21" gradientTransform="matrix(-0.9861 6.837250e-002 0.296 0.9209 3444.3435 -48.399)">
				<stop  offset="0" style="stop-color:#C66B50"/>
				<stop  offset="1" style="stop-color:#7B452B"/>
			</linearGradient>
			<path id="XMLID_2369_" class="st67" d="M267.2,164.1c2.4,4.1,6.7,5.2,7.9,4.7c0,0,0.1,0,0.1,0c1.2-0.6,3.2-3.7,2.3-8.4
				c-0.9-4.9-4.7-6.7-7.2-6.7c-1,0-1.8,0.1-2.5,0.3C263.9,155.1,264.7,159.8,267.2,164.1z"/>
			
				<linearGradient id="XMLID_99_" gradientUnits="userSpaceOnUse" x1="3208.7681" y1="-15.0729" x2="3220.2173" y2="-7.1531" gradientTransform="matrix(-0.9861 6.837250e-002 0.296 0.9209 3444.3435 -48.399)">
				<stop  offset="0" style="stop-color:#C66B50"/>
				<stop  offset="1" style="stop-color:#7B452B"/>
			</linearGradient>
			<path id="XMLID_2368_" class="st68" d="M267.2,164.1c2.4,4.1,6.7,5.2,7.9,4.7c0,0,0.1,0,0.1,0c-1.2-0.5-4.2-2-6.2-7.1
				c-1.6-3.8-1.4-6.4-1.1-7.7C263.9,155.1,264.7,159.8,267.2,164.1z"/>
		</g>
		
			<linearGradient id="XMLID_100_" gradientUnits="userSpaceOnUse" x1="3206.9497" y1="-31.5687" x2="3227.9546" y2="12.9376" gradientTransform="matrix(-0.9861 6.837250e-002 0.296 0.9209 3444.3435 -48.399)">
			<stop  offset="0" style="stop-color:#304A54"/>
			<stop  offset="1" style="stop-color:#0F2935"/>
		</linearGradient>
		<path id="XMLID_2358_" class="st69" d="M275.7,157c0,0-1.2,1.1-3.8,0.6c-2.6-0.5-3.8-1.6-3.8-1.6s2.2,2.9,0.9,4.5
			c-1.3,1.7-2.7,1.2-2.7,1.2s1.7,0.6,1.8,1.8c0.1,1.1-0.1,1.7-0.1,1.7s-4.5-0.9-4.5-2.3c0-1.4,1.1-1.6,1.1-1.6s-3.7-1.5-3.7-4.4
			c0-2.9,3.5-3,3.5-3s-2.6-0.6-1.8-1.9c0.8-1.3,3.6,0,3.6,0s1.7-2.7,3.7-2.2c2.1,0.5,1.1,2.3,1.1,2.3s3-1.6,5.1-0.7
			c2.1,0.8-0.2,3.4-0.2,3.4s2.5,0.5,2.7,4.5c0.1,2.7-1,3.3-1,3.3S275.7,159.6,275.7,157z"/>
	</g>
</g>
<g id="FOLDER_2">
	<g id="XMLID_1411_">
		<linearGradient id="XMLID_101_" gradientUnits="userSpaceOnUse" x1="254.6109" y1="327.441" x2="285.5302" y2="261.3712">
			<stop  offset="0" style="stop-color:#ACD5EE"/>
			<stop  offset="1" style="stop-color:#FAF1F1;stop-opacity:0"/>
		</linearGradient>
		<path id="XMLID_18_" class="st70" d="M238.8,268.3l52.3-1.7c3.3-0.1,6.1,2.4,6.4,5.6l6.2,49.3c0.3,3.3-2,6.2-5.3,6.7l-45.6,2.9
			c-3.1,0.4-6.1-1.5-6.9-4.6L233,276C232,272.2,234.8,268.4,238.8,268.3z"/>
		<linearGradient id="XMLID_102_" gradientUnits="userSpaceOnUse" x1="235.9585" y1="294.6028" x2="306.9023" y2="294.6028">
			<stop  offset="0.1385" style="stop-color:#F7B142"/>
			<stop  offset="1" style="stop-color:#EF794A"/>
		</linearGradient>
		<path id="XMLID_1409_" class="st71" d="M242,264l52.3-1.7c3.3-0.1,6.1,2.4,6.4,5.6l6.2,49.3c0.3,3.3-2,6.2-5.3,6.7l-45.6,2.9
			c-3.1,0.4-6.1-1.5-6.9-4.6l-13-50.5C235.2,267.9,238,264.1,242,264z"/>
		<linearGradient id="XMLID_103_" gradientUnits="userSpaceOnUse" x1="279.6137" y1="295.8237" x2="264.6769" y2="275.2856">
			<stop  offset="0" style="stop-color:#E0EDF3"/>
			<stop  offset="1" style="stop-color:#FAF1F1"/>
		</linearGradient>
		<path id="XMLID_1421_" class="st72" d="M307.4,270.5l-0.1,1.6l0.2,47.6c-0.1,2-1.6,3.6-3.5,3.8l-46.8,2.8
			c-2.1,0.3-4.1-1.2-4.5-3.3l-3.8-21.1l-5.3-29c-0.4-2.4,1.3-4.6,3.7-4.8l55.7-2C305.5,266.2,307.5,268.2,307.4,270.5z"/>
		<linearGradient id="XMLID_104_" gradientUnits="userSpaceOnUse" x1="269.3289" y1="273.4005" x2="254.9255" y2="240.5928">
			<stop  offset="0" style="stop-color:#E0EDF3"/>
			<stop  offset="1" style="stop-color:#FAF1F1"/>
		</linearGradient>
		<path id="XMLID_1419_" class="st73" d="M307.3,272.1l0.2,47.6c-0.1,2-1.6,3.6-3.5,3.8l-46.8,2.8c-2.1,0.3-4.1-1.2-4.5-3.3
			l-3.8-21.1c0.4-0.7,0.8-1.7,1.1-2.9c1.4-6.5,1.1-21.4,1.1-21.4L307.3,272.1z"/>
		<linearGradient id="XMLID_105_" gradientUnits="userSpaceOnUse" x1="286.0688" y1="264.4153" x2="280.7343" y2="335.8987">
			<stop  offset="0.1385" style="stop-color:#F7B142"/>
			<stop  offset="1" style="stop-color:#EF794A"/>
		</linearGradient>
		<path id="XMLID_1424_" class="st74" d="M316.2,273l-4.5,37.9l-1.8,9.4c-0.3,1.7-1.7,2.9-3.4,3.2l-48.2,2.9
			c-2.4,0.3-4.5-1.5-4.5-3.9v-39.7c0-2,1.6-3.8,3.6-3.9l32.5-2.6c1.5-0.1,2.7-1,3.3-2.4l0.9-2c0.6-1.4,1.9-2.3,3.3-2.4l14.6-1.1
			C314.7,268.1,316.7,270.4,316.2,273z"/>
		<linearGradient id="XMLID_106_" gradientUnits="userSpaceOnUse" x1="301.3828" y1="262.209" x2="271.2424" y2="328.6245">
			<stop  offset="0.1385" style="stop-color:#F7B142"/>
			<stop  offset="1" style="stop-color:#EF794A"/>
		</linearGradient>
		<path id="XMLID_1423_" class="st75" d="M311.9,309.1l-1.7,9.5l-0.3,1.6c-0.3,1.7-1.7,2.9-3.4,3.2l-48.2,2.9
			c-2.4,0.3-4.5-1.5-4.5-3.9v-32.7c3.6-1.4,9-2.3,15.1,0.6c11,5.3,18.9,15.6,29,19.1C304,311.5,307.3,309.9,311.9,309.1z"/>
		<linearGradient id="XMLID_107_" gradientUnits="userSpaceOnUse" x1="284.707" y1="276.6295" x2="278.5723" y2="353.7141">
			<stop  offset="0.1385" style="stop-color:#F7B142"/>
			<stop  offset="1" style="stop-color:#EF794A"/>
		</linearGradient>
		<path id="XMLID_1418_" class="st76" d="M310.2,318.6l-0.3,1.6c-0.3,1.7-1.7,2.9-3.4,3.2l-48.2,2.9c-2.4,0.3-4.5-1.5-4.5-3.9v-21.3
			c3.6-1,8.7-1.6,14.6,0.6c11,4.1,18.3,14.2,28.6,16.2C302.3,319,307.4,319.4,310.2,318.6z"/>
	</g>
</g>
<g id="CHECKLIST">
	<g id="XMLID_1396_">
		<linearGradient id="XMLID_108_" gradientUnits="userSpaceOnUse" x1="151.5302" y1="359.3277" x2="128.5764" y2="524.0549">
			<stop  offset="0.1385" style="stop-color:#F7B142"/>
			<stop  offset="1" style="stop-color:#EF794A"/>
		</linearGradient>
		<path id="XMLID_1407_" class="st77" d="M180.2,387.6c0,18-14.6,32.6-32.6,32.6c-18,0-32.6-14.6-32.6-32.6
			c0-18,14.6-32.6,32.6-32.6c8.8,0,16.8,3.5,22.7,9.2c1.8,1.7,3.3,3.6,4.7,5.7C178.3,375,180.2,381,180.2,387.6z"/>
		<path id="XMLID_1405_" class="st78" d="M174.9,369.9l-34.2,35.2l-15.3-19.1l6.5-5.2l9.3,12.7l28.9-29.3
			C172,365.9,173.6,367.8,174.9,369.9z"/>
	</g>
</g>
<g id="ORNAMENT_1">
	<g id="XMLID_2215_">
		<path id="XMLID_1450_" class="st79" d="M360.2,72.8c-4.4,0-7.9,3.5-7.9,7.9c0-4.4-3.5-7.9-7.9-7.9c4.4,0,7.9-3.6,7.9-7.9
			C352.3,69.3,355.8,72.8,360.2,72.8z"/>
		<path id="XMLID_1439_" class="st79" d="M495.6,178.5c-4.4,0-7.9,3.5-7.9,7.9c0-4.4-3.5-7.9-7.9-7.9c4.4,0,7.9-3.6,7.9-7.9
			C487.7,175,491.2,178.5,495.6,178.5z"/>
		<path id="XMLID_2507_" class="st79" d="M508.7,387.5c-4.4,0-7.9,3.5-7.9,7.9c0-4.4-3.5-7.9-7.9-7.9c4.4,0,7.9-3.6,7.9-7.9
			C500.8,383.9,504.3,387.5,508.7,387.5z"/>
		<path id="XMLID_2226_" class="st79" d="M143.8,113.8c-7.3,0-13.3,5.9-13.3,13.2c0-7.3-5.9-13.2-13.2-13.2
			c7.3,0,13.2-5.9,13.2-13.3C130.5,107.9,136.5,113.8,143.8,113.8z"/>
		<path id="XMLID_2232_" class="st79" d="M100.4,271.3c-4.4,0-7.9,3.5-7.9,7.9c0-4.4-3.5-7.9-7.9-7.9c4.4,0,7.9-3.6,7.9-7.9
			C92.5,267.7,96,271.3,100.4,271.3z"/>
		<path id="XMLID_2227_" class="st79" d="M111.8,83.1c-3.9,0-7.1,3.2-7.1,7.1c0-3.9-3.2-7.1-7.1-7.1c3.9,0,7.1-3.2,7.1-7.1
			C104.7,79.9,107.8,83.1,111.8,83.1z"/>
		<path id="XMLID_2225_" class="st79" d="M472.7,99.9c-2,0-3.6,1.6-3.6,3.6c0-2-1.6-3.6-3.6-3.6c2,0,3.6-1.6,3.6-3.6
			C469.1,98.3,470.7,99.9,472.7,99.9z"/>
		<path id="XMLID_1442_" class="st79" d="M304.5,462.3c-4.4,0-7.9,3.5-7.9,7.9c0-4.4-3.5-7.9-7.9-7.9c4.4,0,7.9-3.6,7.9-7.9
			C296.6,458.7,300.1,462.3,304.5,462.3z"/>
	</g>
</g>
<g id="ORNAMENT_2">
	<g id="XMLID_1410_">
		<circle id="XMLID_1434_" class="st80" cx="379.6" cy="85.9" r="3.7"/>
		<circle id="XMLID_1438_" class="st80" cx="333.4" cy="56.4" r="2.4"/>
		<g id="XMLID_1408_">
			<g id="XMLID_1436_">
				<circle id="XMLID_1440_" class="st80" cx="461.1" cy="200.2" r="4.1"/>
				<circle id="XMLID_7_" class="st80" cx="454.1" cy="184.6" r="1.7"/>
				<circle id="XMLID_1441_" class="st80" cx="475.1" cy="209" r="2"/>
			</g>
			<g id="XMLID_1444_">
				<circle id="XMLID_1446_" class="st80" cx="264.7" cy="452.6" r="4.1"/>
				<circle id="XMLID_2216_" class="st80" cx="284.5" cy="443.3" r="2"/>
				<circle id="XMLID_1445_" class="st80" cx="328.8" cy="442.4" r="2.9"/>
			</g>
			<g id="XMLID_1398_">
				<circle id="XMLID_1447_" class="st80" cx="159" cy="321.2" r="3.5"/>
				<circle id="XMLID_1448_" class="st80" cx="176.5" cy="316" r="1.7"/>
				<circle id="XMLID_1449_" class="st80" cx="173" cy="333.3" r="2.9"/>
			</g>
			<g id="XMLID_2228_">
				<circle id="XMLID_2231_" class="st80" cx="99.7" cy="116.3" r="3.5"/>
				<circle id="XMLID_2230_" class="st80" cx="137.7" cy="137.2" r="1.7"/>
				<circle id="XMLID_2229_" class="st80" cx="157.1" cy="209.3" r="2.9"/>
			</g>
			<g id="XMLID_2217_">
				<circle id="XMLID_2223_" class="st80" cx="198" cy="65.5" r="2.9"/>
				<circle id="XMLID_2222_" class="st80" cx="230.4" cy="49.3" r="2.6"/>
				<circle id="XMLID_2220_" class="st80" cx="246.1" cy="84" r="2.5"/>
			</g>
		</g>
	</g>
</g>
<g id="M_RIGHT_LEG_1">
	<g id="XMLID_2487_">
		<linearGradient id="XMLID_109_" gradientUnits="userSpaceOnUse" x1="406.9615" y1="428.0558" x2="400.5598" y2="338.4327">
			<stop  offset="0.1126" style="stop-color:#26245A"/>
			<stop  offset="1" style="stop-color:#393B78"/>
		</linearGradient>
		<path id="XMLID_37_" class="st81" d="M430.5,382.8c-6.7,7-15.3,15.2-23.9,22.6c-8.4,7.2-16.7,13.8-23.2,17.9
			c-1.1,0.7-2.1,1.3-3.1,1.8c-3.8,2.1-7.9,3.1-11.5,2.8c-8.5-0.7-14.6-8.3-9.1-23.8c0.5-1.3,1-2.6,1.6-4.1
			c5.8-13.8,18.2-33.6,27.2-47.3c0.2-0.3,0.4-0.6,0.6-1c5.8-8.8,10-14.9,10-14.9c8.9-10.3,22.2-9.5,33-4.8
			c9.3,4.1,16.7,11,17.5,16.2C451.4,359.4,444.7,367.9,430.5,382.8z"/>
		<linearGradient id="XMLID_110_" gradientUnits="userSpaceOnUse" x1="372.2154" y1="374.7112" x2="378.8061" y2="378.9829">
			<stop  offset="0" style="stop-color:#24ACE3"/>
			<stop  offset="1" style="stop-color:#2D2E69"/>
		</linearGradient>
		<path id="XMLID_34_" class="st82" d="M388.9,352.6c0,0-2.8,17.3-17.1,37.6c-6.5,9.3-10,12.2-10.5,9.9
			c5.8-13.8,18.2-33.6,27.2-47.3C388.7,352.7,388.8,352.6,388.9,352.6z"/>
		<linearGradient id="XMLID_111_" gradientUnits="userSpaceOnUse" x1="422.536" y1="392.7646" x2="381.7265" y2="339.1521">
			<stop  offset="0.1126" style="stop-color:#26245A"/>
			<stop  offset="1" style="stop-color:#393B78"/>
		</linearGradient>
		<path id="XMLID_1355_" class="st83" d="M430.5,382.8c-13.2,13.8-33.9,32.2-47.1,40.5c4.8-7.4,11.1-17.8,17.5-29.8
			c11.9-22.2,26.3-51.2,31.2-61.3c9.3,4.1,16.7,11,17.6,16.2C451.4,359.4,444.7,367.9,430.5,382.8z"/>
		<linearGradient id="XMLID_112_" gradientUnits="userSpaceOnUse" x1="419.177" y1="371.8065" x2="419.9093" y2="331.0419">
			<stop  offset="0.1126" style="stop-color:#26245A"/>
			<stop  offset="1" style="stop-color:#393B78"/>
		</linearGradient>
		<path id="XMLID_23_" class="st84" d="M430.5,382.8c-6.7,7-15.3,15.2-23.9,22.6c-0.2-1.1-0.2-2.2-0.1-3.6
			c1-16.6-12.4-41.6-17.3-50.1c5.8-8.8,10-14.9,10-14.9c8.9-10.3,22.2-9.5,33-4.8c9.3,4.1,16.7,11,17.5,16.2
			C451.4,359.4,444.7,367.9,430.5,382.8z"/>
	</g>
</g>
<g id="M_RIGHT_LEG_2">
	<g id="XMLID_2493_">
		<g id="XMLID_2492_">
			<g id="XMLID_2489_">
				<linearGradient id="XMLID_113_" gradientUnits="userSpaceOnUse" x1="446.1586" y1="509.9885" x2="442.0688" y2="470.5127">
					<stop  offset="0.1179" style="stop-color:#673656"/>
					<stop  offset="1" style="stop-color:#53283D"/>
				</linearGradient>
				<path id="XMLID_1356_" class="st85" d="M456.1,500.5c-0.5,11.5,1.3,22.2-5.4,25.2c-0.2,0.1-0.3,0.1-0.5,0.2
					c-7.3,2.7-14.6-1.1-13.3-10c1.2-8.9-1.6-23.1-3.6-29.3c-2-6.2-2.8-10.3-1.5-12.6c1.2-2.3,4.9-3.5,4.9-3.5s3.5-2,9.3-0.9
					c1.2,0.2,2.2,0.5,3,0.8c3.2,1.1,3.9,2.5,3.9,2.5S456.6,488.8,456.1,500.5z"/>
				<linearGradient id="XMLID_114_" gradientUnits="userSpaceOnUse" x1="449.0557" y1="498.062" x2="456.1186" y2="498.062">
					<stop  offset="0.1179" style="stop-color:#673656"/>
					<stop  offset="1" style="stop-color:#53283D"/>
				</linearGradient>
				<path id="XMLID_1353_" class="st86" d="M456.1,500.5c-0.5,11.5,1.3,22.2-5.4,25.2c0.7-6.2,2.2-20.5,1.6-33.3
					c-0.5-10.7-2.1-18-3.2-22c3.2,1.1,3.9,2.5,3.9,2.5S456.6,488.8,456.1,500.5z"/>
			</g>
			<g id="XMLID_1324_">
				<linearGradient id="XMLID_115_" gradientUnits="userSpaceOnUse" x1="424.1724" y1="463.6302" x2="434.7082" y2="477.5001">
					<stop  offset="0" style="stop-color:#C66B50"/>
					<stop  offset="1" style="stop-color:#7B452B"/>
				</linearGradient>
				<path id="XMLID_1354_" class="st87" d="M438.7,478.4c-1.7,2.8-6.1,2.1-6.1,2.1l-4.4-3.8l-6.1-5.2c0,0,6.1-4.9,6.9-9.2l5.4,5.6
					l5,5.1C439.3,472.9,440.4,475.6,438.7,478.4z"/>
				<linearGradient id="XMLID_116_" gradientUnits="userSpaceOnUse" x1="421.0946" y1="462.8065" x2="431.7638" y2="472.6754">
					<stop  offset="0" style="stop-color:#C66B50"/>
					<stop  offset="1" style="stop-color:#7B452B"/>
				</linearGradient>
				<path id="XMLID_1350_" class="st88" d="M434.4,467.8c-0.6,2.6-1.7,5.5-3.8,7.2c-0.9,0.7-1.7,1.2-2.4,1.7l-6.1-5.2
					c0,0,6.1-4.9,6.9-9.2L434.4,467.8z"/>
			</g>
		</g>
		<g id="XMLID_2488_">
			<linearGradient id="XMLID_117_" gradientUnits="userSpaceOnUse" x1="390.7527" y1="424.0498" x2="404.3559" y2="476.3287">
				<stop  offset="0.1126" style="stop-color:#26245A"/>
				<stop  offset="1" style="stop-color:#393B78"/>
			</linearGradient>
			<path id="XMLID_1352_" class="st89" d="M432.6,462.8c0,0-0.2,2.2-1.3,4.6c-0.6,1.4-1.5,2.8-2.8,3.9c-3.6,3-6.2,3.4-6.2,3.4
				s-48-33.2-57.1-43.3c-9.1-10.1-10.7-19.2-3.8-25.7c3.6-3.4,9.4-2.8,14.7-1.1c4.7,1.5,9,4,10.8,5.2c7,4.6,18,16.7,26,26.7
				C420.9,446.5,432.6,462.8,432.6,462.8z"/>
			<linearGradient id="XMLID_118_" gradientUnits="userSpaceOnUse" x1="399.9831" y1="428.5526" x2="393.5816" y2="338.9317">
				<stop  offset="0.1126" style="stop-color:#26245A"/>
				<stop  offset="1" style="stop-color:#393B78"/>
			</linearGradient>
			<path id="XMLID_1346_" class="st90" d="M432.6,462.8c0,0-0.2,2.2-1.3,4.6c-2.5-2.7-5.8-6-10.1-10.1c-12.5-12-38.9-30.4-49.3-40.5
				c-7.6-7.4-0.3-10.8,4.2-12.1c4.7,1.5,9,4,10.8,5.2c7,4.6,18,16.7,26,26.7C420.9,446.5,432.6,462.8,432.6,462.8z"/>
		</g>
	</g>
</g>
<g id="M_LEFT_LEG_2">
	<g id="XMLID_2494_">
		<g id="XMLID_2491_">
			<g id="XMLID_2490_">
				<linearGradient id="XMLID_119_" gradientUnits="userSpaceOnUse" x1="535.6982" y1="546.916" x2="533.9283" y2="512.7583">
					<stop  offset="0.1179" style="stop-color:#673656"/>
					<stop  offset="1" style="stop-color:#53283D"/>
				</linearGradient>
				<path id="XMLID_1329_" class="st91" d="M546.4,532.8c-0.5,11.4,1.3,22.1-5.3,25.1c-0.2,0.1-0.3,0.1-0.5,0.2
					c-7.1,2.7-14.3-1.1-13.1-9.9c1.2-8.8-1.6-23-3.5-29.2c-1.9-6.2-2.7-10.3-1.5-12.6c1.2-2.3,4.8-3.5,4.8-3.5s3.4-2,9.1-0.9
					c1.2,0.2,2.2,0.5,3,0.8c3.2,1.1,3.8,2.5,3.8,2.5S546.9,521.1,546.4,532.8z"/>
				<linearGradient id="XMLID_120_" gradientUnits="userSpaceOnUse" x1="539.5391" y1="530.3307" x2="546.4508" y2="530.3307">
					<stop  offset="0.1179" style="stop-color:#673656"/>
					<stop  offset="1" style="stop-color:#53283D"/>
				</linearGradient>
				<path id="XMLID_1328_" class="st92" d="M546.4,532.8c-0.5,11.4,1.3,22.1-5.3,25.1c0.7-6.2,2.1-20.4,1.5-33.2
					c-0.5-10.6-2-18-3.2-21.9c3.2,1.1,3.8,2.5,3.8,2.5S546.9,521.1,546.4,532.8z"/>
			</g>
			<g id="XMLID_1334_">
				<linearGradient id="XMLID_121_" gradientUnits="userSpaceOnUse" x1="512.8751" y1="503.5652" x2="530.5381" y2="503.5652">
					<stop  offset="0" style="stop-color:#C66B50"/>
					<stop  offset="1" style="stop-color:#7B452B"/>
				</linearGradient>
				<path id="XMLID_1342_" class="st93" d="M529.6,510.5c-1.7,2.8-6.1,2.1-6.1,2.1l-4.4-3.8l-6.1-5.2c0,0,6.1-4.9,6.9-9.2l5.4,5.6
					l5,5.1C530.2,505.1,531.3,507.7,529.6,510.5z"/>
				<linearGradient id="XMLID_122_" gradientUnits="userSpaceOnUse" x1="509.3555" y1="489.7305" x2="517.6241" y2="499.9996">
					<stop  offset="0" style="stop-color:#C66B50"/>
					<stop  offset="1" style="stop-color:#7B452B"/>
				</linearGradient>
				<path id="XMLID_1337_" class="st94" d="M525.2,500c-0.6,2.6-1.7,5.5-3.8,7.2c-0.9,0.7-1.7,1.2-2.4,1.7l-6.1-5.2
					c0,0,6.1-4.9,6.9-9.2L525.2,500z"/>
			</g>
		</g>
		<g id="XMLID_2485_">
			<linearGradient id="XMLID_123_" gradientUnits="userSpaceOnUse" x1="456.7243" y1="425.2306" x2="476.9957" y2="454.393">
				<stop  offset="0.1126" style="stop-color:#26245A"/>
				<stop  offset="1" style="stop-color:#393B78"/>
			</linearGradient>
			<path id="XMLID_1360_" class="st95" d="M520.8,501.3c-0.1,0.1-0.2,0.3-0.3,0.4c-4.3,4.9-12.9,4.1-12.9,4.1s-5.1-5.6-17.3-18.7
				c-12.3-13.1-29.6-28.5-40.8-41.1s-11-20.6-4.8-26.1c8.5-7.6,18.2-6.4,27-0.1c4.2,3,8.2,7.1,11.7,12c11,15.1,40.2,57.7,40.2,57.7
				S525,496,520.8,501.3z"/>
			<linearGradient id="XMLID_124_" gradientUnits="userSpaceOnUse" x1="451.1968" y1="406.4786" x2="517.3456" y2="543.0438">
				<stop  offset="0.1126" style="stop-color:#26245A"/>
				<stop  offset="1" style="stop-color:#393B78"/>
			</linearGradient>
			<path id="XMLID_1349_" class="st96" d="M520.5,501.7c-4.3,4.9-12.9,4.1-12.9,4.1s-5.1-5.6-17.3-18.7
				c-12.3-13.1-29.6-28.5-40.8-41.1s-11-20.6-4.8-26.1c8.5-7.6,18.2-6.4,27-0.1c-0.3,8.7,0.4,22.3,6,33.2
				C485.9,468.9,512.2,496.4,520.5,501.7z"/>
		</g>
	</g>
</g>
<g id="M_LEFT_LEG_1">
	<g id="XMLID_2486_">
		<linearGradient id="XMLID_125_" gradientUnits="userSpaceOnUse" x1="547.7028" y1="539.2335" x2="438.3428" y2="361.0568">
			<stop  offset="0.1126" style="stop-color:#26245A"/>
			<stop  offset="1" style="stop-color:#393B78"/>
		</linearGradient>
		<path id="XMLID_28_" class="st97" d="M471,387.3c-1.4,20.3-4.4,42.1-6.6,46c-0.6,1-1.5,2-2.6,2.9c-5.1,3.9-14.9,5.4-22.7-4.2
			c-7.9-9.7-18.7-35.2-24.8-54.5c-1.3-4.1-2.4-8-3.2-11.3c-11.3-46.9,26.1-51.7,41.1-42.2c0.7,0.5,1.5,0.9,2.1,1.4
			c15.3,10.3,17.3,17.4,17.6,38.6C472,370.5,471.6,378.8,471,387.3z"/>
		<linearGradient id="XMLID_126_" gradientUnits="userSpaceOnUse" x1="421.4057" y1="413.432" x2="438.4927" y2="403.1798">
			<stop  offset="0" style="stop-color:#24ACE3"/>
			<stop  offset="1" style="stop-color:#2D2E69"/>
		</linearGradient>
		<path id="XMLID_5_" class="st98" d="M418.7,377.4c3.4-2.1,9.1,15.8,16.6,32.7c7.5,16.9,14.6,31.7,7.8,24.6
			c-6.8-7.2-11.6-15.9-18.2-30.8C418.2,389.2,417.4,378.3,418.7,377.4z"/>
		<linearGradient id="XMLID_127_" gradientUnits="userSpaceOnUse" x1="460.228" y1="352.6048" x2="469.8302" y2="503.5733">
			<stop  offset="0.1126" style="stop-color:#26245A"/>
			<stop  offset="1" style="stop-color:#393B78"/>
		</linearGradient>
		<path id="XMLID_1351_" class="st99" d="M464.4,433.3c-0.6,1-1.5,2-2.6,2.9c-0.1-3.4-0.1-8-0.1-13.8c0.5-55.7-14.4-96-14.4-96
			c3.4-0.1,5.4-0.6,6.9-1c15.3,10.3,17.3,17.4,17.6,38.6C472.2,386.1,467.6,427.7,464.4,433.3z"/>
		<linearGradient id="XMLID_128_" gradientUnits="userSpaceOnUse" x1="440.6164" y1="345.6032" x2="440.1281" y2="380.4281">
			<stop  offset="0.1126" style="stop-color:#26245A"/>
			<stop  offset="1" style="stop-color:#26275E"/>
		</linearGradient>
		<path id="XMLID_25_" class="st100" d="M471,387.3c-6.9-6-22.3-12.7-40.5-15c-9.6-1.2-14.1,1.7-16.3,5.1c-1.3-4.1-2.4-8-3.2-11.3
			c-11.3-46.9,26.1-51.7,41.1-42.2c0.7,0.5,1.5,0.9,2.1,1.4c15.3,10.3,17.3,17.4,17.6,38.6C472,370.5,471.6,378.8,471,387.3z"/>
	</g>
</g>
<g id="M_RIGHT_ARM_1">
	<g id="XMLID_26_">
		<g id="XMLID_2504_">
			<g id="XMLID_2496_">
				<linearGradient id="XMLID_129_" gradientUnits="userSpaceOnUse" x1="542.0063" y1="341.5459" x2="463.588" y2="242.0561">
					<stop  offset="0" style="stop-color:#C66B50"/>
					<stop  offset="1" style="stop-color:#7B452B"/>
				</linearGradient>
				<path id="XMLID_1370_" class="st101" d="M529.4,332c-0.2,0.1-0.4,0.2-0.6,0.3c-2.7,0.9-6.6-4.1-10.5-9.2
					c-3.9-5.2-22.9-22.1-28.5-30.8c-5.5-8.7-7.3-12.3-10.7-16.7c-3.4-4.4-8.7-8.5-6.2-14.1c2.5-5.5,5.3-8.5,12.6-4.4
					c0,0,2.3,2.1,6.2,6c3.5,3.6,8.3,8.6,13.7,15c11.4,13.3,23.1,41.6,24.9,45C532,326.2,531.5,330.7,529.4,332z"/>
				<linearGradient id="XMLID_130_" gradientUnits="userSpaceOnUse" x1="520.5307" y1="341.043" x2="489.9458" y2="274.1829">
					<stop  offset="0" style="stop-color:#C66B50"/>
					<stop  offset="1" style="stop-color:#7B452B"/>
				</linearGradient>
				<path id="XMLID_1368_" class="st102" d="M529.4,332c-0.2,0.1-0.4,0.2-0.6,0.3c-2.7,0.9-6.6-4.1-10.5-9.2
					c-3.9-5.2-22.9-22.1-28.5-30.8c-5.5-8.7-7.3-12.3-10.7-16.7c-3.4-4.4-8.7-8.5-6.2-14.1c2.5-5.5,5.3-8.5,12.6-4.4
					c0,0,2.3,2.1,6.2,6c-0.1,3.7,0.3,10.2,2.8,15.8c3.7,8.3,26.4,35.5,30.4,42.7C527.9,326.9,529.7,329.8,529.4,332z"/>
			</g>
			<g id="XMLID_2497_">
				<linearGradient id="XMLID_131_" gradientUnits="userSpaceOnUse" x1="514.8842" y1="316.2113" x2="550.8037" y2="358.2656">
					<stop  offset="0" style="stop-color:#C66B50"/>
					<stop  offset="1" style="stop-color:#7B452B"/>
				</linearGradient>
				<path id="XMLID_1362_" class="st103" d="M531.6,336.5c0,0,2.9,3.6,4.3,7.1c1.3,3.6,1.9,5.1,3,4.7c1.2-0.4,1.4-3.7,0-7
					c-1.4-3.3-2.4-4.6-2.4-4.6S533.4,334.5,531.6,336.5z"/>
				<linearGradient id="XMLID_132_" gradientUnits="userSpaceOnUse" x1="516.8717" y1="314.5138" x2="552.7911" y2="356.568">
					<stop  offset="0" style="stop-color:#C66B50"/>
					<stop  offset="1" style="stop-color:#7B452B"/>
				</linearGradient>
				<path id="XMLID_1361_" class="st104" d="M535.9,337c0,0,4,5.9,5.9,9.7c1.9,3.8,2.9,6.2,4.3,6.3c1.3,0.1,2.4-0.6,1.7-2.4
					c-0.7-1.8-2-6.4-4.3-9.6c-2.2-3.2-3.3-4.3-3.3-4.3S537.1,334.7,535.9,337z"/>
				<linearGradient id="XMLID_133_" gradientUnits="userSpaceOnUse" x1="517.4054" y1="314.0579" x2="553.3249" y2="356.1122">
					<stop  offset="0" style="stop-color:#C66B50"/>
					<stop  offset="1" style="stop-color:#7B452B"/>
				</linearGradient>
				<path id="XMLID_1372_" class="st105" d="M543.1,337.7c-0.4,0.5-1.2,0.7-2.4,0.3c-3.6-1.2-7.6,0.6-9.5-1.2
					c-1.5-1.4-3.3-1.3-5.2-2.6c-0.5-0.4-1.1-0.8-1.6-1.5c-2.5-2.9-2-6-2-6c2-3.9,5.6-5.5,7.6-4.3c2,1.2,10.4,7.8,12.2,10.3
					C543.5,334.4,544,336.7,543.1,337.7z"/>
				<linearGradient id="XMLID_134_" gradientUnits="userSpaceOnUse" x1="549.4916" y1="354.6419" x2="537.8444" y2="340.0608">
					<stop  offset="0" style="stop-color:#C66B50"/>
					<stop  offset="1" style="stop-color:#7B452B"/>
				</linearGradient>
				<path id="XMLID_1369_" class="st106" d="M543.1,337.7c-0.4,0.5-1.2,0.7-2.4,0.3c-3.6-1.2-7.6,0.6-9.5-1.2
					c-1.5-1.4-3.3-1.3-5.2-2.6c0-1.1,0.2-3.9,4.5-3.4c4.4,0.5,9.3,3.8,11.7,6C542.6,337.1,542.9,337.4,543.1,337.7z"/>
				<linearGradient id="XMLID_135_" gradientUnits="userSpaceOnUse" x1="519.5715" y1="312.2078" x2="555.491" y2="354.2621">
					<stop  offset="0" style="stop-color:#C66B50"/>
					<stop  offset="1" style="stop-color:#7B452B"/>
				</linearGradient>
				<path id="XMLID_1327_" class="st107" d="M529.8,330.8c0,0,5.2,3.8,7.5,4.6c2.3,0.8,4.7,2.1,6.5,4.2s4.3,4.4,5,4
					c0.7-0.5,0.9-1.9-0.1-3c-1-1.1-2.5-3.7-3.4-4.9s-3.8-4.4-5.3-5.3c-1.5-0.9-6.1-3.5-8-2.3C530,329.2,529.3,329.6,529.8,330.8z"/>
				<linearGradient id="XMLID_136_" gradientUnits="userSpaceOnUse" x1="536.9154" y1="352.6729" x2="513.3544" y2="308.307">
					<stop  offset="0" style="stop-color:#C66B50"/>
					<stop  offset="1" style="stop-color:#7B452B"/>
				</linearGradient>
				<path id="XMLID_1364_" class="st108" d="M523.2,331.1c0,0,1.3,3.7,2.8,6.7c1.5,3,0.9,2.6,1.4,4.1s2.4,3,3.2,2.3
					c0.8-0.7,1-0.9,0.5-4c-0.5-3-0.9-5.4-0.9-5.4s-0.3-4.3-2.7-5.8C525.1,327.6,523.1,329,523.2,331.1z"/>
			</g>
		</g>
		<g id="XMLID_2498_">
			<linearGradient id="XMLID_137_" gradientUnits="userSpaceOnUse" x1="464.7956" y1="243.5719" x2="464.4399" y2="272.7365">
				<stop  offset="0.1231" style="stop-color:#FFD65B"/>
				<stop  offset="0.9692" style="stop-color:#F7923A"/>
			</linearGradient>
			<path id="XMLID_12_" class="st109" d="M484.5,267.9c0,0.2,0,0.5-0.1,0.7c-1.1,10.5-6.8,16.1-6.8,16.1s-5.5-2.9-12-8.9
				c-6.5-6-9.2-11.5-11.2-16c-1.7-3.9-3.2-8.1-4.5-12c-3.6-11.4-5.1-21.5-5.1-21.5s4.9,1.6,14.3,7.5c9.3,5.9,24.5,19.5,24.5,19.5
				S485.4,257.9,484.5,267.9z"/>
			
				<linearGradient id="XMLID_138_" gradientUnits="userSpaceOnUse" x1="491.2159" y1="254.7541" x2="464.466" y2="264.42" gradientTransform="matrix(0.4561 0.8899 -0.8899 0.4561 482.8397 -299.4798)">
				<stop  offset="0.1231" style="stop-color:#FFD65B"/>
				<stop  offset="0.9692" style="stop-color:#FFE95B"/>
			</linearGradient>
			<path id="XMLID_3_" class="st110" d="M466.7,239.7c-4.8-3.8-11-7.9-9.5-4.9c1.5,3,22.9,21,23.2,18.2S473.2,244.7,466.7,239.7z"/>
			<linearGradient id="XMLID_139_" gradientUnits="userSpaceOnUse" x1="444.7362" y1="248.3709" x2="469.1461" y2="267.4106">
				<stop  offset="0.1231" style="stop-color:#FFD65B"/>
				<stop  offset="0.9692" style="stop-color:#F7923A"/>
			</linearGradient>
			<path id="XMLID_16_" class="st111" d="M484.5,267.9c0,0.2,0,0.5-0.1,0.7c-0.3,2.8-0.9,5.3-1.7,7.4c-2.1,5.7-5.1,8.7-5.1,8.7
				s-5.5-2.9-12-8.9c-6.5-6-9.2-11.5-11.2-16c-0.1-0.2-0.2-0.5-0.3-0.7c-1.6-3.7-3-7.6-4.2-11.3c8.2,5.5,21.6,14.1,30,17.8
				C481.6,266.4,483.1,267.1,484.5,267.9z"/>
			<linearGradient id="XMLID_140_" gradientUnits="userSpaceOnUse" x1="466.8618" y1="275.0944" x2="470.1165" y2="259.472">
				<stop  offset="6.393714e-002" style="stop-color:#EC7E37"/>
				<stop  offset="0.9692" style="stop-color:#F7923A"/>
			</linearGradient>
			<path id="XMLID_13_" class="st112" d="M482.7,276c-2.1,5.7-5.1,8.7-5.1,8.7s-5.5-2.9-12-8.9c-6.5-6-9.2-11.5-11.2-16
				c-0.1-0.2-0.2-0.5-0.3-0.7C463.9,268.8,470.9,274.5,482.7,276z"/>
			<linearGradient id="XMLID_141_" gradientUnits="userSpaceOnUse" x1="485.588" y1="226.5234" x2="483.4543" y2="263.3303">
				<stop  offset="0.1231" style="stop-color:#FFD65B"/>
				<stop  offset="0.9692" style="stop-color:#F7923A"/>
			</linearGradient>
			<path id="XMLID_14_" class="st113" d="M490.2,269.5c-0.3,2.1-0.8,4.3-1.6,6.5c-3.5,9.1-8.4,12-8.4,12l-5.1-4.8
				c0,0,5.1-7.6,6.8-15.1c0.1-0.4,0.2-0.9,0.3-1.3c1.2-7.2-0.2-15.1-0.2-15.1s1.7,0.5,2.8,1c1.1,0.5,4.9,4.1,4.9,4.1
				S491.1,262.7,490.2,269.5z"/>
			<linearGradient id="XMLID_142_" gradientUnits="userSpaceOnUse" x1="479.1893" y1="283.3237" x2="490.5399" y2="262.087">
				<stop  offset="0" style="stop-color:#DE6132"/>
				<stop  offset="0.9692" style="stop-color:#F7923A"/>
			</linearGradient>
			<path id="XMLID_11_" class="st114" d="M490.2,269.5c-0.3,2.1-0.8,4.3-1.6,6.5c-3.5,9.1-8.4,12-8.4,12l-5.1-4.8
				c0,0,5.1-7.6,6.8-15.1c0.1-0.4,0.2-0.9,0.3-1.3c0.9,0.9,3,2.7,6.1,2.8C489,269.7,489.7,269.7,490.2,269.5z"/>
		</g>
	</g>
</g>
<g id="M_HEAD">
	<g id="XMLID_2503_">
		<g id="XMLID_1305_">
			<linearGradient id="XMLID_143_" gradientUnits="userSpaceOnUse" x1="414.7857" y1="206.3463" x2="416.3861" y2="231.1521">
				<stop  offset="0" style="stop-color:#C66B50"/>
				<stop  offset="1" style="stop-color:#7B452B"/>
			</linearGradient>
			<path id="XMLID_1341_" class="st115" d="M421.1,226.3c0,0-3.8,3.5-6.9,2.8c-3.1-0.7-3.8-1.7-3.8-1.7l-0.3-9.4l-0.3-10.9
				c0,0,6.4-5.4,10.5-1.7l0.1,2.7L421.1,226.3z"/>
			<linearGradient id="XMLID_144_" gradientUnits="userSpaceOnUse" x1="415.6457" y1="220.4778" x2="415.1122" y2="206.6079">
				<stop  offset="0" style="stop-color:#C66B50"/>
				<stop  offset="1" style="stop-color:#7B452B"/>
			</linearGradient>
			<path id="XMLID_1339_" class="st116" d="M420.5,208.1c-2.3,3.1-6,7.6-9.8,9.7c-0.1,0.1-0.3,0.2-0.4,0.2l-0.3-10.9
				c0,0,6.4-5.4,10.5-1.7L420.5,208.1z"/>
		</g>
		<g id="XMLID_2501_">
			<linearGradient id="XMLID_145_" gradientUnits="userSpaceOnUse" x1="391.3946" y1="198.01" x2="434.4268" y2="181.6506">
				<stop  offset="0" style="stop-color:#C66B50"/>
				<stop  offset="1" style="stop-color:#7B452B"/>
			</linearGradient>
			<path id="XMLID_1320_" class="st117" d="M425.7,193.6c-3.9,17.1-18.1,20.3-20.8,21c-0.4,0.1-0.9,0-1.4-0.3
				c-3.1-1.7-8.2-10.1-9.8-21.2c-0.2-1.2-0.3-2.3-0.3-3.3c-0.6-10.9,5-17,10.5-18.4C422.1,166.8,429,179.1,425.7,193.6z"/>
			<linearGradient id="XMLID_146_" gradientUnits="userSpaceOnUse" x1="386.9051" y1="203.2905" x2="419.9794" y2="184.6195">
				<stop  offset="0" style="stop-color:#C66B50"/>
				<stop  offset="1" style="stop-color:#7B452B"/>
			</linearGradient>
			<path id="XMLID_1318_" class="st118" d="M425.7,193.6c-3.9,17.1-18.1,20.3-20.8,21c-0.4,0.1-0.9,0-1.4-0.3
				c0.9-1.4,1.8-3.3,2.7-5.6c2.1-5.9,1.6-15.2,1.6-15.2s-2.5,0.7-5.2-0.5c-2.7-1.2-2.5-4.8-2.5-4.8s-1.3,1.7-5.3,1.7
				c-0.5,0-0.9-0.1-1.3-0.2c-0.6-10.9,5-17,10.5-18.4C422.1,166.8,429,179.1,425.7,193.6z"/>
		</g>
		<g id="XMLID_1301_">
			<linearGradient id="XMLID_147_" gradientUnits="userSpaceOnUse" x1="411.7984" y1="182.8543" x2="425.0015" y2="216.8623">
				<stop  offset="0" style="stop-color:#222E51"/>
				<stop  offset="1" style="stop-color:#291433"/>
			</linearGradient>
			<path id="XMLID_1325_" class="st119" d="M438.5,194.1c-1.5,5.2-6.5,3.2-6.5,3.2s4.1,6.7-1.7,10.8c-3.2,2.3-8.3,3-12.2,3.2
				c-3.1,0.2-5.9-2.1-6.2-5.2c-0.2-2-0.3-4.3,0-6.3c0.7-5.2,1.4-7.2,1.4-7.2l-2.8-0.2c0,0-4.6,1.9-7-0.6c-2.4-2.5-1.2-5.8-1.2-5.8
				s-8.4,3.6-14.6-1.9c-3.5-3.1-4.7-6.4-4.3-9.2c0.3-2.1,1.5-4,3.4-5.3c4.2-2.8,8.5-1.5,8.8-1.4c-0.1-0.3-1.8-5.1,0.7-7.5
				c0.5-0.5,1.2-0.9,2.1-1.2c5.4-1.5,10,5.5,10.2,5.8c0,0,0,0,0,0c0,0,0.7-3.3,3.2-4.4c0.4-0.2,0.8-0.3,1.3-0.4
				c3.6-0.4,8.7,11.5,8.7,11.5s11.2-1.4,13.7,3.6c0.1,0.2,0.2,0.3,0.2,0.5c2,4.7-2.7,6.7-2.7,6.7s4.9,4.2,5.8,8.6
				C438.8,192.2,438.8,193.1,438.5,194.1z"/>
			<linearGradient id="XMLID_148_" gradientUnits="userSpaceOnUse" x1="383.2269" y1="193.0456" x2="438.7555" y2="193.0456">
				<stop  offset="0" style="stop-color:#222E51"/>
				<stop  offset="1" style="stop-color:#291433"/>
			</linearGradient>
			<path id="XMLID_1319_" class="st120" d="M438.5,194.1c-1.5,5.2-6.5,3.2-6.5,3.2s4.1,6.7-1.7,10.8c-3.7,2.6-9.7,3.2-13.6,3.3
				c-2.3,0-4.3-1.6-4.6-3.9c-0.3-2.3-0.6-5.2-0.2-7.8c0.7-5.2,1.4-7.2,1.4-7.2l-2.8-0.2c0,0-4.6,1.9-7-0.6c-2.4-2.5-1.2-5.8-1.2-5.8
				s-8.4,3.6-14.6-1.9c-3.5-3.1-4.7-6.4-4.3-9.2c1.8,1.3,4.5,3.1,6.7,3.7c3.5,0.9,6-0.1,6.3-0.2c-0.2,0.2-2.1,2-3.9,2.4
				c-1.9,0.4-1.9,0.4-1.9,0.4s2.1,1.1,7.8,0.5c5.7-0.5,7.4-2.9,7.4-2.9s0.5,5.1,5.5,6.3c4.9,1.2,8-0.9,8-0.9s3.5,5.8,7.3,6
				c3.5,0.2,4.7-0.9,4.9-1.1c-0.2,0.3-1.5,2.8-3.8,3.5c-2.4,0.8-3.7,0.6-3.7,0.6s7.1,3.3,11.7,0.6c1.3-0.8,2.3-1.6,3-2.3
				C438.8,192.2,438.8,193.1,438.5,194.1z"/>
			<linearGradient id="XMLID_149_" gradientUnits="userSpaceOnUse" x1="425.8823" y1="179.321" x2="436.0379" y2="179.321">
				<stop  offset="0" style="stop-color:#222E51"/>
				<stop  offset="1" style="stop-color:#291433"/>
			</linearGradient>
			<path id="XMLID_1316_" class="st121" d="M432.9,182.7c-5.4-1.4-7-4.8-7-4.8s5,0.3,7.1-0.4c1.2-0.4,2-1,2.6-1.5
				C437.5,180.6,432.9,182.7,432.9,182.7z"/>
			<linearGradient id="XMLID_150_" gradientUnits="userSpaceOnUse" x1="408.4916" y1="165.4725" x2="415.832" y2="165.4725">
				<stop  offset="0" style="stop-color:#222E51"/>
				<stop  offset="1" style="stop-color:#291433"/>
			</linearGradient>
			<path id="XMLID_1321_" class="st122" d="M415.8,170.1c-0.5-0.1-5.7-1.7-7.3-4.9c0,0,0.7-3.3,3.2-4.4c-0.2,1.8-0.3,4.2,1,6
				C414.6,169.4,415.6,170,415.8,170.1z"/>
			<linearGradient id="XMLID_151_" gradientUnits="userSpaceOnUse" x1="394.8242" y1="165.0682" x2="406.8912" y2="165.0682">
				<stop  offset="0" style="stop-color:#222E51"/>
				<stop  offset="1" style="stop-color:#291433"/>
			</linearGradient>
			<path id="XMLID_1322_" class="st123" d="M406.9,168.3c0,0-6.5,3.1-11.4-0.2c-0.1-0.3-1.8-5.1,0.7-7.5c0.6,1.4,1.8,3.2,3.6,4.5
				C403.2,167.6,406.9,168.3,406.9,168.3z"/>
			<linearGradient id="XMLID_152_" gradientUnits="userSpaceOnUse" x1="393.5535" y1="172.8531" x2="380.7506" y2="171.8555">
				<stop  offset="0" style="stop-color:#222E51"/>
				<stop  offset="1" style="stop-color:#29ACC0"/>
			</linearGradient>
			<path id="XMLID_4_" class="st124" d="M397.2,169.6c0,0-2.6-3.1-7.9-1.2c-4.8,1.7-5.1,4.8-4.3,6.2c1.4,2.5,3.7,2.8,3.7,2.8
				s-1.9-3,1.7-5.9C394,168.7,397.2,169.6,397.2,169.6z"/>
			<linearGradient id="XMLID_153_" gradientUnits="userSpaceOnUse" x1="401.4489" y1="162.022" x2="389.9762" y2="159.3064">
				<stop  offset="0" style="stop-color:#222E51"/>
				<stop  offset="1" style="stop-color:#29ACC0"/>
			</linearGradient>
			<path id="XMLID_1_" class="st125" d="M398.3,163.8c0,0-0.4-2.5,2.6-2.3c3,0.2,6.3,2.3,6.3,2.3s-2-3.3-6.1-4.4
				C397,158.3,394.4,162,398.3,163.8z"/>
			
				<linearGradient id="XMLID_154_" gradientUnits="userSpaceOnUse" x1="417.46" y1="168.3795" x2="408.3495" y2="166.2231" gradientTransform="matrix(0.9171 0.3987 -0.3987 0.9171 99.2061 -156.9035)">
				<stop  offset="0" style="stop-color:#222E51"/>
				<stop  offset="1" style="stop-color:#29ACC0"/>
			</linearGradient>
			<path id="XMLID_6_" class="st126" d="M411.8,164.4c0,0,0.9-2.2,2.9-1.2c2,1,4.2,3.4,4.2,3.4s-1.6-2.8-3.2-4.6
				C413.6,159.6,410.7,160,411.8,164.4z"/>
		</g>
		<g id="XMLID_1323_">
			<g id="XMLID_1308_">
				<linearGradient id="XMLID_155_" gradientUnits="userSpaceOnUse" x1="409.8792" y1="177.2963" x2="418.6667" y2="207.0765">
					<stop  offset="0" style="stop-color:#4ABDCD"/>
					<stop  offset="0.9946" style="stop-color:#433592"/>
				</linearGradient>
				<ellipse id="XMLID_1302_" class="st127" cx="414.6" cy="193.2" rx="8.7" ry="9.7"/>
				<linearGradient id="XMLID_156_" gradientUnits="userSpaceOnUse" x1="405.8396" y1="191.9773" x2="422.4018" y2="191.9773">
					<stop  offset="0" style="stop-color:#4ABDCD"/>
					<stop  offset="1" style="stop-color:#0796AF"/>
				</linearGradient>
				<ellipse id="XMLID_1312_" class="st128" cx="414.1" cy="192" rx="8.3" ry="8.7"/>
				<linearGradient id="XMLID_157_" gradientUnits="userSpaceOnUse" x1="407.8" y1="191.9072" x2="420.4346" y2="191.9072">
					<stop  offset="0" style="stop-color:#4ABDCD"/>
					<stop  offset="1" style="stop-color:#0796AF"/>
				</linearGradient>
				<path id="XMLID_1333_" class="st129" d="M414.1,185.3c-3.5,0-6.3,3-6.3,6.6c0,3.7,2.8,6.6,6.3,6.6c3.5,0,6.3-3,6.3-6.6
					C420.4,188.3,417.6,185.3,414.1,185.3z M414.1,197.3c-2.8,0-5.2-2.4-5.2-5.4c0-3,2.3-5.4,5.2-5.4c2.9,0,5.2,2.4,5.2,5.4
					C419.3,194.9,417,197.3,414.1,197.3z"/>
				<linearGradient id="XMLID_158_" gradientUnits="userSpaceOnUse" x1="415.5045" y1="175.4968" x2="413.6622" y2="198.526">
					<stop  offset="0" style="stop-color:#4ABDCD"/>
					<stop  offset="0.9946" style="stop-color:#433592"/>
				</linearGradient>
				<path id="XMLID_2515_" class="st130" d="M414.2,186.5c-2.7,0-4.8,2.3-4.8,5c0,2.8,2.2,5,4.8,5c2.7,0,4.8-2.3,4.8-5
					C419,188.8,416.9,186.5,414.2,186.5z"/>
			</g>
			<g id="XMLID_1314_">
				<linearGradient id="XMLID_159_" gradientUnits="userSpaceOnUse" x1="412.7589" y1="175.1756" x2="427.7032" y2="175.1756">
					<stop  offset="0" style="stop-color:#4ABDCD"/>
					<stop  offset="1" style="stop-color:#0796AF"/>
				</linearGradient>
				<path id="XMLID_1335_" class="st131" d="M427.7,171.9c0,0-3-0.2-4.4,1.7c-1.5,2-3.1,7.2-3.5,7.6c-0.4,0.4-1.8,0.9-4,0.7
					c-2.2-0.2-3-1.1-3-1.1s-0.1-0.4,0.2-1.4c0.3-1,0.9-2.5,2.2-4.9c2.6-4.8,4.2-5.5,4.2-5.5c1.1-0.6,5.9-0.8,7.1,0.2
					c0.1,0.1,0.1,0.1,0.2,0.2C427.3,170.6,427.7,171.9,427.7,171.9z"/>
				<linearGradient id="XMLID_160_" gradientUnits="userSpaceOnUse" x1="419.8474" y1="160.1751" x2="420.2136" y2="175.5534">
					<stop  offset="0" style="stop-color:#4ABDCD"/>
					<stop  offset="0.9946" style="stop-color:#433592"/>
				</linearGradient>
				<path id="XMLID_1330_" class="st132" d="M427.7,171.9c0,0-3-0.2-4.4,1.7c-1.5,2-3.1,7.2-3.5,7.6c-0.4,0.4-1.8,0.9-4,0.7
					c-2.2-0.2-3-1.1-3-1.1s-0.1-0.4,0.2-1.4c0.8,0.2,2.2,0.6,3.4,0.6c1.7,0,2.3-0.8,2.6-1.4c0.2-0.6,2.6-6.1,5.1-8
					c1-0.7,1.8-1.2,2.4-1.4c0.1,0.1,0.1,0.1,0.2,0.2C427.3,170.6,427.7,171.9,427.7,171.9z"/>
			</g>
			<g id="XMLID_1315_">
				<linearGradient id="XMLID_161_" gradientUnits="userSpaceOnUse" x1="418.9421" y1="191.2992" x2="414.8065" y2="180.476">
					<stop  offset="0" style="stop-color:#4ABDCD"/>
					<stop  offset="0.9946" style="stop-color:#433592"/>
				</linearGradient>
				<path id="XMLID_1338_" class="st133" d="M418.7,181l-1.2,4.4l-0.9-0.1l-3.7-0.3c0,0,0,0,0.1-1.1c0.1-1.1,0.7-3.3,0.7-3.3
					c0.8,0.2,2.6,0.3,3.8,0.4C418.2,181,418.7,181,418.7,181z"/>
				<linearGradient id="XMLID_162_" gradientUnits="userSpaceOnUse" x1="416.4315" y1="188.8868" x2="417.8368" y2="182.0362">
					<stop  offset="0" style="stop-color:#4ABDCD"/>
					<stop  offset="0.9946" style="stop-color:#433592"/>
				</linearGradient>
				<path id="XMLID_1336_" class="st134" d="M418.7,181l-1.2,4.4l-0.9-0.1c0.2-1.3,0.7-3.5,0.9-4.4C418.2,181,418.7,181,418.7,181z"
					/>
			</g>
		</g>
	</g>
</g>
<g id="M_BODY">
	<g id="XMLID_2495_">
		<linearGradient id="XMLID_163_" gradientUnits="userSpaceOnUse" x1="379.7271" y1="209.6303" x2="453.3451" y2="345.6635">
			<stop  offset="0" style="stop-color:#24ACE3"/>
			<stop  offset="1" style="stop-color:#465A8C"/>
		</linearGradient>
		<path id="XMLID_24_" class="st135" d="M486.5,336.6c-3.3,6.5-11.2,17.8-33.9,23.5c-2.7,0.7-5.6,1.3-8.8,1.8
			c-7.7,1.2-14.9,0.8-21.4-0.5c-18.3-3.7-30.7-14.9-32.7-18.5c-2.7-5,4.6-14.2,7.6-23.8c3-9.6,1.2-19.9-7.5-39.5
			c-1.3-3-2.5-6-3.6-8.8c-0.8-2.3-1.6-4.5-2.2-6.6c-2.1-7.2-3.1-13.2-2.9-17.5c0.1-3,0.7-5.1,1.9-6c1.8-1.5,6.8-5.5,12.7-9.3
			c6.7-4.3,14.7-8.6,20.9-9c10.7-0.8,18.9,0.6,25,2.9c7.8,2.9,12.1,7,13.6,9.6c2.7,4.4,0.7,18,6.4,34.1c0,0,0,0.1,0.1,0.1
			c0,0,0,0,0,0c5.7,16.2,17.6,41.3,21.6,46.8C487.5,321.3,490.2,329.3,486.5,336.6z"/>
		<linearGradient id="XMLID_164_" gradientUnits="userSpaceOnUse" x1="413.6141" y1="287.0066" x2="394.8184" y2="249.9034">
			<stop  offset="0" style="stop-color:#3F7AAD"/>
			<stop  offset="1" style="stop-color:#465A8C"/>
		</linearGradient>
		<path id="XMLID_22_" class="st136" d="M409.2,291.4c-14.6-5.9-14.5-9.2-21.6-19c-0.4-0.6-0.9-1.2-1.3-1.8
			c-0.8-2.3-1.6-4.5-2.2-6.6c-2.1-7.2-3.1-13.2-2.9-17.5c10.6-6.9,28.8-5.6,31.3,0.9C416.7,258.1,423.9,297.3,409.2,291.4z"/>
		<linearGradient id="XMLID_165_" gradientUnits="userSpaceOnUse" x1="424.3953" y1="241.2545" x2="414.1431" y2="211.9626">
			<stop  offset="0" style="stop-color:#398DBF"/>
			<stop  offset="1" style="stop-color:#465A8C"/>
		</linearGradient>
		<path id="XMLID_10_" class="st137" d="M436.1,236.6c-13.1,3.3-32.5-2.6-40.3-5.3c1.8-1.1,3.6-2.3,5.5-3.3c5.3-3,10.8-5.4,15.4-5.7
			c10.6-0.8,18.7,0.6,24.7,2.8c0.1,0,0.2,0.1,0.3,0.1C446.8,228.9,448,233.6,436.1,236.6z"/>
		<linearGradient id="XMLID_166_" gradientUnits="userSpaceOnUse" x1="428.738" y1="241.7105" x2="418.1196" y2="219.6194">
			<stop  offset="0" style="stop-color:#398DBF"/>
			<stop  offset="1" style="stop-color:#465A8C"/>
		</linearGradient>
		<path id="XMLID_8_" class="st138" d="M441.5,225.1c-0.6,2-3.3,3.9-9.1,5.3c-9.3,2.4-21.8,0.1-31-2.5c5.3-3,10.8-5.4,15.4-5.7
			C427.3,221.5,435.5,222.9,441.5,225.1z"/>
		<linearGradient id="XMLID_167_" gradientUnits="userSpaceOnUse" x1="366.9884" y1="253.8971" x2="392.0609" y2="300.3079">
			<stop  offset="0" style="stop-color:#24ACE3"/>
			<stop  offset="1" style="stop-color:#465A8C"/>
		</linearGradient>
		<path id="XMLID_1348_" class="st139" d="M422.5,361.3c0,0-0.1,0-0.1,0c-5.9-1.2-11.3-3.2-15.8-5.5c-9.5-4.7-15.6-10.6-16.9-13.1
			c-2.7-5,4.6-14.2,7.6-23.8c2.5-7.9,1.7-16.4-3.6-30.1c-1.1-2.9-2.4-6-3.9-9.4c-2.4-5.5-4.3-10.7-5.8-15.4c6,8,24.6,32.4,32,37.5
			c8.8,6.1,7.5,17.3-0.3,19.5c-7.7,2.1,2.4,16,10.1,20.8S432.1,357.8,422.5,361.3z"/>
		<linearGradient id="XMLID_168_" gradientUnits="userSpaceOnUse" x1="496.0003" y1="236.7063" x2="476.7958" y2="295.031">
			<stop  offset="0" style="stop-color:#24ACE3"/>
			<stop  offset="1" style="stop-color:#465A8C"/>
		</linearGradient>
		<path id="XMLID_1344_" class="st140" d="M486.5,336.6c-3.3,6.5-11.2,17.8-33.9,23.5c5.4-3.4,11.2-8,15.6-13.9
			c11.4-15.3,2.5-35.9-1.8-42.7c-7.1-11.2-5.9-26.7-4.6-34.5c5.7,16.2,17.6,41.3,21.6,46.8C487.5,321.3,490.2,329.3,486.5,336.6z"/>
		<linearGradient id="XMLID_169_" gradientUnits="userSpaceOnUse" x1="369.8531" y1="291.9571" x2="414.3079" y2="338.9014">
			<stop  offset="0" style="stop-color:#24ACE3"/>
			<stop  offset="0.1244" style="stop-color:#3598CB"/>
			<stop  offset="0.3132" style="stop-color:#4080B1"/>
			<stop  offset="0.499" style="stop-color:#446FA0"/>
			<stop  offset="0.6785" style="stop-color:#456395"/>
			<stop  offset="0.8487" style="stop-color:#465C8F"/>
			<stop  offset="1" style="stop-color:#465A8C"/>
		</linearGradient>
		<path id="XMLID_1345_" class="st141" d="M410.3,353.6c-1.2,0.9-2.4,1.7-3.6,2.3c-9.5-4.7-15.6-10.6-16.9-13.1
			c-2.7-5,4.6-14.2,7.6-23.8c2.5-7.9,1.7-16.4-3.6-30.1c6.8,5.6,19.4,16.8,18.8,20.7c-0.8,5.3-13.6,4.8-8.5,18.1
			S417.5,348.2,410.3,353.6z"/>
		<g id="XMLID_1326_">
			<linearGradient id="XMLID_170_" gradientUnits="userSpaceOnUse" x1="398.2719" y1="220.593" x2="437.609" y2="220.593">
				<stop  offset="0.1231" style="stop-color:#FFD65B"/>
				<stop  offset="0.9692" style="stop-color:#F7923A"/>
			</linearGradient>
			<path id="XMLID_2506_" class="st142" d="M437.6,224.3c0,0-14.3-5-32.9,2.3c-1.4,0.5-2.8,1.2-4.3,1.9l-2.1-6.9
				c0,0,3.8-3.7,10.1-6.3c3.3-1.4,7.4-2.4,12-2.5c13.3-0.3,16.7,2.5,16.7,2.5L437.6,224.3z"/>
			<linearGradient id="XMLID_171_" gradientUnits="userSpaceOnUse" x1="404.7161" y1="219.6648" x2="437.609" y2="219.6648">
				<stop  offset="0.1231" style="stop-color:#FFD65B"/>
				<stop  offset="0.9692" style="stop-color:#F7923A"/>
			</linearGradient>
			<path id="XMLID_2505_" class="st143" d="M437.6,224.3c0,0-9.4-3.3-22.8-0.7c-3.1,0.6-6.5,1.5-10.1,2.9c0.3-1.1,0.9-2.6,2.1-4.5
				c1.7-2.8,1.9-5.1,1.6-6.8c2.7-1.1,5.9-2,9.5-2.4c0.8-0.1,1.7-0.1,2.5-0.2c13.3-0.3,16.7,2.5,16.7,2.5L437.6,224.3z"/>
			<linearGradient id="XMLID_172_" gradientUnits="userSpaceOnUse" x1="406.3965" y1="200.9334" x2="424.1784" y2="217.8263">
				<stop  offset="0.1231" style="stop-color:#FFD65B"/>
				<stop  offset="0.9692" style="stop-color:#F7923A"/>
			</linearGradient>
			<path id="XMLID_2502_" class="st144" d="M437.6,224.3c0,0-9.4-3.3-22.8-0.7c0.4-0.9,0.9-2,1.6-3.2c1.9-3.3,1.9-5.9,1.5-7.6
				c0.8-0.1,1.7-0.1,2.5-0.2c13.3-0.3,16.7,2.5,16.7,2.5L437.6,224.3z"/>
		</g>
	</g>
</g>
<g id="M_LEFT_ARM_1">
	<g id="XMLID_21_">
		<g id="XMLID_2511_">
			<g id="XMLID_2508_">
				<linearGradient id="XMLID_173_" gradientUnits="userSpaceOnUse" x1="311.239" y1="212.3106" x2="374.3648" y2="300.3311">
					<stop  offset="0" style="stop-color:#C66B50"/>
					<stop  offset="1" style="stop-color:#7B452B"/>
				</linearGradient>
				<path id="XMLID_1384_" class="st145" d="M366.8,275.8c0,0-8.9,4.3-12.6,4.8c-3.7,0.5-10.9-1.6-20.5-11.9
					c-6-6.4-13-14.9-17.7-21.1c-2.9-3.8-5-6.7-5.4-7.7c-1-2.1-1.7-3.3-1.5-5.3c0.1-0.5,0.2-1,0.4-1.7c1.1-3,6.2-3.2,6.2-3.2
					s2.4,2.6,5.9,6.2c4.4,4.5,10.6,10.5,16.2,14.8c10,7.6,12.6,7.5,13.3,7.6c0.7,0.2,11-3.7,11-3.7c-0.7,2.8,0.4,8.1,1.8,12.7
					C365.3,271.9,366.8,275.8,366.8,275.8z"/>
				<linearGradient id="XMLID_174_" gradientUnits="userSpaceOnUse" x1="302.8416" y1="207.0667" x2="366.1453" y2="292.9534">
					<stop  offset="0" style="stop-color:#C66B50"/>
					<stop  offset="1" style="stop-color:#7B452B"/>
				</linearGradient>
				<path id="XMLID_1379_" class="st146" d="M366.8,275.8c0,0-8.9,4.3-12.6,4.8c-3.7,0.5-10.9-1.6-20.5-11.9
					c-9.6-10.3-21.9-26.1-23.1-28.8c-1-2.1-1.7-3.3-1.5-5.3c5.2,6.2,22.2,25.9,30.8,31.8c8.1,5.5,19.4,2.4,24,1
					C365.3,271.9,366.8,275.8,366.8,275.8z"/>
				<linearGradient id="XMLID_175_" gradientUnits="userSpaceOnUse" x1="296.8201" y1="211.5049" x2="360.1237" y2="297.3916">
					<stop  offset="0" style="stop-color:#C66B50"/>
					<stop  offset="1" style="stop-color:#7B452B"/>
				</linearGradient>
				<path id="XMLID_1377_" class="st147" d="M322.4,252.5l-6.4-4.9c-2.9-3.8-5-6.7-5.4-7.7c-1-2.1-1.7-3.3-1.5-5.3
					c0.1-0.5,0.2-1,0.4-1.7c1.1-3,6.2-3.2,6.2-3.2s4.8,5.2,8.3,8.7c-1.6,0.6-5.7,1.6-5.3,5.7C319.5,251,322.4,252.5,322.4,252.5z"/>
			</g>
			<g id="XMLID_2510_">
				<linearGradient id="XMLID_176_" gradientUnits="userSpaceOnUse" x1="311.1434" y1="227.931" x2="322.6128" y2="255.8042">
					<stop  offset="0" style="stop-color:#C66B50"/>
					<stop  offset="1" style="stop-color:#7B452B"/>
				</linearGradient>
				<path id="XMLID_1383_" class="st148" d="M317.2,231.8c-0.1,0.9-2.2,7.6-6.3,7.1c-0.3,0-0.6-0.1-0.9-0.2c0,0-5.1-2.3-5.2-5.1
					c-0.1-2.8-2.1-9.7-2.3-11.2c-0.1-1.5,0.9-3.6,5.5-5.2c4.5-1.6,7.3-1.1,7.6-0.1c0,0.1,0.1,0.5,0.2,1
					C316.2,221.4,317.3,231,317.2,231.8z"/>
				<linearGradient id="XMLID_177_" gradientUnits="userSpaceOnUse" x1="299.2365" y1="209.7239" x2="362.5401" y2="295.6106">
					<stop  offset="0" style="stop-color:#C66B50"/>
					<stop  offset="1" style="stop-color:#7F472D"/>
					<stop  offset="1" style="stop-color:#7B452B"/>
				</linearGradient>
				<path id="XMLID_1380_" class="st149" d="M317.2,231.8c-0.1,0.9-2.2,7.6-6.3,7.1c-0.4-0.2-0.8-0.4-1-0.9
					c-1.3-2.4-3.6-10.3-3.6-14.1c0-3.1,5.8-5,9.5-5.8C316.2,221.4,317.3,231,317.2,231.8z"/>
				<g id="XMLID_2509_">
					<linearGradient id="XMLID_178_" gradientUnits="userSpaceOnUse" x1="305.2248" y1="230.3665" x2="316.6941" y2="258.2396">
						<stop  offset="0" style="stop-color:#C66B50"/>
						<stop  offset="1" style="stop-color:#7B452B"/>
					</linearGradient>
					<path id="XMLID_1365_" class="st150" d="M303.2,224.4c0,0-2.5-4.1-4.1-5.9c-1.6-1.9-4-2.6-4.1-3.9c-0.1-1.3,0.3-1.3,1.1-1.3
						c0.9,0.1,3.5,1.5,4.9,2.9s3.5,3.5,3.5,3.5S307,227.3,303.2,224.4z"/>
					<linearGradient id="XMLID_179_" gradientUnits="userSpaceOnUse" x1="308.1635" y1="229.1573" x2="319.6328" y2="257.0304">
						<stop  offset="0" style="stop-color:#C66B50"/>
						<stop  offset="1" style="stop-color:#7B452B"/>
					</linearGradient>
					<path id="XMLID_1367_" class="st151" d="M297.4,207.7c-1.3,0.2-0.8,2.7,0.2,3.9c1,1.1,2.7,2.3,3.8,3.9c1.1,1.7,2.9,5.3,3.1,5.7
						c0.2,0.3,1.4,1.2,2.7-0.2s-0.4-4.1-1.9-6.1c-1.5-2-2.7-3.4-3.1-3.9C301.8,210.5,298.5,207.5,297.4,207.7z"/>
					<linearGradient id="XMLID_180_" gradientUnits="userSpaceOnUse" x1="312.1261" y1="227.5267" x2="323.5955" y2="255.3998">
						<stop  offset="0" style="stop-color:#C66B50"/>
						<stop  offset="1" style="stop-color:#7B452B"/>
					</linearGradient>
					<path id="XMLID_1366_" class="st152" d="M311.1,217.2c0,0-2.1-4.2-3.4-6.6c-1.2-2.4-6-6.2-6.8-6.2c-0.8,0-1.4,1.4-0.3,3.2
						c1.2,1.8,3.1,3.6,3.8,5c0.7,1.4,2.4,6.4,3,6.8C308.2,219.8,311.2,220.3,311.1,217.2z"/>
					<linearGradient id="XMLID_181_" gradientUnits="userSpaceOnUse" x1="316.8153" y1="226.09" x2="328.2846" y2="253.9632">
						<stop  offset="0" style="stop-color:#C66B50"/>
						<stop  offset="1" style="stop-color:#7B452B"/>
					</linearGradient>
					<path id="XMLID_1371_" class="st153" d="M315.5,217c0,0-1.2-4.7-2.8-6.8s-4.7-5.5-5.7-5.4c-1,0.1-1.2,2.2-0.3,3.5
						s2.4,3.2,2.8,4.1s2.1,5.8,2.1,5.8S315.5,219.1,315.5,217z"/>
				</g>
			</g>
		</g>
		<g id="XMLID_2500_">
			<g id="XMLID_2499_">
				<linearGradient id="XMLID_182_" gradientUnits="userSpaceOnUse" x1="379.2615" y1="232.0417" x2="391.4657" y2="289.6453">
					<stop  offset="0.1231" style="stop-color:#FFD65B"/>
					<stop  offset="0.9692" style="stop-color:#F7923A"/>
				</linearGradient>
				<path id="XMLID_15_" class="st154" d="M410.3,266.7c-1.6,2.2-3.7,3.6-5.9,4.4c0,0-24.4,8.1-32.4,8.9c-8,0.8-10.4,0.3-10.4,0.3
					s-2.6-3-3.9-8.6c-0.3-1.2-0.5-2.4-0.6-3.8c-0.1-0.5-0.1-1.1-0.1-1.6c-0.4-8.9,1.6-12.7,1.6-12.7s24.4-15.6,30.4-18.3
					c6-2.7,21.1-0.3,23.9,13.3c0.3,1.4,0.5,2.8,0.6,4.1C414,259.2,412.6,263.7,410.3,266.7z"/>
				<linearGradient id="XMLID_183_" gradientUnits="userSpaceOnUse" x1="379.8523" y1="236.7201" x2="388.1204" y2="273.8348">
					<stop  offset="0.1231" style="stop-color:#FFD65B"/>
					<stop  offset="0.9692" style="stop-color:#F7923A"/>
				</linearGradient>
				<path id="XMLID_19_" class="st155" d="M413,260.7c-0.6,2.4-1.5,4.4-2.7,6c-1.6,2.2-3.7,3.6-5.9,4.4c0,0-24.4,8.1-32.4,8.9
					c-8,0.8-10.4,0.3-10.4,0.3s-1.2-1.4-2.4-4.2c-0.5-1.2-1.1-2.7-1.5-4.4c-0.3-1.2-0.5-2.4-0.6-3.8c9.8-1.5,27.8-4.6,42.2-9.5
					c6-2.1,10.7-4,14.2-5.5C413.7,255.9,413.5,258.5,413,260.7z"/>
				<linearGradient id="XMLID_184_" gradientUnits="userSpaceOnUse" x1="397.0255" y1="279.7961" x2="379.9385" y2="263.5227">
					<stop  offset="6.393714e-002" style="stop-color:#EC7E37"/>
					<stop  offset="0.9692" style="stop-color:#F7923A"/>
				</linearGradient>
				<path id="XMLID_17_" class="st156" d="M413,260.7c-0.6,2.4-1.5,4.4-2.7,6c-1.6,2.2-3.7,3.6-5.9,4.4c0,0-24.4,8.1-32.4,8.9
					c-8,0.8-10.4,0.3-10.4,0.3s-1.2-1.4-2.4-4.2c-0.1-0.4-0.1-0.9-0.2-1.4c9.8-1.5,27.8-4.6,42.2-9.5
					C405.9,263.6,409.8,262.1,413,260.7z"/>
				<linearGradient id="XMLID_185_" gradientUnits="userSpaceOnUse" x1="399.6357" y1="236.5558" x2="370.5878" y2="247.0521">
					<stop  offset="0.1231" style="stop-color:#FFD65B"/>
					<stop  offset="0.9692" style="stop-color:#FFE95B"/>
				</linearGradient>
				<path id="XMLID_2_" class="st157" d="M380.6,240.8c-7.2,3.9-14.8,9-10.3,9.2s32-11.1,28.8-13.2C396,234.6,391.3,235,380.6,240.8
					z"/>
			</g>
			<linearGradient id="XMLID_186_" gradientUnits="userSpaceOnUse" x1="359.8624" y1="234.178" x2="364.4851" y2="270.093">
				<stop  offset="0.1231" style="stop-color:#FFD65B"/>
				<stop  offset="0.9692" style="stop-color:#F7923A"/>
			</linearGradient>
			<path id="XMLID_20_" class="st158" d="M373.9,280.4c-1,0.6-11.2,1.6-12.3,1.2c-0.8-0.3-4.2-4.2-5.7-9.8c-0.4-1.5-0.7-3-0.7-4.6
				c-0.4-8,1.8-12.9,2.3-13.5c0.5-0.6,9.9-6.8,10.3-6.8c0.4,0,0.8,0.5,0.8,0.5s-0.1,0.3-0.4,0.8c-0.9,2.1-3.3,8.2-2.3,15.5
				c1.2,9.1,8.7,16,8.7,16S374.9,279.8,373.9,280.4z"/>
			<linearGradient id="XMLID_187_" gradientUnits="userSpaceOnUse" x1="378.1943" y1="290.0951" x2="361.4327" y2="259.3385">
				<stop  offset="0" style="stop-color:#DE6132"/>
				<stop  offset="0.9692" style="stop-color:#F7923A"/>
			</linearGradient>
			<path id="XMLID_9_" class="st159" d="M373.9,280.4c-1,0.6-11.2,1.6-12.3,1.2c-0.8-0.3-4.2-4.2-5.7-9.8c0.6,0,1.2,0.1,1.8,0
				c3.3-0.4,6.4-2.7,6.4-11c0-8.3,4-13.1,4-13.1l0.2,0.3c-0.9,2.1-3.3,8.2-2.3,15.5c1.2,9.1,8.7,16,8.7,16S374.9,279.8,373.9,280.4z
				"/>
		</g>
	</g>
</g>
</svg>
