<?xml version="1.0" encoding="utf-8"?>
<!-- Generator: Adobe Illustrator 19.0.0, SVG Export Plug-In . SVG Version: 6.00 Build 0)  -->
<svg version="1.1" xmlns="http://www.w3.org/2000/svg" xmlns:xlink="http://www.w3.org/1999/xlink" x="0px" y="0px"
	 viewBox="0 0 600 600" style="enable-background:new 0 0 600 600;" xml:space="preserve">
<style type="text/css">
	.st0{fill:url(#XMLID_16_);}
	.st1{fill:url(#XMLID_17_);}
	.st2{fill:url(#XMLID_18_);}
	.st3{fill:url(#XMLID_19_);}
	.st4{fill:url(#XMLID_20_);}
	.st5{fill:url(#XMLID_21_);}
	.st6{fill:url(#XMLID_22_);}
	.st7{fill:url(#XMLID_23_);}
	.st8{fill:url(#XMLID_24_);}
	.st9{fill:url(#XMLID_25_);}
	.st10{fill:#EFE5E9;}
	.st11{fill:url(#XMLID_26_);}
	.st12{fill:url(#XMLID_27_);}
	.st13{fill:url(#XMLID_28_);}
	.st14{fill:url(#XMLID_29_);}
	.st15{fill:url(#XMLID_30_);}
	.st16{fill:url(#XMLID_31_);}
	.st17{fill:url(#XMLID_32_);}
	.st18{fill:url(#XMLID_33_);}
	.st19{fill:url(#XMLID_34_);}
	.st20{fill:url(#XMLID_35_);}
	.st21{fill:url(#XMLID_36_);}
	.st22{fill:url(#XMLID_37_);}
	.st23{fill:url(#XMLID_38_);}
	.st24{fill:url(#XMLID_39_);}
	.st25{fill:url(#XMLID_40_);}
	.st26{fill:url(#XMLID_41_);}
	.st27{fill:url(#XMLID_42_);}
	.st28{fill:url(#XMLID_43_);}
	.st29{fill:url(#XMLID_44_);}
	.st30{fill:url(#XMLID_45_);}
	.st31{fill:url(#XMLID_46_);}
	.st32{fill:url(#XMLID_47_);}
	.st33{fill:url(#XMLID_48_);}
	.st34{fill:url(#XMLID_49_);}
	.st35{fill:url(#XMLID_50_);}
	.st36{fill:url(#XMLID_51_);}
	.st37{fill:url(#XMLID_52_);}
	.st38{fill:url(#XMLID_53_);}
	.st39{fill:url(#XMLID_54_);}
	.st40{fill:url(#XMLID_55_);}
	.st41{fill:url(#XMLID_56_);}
	.st42{fill:url(#XMLID_57_);}
	.st43{fill:url(#XMLID_58_);}
	.st44{fill:url(#XMLID_59_);}
	.st45{fill:url(#XMLID_60_);}
	.st46{fill:url(#XMLID_61_);}
	.st47{fill:url(#XMLID_62_);}
	.st48{fill:#0A435F;}
	.st49{fill:url(#XMLID_63_);}
	.st50{fill:url(#XMLID_64_);}
	.st51{fill:url(#XMLID_65_);}
	.st52{fill:url(#XMLID_66_);}
	.st53{fill:url(#XMLID_67_);}
	.st54{fill:url(#XMLID_68_);}
	.st55{fill:url(#XMLID_69_);}
	.st56{fill:url(#XMLID_70_);}
	.st57{fill:url(#XMLID_71_);}
	.st58{fill:url(#XMLID_72_);}
	.st59{fill:url(#XMLID_73_);}
	.st60{fill:url(#XMLID_74_);}
	.st61{fill:url(#XMLID_75_);}
	.st62{fill:url(#XMLID_76_);}
	.st63{fill:url(#XMLID_77_);}
	.st64{fill:url(#XMLID_78_);}
	.st65{fill:url(#XMLID_79_);}
	.st66{fill:url(#XMLID_80_);}
	.st67{fill:url(#XMLID_81_);}
	.st68{fill:url(#XMLID_82_);}
	.st69{fill:url(#XMLID_83_);}
	.st70{fill:url(#XMLID_84_);}
	.st71{fill:url(#XMLID_85_);}
	.st72{fill:url(#XMLID_86_);}
	.st73{fill:url(#XMLID_87_);}
	.st74{fill:url(#XMLID_88_);}
	.st75{fill:url(#XMLID_89_);}
	.st76{fill:url(#XMLID_90_);}
	.st77{fill:url(#XMLID_91_);}
	.st78{fill:url(#XMLID_92_);}
	.st79{fill:url(#XMLID_93_);}
	.st80{fill:url(#XMLID_94_);}
	.st81{fill:url(#XMLID_95_);}
	.st82{fill:url(#XMLID_96_);}
	.st83{fill:url(#XMLID_97_);}
	.st84{fill:url(#XMLID_98_);}
	.st85{fill:url(#XMLID_99_);}
	.st86{fill:url(#XMLID_100_);}
	.st87{fill:url(#XMLID_101_);}
	.st88{fill:url(#XMLID_102_);}
	.st89{fill:url(#XMLID_103_);}
	.st90{fill:url(#XMLID_104_);}
	.st91{fill:url(#XMLID_105_);}
	.st92{fill:url(#XMLID_106_);}
	.st93{fill:url(#XMLID_107_);}
	.st94{fill:url(#XMLID_108_);}
	.st95{fill:url(#XMLID_109_);}
	.st96{fill:url(#XMLID_110_);}
	.st97{fill:url(#XMLID_111_);}
	.st98{fill:url(#XMLID_112_);}
	.st99{fill:url(#XMLID_113_);}
	.st100{fill:url(#XMLID_114_);}
	.st101{fill:url(#XMLID_115_);}
	.st102{fill:url(#XMLID_116_);}
	.st103{fill:url(#XMLID_117_);}
	.st104{fill:url(#XMLID_118_);}
	.st105{fill:url(#XMLID_119_);}
	.st106{fill:url(#XMLID_120_);}
	.st107{fill:url(#XMLID_121_);}
	.st108{fill:url(#XMLID_122_);}
	.st109{fill:url(#XMLID_123_);}
	.st110{fill:url(#XMLID_124_);}
	.st111{fill:url(#XMLID_125_);}
	.st112{fill:url(#XMLID_126_);}
	.st113{fill:url(#XMLID_127_);}
	.st114{fill:url(#XMLID_128_);}
	.st115{fill:url(#XMLID_129_);}
	.st116{fill:url(#XMLID_130_);}
	.st117{fill:url(#XMLID_131_);}
	.st118{fill:url(#XMLID_132_);}
	.st119{fill:url(#XMLID_133_);}
	.st120{fill:url(#XMLID_134_);}
	.st121{fill:url(#XMLID_135_);}
	.st122{fill:url(#XMLID_136_);}
	.st123{fill:url(#XMLID_137_);}
	.st124{fill:url(#XMLID_138_);}
	.st125{fill:url(#XMLID_139_);}
	.st126{fill:url(#XMLID_140_);}
	.st127{fill:url(#XMLID_141_);}
	.st128{fill:url(#XMLID_142_);}
	.st129{fill:url(#XMLID_143_);}
	.st130{fill:url(#XMLID_144_);}
	.st131{fill:url(#XMLID_145_);}
	.st132{fill:url(#XMLID_146_);}
	.st133{fill:url(#XMLID_147_);}
	.st134{fill:url(#XMLID_148_);}
	.st135{fill:url(#XMLID_149_);}
	.st136{fill:url(#XMLID_150_);}
	.st137{fill:url(#XMLID_151_);}
	.st138{fill:url(#XMLID_152_);}
	.st139{fill:url(#XMLID_153_);}
	.st140{fill:url(#XMLID_154_);}
	.st141{fill:url(#XMLID_155_);}
	.st142{fill:url(#XMLID_156_);}
	.st143{fill:url(#XMLID_157_);}
	.st144{fill:url(#XMLID_158_);}
	.st145{fill:url(#XMLID_159_);}
	.st146{fill:url(#XMLID_160_);}
	.st147{fill:url(#XMLID_161_);}
	.st148{fill:url(#XMLID_162_);}
	.st149{fill:url(#XMLID_163_);}
	.st150{fill:url(#XMLID_164_);}
	.st151{fill:url(#XMLID_165_);}
	.st152{fill:url(#XMLID_166_);}
	.st153{fill:url(#XMLID_167_);}
	.st154{fill:url(#XMLID_168_);}
	.st155{fill:url(#XMLID_169_);}
	.st156{fill:url(#XMLID_170_);}
	.st157{fill:url(#XMLID_171_);}
	.st158{fill:url(#XMLID_172_);}
	.st159{fill:url(#XMLID_173_);}
	.st160{fill:url(#XMLID_174_);}
	.st161{fill:url(#XMLID_175_);}
	.st162{fill:url(#XMLID_176_);}
	.st163{fill:url(#XMLID_177_);}
	.st164{fill:url(#XMLID_178_);}
	.st165{fill:url(#XMLID_179_);}
</style>
<g id="SMOKE">
	<g id="XMLID_3_">
		<linearGradient id="XMLID_16_" gradientUnits="userSpaceOnUse" x1="174.4358" y1="527.1185" x2="293.0293" y2="527.1185">
			<stop  offset="0" style="stop-color:#FBECEA"/>
			<stop  offset="1" style="stop-color:#E1D9E3"/>
		</linearGradient>
		<path id="XMLID_469_" class="st0" d="M287.8,495.6L230.9,543l21.9-9.1l-9,11.4c0,0,7.7-5.3,16-4.2c8.3,1.1,8.1,7.3,8.1,7.3
			s4.9-6.7,10.3-5.9c5.4,0.8-5.6,10.1-5.6,10.1s4.5-3.4,9,0s11.5,6.2,11.5,6.2H174.4L287.8,495.6z"/>
		<linearGradient id="XMLID_17_" gradientUnits="userSpaceOnUse" x1="112.9645" y1="536.6768" x2="139.0237" y2="577.1922">
			<stop  offset="0" style="stop-color:#FBECEA"/>
			<stop  offset="1" style="stop-color:#E1D9E3"/>
		</linearGradient>
		<path id="XMLID_470_" class="st1" d="M140.8,558.8c0,0-0.6-4.5,2.1-11.1c2.7-6.7,5.3-9.7,5.3-9.7s-8,7.7-9.9,10.4
			c-1.9,2.7-1.9,2.7-1.9,2.7s-2.9-11.6-11.2-22.1c-8.4-10.5-13.1-11.4-13.1-11.4s6.7,9.3,10.5,19.2c3.8,9.9,3.8,11.2,3.8,11.2
			s-9.3-9.6-15-9.8c-5.7-0.2,4.4,11.9,4.4,11.9s-5.1-2.3-8.2-1c-3,1.3,5.7,7.2,5.7,7.2l-20.4,2.4H140.8z"/>
	</g>
</g>
<g id="ORNAMENT_1">
	<g id="XMLID_1512_">
		<linearGradient id="XMLID_18_" gradientUnits="userSpaceOnUse" x1="505.5688" y1="160.3489" x2="491.7582" y2="162.1373">
			<stop  offset="0.1179" style="stop-color:#24245A"/>
			<stop  offset="1" style="stop-color:#00648D"/>
		</linearGradient>
		<path id="XMLID_1518_" class="st2" d="M505.7,161.2c-3.9,0-7,3.1-7,7c0-3.9-3.1-7-7-7c3.9,0,7-3.1,7-7
			C498.7,158.1,501.8,161.2,505.7,161.2z"/>
		<linearGradient id="XMLID_19_" gradientUnits="userSpaceOnUse" x1="463.317" y1="95.2644" x2="453.5753" y2="96.5259">
			<stop  offset="0.1179" style="stop-color:#24245A"/>
			<stop  offset="1" style="stop-color:#00648D"/>
		</linearGradient>
		<path id="XMLID_1517_" class="st3" d="M463.4,95.9c-2.7,0-5,2.2-5,5c0-2.7-2.2-5-5-5c2.7,0,5-2.2,5-5
			C458.4,93.7,460.7,95.9,463.4,95.9z"/>
		<linearGradient id="XMLID_20_" gradientUnits="userSpaceOnUse" x1="354.3418" y1="52.4555" x2="347.5505" y2="53.3349">
			<stop  offset="0.1179" style="stop-color:#24245A"/>
			<stop  offset="1" style="stop-color:#00648D"/>
		</linearGradient>
		<path id="XMLID_8_" class="st4" d="M354.4,52.9c-1.9,0-3.5,1.5-3.5,3.5c0-1.9-1.5-3.5-3.5-3.5c1.9,0,3.5-1.5,3.5-3.5
			C350.9,51.4,352.5,52.9,354.4,52.9z"/>
		<linearGradient id="XMLID_21_" gradientUnits="userSpaceOnUse" x1="410.9612" y1="127.3673" x2="401.2195" y2="128.6289">
			<stop  offset="0.1179" style="stop-color:#24245A"/>
			<stop  offset="1" style="stop-color:#00648D"/>
		</linearGradient>
		<path id="XMLID_1516_" class="st5" d="M411,128c-2.7,0-5,2.2-5,5c0-2.7-2.2-5-5-5c2.7,0,5-2.2,5-5C406.1,125.8,408.3,128,411,128z
			"/>
		<linearGradient id="XMLID_22_" gradientUnits="userSpaceOnUse" x1="259.3666" y1="82.8252" x2="252.4405" y2="83.7221">
			<stop  offset="0.1179" style="stop-color:#24245A"/>
			<stop  offset="1" style="stop-color:#00648D"/>
		</linearGradient>
		<path id="XMLID_1515_" class="st6" d="M259.4,83.3c-1.9,0-3.5,1.6-3.5,3.5c0-1.9-1.6-3.5-3.5-3.5c1.9,0,3.5-1.6,3.5-3.5
			C255.9,81.7,257.5,83.3,259.4,83.3z"/>
		<linearGradient id="XMLID_23_" gradientUnits="userSpaceOnUse" x1="239.3967" y1="262.1692" x2="228.8645" y2="263.5331">
			<stop  offset="0.1179" style="stop-color:#24245A"/>
			<stop  offset="1" style="stop-color:#00648D"/>
		</linearGradient>
		<path id="XMLID_1514_" class="st7" d="M239.5,262.9c-3,0-5.4,2.4-5.4,5.4c0-3-2.4-5.4-5.4-5.4c3,0,5.4-2.4,5.4-5.4
			C234.1,260.5,236.5,262.9,239.5,262.9z"/>
		<linearGradient id="XMLID_24_" gradientUnits="userSpaceOnUse" x1="445.7366" y1="352.9115" x2="436.3441" y2="354.1278">
			<stop  offset="0.1179" style="stop-color:#24245A"/>
			<stop  offset="1" style="stop-color:#00648D"/>
		</linearGradient>
		<path id="XMLID_1513_" class="st8" d="M445.8,353.5c-2.6,0-4.8,2.1-4.8,4.8c0-2.6-2.1-4.8-4.8-4.8c2.6,0,4.8-2.1,4.8-4.8
			C441,351.4,443.2,353.5,445.8,353.5z"/>
		<linearGradient id="XMLID_25_" gradientUnits="userSpaceOnUse" x1="192.613" y1="194.2071" x2="183.2205" y2="195.4233">
			<stop  offset="0.1179" style="stop-color:#24245A"/>
			<stop  offset="1" style="stop-color:#00648D"/>
		</linearGradient>
		<path id="XMLID_2_" class="st9" d="M192.7,194.8c-2.6,0-4.8,2.1-4.8,4.8c0-2.6-2.1-4.8-4.8-4.8c2.6,0,4.8-2.1,4.8-4.8
			C187.9,192.7,190.1,194.8,192.7,194.8z"/>
	</g>
</g>
<g id="ORNAMENT_2">
	<g id="XMLID_1499_">
		<g id="XMLID_1509_">
			<circle id="XMLID_1511_" class="st10" cx="239.4" cy="326.2" r="3.5"/>
			<circle id="XMLID_1510_" class="st10" cx="242.4" cy="310.1" r="2.1"/>
		</g>
		<g id="XMLID_1506_">
			<circle id="XMLID_1508_" class="st10" cx="243.5" cy="151.3" r="3.5"/>
			<circle id="XMLID_1507_" class="st10" cx="252" cy="133.4" r="2.1"/>
			<circle id="XMLID_5_" class="st10" cx="266.2" cy="146.4" r="2.1"/>
		</g>
		<g id="XMLID_1503_">
			<circle id="XMLID_1505_" class="st10" cx="398.8" cy="252.4" r="4.4"/>
			<circle id="XMLID_1504_" class="st10" cx="415.6" cy="240.9" r="2.6"/>
		</g>
		<g id="XMLID_1500_">
			<circle id="XMLID_1502_" class="st10" cx="448.5" cy="152" r="3.7"/>
			<circle id="XMLID_1501_" class="st10" cx="451.7" cy="134.9" r="2.2"/>
			<circle id="XMLID_9_" class="st10" cx="366.5" cy="86.5" r="2.2"/>
		</g>
		<g id="XMLID_4_">
			<circle id="XMLID_7_" class="st10" cx="209.9" cy="241.6" r="3.7"/>
			<circle id="XMLID_6_" class="st10" cx="200.7" cy="256.4" r="2.2"/>
		</g>
	</g>
</g>
<g id="ORNAMENT_3">
	<g id="XMLID_11_">
		<g id="XMLID_492_">
			<g id="XMLID_491_">
				<linearGradient id="XMLID_26_" gradientUnits="userSpaceOnUse" x1="467.069" y1="190.226" x2="446.7616" y2="227.0602">
					<stop  offset="0" style="stop-color:#59AAC0"/>
					<stop  offset="1" style="stop-color:#68C2C4"/>
				</linearGradient>
				<path id="XMLID_1986_" class="st11" d="M476.4,204.9c-0.3,1.2-0.7,2.4-1.3,3.5c-1.6,3-4,5.4-7.3,7c-6.7,3.1-14.4,1.1-18.8-4.3
					c-0.6-0.7-1.1-1.4-1.5-2.2c-0.2-0.4-0.4-0.8-0.6-1.2c-0.2-0.4-0.3-0.8-0.5-1.2c-0.1-0.3-0.2-0.6-0.3-1c-0.5-1.6-0.7-3.3-0.7-5
					c0.1-3.4,1.3-6.6,3.4-9.3c0.2-0.2,0.4-0.5,0.6-0.7c0,0,0,0,0,0c1.4-1.6,3.1-2.9,5.2-3.9c7.6-3.5,16.7-0.5,20.6,6.9
					c0.1,0.2,0.3,0.5,0.4,0.8c0.2,0.4,0.4,0.8,0.5,1.3c0.3,0.8,0.5,1.7,0.7,2.6C477,200.5,476.9,202.7,476.4,204.9z"/>
				<linearGradient id="XMLID_27_" gradientUnits="userSpaceOnUse" x1="462.3719" y1="206.6182" x2="462.66" y2="191.7837">
					<stop  offset="0" style="stop-color:#59AAC0"/>
					<stop  offset="1" style="stop-color:#68C2C4"/>
				</linearGradient>
				<path id="XMLID_1977_" class="st12" d="M476.4,204.9c-1.5,1.9-3.4,3.5-5.8,4.6c-7.9,3.7-17.3,0.2-21-7.7
					c-1.1-2.3-1.5-4.7-1.5-7.1c0-1.1,0.2-2.3,0.5-3.4c0.2-0.2,0.4-0.5,0.6-0.7c0,0,0,0,0,0c1.4-1.6,3.1-2.9,5.2-3.9
					c7.6-3.5,16.7-0.5,20.6,6.9c0.1,0.2,0.3,0.5,0.4,0.8C477,197.8,477.3,201.5,476.4,204.9z"/>
				<linearGradient id="XMLID_28_" gradientUnits="userSpaceOnUse" x1="460.0934" y1="202.5667" x2="458.9052" y2="173.4018">
					<stop  offset="0" style="stop-color:#59AAC0"/>
					<stop  offset="1" style="stop-color:#68C2C4"/>
				</linearGradient>
				<path id="XMLID_1983_" class="st13" d="M475.1,208.4L475.1,208.4c-1.6,3-4,5.5-7.3,7c-7.9,3.7-17.3,0.2-21-7.7
					c-0.4-0.9-0.7-1.8-1-2.7c-0.4-1.5-0.5-2.9-0.5-4.4c1.1-0.8,2.8-0.8,5.3,1.8c5.7,5.9,4.9,9,11,5.5s11.6-4.3,13-1.5
					C474.9,207,475,207.7,475.1,208.4z"/>
				<linearGradient id="XMLID_29_" gradientUnits="userSpaceOnUse" x1="462.8656" y1="202.4537" x2="461.6774" y2="173.2889">
					<stop  offset="0" style="stop-color:#59AAC0"/>
					<stop  offset="1" style="stop-color:#68C2C4"/>
				</linearGradient>
				<path id="XMLID_1948_" class="st14" d="M458.2,200.5c2.4,2.4,0.7,4.1,2.8,4.5s9-1.7,7.3-5.7c-1.7-4-5.3-3-5.4-6.2
					C462.9,190,453.5,195.8,458.2,200.5z"/>
				<linearGradient id="XMLID_30_" gradientUnits="userSpaceOnUse" x1="462.5539" y1="202.4664" x2="461.3657" y2="173.3016">
					<stop  offset="0" style="stop-color:#59AAC0"/>
					<stop  offset="1" style="stop-color:#68C2C4"/>
				</linearGradient>
				<path id="XMLID_1976_" class="st15" d="M475,193.6c-1.2,0.9-3,1.5-4.8,1c-4.1-1-2.5-2.7-5.5-4.5c-3-1.8-5.5,0.8-11,2.4
					c-2.9,0.9-4.3-0.3-4.5-1.9c0,0,0,0,0,0c1.4-1.6,3.1-2.9,5.2-3.9C462.1,183.2,471.1,186.3,475,193.6z"/>
				<linearGradient id="XMLID_31_" gradientUnits="userSpaceOnUse" x1="457.5369" y1="218.2625" x2="462.0016" y2="200.4755">
					<stop  offset="0" style="stop-color:#30A5BF"/>
					<stop  offset="1" style="stop-color:#68C2C4"/>
				</linearGradient>
				<path id="XMLID_1980_" class="st16" d="M475.1,208.4L475.1,208.4c-1.6,3-4,5.5-7.3,7c-7.9,3.7-17.3,0.2-21-7.7
					c-0.4-0.9-0.7-1.8-1-2.7c1.3,2.9,4.5,6.9,12.1,8.7C465.4,215.5,471.4,211.7,475.1,208.4z"/>
			</g>
			<linearGradient id="XMLID_32_" gradientUnits="userSpaceOnUse" x1="462.0805" y1="203.5285" x2="473.5844" y2="191.9706">
				<stop  offset="0" style="stop-color:#30A5BF"/>
				<stop  offset="1" style="stop-color:#68C2C4"/>
			</linearGradient>
			<path id="XMLID_1981_" class="st17" d="M476.6,198.2c-3.6,2.6-8.2,5.8-14.1,8.4c-5.1,2.2-8.7,3.5-13.4,4.4c0,0-0.1,0-0.1,0.1
				c-0.6-0.7-1.1-1.4-1.5-2.2c0.1-0.1,0.2-0.1,0.3-0.1c4.3-1.9,9.2-4.1,14.3-6.5c5.1-2.4,9.8-4.6,13.9-6.6
				C476.3,196.5,476.5,197.4,476.6,198.2z"/>
			<linearGradient id="XMLID_33_" gradientUnits="userSpaceOnUse" x1="476.1365" y1="195.0104" x2="453.9568" y2="203.7959">
				<stop  offset="0" style="stop-color:#59AAC0"/>
				<stop  offset="1" style="stop-color:#68C2C4"/>
			</linearGradient>
			<path id="XMLID_1964_" class="st18" d="M476.4,197.3c-4.2,2.2-8.9,4.5-13.9,6.8c-5,2.3-9.8,4.4-14.2,6.2
				c-11.4,4.7-19.7,7.1-20.4,5.8c-0.6-1.3,6.7-5.9,17.7-11.5c0.1,0.3,0.2,0.7,0.3,1c-8.8,4.5-14.6,7.9-14.4,8.3
				c0.2,0.4,6.4-2,15.4-5.9c4.3-1.9,9.2-4.1,14.3-6.5c5.2-2.4,10.1-4.7,14.2-6.8c8.8-4.3,14.6-7.5,14.4-8c-0.2-0.5-6.6,1.8-15.6,5.6
				c-0.2-0.3-0.4-0.6-0.6-0.8c11.4-4.8,19.6-7.5,20.2-6.2C494.6,186.8,487.4,191.6,476.4,197.3z"/>
		</g>
		<g id="XMLID_1946_">
			<g id="XMLID_1974_">
				
					<linearGradient id="XMLID_34_" gradientUnits="userSpaceOnUse" x1="266.6309" y1="842.4129" x2="253.4345" y2="866.349" gradientTransform="matrix(0.8037 0.5951 -0.5951 0.8037 505.3619 -732.2045)">
					<stop  offset="0" style="stop-color:#59AAC0"/>
					<stop  offset="1" style="stop-color:#68C2C4"/>
				</linearGradient>
				<path id="XMLID_1985_" class="st19" d="M217.5,114.7c-0.6,0.5-1.3,1-2.1,1.3c-2,0.9-4.2,1.3-6.5,0.8c-4.7-1-7.9-5-8.2-9.5
					c0-0.6,0-1.1,0.1-1.7c0-0.3,0.1-0.6,0.1-0.9c0.1-0.3,0.1-0.5,0.2-0.8c0.1-0.2,0.1-0.4,0.2-0.6c0.4-1.1,0.9-2,1.6-2.8
					c1.3-1.7,3.2-3,5.3-3.5c0.2-0.1,0.4-0.1,0.6-0.1c0,0,0,0,0,0c1.3-0.3,2.8-0.3,4.2,0c5.4,1.1,8.9,6.2,8.1,11.6
					c0,0.2-0.1,0.4-0.1,0.5c-0.1,0.3-0.1,0.6-0.2,0.9c-0.2,0.6-0.4,1.1-0.6,1.6C219.6,112.7,218.7,113.8,217.5,114.7z"/>
				
					<linearGradient id="XMLID_35_" gradientUnits="userSpaceOnUse" x1="263.5786" y1="853.0651" x2="263.7658" y2="843.4252" gradientTransform="matrix(0.8037 0.5951 -0.5951 0.8037 505.3619 -732.2045)">
					<stop  offset="0" style="stop-color:#59AAC0"/>
					<stop  offset="1" style="stop-color:#68C2C4"/>
				</linearGradient>
				<path id="XMLID_1984_" class="st20" d="M217.5,114.7c-1.5,0.4-3.1,0.5-4.8,0.2c-5.6-1.1-9.1-6.6-8-12.1c0.3-1.6,1-3.1,2-4.3
					c0.5-0.6,1-1.1,1.5-1.6c0.2-0.1,0.4-0.1,0.6-0.1c0,0,0,0,0,0c1.3-0.3,2.8-0.3,4.2,0c5.4,1.1,8.9,6.2,8.1,11.6
					c0,0.2-0.1,0.4-0.1,0.5C220.6,111.3,219.3,113.3,217.5,114.7z"/>
				
					<linearGradient id="XMLID_36_" gradientUnits="userSpaceOnUse" x1="262.098" y1="850.4323" x2="261.3258" y2="831.48" gradientTransform="matrix(0.8037 0.5951 -0.5951 0.8037 505.3619 -732.2045)">
					<stop  offset="0" style="stop-color:#59AAC0"/>
					<stop  offset="1" style="stop-color:#68C2C4"/>
				</linearGradient>
				<path id="XMLID_1982_" class="st21" d="M215.5,116L215.5,116c-2,1-4.2,1.3-6.5,0.8c-5.6-1.1-9.1-6.6-8-12.1
					c0.1-0.6,0.3-1.2,0.5-1.8c0.4-0.9,0.8-1.7,1.4-2.5c0.9,0,1.7,0.7,2.1,3c0.7,5.3-0.9,6.6,3.6,7.1s7.7,2.2,7.4,4.2
					C215.9,115.3,215.7,115.7,215.5,116z"/>
				
					<linearGradient id="XMLID_37_" gradientUnits="userSpaceOnUse" x1="263.8994" y1="850.3589" x2="263.1273" y2="831.4066" gradientTransform="matrix(0.8037 0.5951 -0.5951 0.8037 505.3619 -732.2045)">
					<stop  offset="0" style="stop-color:#59AAC0"/>
					<stop  offset="1" style="stop-color:#68C2C4"/>
				</linearGradient>
				<path id="XMLID_1979_" class="st22" d="M209.7,105.4c0.3,2.2-1.2,2.4-0.3,3.5c0.9,1,5.4,2.6,6-0.2s-1.6-3.6-0.4-5.3
					S209.1,101.1,209.7,105.4z"/>
				
					<linearGradient id="XMLID_38_" gradientUnits="userSpaceOnUse" x1="263.6969" y1="850.3671" x2="262.9247" y2="831.4149" gradientTransform="matrix(0.8037 0.5951 -0.5951 0.8037 505.3619 -732.2045)">
					<stop  offset="0" style="stop-color:#59AAC0"/>
					<stop  offset="1" style="stop-color:#68C2C4"/>
				</linearGradient>
				<path id="XMLID_1978_" class="st23" d="M221.2,108.3c-1,0-2.1-0.4-2.9-1.3c-1.8-2.1-0.3-2.4-1.1-4.5c-0.9-2.1-3.2-1.7-6.7-3
					c-1.9-0.7-2.1-1.8-1.6-2.7c0,0,0,0,0,0c1.3-0.3,2.8-0.3,4.2,0C218.5,97.9,222,103,221.2,108.3z"/>
				
					<linearGradient id="XMLID_39_" gradientUnits="userSpaceOnUse" x1="260.4366" y1="860.632" x2="263.338" y2="849.0734" gradientTransform="matrix(0.8037 0.5951 -0.5951 0.8037 505.3619 -732.2045)">
					<stop  offset="0" style="stop-color:#30A5BF"/>
					<stop  offset="1" style="stop-color:#68C2C4"/>
				</linearGradient>
				<path id="XMLID_1975_" class="st24" d="M215.5,116L215.5,116c-2,1-4.2,1.3-6.5,0.8c-5.6-1.1-9.1-6.6-8-12.1
					c0.1-0.6,0.3-1.2,0.5-1.8c-0.4,2-0.3,5.3,3,9.2C207.7,116.1,212.3,116.4,215.5,116z"/>
			</g>
			
				<linearGradient id="XMLID_40_" gradientUnits="userSpaceOnUse" x1="263.3892" y1="851.0574" x2="270.8649" y2="843.5466" gradientTransform="matrix(0.8037 0.5951 -0.5951 0.8037 505.3619 -732.2045)">
				<stop  offset="0" style="stop-color:#30A5BF"/>
				<stop  offset="1" style="stop-color:#68C2C4"/>
			</linearGradient>
			<path id="XMLID_1971_" class="st25" d="M220.2,111.4c-2.9,0-6.5-0.1-10.6-1.1c-3.5-0.8-5.9-1.5-8.7-2.9c0,0-0.1,0-0.1,0
				c0-0.6,0-1.1,0.1-1.7c0.1,0,0.1,0,0.2,0c3,0.7,6.4,1.4,10,2.2c3.6,0.7,6.9,1.4,9.8,1.9C220.7,110.3,220.5,110.9,220.2,111.4z"/>
			
				<linearGradient id="XMLID_41_" gradientUnits="userSpaceOnUse" x1="272.5233" y1="845.522" x2="258.1102" y2="851.2311" gradientTransform="matrix(0.8037 0.5951 -0.5951 0.8037 505.3619 -732.2045)">
				<stop  offset="0" style="stop-color:#59AAC0"/>
				<stop  offset="1" style="stop-color:#68C2C4"/>
			</linearGradient>
			<path id="XMLID_1970_" class="st26" d="M220.5,110.8c-3-0.5-6.4-1.1-9.9-1.8c-3.5-0.7-6.8-1.5-9.8-2.2c-7.8-2-13.1-3.9-12.9-4.9
				c0.2-0.9,5.8-0.5,13.7,0.9c-0.1,0.2-0.2,0.4-0.2,0.6c-6.3-1.1-10.7-1.5-10.7-1.2c-0.1,0.3,4.1,1.5,10.3,2.9c3,0.7,6.4,1.4,10,2.2
				c3.7,0.7,7.1,1.4,10.1,2c6.3,1.1,10.5,1.7,10.6,1.4c0.1-0.3-4.1-1.6-10.3-3.1c0-0.2,0-0.4,0-0.7c7.8,1.9,13.1,3.6,12.9,4.6
				C234,112.3,228.4,112,220.5,110.8z"/>
		</g>
		<g id="XMLID_483_">
			<g id="XMLID_2027_">
				
					<linearGradient id="XMLID_42_" gradientUnits="userSpaceOnUse" x1="349.1822" y1="119.4271" x2="335.9858" y2="143.3632" gradientTransform="matrix(0.993 0.1183 -0.1183 0.993 93.1439 -108.8993)">
					<stop  offset="0" style="stop-color:#801C56"/>
					<stop  offset="0.8821" style="stop-color:#EE5A77"/>
				</linearGradient>
				<path id="XMLID_2052_" class="st27" d="M430.6,61.2c-0.3,0.8-0.7,1.5-1.1,2.2c-1.2,1.8-3,3.2-5.3,3.9c-4.5,1.5-9.4-0.4-11.8-4.2
					c-0.3-0.5-0.6-1-0.8-1.5c-0.1-0.3-0.2-0.6-0.3-0.8c-0.1-0.3-0.2-0.5-0.2-0.8c-0.1-0.2-0.1-0.4-0.1-0.6c-0.2-1.1-0.2-2.2,0-3.3
					c0.3-2.2,1.3-4.2,2.9-5.7c0.1-0.1,0.3-0.3,0.4-0.4c0,0,0,0,0,0c1-0.9,2.3-1.7,3.7-2.1c5.2-1.7,10.8,1,12.8,6
					c0.1,0.2,0.1,0.3,0.2,0.5c0.1,0.3,0.2,0.6,0.2,0.9c0.1,0.6,0.2,1.1,0.2,1.7C431.4,58.4,431.1,59.8,430.6,61.2z"/>
				
					<linearGradient id="XMLID_43_" gradientUnits="userSpaceOnUse" x1="346.1299" y1="130.0793" x2="346.3171" y2="120.4393" gradientTransform="matrix(0.993 0.1183 -0.1183 0.993 93.1439 -108.8993)">
					<stop  offset="0" style="stop-color:#801C56"/>
					<stop  offset="0.8821" style="stop-color:#EE5A77"/>
				</linearGradient>
				<path id="XMLID_2051_" class="st28" d="M430.6,61.2c-1.1,1.1-2.5,2-4.1,2.5c-5.4,1.8-11.2-1.2-12.9-6.6
					c-0.5-1.6-0.6-3.2-0.4-4.7c0.1-0.7,0.3-1.4,0.6-2.1c0.1-0.1,0.3-0.3,0.4-0.4c0,0,0,0,0,0c1-0.9,2.3-1.7,3.7-2.1
					c5.2-1.7,10.8,1,12.8,6c0.1,0.2,0.1,0.3,0.2,0.5C431.6,56.7,431.4,59.1,430.6,61.2z"/>
				
					<linearGradient id="XMLID_44_" gradientUnits="userSpaceOnUse" x1="344.6493" y1="127.4465" x2="343.8771" y2="108.4941" gradientTransform="matrix(0.993 0.1183 -0.1183 0.993 93.1439 -108.8993)">
					<stop  offset="0" style="stop-color:#801C56"/>
					<stop  offset="0.8821" style="stop-color:#EE5A77"/>
				</linearGradient>
				<path id="XMLID_2034_" class="st29" d="M429.5,63.3L429.5,63.3c-1.2,1.8-3,3.2-5.3,4c-5.4,1.8-11.2-1.2-12.9-6.6
					c-0.2-0.6-0.3-1.2-0.4-1.8c-0.1-1-0.1-1.9,0-2.9c0.8-0.4,1.8-0.3,3.3,1.6c3.2,4.3,2.4,6.2,6.7,4.4s7.8-1.9,8.5,0
					C429.5,62.5,429.5,62.9,429.5,63.3z"/>
				
					<linearGradient id="XMLID_45_" gradientUnits="userSpaceOnUse" x1="346.4507" y1="127.3731" x2="345.6786" y2="108.4208" gradientTransform="matrix(0.993 0.1183 -0.1183 0.993 93.1439 -108.8993)">
					<stop  offset="0" style="stop-color:#801C56"/>
					<stop  offset="0.8821" style="stop-color:#EE5A77"/>
				</linearGradient>
				<path id="XMLID_2033_" class="st30" d="M419.2,57c1.4,1.7,0.1,2.7,1.5,3.1c1.3,0.4,5.9-0.4,5.1-3.1c-0.8-2.7-3.2-2.4-3-4.4
					C423,50.6,416.5,53.5,419.2,57z"/>
				
					<linearGradient id="XMLID_46_" gradientUnits="userSpaceOnUse" x1="346.2482" y1="127.3813" x2="345.476" y2="108.429" gradientTransform="matrix(0.993 0.1183 -0.1183 0.993 93.1439 -108.8993)">
					<stop  offset="0" style="stop-color:#801C56"/>
					<stop  offset="0.8821" style="stop-color:#EE5A77"/>
				</linearGradient>
				<path id="XMLID_2032_" class="st31" d="M430.6,53.8c-0.9,0.5-2,0.7-3.2,0.3c-2.6-0.9-1.4-1.9-3.2-3.3c-1.8-1.4-3.6,0.1-7.3,0.7
					c-2,0.3-2.7-0.5-2.8-1.5c0,0,0,0,0,0c1-0.9,2.3-1.7,3.7-2.1C423.1,46.1,428.6,48.8,430.6,53.8z"/>
				
					<linearGradient id="XMLID_47_" gradientUnits="userSpaceOnUse" x1="342.9879" y1="137.6461" x2="345.8893" y2="126.0876" gradientTransform="matrix(0.993 0.1183 -0.1183 0.993 93.1439 -108.8993)">
					<stop  offset="0" style="stop-color:#801C56"/>
					<stop  offset="0.8821" style="stop-color:#EE5A77"/>
				</linearGradient>
				<path id="XMLID_2029_" class="st32" d="M429.5,63.3L429.5,63.3c-1.2,1.8-3,3.2-5.3,4c-5.4,1.8-11.2-1.2-12.9-6.6
					c-0.2-0.6-0.3-1.2-0.4-1.8c0.6,2,2.4,4.8,7.1,6.6C422.7,67.2,426.9,65.2,429.5,63.3z"/>
			</g>
			
				<linearGradient id="XMLID_48_" gradientUnits="userSpaceOnUse" x1="345.9405" y1="128.0715" x2="353.4162" y2="120.5608" gradientTransform="matrix(0.993 0.1183 -0.1183 0.993 93.1439 -108.8993)">
				<stop  offset="0" style="stop-color:#801C56"/>
				<stop  offset="0.8821" style="stop-color:#EE5A77"/>
			</linearGradient>
			<path id="XMLID_2024_" class="st33" d="M431.3,56.9c-2.5,1.4-5.7,3.1-9.8,4.3c-3.4,1.1-5.9,1.6-9,1.8c0,0-0.1,0-0.1,0
				c-0.3-0.5-0.6-1-0.8-1.5c0.1,0,0.1,0,0.2-0.1c2.9-0.9,6.2-1.9,9.8-3.1c3.4-1.1,6.7-2.2,9.5-3.2C431.2,55.8,431.3,56.4,431.3,56.9
				z"/>
			
				<linearGradient id="XMLID_49_" gradientUnits="userSpaceOnUse" x1="355.0746" y1="122.5361" x2="340.6615" y2="128.2452" gradientTransform="matrix(0.993 0.1183 -0.1183 0.993 93.1439 -108.8993)">
				<stop  offset="0.1179" style="stop-color:#EE5A77"/>
				<stop  offset="1" style="stop-color:#801C56"/>
			</linearGradient>
			<path id="XMLID_1972_" class="st34" d="M431.2,56.3c-2.9,1.1-6.1,2.2-9.5,3.3c-3.4,1.1-6.7,2.1-9.6,2.9
				c-7.7,2.1-13.3,3.1-13.6,2.1c-0.3-0.9,4.8-3.3,12.3-6c0,0.2,0.1,0.4,0.1,0.7c-6,2.2-10,4-9.9,4.3c0.1,0.3,4.3-0.8,10.4-2.6
				c2.9-0.9,6.2-1.9,9.8-3.1c3.5-1.2,6.9-2.3,9.7-3.3c6-2.1,10-3.7,9.9-4c-0.1-0.3-4.4,0.6-10.5,2.4c-0.1-0.2-0.2-0.4-0.3-0.6
				c7.7-2.2,13.2-3.3,13.5-2.4C443.7,50.9,438.7,53.5,431.2,56.3z"/>
		</g>
	</g>
</g>
<g id="BODY_2">
	<linearGradient id="XMLID_50_" gradientUnits="userSpaceOnUse" x1="373.4812" y1="239.8828" x2="367.3243" y2="210.3725">
		<stop  offset="0" style="stop-color:#2B5C74"/>
		<stop  offset="1" style="stop-color:#4F83C4"/>
	</linearGradient>
	<path id="XMLID_431_" class="st35" d="M399.8,231.7c0,0-5,3.6-18.5-6.7c-14-10.7-21-15-30.8-20.5c-8.7-4.9-16.4-9.1-13.8-9.1
		s24.1,5.5,35.7,12.1C384.1,214.2,397.9,226.4,399.8,231.7z"/>
</g>
<g id="RIGHT_LEG_2">
	<g id="XMLID_14_">
		<g id="XMLID_2054_">
			<linearGradient id="XMLID_51_" gradientUnits="userSpaceOnUse" x1="253.5843" y1="321.0933" x2="286.8078" y2="321.0933">
				<stop  offset="0.1179" style="stop-color:#24245A"/>
				<stop  offset="1" style="stop-color:#171441"/>
			</linearGradient>
			<path id="XMLID_434_" class="st36" d="M255.8,331c0,0,11.1-15.1,13.8-19.7c2.7-4.6,2.7-4.6,2.7-4.6s1.3,1.3,4.3,0.3
				c3-1,3.3-1.4,3.3-1.4s3.9,1.6,5.2,4.8c1.3,3.2,1.6,7.6,1.6,7.6s-27.4,17.4-30.2,18.4C253.7,337.4,252,335.8,255.8,331z"/>
			<g id="XMLID_433_">
				<linearGradient id="XMLID_52_" gradientUnits="userSpaceOnUse" x1="272.4017" y1="301.0266" x2="282.633" y2="301.0266">
					<stop  offset="0" style="stop-color:#FFFFFF"/>
					<stop  offset="1" style="stop-color:#E3EDF5"/>
				</linearGradient>
				<path id="XMLID_2063_" class="st37" d="M282.6,292.3l-1.4,7.2l-1.2,6c0,0-0.6,3.8-3.3,4.2c-2.7,0.4-4.3-2.3-4.3-2.3l0.1-4
					l0.2-7.8L282.6,292.3z"/>
				<linearGradient id="XMLID_53_" gradientUnits="userSpaceOnUse" x1="277.6982" y1="289.1544" x2="277.3742" y2="310.974">
					<stop  offset="0" style="stop-color:#BCBEC0"/>
					<stop  offset="1" style="stop-color:#E3EDF5"/>
				</linearGradient>
				<path id="XMLID_2061_" class="st38" d="M282.6,292.3l-1.4,7.2c-0.4,0.3-0.8,0.5-1.2,0.8c-2.9,1.8-5.4,2.7-7.5,3.1l0.2-7.8
					L282.6,292.3z"/>
			</g>
		</g>
		<g id="XMLID_2055_">
			
				<linearGradient id="XMLID_54_" gradientUnits="userSpaceOnUse" x1="305.7668" y1="158.3323" x2="278.1142" y2="240.4259" gradientTransform="matrix(0.9988 -4.961183e-002 4.961183e-002 0.9988 -20.2574 60.612)">
				<stop  offset="0" style="stop-color:#0F445A"/>
				<stop  offset="1" style="stop-color:#013031"/>
			</linearGradient>
			<path id="XMLID_447_" class="st39" d="M302.6,214.1c-0.3,8.1-9.2,31-15.3,52.6c-6.1,21.6-0.9,26.2-0.9,26.2s-3.4,4.4-9,6.8
				c-0.7,0.3-1.4,0.5-2.1,0.7c-6.8,2-7-1-7-1s0-30.8,0.9-60c0.9-29.2,4.6-39.4,12.4-42.3c12.3-4.6,18.3,3.4,20.2,11
				C302.4,210.3,302.7,212.4,302.6,214.1z"/>
			<linearGradient id="XMLID_55_" gradientUnits="userSpaceOnUse" x1="247.0309" y1="210.7492" x2="267.4777" y2="232.085">
				<stop  offset="0" style="stop-color:#3F93B0"/>
				<stop  offset="1" style="stop-color:#1A576A"/>
			</linearGradient>
			<path id="XMLID_2056_" class="st40" d="M279.8,200.9c2.8,2.2-1.3,5.5-4.6,26c-3.2,20.5-6,51-6,51s-0.4-38.5,1-52.2
				C272.6,202.2,277,198.8,279.8,200.9z"/>
			
				<linearGradient id="XMLID_56_" gradientUnits="userSpaceOnUse" x1="314.15" y1="239.6175" x2="298.5954" y2="205.4838" gradientTransform="matrix(0.9988 -4.961183e-002 4.961183e-002 0.9988 -20.2574 60.612)">
				<stop  offset="0" style="stop-color:#18586C"/>
				<stop  offset="1" style="stop-color:#002439"/>
			</linearGradient>
			<path id="XMLID_444_" class="st41" d="M302.6,214.1c-0.3,8.1-9.2,31-15.3,52.6c-6.1,21.6-0.9,26.2-0.9,26.2s-3.4,4.4-9,6.8
				c0,0,0-0.1,0-0.1c2.8-4.3-2.4-5.4,0.5-12.1c2.9-6.6,3.1-21.2,11-44.5c5.6-16.5,10.4-28.7,13-35
				C302.4,210.3,302.7,212.4,302.6,214.1z"/>
		</g>
	</g>
</g>
<g id="RIGHT_LEG_1">
	<g id="XMLID_2057_">
		<g id="XMLID_432_">
			<linearGradient id="XMLID_57_" gradientUnits="userSpaceOnUse" x1="334.0673" y1="197.5173" x2="286.7955" y2="272.9049">
				<stop  offset="0" style="stop-color:#0F445A"/>
				<stop  offset="1" style="stop-color:#174547"/>
			</linearGradient>
			<path id="XMLID_2069_" class="st42" d="M372.1,223.5c-4.5,10.8-18.5,18.6-28.3,17.7c-12-1-46.1-12.9-55-17.5
				c-0.3-0.1-0.5-0.3-0.7-0.4c-4.7-2.7-8.7-5.1-10.5-9.7c-1.2-2.9-1.5-6.6-0.6-11.7c0.8-4.7,10.2-8.1,16.9-8.2
				c8.6-0.1,42.2,2.6,45.5,2.6c3.2,0,30.7,2.9,33.9,17c0.1,0.4,0.2,0.8,0.2,1.2C373.9,217.6,373.3,220.7,372.1,223.5z"/>
			<linearGradient id="XMLID_58_" gradientUnits="userSpaceOnUse" x1="243.5913" y1="157.1818" x2="329.1415" y2="213.6392">
				<stop  offset="0" style="stop-color:#3F93B0"/>
				<stop  offset="1" style="stop-color:#1A576A"/>
			</linearGradient>
			<path id="XMLID_2065_" class="st43" d="M373.2,213.2c-15.3-8.6-36.8-16.1-74.2-17.2c-14.4-0.4-17.3,4.8-21.4,17.6
				c-1.2-2.9-1.5-6.6-0.6-11.7c0.8-4.7,10.2-8.1,16.9-8.2c8.6-0.1,42.2,2.6,45.5,2.6C342.6,196.3,370,199.2,373.2,213.2z"/>
		</g>
		<linearGradient id="XMLID_59_" gradientUnits="userSpaceOnUse" x1="337.6463" y1="247.2637" x2="323.6039" y2="200.816">
			<stop  offset="0" style="stop-color:#18586C"/>
			<stop  offset="1" style="stop-color:#002439"/>
		</linearGradient>
		<path id="XMLID_2066_" class="st44" d="M372.1,223.5c-4.5,10.8-18.5,18.6-28.3,17.7c-12-1-46.1-12.9-55-17.5
			c5.9-1.8,26,3.2,47.5,3.6C351.4,227.6,363.9,225.5,372.1,223.5z"/>
	</g>
</g>
<g id="LEFT_LEG_2">
	<g id="XMLID_439_">
		<linearGradient id="XMLID_60_" gradientUnits="userSpaceOnUse" x1="302.3566" y1="224.2063" x2="392.8978" y2="224.2063">
			<stop  offset="0" style="stop-color:#1D5C5C"/>
			<stop  offset="1" style="stop-color:#085375"/>
		</linearGradient>
		<path id="XMLID_2044_" class="st45" d="M392.9,223.5c0,0-2.3,9.3-11.2,15.4c-1.3,0.9-2.9,1.8-4.5,2.5c-12.8,5.6-22.9,6-41.5-1.1
			c-18.6-7.1-28.3-11.9-31.3-16.9c-1.1-1.7-1.8-4.2-1.9-6.9c-0.3-5,1.5-10.6,7.1-12.1c8.6-2.4,34.1-1.5,40.4-1.7c1,0,2-0.1,2.9-0.1
			c5.1,0,9.5,0.4,12.4,1.3c3.1,1,17.4,9.3,25.3,16.9C391.4,221.8,392.2,222.7,392.9,223.5z"/>
		<linearGradient id="XMLID_61_" gradientUnits="userSpaceOnUse" x1="347.3846" y1="211.0392" x2="348.4648" y2="248.8455">
			<stop  offset="0" style="stop-color:#18586C"/>
			<stop  offset="1" style="stop-color:#07435E"/>
		</linearGradient>
		<path id="XMLID_2042_" class="st46" d="M392.9,223.5c0,0-3,12.3-15.8,17.9c-12.8,5.6-22.9,6-41.5-1.1
			c-18.6-7.1-28.3-11.9-31.3-16.9c-0.6-0.9-1.1-2.1-1.4-3.5c-0.3-1.1-0.5-2.2-0.5-3.4c10.8,4.8,35,14.2,58.3,11.5
			c13.7-1.6,25-2.4,29.9-7.2c0.8,0.8,1.6,1.6,2.3,2.4C392.8,223.4,392.8,223.5,392.9,223.5z"/>
		<linearGradient id="XMLID_62_" gradientUnits="userSpaceOnUse" x1="343.972" y1="215.6071" x2="358.6625" y2="240.6673">
			<stop  offset="0" style="stop-color:#18586C"/>
			<stop  offset="1" style="stop-color:#07435E"/>
		</linearGradient>
		<path id="XMLID_2038_" class="st47" d="M392.9,223.5c0,0-3,12.3-15.8,17.9c-12.8,5.6-22.9,6-41.5-1.1
			c-18.6-7.1-28.3-11.9-31.3-16.9c-0.6-0.9-1.1-2.1-1.4-3.5c2,1,4.6,2.6,8.1,5c10,6.7,33.5,12.8,57.7,8.9c12-1.9,19.5-6.4,24.1-10.5
			C392.8,223.4,392.8,223.5,392.9,223.5z"/>
		<path id="XMLID_2041_" class="st48" d="M392.9,223.5c0,0-2.3,9.3-11.2,15.4c-0.2-5.3-1.5-14.9-8.6-23
			c-5.9-6.7-14.2-10.9-20.2-13.2c5.1,0,9.5,0.4,12.4,1.3c3.1,1,17.4,9.3,25.3,16.9C391.4,221.8,392.2,222.7,392.9,223.5z"/>
	</g>
</g>
<g id="LEFT_LEG_1">
	<g id="XMLID_15_">
		<g id="XMLID_442_">
			<linearGradient id="XMLID_63_" gradientUnits="userSpaceOnUse" x1="306.1448" y1="195.4391" x2="347.1885" y2="274.3582">
				<stop  offset="0" style="stop-color:#1D5C5C"/>
				<stop  offset="1" style="stop-color:#085375"/>
			</linearGradient>
			<path id="XMLID_2040_" class="st49" d="M348.6,270.6l-9.4,3.1l-3.6,1.2c0,0-19.5-34.8-26.6-44.3c-6.9-9.2-9.2-12.8-6.1-20.7
				c0.1-0.1,0.1-0.3,0.2-0.4c0-0.1,0.1-0.2,0.1-0.3c0.6-1.4,1.5-2.6,2.8-3.5c6.5-4.9,20.6-3.9,26.4,8.1c0,0,9.1,19.7,12.1,32.4
				c0.8,3.6,1.5,7,2.1,10.2c0.1,0.3,0.1,0.6,0.1,0.8C348.1,265,348.6,270.6,348.6,270.6z"/>
			<linearGradient id="XMLID_64_" gradientUnits="userSpaceOnUse" x1="301.6227" y1="242.2331" x2="348.6191" y2="242.2331">
				<stop  offset="0" style="stop-color:#18586C"/>
				<stop  offset="1" style="stop-color:#07435E"/>
			</linearGradient>
			<path id="XMLID_2039_" class="st50" d="M348.6,270.6l-9.4,3.1l-3.6,1.2c0,0-6.9-12.3-14-24.3c-4.8-8.1-9.7-16.1-12.6-20
				c-6.9-9.2-9.2-12.8-6.1-20.7c0.1-0.1,0.1-0.3,0.2-0.4c3.1,8.6,10.6,23.2,19.1,33.6c9.3,11.4,18.8,13.8,24.5,14.1
				c0.3,1.7,0.5,3.2,0.8,4.7C348.3,267.1,348.6,270.6,348.6,270.6z"/>
			<linearGradient id="XMLID_65_" gradientUnits="userSpaceOnUse" x1="331.767" y1="281.3007" x2="333.6033" y2="270.0668">
				<stop  offset="0" style="stop-color:#18586C"/>
				<stop  offset="1" style="stop-color:#07435E"/>
			</linearGradient>
			<path id="XMLID_2035_" class="st51" d="M348.6,270.6l-9.4,3.1l-3.6,1.2c0,0-6.9-12.3-14-24.3c3.7,3.7,8.5,7.5,13.9,9.5
				c5.8,2.1,9.6,2.2,12,1.8C348.3,267.1,348.6,270.6,348.6,270.6z"/>
			<linearGradient id="XMLID_66_" gradientUnits="userSpaceOnUse" x1="315.7178" y1="190.327" x2="331.2724" y2="248.2246">
				<stop  offset="0" style="stop-color:#3F93B0"/>
				<stop  offset="1" style="stop-color:#1A576A"/>
			</linearGradient>
			<path id="XMLID_2036_" class="st52" d="M346.6,256.4c-2-0.3-8.9-27.3-18.1-38.5c-8.3-10.1-19.4-11.1-22.5-12.2
				c6.5-4.9,20.6-3.9,26.4,8.1c0,0,9.1,19.7,12.1,32.4C345.4,249.8,346,253.2,346.6,256.4z"/>
			<linearGradient id="XMLID_67_" gradientUnits="userSpaceOnUse" x1="300.4032" y1="202.2179" x2="317.9021" y2="239.8081">
				<stop  offset="0" style="stop-color:#18586C"/>
				<stop  offset="1" style="stop-color:#07435E"/>
			</linearGradient>
			<path id="XMLID_440_" class="st53" d="M339.2,273.7l-3.6,1.2c0,0-19.5-34.8-26.6-44.3c-6.9-9.2-9.2-12.8-6.1-20.7
				c2,4.6,6.6,14.2,15.4,27.4C330.4,255.3,337.2,264.6,339.2,273.7z"/>
		</g>
		<g id="XMLID_13_">
			<linearGradient id="XMLID_68_" gradientUnits="userSpaceOnUse" x1="328.4832" y1="278.7022" x2="357.3891" y2="278.7022">
				<stop  offset="0.1179" style="stop-color:#24245A"/>
				<stop  offset="1" style="stop-color:#171441"/>
			</linearGradient>
			<path id="XMLID_445_" class="st54" d="M354.5,291.8c-4.2,2.3-8.2,2.2-9.7-1.3c-2.3-5.5-5.9-6.9-12.6-10.4
				c-2.7-1.4-7.1-8.1,0.5-13.3c7.6-5.2,13.9-1.9,17.4,0.5c4.5,3.3,6.3,9.6,6.8,12.1c0.2,1,0.3,1.9,0.4,2.8
				C357.7,286.6,356.8,290.6,354.5,291.8z"/>
			<linearGradient id="XMLID_69_" gradientUnits="userSpaceOnUse" x1="357.2786" y1="303.706" x2="335.9631" y2="263.9554">
				<stop  offset="0.1126" style="stop-color:#D74D71"/>
				<stop  offset="1" style="stop-color:#171441"/>
			</linearGradient>
			<path id="XMLID_441_" class="st55" d="M354.5,291.8c-4.2,2.3-8.2,2.2-9.7-1.3c-2.3-5.5-5.9-6.9-12.6-10.4c-1-1.9-1.7-4.6-0.2-7.7
				c2.7-5.7,10.4-6.4,15.7-3.6c5.3,2.8,6.7,5.4,9.1,11.7c0.2,0.6,0.4,1.2,0.6,1.7C357.7,286.6,356.8,290.6,354.5,291.8z"/>
		</g>
	</g>
</g>
<g id="ROCKET_FIRE">
	<g id="XMLID_10_">
		<g id="XMLID_1768_">
			<linearGradient id="XMLID_70_" gradientUnits="userSpaceOnUse" x1="102.5224" y1="463.9205" x2="293.932" y2="463.9205">
				<stop  offset="0.1385" style="stop-color:#F7B142"/>
				<stop  offset="1" style="stop-color:#EF794A"/>
			</linearGradient>
			<path id="XMLID_1925_" class="st56" d="M289.6,461.2c-4.2,4.9-11.2,11-20.6,18.8c-25.8,21.3-113.1,78.2-113.1,78.2h-0.5
				c0,0,100.9-74.7,110.1-85.8c9.1-11.1,13.4-18.1-8.8-14.3c-4,0.7-9.6,2.1-16.3,4c-0.1,0-0.1,0-0.2,0.1
				c-30.4,8.7-81.9,27.4-97.5,32.1c-12.6,3.8-25.7,6.2-33.3,5c-3.9-0.6-6.4-2.2-6.7-5c-0.8-8.3-0.9-27.8,27.4-57.3
				c24.2-25.2,51.7-44.2,70.2-55.5c12.7-7.8,21.2-11.9,21.2-11.9l11.2,29.1c0,0-48.2,27.2-68.6,44.6c-20.4,17.5-35.6,40.5-35.4,44.3
				c0,0.3,0.2,0.6,0.6,0.7c3.5,1.3,23.6-7.9,48.8-16.9c23.2-8.3,49.6-17.1,71.2-22.1c14-3.2,25.9-4.7,33.6-3.4
				C295.4,448.3,296.8,452.8,289.6,461.2z"/>
			<linearGradient id="XMLID_71_" gradientUnits="userSpaceOnUse" x1="220.6401" y1="483.0369" x2="174.0058" y2="441.9876">
				<stop  offset="0.1385" style="stop-color:#F7B142"/>
				<stop  offset="1" style="stop-color:#EF794A"/>
			</linearGradient>
			<path id="XMLID_1769_" class="st57" d="M240.2,462.2c-30.4,8.7-81.9,27.4-97.5,32.1c-12.6,3.8-25.7,6.2-33.3,5
				c-0.3-0.3-0.5-0.6-0.7-1c-6.9-13,22.5-41,53.6-70.4c31.1-29.4,36.7-24.2,44.5-37.2c5.7-9.4-1.9-9.7-6.5-9.2
				c12.7-7.8,21.2-11.9,21.2-11.9l11.2,29.1c0,0-48.2,27.2-68.6,44.6c-20.4,17.5-35.6,40.5-35.4,44.3c0,0.3,0.2,0.6,0.6,0.7
				c1.1,2.4,6.1,2.5,16.8-0.9C169.7,480,222.5,466.7,240.2,462.2z"/>
			<linearGradient id="XMLID_72_" gradientUnits="userSpaceOnUse" x1="223.3325" y1="464.5165" x2="223.0678" y2="464.2835">
				<stop  offset="0.1385" style="stop-color:#F7B142"/>
				<stop  offset="1" style="stop-color:#EF794A"/>
			</linearGradient>
			<path id="XMLID_1914_" class="st58" d="M222.7,464.5c0.2-0.1,0.5-0.2,0.9-0.3C223.3,464.3,222.9,464.4,222.7,464.5z"/>
			<linearGradient id="XMLID_73_" gradientUnits="userSpaceOnUse" x1="260.9725" y1="451.6937" x2="261.2606" y2="477.33">
				<stop  offset="0.1385" style="stop-color:#F7B142"/>
				<stop  offset="1" style="stop-color:#EF794A"/>
			</linearGradient>
			<path id="XMLID_1919_" class="st59" d="M289.6,461.2c-0.1-3.3-1.9-8.1-11.7-8.9c-11.6-0.9-37.7,6.7-49.7,10.4
				c11.1-3.6,33.5-11.1,33.4-12.3c-0.2-1.5-5.2-1.3-12.2-1.1c14-3.2,25.9-4.7,33.6-3.4C295.4,448.3,296.8,452.8,289.6,461.2z"/>
			
				<linearGradient id="XMLID_74_" gradientUnits="userSpaceOnUse" x1="144.9092" y1="466.2254" x2="139.0957" y2="453.9866" gradientTransform="matrix(1 5.043191e-003 -5.043191e-003 1 2.9123 -6.6691)">
				<stop  offset="0.1385" style="stop-color:#F7B142"/>
				<stop  offset="1" style="stop-color:#FAD58D"/>
			</linearGradient>
			<path id="XMLID_455_" class="st60" d="M169.2,404.4c4.7-3.5,4.9,3.2-3.5,9.8c-8.4,6.6-39.3,34.4-49.2,47
				c-9.9,12.6-13.1,22.7-13.1,22.7s3-15.3,21.5-38.2S161.9,409.9,169.2,404.4z"/>
			<linearGradient id="XMLID_75_" gradientUnits="userSpaceOnUse" x1="286.0398" y1="458.2783" x2="283.6707" y2="453.2906">
				<stop  offset="0.1385" style="stop-color:#F7B142"/>
				<stop  offset="1" style="stop-color:#FAD58D"/>
			</linearGradient>
			<path id="XMLID_1766_" class="st61" d="M275,446c-5,0-6.4,3.6,1.1,3.3c4.1-0.1,12.4,0,15.1,2.7c2.7,2.7,1,4.9,1,4.9
				s2.7-2.5,0.6-5.9C290.8,447.5,280.3,446,275,446z"/>
			<linearGradient id="XMLID_76_" gradientUnits="userSpaceOnUse" x1="280.0485" y1="481.1819" x2="267.0864" y2="472.5405">
				<stop  offset="0.1385" style="stop-color:#F7B142"/>
				<stop  offset="1" style="stop-color:#EF794A"/>
			</linearGradient>
			<path id="XMLID_256_" class="st62" d="M274.9,455.3c2.8-1.1,14.7,0,8.4,8.6c-6.3,8.6-32.2,24.8-32.2,24.8s22.3-19,25.1-25.7
				S274.9,455.3,274.9,455.3z"/>
			<linearGradient id="XMLID_77_" gradientUnits="userSpaceOnUse" x1="180.4319" y1="444.4512" x2="163.149" y2="428.0324">
				<stop  offset="0.1385" style="stop-color:#F7B142"/>
				<stop  offset="1" style="stop-color:#EF794A"/>
			</linearGradient>
			<path id="XMLID_1767_" class="st63" d="M216.2,395c0,0-26.5,15.6-47.2,34.6s-33.7,33.1-38,41.2c-4.3,8.1-3.2,15.8-3.2,15.8
				s12.4-25.1,35.4-44.6c23-19.6,63.1-43.5,63.1-43.5S227.7,390.7,216.2,395z"/>
		</g>
		
			<linearGradient id="XMLID_78_" gradientUnits="userSpaceOnUse" x1="1101.9745" y1="-735.6494" x2="1076.1941" y2="-718.5105" gradientTransform="matrix(0.2377 -0.8431 0.8548 0.241 508.804 1520.8418)">
			<stop  offset="0" style="stop-color:#FAD58D"/>
			<stop  offset="0.8615" style="stop-color:#F7B142"/>
		</linearGradient>
		<path id="XMLID_246_" class="st64" d="M163.9,559.3c0,0,40.9-27.1,42.5-26.7c1.6,0.4-5.4,7.8-16.6,14.1
			C181.8,551.2,163.9,559.3,163.9,559.3z"/>
		
			<linearGradient id="XMLID_79_" gradientUnits="userSpaceOnUse" x1="1603.4432" y1="-1027.8555" x2="1596.4799" y2="-1042.515" gradientTransform="matrix(-7.930746e-002 -0.6469 0.6842 -8.387496e-002 1004.8768 1486.8809)">
			<stop  offset="0" style="stop-color:#FAD58D"/>
			<stop  offset="0.8615" style="stop-color:#F7B142"/>
		</linearGradient>
		<path id="XMLID_1929_" class="st65" d="M150.1,559.1c0,0,21.3-30.5,22.6-30.6c1.2-0.2,2.1,3.9-5.2,13.1
			C163,547,150.1,559.1,150.1,559.1z"/>
		
			<linearGradient id="XMLID_80_" gradientUnits="userSpaceOnUse" x1="2318.7954" y1="-751.8253" x2="2314.1897" y2="-761.5214" gradientTransform="matrix(-0.3469 -0.5518 0.5835 -0.3669 1399.1444 1542.6456)">
			<stop  offset="0" style="stop-color:#FAD58D"/>
			<stop  offset="0.8615" style="stop-color:#F7B142"/>
		</linearGradient>
		<path id="XMLID_1930_" class="st66" d="M147.9,559.9c0,0,4.2-24.3,4.9-24.7c0.7-0.4,2.4,1.8,0.6,9.3
			C152.3,549,147.9,559.9,147.9,559.9z"/>
	</g>
</g>
<g id="ROCKET_1">
	<g id="XMLID_1927_">
		<g id="XMLID_1574_">
			<linearGradient id="XMLID_81_" gradientUnits="userSpaceOnUse" x1="265.2554" y1="389.187" x2="241.5104" y2="410.9532">
				<stop  offset="0.1179" style="stop-color:#24245A"/>
				<stop  offset="1" style="stop-color:#171441"/>
			</linearGradient>
			<path id="XMLID_1577_" class="st67" d="M278,387c-2,6.9-8.2,14.7-17.2,21.3c-1.9,1.4-4,2.8-6.2,4c-12.3,7.2-25.1,9.8-33.6,7.8
				c0,0,0,0,0,0c2.4-8.4,11.1-18.1,23.4-25.3c2.2-1.3,4.4-2.4,6.6-3.4C261.2,386.8,271,385.3,278,387C278,387,278,387,278,387z"/>
			<linearGradient id="XMLID_82_" gradientUnits="userSpaceOnUse" x1="256.5745" y1="398.6353" x2="241.8238" y2="428.1366">
				<stop  offset="0.1179" style="stop-color:#24245A"/>
				<stop  offset="1" style="stop-color:#171441"/>
			</linearGradient>
			<path id="XMLID_1576_" class="st68" d="M278,387c-2,6.9-8.2,14.7-17.2,21.3c-10.2,4.6-20,6.1-27,4.4c0,0,0,0,0,0
				c2-6.9,8.2-14.7,17.2-21.3C261.2,386.8,271,385.3,278,387C278,387,278,387,278,387z"/>
			<linearGradient id="XMLID_83_" gradientUnits="userSpaceOnUse" x1="247.0146" y1="376.014" x2="249.7129" y2="405.1556">
				<stop  offset="0.1179" style="stop-color:#24245A"/>
				<stop  offset="1" style="stop-color:#171441"/>
			</linearGradient>
			<path id="XMLID_1575_" class="st69" d="M278,387c-2.4,8.4-11.1,18.1-23.4,25.3c-12.3,7.2-25.1,9.8-33.6,7.8c0,0,0,0,0,0L278,387
				C278,387,278,387,278,387z"/>
		</g>
		<g id="XMLID_448_">
			<linearGradient id="XMLID_84_" gradientUnits="userSpaceOnUse" x1="239.9385" y1="338.191" x2="216.1935" y2="359.9573">
				<stop  offset="0.1179" style="stop-color:#24245A"/>
				<stop  offset="1" style="stop-color:#171441"/>
			</linearGradient>
			<path id="XMLID_1541_" class="st70" d="M252.7,336c-2,6.9-8.2,14.7-17.2,21.3c-1.9,1.4-4,2.8-6.2,4c-12.3,7.2-25.1,9.8-33.6,7.8
				c0,0,0,0,0,0c2.4-8.4,11.1-18.1,23.4-25.3c2.2-1.3,4.4-2.4,6.6-3.4C235.9,335.8,245.7,334.3,252.7,336
				C252.7,336,252.7,336,252.7,336z"/>
			<linearGradient id="XMLID_85_" gradientUnits="userSpaceOnUse" x1="231.2575" y1="347.6394" x2="216.5069" y2="377.1407">
				<stop  offset="0.1179" style="stop-color:#24245A"/>
				<stop  offset="1" style="stop-color:#171441"/>
			</linearGradient>
			<path id="XMLID_451_" class="st71" d="M252.7,336c-2,6.9-8.2,14.7-17.2,21.3c-10.2,4.6-20,6.1-27,4.4c0,0,0,0,0,0
				c2-6.9,8.2-14.7,17.2-21.3C235.9,335.8,245.7,334.3,252.7,336C252.7,336,252.7,336,252.7,336z"/>
			<linearGradient id="XMLID_86_" gradientUnits="userSpaceOnUse" x1="221.6977" y1="325.0181" x2="224.396" y2="354.1597">
				<stop  offset="0.1179" style="stop-color:#24245A"/>
				<stop  offset="1" style="stop-color:#171441"/>
			</linearGradient>
			<path id="XMLID_450_" class="st72" d="M252.7,336c-2.4,8.4-11.1,18.1-23.4,25.3c-12.3,7.2-25.1,9.8-33.6,7.8c0,0,0,0,0,0
				L252.7,336C252.7,336,252.7,336,252.7,336z"/>
		</g>
		<g id="XMLID_1259_">
			<linearGradient id="XMLID_87_" gradientUnits="userSpaceOnUse" x1="318.377" y1="273.042" x2="387.7523" y2="412.8657">
				<stop  offset="0.1179" style="stop-color:#EE5A77"/>
				<stop  offset="1" style="stop-color:#801C56"/>
			</linearGradient>
			<path id="XMLID_1939_" class="st73" d="M445.8,266.1c0,0-5,34.6-46.7,65.8c-6.9,5.2-14.7,10.2-23.7,15
				c-63.7,34-123.2,51.8-123.2,51.8s-10.5-14.8-13.8-23.6c-0.1-0.3-0.2-0.6-0.3-0.8c-6.2-16.6-6.3-23.5-6.3-23.5s20.2-20,73.1-51.5
				c7.7-4.6,15.2-8.6,22.4-12c0,0,0,0,0,0c8.9-4.3,17.4-7.8,25.4-10.6c5.5-2,10.8-3.6,15.9-4.9c21.9-5.9,39.5-6.7,52.1-6.7
				C442.3,265,445.4,266,445.8,266.1C445.8,266.1,445.8,266.1,445.8,266.1z"/>
			<linearGradient id="XMLID_88_" gradientUnits="userSpaceOnUse" x1="300.602" y1="244.2031" x2="380.3443" y2="391.8872">
				<stop  offset="0.1179" style="stop-color:#EE5A77"/>
				<stop  offset="1" style="stop-color:#801C56"/>
			</linearGradient>
			<path id="XMLID_453_" class="st74" d="M445.8,266.1c0,0-6.8,46.9-70.4,80.8c-63.7,34-123.2,51.9-123.2,51.9s-2.9-4.1-6.1-9.3
				c-2.9-4.7-6.1-10.1-7.7-14.3c-0.1-0.3-0.2-0.5-0.3-0.8L445.8,266.1C445.8,266.1,445.8,266.1,445.8,266.1z"/>
			<linearGradient id="XMLID_89_" gradientUnits="userSpaceOnUse" x1="315.9034" y1="274.0196" x2="357.0261" y2="347.6829">
				<stop  offset="0.1179" style="stop-color:#EE5A77"/>
				<stop  offset="1" style="stop-color:#801C56"/>
			</linearGradient>
			<path id="XMLID_449_" class="st75" d="M445.8,266.1c0,0-6.8,46.9-70.4,80.8c-63.7,34-123.2,51.9-123.2,51.9s-2.9-4.1-6.1-9.3
				c24-9.5,87.2-37.8,131.3-61.9C426.5,300.8,445.8,266.1,445.8,266.1z"/>
			
				<linearGradient id="XMLID_90_" gradientUnits="userSpaceOnUse" x1="315.3386" y1="240.0059" x2="302.8085" y2="300.9281" gradientTransform="matrix(0.9998 -2.063605e-002 2.063605e-002 0.9998 -9.9762 29.3615)">
				<stop  offset="0.1179" style="stop-color:#EE5A77"/>
				<stop  offset="1" style="stop-color:#E88486"/>
			</linearGradient>
			<path id="XMLID_1923_" class="st76" d="M235.9,350.4c0,0,24.8-22.6,60.4-44.9s67.8-31.4,67.8-31.4s-0.1,3.9-0.1,7.1
				c0.1,3.2,0.1,4.5,0.1,4.5s-30.5,6.7-55.6,18.6S235.9,350.4,235.9,350.4z"/>
			<linearGradient id="XMLID_91_" gradientUnits="userSpaceOnUse" x1="348.0599" y1="246.6437" x2="336.8261" y2="293.8835">
				<stop  offset="0.1179" style="stop-color:#1F1E4E"/>
				<stop  offset="1" style="stop-color:#E88486"/>
			</linearGradient>
			<path id="XMLID_1937_" class="st77" d="M352.7,276.7c-3.2,4.6-10.4,13.1-20.6,14.3c-7.3,0.9-6.9-1.3-4.8-3.7c0,0,0,0,0,0
				C336.3,283,344.7,279.5,352.7,276.7z"/>
		</g>
		<g id="XMLID_1926_">
			<g id="XMLID_1260_">
				<linearGradient id="XMLID_92_" gradientUnits="userSpaceOnUse" x1="367.5051" y1="298.4964" x2="445.8153" y2="298.4964">
					<stop  offset="0.1385" style="stop-color:#F7B142"/>
					<stop  offset="1" style="stop-color:#EF794A"/>
				</linearGradient>
				<path id="XMLID_452_" class="st78" d="M445.8,266.1c0,0-0.2,1.7-1.1,4.6c-0.1,0.4-0.2,0.9-0.4,1.3c-1.7,5.5-5,14.3-11.8,24.7
					c-0.4,0.6-0.8,1.2-1.2,1.8c-1.3,1.9-2.7,3.9-4.2,5.9c-0.5,0.7-1,1.4-1.6,2.1c-0.6,0.7-1.1,1.4-1.7,2c-0.4,0.5-0.8,1-1.2,1.4
					c-3.7,4.3-8,8.8-12.9,13.2c-0.6,0.5-1.1,1-1.7,1.5c-0.3,0.3-0.6,0.6-0.9,0.8c-0.6,0.5-1.2,1-1.8,1.5c-2,1.7-4.2,3.4-6.4,5.1
					c-4.5-1.9-9.5-4.7-14-8.7c-4.3-3.6-8.2-8.4-11.1-14.4c-0.7-1.5-1.3-2.9-1.9-4.3c-5.9-14.7-4.8-26.5-3.4-32.8
					c17.8-4.8,32.7-6.2,44.5-6.6h0c2.7-0.1,5.3-0.1,7.6-0.1C442.3,265,445.4,266,445.8,266.1C445.8,266.1,445.8,266.1,445.8,266.1z"
					/>
				<linearGradient id="XMLID_93_" gradientUnits="userSpaceOnUse" x1="395.8422" y1="266.3201" x2="433.6572" y2="324.2495">
					<stop  offset="0.1385" style="stop-color:#F7B142"/>
					<stop  offset="1" style="stop-color:#EF794A"/>
				</linearGradient>
				<path id="XMLID_457_" class="st79" d="M445.8,266.1c0,0-0.1,0.5-0.2,1.3c0,0.2-0.1,0.4-0.2,0.7c0,0,0,0.1,0,0.1
					c0,0.2-0.1,0.3-0.1,0.5c-0.2,0.6-0.3,1.2-0.5,2c-0.1,0.4-0.2,0.9-0.4,1.3c-0.2,0.6-0.4,1.3-0.6,2c-0.2,0.6-0.4,1.1-0.6,1.7
					c-0.3,0.7-0.5,1.5-0.9,2.3c-0.2,0.5-0.4,1.1-0.7,1.7c-3.2,7.6-8.5,17.8-17.7,28.8c-0.4,0.5-0.8,1-1.2,1.4
					c-3.7,4.3-8,8.8-12.9,13.2c-0.6,0.5-1.1,1-1.7,1.5c-1.5,1.4-3.1,2.7-4.8,4c-1.4,1.1-2.8,2.3-4.3,3.4
					c-8.7-3.7-19.1-10.6-25.1-23.1c-0.7-1.5-1.3-2.9-1.9-4.3L445.8,266.1C445.8,266.1,445.8,266.1,445.8,266.1z"/>
				<linearGradient id="XMLID_94_" gradientUnits="userSpaceOnUse" x1="402.8639" y1="273.0037" x2="424.3192" y2="310.0141">
					<stop  offset="0.1385" style="stop-color:#F7B142"/>
					<stop  offset="1" style="stop-color:#EF794A"/>
				</linearGradient>
				<path id="XMLID_456_" class="st80" d="M445.8,266.1c0,0-0.2,1.7-1.1,4.6c-0.1,0.4-0.2,0.9-0.4,1.3c-1.7,5.8-5.4,15.3-12.9,26.5
					c-1.3,1.9-2.7,3.9-4.2,5.9c-0.5,0.7-1,1.4-1.6,2.1c-0.6,0.7-1.1,1.4-1.7,2c-0.4,0.5-0.8,1-1.2,1.4c-3.7,4.3-8,8.8-12.9,13.2
					c-0.6,0.5-1.1,1-1.7,1.5c-0.3,0.3-0.6,0.6-0.9,0.8c-0.6,0.5-1.2,1-1.8,1.5c-2,1.7-4.2,3.4-6.4,5.1c-4.5-1.9-9.5-4.7-14-8.7
					C428.5,297.2,445.8,266.1,445.8,266.1z"/>
				<linearGradient id="XMLID_95_" gradientUnits="userSpaceOnUse" x1="395.712" y1="289.7144" x2="376.7008" y2="262.4939">
					<stop  offset="0.1385" style="stop-color:#F7B142"/>
					<stop  offset="1" style="stop-color:#FAD58D"/>
				</linearGradient>
				<path id="XMLID_1901_" class="st81" d="M369.7,273c0,0,7.3-2.8,22.7-4.8c15.3-1.9,18.1-1.5,18.1-1.5s-15.6,3.2-26.1,10.4
					c-7.8,5.2-11.2,24.6-11.2,24.6S366.7,286.2,369.7,273z"/>
				<linearGradient id="XMLID_96_" gradientUnits="userSpaceOnUse" x1="427.3965" y1="333.1732" x2="388.51" y2="285.9333">
					<stop  offset="0.1385" style="stop-color:#F7B142"/>
					<stop  offset="1" style="stop-color:#FAD58D"/>
				</linearGradient>
				<path id="XMLID_1773_" class="st82" d="M430.7,297.8c0,0-8.5,13.9-16.9,21.5s-15,12.1-15,12.1s-2.7-0.9-6.5-3.5
					c-3.7-2.6-3.7-2.6-3.7-2.6s6,2.3,18-6.2C418.6,310.7,430.7,297.8,430.7,297.8z"/>
			</g>
			<g id="XMLID_1264_">
				<linearGradient id="XMLID_97_" gradientUnits="userSpaceOnUse" x1="433.5838" y1="282.6964" x2="419.6378" y2="237.9084">
					<stop  offset="0.1179" style="stop-color:#24245A"/>
					<stop  offset="1" style="stop-color:#171441"/>
				</linearGradient>
				<path id="XMLID_461_" class="st83" d="M445.8,266.1c0,0-0.2,1.7-1.1,4.6c-0.1,0.4-0.2,0.9-0.4,1.3c-0.2,0.6-0.4,1.3-0.6,2
					c-0.3,0.9-0.6,1.8-1,2.9c-0.1,0.3-0.2,0.6-0.3,0.9c-0.6,1.7-1.4,3.5-2.3,5.5c-0.3,0.6-0.5,1.1-0.8,1.7c-1.1,2.3-2.4,4.8-4,7.4
					c-0.1,0.1-0.2,0.3-0.2,0.4c-0.2,0.3-0.4,0.6-0.6,0.9c-0.6,1-1.2,2-1.9,3c-2.4-1.1-5.1-2.6-7.6-4.6c-3.2-2.6-6.3-6-8.7-10.6
					c0,0,0,0,0,0c-3.3-6.5-3.6-12.4-3.2-16.3h0c2.7-0.1,5.3-0.1,7.6-0.1C442.3,265,445.4,266,445.8,266.1
					C445.8,266.1,445.8,266.1,445.8,266.1z"/>
				<linearGradient id="XMLID_98_" gradientUnits="userSpaceOnUse" x1="423.1888" y1="257.1141" x2="443.0349" y2="299.2202">
					<stop  offset="0.1179" style="stop-color:#24245A"/>
					<stop  offset="1" style="stop-color:#171441"/>
				</linearGradient>
				<path id="XMLID_458_" class="st84" d="M445.8,266.1c0,0-0.1,0.5-0.2,1.3c0,0.2-0.1,0.4-0.2,0.7c0,0,0,0.1,0,0.1
					c0,0.2-0.1,0.3-0.1,0.5c-0.2,0.6-0.3,1.2-0.5,2c-0.1,0.4-0.2,0.9-0.4,1.3c-0.2,0.6-0.4,1.3-0.6,2c-0.2,0.6-0.4,1.1-0.6,1.7
					c-0.3,0.7-0.5,1.5-0.9,2.3c-0.2,0.5-0.4,1.1-0.7,1.7c-0.8,1.9-1.7,4-2.8,6.2c-0.6,1.1-1.1,2.2-1.8,3.4c-0.6,1.2-1.3,2.3-2,3.6
					c-0.8,1.3-1.6,2.6-2.4,3.9c-5.6-2.5-12.1-7-16.3-15.2c0,0,0,0,0,0L445.8,266.1C445.8,266.1,445.8,266.1,445.8,266.1z"/>
				<linearGradient id="XMLID_99_" gradientUnits="userSpaceOnUse" x1="418.614" y1="243.3148" x2="438.7284" y2="286.2255">
					<stop  offset="0.1179" style="stop-color:#24245A"/>
					<stop  offset="1" style="stop-color:#171441"/>
				</linearGradient>
				<path id="XMLID_459_" class="st85" d="M445.8,266.1c0,0-0.2,1.7-1.1,4.6c-0.1,0.4-0.2,0.9-0.4,1.3c-0.2,0.6-0.4,1.3-0.6,2
					c-0.3,0.9-0.6,1.8-1,2.9c-0.1,0.3-0.2,0.6-0.3,0.9c-0.6,1.7-1.4,3.5-2.3,5.5c-0.3,0.6-0.5,1.1-0.8,1.7c-1.1,2.3-2.4,4.8-4,7.4
					c-0.2,0.5-0.5,0.9-0.8,1.3c-0.6,1-1.2,2-1.9,3c-2.4-1.1-5.1-2.6-7.6-4.6C439.5,277.4,445.8,266.1,445.8,266.1z"/>
				<linearGradient id="XMLID_100_" gradientUnits="userSpaceOnUse" x1="449.0384" y1="263.9801" x2="419.0094" y2="267.8687">
					<stop  offset="0.1179" style="stop-color:#24245A"/>
					<stop  offset="1" style="stop-color:#00648D"/>
				</linearGradient>
				<path id="XMLID_1902_" class="st86" d="M415.1,266.2c0,0,15.2-0.4,21-0.2c5.8,0.1,7.6,0.3,7.1,0.4c-0.6,0.1-17.7,3.1-21.9,3.1
					S412.8,269,415.1,266.2z"/>
			</g>
		</g>
		<g id="XMLID_1265_">
			<linearGradient id="XMLID_101_" gradientUnits="userSpaceOnUse" x1="233.7785" y1="372.3006" x2="249.87" y2="405.02">
				<stop  offset="0.1385" style="stop-color:#F7B142"/>
				<stop  offset="1" style="stop-color:#EF794A"/>
			</linearGradient>
			<path id="XMLID_465_" class="st87" d="M252.2,398.8l-10.1,1.5c0,0-6.2-5.5-11.7-17.4c-0.7-1.5-1.3-3-1.9-4.5v0
				c-4.1-10.4-5.3-19.5-5.3-19.5l8.6-8c0,0,1.1,9.7,6.4,22.1c0.2,0.5,0.4,0.9,0.6,1.4C244.6,387.3,252.2,398.8,252.2,398.8z"/>
			<linearGradient id="XMLID_102_" gradientUnits="userSpaceOnUse" x1="228.0941" y1="364.9108" x2="249.5495" y2="407.1063">
				<stop  offset="0.1385" style="stop-color:#F7B142"/>
				<stop  offset="1" style="stop-color:#EF794A"/>
			</linearGradient>
			<path id="XMLID_464_" class="st88" d="M252.2,398.8l-10.1,1.5c0,0-4.1-3.7-8.7-11.6c-1-1.7-2-3.7-3-5.9c-0.7-1.5-1.3-3-1.9-4.5
				c1.4,0.6,2.8,0.9,4.2,0.8c3.2-0.4,4.8-3.9,5.4-6.2c0.2,0.5,0.4,0.9,0.6,1.4c1.4,3.2,3,6.3,4.5,9.2
				C247.8,392.3,252.2,398.8,252.2,398.8z"/>
			<linearGradient id="XMLID_103_" gradientUnits="userSpaceOnUse" x1="231.7953" y1="375.468" x2="243.7745" y2="394.9566">
				<stop  offset="0.1385" style="stop-color:#F7B142"/>
				<stop  offset="1" style="stop-color:#EF794A"/>
			</linearGradient>
			<path id="XMLID_460_" class="st89" d="M252.2,398.8l-10.1,1.5c0,0-4.1-3.7-8.7-11.6c1.4,0.6,2.9,1,4.4,0.9
				c3.1-0.4,4.7-3.9,5.4-6.1C247.8,392.3,252.2,398.8,252.2,398.8z"/>
		</g>
		<g id="XMLID_1266_">
			<linearGradient id="XMLID_104_" gradientUnits="userSpaceOnUse" x1="220.5093" y1="369.8728" x2="232.1309" y2="393.1161">
				<stop  offset="0.1385" style="stop-color:#F7B142"/>
				<stop  offset="1" style="stop-color:#EF794A"/>
			</linearGradient>
			<path id="XMLID_468_" class="st90" d="M240.9,399.3l-9.7,2.4c0,0-3-2.5-8.8-13.3c-0.2-0.3-0.3-0.6-0.5-0.9
				c-6.1-11.6-5.4-17.9-5.4-17.9l7-8.2c0,0,2.7,11.3,6.4,20c0.2,0.4,0.4,0.8,0.6,1.3C234.5,391,240.9,399.3,240.9,399.3z"/>
			<linearGradient id="XMLID_105_" gradientUnits="userSpaceOnUse" x1="221.5862" y1="361.1034" x2="230.7047" y2="390.6044">
				<stop  offset="0.1385" style="stop-color:#F7B142"/>
				<stop  offset="1" style="stop-color:#EF794A"/>
			</linearGradient>
			<path id="XMLID_467_" class="st91" d="M240.9,399.3l-9.7,2.4c0,0-1.4-1.1-4-5.1c-1.3-2-2.9-4.6-4.8-8.2c1.2-0.1,2.4-0.4,3.6-0.9
				c2.7-1.2,3.9-3.2,4.4-4.7c1.1,2.4,2.5,4.8,3.8,7.1C237.7,395.2,240.9,399.3,240.9,399.3z"/>
			<linearGradient id="XMLID_106_" gradientUnits="userSpaceOnUse" x1="220.3314" y1="366.8994" x2="234.9925" y2="399.9763">
				<stop  offset="0.1385" style="stop-color:#F7B142"/>
				<stop  offset="1" style="stop-color:#EF794A"/>
			</linearGradient>
			<path id="XMLID_462_" class="st92" d="M240.9,399.3l-9.7,2.4c0,0-1.4-1.1-4-5.1c0.8-0.2,1.6-0.4,2.4-0.7c3.7-1.6,4.5-4.6,4.8-6.1
				C237.7,395.2,240.9,399.3,240.9,399.3z"/>
		</g>
		<g id="XMLID_438_">
			<linearGradient id="XMLID_107_" gradientUnits="userSpaceOnUse" x1="244.7987" y1="366.8769" x2="224.057" y2="385.8901">
				<stop  offset="0.1179" style="stop-color:#24245A"/>
				<stop  offset="1" style="stop-color:#171441"/>
			</linearGradient>
			<path id="XMLID_471_" class="st93" d="M256,365c-1.7,6-7.1,12.8-15,18.6c-1.7,1.2-3.5,2.4-5.4,3.5c-10.8,6.3-21.9,8.6-29.3,6.8
				c0,0,0,0,0,0c2.1-7.3,9.7-15.9,20.4-22.1c1.9-1.1,3.8-2.1,5.7-3C241.2,364.8,249.8,363.5,256,365C255.9,365,256,365,256,365z"/>
			<linearGradient id="XMLID_108_" gradientUnits="userSpaceOnUse" x1="237.2157" y1="375.1302" x2="224.3307" y2="400.9001">
				<stop  offset="0.1179" style="stop-color:#24245A"/>
				<stop  offset="1" style="stop-color:#171441"/>
			</linearGradient>
			<path id="XMLID_463_" class="st94" d="M256,365c-1.7,6-7.1,12.8-15,18.6c-8.9,4-17.5,5.3-23.6,3.8c0,0,0,0,0,0
				c1.7-6,7.1-12.9,15-18.6C241.2,364.8,249.8,363.5,256,365C255.9,365,256,365,256,365z"/>
			<linearGradient id="XMLID_109_" gradientUnits="userSpaceOnUse" x1="228.8651" y1="355.3701" x2="231.2221" y2="380.8258">
				<stop  offset="0.1179" style="stop-color:#24245A"/>
				<stop  offset="1" style="stop-color:#171441"/>
			</linearGradient>
			<path id="XMLID_466_" class="st95" d="M256,365c-2.1,7.3-9.7,15.9-20.4,22.1c-10.8,6.3-21.9,8.6-29.3,6.8c0,0,0,0,0,0L256,365
				C256,365,256,365,256,365z"/>
		</g>
		<g id="XMLID_1904_">
			<g id="XMLID_1250_">
				<linearGradient id="XMLID_110_" gradientUnits="userSpaceOnUse" x1="314.4097" y1="313.2031" x2="326.0756" y2="341.0717">
					<stop  offset="0.1179" style="stop-color:#EE5A77"/>
					<stop  offset="1" style="stop-color:#801C56"/>
				</linearGradient>
				<circle id="XMLID_1924_" class="st96" cx="323.9" cy="335.8" r="24"/>
				<linearGradient id="XMLID_111_" gradientUnits="userSpaceOnUse" x1="323.8085" y1="323.1629" x2="316.8355" y2="393.9655">
					<stop  offset="0.1179" style="stop-color:#24245A"/>
					<stop  offset="1" style="stop-color:#171441"/>
				</linearGradient>
				<circle id="XMLID_435_" class="st97" cx="322.8" cy="333.4" r="24"/>
				<linearGradient id="XMLID_112_" gradientUnits="userSpaceOnUse" x1="323.302" y1="299.0497" x2="322.7656" y2="336.0602">
					<stop  offset="0.1179" style="stop-color:#24245A"/>
					<stop  offset="1" style="stop-color:#171441"/>
				</linearGradient>
				<circle id="XMLID_436_" class="st98" cx="322.8" cy="333.4" r="16.7"/>
				<linearGradient id="XMLID_113_" gradientUnits="userSpaceOnUse" x1="330.0729" y1="288.0846" x2="311.2995" y2="405.0161">
					<stop  offset="0" style="stop-color:#59AAC0"/>
					<stop  offset="1" style="stop-color:#68C2C4"/>
				</linearGradient>
				<circle id="XMLID_437_" class="st99" cx="322.8" cy="333.4" r="14.8"/>
			</g>
			<linearGradient id="XMLID_114_" gradientUnits="userSpaceOnUse" x1="350.3956" y1="313.7013" x2="308.9612" y2="319.0669">
				<stop  offset="0.1179" style="stop-color:#24245A"/>
				<stop  offset="1" style="stop-color:#00648D"/>
			</linearGradient>
			<path id="XMLID_1903_" class="st100" d="M303.1,321.9c0,0,5.1-10.3,18-11.3c14.8-1.2,21.9,11,21.9,11s-6.3-8.4-20.7-8.7
				C308.7,312.5,303.1,321.9,303.1,321.9z"/>
			
				<linearGradient id="XMLID_115_" gradientUnits="userSpaceOnUse" x1="2565.5466" y1="685.5374" x2="2524.1123" y2="690.903" gradientTransform="matrix(-1 0 0 -1 2861 1038.0988)">
				<stop  offset="0.1179" style="stop-color:#24245A"/>
				<stop  offset="1" style="stop-color:#00648D"/>
			</linearGradient>
			<path id="XMLID_1920_" class="st101" d="M342.8,344.3c0,0-5.1,10.3-18,11.3c-14.8,1.2-21.9-11-21.9-11s6.3,8.4,20.7,8.7
				C337.2,353.7,342.8,344.3,342.8,344.3z"/>
			<linearGradient id="XMLID_116_" gradientUnits="userSpaceOnUse" x1="323.8908" y1="314.6157" x2="318.994" y2="328.154">
				<stop  offset="0" style="stop-color:#59AAC0"/>
				<stop  offset="1" style="stop-color:#68C2C4"/>
			</linearGradient>
			<path id="XMLID_1921_" class="st102" d="M319.6,319.5c-3.8,0.7-10.6,6.2-9.4,10.9c0.6,2.5,13,0.8,17.2-3.2
				C331.6,323.2,329,317.8,319.6,319.5z"/>
			
				<linearGradient id="XMLID_117_" gradientUnits="userSpaceOnUse" x1="2517.1733" y1="792.635" x2="2513.5542" y2="802.6409" gradientTransform="matrix(-0.9945 0.1045 -0.1045 -0.9945 2911.1704 875.6508)">
				<stop  offset="0" style="stop-color:#59AAC0"/>
				<stop  offset="1" style="stop-color:#68C2C4"/>
			</linearGradient>
			<path id="XMLID_1922_" class="st103" d="M327.7,346.6c2.7-0.8,7.3-5.4,6.1-8.8c-0.7-1.8-9.6,0.4-12.4,3.7
				C318.6,344.8,320.9,348.6,327.7,346.6z"/>
		</g>
	</g>
</g>
<g id="RIGHT_ARM_1">
	<g id="XMLID_482_">
		<g id="XMLID_418_">
			<linearGradient id="XMLID_118_" gradientUnits="userSpaceOnUse" x1="312.0171" y1="152.6735" x2="272.5541" y2="180.6144">
				<stop  offset="0" style="stop-color:#59AAC0"/>
				<stop  offset="1" style="stop-color:#68C2C4"/>
			</linearGradient>
			<path id="XMLID_2012_" class="st104" d="M333.3,153.8c-3,4.6-15.8,16-21.6,19.1c-5,2.7-8.8,2.6-11.4,0.4
				c-0.4-0.3-0.8-0.7-1.1-1.1c-0.7-0.9-1.1-1.7-1.2-2.7c-0.4-2.5,1.2-5.5,4-9.7c3.9-5.8,17.1-32,17.1-32c1.9-2,4.3-3.8,7-4.3
				c2.1-0.4,4.4-0.1,6.8,1.5c1.1,0.7,2.1,1.7,3.2,3.1C342.5,136.1,336.3,149.2,333.3,153.8z"/>
			<linearGradient id="XMLID_119_" gradientUnits="userSpaceOnUse" x1="319.0759" y1="151.296" x2="334.3065" y2="163.7181">
				<stop  offset="0" style="stop-color:#59AAC0"/>
				<stop  offset="1" style="stop-color:#4F83C4"/>
			</linearGradient>
			<path id="XMLID_2011_" class="st105" d="M333.3,153.8c-3,4.6-15.8,16-21.6,19.1c-2.4,1.3-4.5,2-6.4,2c-2,0.1-3.7-0.5-5.1-1.6
				c3.6-3.8,12.4-10.1,15.7-15.9c4.5-8.1,10.4-19.2,10.4-19.2c2.5-10,5.1-12.4,6.5-13.1c1.1,0.7,2.1,1.7,3.2,3.1
				c0.7,0.8,1.2,1.7,1.6,2.7C341.2,138.8,336,149.7,333.3,153.8z"/>
			<linearGradient id="XMLID_120_" gradientUnits="userSpaceOnUse" x1="314.7767" y1="146.2642" x2="331.6275" y2="162.971">
				<stop  offset="0" style="stop-color:#59AAC0"/>
				<stop  offset="1" style="stop-color:#4F83C4"/>
			</linearGradient>
			<path id="XMLID_2004_" class="st106" d="M333.3,153.8c-3,4.6-15.8,16-21.6,19.1c-2.4,1.3-4.5,2-6.4,2c0.7-1.6,7.9-5.8,12.3-10
				c8.6-8.4,13.2-23.7,13.2-23.7c2.3-6.4,4.8-9.2,6.9-10.5C341.2,138.8,336,149.7,333.3,153.8z"/>
			<linearGradient id="XMLID_121_" gradientUnits="userSpaceOnUse" x1="312.7015" y1="139.8095" x2="308.8129" y2="171.1347">
				<stop  offset="0" style="stop-color:#59AAC0"/>
				<stop  offset="1" style="stop-color:#68C2C4"/>
			</linearGradient>
			<path id="XMLID_2005_" class="st107" d="M326,123.6c-1.1,9-8.4,17.3-8.4,17.3s-10.8,16.4-13.8,21.7c-1.4,2.4-3.8,5.3-5.9,6.9
				c-0.4-2.5,1.2-5.5,4-9.7c3.9-5.8,17.1-32,17.1-32C320.9,125.9,323.3,124.1,326,123.6z"/>
		</g>
	</g>
</g>
<g id="RIGHT_ARM_2">
	<g id="XMLID_2016_">
		<g id="XMLID_419_">
			<linearGradient id="XMLID_122_" gradientUnits="userSpaceOnUse" x1="316.1598" y1="158.5211" x2="276.7019" y2="186.4584">
				<stop  offset="0" style="stop-color:#59AAC0"/>
				<stop  offset="1" style="stop-color:#68C2C4"/>
			</linearGradient>
			<path id="XMLID_2017_" class="st108" d="M303.2,177.4c-6.5,1.9-20.7,2.9-20.7,2.9s0.1-2-0.8-4.1c-0.4-1.1-1.1-2.2-2.2-3.1
				c0,0,20.2-10.4,23.9-10.9c2.5-0.4,5.2,0,7.2,1.6c1,0.8,1.9,2,2.4,3.6C314.6,172,309.7,175.6,303.2,177.4z"/>
			<linearGradient id="XMLID_123_" gradientUnits="userSpaceOnUse" x1="306.8697" y1="170.726" x2="269.7115" y2="186.6407">
				<stop  offset="0" style="stop-color:#59AAC0"/>
				<stop  offset="1" style="stop-color:#68C2C4"/>
			</linearGradient>
			<path id="XMLID_2018_" class="st109" d="M303.2,177.4c-6.5,1.9-20.7,2.9-20.7,2.9s0-0.6-0.1-1.4c-0.1-0.7-0.3-1.7-0.7-2.7
				c2.9-0.6,6.7-1.6,11.4-3.3c8.9-3.3,15.1-7.3,17.5-9.1c1,0.8,1.9,2,2.4,3.6c0.2,0.4,0.2,0.8,0.3,1.3
				C313.6,172.6,309.1,175.7,303.2,177.4z"/>
			<linearGradient id="XMLID_124_" gradientUnits="userSpaceOnUse" x1="296.8239" y1="172.8203" x2="301.7927" y2="180.8136">
				<stop  offset="0" style="stop-color:#59AAC0"/>
				<stop  offset="1" style="stop-color:#4F83C4"/>
			</linearGradient>
			<path id="XMLID_2014_" class="st110" d="M303.2,177.4c-6.5,1.9-20.7,2.9-20.7,2.9s0-0.6-0.1-1.4c3.8-1,10.9-2.9,17.6-4.7
				c8-2.2,12-4.7,13.3-5.6C313.6,172.6,309.1,175.7,303.2,177.4z"/>
			
				<linearGradient id="XMLID_125_" gradientUnits="userSpaceOnUse" x1="285.3555" y1="148.6434" x2="308.2013" y2="140.488" gradientTransform="matrix(0.9998 -2.153262e-002 2.153262e-002 0.9998 -8.7125 30.2497)">
				<stop  offset="0" style="stop-color:#59AAC0"/>
				<stop  offset="1" style="stop-color:#68C2C4"/>
			</linearGradient>
			<path id="XMLID_1951_" class="st111" d="M299.8,163.7c-4.9,1.6-15.9,6.9-15.6,7.8c0.3,0.9,15.1-4.5,17.9-6.2
				C304.9,163.6,304.7,162,299.8,163.7z"/>
		</g>
		<g id="XMLID_2015_">
			<linearGradient id="XMLID_126_" gradientUnits="userSpaceOnUse" x1="277.5237" y1="168.1569" x2="278.9571" y2="184.2621">
				<stop  offset="0" style="stop-color:#155472"/>
				<stop  offset="1" style="stop-color:#4F83C4"/>
			</linearGradient>
			<path id="XMLID_2013_" class="st112" d="M275.7,172.7c0,0-1.1,2.4,0.2,5.7c1.7,4.7,5.5,4.3,5.5,4.3s0.8-1.6-0.4-5.2
				C279.7,173.8,275.7,172.7,275.7,172.7z"/>
			<g id="XMLID_2007_">
				<g id="XMLID_2003_">
					<g id="XMLID_422_">
						<g id="XMLID_2002_">
							<linearGradient id="XMLID_127_" gradientUnits="userSpaceOnUse" x1="249.5724" y1="171.2619" x2="264.1189" y2="179.7593">
								<stop  offset="0.1436" style="stop-color:#F7AFAA"/>
								<stop  offset="0.9333" style="stop-color:#E58880"/>
							</linearGradient>
							<path id="XMLID_424_" class="st113" d="M260.9,172.9c0,0-4.6-0.9-6.2-0.6c-1.6,0.3-7.1,2.8-6.8,3.5c0.3,0.7,1.4,1.1,2.5,1
								s5.9-1.8,6.8-1.7c0.9,0.1,7.3,0.8,8.4,0.9c1.1,0.1,1.2-0.3,1.2-0.3S263.4,173,260.9,172.9z"/>
							<linearGradient id="XMLID_128_" gradientUnits="userSpaceOnUse" x1="249.0188" y1="172.2097" x2="263.5652" y2="180.7071">
								<stop  offset="0.1436" style="stop-color:#F7AFAA"/>
								<stop  offset="0.9333" style="stop-color:#E58880"/>
							</linearGradient>
							<path id="XMLID_426_" class="st114" d="M265.2,175.7c0,0-6-1-7.5-0.9s-4,1.8-4.6,2.3c-0.6,0.5-2.8,2.3-2.4,2.7
								c0.4,0.4,1.4,0.8,3-0.2s3.6-2.2,4.3-2.2c0.6,0,6.8,0.7,7.5,1s2.3,0.9,2.3,0.9s0.3-1,0.1-1.7
								C267.6,176.8,267.3,175.7,265.2,175.7z"/>
						</g>
						<linearGradient id="XMLID_129_" gradientUnits="userSpaceOnUse" x1="271.5571" y1="182.1043" x2="294.1796" y2="188.4443">
							<stop  offset="0.1436" style="stop-color:#F7AFAA"/>
							<stop  offset="0.9333" style="stop-color:#E58880"/>
						</linearGradient>
						<path id="XMLID_2023_" class="st115" d="M276.4,180.3c-0.4,0.7-5.7,4-7.1,5.3c-1.4,1.3-3.2,1.9-4.8,2.4
							c-1.1,0.3-2,0.2-2.2-0.3c-0.1-0.2-0.1-0.5,0-0.8c0.4-0.8,2.4-1.7,3.7-3.4c0.3-0.4,0.6-0.9,0.8-1.5c0.5-1.2-0.4-4.3-0.9-5.3
							c-0.5-1-5.3-3.1-6.8-3.7c-1.5-0.6-7.9-0.2-8.5-0.9c-0.2-0.3-0.4-0.6-0.3-0.9h0c0.1-0.3,0.4-0.6,1.1-0.8c1.3-0.4,7.7-0.1,8.6,0
							c0.9,0.1,12.5,3.9,14.3,4.8c1.2,0.6,1.9,2.3,2.1,3.6C276.5,179.5,276.5,180.1,276.4,180.3z"/>
						<linearGradient id="XMLID_130_" gradientUnits="userSpaceOnUse" x1="263.2198" y1="169.0486" x2="256.6667" y2="180.6785">
							<stop  offset="0.1436" style="stop-color:#F7AFAA"/>
							<stop  offset="0.9333" style="stop-color:#E58880"/>
						</linearGradient>
						<path id="XMLID_2020_" class="st116" d="M269.3,178.3c0,1.3-1.6,4.1-3,5c-0.1,0.1-0.2,0.1-0.3,0.2c0.3-0.4,0.6-0.9,0.8-1.5
							c0.5-1.2-0.4-4.3-0.9-5.3c-0.5-1-5.3-3.1-6.8-3.7c-1.5-0.6-7.9-0.2-8.5-0.9c-0.2-0.3-0.4-0.6-0.3-0.9h0
							c0.6,0.2,1.9,0.4,3.8,0.4c3.2,0,6.3,0.5,9.4,1.7C266.6,174.6,269.3,177,269.3,178.3z"/>
						<linearGradient id="XMLID_131_" gradientUnits="userSpaceOnUse" x1="266.4272" y1="180.4835" x2="275.8608" y2="189.629">
							<stop  offset="0.1436" style="stop-color:#F7AFAA"/>
							<stop  offset="0.9333" style="stop-color:#E58880"/>
						</linearGradient>
						<path id="XMLID_2019_" class="st117" d="M276.4,180.3c-0.4,0.7-5.7,4-7.1,5.3c-1.4,1.3-3.2,1.9-4.8,2.4
							c-1.1,0.3-2,0.2-2.2-0.3c1.1-0.2,3.4-0.9,5.5-2.6c2.9-2.3,4.6-4.3,7.1-5.7c0.3-0.2,0.8-0.4,1.5-0.6
							C276.5,179.5,276.5,180.1,276.4,180.3z"/>
					</g>
					<g id="XMLID_421_">
						<linearGradient id="XMLID_132_" gradientUnits="userSpaceOnUse" x1="272.4167" y1="176.3235" x2="296.4577" y2="183.0611">
							<stop  offset="0.1436" style="stop-color:#F7AFAA"/>
							<stop  offset="0.9333" style="stop-color:#E58880"/>
						</linearGradient>
						<path id="XMLID_2028_" class="st118" d="M283.7,177.2c0,1.4-0.6,2.8-0.6,2.8s-1.9,0.4-4,0.7c-1.8,0.3-3.8,0.6-4.5,0.6
							c-0.8,0-1.5,0-2-0.4c-0.4-0.3-0.8-0.9-1.1-2.1c-0.7-2.6,2-3.3,2-3.3l3.9-0.7l3.3-0.6C283.1,174.4,283.7,175.8,283.7,177.2z"/>
						<linearGradient id="XMLID_133_" gradientUnits="userSpaceOnUse" x1="277.3606" y1="173.8376" x2="279.5209" y2="187.4479">
							<stop  offset="0.1436" style="stop-color:#F7AFAA"/>
							<stop  offset="0.9333" style="stop-color:#E58880"/>
						</linearGradient>
						<path id="XMLID_2021_" class="st119" d="M283.7,177.2c0,1.4-0.6,2.8-0.6,2.8s-6.9,1.3-8.4,1.3c-0.8,0-1.5,0-2-0.4
							c0.7-0.6,1.4-1.1,2.2-1.5C276.3,178.6,280.3,177.8,283.7,177.2z"/>
					</g>
				</g>
				<linearGradient id="XMLID_134_" gradientUnits="userSpaceOnUse" x1="282.6368" y1="171.6073" x2="278.9642" y2="180.4647">
					<stop  offset="0.1436" style="stop-color:#F7AFAA"/>
					<stop  offset="0.9333" style="stop-color:#E58880"/>
				</linearGradient>
				<path id="XMLID_2026_" class="st120" d="M283.7,177.2c0,1.4-0.6,2.8-0.6,2.8s-1.9,0.4-4,0.7c0.1-0.9,0.1-2.1-0.3-3.4
					c-0.3-1.1-0.9-2-1.4-2.6l3.3-0.6C283.1,174.4,283.7,175.8,283.7,177.2z"/>
			</g>
			<g id="XMLID_2010_">
				<linearGradient id="XMLID_135_" gradientUnits="userSpaceOnUse" x1="319.8394" y1="150.4118" x2="272.5721" y2="183.8784">
					<stop  offset="0" style="stop-color:#59AAC0"/>
					<stop  offset="1" style="stop-color:#68C2C4"/>
				</linearGradient>
				<path id="XMLID_2031_" class="st121" d="M287.5,182.2c-0.2,0-6.2,0.4-6.2,0.4s0.1-3-1.4-5.8c-0.2-0.4-0.4-0.7-0.7-1.1
					c-2.2-3-3.6-3.2-3.6-3.2c0.2,0,7.1-2.9,7.1-2.9s2.7,0.6,4.4,4c0.3,0.7,0.7,1.5,0.9,2.5C289.1,180.2,287.8,182.2,287.5,182.2z"/>
				
					<linearGradient id="XMLID_136_" gradientUnits="userSpaceOnUse" x1="267.8274" y1="257.4956" x2="259.6028" y2="260.1642" gradientTransform="matrix(0.997 7.752355e-002 -7.752355e-002 0.997 36.9367 -106.6838)">
					<stop  offset="0" style="stop-color:#64BCC3"/>
					<stop  offset="1" style="stop-color:#BBD7C7"/>
				</linearGradient>
				<path id="XMLID_420_" class="st122" d="M282.6,171.9c-1.4,0.9-4.3,1.4-5.4,1.1c-0.4-0.1-0.5-0.3-0.4-0.6c2-0.8,5.1-2.2,6-2.5
					l0,0C283.6,170.1,283.8,171.2,282.6,171.9z"/>
				<linearGradient id="XMLID_137_" gradientUnits="userSpaceOnUse" x1="284.6094" y1="182.5128" x2="283.6012" y2="171.4949">
					<stop  offset="0" style="stop-color:#59AAC0"/>
					<stop  offset="1" style="stop-color:#68C2C4"/>
				</linearGradient>
				<path id="XMLID_2030_" class="st123" d="M287.5,182.2c-0.2,0-6.2,0.4-6.2,0.4s0-1.6-0.6-3.6c-0.2-0.7-0.5-1.4-0.9-2.1
					c1.2,0.2,2.4,0.2,3.5-0.2c1.9-0.7,3.1-2,3.8-2.9c0.3,0.7,0.6,1.5,0.9,2.4c0,0,0,0.1,0,0.1C289.1,180.2,287.8,182.2,287.5,182.2z
					"/>
				<linearGradient id="XMLID_138_" gradientUnits="userSpaceOnUse" x1="284.6748" y1="177.821" x2="285.0349" y2="169.6837">
					<stop  offset="0" style="stop-color:#59AAC0"/>
					<stop  offset="1" style="stop-color:#68C2C4"/>
				</linearGradient>
				<path id="XMLID_2025_" class="st124" d="M287.5,182.2c-0.2,0-6.2,0.4-6.2,0.4s0-1.6-0.6-3.6c1.2,0.2,2.5,0.3,3.6-0.2
					c1.7-0.6,2.9-1.8,3.6-2.7c0,0,0,0.1,0,0.1C289.1,180.2,287.8,182.2,287.5,182.2z"/>
			</g>
		</g>
	</g>
</g>
<g id="BODY">
	<g id="XMLID_2022_">
		<linearGradient id="XMLID_139_" gradientUnits="userSpaceOnUse" x1="358.2321" y1="117.2876" x2="364.0039" y2="206.1733">
			<stop  offset="0" style="stop-color:#59AAC0"/>
			<stop  offset="1" style="stop-color:#4F83C4"/>
		</linearGradient>
		<path id="XMLID_2045_" class="st125" d="M406.3,196.3c-0.5,21.1-6.5,35.4-6.5,35.4s-3.2-7.6-20.9-19.7c-4-2.7-8.4-5.1-12.7-7.1
			c-11.9-5.5-23.6-8.3-27.8-9.2c-1-0.2-1.6-0.3-1.6-0.3s7.8-10.5,7.3-14.6c-0.4-4-1.1-7.9-11.8-16.9c-3.4-2.8-6.3-5.8-8.7-8.9
			c-5.3-6.7-8.1-13.4-7.1-18.5c1.5-7.3,6.5-17.4,11.5-20.4c16.2-9.7,31.5-4.4,45.4,4.7c14.7,9.6,28.2,27.7,32.1,57.9
			C406.2,185,406.5,190.9,406.3,196.3z"/>
		<g id="XMLID_493_">
			<linearGradient id="XMLID_140_" gradientUnits="userSpaceOnUse" x1="333.3562" y1="134.2566" x2="327.9553" y2="122.6986">
				<stop  offset="0" style="stop-color:#59AAC0"/>
				<stop  offset="1" style="stop-color:#4F83C4"/>
			</linearGradient>
			<path id="XMLID_1928_" class="st126" d="M328.6,116c-3.8,1.4-6.4,6.1-7.2,11.3c-0.8,5.2-0.4,9.2-0.4,9.2s5.3-6.5,10.8-7.9
				c5.5-1.4,11,1.4,11,1.4S341.9,111.2,328.6,116z"/>
			<linearGradient id="XMLID_141_" gradientUnits="userSpaceOnUse" x1="344.3028" y1="160.9112" x2="337.4977" y2="143.7363">
				<stop  offset="0" style="stop-color:#59AAC0"/>
				<stop  offset="1" style="stop-color:#4F83C4"/>
			</linearGradient>
			<path id="XMLID_417_" class="st127" d="M326.9,126.6c0,0,1.9,8.1,4.6,13.3s3.9,7.3,3.9,7.3l7.1-2.7c0,0-3.9-7.3-5.9-11.9
				c-2-4.6-2.8-8.2-2.8-8.2L326.9,126.6z"/>
			<g id="XMLID_486_">
				<linearGradient id="XMLID_142_" gradientUnits="userSpaceOnUse" x1="332.7029" y1="140.5158" x2="330.5448" y2="123.012">
					<stop  offset="0" style="stop-color:#59AAC0"/>
					<stop  offset="1" style="stop-color:#68C2C4"/>
				</linearGradient>
				<path id="XMLID_416_" class="st128" d="M328.1,113.5c-3.8,1.4-6.4,6.1-7.2,11.3c-0.8,5.2-0.4,9.2-0.4,9.2s5.3-6.5,10.8-7.9
					c5.5-1.4,11,1.4,11,1.4S341.4,108.7,328.1,113.5z"/>
				<linearGradient id="XMLID_143_" gradientUnits="userSpaceOnUse" x1="328.3286" y1="126.6519" x2="330.4889" y2="114.878">
					<stop  offset="0" style="stop-color:#59AAC0"/>
					<stop  offset="1" style="stop-color:#4F83C4"/>
				</linearGradient>
				<ellipse id="XMLID_1932_" class="st129" cx="329.6" cy="119.9" rx="4.5" ry="4.5"/>
			</g>
		</g>
		
			<linearGradient id="XMLID_144_" gradientUnits="userSpaceOnUse" x1="361.2308" y1="160.2423" x2="349.834" y2="102.95" gradientTransform="matrix(1 0 -5.310017e-002 1.0236 20.5869 -9.1497)">
			<stop  offset="0" style="stop-color:#59AAC0"/>
			<stop  offset="1" style="stop-color:#68C2C4"/>
		</linearGradient>
		<path id="XMLID_473_" class="st130" d="M341.9,113c-4,5.6,5.3,4.7,14.6,7.7c10.8,3.5,20.7,7.4,32.2,20.9
			c10.8,12.6,12.3,20.3,12.3,20.3s-2.1-18.1-21.4-34.9S343.6,110.7,341.9,113z"/>
		<linearGradient id="XMLID_145_" gradientUnits="userSpaceOnUse" x1="348.5096" y1="222.4016" x2="374.434" y2="165.3681">
			<stop  offset="0" style="stop-color:#59AAC0"/>
			<stop  offset="1" style="stop-color:#4F83C4"/>
		</linearGradient>
		<path id="XMLID_1973_" class="st131" d="M406.3,196.3c-0.1,6-0.7,11.5-1.5,16.3c-1.9,11.8-5,19.1-5,19.1s-3.2-7.6-20.9-19.7
			c-17.7-12.1-42.1-16.6-42.1-16.6s7.8-10.5,7.3-14.6c-0.3-3.2-0.9-6.4-6.7-12.2c-1.4-1.4-3.1-2.9-5.1-4.6c-3.4-2.8-6.3-5.8-8.7-8.9
			c1.2,0.6,24.1,11.8,34.5,12.9c10.7,1.1,7.2,4.3,0.3,4.9c-6.9,0.6,0,10.1,19.9,21C392.1,201.6,401.8,198.7,406.3,196.3z"/>
		<linearGradient id="XMLID_146_" gradientUnits="userSpaceOnUse" x1="355.4102" y1="220.4444" x2="377.6619" y2="186.3107">
			<stop  offset="0" style="stop-color:#59AAC0"/>
			<stop  offset="1" style="stop-color:#4F83C4"/>
		</linearGradient>
		<path id="XMLID_1968_" class="st132" d="M404.8,212.6c-1.9,11.8-5,19.1-5,19.1s-3.2-7.6-20.9-19.7c-17.7-12.1-42.1-16.6-42.1-16.6
			s7.8-10.5,7.3-14.6c-0.3-3.2-0.9-6.4-6.7-12.2c5.6,0.6,13.4,2,13.8,4.7c0.6,4.3-1.7,11.2,11.4,18.8c13.2,7.6,22.5,14.7,32.4,17.7
			C398.8,211.1,402.2,211.8,404.8,212.6z"/>
		<linearGradient id="XMLID_147_" gradientUnits="userSpaceOnUse" x1="341.7808" y1="116.3317" x2="359.0636" y2="166.452">
			<stop  offset="0" style="stop-color:#59AAC0"/>
			<stop  offset="1" style="stop-color:#4F83C4"/>
		</linearGradient>
		<path id="XMLID_2037_" class="st133" d="M389,174.5c0.2,18.1-15.5,27.2-22.9,30.5c-11.9-5.5-23.6-8.3-27.8-9.2
			c-0.3-1.4,0.3-3.6,3.8-7.2c7.6-7.8,17.9-15.6,14.9-27.4c-3-11.9-5.2-24.4,1.7-28.7c6.9-4.3,12.3-8,18.4,1.1
			C377.2,133.4,388.8,155,389,174.5z"/>
	</g>
</g>
<g id="LEFT_ARM_1">
	<g id="XMLID_2053_">
		<g id="XMLID_1934_">
			<g id="XMLID_427_">
				<linearGradient id="XMLID_148_" gradientUnits="userSpaceOnUse" x1="365.6649" y1="153.2327" x2="341.0387" y2="214.5824">
					<stop  offset="0" style="stop-color:#59AAC0"/>
					<stop  offset="1" style="stop-color:#68C2C4"/>
				</linearGradient>
				<path id="XMLID_1941_" class="st134" d="M381.6,180.4c-1.2,5.1-4.3,6-7.3,5.5c-1.1-0.2-2.1-0.5-3-1c-1.4-0.6-2.5-1.3-3.2-1.8
					c-2.6-1.8-4-7.8-6.6-13.7c-2.3-5.2-10.5-19.9-12.9-29.7c-0.3-1.4-0.6-2.7-0.6-3.9c-0.4-9.3,4.5-15.6,8.8-16.6
					c12.5-3,18.7,4.2,21.5,16.6c0.6,2.4,1.1,5.2,1.6,8.3C381.9,156.6,383.3,172.9,381.6,180.4z"/>
				<linearGradient id="XMLID_149_" gradientUnits="userSpaceOnUse" x1="375.025" y1="124.4942" x2="346.0841" y2="196.5926">
					<stop  offset="0" style="stop-color:#59AAC0"/>
					<stop  offset="1" style="stop-color:#68C2C4"/>
				</linearGradient>
				<path id="XMLID_1936_" class="st135" d="M371.2,184.9c-1.4-0.6-2.5-1.3-3.2-1.8c-2.6-1.8-4-7.8-6.6-13.7
					c-2.3-5.2-10.5-19.9-12.9-29.7c4.3,7.6,17.6,31.2,19.8,36.5C369.7,179.5,370.6,182.4,371.2,184.9z"/>
				<linearGradient id="XMLID_150_" gradientUnits="userSpaceOnUse" x1="376.9491" y1="147.5479" x2="379.7576" y2="209.9823">
					<stop  offset="0" style="stop-color:#59AAC0"/>
					<stop  offset="1" style="stop-color:#4F83C4"/>
				</linearGradient>
				<path id="XMLID_1935_" class="st136" d="M381.6,180.4c-1.2,5.1-4.3,6-7.3,5.5c1.3-1.6,2.5-3.4,3.6-5.4c3.3-6.2,2.5-27.2,2-36.4
					C381.9,156.6,383.3,172.9,381.6,180.4z"/>
			</g>
			
				<linearGradient id="XMLID_151_" gradientUnits="userSpaceOnUse" x1="392.1848" y1="62.987" x2="383.2044" y2="17.8428" gradientTransform="matrix(0.9986 -5.349113e-002 4.767917e-002 0.8901 -17.3803 120.7179)">
				<stop  offset="0" style="stop-color:#59AAC0"/>
				<stop  offset="1" style="stop-color:#68C2C4"/>
			</linearGradient>
			<path id="XMLID_1933_" class="st137" d="M367.3,124c-5.4,0.9-2,9.1,1.1,15c3.1,5.9,9,29.5,11.4,24.5c2.3-5,0.6-15-2.7-26.9
				C375,128.9,372.9,123,367.3,124z"/>
		</g>
	</g>
</g>
<g id="LEFT_ARM_2">
	<g id="XMLID_1945_">
		<g id="XMLID_428_">
			<linearGradient id="XMLID_152_" gradientUnits="userSpaceOnUse" x1="370.6255" y1="155.2316" x2="346.0033" y2="216.5712">
				<stop  offset="0" style="stop-color:#59AAC0"/>
				<stop  offset="1" style="stop-color:#68C2C4"/>
			</linearGradient>
			<path id="XMLID_1944_" class="st138" d="M381.5,181.7c0,3.2-2.9,4.3-12.2,9.9c-9.4,5.6-28.9,16.3-28.9,16.3s0-2.6-2-5.3
				c-0.2-0.3-0.4-0.5-0.6-0.7c-1.6-1.8-4.2-3.2-5.3-3.8c0,0,0,0,0,0c-0.1-0.1-0.2-0.1-0.3-0.2c-0.2-0.1-0.3-0.1-0.3-0.1s0,0,0,0
				c0.3-0.1,2.1-1.2,6.4-4.3c4.8-3.3,26.2-22.5,26.2-22.5c3.9-1.9,7.9-2.5,11-1.6c1.4,0.4,2.6,1.1,3.6,2.2c0.7,0.9,1.2,1.7,1.6,2.6
				C381.7,176.8,381.5,179.4,381.5,181.7z"/>
			<linearGradient id="XMLID_153_" gradientUnits="userSpaceOnUse" x1="354.3095" y1="175.1845" x2="367.7038" y2="210.8304">
				<stop  offset="0" style="stop-color:#59AAC0"/>
				<stop  offset="1" style="stop-color:#4F83C4"/>
			</linearGradient>
			<path id="XMLID_1938_" class="st139" d="M381.5,181.7c0,3.2-2.9,4.3-12.2,9.9c-9.4,5.6-28.9,16.3-28.9,16.3s0-2.6-2-5.3
				c-0.2-0.3-0.4-0.5-0.6-0.7c5.5-2.5,14.8-7,26.7-13.6c9-5,13.7-10.1,16.2-14.2C381.7,176.8,381.5,179.4,381.5,181.7z"/>
			<linearGradient id="XMLID_154_" gradientUnits="userSpaceOnUse" x1="368.5769" y1="183.4604" x2="388.7402" y2="183.1723">
				<stop  offset="0" style="stop-color:#64BCC3"/>
				<stop  offset="1" style="stop-color:#59AAC0"/>
			</linearGradient>
			<path id="XMLID_1940_" class="st140" d="M375.4,169.3c-1.4,2-5.3,4.6-12.3,8.6c-10.4,6-29.6,20.5-29.6,20.5
				c-0.4-0.1-0.8-0.2-1.1-0.4c0,0,0,0,0,0c-0.1,0-0.2-0.1-0.3-0.2c-0.1,0-0.2-0.1-0.3-0.2c0.3-0.1,2.1-1.2,6.4-4.3
				c4.8-3.3,26.2-22.5,26.2-22.5C368.3,169.1,372.3,168.4,375.4,169.3z"/>
		</g>
		<g id="XMLID_1943_">
			<linearGradient id="XMLID_155_" gradientUnits="userSpaceOnUse" x1="331.3246" y1="192.2648" x2="333.1609" y2="212.8962">
				<stop  offset="0" style="stop-color:#155472"/>
				<stop  offset="1" style="stop-color:#4F83C4"/>
			</linearGradient>
			<path id="XMLID_1942_" class="st141" d="M326.6,199.1c0,0-1.2,3.9,1.7,7.7c2.8,3.8,7.3,4.8,9,3.7c1.7-1.1,1.8-2.5-0.3-6.9
				S331.8,196.2,326.6,199.1z"/>
			<g id="XMLID_430_">
				<linearGradient id="XMLID_156_" gradientUnits="userSpaceOnUse" x1="313.5433" y1="214.7807" x2="349.1892" y2="194.2573">
					<stop  offset="0.1436" style="stop-color:#F7AFAA"/>
					<stop  offset="0.9333" style="stop-color:#E58880"/>
				</linearGradient>
				<path id="XMLID_1958_" class="st142" d="M341.8,203.7c0,0-10.4,6-10.9,6.4c-0.5,0.4-8.7,7.4-9.5,9.1c-0.8,1.7-1,1.8-1.8,3.2
					c-0.8,1.4-4.7,6.9-5.3,6.8c-0.3,0-0.5-0.3-0.7-0.7c-0.3-0.5-0.3-1.2-0.1-1.6c0.4-0.8,3.4-5.2,3.7-5.8c0.4-0.6,0.6-2.9,0.3-3
					c-0.2-0.1-1.8,1.2-2.6,2.2c-0.7,1-4.1,4.9-5.1,5.7c-1,0.9-4.8,4.5-5.4,4.4c-0.3,0-1-0.3-1.2-0.8c-0.3-0.6-0.2-1.5,1.1-3
					c1-1.2,4.8-5.5,7.1-9.1c0.6-1,1.3-1.5,1-1.8c-0.1-0.1-0.2-0.2-0.3-0.3c-0.9-0.4-3.5,1.4-5.3,2.5c-1.9,1.1-8.1,5.7-10.4,6.3
					c-2.2,0.6-3.8-0.1-4-0.7v0c-0.2-0.7,0-1.2,1.8-2.2c1.7-1,11.5-8.3,12.7-9.2c0,0,0.1,0,0.1-0.1c0.6-0.4-2.4,0.1-2.8,0.1
					c-0.4,0-6.2,2.4-8.6,2.9c-2.5,0.5-5.8,0.7-6.1-0.4c-0.3-1.1,2.1-1.6,4.6-2.5c2.5-1,15.6-6.3,15.6-6.3s14.9-3.4,15.8-3.4
					c0.4,0,2.1-1,4-2.1c2.7-1.6,5.7-3.4,5.7-3.4s2.8-1.1,5.4,0.8C343,199.6,341.8,203.7,341.8,203.7z"/>
				<linearGradient id="XMLID_157_" gradientUnits="userSpaceOnUse" x1="289.2698" y1="212.9219" x2="307.9746" y2="212.9219">
					<stop  offset="0.1436" style="stop-color:#F7AFAA"/>
					<stop  offset="0.9333" style="stop-color:#E58880"/>
				</linearGradient>
				<path id="XMLID_1953_" class="st143" d="M306.9,212c0.6-0.4-2.4,0.1-2.8,0.1c-0.4,0-6.2,2.4-8.6,2.9c-2.5,0.5-5.8,0.7-6.1-0.4
					c0.9,0.1,2.3,0.1,4.1-0.4c3.4-0.9,9.9-3.7,11.9-3.7S309.3,210.7,306.9,212z"/>
				<linearGradient id="XMLID_158_" gradientUnits="userSpaceOnUse" x1="292.2943" y1="219.0339" x2="312.5259" y2="219.0339">
					<stop  offset="0.1436" style="stop-color:#F7AFAA"/>
					<stop  offset="0.9333" style="stop-color:#E58880"/>
				</linearGradient>
				<path id="XMLID_1954_" class="st144" d="M312.4,215.5c0,0,0,0.1-0.1,0.1c-0.1-0.1-0.2-0.2-0.3-0.3c-0.9-0.4-3.5,1.4-5.3,2.5
					c-1.9,1.1-8.1,5.7-10.4,6.3c-2.2,0.6-3.8-0.1-4-0.7v0c1.1,0.2,2.9,0.2,4.4-0.9c2.4-1.7,13.3-8.9,14.8-8.9
					C312.9,213.6,312.5,215.2,312.4,215.5z"/>
				<linearGradient id="XMLID_159_" gradientUnits="userSpaceOnUse" x1="303.0615" y1="223.6895" x2="317.3899" y2="223.6895">
					<stop  offset="0.1436" style="stop-color:#F7AFAA"/>
					<stop  offset="0.9333" style="stop-color:#E58880"/>
				</linearGradient>
				<path id="XMLID_1955_" class="st145" d="M317.4,218c-0.2-0.1-1.8,1.2-2.6,2.2c-0.7,1-4.1,4.9-5.1,5.7c-1,0.9-4.8,4.5-5.4,4.4
					c-0.3,0-1-0.3-1.2-0.8c0.7-0.1,1.7-0.4,2.9-1.5c2.3-2,8.3-9.1,9.4-10.5C316.4,216.3,317.4,217.3,317.4,218z"/>
				<linearGradient id="XMLID_160_" gradientUnits="userSpaceOnUse" x1="323.7499" y1="229.1789" x2="328.3947" y2="213.6243">
					<stop  offset="0.1436" style="stop-color:#F7AFAA"/>
					<stop  offset="0.9333" style="stop-color:#E58880"/>
				</linearGradient>
				<path id="XMLID_1957_" class="st146" d="M341.8,203.7c0,0-10.4,6-10.9,6.4c-0.5,0.4-8.7,7.4-9.5,9.1c-0.8,1.7-1,1.8-1.8,3.2
					c-0.8,1.4-4.7,6.9-5.3,6.8c-0.3,0-0.5-0.3-0.7-0.7c0.5-0.3,1.4-0.9,2.3-2.3c1.5-2.1,3.8-7.2,6.2-9.6c2.4-2.5,6.7-6.6,8.3-8.1
					c1.6-1.5,3.2-3.7,3.5-4c0.3-0.4-1.4-2.9-3.5-3.7c-0.3-0.1-0.7-0.2-1-0.3c2.7-1.6,5.7-3.4,5.7-3.4s2.8-1.1,5.4,0.8
					C343,199.6,341.8,203.7,341.8,203.7z"/>
			</g>
			<g id="XMLID_429_">
				<linearGradient id="XMLID_161_" gradientUnits="userSpaceOnUse" x1="357.9902" y1="117.4616" x2="327.6162" y2="236.3161">
					<stop  offset="0" style="stop-color:#59AAC0"/>
					<stop  offset="1" style="stop-color:#68C2C4"/>
				</linearGradient>
				<path id="XMLID_2008_" class="st147" d="M346,205.4c-0.4,0.7-5.2,3.8-7.2,4.9c-2,1.1-2.8,0.2-2.8,0.2s0.8-0.8,1-1.7
					c0.2-0.9-0.2-5.3-2.8-7.6c-0.2-0.2-0.4-0.4-0.7-0.5c-3.2-2.2-6.9-1.2-6.9-1.2c-0.4-0.4,0.3-1.2,1.3-2c2-1.6,5.7-3.6,6.9-4.1h0
					c0.1,0,0.1-0.1,0.1-0.1c1.5-0.5,5.2-0.5,8.3,2.8c0.2,0.2,0.4,0.4,0.6,0.7C347.2,200.6,346.4,204.6,346,205.4z"/>
				<linearGradient id="XMLID_162_" gradientUnits="userSpaceOnUse" x1="338.4813" y1="195.8447" x2="343.8822" y2="216.2601">
					<stop  offset="0" style="stop-color:#59AAC0"/>
					<stop  offset="1" style="stop-color:#4F83C4"/>
				</linearGradient>
				<path id="XMLID_1950_" class="st148" d="M346,205.4c-0.4,0.7-5.2,3.8-7.2,4.9c-2,1.1-2.8,0.2-2.8,0.2s0.8-0.8,1-1.7
					c0.1-0.6,0-2.5-0.7-4.4c-0.4-1.2-1.1-2.4-2.1-3.2c2.1-0.1,4.8-0.5,6.6-2.2c1.2-1.1,2-2.1,2.6-2.9c0.2,0.2,0.4,0.4,0.6,0.7
					c0.9,1.1,1.4,2.1,1.8,3.1C346.8,202.5,346.3,204.8,346,205.4z"/>
				<linearGradient id="XMLID_163_" gradientUnits="userSpaceOnUse" x1="339.6949" y1="199.8109" x2="343.9076" y2="217.6339">
					<stop  offset="0" style="stop-color:#59AAC0"/>
					<stop  offset="1" style="stop-color:#4F83C4"/>
				</linearGradient>
				<path id="XMLID_1947_" class="st149" d="M346,205.4c-0.4,0.7-5.2,3.8-7.2,4.9c-2,1.1-2.8,0.2-2.8,0.2s0.8-0.8,1-1.7
					c0.1-0.6,0-2.5-0.7-4.4c2.1,0,5.2-0.3,7.3-2.2c0.9-0.9,1.6-1.6,2.1-2.3C346.8,202.5,346.3,204.8,346,205.4z"/>
				<linearGradient id="XMLID_164_" gradientUnits="userSpaceOnUse" x1="336.6242" y1="194.2843" x2="326.4827" y2="197.5749">
					<stop  offset="0" style="stop-color:#64BCC3"/>
					<stop  offset="1" style="stop-color:#BBD7C7"/>
				</linearGradient>
				<path id="XMLID_2006_" class="st150" d="M334.9,195.8c-1.8,1.3-4.7,2.5-6.3,2.2c-0.6-0.1-0.7-0.4-0.6-0.7c2-1.6,5.7-3.6,6.9-4.1
					h0C336.1,193.3,336.4,194.7,334.9,195.8z"/>
			</g>
		</g>
	</g>
</g>
<g id="HEAD">
	<g id="XMLID_12_">
		<g id="XMLID_485_">
			
				<linearGradient id="XMLID_165_" gradientUnits="userSpaceOnUse" x1="330.4118" y1="119.9514" x2="325.335" y2="110.3378" gradientTransform="matrix(1 2.146160e-003 -2.146160e-003 1 0.2151 -0.6669)">
				<stop  offset="0.1436" style="stop-color:#F7AFAA"/>
				<stop  offset="0.9333" style="stop-color:#E58880"/>
			</linearGradient>
			<path id="XMLID_425_" class="st151" d="M330.8,122.6c-3.1,1.5-4.2-1.2-4.2-1.2l-1.9-3.5l-3.5-6.5l4.2-9.2l3.3,5.3l4.4,9.7
				C332.9,117.2,333.9,121,330.8,122.6z"/>
			
				<linearGradient id="XMLID_166_" gradientUnits="userSpaceOnUse" x1="337.4472" y1="115.2322" x2="329.0218" y2="111.6676" gradientTransform="matrix(1 2.146160e-003 -2.146160e-003 1 0.2151 -0.6669)">
				<stop  offset="0.1436" style="stop-color:#F7AFAA"/>
				<stop  offset="0.9333" style="stop-color:#E58880"/>
			</linearGradient>
			<path id="XMLID_423_" class="st152" d="M328.5,107.5c0,2.1-0.2,5-1,6.9c-0.6,1.3-1.8,2.5-2.9,3.5l-3.5-6.5l4.2-9.2L328.5,107.5z"
				/>
		</g>
		<g id="XMLID_415_">
			<g id="XMLID_411_">
				
					<linearGradient id="XMLID_167_" gradientUnits="userSpaceOnUse" x1="292.2882" y1="236.3197" x2="273.8693" y2="204.0866" gradientTransform="matrix(0.9925 0.1225 -0.1225 0.9925 56.3797 -167.3649)">
					<stop  offset="0.1436" style="stop-color:#F7AFAA"/>
					<stop  offset="0.9333" style="stop-color:#E58880"/>
				</linearGradient>
				<path id="XMLID_1959_" class="st153" d="M322.8,116.8c-0.2,0.1-0.5,0.2-0.9,0.2c-3,0.3-10.6-2.5-16.5-11.1
					c-0.3-0.4-0.5-0.8-0.8-1.2c-5.4-9.1-0.6-16.7,4.7-18.9c10.1-4.1,17.8,3,18.9,11.5C329.5,107.4,324.7,115.8,322.8,116.8z"/>
				
					<linearGradient id="XMLID_168_" gradientUnits="userSpaceOnUse" x1="271.3882" y1="249.7647" x2="301.3451" y2="226.4329" gradientTransform="matrix(0.9925 0.1225 -0.1225 0.9925 56.3797 -167.3649)">
					<stop  offset="0.1436" style="stop-color:#F7AFAA"/>
					<stop  offset="0.9333" style="stop-color:#E58880"/>
				</linearGradient>
				<path id="XMLID_1952_" class="st154" d="M322.8,116.8c-0.2,0.1-0.5,0.2-0.9,0.2c0.7-0.8,0.8-2.9,1.4-6.1c1.1-6-0.8-14.2-3-14.2
					c-2.2-0.1-3.2-2.4-3.2-2.4s-2,6.3-6.9,9c-2.7,1.5-4.5,1.6-5.5,1.4c-5.4-9.1-0.6-16.7,4.7-18.9c10.1-4.1,17.8,3,18.9,11.5
					C329.5,107.4,324.7,115.8,322.8,116.8z"/>
			</g>
			<g id="XMLID_413_">
				
					<linearGradient id="XMLID_169_" gradientUnits="userSpaceOnUse" x1="282.7592" y1="219.8431" x2="303.0343" y2="235.2419" gradientTransform="matrix(0.9925 0.1225 -0.1225 0.9925 56.3797 -167.3649)">
					<stop  offset="0.1179" style="stop-color:#24245A"/>
					<stop  offset="1" style="stop-color:#171441"/>
				</linearGradient>
				<path id="XMLID_1967_" class="st155" d="M326.5,105.6l-4.2-11.2c0,0-2.6-0.3-5.4-2.3c-2.8-2-3.3-4-3.3-4s-5.6,3-7.2,6.7
					c-1.5,3.7-2.4,6.1-2.4,6.1s-2.6-2.3-2.3-8.8c0.3-6.5,1.2-8.1,3.9-9.9c1.1-0.7,2.4-1,3.7-1.1c1.9-0.2,3.6,0,3.6,0s3-5,5.1-4.5
					c2.1,0.5,11.5,5.3,12.1,7c0.1,0.4,0.3,1.6,0.5,3.3C331.4,93,331.6,103.9,326.5,105.6z"/>
				
					<linearGradient id="XMLID_170_" gradientUnits="userSpaceOnUse" x1="286.217" y1="218.3764" x2="289.6736" y2="225.2895" gradientTransform="matrix(0.9925 0.1225 -0.1225 0.9925 56.3797 -167.3649)">
					<stop  offset="0.1179" style="stop-color:#24245A"/>
					<stop  offset="1" style="stop-color:#171441"/>
				</linearGradient>
				<path id="XMLID_1949_" class="st156" d="M326.5,105.6l-4.2-11.2c0,0-2.6-0.3-5.4-2.3c-2.8-2-3.3-4-3.3-4s-5.6,3-7.2,6.7
					c-1.5,3.7-2.4,6.1-2.4,6.1s-2.6-2.3-2.3-8.8c0.3-6.5,13.9-6.9,15.5-6c0,0,2.1,1.8,5.1,2.2c3.1,0.4,3.9,0.4,3.9,0.4l-3.2-2.4
					c0.5,0.3,2.2,1.2,5.2,1c0.9-0.1,1.7-0.2,2.3-0.3C331.4,93,331.6,103.9,326.5,105.6z"/>
				
					<linearGradient id="XMLID_171_" gradientUnits="userSpaceOnUse" x1="323.5194" y1="85.0808" x2="316.6783" y2="73.0548" gradientTransform="matrix(1 2.146160e-003 -2.146160e-003 1 0.2151 -0.6669)">
					<stop  offset="0.1179" style="stop-color:#24245A"/>
					<stop  offset="1" style="stop-color:#00648D"/>
				</linearGradient>
				<path id="XMLID_502_" class="st157" d="M318.5,77.2c1.2,0.3,9,4.1,10.2,5.3c1.3,1.2,1.4,2.2,0,1.8s-6.5-3.7-8.2-4.6
					c-1.7-0.8-6.2,0.9-6.2,0.9S316.2,76.7,318.5,77.2z"/>
			</g>
			
				<linearGradient id="XMLID_172_" gradientUnits="userSpaceOnUse" x1="276.8545" y1="226.1674" x2="293.9202" y2="239.1288" gradientTransform="matrix(0.9925 0.1225 -0.1225 0.9925 56.3797 -167.3649)">
				<stop  offset="0.1179" style="stop-color:#24245A"/>
				<stop  offset="1" style="stop-color:#171441"/>
			</linearGradient>
			<path id="XMLID_1966_" class="st158" d="M316.3,92.4c-1.7,3-5.3,8-10.5,9.9c-7.6,2.8-12.6-1.1-15.5-3.9c-1-1-1.7-2.4-1.8-4.1
				c-0.3-3.1,1.6-7.1,7.6-10c9.3-4.5,16.5-3,16.5-3c2.9,0.6,4.1,2.7,4.6,4.7c0,0.1,0,0.2,0.1,0.3C317.8,88.4,317.4,90.6,316.3,92.4z
				"/>
			
				<linearGradient id="XMLID_173_" gradientUnits="userSpaceOnUse" x1="300.0975" y1="88.1809" x2="292.4642" y2="83.14" gradientTransform="matrix(1 2.146160e-003 -2.146160e-003 1 0.2151 -0.6669)">
				<stop  offset="0.1179" style="stop-color:#24245A"/>
				<stop  offset="1" style="stop-color:#00648D"/>
			</linearGradient>
			<path id="XMLID_503_" class="st159" d="M303.9,82.1c0,0-6.8,1.4-11,4.7c-4.2,3.3-2.3,3.9-0.3,4.1c2,0.2,7-4.4,6.6-4.5
				c-0.4,0-3.5,0.3-3.5,0.3S300.2,82.9,303.9,82.1z"/>
			<g id="XMLID_454_">
				
					<linearGradient id="XMLID_174_" gradientUnits="userSpaceOnUse" x1="300.015" y1="233.4514" x2="301.9593" y2="214.0082" gradientTransform="matrix(0.9925 0.1225 -0.1225 0.9925 56.3797 -167.3649)">
					<stop  offset="0.1436" style="stop-color:#F7AFAA"/>
					<stop  offset="0.9333" style="stop-color:#E58880"/>
				</linearGradient>
				<path id="XMLID_412_" class="st160" d="M323.9,97.4c-0.1-1.4,0.1-5,2.6-4.8c2.4,0.2,3.1,2.7,2.4,6c-0.4,1.7-1.3,3.1-2.1,4.1
					c-0.6,0.7-1.7,0.4-1.9-0.5C324.5,100.6,324,98.4,323.9,97.4z"/>
				
					<linearGradient id="XMLID_175_" gradientUnits="userSpaceOnUse" x1="297.5963" y1="237.5753" x2="300.0807" y2="231.0943" gradientTransform="matrix(0.9925 0.1225 -0.1225 0.9925 56.3797 -167.3649)">
					<stop  offset="0.1436" style="stop-color:#F7AFAA"/>
					<stop  offset="0.9333" style="stop-color:#E58880"/>
				</linearGradient>
				<path id="XMLID_1931_" class="st161" d="M324.8,97.9c-0.1-0.9,0.1-3.4,1.7-3.2c1.6,0.2,2.1,1.8,1.6,4c-0.2,1.1-0.9,2.1-1.4,2.7
					c-0.4,0.4-1.1,0.3-1.3-0.3C325.2,100,324.9,98.6,324.8,97.9z"/>
			</g>
			
				<linearGradient id="XMLID_176_" gradientUnits="userSpaceOnUse" x1="338.4317" y1="3.9794" x2="340.8344" y2="13.3072" gradientTransform="matrix(0.9963 -8.546894e-002 8.546894e-002 0.9963 -29.1867 124.6357)">
				<stop  offset="0.1436" style="stop-color:#F7AFAA"/>
				<stop  offset="0.9333" style="stop-color:#E58880"/>
			</linearGradient>
			<path id="XMLID_254_" class="st162" d="M310.3,105.9c0,0-0.2,7.8,0.5,8.2c0.7,0.4,4.4-1.1,4.5-1.9
				C315.4,111.4,310.3,105.9,310.3,105.9z"/>
			
				<linearGradient id="XMLID_177_" gradientUnits="userSpaceOnUse" x1="274.3884" y1="224.5867" x2="283.2459" y2="232.58" gradientTransform="matrix(0.9925 0.1225 -0.1225 0.9925 56.3797 -167.3649)">
				<stop  offset="0.1179" style="stop-color:#24245A"/>
				<stop  offset="1" style="stop-color:#171441"/>
			</linearGradient>
			<path id="XMLID_1956_" class="st163" d="M316.3,92.4c-1.7,3-5.3,8-10.5,9.9c-7.6,2.8-12.6-1.1-15.5-3.9c-1-1-1.7-2.4-1.8-4.1
				c1.7,1.2,4,2.2,7.2,2.9c8.7,1.7,13.8-3.1,13.8-3.1s-1.2,0.3-4-0.3c-2.8-0.6-3.4-2.6-3.4-2.6s4.7,1.1,9.2-0.5
				c2.8-1,4.8-3.2,5.9-4.7c0,0.1,0,0.2,0.1,0.3C317.8,88.4,317.4,90.6,316.3,92.4z"/>
			<g id="XMLID_414_">
				
					<linearGradient id="XMLID_178_" gradientUnits="userSpaceOnUse" x1="282.5507" y1="218.6662" x2="299.5977" y2="231.6133" gradientTransform="matrix(0.9942 0.1077 -0.1077 0.9942 52.7327 -163.606)">
					<stop  offset="0.1179" style="stop-color:#24245A"/>
					<stop  offset="1" style="stop-color:#171441"/>
				</linearGradient>
				<path id="XMLID_1969_" class="st164" d="M313.1,81.2c0,0-7,0.7-11.1-0.1c-2.7-0.5-4-2.6-2.9-3.7c0.5-0.6,1.8-0.9,3.8-0.5
					C308.2,77.9,312.3,80.7,313.1,81.2C313,81.2,313.1,81.2,313.1,81.2z"/>
				
					<linearGradient id="XMLID_179_" gradientUnits="userSpaceOnUse" x1="274.2902" y1="209.0405" x2="276.5946" y2="212.7851" gradientTransform="matrix(0.9942 0.1077 -0.1077 0.9942 52.7327 -163.606)">
					<stop  offset="0.1179" style="stop-color:#24245A"/>
					<stop  offset="1" style="stop-color:#171441"/>
				</linearGradient>
				<path id="XMLID_1960_" class="st165" d="M313.1,81.2c0,0-7,0.7-11.1-0.1c-2.7-0.5-4-2.6-2.9-3.7c1.8,0.9,5.9,2.8,10.2,3.4
					C310.6,81.1,311.9,81.1,313.1,81.2C313,81.2,313.1,81.2,313.1,81.2z"/>
			</g>
		</g>
	</g>
</g>
</svg>
