<svg xmlns="http://www.w3.org/2000/svg" xmlns:xlink="http://www.w3.org/1999/xlink" viewBox="0 0 720 504"><defs><style>.cls-1{isolation:isolate;}.cls-2{fill:#fff;}.cls-3{fill:#c7ccd1;}.cls-4{fill:url(#linear-gradient);}.cls-38,.cls-40,.cls-43,.cls-5{fill:none;stroke-miterlimit:10;}.cls-40,.cls-43,.cls-5{stroke:#231f20;}.cls-5{stroke-width:1.2px;}.cls-6{fill:#fe845a;}.cls-7{fill:#201851;}.cls-8{fill:#413b8a;}.cls-9{fill:url(#linear-gradient-2);}.cls-10{fill:url(#linear-gradient-3);}.cls-11{fill:#ffc862;}.cls-12{fill:#060633;}.cls-13{fill:#232059;}.cls-14{fill:#fda181;}.cls-15{fill:#e1e7ef;}.cls-16{fill:#403882;}.cls-17{fill:#1150c0;}.cls-18{fill:#094082;}.cls-19{fill:#d17a62;}.cls-20{fill:url(#linear-gradient-4);}.cls-21{fill:#0f4ea8;}.cls-22{fill:url(#linear-gradient-5);}.cls-23{fill:url(#linear-gradient-6);}.cls-24{fill:#f59059;}.cls-25{fill:url(#linear-gradient-7);}.cls-26{fill:#f79831;}.cls-27{fill:url(#linear-gradient-8);}.cls-28{fill:#f55662;}.cls-29{fill:#db3357;}.cls-30{fill:#264c75;opacity:0.29;mix-blend-mode:multiply;}.cls-31{fill:url(#linear-gradient-9);}.cls-32{fill:url(#linear-gradient-10);}.cls-33{fill:#0b0755;}.cls-34{fill:url(#linear-gradient-11);}.cls-35{fill:#231f20;}.cls-36{fill:url(#linear-gradient-12);}.cls-37{fill:url(#linear-gradient-13);}.cls-38{stroke:#221f1f;stroke-width:1.14px;}.cls-38,.cls-40,.cls-43{stroke-linecap:round;}.cls-39{fill:url(#linear-gradient-14);}.cls-40{stroke-width:1.19px;}.cls-41{fill:#3d86fa;}.cls-42{fill:#1351be;}.cls-43{stroke-width:0.81px;}</style><linearGradient id="linear-gradient" x1="189.55" y1="199.69" x2="113.63" y2="50.6" gradientUnits="userSpaceOnUse"><stop offset="0" stop-color="#1252c4"/><stop offset="1" stop-color="#3f87fe"/></linearGradient><linearGradient id="linear-gradient-2" x1="203.99" y1="469.38" x2="244.06" y2="284.26" gradientTransform="matrix(-1, 0, 0, 1, 368.97, 0)" xlink:href="#linear-gradient"/><linearGradient id="linear-gradient-3" x1="113.29" y1="445.5" x2="277.07" y2="445.5" gradientTransform="matrix(-1, 0, 0, 1, 368.97, 0)" gradientUnits="userSpaceOnUse"><stop offset="0" stop-color="#ff9d5c"/><stop offset="1" stop-color="#ffc961"/></linearGradient><linearGradient id="linear-gradient-4" x1="397.17" y1="161.92" x2="380.45" y2="112.99" xlink:href="#linear-gradient"/><linearGradient id="linear-gradient-5" x1="359.24" y1="190.3" x2="398.68" y2="190.3" gradientUnits="userSpaceOnUse"><stop offset="0" stop-color="#ffbf61"/><stop offset="1" stop-color="#ffcf62"/></linearGradient><linearGradient id="linear-gradient-6" x1="359.24" y1="188.26" x2="373.26" y2="188.26" xlink:href="#linear-gradient-5"/><linearGradient id="linear-gradient-7" x1="396.95" y1="195.7" x2="443.43" y2="251.38" gradientUnits="userSpaceOnUse"><stop offset="0" stop-color="#f8a034"/><stop offset="1" stop-color="#ffc546"/></linearGradient><linearGradient id="linear-gradient-8" x1="413.75" y1="181.68" x2="460.22" y2="237.36" xlink:href="#linear-gradient-7"/><linearGradient id="linear-gradient-9" x1="450.61" y1="384.26" x2="511.69" y2="384.26" xlink:href="#linear-gradient-5"/><linearGradient id="linear-gradient-10" x1="450.61" y1="377.05" x2="477.79" y2="377.05" xlink:href="#linear-gradient-5"/><linearGradient id="linear-gradient-11" x1="-205.3" y1="480.79" x2="-194.54" y2="442.51" gradientTransform="matrix(-1, 0, 0, 1, 252, 0)" xlink:href="#linear-gradient-7"/><linearGradient id="linear-gradient-12" x1="-207.17" y1="482.08" x2="-220.46" y2="454.55" gradientTransform="matrix(-1, 0, 0, 1, 252, 0)" gradientUnits="userSpaceOnUse"><stop offset="0" stop-color="#fcb72c"/><stop offset="1" stop-color="#ffcf44"/></linearGradient><linearGradient id="linear-gradient-13" x1="-190.6" y1="483.88" x2="-185.86" y2="466.17" xlink:href="#linear-gradient-12"/><linearGradient id="linear-gradient-14" x1="486.28" y1="342.81" x2="614.67" y2="135.74" xlink:href="#linear-gradient"/></defs><g class="cls-1"><g id="Layer_2" data-name="Layer 2"><g id="Layer_1-2" data-name="Layer 1"><rect class="cls-2" width="720" height="504"/><ellipse class="cls-3" cx="262.93" cy="482.03" rx="51.6" ry="5.23"/><path class="cls-4" d="M174.48,38.61c4.81,3.28,34.64,31.17,24.24,69.71s-35.93,57.59-69.27,49.36S62.34,124.34,71,84.94,117.32-.36,174.48,38.61Z"/><line class="cls-5" x1="138.92" y1="84.4" x2="138.92" y2="435.14"/><line class="cls-5" x1="138.92" y1="130.85" x2="159.23" y2="110.54"/><line class="cls-5" x1="138.92" y1="106.14" x2="121.75" y2="88.97"/><g id="plant"><path class="cls-6" d="M84.6,339.89c1.78,45.27,30.27,118,57.75,109.44,7.24-2.24-2.06-36-28.64-65.66C94.46,362.17,89.43,346.46,84.6,339.89Z"/><path class="cls-7" d="M165.77,443.67c-.16,2.85,39.37,6.48,57.7-23.38,14.27-23.27,23.14-25.35,30.79-29.48C202.26,389.87,166.22,436.2,165.77,443.67Z"/><path class="cls-8" d="M179.91,382.22c-.25-2.43,2.23-19.93-.42-33.65-5.41,5.3-25.49,73.69-24.86,84.8.23,4.09-2.17,15.36,6.41,17.39,9.05,2.15,25.74-19.7,31.66-34.77,19.56-49.81,5.49-47.7,21.79-76.05C208,344.67,183.33,373.3,179.91,382.22Z"/><path class="cls-6" d="M190.36,362.93c-3.28,4.77-4.78,10.4-8,15.07-2.59,3.76-2.34,8.48-4.18,12.1-2,3.88-5.44,5.88-5.65,11.33-.09,2.55.55,4.67.32,7-.29,2.87-1.49,5.52-1.53,8.58,0,2.15.64,4.19.7,6.23.16,5.73-8.94,15.12-1.65,20.34-.39,4.84.49,6.56,3,6.63,5.33.16,5.13-5.27,6.18-8.26,1.2-3.45,5.11-5.71,5.49-10.44.19-2.44-1.22-5.32-1-7.55.2-1.66,1.75-2.58,2.63-4,2.28-3.62,2.37-7.8,2.13-11.93-.14-2.43-2-6.29-1.75-8.47.57-4.2,4.84-5.27,3.54-11.31-.4-1.83-2-4-1.92-5.91s1.28-3.14,1.92-4.85C192.39,372.73,190.42,367.79,190.36,362.93Z"/><path class="cls-9" d="M170.09,432.27c-5.09-.2-11.54,4.61-14.93,9.93.07-3.34.24-6.69.47-10,3.62-3.31,9.79-2.35,13.39-6.63,3.79-4.5,0-9.56-5.37-6.84C161,420,158,424.38,156,428c.19-2.38.45-5.69.64-8.08q.25-3.1.42-6.19c4.14-2.59,13-2.4,13.92-9.23.65-4.79-4.1-8.1-7.93-4.2a34.71,34.71,0,0,0-5.79,8.64c.11-3.85.1-7.68-.07-11.5,4.55-3.56,14.92-2.53,16.93-9.23,1.64-5.47-5.32-6.74-9.28-4s-5.88,7.44-7.72,11.82q-.23-4.26-.72-8.52c3.41-3.48,10.55-5.83,12-11.49s-3.05-11.57-8.34-5.93c-2.78,3-3.89,7.56-4.41,12-.52-3.12-1.15-6.23-1.89-9.3a38.41,38.41,0,0,1,3.35-6c1.7-2.44,4.2-4.79,3.92-7.9-.48-5.36-4.61-2.62-6.47.89a20.79,20.79,0,0,0-1.87,8.86c-.93-3.43-2.47-8.61-3.66-11.95,1.8-5.49,15.42-16.07,5.58-16.74-4.66-.32-6.53,8.86-6.65,14.37-.71-1.82-2.48-6-2.61-6.3,1.62-4.5,9.55-18.35,2.81-19.12-5.34-.6-5.29,8.33-4.86,12.73,0,.55.09,1.36.16,2.23-1.28-2.73-2.64-5.47-4.1-8.17a25.48,25.48,0,0,0,3-6.21c.51-1.63,2-8.79-2.42-6.3-1.7.94-2.43,6-2.21,9.67-1.09-1.88-2.23-3.74-3.42-5.55-6.5-13.85-.09-31.37-10.72-29.68-12.6,2-9,12.4-6,16.29a49.61,49.61,0,0,0,14,11.91c1.2,2,5.75,10.94,6.32,12.1-5-6.21-15.1-18.46-19.2-11.75-3.64,6,14.05,10.56,20.16,13.76,1.66,3.51,5.35,12.58,5.7,13.53-2.28-2.59-4.18-6.48-7.25-8.27-2.71-1.58-9.14-2.92-9.19,1.12-.08,5.75,8.21,6.49,12.29,7.53,2.92.75,4.13,2.08,4.95,1.83q2.44,6.93,4.21,14.06c-3.11-5.7-12.27-17.94-16.77-11.37-5.79,8.46,11.32,8.7,17.08,12.66a148.51,148.51,0,0,1,2.74,14.75l0,.17c-2-4.53-3.54-9.12-7.55-12.6-3.63-3.14-10.22-4.75-10.3,2.7-.06,5.42,9.47,6.45,13.81,9.09,1.94,1.18,3.34,2.7,4.34,3.34a133.15,133.15,0,0,1,.76,14c-7.63-6.67-13.3-25.92-20.1-17.18-6,7.7,12.3,9.43,20.1,18.81,0,4.25-.2,8.52-.49,12.8a47.87,47.87,0,0,0-4.2-9.87c-1.2-2.4-7.81-9.43-10.92-4.21s6.48,9.55,9.36,11.22A13.92,13.92,0,0,1,153,419.8c-.06.78-.93,10.52-1.21,14.62-1.87-7.07-17.9-33.22-24.55-19-4.27,9.12,15.48,11.38,19.91,14.65,3,2.22,4,4.16,4.52,6.18-.13,2.38-.23,4.75-.25,7.12-3.76-6.61-13.16-19.37-18.19-9.86-6,11.24,10,8.37,12.94,10.08,2.57,1.48,5.49,2.44,5.39,6.06a70.29,70.29,0,0,0,.94,8.33c.36,2,3.47,1.3,3.26-.68a111.49,111.49,0,0,1-.59-11.54c4.56-2.67,14.62-2.62,17.7-5.1C177.11,437.21,175.69,432.49,170.09,432.27Z"/><path class="cls-10" d="M91.89,461.64s5.71-16.89,18.94-11.45c0,0,6.61-21.38,22.84-4.67s11.24-19.17,27.41-15.95,11.35,15.54,11.35,15.54,15.4-7.94,12.06,5.8c0,0,36.33-18.12,36.93-2.79,0,0,24.34-4.51,20.13,8.11,0,0,14.13-3.61,14.13,5.41Z"/></g><polygon class="cls-11" points="81.73 243.87 114.05 251.1 128.76 274.15 81.73 243.87"/><polygon class="cls-11" points="110.75 244.38 81.73 243.87 103.16 229.25 110.75 244.38"/><polygon class="cls-7" points="114.26 264.82 111.89 268.48 81.73 243.87 114.26 264.82"/><polygon class="cls-7" points="110.75 244.38 107.27 249.59 81.73 243.87 110.75 244.38"/><path class="cls-12" d="M229.4,273.78l-2.38,0v-.33c1.29,0,2.62,0,3.94,0v.33Zm5.52-.13,0-.33c1.29-.06,2.61-.14,3.93-.24l0,.33C237.53,273.51,236.21,273.59,234.92,273.65Zm-11.84,0c-1.32-.08-2.65-.19-3.94-.32l0-.33c1.28.13,2.6.24,3.92.32Zm19.71-.55,0-.33c1.28-.13,2.59-.29,3.91-.46l0,.33C245.39,272.76,244.07,272.92,242.79,273.05Zm-27.57-.25c-1.31-.19-2.62-.42-3.89-.66l.06-.33c1.27.25,2.57.47,3.88.66Zm35.4-.77-.05-.33c1.28-.2,2.59-.42,3.89-.65l0,.32C253.21,271.61,251.9,271.83,250.62,272Zm-43.15-.75c-1.28-.32-2.56-.68-3.81-1.06l.1-.32c1.24.38,2.51.74,3.79,1.06Zm50.92-.65-.06-.32c1.27-.26,2.56-.53,3.86-.82l.07.32C261,270.1,259.66,270.38,258.39,270.63Zm-58.47-1.69c-1.23-.47-2.47-1-3.65-1.51l.13-.3c1.18.53,2.41,1,3.64,1.5Zm66.18,0-.07-.32c1.26-.3,2.54-.63,3.82-1l.08.32C268.65,268.29,267.37,268.62,266.1,268.92Zm7.65-2-.09-.32c1.26-.35,2.54-.72,3.8-1.09l.09.32C276.29,266.21,275,266.58,273.75,266.93Zm-81-1.23c-1.16-.62-2.31-1.28-3.43-2l.18-.28c1.1.68,2.25,1.34,3.41,2Zm88.62-1-.1-.32c1.24-.38,2.5-.79,3.76-1.2l.1.31Zm7.5-2.46-.1-.31,3.71-1.3.11.31ZM186,261.53c-1.07-.77-2.12-1.59-3.13-2.43l.21-.26c1,.84,2,1.65,3.11,2.42Zm-6.08-5.07c-.94-.91-1.87-1.87-2.76-2.85l.24-.22c.89,1,1.81,1.92,2.75,2.83Zm-33.41-.57h-1.09v-.33c1.31,0,2.62,0,3.93-.05l0,.33C148.42,255.87,147.45,255.89,146.51,255.89Zm-5-.2c-1.3-.1-2.63-.25-3.92-.43l0-.33c1.29.19,2.61.33,3.91.44Zm11.84-.16,0-.33c1.29-.13,2.6-.31,3.9-.53l.05.33C155.92,255.22,154.6,255.4,153.31,255.53Zm-19.66-.95c-1.28-.26-2.57-.57-3.84-.91l.08-.32c1.27.34,2.56.65,3.83.91Zm27.44-.35-.07-.32c1.27-.29,2.55-.62,3.81-1l.09.32C163.66,253.61,162.37,253.94,161.09,254.23ZM126,252.53c-1.23-.41-2.48-.87-3.71-1.35l.12-.31c1.22.48,2.47.94,3.7,1.35Zm42.66-.48-.11-.31c1.22-.42,2.46-.89,3.68-1.39l.12.31C171.15,251.16,169.91,251.63,168.68,252.05Zm5.92-1.46c-.84-1-1.65-2.09-2.42-3.13l.26-.2c.77,1,1.58,2.09,2.41,3.13Zm1.38-1.52-.13-.3c1.17-.55,2.35-1.14,3.51-1.76l.16.29C178.35,247.92,177.16,248.52,176,249.07Zm7-3.7-.17-.29c1.12-.66,2.24-1.36,3.33-2.08l.18.27C185.21,244,184.08,244.7,183,245.37Zm-13.09-1.13c-.76-1.1-1.5-2.22-2.18-3.31l.28-.17c.68,1.08,1.41,2.19,2.17,3.3ZM189.55,241l-.19-.27c1.06-.77,2.11-1.57,3.14-2.39l.2.26C191.67,239.45,190.61,240.26,189.55,241Zm-23.89-3.5c-.66-1.17-1.28-2.35-1.86-3.5l.3-.15c.57,1.15,1.19,2.32,1.85,3.49Zm30.09-1.43-.21-.25c1-.85,2-1.75,2.92-2.65l.22.25C197.73,234.35,196.74,235.24,195.75,236.1Zm5.75-5.44-.23-.23c.91-.94,1.81-1.91,2.68-2.89l.25.22C203.33,228.74,202.42,229.72,201.5,230.66Zm-39.36-.24c-.52-1.23-1-2.47-1.44-3.69l.32-.11c.42,1.21.9,2.45,1.42,3.67Zm44.63-5.68-.26-.21c.83-1,1.65-2.07,2.42-3.12l.27.2C208.42,222.66,207.6,223.71,206.77,224.74Zm-47.24-1.81c-.35-1.29-.65-2.59-.89-3.87L159,219c.24,1.27.53,2.56.88,3.85Zm51.95-4.56-.27-.18c.74-1.1,1.45-2.23,2.12-3.34l.28.17C212.94,216.14,212.22,217.27,211.48,218.37Zm-53.39-3.24c-.13-1.31-.19-2.62-.19-3.9v-.07h.33v.07c0,1.27.06,2.57.18,3.87Zm57.47-3.56-.29-.16c.62-1.18,1.21-2.37,1.74-3.54l.3.14C216.78,209.18,216.19,210.38,215.56,211.57Zm-57.12-4.34-.33,0a36.37,36.37,0,0,1,.63-3.92l.32.07A33.52,33.52,0,0,0,158.44,207.23Zm60.4-2.89-.31-.12c.48-1.26.9-2.51,1.26-3.74l.31.09C219.74,201.81,219.32,203.07,218.84,204.34Zm-58.74-4.8-.31-.1a37.79,37.79,0,0,1,1.47-3.69l.3.14A38,38,0,0,0,160.1,199.54ZM221,196.71l-.32-.06a34.8,34.8,0,0,0,.55-3.9l.33,0A35.22,35.22,0,0,1,221,196.71Zm-57.63-4.3-.28-.17a38.71,38.71,0,0,1,2.22-3.29l.26.2C164.82,190.21,164.08,191.3,163.41,192.41Zm57.92-3.6a22.66,22.66,0,0,0-.56-3.88l.32-.08a22.37,22.37,0,0,1,.57,4Zm-53.19-2.68-.24-.22a39,39,0,0,1,2.82-2.78l.22.24C170,184.25,169,185.18,168.14,186.13Zm51.33-4.89c-.14-.28-.28-.55-.43-.82a14.84,14.84,0,0,0-1.71-2.44l.25-.22a15.57,15.57,0,0,1,1.75,2.5c.15.27.3.55.43.83ZM174,180.88l-.19-.27c1-.78,2.14-1.54,3.27-2.24l.17.29C176.11,179.35,175,180.1,174,180.88Zm6.67-4.17-.15-.29c1.17-.6,2.38-1.16,3.59-1.66l.13.3C183,175.56,181.81,176.12,180.65,176.71Zm33.77-1.33a18.16,18.16,0,0,0-3.43-1.87l.13-.3a18,18,0,0,1,3.49,1.9Zm-26.51-1.68-.1-.31c1.26-.4,2.54-.76,3.82-1l.07.32C190.44,173,189.16,173.3,187.91,173.7Zm19.36-1.37a29.14,29.14,0,0,0-3.88-.6l0-.32a26.76,26.76,0,0,1,3.92.6ZM195.56,172l0-.32a38.52,38.52,0,0,1,3.94-.33v.33C198.2,171.68,196.88,171.79,195.56,172Z"/><g id="LADY"><g id="SHOES"><path class="cls-13" d="M293.07,453.13l-.69,10.25s12.72,8.22,16.63,9.37,5.52,3.51,5.52,5.47-.46,2.82-.81,2.93-38.65-.8-38.94-2.7S277.83,463,277.83,463l-.69-10.93Z"/><path class="cls-14" d="M292.38,463.38s-6.36.67-6.42,1.78-8.13-2.13-8.13-2.13l-.69-10.93,15.93,1Z"/><path class="cls-15" d="M274.78,478.45c.29,1.9,38.6,2.82,38.94,2.7s.81-1,.81-2.93-1.61-4.32-5.52-5.47a13.34,13.34,0,0,1-1.61-.63h0c-1.16.64-3.28,7-3.28,7-2.85,0-24.35-1.74-29.25-2.14A7,7,0,0,0,274.78,478.45Z"/><path class="cls-16" d="M218.18,444l-1.38,12.18-4.68,12.34a2,2,0,0,0,1,2.49c5.35,2.29,21.58,9.12,26.41,9.79a58.14,58.14,0,0,0,11.08.17,2.26,2.26,0,0,0,2.11-2.4c-.16-2.82-1.1-7.46-5.42-8.64-6.33-1.73-15.53-11.51-15.53-11.51l2.78-9.66Z"/><path class="cls-14" d="M231.82,458.37s-5.47-.11-6.58.92-8.44-3.16-8.44-3.16L218.18,444l16.42,4.76Z"/><path class="cls-15" d="M213.17,471c5.35,2.29,21.58,9.12,26.41,9.79a58.14,58.14,0,0,0,11.08.17,2.26,2.26,0,0,0,2.11-2.4c-.16-2.82-1.1-7.46-5.42-8.64a11.24,11.24,0,0,1-1.11-.38h0c-6.69,1.09-7.11,8.35-7.11,8.35-5.8-1.23-22-8.05-26.73-10.08l-.27.7A2,2,0,0,0,213.17,471Z"/></g><g id="PANTS"><path class="cls-16" d="M295.11,218.48s8.51,50.31,7,95.4-8.59,139.28-8.59,139.28-13.43.84-17.68-1.23c0,0-8.05-64.19-6.21-83.86s2.18-21.63,2.18-23.82-3.45-34.85-3.45-34.85-7.48,36.46-10.81,51.88-22.93,87.43-22.93,87.43-13-.61-16.42-4.76c0,0,4.45-67,9-83.44S234,335.36,233.68,328s-4.76-54.14,1.07-78.84,11.16-33.86,11.16-33.86Z"/><path class="cls-13" d="M275.59,266.49l-7.25,42.91s3.45,32.67,3.45,34.85-.34,4.14-2.18,23.82c-.18,1.91-.27,4.25-.28,6.9l.1,6.08v0c0-.05,3.21-23.64,6.16-35.28S275.59,266.49,275.59,266.49Z"/></g><g id="UPPER_BODY" data-name="UPPER BODY"><path class="cls-16" d="M285.71,65.85s7.36-1.95,8.05,3.69-1.84,17.14,4.38,19.32,14.49,5,11,12.54-14,11.85-8.63,19.1,10,7.25,2.07,16-81,8-81,8,3.92-4.6,1.15-13.46S214.39,116,222.67,113s14.84-2.3,15.53-14.38.78-26.89,9.54-33.12,28.54-13.7,32.79-9.67A19.37,19.37,0,0,1,285.71,65.85Z"/><path class="cls-13" d="M296.41,108.54c1.5-8.17-.69-11.05-4-19.56a60,60,0,0,1-3.64-17.45s-17,25.39-26.29,26.54-12.63-5-12.63-5-5.06,4.45-6.56,14.46-26.58.89-24.22,13.9c.94,2.74,2.59,6,3.74,9.68,2.77,8.86-1.15,13.46-1.15,13.46s73.05.69,81-8c7.71-8.49,3.59-8.74-1.61-15.39h0A13,13,0,0,1,296.41,108.54Z"/><path class="cls-14" d="M238.32,226s6.94,9.67,7.17,11.28.88,7.63,1,8.28.77,5.18.39,5.56-2.73-1.42-3.3-3a45.84,45.84,0,0,1-1.27-4.95s-3.49,5.06-3.72,6-.19,9.47-.65,10.74-1.38,2.37-2.26,2.18-.77-2.3-.77-2.3-.23,3.38-.92,3.68a1.14,1.14,0,0,1-1.65-.69c-.19-.73-.27-1.22-.27-1.22s-1.72,1.11-2.1-.35a37.23,37.23,0,0,1-.69-4s-1.16,1.54-1.69-1.49a35.09,35.09,0,0,1-.23-10c.42-2.53,3-11.43,3-11.43l-2.69-2.88Z"/><path class="cls-17" d="M285.25,131.89s17.53,3.22,19.52,5.14,28.3,31.37,28.3,31.37,27.94-24.75,28.54-24.81,9.19,4.4,9,5.48-26.69,42-35.28,43.64-29.22-15.57-29.22-15.57-4.44,6.52-5.21,9-5,31.75-5.75,32.37-32.06,4.75-36.78,3.37-12.31-4.26-12.42-6.56-7.48-50.84-7.48-50.84l-22.2,23.46s11.5,19.79,14.26,25,8.17,12.54,7.83,13.11-9.63,6-10.67,5.52-36-34.58-33.4-46,17.41-31.6,27.38-41,14.19-15.1,24.32-14.8,16.87,1.11,16.87,1.11Z"/><path class="cls-18" d="M313.21,171.92c-2.3-4.52-8.67-14.65-8.67-14.65s1.3,5.14,2.34,10.74-.81,9.13-.81,9.13,20.63,17.18,29.22,15.57C323.25,191.79,315.51,176.45,313.21,171.92Z"/><path class="cls-18" d="M257.76,141c7.93,5.06,19.78,5.52,19.78,5.52a21.27,21.27,0,0,0-7.17-15.3l-7.55-.35s-6.75-.8-16.87-1.11a20.3,20.3,0,0,0-4.67.37C248.32,128.7,250,136,257.76,141Z"/><polygon class="cls-18" points="238.43 164.45 246.71 156.51 242.57 192 238.43 164.45"/><g id="FACE"><path class="cls-14" d="M288.74,71.53C270,50.9,254.38,93.08,254.38,93.08c-4.45-3.37-9,4-5.21,8.13s7.36,2.38,7.36,2.38a32.64,32.64,0,0,0,6.29,7.28v20s4.26,16.34,14.72,15.65,7.71-14.61,7.71-14.61c-1.5-.62-3.07-11.47-3.72-16.48a17.35,17.35,0,0,0,4.07-1.85C294.19,108.19,288.74,71.53,288.74,71.53Z"/><path class="cls-19" d="M281.53,115.41a19.51,19.51,0,0,1-13.64-1.31s4.34,5.2,14.19,5.25Z"/><path class="cls-16" d="M254.38,93.08s2.61,6.52,3.45,6.52.85-7.67.85-7.67,10-.3,12-10.2,6.61-12.27,11.36-9.74c0,0,3.44-3.45,6.66-.46A14.49,14.49,0,0,0,275.82,63C266,62.64,249.57,81.89,254.38,93.08Z"/></g><polygon class="cls-20" points="377.1 100.34 358.44 120.45 392.97 152.5 411.63 132.38 385.61 128.37 382.77 125.74 377.1 100.34"/><path class="cls-12" d="M392.89,152.55l.16-.11c-.39-.56-4.41-14-7.74-25.41a1.21,1.21,0,0,0-.9-.85l-26-5.82,0,.18,25.95,5.82a1,1,0,0,1,.76.72C386.82,132.87,392.39,151.82,392.89,152.55Z"/><path class="cls-21" d="M411.64,132.38l-34.54-32,5.83,26.59a2.44,2.44,0,0,0,2.07,1.9Z"/><path class="cls-21" d="M385,128.87a2.48,2.48,0,0,1-2.09-1.93l-5.83-26.6,0-.11,34.7,32.2Zm-2-1.94a2.42,2.42,0,0,0,2,1.87l26.53,3.53-34.37-31.89Z"/><path class="cls-21" d="M382.84,127,377,100.06l35,32.46L385,128.93a2.54,2.54,0,0,1-2.14-2Zm-5.58-26.34,5.76,26.3a2.36,2.36,0,0,0,2,1.83l26.34,3.51Z"/><path class="cls-21" d="M385,129a2.57,2.57,0,0,1-1.41-.66l0,0,0,0a2.64,2.64,0,0,1-.77-1.34l-5.89-26.89,0-.11L412,132.57Zm-2.11-2a2.5,2.5,0,0,0,.75,1.29,2.44,2.44,0,0,0,1.37.65l26.82,3.58L377,100.16Zm2.13,1.82a2.37,2.37,0,0,1-2-1.85l-5.76-26.3,0-.11,34.26,31.79Zm-1.94-1.87a2.32,2.32,0,0,0,1.95,1.8l26.24,3.5-33.93-31.48Z"/><path class="cls-18" d="M376.19,127a10.2,10.2,0,0,1,0,4.35,36.85,36.85,0,0,1-1.81,3.86l-4.51-4.19Z"/><path class="cls-14" d="M361.61,143.59s4.21-8.56,5.89-10.28,7.49-6.92,8.23-6.89.79,3,0,4.09-2.44,3.72-2.44,3.72l10.78,10s-10.93.76-11.43,1.61-2.07,3.22-2.07,3.22Z"/><path class="cls-19" d="M373.29,134.23a7.19,7.19,0,0,1-.78,4.71s1.95-2.56,2.79-1.93,5.66,7.48,5.66,7.48l3.11-.25Z"/></g></g><path class="cls-12" d="M381,178.21l-.2-.18s.39-.41,1.13-1.09l.17.19C381.33,177.8,381,178.21,381,178.21Z"/><path class="cls-12" d="M482.31,206.16h-.26c0-.33,0-.67,0-1a17.31,17.31,0,0,0-.11-2l.26,0a20.5,20.5,0,0,1,.11,2.07C482.33,205.49,482.32,205.82,482.31,206.16Zm-.89-6a21.21,21.21,0,0,0-1-2.88l.24-.1a21.31,21.31,0,0,1,1,2.92Zm-2.3-5.63a28.94,28.94,0,0,0-1.62-2.58l.21-.15a29.64,29.64,0,0,1,1.64,2.61Zm-3.49-5c-.63-.75-1.32-1.52-2-2.26l.18-.19c.73.76,1.43,1.53,2.06,2.29Zm-4.24-4.39c-.73-.67-1.51-1.34-2.32-2l.17-.2c.81.66,1.59,1.34,2.32,2Zm-4.73-3.89c-.79-.59-1.63-1.19-2.48-1.78l.14-.21c.86.59,1.7,1.19,2.5,1.79Zm-5-3.47c-.83-.53-1.71-1.07-2.6-1.61l.13-.22c.89.53,1.77,1.08,2.61,1.61Zm-77.23-2.57-.16-.2c.79-.62,1.62-1.23,2.47-1.82l.15.21C386,173.94,385.17,174.55,384.39,175.16Zm72-.57c-.9-.5-1.8-1-2.7-1.46l.12-.23c.9.47,1.81,1,2.7,1.46Zm-5.43-2.84c-.92-.45-1.86-.89-2.77-1.3l.1-.23c.92.41,1.86.84,2.78,1.29Zm-61.52-.06-.13-.23c.87-.52,1.77-1,2.67-1.52l.12.23C391.18,170.65,390.29,171.16,389.42,171.69Zm55.93-2.44c-1-.39-1.91-.76-2.86-1.11l.09-.24c.95.35,1.91.72,2.87,1.11Zm-50.53-.44-.11-.23c.93-.43,1.88-.84,2.83-1.22l.09.24C396.69,168,395.74,168.38,394.82,168.81Zm44.78-1.67c-1-.32-2-.62-2.93-.89l.07-.25c1,.27,2,.57,2.94.89Zm-39.09-.59-.09-.25c1-.32,2-.62,2.94-.89l.07.25C402.45,165.93,401.47,166.23,400.51,166.55Zm33.2-1.07c-1-.24-2-.46-3-.65l0-.25c1,.19,2,.41,3,.65Zm-27.31-.55,0-.25c1-.22,2-.41,3-.57l0,.25C408.41,164.53,407.39,164.72,406.4,164.93Zm21.3-.61c-1-.15-2-.27-3-.37l0-.26c1,.1,2,.22,3.05.37ZM412.44,164l0-.26c1-.1,2-.18,3.06-.24v.26C414.48,163.78,413.45,163.86,412.44,164Zm9.17-.24c-1-.05-2-.08-3-.08l0-.26h0c1,0,2,0,3,.08Z"/><polygon class="cls-22" points="359.24 197.81 378.63 182.79 398.68 185.25 359.24 197.81"/><polygon class="cls-23" points="373.26 181.5 359.24 197.81 361.08 178.7 373.26 181.5"/><polygon class="cls-7" points="386.52 189.12 387.48 192.19 359.24 197.81 386.52 189.12"/><polygon class="cls-7" points="373.26 181.5 374.57 185.94 359.24 197.81 373.26 181.5"/><g id="MAILBOX"><rect class="cls-7" x="456.63" y="250.01" width="10.97" height="216.06"/><path class="cls-7" d="M425.8,188.24h5.88a21.37,21.37,0,0,1,21.37,21.37V250a0,0,0,0,1,0,0H404.43a0,0,0,0,1,0,0V209.61A21.37,21.37,0,0,1,425.8,188.24Z"/><path class="cls-24" d="M464.17,202.87v31.4a4,4,0,0,1-4,4H402.69a4,4,0,0,1-4-4v-31.4l32.73,19.3Z"/><path class="cls-25" d="M463.06,237,442,215.94l-10.55,6.23-10.56-6.23L399.81,237a4,4,0,0,0,2.88,1.25h57.49A4,4,0,0,0,463.06,237Z"/><polygon class="cls-26" points="431.44 225.04 444.39 218.33 442 215.94 431.44 222.17 420.88 215.94 418.51 218.31 431.44 225.04"/><polygon class="cls-27" points="398.71 202.87 464.17 202.87 431.44 222.17 398.71 202.87"/><rect class="cls-17" x="392.53" y="244.56" width="60.52" height="5.44"/><path class="cls-17" d="M490.5,188.24H428.74a24.31,24.31,0,0,1,24.31,24.31V250h61.77V212.55A24.32,24.32,0,0,0,490.5,188.24Z"/><rect class="cls-18" x="392.53" y="247.07" width="60.52" height="2.93"/><rect class="cls-18" x="453.05" y="247.07" width="61.77" height="2.93"/><path class="cls-18" d="M490.51,188.24H467.38a24.31,24.31,0,0,1,24.31,24.31V250h23.13V212.55A24.32,24.32,0,0,0,490.51,188.24Z"/><circle class="cls-2" cx="466.78" cy="226.79" r="7.26"/><path class="cls-18" d="M470.76,226.79a4,4,0,1,0-4,4A4,4,0,0,0,470.76,226.79Z"/><rect class="cls-18" x="465.53" y="171.69" width="2.27" height="55.1"/><polygon class="cls-28" points="467.76 191.64 489.71 182.07 467.76 172.5 467.76 191.64"/><polygon class="cls-29" points="482.2 178.8 467.76 183.75 467.76 191.64 489.71 182.07 482.2 178.8"/><path class="cls-30" d="M453.05,212.55V250h0v-5.45h-6.21v-32a24.3,24.3,0,0,0-21.2-24.1,24.46,24.46,0,0,1,3.1-.2h0A24.3,24.3,0,0,1,453.05,212.55Z"/></g><polygon class="cls-31" points="450.61 390.01 484.74 377.91 511.69 390.62 450.61 390.01"/><polygon class="cls-32" points="477.79 373.62 450.61 390.01 462.02 364.08 477.79 373.62"/><polygon class="cls-33" points="492.86 390.43 492.78 395.18 450.61 390.01 492.86 390.43"/><polygon class="cls-33" points="477.79 373.62 477.58 380.45 450.61 390.01 477.79 373.62"/><path class="cls-12" d="M500.05,369.79l0-.27c.43,0,.87-.08,1.32-.14l0,.27C500.93,369.71,500.49,369.76,500.05,369.79Zm4.58-.75-.06-.26c1-.25,2.09-.55,3.15-.91l.09.26C506.73,368.49,505.67,368.8,504.63,369ZM510.9,367l-.1-.25c1-.41,2-.87,3-1.36l.12.25C512.91,366.11,511.9,366.57,510.9,367Zm5.94-2.89-.14-.24c.94-.53,1.89-1.09,2.83-1.68l.15.23C518.74,363,517.78,363.56,516.84,364.09Zm5.59-3.52-.16-.22c.89-.62,1.78-1.28,2.65-1.94l.17.21C524.21,359.29,523.32,360,522.43,360.57Zm5.23-4-.18-.21c.83-.7,1.67-1.43,2.48-2.17l.19.21C529.33,355.13,528.49,355.86,527.66,356.56Zm4.88-4.44-.19-.2c.77-.77,1.54-1.56,2.29-2.36l.2.19C534.09,350.55,533.32,351.35,532.54,352.12Zm4.51-4.82-.21-.18c.71-.82,1.42-1.67,2.1-2.53l.22.18C538.47,345.62,537.76,346.47,537.05,347.3Zm4.12-5.15L541,342c.65-.88,1.3-1.78,1.91-2.68l.23.16C542.47,340.37,541.83,341.27,541.17,342.15ZM522,334.51l-.4,0,0-.27c1.07.11,2.17.2,3.27.25v.27C523.94,334.68,523,334.61,522,334.51Zm22.88,2.2-.23-.15c.58-.92,1.15-1.87,1.7-2.81l.23.14C546.06,334.84,545.48,335.78,544.9,336.71ZM518.35,334c-1.1-.2-2.18-.44-3.23-.71l.07-.26c1,.27,2.12.5,3.21.7Zm9.86.77v-.28c1.08,0,2.18-.06,3.29-.14l0,.28C530.4,334.7,529.29,334.75,528.21,334.77ZM512,332.33c-1-.37-2.08-.79-3.06-1.24l.11-.25c1,.45,2,.86,3,1.23Zm22.83,2,0-.28c1.07-.12,2.16-.28,3.25-.46l0,.27C537,334,535.87,334.19,534.79,334.32Zm6.51-1.08-.06-.27c1.06-.22,2.14-.47,3.21-.74l.06.27C543.44,332.77,542.36,333,541.3,333.24ZM506,329.58c-1-.55-1.89-1.15-2.78-1.78l.16-.23c.88.63,1.81,1.23,2.76,1.78Zm41.74,2.05-.08-.27c1-.3,2.09-.63,3.14-1l.09.26C549.79,331,548.73,331.32,547.7,331.63Zm.51-.62-.25-.13c.51-1,1-1.95,1.49-2.93l.25.12C549.22,329.05,548.72,330,548.21,331Zm-47.62-5.26c-.82-.73-1.62-1.5-2.37-2.31l.2-.18a31.61,31.61,0,0,0,2.35,2.28Zm53.37,3.8-.1-.26c1-.37,2.06-.77,3.07-1.19l.1.26C556,328.77,555,329.17,554,329.55Zm-57.88-8.62c-.68-.88-1.32-1.79-1.91-2.7l.23-.15c.58.91,1.22,1.81,1.89,2.68Zm64,6.14-.11-.26c1-.44,2-.9,3-1.38l.12.25C562.07,326.16,561.06,326.62,560.07,327.07Zm-9-2-.25-.11c.44-1,.87-2,1.27-3l.25.1C552,323.05,551.52,324.07,551.08,325.07Zm14.93-.86-.12-.25c1-.5,1.94-1,2.9-1.55l.13.24C568,323.18,567,323.71,566,324.21Zm-73.48-8.85a32.22,32.22,0,0,1-1.35-3l.25-.1c.4,1,.85,2,1.34,3ZM571.78,321l-.14-.24c.94-.55,1.89-1.13,2.81-1.71l.15.23C573.67,319.87,572.72,320.45,571.78,321Zm-18.27-2.07-.25-.09c.36-1,.71-2.08,1-3.12l.26.09C554.23,316.86,553.88,317.91,553.51,318.94Zm-63.37-9.73c-.29-1.06-.53-2.14-.72-3.23l.27-.05c.19,1.08.42,2.16.71,3.2Zm87.23,8.27-.15-.22c.9-.61,1.81-1.24,2.71-1.88l.16.23C579.19,316.24,578.28,316.88,577.37,317.48Zm-21.88-4.83-.26-.07c.28-1.05.56-2.12.81-3.18l.27.06C556.05,310.53,555.78,311.6,555.49,312.65Zm27.26,1-.17-.22c.88-.66,1.75-1.33,2.6-2l.17.22C584.5,312.31,583.63,313,582.75,313.65ZM489,302.7c-.08-1.08-.1-2.19-.08-3.3h.27c0,1.1,0,2.21.08,3.28Zm98.87,6.83-.18-.21c.83-.7,1.66-1.43,2.47-2.16l.19.21C589.57,308.1,588.73,308.83,587.9,309.53ZM557,306.24l-.27-.06c.21-1.07.41-2.16.58-3.23l.27,0C557.42,304.07,557.22,305.16,557,306.24Zm-67.57-10.11-.27,0c.11-1.08.28-2.17.49-3.27l.27.06C489.72,294,489.56,295.06,489.44,296.13Zm103.35,9-.19-.2c.79-.76,1.58-1.53,2.35-2.31l.19.19C594.38,303.59,593.59,304.37,592.79,305.13Zm-34.72-5.4-.28,0c.11-.82.2-1.66.29-2.49,0-.26,0-.52.07-.78l.27,0c0,.26,0,.52-.07.78C558.27,298.07,558.17,298.91,558.07,299.73Zm39.35.7-.2-.19c.74-.81,1.48-1.63,2.19-2.45l.21.18C598.91,298.79,598.17,299.62,597.42,300.43ZM490.66,289.69l-.26-.07c.28-1.05.61-2.11,1-3.16l.26.09C491.27,287.59,490.94,288.65,490.66,289.69Zm67.74,3.46c.06-1.09.11-2.19.14-3.29h.27c0,1.1-.07,2.21-.14,3.3Zm43.33,2.28-.21-.17c.69-.85,1.37-1.73,2-2.59l.22.16C603.1,293.7,602.42,294.58,601.73,295.43ZM492.8,283.48l-.25-.1c.42-1,.88-2,1.37-3l.24.12C493.68,281.48,493.22,282.49,492.8,283.48Zm65.76,3.09c0-1.08,0-2.18-.07-3.28h.27c0,1.1.07,2.21.08,3.29Zm47.12,3.58-.22-.15c.62-.91,1.24-1.83,1.82-2.74l.23.14C606.93,288.32,606.31,289.24,605.68,290.15Zm-110-12.56-.23-.13c.53-.95,1.1-1.9,1.69-2.83l.23.14C496.79,275.7,496.22,276.65,495.69,277.59ZM558.31,280c-.08-1.08-.18-2.19-.29-3.27l.28,0c.11,1.09.2,2.19.28,3.28Zm50.91,4.58-.24-.13c.55-1,1.08-1.93,1.58-2.89l.24.13C610.3,282.65,609.77,283.63,609.22,284.58Zm-110-12.53-.23-.16c.64-.89,1.3-1.78,2-2.64l.22.17C500.51,270.28,499.85,271.16,499.22,272.05Zm58.42,1.41c-.08-.65-.17-1.31-.27-2l-.21-1.28.27,0q.11.63.21,1.29c.1.66.19,1.32.28,2Zm54.62,5.27-.25-.11c.46-1,.9-2,1.31-3l.25.1C613.17,276.71,612.72,277.73,612.26,278.73Zm-109-11.85-.21-.18c.72-.82,1.47-1.65,2.24-2.44l.19.19C504.76,265.24,504,266.06,503.29,266.88Zm4.56-4.74-.19-.2c.8-.76,1.63-1.5,2.46-2.21l.17.21C509.47,260.65,508.65,261.38,507.85,262.14ZM556.5,267c-.27-1.09-.57-2.15-.9-3.15l.26-.09c.33,1,.64,2.08.9,3.18Zm58.23,5.62-.26-.09c.35-1,.68-2.09,1-3.13l.26.08C615.42,270.51,615.08,271.57,614.73,272.61ZM512.85,257.87l-.17-.22c.88-.67,1.78-1.32,2.68-1.94l.15.23C514.62,256.55,513.72,257.2,512.85,257.87Zm41.57,2.91a25.58,25.58,0,0,0-1.49-2.91l.23-.14a24.57,24.57,0,0,1,1.51,2.94Zm62.09,5.49-.26-.06c.23-1.07.44-2.16.6-3.23l.27,0C617,264.1,616.75,265.19,616.51,266.27Zm-98.23-12.1-.15-.24c1-.57,1.93-1.12,2.89-1.61l.12.24C520.19,253.06,519.23,253.59,518.28,254.17Zm32.79,1a19.49,19.49,0,0,0-2.26-2.36l.18-.21a20.1,20.1,0,0,1,2.29,2.4Zm-27-4-.1-.25c1-.44,2.07-.84,3.08-1.18l.09.26C526.17,250.33,525.14,250.72,524.11,251.16Zm93.14,8.57c.1-1.1.16-2.2.19-3.28h.27c0,1.09-.09,2.2-.18,3.3Zm-71.07-8.83a17.33,17.33,0,0,0-2.95-1.4l.1-.26a18.19,18.19,0,0,1,3,1.42Zm-15.85-1.8-.06-.27a32.81,32.81,0,0,1,3.26-.57l0,.28A29.56,29.56,0,0,0,530.33,249.1Zm6.49-.73v-.28a20.85,20.85,0,0,1,3.29.31l0,.27A21.58,21.58,0,0,0,536.82,248.37Zm80.57,4.79c0-1.09-.14-2.19-.27-3.27l.28,0c.12,1.09.22,2.19.27,3.29Zm-.77-6.51c-.21-1.07-.45-2.15-.74-3.2l.27-.07c.28,1.06.53,2.14.74,3.22Zm-1.69-6.34c-.36-1-.75-2.06-1.18-3.07l.25-.1c.43,1,.83,2.05,1.18,3.08Zm-2.54-6.06c-.48-1-1-2-1.49-2.92l.24-.13c.51,1,1,1.94,1.5,2.93Zm-3.11-5.78c-.56-.95-1.15-1.88-1.75-2.78l.23-.15c.6.9,1.19,1.84,1.76,2.79ZM605.65,223c-.65-.88-1.33-1.75-2-2.59l.21-.17c.69.84,1.37,1.71,2,2.6Zm-4.17-5.07c-.74-.81-1.51-1.6-2.28-2.36l.19-.2c.78.77,1.55,1.56,2.29,2.37Zm-4.69-4.6c-.82-.72-1.67-1.43-2.52-2.1l.17-.22c.86.68,1.71,1.39,2.53,2.11Zm-84.44-11.62-.09-.27s1.16-.37,3.18-.91l.08.27C513.5,201.33,512.36,201.7,512.35,201.71Zm79.28,7.56c-.89-.62-1.81-1.23-2.74-1.81l.15-.23c.93.58,1.85,1.19,2.75,1.82ZM518.71,200l-.06-.27c1.05-.24,2.14-.48,3.22-.7l.06.27C520.85,199.52,519.76,199.76,518.71,200Zm67.35,5.79c-.95-.52-1.93-1-2.91-1.51l.12-.25c1,.49,2,1,2.92,1.52Zm-60.9-7.11,0-.27c1.08-.2,2.17-.38,3.26-.54l0,.27C527.33,198.3,526.23,198.49,525.16,198.68Zm55,4.24c-1-.43-2-.84-3-1.22l.09-.26c1,.39,2.06.8,3.06,1.22Zm-48.49-5.24,0-.27c1.09-.14,2.2-.26,3.28-.37l0,.27C533.86,197.42,532.76,197.55,531.67,197.68ZM574,200.63c-1-.33-2.09-.64-3.15-.93l.07-.27c1.06.29,2.13.61,3.16.94ZM538.22,197l0-.27c1.1-.08,2.21-.15,3.29-.2v.27C540.42,196.87,539.32,196.94,538.22,197Zm6.57-.3v-.28c1.1,0,2.21,0,3.3,0v.28C547,196.69,545.89,196.7,544.79,196.72Zm22.87,2.19c-1.06-.24-2.14-.47-3.22-.67l0-.27c1.08.2,2.17.43,3.23.67Zm-16.29-2.12v-.27c1.11,0,2.21.11,3.3.19l0,.28C553.58,196.91,552.47,196.84,551.37,196.79Zm9.82.92c-1.07-.16-2.17-.3-3.26-.42l0-.27c1.1.12,2.2.26,3.27.41Z"/><path class="cls-29" d="M429,130.72l22.82-21a2.45,2.45,0,0,1,2.15-.59l30.36,6.45.39,1.42,5.26,19.2a2.42,2.42,0,0,1-1.7,3l-50.64,13.89a2.43,2.43,0,0,1-3-1.7l-5.26-19.2Z"/><rect class="cls-15" x="435.91" y="110.74" width="49.48" height="43.02" transform="translate(-18.57 126.55) rotate(-15.34)"/><rect class="cls-7" x="447.85" y="117.46" width="16.8" height="0.52" rx="0.23" transform="translate(-14.89 124.87) rotate(-15.34)"/><rect class="cls-7" x="448.86" y="121.15" width="16.8" height="0.52" rx="0.23" transform="translate(-15.83 125.27) rotate(-15.34)"/><rect class="cls-7" x="448.31" y="137.3" width="21.23" height="0.52" rx="0.23" transform="translate(-20.04 126.29) rotate(-15.34)"/><rect class="cls-7" x="449.41" y="141.32" width="21.23" height="0.52" rx="0.23" transform="translate(-21.06 126.72) rotate(-15.34)"/><rect class="cls-7" x="448.72" y="138.24" width="29.33" height="0.52" rx="0.23" transform="matrix(0.96, -0.26, 0.26, 0.96, -20.13, 127.5)"/><rect class="cls-7" x="451.62" y="131.21" width="16.8" height="0.52" rx="0.23" transform="translate(-18.39 126.36) rotate(-15.34)"/><rect class="cls-7" x="445.41" y="123.67" width="25.08" height="0.52" rx="0.23" transform="matrix(0.96, -0.26, 0.26, 0.96, -16.47, 125.54)"/><rect class="cls-7" x="446.19" y="126.52" width="25.08" height="0.52" rx="0.23" transform="translate(-17.2 125.85) rotate(-15.34)"/><rect class="cls-7" x="446.83" y="128.86" width="25.08" height="0.52" rx="0.23" transform="translate(-17.79 126.1) rotate(-15.34)"/><polygon class="cls-28" points="484.3 115.55 493.13 147.77 437.81 162.94 428.97 130.72 459.34 141.03 463.88 139.78 484.3 115.55"/><polygon class="cls-28" points="445.64 160.8 444.44 156.42 461.05 139.25 483.47 145.2 484.77 149.92 445.64 160.8"/><path class="cls-12" d="M437.82,163h0c1-.52,19.06-19.35,22.68-23.12l.56-.58h0l.78.2,31.3,8.32v0l-32.07-8.52-.56.58C456.88,143.61,438.79,162.44,437.82,163Z"/><g id="plant_3" data-name="plant 3"><path class="cls-34" d="M462.94,472.18s-1.09-38.57-14.38-41.41-15.18,24,0,50.62Z"/><path class="cls-35" d="M456.07,476.8a.21.21,0,0,1-.21-.17c-6.34-26-9.07-35.58-9.09-35.68a.22.22,0,0,1,.15-.28.24.24,0,0,1,.28.16c0,.09,2.75,9.67,9.09,35.69a.23.23,0,0,1-.16.28Z"/><path class="cls-36" d="M467.55,481.39s20.25-19.62,12.65-29.11-26.57,7-31.64,29.11Z"/><path class="cls-35" d="M459.64,478.76h-.09a.23.23,0,0,1-.12-.3c5-11.61,14.83-20.86,14.92-21a.22.22,0,0,1,.32,0,.21.21,0,0,1,0,.31c-.1.1-9.83,9.28-14.82,20.81A.22.22,0,0,1,459.64,478.76Z"/><path class="cls-37" d="M450.41,481.39S445.24,459.08,434.8,461s0,20.25,0,20.25Z"/><path class="cls-35" d="M440.18,478.61a.23.23,0,0,1-.22-.17l-3.48-13a.23.23,0,1,1,.44-.12l3.48,13a.23.23,0,0,1-.16.28Z"/></g><path class="cls-28" d="M393.57,420.35s-15.8-5.52-17.64-17.49-4.75-29.45,2.92-27.91S401.85,395,393.57,420.35Z"/><path class="cls-28" d="M408.14,434.77s-5.21-16.57,3.68-23.47S450.17,406.85,408.14,434.77Z"/><path class="cls-28" d="M398.33,447.34s-31.6-2.6-35.74-16.71S391.73,428.32,398.33,447.34Z"/><path class="cls-38" d="M381.76,388.14a244.09,244.09,0,0,0,11.81,32.21c6.9,14.72,13.05,42.18,13.05,42.18s2.29-16.41-34.68-30.52"/><path class="cls-38" d="M416.89,419.12s-11.51,14.1-12.7,33.47"/><path class="cls-39" d="M619.54,242.14c-30.28-1.93-65.23-36.16-56-57.34s11.32-35.2,2-49.51c-8.46-13,23.12-68,11.14-89,4.47-4.24,10.66-6.61,16.38-4.66,7.26,2.47,10.86,10.47,13.15,17.79a168.73,168.73,0,0,1,5.71,24.72c1.22,8,2.08,16.55,7.24,22.76,5.66,6.8,15.22,9.14,21.52,15.36a23.53,23.53,0,0,1,6.54,20.26c-1.08,6.41-4.79,12-7.43,18s-4.16,13.13-.92,18.78c2.85,5,8.62,7.42,12.61,11.53,5.11,5.26,7,13.09,6.09,20.36s-4.37,14-8.74,19.89a67.84,67.84,0,0,1-7.57,8.58A61.09,61.09,0,0,1,619.54,242.14Z"/><path class="cls-21" d="M589.67,272.88c-6.45-14-29.73-23.65-38.74-31.35-9.5-8.13-18.19-19-20-31.76-2-14.25,5.76-21.87,12.31-33.06,10.86-18.54-11.1-36.73-3.66-55.34,3.83-9.59,15.11-13.88,21.18-22.24,4.85-6.68,5.93-15.31,6.61-23.55s1.18-16.8,5.18-24a21.91,21.91,0,0,1,4.13-5.3c12,21.07-19.6,76.06-11.14,89,9.32,14.31,7.21,28.33-2,49.51s25.73,55.41,56,57.34a61.09,61.09,0,0,0,21.71-2.54,68,68,0,0,1-14.5,10.62C613.87,257.25,597.94,260.77,589.67,272.88Z"/><line class="cls-40" x1="589.67" y1="106.87" x2="589.67" y2="460.67"/><line class="cls-40" x1="589.67" y1="150.06" x2="607.18" y2="128.24"/><line class="cls-40" x1="589.67" y1="194.93" x2="607.18" y2="173.11"/><line class="cls-40" x1="589.67" y1="175.3" x2="572.15" y2="153.49"/><line class="cls-40" x1="589.67" y1="215.34" x2="572.15" y2="193.52"/><line class="cls-40" x1="589.67" y1="241.47" x2="607.18" y2="219.65"/><path class="cls-41" d="M577.29,430.68c1.46-1.69,8.24-4.27,11.09-8.44s12.71-18.72,20.24-15.87-6.51,13-10.68,18.11-4.51,19.83-15.53,19.83S574,434.45,577.29,430.68Z"/><path class="cls-42" d="M576.64,392.73s5.29.16,4.79,7.58-2.5,13-2.09,16.94,4,19.18-2.7,20.2-14.44-1.27-11.09-12.21S565.86,390.6,576.64,392.73Z"/><path class="cls-43" d="M575,401.58s-4.89,44.9-4.89,60.3"/><path class="cls-43" d="M571.62,461.88s2.83-27.6,33.51-51.48"/></g></g></g></svg>