<?xml version="1.0" encoding="utf-8"?>
<!-- Generator: Adobe Illustrator 19.0.0, SVG Export Plug-In . SVG Version: 6.00 Build 0)  -->
<svg version="1.1" xmlns="http://www.w3.org/2000/svg" xmlns:xlink="http://www.w3.org/1999/xlink" x="0px" y="0px"
	 viewBox="0 0 600 600" style="enable-background:new 0 0 600 600;" xml:space="preserve">
<style type="text/css">
	.st0{fill:#EFE5E9;}
	.st1{fill:url(#SVGID_1_);}
	.st2{fill:url(#SVGID_2_);}
	.st3{fill:url(#SVGID_3_);}
	.st4{fill:url(#SVGID_4_);}
	.st5{fill:url(#SVGID_5_);}
	.st6{fill:url(#SVGID_6_);}
	.st7{fill:#F8B143;}
	.st8{fill:url(#SVGID_7_);}
	.st9{fill:url(#SVGID_8_);}
	.st10{fill:url(#SVGID_9_);}
	.st11{fill:url(#SVGID_10_);}
	.st12{fill:url(#SVGID_11_);}
	.st13{fill:url(#SVGID_12_);}
	.st14{fill:url(#SVGID_13_);}
	.st15{fill:url(#SVGID_14_);}
	.st16{fill:url(#SVGID_15_);}
	.st17{fill:url(#SVGID_16_);}
	.st18{fill:url(#SVGID_17_);}
	.st19{fill:url(#SVGID_18_);}
	.st20{fill:url(#SVGID_19_);}
	.st21{fill:url(#SVGID_20_);}
	.st22{fill:url(#SVGID_21_);}
	.st23{fill:url(#SVGID_22_);}
	.st24{fill:url(#SVGID_23_);}
	.st25{fill:url(#SVGID_24_);}
	.st26{fill:url(#SVGID_25_);}
	.st27{fill:url(#SVGID_26_);}
	.st28{fill:url(#SVGID_27_);}
	.st29{fill:#4FA6C5;}
	.st30{fill:url(#SVGID_28_);}
	.st31{fill:url(#SVGID_29_);}
	.st32{fill:url(#SVGID_30_);}
	.st33{fill:url(#SVGID_31_);}
	.st34{fill:url(#SVGID_32_);}
	.st35{fill:url(#SVGID_33_);}
	.st36{fill:url(#SVGID_34_);}
	.st37{fill:url(#SVGID_35_);}
	.st38{fill:url(#SVGID_36_);}
	.st39{fill:url(#SVGID_37_);}
	.st40{fill:url(#SVGID_38_);}
	.st41{fill:url(#SVGID_39_);}
	.st42{fill:url(#SVGID_40_);}
	.st43{fill:url(#SVGID_41_);}
	.st44{fill:url(#SVGID_42_);}
	.st45{fill:url(#SVGID_43_);}
	.st46{fill:url(#SVGID_44_);}
	.st47{fill:url(#SVGID_45_);}
	.st48{fill:url(#SVGID_46_);}
	.st49{fill:url(#SVGID_47_);}
	.st50{fill:url(#SVGID_48_);}
	.st51{fill:url(#SVGID_49_);}
	.st52{fill:#EA5877;}
	.st53{fill:url(#SVGID_50_);}
	.st54{fill:url(#SVGID_51_);}
	.st55{fill:url(#SVGID_52_);}
	.st56{fill:url(#SVGID_53_);}
	.st57{fill:url(#SVGID_54_);}
	.st58{fill:url(#SVGID_55_);}
	.st59{fill:url(#SVGID_56_);}
	.st60{fill:url(#SVGID_57_);}
	.st61{fill:url(#SVGID_58_);}
	.st62{fill:url(#SVGID_59_);}
	.st63{fill:url(#SVGID_60_);}
	.st64{fill:url(#SVGID_61_);}
	.st65{fill:url(#SVGID_62_);}
	.st66{fill:url(#SVGID_63_);}
	.st67{fill:url(#SVGID_64_);}
	.st68{fill:url(#SVGID_65_);}
	.st69{fill:url(#SVGID_66_);}
	.st70{fill:url(#SVGID_67_);}
	.st71{fill:url(#SVGID_68_);}
	.st72{fill:url(#SVGID_69_);}
	.st73{fill:url(#SVGID_70_);}
	.st74{fill:url(#SVGID_71_);}
	.st75{fill:url(#SVGID_72_);}
	.st76{fill:url(#SVGID_73_);}
	.st77{fill:url(#SVGID_74_);}
	.st78{fill:url(#SVGID_75_);}
	.st79{fill:url(#SVGID_76_);}
	.st80{fill:url(#SVGID_77_);}
	.st81{fill:url(#SVGID_78_);}
	.st82{fill:url(#SVGID_79_);}
	.st83{fill:url(#SVGID_80_);}
	.st84{fill:url(#SVGID_81_);}
	.st85{fill:url(#SVGID_82_);}
	.st86{fill:url(#SVGID_83_);}
	.st87{fill:url(#SVGID_84_);}
	.st88{fill:url(#SVGID_85_);}
	.st89{fill:url(#SVGID_86_);}
	.st90{fill:url(#SVGID_87_);}
	.st91{fill:url(#SVGID_88_);}
	.st92{fill:url(#SVGID_89_);}
	.st93{fill:url(#SVGID_90_);}
	.st94{fill:url(#SVGID_91_);}
	.st95{fill:url(#SVGID_92_);}
	.st96{fill:url(#SVGID_93_);}
	.st97{fill:url(#SVGID_94_);}
	.st98{fill:url(#SVGID_95_);}
	.st99{fill:url(#SVGID_96_);}
	.st100{fill:url(#SVGID_97_);}
	.st101{fill:url(#SVGID_98_);}
	.st102{fill:url(#SVGID_99_);}
	.st103{fill:url(#SVGID_100_);}
	.st104{fill:url(#SVGID_101_);}
	.st105{fill:url(#SVGID_102_);}
	.st106{fill:url(#SVGID_103_);}
	.st107{fill:url(#SVGID_104_);}
	.st108{fill:url(#SVGID_105_);}
	.st109{fill:url(#SVGID_106_);}
	.st110{fill:url(#SVGID_107_);}
	.st111{fill:url(#SVGID_108_);}
	.st112{fill:url(#SVGID_109_);}
	.st113{fill:url(#SVGID_110_);}
	.st114{fill:url(#SVGID_111_);}
	.st115{fill:url(#SVGID_112_);}
	.st116{fill:url(#SVGID_113_);}
	.st117{fill:url(#SVGID_114_);}
	.st118{fill:url(#SVGID_115_);}
	.st119{fill:url(#SVGID_116_);}
	.st120{fill:url(#SVGID_117_);}
	.st121{fill:url(#SVGID_118_);}
	.st122{fill:url(#SVGID_119_);}
	.st123{fill:url(#SVGID_120_);}
	.st124{fill:url(#SVGID_121_);}
	.st125{fill:url(#SVGID_122_);}
	.st126{fill:url(#SVGID_123_);}
	.st127{fill:url(#SVGID_124_);}
	.st128{fill:url(#SVGID_125_);}
	.st129{fill:url(#SVGID_126_);}
	.st130{fill:url(#SVGID_127_);}
	.st131{fill:url(#SVGID_128_);}
	.st132{fill:url(#SVGID_129_);}
	.st133{fill:url(#SVGID_130_);}
	.st134{fill:url(#SVGID_131_);}
	.st135{fill:url(#SVGID_132_);}
	.st136{fill:url(#SVGID_133_);}
	.st137{fill:url(#SVGID_134_);}
	.st138{fill:url(#SVGID_135_);}
	.st139{fill:url(#SVGID_136_);}
	.st140{fill:url(#SVGID_137_);}
	.st141{fill:url(#SVGID_138_);}
	.st142{fill:url(#SVGID_139_);}
</style>
<g id="FLOOR">
	<g>
		<path class="st0" d="M251.3,473c17,4.6-18.1,14.3-45.5,18.5c-27.4,4.3-47,0.7-34.3,6.3c9.3,4.1-9.4,13.5-36.9,14.9
			c-33.2,1.6-52.7-9.4-38.1-13.8c13.7-4.1,38-8.9,28.9-14.2s-11.5-12.3,21.6-14.4C180.1,468.3,241.5,470.4,251.3,473z"/>
		<ellipse class="st0" cx="50.2" cy="472.5" rx="18.9" ry="4.6"/>
	</g>
</g>
<g id="CLOUDS">
	<g>
		<linearGradient id="SVGID_1_" gradientUnits="userSpaceOnUse" x1="397.2431" y1="147.8871" x2="393.3379" y2="102.0005">
			<stop  offset="0" style="stop-color:#E0EDF3"/>
			<stop  offset="1" style="stop-color:#FAF1F1"/>
		</linearGradient>
		<path class="st1" d="M337.9,146.1l35.9-15.1c0,0-2.5-17.7,12.3-23.4s13,10.1,13,10.1s9.4-9.6,15.9-7.6s1.1,11.4,1.1,11.4
			s6.2-3.6,10.7-2.4s3.3,5.9,3.3,5.9s23.3-0.7,24.2,0.2C455.4,126.1,338.1,148.3,337.9,146.1z"/>
		<linearGradient id="SVGID_2_" gradientUnits="userSpaceOnUse" x1="534.2509" y1="260.0265" x2="531.1746" y2="223.8807">
			<stop  offset="0" style="stop-color:#E0EDF3"/>
			<stop  offset="1" style="stop-color:#FAF1F1"/>
		</linearGradient>
		<path class="st2" d="M487.5,258.7l28.3-11.9c0,0-2-14,9.7-18.5s10.3,7.9,10.3,7.9s7.4-7.6,12.6-6c5.1,1.5,0.9,9,0.9,9
			s4.9-2.8,8.4-1.9c3.5,0.9,2.6,4.7,2.6,4.7s18.3-0.6,19.1,0.2C580.1,242.9,487.7,260.3,487.5,258.7z"/>
		
			<linearGradient id="SVGID_3_" gradientUnits="userSpaceOnUse" x1="193.2751" y1="144.7331" x2="191.2726" y2="121.2038" gradientTransform="matrix(0.9936 -0.1128 0.1128 0.9936 -14.6107 23.7324)">
			<stop  offset="0" style="stop-color:#E0EDF3"/>
			<stop  offset="1" style="stop-color:#FAF1F1"/>
		</linearGradient>
		<path class="st3" d="M161.7,148.7l25.3-12.8c0,0-2-7.8,4.3-11.2c6.4-3.3,6.4,3.9,6.4,3.9s3.8-4.8,6.8-4.3c3,0.5,1.1,5.1,1.1,5.1
			s2.6-1.9,4.7-1.6c2.1,0.3,1.8,2.5,1.8,2.5s10.4-1.5,10.9-1.1C223.5,129.5,161.9,149.6,161.7,148.7z"/>
		
			<linearGradient id="SVGID_4_" gradientUnits="userSpaceOnUse" x1="525.5279" y1="175.6621" x2="523.5254" y2="152.1328" gradientTransform="matrix(0.9977 -6.820303e-002 6.820303e-002 0.9977 -7.2948 3.8346)">
			<stop  offset="0" style="stop-color:#E0EDF3"/>
			<stop  offset="1" style="stop-color:#FAF1F1"/>
		</linearGradient>
		<path class="st4" d="M496.9,144.7l25.9-11.7c0,0-1.7-7.9,4.8-11s6.2,4.2,6.2,4.2s4-4.6,7-3.9s0.9,5.1,0.9,5.1s2.7-1.8,4.7-1.4
			c2.1,0.4,1.7,2.6,1.7,2.6s10.5-1,11-0.6C559.4,128.3,497,145.7,496.9,144.7z"/>
		
			<linearGradient id="SVGID_5_" gradientUnits="userSpaceOnUse" x1="38.2043" y1="302.7142" x2="36.3285" y2="280.6732" gradientTransform="matrix(0.9936 -0.1128 0.1128 0.9936 -14.6107 23.7324)">
			<stop  offset="0" style="stop-color:#E0EDF3"/>
			<stop  offset="1" style="stop-color:#FAF1F1"/>
		</linearGradient>
		<path class="st5" d="M27.5,323l23.7-12c0,0-1.9-7.4,4.1-10.5s6,3.6,6,3.6s3.5-4.5,6.4-4c2.8,0.5,1,4.7,1,4.7s2.4-1.8,4.4-1.5
			c1.9,0.3,1.7,2.3,1.7,2.3s9.8-1.4,10.2-1.1C85.3,305,27.7,323.8,27.5,323z"/>
		<linearGradient id="SVGID_6_" gradientUnits="userSpaceOnUse" x1="122.204" y1="225.8581" x2="109.512" y2="180.9478">
			<stop  offset="0" style="stop-color:#E0EDF3"/>
			<stop  offset="1" style="stop-color:#FAF1F1"/>
		</linearGradient>
		<path class="st6" d="M69.6,240.9l24-18.7c0,0-4-4.4-2.1-9.2c2-4.9,7.2-2.9,7.2-2.9s-5.5-22.5,13.5-28.2s18.9,17.1,18.9,17.1
			s7-12.9,13.7-10.7c6.7,2.1,0.7,18.9,0.7,18.9s6.2-3.8,9.4-4c3.2-0.2,5.9,1.6,5.9,1.6l11.8-1.8L69.6,240.9z"/>
	</g>
</g>
<g id="ORNAMENT_1">
	<g>
		<g>
			<path class="st7" d="M307.3,137c0,0,0.8,2.8,2.8,4.9c1.6,1.7,4.2,2,4.2,2s-3,1.2-4.2,3c-1.1,1.7-1.6,5.1-1.6,5.1
				s-1.1-3.5-2.4-4.8c-1.2-1.3-4.3-2-4.3-2s2.9-1.5,4-3.2S307.3,137,307.3,137z"/>
			<path class="st7" d="M318.9,149.1c0,0,0.6,1.9,1.9,3.3c1.1,1.2,2.8,1.3,2.8,1.3s-2,0.8-2.9,2c-0.7,1.1-1.1,3.5-1.1,3.5
				s-0.8-2.4-1.6-3.3c-0.8-0.9-2.9-1.3-2.9-1.3s2-1,2.7-2.1C318.6,151.4,318.9,149.1,318.9,149.1z"/>
		</g>
		<g>
			<path class="st7" d="M88.7,306.9c0,0,0.9,3.2,3.1,5.5c1.8,2,4.7,2.2,4.7,2.2s-3.4,1.3-4.7,3.4c-1.2,1.9-1.8,5.7-1.8,5.7
				s-1.3-3.9-2.7-5.4c-1.4-1.5-4.8-2.2-4.8-2.2s3.3-1.6,4.5-3.6C88.3,310.7,88.7,306.9,88.7,306.9z"/>
		</g>
		<g>
			<path class="st7" d="M534.4,235.9c0,0,0.9,3.2,3.1,5.5c1.8,2,4.7,2.2,4.7,2.2s-3.4,1.3-4.7,3.4c-1.2,1.9-1.8,5.7-1.8,5.7
				s-1.3-3.9-2.7-5.4c-1.4-1.5-4.8-2.2-4.8-2.2s3.3-1.6,4.5-3.6C534,239.7,534.4,235.9,534.4,235.9z"/>
		</g>
		<g>
			<path class="st7" d="M419.6,457c0,0,0.9,3.2,3.1,5.5c1.8,2,4.7,2.2,4.7,2.2s-3.4,1.3-4.7,3.4c-1.2,1.9-1.8,5.7-1.8,5.7
				s-1.3-3.9-2.7-5.4c-1.4-1.5-4.8-2.2-4.8-2.2s3.3-1.6,4.5-3.6S419.6,457,419.6,457z"/>
		</g>
		<g>
			<path class="st7" d="M188.3,202.5c0,0-0.9-3.2-3.1-5.5c-1.8-2-4.7-2.2-4.7-2.2s3.4-1.3,4.7-3.4c1.2-1.9,1.8-5.7,1.8-5.7
				s1.3,3.9,2.7,5.4s4.8,2.2,4.8,2.2s-3.3,1.6-4.5,3.6C188.7,198.7,188.3,202.5,188.3,202.5z"/>
		</g>
	</g>
</g>
<g id="ORNAMENT_2">
	<g>
		<g>
			<path class="st0" d="M289.8,167.6c-0.3,1.7-1.9,3.1-3.6,3.1s-2.8-1.4-2.5-3.1c0.3-1.7,1.9-3.1,3.6-3.1S290.1,165.9,289.8,167.6z"
				/>
			<path class="st0" d="M294.6,171.6c-0.2,1-1.2,1.9-2.2,1.9s-1.7-0.8-1.5-1.9c0.2-1,1.2-1.9,2.2-1.9
				C294.1,169.7,294.7,170.6,294.6,171.6z"/>
		</g>
		<g>
			<path class="st0" d="M481.7,170.4c-0.4,2.3-2.5,4.1-4.7,4.1c-2.2,0-3.7-1.8-3.2-4.1c0.4-2.3,2.5-4.1,4.7-4.1
				C480.6,166.3,482.1,168.1,481.7,170.4z"/>
			<path class="st0" d="M487.9,175.6c-0.2,1.4-1.5,2.5-2.8,2.5c-1.3,0-2.2-1.1-1.9-2.5s1.5-2.5,2.8-2.5
				C487.2,173.2,488.1,174.3,487.9,175.6z"/>
		</g>
		<g>
			<path class="st0" d="M305.2,474.8c-0.3,1.7-1.9,3.1-3.6,3.1s-2.8-1.4-2.5-3.1c0.3-1.7,1.9-3.1,3.6-3.1S305.5,473.1,305.2,474.8z"
				/>
			<path class="st0" d="M310,478.8c-0.2,1-1.2,1.9-2.2,1.9s-1.7-0.8-1.5-1.9c0.2-1,1.2-1.9,2.2-1.9
				C309.5,476.9,310.2,477.8,310,478.8z"/>
		</g>
		<g>
			<path class="st0" d="M456.9,428c-0.3,1.7-1.9,3.1-3.6,3.1s-2.8-1.4-2.5-3.1s1.9-3.1,3.6-3.1C456.1,424.9,457.2,426.3,456.9,428z"
				/>
			<path class="st0" d="M471.5,443.1c-0.5,2.8-3.2,5.1-5.9,5.1c-2.7,0-4.6-2.3-4-5.1s3.2-5.1,5.9-5.1
				C470.2,438,472,440.3,471.5,443.1z"/>
			<path class="st0" d="M448.6,443c-0.2,1-1.2,1.9-2.2,1.9s-1.7-0.8-1.5-1.9c0.2-1,1.2-1.9,2.2-1.9C448.1,441.2,448.8,442,448.6,443
				z"/>
		</g>
		<g>
			<path class="st0" d="M112.5,293.2c-0.3,1.8-2,3.3-3.8,3.3s-3.1-1.5-2.8-3.3s2-3.3,3.8-3.3S112.8,291.4,112.5,293.2z"/>
			<path class="st0" d="M107.1,286.2c-0.1,0.9-1,1.6-1.9,1.6s-1.5-0.7-1.4-1.6c0.1-0.9,1-1.6,1.9-1.6S107.2,285.3,107.1,286.2z"/>
		</g>
	</g>
</g>
<g id="MAP">
	<g>
		<linearGradient id="SVGID_7_" gradientUnits="userSpaceOnUse" x1="420.8019" y1="204.3364" x2="392.4888" y2="512.8521">
			<stop  offset="0" style="stop-color:#E0EDF3"/>
			<stop  offset="1" style="stop-color:#54A4C1"/>
		</linearGradient>
		<path class="st8" d="M535.2,180.3l-35.5,89c0,0.1,0,0.1-0.1,0.1l-24.7,61.9l-8.4,21l-1.9,4.7l-7.2,18.1l-1.6,3.9l-0.6,1.4
			l-18.3,45.9l-17.8,3.9l-133.8,29.3l57.7-138.7l3.3-8l4.8-11.6l1.7-4.1l6.7-16.1l1.7-4l24.3-58.4l21-5.4c0.1,0,0.2-0.1,0.4-0.1
			l14.3-3.7L535.2,180.3z"/>
		<g>
			<linearGradient id="SVGID_8_" gradientUnits="userSpaceOnUse" x1="474.3604" y1="212.1218" x2="459.6003" y2="372.9558">
				<stop  offset="0" style="stop-color:#E0EDF3"/>
				<stop  offset="1" style="stop-color:#54A4C1"/>
			</linearGradient>
			<path class="st9" d="M535.2,180.3l-35.5,89c0,0.1,0,0.1-0.1,0.1l-15.2,38l-9.5,23.9c-20.4,2-39.6-5.7-25.9-36.4
				c16.8-37.9,24.6-57.5-16.1-56.1c-23.1,0.8-19.5-15.2-11.7-29.1l22.6-5.8L535.2,180.3z"/>
			<linearGradient id="SVGID_9_" gradientUnits="userSpaceOnUse" x1="487.5884" y1="202.9022" x2="475.2428" y2="337.4266">
				<stop  offset="0" style="stop-color:#E0EDF3"/>
				<stop  offset="1" style="stop-color:#54A4C1"/>
			</linearGradient>
			<path class="st10" d="M535.2,180.3l-35.5,89c0,0.1,0,0.1-0.1,0.1l-15.2,38c-12.6-4.5-9.6-20.3,0.4-44
				c11.8-28.3-2.6-42.2-29.4-40.2c-17.9,1.4-15.3-11.1-11.6-19.5L535.2,180.3z"/>
			<linearGradient id="SVGID_10_" gradientUnits="userSpaceOnUse" x1="467.1328" y1="245.485" x2="344.0645" y2="431.3748">
				<stop  offset="0" style="stop-color:#E0EDF3"/>
				<stop  offset="1" style="stop-color:#54A4C1"/>
			</linearGradient>
			<path class="st11" d="M419,430.3l-12.3,2.7l-121.5,26.6l50.6-121.7l7.1-17c13.6-2.2,35.7-5.2,27,15.4
				c-13.9,33-21.1,36.3,9.3,29.6c30.4-6.7,31.2,17.2,14.2,33.1c-17,16,27.5,3.9,28,17.8C421.6,421.3,420.5,426,419,430.3z"/>
			<linearGradient id="SVGID_11_" gradientUnits="userSpaceOnUse" x1="406.7036" y1="341.6885" x2="325.8595" y2="441.585">
				<stop  offset="0" style="stop-color:#E0EDF3"/>
				<stop  offset="1" style="stop-color:#54A4C1"/>
			</linearGradient>
			<path class="st12" d="M406.7,433l-54.9,12l-66.7,14.6l35.3-84.8l15.4-36.9c4.5-0.4,8.5,0.6,10.2,4.5c5.1,11.8-18.4,30.2-2.4,38.4
				c16,8.2,44.3,6.7,30.9,23.2c-13.4,16.5,14.4,13.3,23.7,13.6C404.7,417.8,409.3,424.9,406.7,433z"/>
			<linearGradient id="SVGID_12_" gradientUnits="userSpaceOnUse" x1="410.9121" y1="364.0027" x2="284.5826" y2="441.5856">
				<stop  offset="0" style="stop-color:#E0EDF3"/>
				<stop  offset="1" style="stop-color:#54A4C1"/>
			</linearGradient>
			<path class="st13" d="M354.7,440.8c-1.3,1.6-2.2,3-2.8,4.2l-66.7,14.6l35.3-84.8c2.5,0.5,4.5,1.8,5.6,4.4
				c5.1,11.8-18.4,30.2-2.4,38.4S368,424.3,354.7,440.8z"/>
		</g>
		<linearGradient id="SVGID_13_" gradientUnits="userSpaceOnUse" x1="549.1403" y1="215.029" x2="268.6349" y2="311.8268">
			<stop  offset="0" style="stop-color:#ECF8FE"/>
			<stop  offset="0.1365" style="stop-color:#E6F3FA"/>
			<stop  offset="0.3184" style="stop-color:#D5E9F3"/>
			<stop  offset="0.5259" style="stop-color:#B9DAEA"/>
			<stop  offset="0.7523" style="stop-color:#92C7DF"/>
			<stop  offset="0.9916" style="stop-color:#5DB2D1"/>
			<stop  offset="1" style="stop-color:#5BB2D1"/>
		</linearGradient>
		<path class="st14" d="M535.2,180.3l-35.5,89c0,0,0,0.1-0.1,0.1c-4,9.7-6.8,16.4-7.2,17.2c0.8-3,28.6-96.8,28.6-96.8
			S396.4,216.3,392.8,217c0.7-0.2,5.8-1.5,13.7-3.6c0.1,0,0.2-0.1,0.4-0.1L535.2,180.3z"/>
		<linearGradient id="SVGID_14_" gradientUnits="userSpaceOnUse" x1="376.6404" y1="86.5347" x2="257.5326" y2="419.4508">
			<stop  offset="0" style="stop-color:#E0EDF3"/>
			<stop  offset="1" style="stop-color:#54A4C1"/>
		</linearGradient>
		<polygon class="st15" points="385.5,218.7 346.3,312.9 336.2,337 285.2,459.6 204.5,410.8 211.9,392.6 244.2,313.4 279.5,227 
			296.9,184.3 372.9,213.9 		"/>
		<linearGradient id="SVGID_15_" gradientUnits="userSpaceOnUse" x1="264.7487" y1="276.0869" x2="275.7339" y2="466.9544">
			<stop  offset="0" style="stop-color:#E0EDF3"/>
			<stop  offset="1" style="stop-color:#2F8BAE"/>
		</linearGradient>
		<path class="st16" d="M336.2,337l-16,38.4h0l-35,84.1l-70.1-42.4l-10.6-6.4l7.4-18.1c8.7,1.6,17.3,0.3,18.5-9.7
			c2.6-21.1,16.5-14.4,39.1-2.1c22.7,12.4,42.5-26,50.2-37.1C325.5,335.5,332.9,336.2,336.2,337z"/>
		<linearGradient id="SVGID_16_" gradientUnits="userSpaceOnUse" x1="265.9124" y1="230.5884" x2="267.9721" y2="422.1425">
			<stop  offset="0" style="stop-color:#E0EDF3"/>
			<stop  offset="1" style="stop-color:#2F8BAE"/>
		</linearGradient>
		<path class="st17" d="M320.2,375.4l-35,84.1l-70.1-42.4c0.7-5.3,3.8-10.3,13.9-7c18.8,6.2,19.1,3.1,25.7-6.4
			c6.7-9.5,21.1-1,33,3.9C299.6,412.5,310.7,377,320.2,375.4z"/>
		<linearGradient id="SVGID_17_" gradientUnits="userSpaceOnUse" x1="339.3541" y1="171.194" x2="305.712" y2="297.5236">
			<stop  offset="0" style="stop-color:#E0EDF3"/>
			<stop  offset="1" style="stop-color:#54A4C1"/>
		</linearGradient>
		<path class="st18" d="M372.9,213.9c-1.8,10.2-9.5,13.6-21.7,13.9c-13,0.4-9.6,18.9-24,41.5c-14.4,22.7-29.2-12.4-22.7-27.8
			s-0.3-26.4-16.1-17.2c-3.7,2.2-6.6,2.9-8.9,2.7l7.4-18l10.1-24.7l65.5,25.5L372.9,213.9z"/>
		<linearGradient id="SVGID_18_" gradientUnits="userSpaceOnUse" x1="339.2127" y1="168.6474" x2="310.1998" y2="249.7409">
			<stop  offset="0" style="stop-color:#E0EDF3"/>
			<stop  offset="1" style="stop-color:#54A4C1"/>
		</linearGradient>
		<path class="st19" d="M362.4,209.8c-1.9,3.2-5.6,6.8-12.6,6c-12.1-1.3-14.2,10.6-19.6,27.5s-13.6,20.1-15.2,12.9
			c-1.5-7.2,4.9-25.2,5.7-33.5c0.8-8.2-6.7-19.6-20.1-15.2c-6.1,2-10.7,2-13.8,1.4l10.1-24.7L362.4,209.8z"/>
		<linearGradient id="SVGID_19_" gradientUnits="userSpaceOnUse" x1="211.8109" y1="200.2981" x2="171.4563" y2="458.6979">
			<stop  offset="0" style="stop-color:#E0EDF3"/>
			<stop  offset="1" style="stop-color:#54A4C1"/>
		</linearGradient>
		<polygon class="st20" points="296.9,184.3 276,235.7 268.6,253.8 244.2,313.4 204.5,410.8 186.2,416.6 90.6,447.2 123.3,353.2 
			132.2,327.9 139.9,305.6 145.6,289.4 152,271 164.2,235.9 252.4,201.6 		"/>
		<linearGradient id="SVGID_20_" gradientUnits="userSpaceOnUse" x1="204.1538" y1="206.1407" x2="187.5253" y2="312.6165">
			<stop  offset="0" style="stop-color:#E0EDF3"/>
			<stop  offset="1" style="stop-color:#54A4C1"/>
		</linearGradient>
		<path class="st21" d="M250.6,216.1c-6.2,15.8-19.9,17.2-39.8,22.7c-19.9,5.5-23,11.8-22.7,24.4c0.3,14.4-12.7,23.3-24,22.3
			c-11.3-1-7.2,13.4-18.5,19.2c-1.9,1-3.8,1.2-5.7,1l5.7-16.2L152,271l0.4-1.2l11.8-33.9l74.2-28.9l14.1-5.5
			C252.9,206.2,252.5,211.2,250.6,216.1z"/>
		<linearGradient id="SVGID_21_" gradientUnits="userSpaceOnUse" x1="200.0023" y1="208.6668" x2="189.5935" y2="275.3162">
			<stop  offset="0" style="stop-color:#E0EDF3"/>
			<stop  offset="1" style="stop-color:#54A4C1"/>
		</linearGradient>
		<path class="st22" d="M238.3,207.1c-7.2,9.6-19.5,11.3-36.1,15.8c-19.9,5.5-23,11.8-22.7,24.4c0.3,14.4-12.7,23.3-24,22.3
			c-1.2-0.1-2.3,0-3.2,0.2l11.8-33.9L238.3,207.1z"/>
		<linearGradient id="SVGID_22_" gradientUnits="userSpaceOnUse" x1="208.8192" y1="278.6808" x2="137.4155" y2="413.2492">
			<stop  offset="0" style="stop-color:#E0EDF3"/>
			<stop  offset="1" style="stop-color:#54A4C1"/>
		</linearGradient>
		<path class="st23" d="M186.2,416.6l-39.3,12.6l-56.3,18l30.9-88.8l1.8-5.1l8.8-25.4c6.1,1.4,11.5,4.8,9.3,13.1
			c-4.5,16.8,0,26.4,11.7,25.7c11.7-0.7,21.3,7.6,13.4,19.2c-7.9,11.7-5.8,18.5,6.5,16.1C182.7,400.3,186.9,408.9,186.2,416.6z"/>
		<linearGradient id="SVGID_23_" gradientUnits="userSpaceOnUse" x1="189.2706" y1="299.2875" x2="106.8818" y2="440.7217">
			<stop  offset="0" style="stop-color:#E0EDF3"/>
			<stop  offset="1" style="stop-color:#54A4C1"/>
		</linearGradient>
		<path class="st24" d="M150.1,414.1c-4.9,7.2-6,12.6-3.2,15.1l-56.3,18l30.9-88.8c3.1,2.1,4.9,5.4,3.4,10.8
			c-4.5,16.8,0,26.4,11.7,25.7C148.3,394.2,158,402.5,150.1,414.1z"/>
		<linearGradient id="SVGID_24_" gradientUnits="userSpaceOnUse" x1="301.8002" y1="179.2514" x2="139.3813" y2="418.1027">
			<stop  offset="0" style="stop-color:#D1E9F2"/>
			<stop  offset="1" style="stop-color:#41A0C0"/>
		</linearGradient>
		<path class="st25" d="M244.2,313.5l-39.7,97.3L90.6,447.2l32.7-94C186.5,353.3,243.3,314.1,244.2,313.5z"/>
		<linearGradient id="SVGID_25_" gradientUnits="userSpaceOnUse" x1="327.267" y1="232.7762" x2="258.3526" y2="519.6985">
			<stop  offset="0.1179" style="stop-color:#875A84"/>
			<stop  offset="1" style="stop-color:#343977"/>
		</linearGradient>
		<path class="st26" d="M440.9,353.2c-5-1.5-8.4-4.9-10.6-10.5c-4-10.2-2.1-23.6,1.8-30.3c0.8-1.4,2-3.3,3.3-5.4
			c14.3-22.7,32.4-56.4,25.4-70.4c-4.4-8.7-7.7-10.9-14.9-13.4c-7.4-2.6-18.5-0.9-28.7,10.3c-6.1,6.8-19.9,34.3-35.8,39.7
			c-7.2,2.4-12.6,3.5-20.3,3.9c0,0,0,0,0,0c-0.2,0-0.5,0-0.7,0c-8.6,0.4-19.3,1-33.9,5.5c-14.9,4.5-31.9,20.4-28.2,70.2
			c0.8,11.2-0.9,25-6.7,30.6c-1.5,1.4-4.1,3.2-9.7,2.6c-4.1-0.5-6.8-2.2-8.7-5.7c-6.9-12.9-0.8-42.5,9.3-62
			c12.1-23.5,15.6-49.5,8.9-66.2c-3.2-7.9-8.5-13.5-15.4-16.5c-0.7-0.3-1.4-0.6-2.1-0.8c-24.4-8.2-50.4,4.8-66.6,30.7
			c-8.5,13.6-11.8,25.4-14.4,36.1c-1.3,5.1-3.7,19.7-8,20c-5.7,0.3-6.9-8-8.5-15.3c-1.2-5.5-2.4-12.9-5.2-17.9
			c-5.5-10-14.4-12.3-20.9-12.1l-3.9,10.5c15.7-0.3,14.7,8.2,17.4,20c2.7,11.4,4,26.9,15.6,28.3c18.7,2.2,24.1-14.9,27.5-28.5
			c2.4-9.9,6.7-23.4,13.6-34.3c12.9-20.6,32.5-26.4,48.2-18.6c1.3,0.6,3.2,2,4.7,5.7c4.6,11.3,1.2,31.8-8.1,49.9
			c-10.3,19.9-21.2,57.7-9.2,80.1c4.9,9.2,13.1,14.7,23.7,15.9c1.5,0.2,2.9,0.2,4.3,0.2c8.3,0,15.5-2.8,21.1-8.2
			c13.9-13.4,13.2-38.7,12.7-46.1c-2.1-28.4,3.2-46.7,14.5-50.1c8.2-2.5,14.6-3.5,20.5-4.1c0,0,0.1,0,0.1,0c3-0.3,5.8-0.4,8.7-0.6
			c9-0.5,17.5-0.9,28-5.6c9.3-4.2,15.9-14.1,22.8-24.7c11.3-17.2,18.6-32.1,26.5-29.9c12.3,3.5,5,17.9-1.6,32.4
			c-4.7,10.1-13.4,20.3-18.1,27.8c-1.4,2.2-2.6,4.1-3.6,5.7c-6.6,10.9-9.8,30.7-3.3,47.4c4.4,11.3,12.5,19,23.3,22.2
			c8.9,2.6,16.2,3.4,21.9,3.2l9.1-22.8C465.3,352.7,456.3,357.8,440.9,353.2z"/>
		<linearGradient id="SVGID_26_" gradientUnits="userSpaceOnUse" x1="334.9684" y1="171.0641" x2="297.8934" y2="345.1105">
			<stop  offset="0.1179" style="stop-color:#755884"/>
			<stop  offset="1" style="stop-color:#343977"/>
		</linearGradient>
		<path class="st27" d="M361.1,277.1l-8.4,20.1c-5.9,0.5-12.4,1.6-20.5,4.1c-11.3,3.4-16.6,21.7-14.5,50.1
			c0.5,7.4,1.3,32.7-12.7,46.1c-5.6,5.4-12.8,8.2-21.1,8.2c-1.4,0-2.9-0.1-4.3-0.2c-10.6-1.2-18.8-6.7-23.7-15.9
			c-12-22.5-1.1-60.2,9.2-80.1c9.4-18.1,12.7-38.6,8.1-49.9c-1.5-3.7-3.5-5.1-4.7-5.7l7.4-18.1c7,3,12.3,8.6,15.4,16.5
			c6.8,16.7,3.3,42.7-8.9,66.2c-10.1,19.5-16.2,49.1-9.3,62c1.9,3.5,4.5,5.3,8.7,5.7c5.6,0.6,8.2-1.2,9.7-2.6
			c5.8-5.6,7.6-19.4,6.7-30.6c-3.7-49.8,13.3-65.7,28.2-70.2c14.6-4.5,25.3-5,33.9-5.5C360.7,277.2,360.9,277.1,361.1,277.1z"/>
		<linearGradient id="SVGID_27_" gradientUnits="userSpaceOnUse" x1="411.8379" y1="361.5854" x2="377.3376" y2="297.9915">
			<stop  offset="0" style="stop-color:#E0EDF3"/>
			<stop  offset="1" style="stop-color:#54A4C1"/>
		</linearGradient>
		<path class="st28" d="M441.1,386l-12.5-6.6l-0.2,5c-3.6-0.9-15.9-3.6-24.8-16.9c-10.7-15.9-5.7-42.7-5.7-42.7l-0.9,2.5
			c0,0-6.5,28,4.2,43.9c8.9,13.3,23.1,18,27,19l-0.2,5.4L441.1,386z"/>
		<g>
			<path class="st29" d="M170.7,242.8l-6.3,20.5c-0.3,0.8,0.5,1.6,1.4,1.4l30.3-7.8c0.4-0.1,0.7-0.4,0.8-0.8l6.5-23.7
				c0.2-0.9-0.6-1.7-1.5-1.3l-30.4,11C171,242.2,170.8,242.5,170.7,242.8z"/>
			<linearGradient id="SVGID_28_" gradientUnits="userSpaceOnUse" x1="162.1546" y1="246.4857" x2="202.1806" y2="246.4857">
				<stop  offset="0" style="stop-color:#E0EDF3"/>
				<stop  offset="1" style="stop-color:#FAF1F1"/>
			</linearGradient>
			<polygon class="st30" points="169.2,241 162.2,263.9 195,255.5 202.2,229 			"/>
			
				<linearGradient id="SVGID_29_" gradientUnits="userSpaceOnUse" x1="194.4055" y1="215.7479" x2="179.9875" y2="260.8044" gradientTransform="matrix(0.9975 7.107598e-002 -7.107598e-002 0.9975 17.1202 -13.2701)">
				<stop  offset="0" style="stop-color:#E0EDF3"/>
				<stop  offset="1" style="stop-color:#54A4C1"/>
			</linearGradient>
			<path class="st31" d="M172.5,248c-0.1,0-0.2-0.1-0.3-0.2c-0.2-0.2-0.2-0.5,0-0.7c0.2-0.2,4.1-3.9,5.9-4.7
				c1.2-0.5,2.4,0.3,3.4,1.1c0.8,0.5,1.5,1.1,2.1,1c0.6-0.2,1.6-1.1,2.5-2.1c1.5-1.5,3-3.1,4.6-3.1c1.8-0.1,3.2,1.2,4.1,2.1
				c0.3,0.3,0.6,0.6,0.8,0.6c0.3,0.1,0.4,0.4,0.3,0.6c-0.1,0.3-0.3,0.4-0.6,0.3c-0.3-0.1-0.7-0.4-1.2-0.9c-0.9-0.8-2-1.9-3.4-1.9
				c-1.1,0-2.6,1.5-3.9,2.8c-1.1,1.1-2.1,2.1-2.9,2.3c-1,0.3-2-0.4-3-1.1c-0.9-0.6-1.7-1.3-2.4-1c-1.7,0.7-5.6,4.4-5.6,4.5
				C172.8,248,172.6,248,172.5,248z"/>
			
				<linearGradient id="SVGID_30_" gradientUnits="userSpaceOnUse" x1="193.4946" y1="216.1252" x2="179.0765" y2="261.1816" gradientTransform="matrix(0.9991 4.312951e-002 -4.312951e-002 0.9991 10.6303 -8.0526)">
				<stop  offset="0" style="stop-color:#E0EDF3"/>
				<stop  offset="1" style="stop-color:#54A4C1"/>
			</linearGradient>
			<path class="st32" d="M169.5,257c-0.1,0-0.2-0.1-0.3-0.1c-0.2-0.2-0.2-0.5,0-0.7c0.2-0.2,4-4,5.8-4.8c1.2-0.6,2.4,0.2,3.4,1
				c0.8,0.5,1.6,1.1,2.1,0.9c0.6-0.2,1.5-1.2,2.4-2.1c1.5-1.6,3-3.2,4.5-3.3c1.8-0.1,3.2,1.2,4.2,2c0.3,0.2,0.7,0.6,0.8,0.6
				c0.3,0.1,0.4,0.3,0.3,0.6c-0.1,0.3-0.3,0.4-0.6,0.3c-0.3-0.1-0.7-0.4-1.2-0.8c-0.9-0.8-2.1-1.9-3.5-1.8c-1.1,0.1-2.6,1.6-3.8,3
				c-1.1,1.1-2,2.1-2.8,2.4c-1,0.3-2-0.4-3-1c-0.9-0.6-1.8-1.2-2.4-0.9c-1.7,0.8-5.5,4.6-5.5,4.6C169.7,256.9,169.6,257,169.5,257z"
				/>
		</g>
		<g>
			<path class="st29" d="M356.5,325.4l-7.8,20c-0.5,1.3,0.6,2.6,1.9,2.4l30.8-5c0.6-0.1,1.2-0.6,1.4-1.2l6.9-20.8
				c0.4-1.3-0.7-2.6-2-2.3l-29.9,5.8C357.2,324.4,356.7,324.8,356.5,325.4z"/>
			<linearGradient id="SVGID_31_" gradientUnits="userSpaceOnUse" x1="346.2842" y1="330.8854" x2="389.3673" y2="330.8854">
				<stop  offset="0" style="stop-color:#E0EDF3"/>
				<stop  offset="1" style="stop-color:#FAF1F1"/>
			</linearGradient>
			<polygon class="st33" points="355.5,322.3 346.3,346.1 381.2,340.4 389.4,315.7 			"/>
			<linearGradient id="SVGID_32_" gradientUnits="userSpaceOnUse" x1="370.9406" y1="308.9005" x2="366.7913" y2="344.2917">
				<stop  offset="0" style="stop-color:#E0EDF3"/>
				<stop  offset="1" style="stop-color:#54A4C1"/>
			</linearGradient>
			<path class="st34" d="M356.9,331.5c-0.1,0-0.2-0.1-0.3-0.2c-0.2-0.2-0.1-0.5,0.1-0.7c0.2-0.1,4.3-3.6,6.2-4.3
				c1.2-0.5,2.3,0.5,3.3,1.3c0.7,0.6,1.5,1.2,2.1,1.1c0.6-0.1,1.6-1,2.6-1.9c1.6-1.4,3.2-2.9,4.7-2.9c1.8,0,3.1,1.4,4,2.4
				c0.3,0.3,0.6,0.6,0.7,0.7c0.2,0.1,0.4,0.4,0.3,0.6c-0.1,0.2-0.4,0.4-0.6,0.3c-0.3-0.1-0.7-0.5-1.1-0.9c-0.8-0.9-1.9-2-3.3-2.1
				c-1.1,0-2.7,1.4-4.1,2.6c-1.2,1-2.2,2-3,2.1c-1,0.2-2-0.5-2.9-1.3c-0.8-0.7-1.6-1.4-2.4-1.1c-1.8,0.6-5.9,4.1-5.9,4.1
				C357.2,331.5,357.1,331.5,356.9,331.5z"/>
			<linearGradient id="SVGID_33_" gradientUnits="userSpaceOnUse" x1="369.2847" y1="308.7063" x2="365.1354" y2="344.0976">
				<stop  offset="0" style="stop-color:#E0EDF3"/>
				<stop  offset="1" style="stop-color:#54A4C1"/>
			</linearGradient>
			<path class="st35" d="M354.3,339.5c-0.1,0-0.2-0.1-0.3-0.2c-0.2-0.2-0.1-0.5,0.1-0.7c0.2-0.1,4.3-3.6,6.2-4.3
				c1.2-0.5,2.3,0.5,3.3,1.3c0.7,0.6,1.5,1.2,2.1,1.1c0.6-0.1,1.6-1,2.6-1.9c1.6-1.4,3.2-2.9,4.7-2.9c1.8,0,3.1,1.4,4,2.4
				c0.3,0.3,0.6,0.6,0.7,0.7c0.2,0.1,0.4,0.4,0.3,0.6c-0.1,0.2-0.4,0.4-0.6,0.3c-0.3-0.1-0.7-0.5-1.1-0.9c-0.8-0.9-1.9-2-3.3-2.1
				c-1.1,0-2.7,1.4-4.1,2.6c-1.2,1-2.2,2-3,2.1c-1,0.2-2-0.5-2.9-1.3c-0.8-0.7-1.6-1.4-2.4-1.1c-1.7,0.6-5.9,4.1-5.9,4.1
				C354.6,339.5,354.5,339.5,354.3,339.5z"/>
		</g>
		<g>
			<path class="st29" d="M301.1,202.4l-8.3,22.3c-0.6,1.5,0.2,3.2,1.7,3.7l35.9,13.5c1.5,0.6,3.2-0.2,3.7-1.7l7.7-21.8
				c0.5-1.5-0.2-3.1-1.7-3.7l-35.3-14C303.4,200.1,301.7,200.8,301.1,202.4z"/>
			<linearGradient id="SVGID_34_" gradientUnits="userSpaceOnUse" x1="292.1978" y1="218.6419" x2="342.1524" y2="218.6419">
				<stop  offset="0" style="stop-color:#E0EDF3"/>
				<stop  offset="1" style="stop-color:#FAF1F1"/>
			</linearGradient>
			<polygon class="st36" points="302.3,197.4 292.2,224.6 332.8,239.9 342.2,213.2 			"/>
			<linearGradient id="SVGID_35_" gradientUnits="userSpaceOnUse" x1="329.0346" y1="196.623" x2="313.6577" y2="230.0616">
				<stop  offset="0" style="stop-color:#E0EDF3"/>
				<stop  offset="1" style="stop-color:#54A4C1"/>
			</linearGradient>
			<path class="st37" d="M332.8,224.5c-0.3,0-0.5-0.2-0.5-0.5c-0.1-1.6-0.7-5.9-2.4-6.8c-1-0.5-3.1,0.1-5.1,0.8
				c-2.2,0.7-4.4,1.4-6,1c-1.4-0.4-2.3-2.1-3.3-3.9c-0.9-1.7-1.8-3.4-3-3.8c-1.8-0.6-5.8,1.5-7.2,2.4c-0.2,0.1-0.5,0.1-0.7-0.2
				c-0.1-0.2-0.1-0.5,0.2-0.7c0.6-0.3,5.6-3.4,8.1-2.5c1.6,0.5,2.6,2.4,3.5,4.3c0.8,1.6,1.6,3.2,2.7,3.4c1.4,0.4,3.5-0.3,5.5-1
				c2.3-0.8,4.5-1.5,5.9-0.7c2.6,1.3,2.9,7,3,7.7C333.3,224.2,333.1,224.5,332.8,224.5C332.8,224.5,332.8,224.5,332.8,224.5z"/>
			<linearGradient id="SVGID_36_" gradientUnits="userSpaceOnUse" x1="328.6422" y1="196.4425" x2="313.2653" y2="229.8812">
				<stop  offset="0" style="stop-color:#E0EDF3"/>
				<stop  offset="1" style="stop-color:#54A4C1"/>
			</linearGradient>
			<path class="st38" d="M328.9,232c-0.3,0-0.5-0.2-0.5-0.5c-0.1-1.6-0.7-5.9-2.4-6.8c-1-0.5-3.1,0.1-5.1,0.8c-2.2,0.7-4.4,1.4-6,1
				c-1.4-0.4-2.3-2.1-3.3-3.9c-0.9-1.7-1.8-3.4-3-3.8c-1.8-0.6-5.8,1.5-7.2,2.4c-0.2,0.1-0.5,0.1-0.7-0.2s-0.1-0.5,0.2-0.7
				c0.6-0.3,5.6-3.4,8.1-2.5c1.6,0.5,2.6,2.4,3.5,4.3c0.8,1.6,1.6,3.2,2.7,3.4c1.4,0.4,3.5-0.3,5.5-1c2.3-0.8,4.5-1.5,5.9-0.7
				c2.6,1.3,2.9,7,3,7.7C329.4,231.8,329.2,232,328.9,232C328.9,232,328.9,232,328.9,232z"/>
		</g>
		<g>
			<linearGradient id="SVGID_37_" gradientUnits="userSpaceOnUse" x1="397.6992" y1="224.2618" x2="328.8694" y2="447.3487">
				<stop  offset="0" style="stop-color:#D6E3E8"/>
				<stop  offset="1" style="stop-color:#4D9AB6"/>
			</linearGradient>
			<path class="st39" d="M353.2,384.3c-0.7,2.7-3.4,4.9-6.1,4.9c-2.7,0-4.3-2.2-3.7-4.9c0.7-2.7,3.4-4.9,6.1-4.9
				C352.2,379.4,353.9,381.6,353.2,384.3z"/>
			<linearGradient id="SVGID_38_" gradientUnits="userSpaceOnUse" x1="355.7286" y1="207.8517" x2="286.8987" y2="430.9387">
				<stop  offset="0" style="stop-color:#E0EDF3"/>
				<stop  offset="1" style="stop-color:#54A4C1"/>
			</linearGradient>
			<path class="st40" d="M335.2,258.7c0.7,2.7,3.4,4.9,6.1,4.9s4.3-2.2,3.7-4.9c-0.7-2.7-3.4-4.9-6.1-4.9S334.5,256,335.2,258.7z"/>
			<linearGradient id="SVGID_39_" gradientUnits="userSpaceOnUse" x1="480.7401" y1="249.8827" x2="411.9102" y2="472.9697">
				<stop  offset="0" style="stop-color:#E0EDF3"/>
				<stop  offset="1" style="stop-color:#54A4C1"/>
			</linearGradient>
			<path class="st41" d="M487.3,244.3c-0.7,2.7-3.4,4.9-6.1,4.9c-2.7,0-4.3-2.2-3.7-4.9c0.7-2.7,3.4-4.9,6.1-4.9
				C486.3,239.5,488,241.6,487.3,244.3z"/>
			<linearGradient id="SVGID_40_" gradientUnits="userSpaceOnUse" x1="266.9185" y1="183.9115" x2="198.0886" y2="406.9984">
				<stop  offset="0" style="stop-color:#D6E3E8"/>
				<stop  offset="1" style="stop-color:#4D9AB6"/>
			</linearGradient>
			<path class="st42" d="M238.2,292.7c-0.7,2.7-3.4,4.9-6.1,4.9c-2.7,0-4.3-2.2-3.7-4.9c0.7-2.7,3.4-4.9,6.1-4.9
				C237.2,287.8,238.9,290,238.2,292.7z"/>
		</g>
	</g>
</g>
<g id="FLAG">
	<g>
		<linearGradient id="SVGID_41_" gradientUnits="userSpaceOnUse" x1="520.6805" y1="337.0971" x2="524.9916" y2="257.7023">
			<stop  offset="3.076923e-002" style="stop-color:#F7923A"/>
			<stop  offset="0.8769" style="stop-color:#FFD65B"/>
		</linearGradient>
		<path class="st43" d="M548.1,279.3c-0.5,8-0.4,18.5-0.2,25.4c0.1,4.2,0.2,7,0.2,7s-9.2,6-17.4,1.7c-5.6-3-6.5-7.4-9.5-10.9
			c-1.4-1.6-3.2-3-6.1-4c-7.4-2.5-15.4,5.1-15.4,5.1l-0.4-28.4l-0.3-19.6c0,0,10-8.4,21.9-6.4c0.5,0.1,1,0.2,1.5,0.3
			c3.4,0.9,5.5,2.5,7.1,4.4c3.1,3.8,3.1,7.7,8.1,9.4c7.8,2.7,13.4-3.5,13.8-4C551,259.8,548.9,266.8,548.1,279.3z"/>
		<linearGradient id="SVGID_42_" gradientUnits="userSpaceOnUse" x1="511.4642" y1="317.8599" x2="509.668" y2="258.9425">
			<stop  offset="3.076923e-002" style="stop-color:#F7923A"/>
			<stop  offset="0.8769" style="stop-color:#FFD65B"/>
		</linearGradient>
		<path class="st44" d="M521.7,277l-0.5,25.5c-1.4-1.6-3.2-3-6.1-4c-7.4-2.5-15.4,5.1-15.4,5.1L499,268c3.7,2.8,6.9,2.9,10.8,2.9
			C517.8,270.8,521.7,277,521.7,277z"/>
		<linearGradient id="SVGID_43_" gradientUnits="userSpaceOnUse" x1="511.5305" y1="306.1029" x2="552.8445" y2="261.5556">
			<stop  offset="3.076923e-002" style="stop-color:#F7923A"/>
			<stop  offset="0.8769" style="stop-color:#FFD65B"/>
		</linearGradient>
		<path class="st45" d="M548.1,311.7c0,0-9.2,6-17.4,1.7c-5.6-3-6.5-7.4-9.5-10.9l1.1-53c3.4,0.9,5.5,2.5,7.1,4.4
			c-1.1,7.3-4.1,23.3-0.5,34.1c3.1,9.1,12.6,14.1,19.1,16.6C548,308.9,548.1,311.7,548.1,311.7z"/>
		<g>
			<linearGradient id="SVGID_44_" gradientUnits="userSpaceOnUse" x1="486.1283" y1="316.6747" x2="498.4328" y2="356.4595">
				<stop  offset="0.1179" style="stop-color:#EE5A77"/>
				<stop  offset="1" style="stop-color:#801C56"/>
			</linearGradient>
			<path class="st46" d="M538,368.7c-1.2,19.6-18.2,35.5-37.9,35.5c-19.8,0-34.8-15.9-33.6-35.5c1.2-19.6,18.2-35.5,37.9-35.5
				S539.2,349.1,538,368.7z"/>
			<linearGradient id="SVGID_45_" gradientUnits="userSpaceOnUse" x1="482.7346" y1="315.767" x2="513.366" y2="400.5504">
				<stop  offset="0" style="stop-color:#E0EDF3"/>
				<stop  offset="1" style="stop-color:#54A4C1"/>
			</linearGradient>
			<path class="st47" d="M535.6,365.5c-1.2,19.1-17.7,34.6-37,34.6c-19.3,0-34-15.5-32.8-34.6c0.3-4.5,1.4-8.9,3.3-12.9c0,0,0,0,0,0
				c5.9-12.8,19-21.8,33.7-21.8c14.1,0,25.8,8.3,30.6,20.3C535.1,355.5,535.9,360.4,535.6,365.5z"/>
			<linearGradient id="SVGID_46_" gradientUnits="userSpaceOnUse" x1="493.5323" y1="359.4" x2="446.8062" y2="412.4716">
				<stop  offset="0" style="stop-color:#E0EDF3"/>
				<stop  offset="1" style="stop-color:#54A4C1"/>
			</linearGradient>
			<path class="st48" d="M533.3,351.1c-1-0.6-11-17.1-32.6-16c-23.2,1.1-32.8,22.1-31.9,18.3c0.1-0.2,0.1-0.5,0.2-0.7c0,0,0,0,0,0
				c5.9-12.8,19-21.8,33.7-21.8C516.9,330.8,528.6,339.2,533.3,351.1z"/>
			<linearGradient id="SVGID_47_" gradientUnits="userSpaceOnUse" x1="499.5589" y1="341.7776" x2="496.5304" y2="430.4707">
				<stop  offset="0.1179" style="stop-color:#EE5A77"/>
				<stop  offset="1" style="stop-color:#801C56"/>
			</linearGradient>
			<path class="st49" d="M522.1,363.3c-0.8,12.7-11.8,23-24.6,23c-12.8,0-22.6-10.3-21.8-23s11.8-23,24.6-23
				C513,340.2,522.8,350.6,522.1,363.3z"/>
			<linearGradient id="SVGID_48_" gradientUnits="userSpaceOnUse" x1="485.5392" y1="330.9577" x2="514.5267" y2="399.5326">
				<stop  offset="0.1179" style="stop-color:#24245A"/>
				<stop  offset="1" style="stop-color:#171441"/>
			</linearGradient>
			<path class="st50" d="M511,362.6c-0.4,6.6-6.1,12-12.8,12c-6.7,0-11.8-5.4-11.4-12c0.4-6.6,6.1-12,12.8-12
				C506.3,350.6,511.4,356,511,362.6z"/>
		</g>
		<linearGradient id="SVGID_49_" gradientUnits="userSpaceOnUse" x1="495.0647" y1="308.9834" x2="504.088" y2="308.9834">
			<stop  offset="0.1179" style="stop-color:#24245A"/>
			<stop  offset="1" style="stop-color:#171441"/>
		</linearGradient>
		<path class="st51" d="M495.1,362.8l1.7-109.5h4.2l3.1,109.5c0,0-0.9,2-4.5,2C496.1,364.7,495.1,362.8,495.1,362.8z"/>
	</g>
</g>
<g id="LOCATION">
	<g>
		<g>
			<path class="st52" d="M237.8,248c-0.2,1.7-2.1,3.1-4.3,3.1s-3.8-1.4-3.6-3.1s2.1-3.1,4.3-3.1S237.9,246.3,237.8,248z"/>
			<g>
				<linearGradient id="SVGID_50_" gradientUnits="userSpaceOnUse" x1="233.3603" y1="223.4084" x2="233.3603" y2="243.1553">
					<stop  offset="0.1179" style="stop-color:#EE5A77"/>
					<stop  offset="1" style="stop-color:#801C56"/>
				</linearGradient>
				<path class="st53" d="M233.4,204.7c-7,0-9.8,4.4-10.4,9.2c-0.2,1.9-0.1,3.9,0.2,5.8c1.1,6,10.2,19.9,10.2,19.9s6.3-9.5,9.1-16.2
					c0.6-1.4,1-2.7,1.2-3.7C244.7,213.7,243.2,204.7,233.4,204.7z M233.4,210.6c2.5,0,4.5,2,4.5,4.5c0,2.5-2,4.5-4.5,4.5
					c-2.5,0-4.5-2-4.5-4.5C228.8,212.7,230.9,210.6,233.4,210.6z"/>
				<linearGradient id="SVGID_51_" gradientUnits="userSpaceOnUse" x1="229.3217" y1="214.2751" x2="243.5681" y2="246.3724">
					<stop  offset="0.1179" style="stop-color:#EE5A77"/>
					<stop  offset="1" style="stop-color:#801C56"/>
				</linearGradient>
				<path class="st54" d="M242.5,223.5c-0.8,1.9-1.9,4.1-3,6.2c-2.8,5.2-6,10-6,10s-5-7.5-8-13.9c-1.1-2.3-1.9-4.4-2.2-6
					c-0.3-1.8-0.4-3.8-0.2-5.8c1.3,3.3,3.9,7.4,9.1,9.4C236.9,225.3,240.3,224.6,242.5,223.5z"/>
				<linearGradient id="SVGID_52_" gradientUnits="userSpaceOnUse" x1="232.4062" y1="211.1788" x2="232.4062" y2="237.0746">
					<stop  offset="0.1179" style="stop-color:#EE5A77"/>
					<stop  offset="0.9946" style="stop-color:#BD3F69"/>
				</linearGradient>
				<path class="st55" d="M239.4,229.6c-2.8,5.2-6,10-6,10s-5-7.5-8-13.9c1.3,1.3,3,2.4,5,3.2C234.3,230.5,237.3,230.3,239.4,229.6z
					"/>
			</g>
		</g>
		<g>
			<path class="st52" d="M285.6,393.7c-0.2,1.7-2.1,3.1-4.3,3.1s-3.8-1.4-3.6-3.1c0.2-1.7,2.1-3.1,4.3-3.1S285.8,392,285.6,393.7z"
				/>
			<g>
				<linearGradient id="SVGID_53_" gradientUnits="userSpaceOnUse" x1="281.2488" y1="369.1337" x2="281.2488" y2="388.8806">
					<stop  offset="0.1179" style="stop-color:#EE5A77"/>
					<stop  offset="1" style="stop-color:#801C56"/>
				</linearGradient>
				<path class="st56" d="M281.3,350.4c-7,0-9.8,4.4-10.4,9.2c-0.2,1.9-0.1,3.9,0.2,5.8c1.1,6,10.2,19.9,10.2,19.9s6.3-9.5,9.1-16.2
					c0.6-1.4,1-2.7,1.2-3.7C292.5,359.4,291,350.4,281.3,350.4z M281.2,356.4c2.5,0,4.5,2,4.5,4.5c0,2.5-2,4.5-4.5,4.5
					c-2.5,0-4.5-2-4.5-4.5C276.7,358.4,278.8,356.4,281.2,356.4z"/>
				<linearGradient id="SVGID_54_" gradientUnits="userSpaceOnUse" x1="277.2102" y1="360.0004" x2="291.4566" y2="392.0977">
					<stop  offset="0.1179" style="stop-color:#EE5A77"/>
					<stop  offset="1" style="stop-color:#801C56"/>
				</linearGradient>
				<path class="st57" d="M290.4,369.2c-0.8,1.9-1.9,4.1-3,6.2c-2.8,5.2-6,10-6,10s-5-7.5-8-13.9c-1.1-2.3-1.9-4.4-2.2-6
					c-0.3-1.8-0.4-3.8-0.2-5.8c1.3,3.3,3.9,7.4,9.1,9.4C284.8,371,288.2,370.3,290.4,369.2z"/>
				<linearGradient id="SVGID_55_" gradientUnits="userSpaceOnUse" x1="280.2947" y1="356.9041" x2="280.2947" y2="382.7998">
					<stop  offset="0.1179" style="stop-color:#EE5A77"/>
					<stop  offset="0.9946" style="stop-color:#BD3F69"/>
				</linearGradient>
				<path class="st58" d="M287.3,375.3c-2.8,5.2-6,10-6,10s-5-7.5-8-13.9c1.3,1.3,3,2.4,5,3.2C282.2,376.2,285.2,376.1,287.3,375.3z
					"/>
			</g>
		</g>
		<g>
			<path class="st52" d="M388.6,277c-0.2,1.7-2.1,3.1-4.3,3.1s-3.8-1.4-3.6-3.1c0.2-1.7,2.1-3.1,4.3-3.1S388.8,275.3,388.6,277z"/>
			<g>
				<linearGradient id="SVGID_56_" gradientUnits="userSpaceOnUse" x1="384.2349" y1="252.4162" x2="384.2349" y2="272.1631">
					<stop  offset="0.1179" style="stop-color:#EE5A77"/>
					<stop  offset="1" style="stop-color:#801C56"/>
				</linearGradient>
				<path class="st59" d="M384.3,233.7c-7,0-9.8,4.4-10.4,9.2c-0.2,1.9-0.1,3.9,0.2,5.8c1.1,6,10.2,19.9,10.2,19.9s6.3-9.5,9.1-16.2
					c0.6-1.4,1-2.7,1.2-3.7C395.5,242.7,394,233.7,384.3,233.7z M384.2,239.7c2.5,0,4.5,2,4.5,4.5c0,2.5-2,4.5-4.5,4.5
					c-2.5,0-4.5-2-4.5-4.5C379.7,241.7,381.7,239.7,384.2,239.7z"/>
				<linearGradient id="SVGID_57_" gradientUnits="userSpaceOnUse" x1="380.1963" y1="243.2828" x2="394.4427" y2="275.3801">
					<stop  offset="0.1179" style="stop-color:#EE5A77"/>
					<stop  offset="1" style="stop-color:#801C56"/>
				</linearGradient>
				<path class="st60" d="M393.3,252.5c-0.8,1.9-1.9,4.1-3,6.2c-2.8,5.2-6,10-6,10s-5-7.5-8-13.9c-1.1-2.3-1.9-4.4-2.2-6
					c-0.3-1.8-0.4-3.8-0.2-5.8c1.3,3.3,3.9,7.4,9.1,9.4C387.8,254.3,391.2,253.6,393.3,252.5z"/>
				<linearGradient id="SVGID_58_" gradientUnits="userSpaceOnUse" x1="383.2808" y1="240.1866" x2="383.2808" y2="266.0823">
					<stop  offset="0.1179" style="stop-color:#EE5A77"/>
					<stop  offset="0.9946" style="stop-color:#BD3F69"/>
				</linearGradient>
				<path class="st61" d="M390.3,258.6c-2.8,5.2-6,10-6,10s-5-7.5-8-13.9c1.3,1.3,3,2.4,5,3.2C385.2,259.5,388.2,259.3,390.3,258.6z
					"/>
			</g>
		</g>
		<g>
			<path class="st52" d="M425.7,343.6c-0.2,1.7-2.1,3.1-4.3,3.1s-3.8-1.4-3.6-3.1c0.2-1.7,2.1-3.1,4.3-3.1
				C424.3,340.5,425.9,341.9,425.7,343.6z"/>
			<g>
				<linearGradient id="SVGID_59_" gradientUnits="userSpaceOnUse" x1="421.3098" y1="319.0138" x2="421.3098" y2="338.7607">
					<stop  offset="0.1179" style="stop-color:#EE5A77"/>
					<stop  offset="1" style="stop-color:#801C56"/>
				</linearGradient>
				<path class="st62" d="M421.3,300.3c-7,0-9.8,4.4-10.4,9.2c-0.2,1.9-0.1,3.9,0.2,5.8c1.1,6,10.2,19.9,10.2,19.9s6.3-9.5,9.1-16.2
					c0.6-1.4,1-2.7,1.2-3.7C432.6,309.3,431.1,300.3,421.3,300.3z M421.3,306.2c2.5,0,4.5,2,4.5,4.5c0,2.5-2,4.5-4.5,4.5
					c-2.5,0-4.5-2-4.5-4.5C416.8,308.3,418.8,306.2,421.3,306.2z"/>
				<linearGradient id="SVGID_60_" gradientUnits="userSpaceOnUse" x1="417.2712" y1="309.8805" x2="431.5176" y2="341.9778">
					<stop  offset="0.1179" style="stop-color:#EE5A77"/>
					<stop  offset="1" style="stop-color:#801C56"/>
				</linearGradient>
				<path class="st63" d="M430.4,319.1c-0.8,1.9-1.9,4.1-3,6.2c-2.8,5.2-6,10-6,10s-5-7.5-8-13.9c-1.1-2.3-1.9-4.4-2.2-6
					c-0.3-1.8-0.4-3.8-0.2-5.8c1.3,3.3,3.9,7.4,9.1,9.4C424.9,320.9,428.3,320.2,430.4,319.1z"/>
				<linearGradient id="SVGID_61_" gradientUnits="userSpaceOnUse" x1="420.3558" y1="306.7842" x2="420.3558" y2="332.68">
					<stop  offset="0.1179" style="stop-color:#EE5A77"/>
					<stop  offset="0.9946" style="stop-color:#BD3F69"/>
				</linearGradient>
				<path class="st64" d="M427.4,325.2c-2.8,5.2-6,10-6,10s-5-7.5-8-13.9c1.3,1.3,3,2.4,5,3.2C422.3,326.1,425.3,325.9,427.4,325.2z
					"/>
			</g>
		</g>
	</g>
</g>
<g id="CURSOR">
	<g>
		<linearGradient id="SVGID_62_" gradientUnits="userSpaceOnUse" x1="209.1028" y1="292.695" x2="202.772" y2="277.6294">
			<stop  offset="0.1179" style="stop-color:#24245A"/>
			<stop  offset="1" style="stop-color:#171441"/>
		</linearGradient>
		<path class="st65" d="M199.1,283.4l8.8-6.5c0.8-0.6,1.9,0,1.9,0.9v10.5c0,0.8-0.9,1.4-1.6,1.1l-8.8-3.9
			C198.5,285.1,198.4,284,199.1,283.4z"/>
		<linearGradient id="SVGID_63_" gradientUnits="userSpaceOnUse" x1="199.6264" y1="280.8576" x2="196.3062" y2="274.5411">
			<stop  offset="0.1231" style="stop-color:#FFD65B"/>
			<stop  offset="0.9692" style="stop-color:#F7923A"/>
		</linearGradient>
		<polygon class="st66" points="189.2,280.5 204,269.6 204,287.1 		"/>
		<linearGradient id="SVGID_64_" gradientUnits="userSpaceOnUse" x1="203.1282" y1="271.2442" x2="200.7367" y2="286.5579">
			<stop  offset="0.1231" style="stop-color:#FFD65B"/>
			<stop  offset="0.9692" style="stop-color:#F7923A"/>
		</linearGradient>
		<polygon class="st67" points="204,269.6 198.5,279.9 204,287.1 		"/>
		<linearGradient id="SVGID_65_" gradientUnits="userSpaceOnUse" x1="189.2836" y1="275.3038" x2="196.4305" y2="283.0302">
			<stop  offset="0.1231" style="stop-color:#FFD65B"/>
			<stop  offset="0.9692" style="stop-color:#F7923A"/>
		</linearGradient>
		<polygon class="st68" points="198.5,279.9 189.2,280.5 204,287.1 		"/>
	</g>
</g>
<g id="COMPASS">
	<g>
		<linearGradient id="SVGID_66_" gradientUnits="userSpaceOnUse" x1="381.3834" y1="498.4303" x2="371.9457" y2="445.3841">
			<stop  offset="0" style="stop-color:#A8C7D2"/>
			<stop  offset="1" style="stop-color:#DFC0BC"/>
		</linearGradient>
		<path class="st69" d="M399.9,436.6c-1,16.2-15,29.3-31.3,29.3c-16.3,0-28.7-13.1-27.7-29.3s15-29.3,31.3-29.3
			C388.4,407.3,400.9,420.4,399.9,436.6z"/>
		<linearGradient id="SVGID_67_" gradientUnits="userSpaceOnUse" x1="373.4406" y1="485.5504" x2="367.2581" y2="411.6857">
			<stop  offset="0" style="stop-color:#E0EDF3"/>
			<stop  offset="1" style="stop-color:#FAF1F1"/>
		</linearGradient>
		<path class="st70" d="M397.9,433.9c-0.9,15.8-14.6,28.6-30.5,28.6c-14.4,0-25.7-10.5-27-24.2c-0.1-1.4-0.2-2.9-0.1-4.4
			c1-15.8,14.6-28.6,30.5-28.6c14.4,0,25.7,10.5,27,24.3C398,431,398,432.5,397.9,433.9z"/>
		<linearGradient id="SVGID_68_" gradientUnits="userSpaceOnUse" x1="368.9691" y1="452.0619" x2="369.2131" y2="433.2679">
			<stop  offset="0" style="stop-color:#D9E6EB"/>
			<stop  offset="1" style="stop-color:#F2EAE9"/>
		</linearGradient>
		<path class="st71" d="M397.9,433.9c-0.9,15.8-14.6,28.6-30.5,28.6c-14.4,0-25.7-10.5-27-24.2c4.9,4.8,14.2,10.6,30,8.9
			c14.2-1.5,22.7-10.2,27.5-17.6C398,431,398,432.5,397.9,433.9z"/>
		<linearGradient id="SVGID_69_" gradientUnits="userSpaceOnUse" x1="373.0575" y1="480.9641" x2="367.4243" y2="413.6623">
			<stop  offset="0" style="stop-color:#A8C7D2"/>
			<stop  offset="1" style="stop-color:#DFC0BC"/>
		</linearGradient>
		<path class="st72" d="M370.7,407.9c-14.5,0-26.9,11.7-27.8,26c-0.9,14.4,10.2,26,24.7,26c14.5,0,26.9-11.7,27.8-26
			C396.2,419.6,385.2,407.9,370.7,407.9z M393.6,433.9c-0.8,13.4-12.4,24.3-25.9,24.3c-13.5,0-23.8-10.9-23-24.3
			c0.8-13.4,12.4-24.3,25.9-24.3C384.1,409.7,394.4,420.5,393.6,433.9z"/>
		<linearGradient id="SVGID_70_" gradientUnits="userSpaceOnUse" x1="361.4312" y1="427.0773" x2="378.2109" y2="410.6332">
			<stop  offset="0.1179" style="stop-color:#EE5A77"/>
			<stop  offset="1" style="stop-color:#801C56"/>
		</linearGradient>
		<polygon class="st73" points="358.9,414.7 374.9,428.7 360,435.6 		"/>
		<linearGradient id="SVGID_71_" gradientUnits="userSpaceOnUse" x1="366.4958" y1="430.4189" x2="377.6822" y2="450.5545">
			<stop  offset="0" style="stop-color:#A8C7D2"/>
			<stop  offset="1" style="stop-color:#DFC0BC"/>
		</linearGradient>
		<polygon class="st74" points="374.9,428.7 376.7,452.1 360,435.6 		"/>
		<linearGradient id="SVGID_72_" gradientUnits="userSpaceOnUse" x1="357.066" y1="424.8475" x2="369.2966" y2="426.4136">
			<stop  offset="0.1179" style="stop-color:#DA536D"/>
			<stop  offset="1" style="stop-color:#6A1647"/>
		</linearGradient>
		<polygon class="st75" points="358.9,414.7 365.6,433 360,435.6 		"/>
		<linearGradient id="SVGID_73_" gradientUnits="userSpaceOnUse" x1="360.9313" y1="450.7039" x2="373.0127" y2="439.5175">
			<stop  offset="0" style="stop-color:#8AA4AD"/>
			<stop  offset="1" style="stop-color:#B99F9B"/>
		</linearGradient>
		<polygon class="st76" points="365.6,433 376.7,452.1 360,435.6 		"/>
	</g>
</g>
<g id="LEG">
	<g>
		<g>
			<linearGradient id="SVGID_74_" gradientUnits="userSpaceOnUse" x1="140.7563" y1="449.0019" x2="129.8542" y2="477.8031">
				<stop  offset="0.1179" style="stop-color:#5E314E"/>
				<stop  offset="1" style="stop-color:#492335"/>
			</linearGradient>
			<path class="st77" d="M145.2,484.1c-1.7,3-24.1,20.4-26.7,22.2c-4.5,3.2-9.2,4.2-12,3.6c-1.5-0.3-2.7-1.3-3.4-2.6
				c-0.6-1.1-0.9-2.5-0.8-3.9c0.3-3,7.5-10.9,13.1-18.8c5.6-8,12.8-15.5,15-16.4c0.8-0.3,1.7-0.6,2.7-0.7c1.8-0.3,3.9-0.3,5.9,0.2
				c3.2,0.8,5.5,2.1,6.4,3.7C148.4,475.9,146.9,481.2,145.2,484.1z"/>
			<linearGradient id="SVGID_75_" gradientUnits="userSpaceOnUse" x1="120.6043" y1="488.4585" x2="131.9946" y2="502.1268">
				<stop  offset="0.1179" style="stop-color:#673656"/>
				<stop  offset="1" style="stop-color:#53283D"/>
			</linearGradient>
			<path class="st78" d="M137.2,483.7c-2.4,3.1-20.6,21.1-25.6,23.7c-2.6,1.4-5.9,1.6-8.4-0.1c-0.6-1.1-0.9-2.5-0.8-3.9
				c0.3-3,7.5-10.9,13.1-18.8c5.6-8,12.8-15.5,15-16.4c0.8-0.3,1.7-0.6,2.7-0.7c1.6,0.2,3.4,0.8,5,2.4
				C140.7,472.2,141.1,478.7,137.2,483.7z"/>
		</g>
		<g>
			<g>
				<linearGradient id="SVGID_76_" gradientUnits="userSpaceOnUse" x1="195.3922" y1="445.9865" x2="234.6074" y2="470.0688">
					<stop  offset="3.076923e-002" style="stop-color:#F7923A"/>
					<stop  offset="0.8769" style="stop-color:#FFD65B"/>
				</linearGradient>
				<path class="st79" d="M256.8,461.4c0,5.5-5.2,11.2-9.6,13c-1,0.4-5,0.2-10.8-0.5c-2.3-0.2-4.8-0.5-7.5-0.9
					c-21-2.7-52.3-8-52.3-8l29.2-28.2l4.4-4.2c0,0,18.4,5.2,28.1,9.5S256.8,455.9,256.8,461.4z"/>
				<linearGradient id="SVGID_77_" gradientUnits="userSpaceOnUse" x1="248.0761" y1="478.0548" x2="246.1234" y2="464.0203">
					<stop  offset="3.076923e-002" style="stop-color:#F7923A"/>
					<stop  offset="0.8769" style="stop-color:#FFD65B"/>
				</linearGradient>
				<path class="st80" d="M256.8,461.4c0,5.5-5.2,11.2-9.6,13c-1,0.4-5,0.2-10.8-0.5C251.3,468.5,256.8,461.4,256.8,461.4z"/>
				<linearGradient id="SVGID_78_" gradientUnits="userSpaceOnUse" x1="214.1351" y1="457.9059" x2="236.5916" y2="438.2158">
					<stop  offset="3.076923e-002" style="stop-color:#F7923A"/>
					<stop  offset="0.8769" style="stop-color:#FFD65B"/>
				</linearGradient>
				<path class="st81" d="M238,458.5l-9,14.6c-21-2.7-52.3-8-52.3-8l11.7-11.3l9.8-9.5l7.7-7.5c2.5,3,6.2,7.8,14.1,12.5
					C230.5,455.6,237.8,458.4,238,458.5C238,458.5,238,458.5,238,458.5z"/>
				<linearGradient id="SVGID_79_" gradientUnits="userSpaceOnUse" x1="222.7833" y1="447.1711" x2="239.2975" y2="432.6912">
					<stop  offset="3.076923e-002" style="stop-color:#EB8B35"/>
					<stop  offset="0.8769" style="stop-color:#F7CE57"/>
				</linearGradient>
				<path class="st82" d="M237.7,458.5c-3.6-0.1-38.8-0.8-47.3,0c-3.5,0.4-3.4-1.8-2-4.7l9.8-9.5C205.1,447.7,227,458,237.7,458.5z"
					/>
			</g>
			<g>
				<linearGradient id="SVGID_80_" gradientUnits="userSpaceOnUse" x1="168.9772" y1="479.0866" x2="146.278" y2="481.2833">
					<stop  offset="3.076923e-002" style="stop-color:#CD792B"/>
					<stop  offset="0.8769" style="stop-color:#DCB74B"/>
				</linearGradient>
				<path class="st83" d="M168.5,468c-3.4,1.2-3.4,22.4,2.5,22c5.9-0.4,4.7-10.3,3.8-13.9C173.9,472.5,170.2,467.5,168.5,468z"/>
				<linearGradient id="SVGID_81_" gradientUnits="userSpaceOnUse" x1="171.4795" y1="490.5283" x2="167.9003" y2="471.1681">
					<stop  offset="0.1436" style="stop-color:#F7AFAA"/>
					<stop  offset="0.9333" style="stop-color:#E58880"/>
				</linearGradient>
				<polygon class="st84" points="182.2,483.9 169.8,486.4 157.2,488.9 154.9,475 155.3,474.9 181.3,468 				"/>
				<linearGradient id="SVGID_82_" gradientUnits="userSpaceOnUse" x1="162.6461" y1="490.4578" x2="166.1648" y2="484.107">
					<stop  offset="0.1436" style="stop-color:#F7AFAA"/>
					<stop  offset="0.9333" style="stop-color:#E58880"/>
				</linearGradient>
				<path class="st85" d="M182.2,483.9l-12.5,2.5c-0.3-1.9-0.8-4.2-1.6-5.7c-1.5-2.9-10.8-0.4-10.8-0.4l-2.1-5.3l26-6.9L182.2,483.9
					z"/>
				<linearGradient id="SVGID_83_" gradientUnits="userSpaceOnUse" x1="185.3146" y1="462.3971" x2="224.5306" y2="486.48">
					<stop  offset="3.076923e-002" style="stop-color:#F7923A"/>
					<stop  offset="0.8769" style="stop-color:#FFD65B"/>
				</linearGradient>
				<path class="st86" d="M247.2,474.5c-5.3,4-23.3,7.5-40,10.4c-16.7,2.9-36.2,5.1-36.2,5.1s1.1-1.2,1.8-3.8
					c0.4-1.6,0.7-3.8,0.5-6.6c0-0.1,0-0.1,0-0.2c-0.7-8.1-4.7-11.4-4.7-11.4s35.2-10.4,53.2-12.2c6.4-0.6,11.9,0.6,16.3,2.7
					c5.3,2.6,8.9,6.5,10.2,9.9C249.2,470.9,248.9,473.2,247.2,474.5z"/>
				<linearGradient id="SVGID_84_" gradientUnits="userSpaceOnUse" x1="210.291" y1="483.3119" x2="208.3384" y2="469.2774">
					<stop  offset="3.076923e-002" style="stop-color:#F7923A"/>
					<stop  offset="0.8769" style="stop-color:#FFD65B"/>
				</linearGradient>
				<path class="st87" d="M247.2,474.5c-5.3,4-23.3,7.5-40,10.4c-16.7,2.9-36.2,5.1-36.2,5.1s1.1-1.2,1.8-3.8
					c10.3-1.4,31.1-4.5,49.5-8.2c12.1-2.4,20.4-6.2,25.9-9.6C249.2,470.9,248.9,473.2,247.2,474.5z"/>
				<linearGradient id="SVGID_85_" gradientUnits="userSpaceOnUse" x1="201.3449" y1="462.1975" x2="213.7115" y2="481.7237">
					<stop  offset="3.076923e-002" style="stop-color:#F7923A"/>
					<stop  offset="0.8769" style="stop-color:#FFD65B"/>
				</linearGradient>
				<path class="st88" d="M238,458.5c-0.5,0-15.4,1.1-34.5,6.6c-15.3,4.4-26.2,11.5-30.2,14.3c-0.7-8.1-4.7-11.4-4.7-11.4
					s35.2-10.4,53.2-12.2C228.2,455.2,233.6,456.4,238,458.5z"/>
				<g>
					<linearGradient id="SVGID_86_" gradientUnits="userSpaceOnUse" x1="154.9622" y1="464.2653" x2="148.6161" y2="482.1643">
						<stop  offset="0.1179" style="stop-color:#673656"/>
						<stop  offset="1" style="stop-color:#53283D"/>
					</linearGradient>
					<path class="st89" d="M162.2,490.6c-1.5,3.1-22.4,22.2-24.8,24.3c-4.2,3.6-8.9,4.9-11.6,4.5c-1.5-0.2-2.7-1.1-3.6-2.3
						c-0.7-1.1-1.1-2.4-1.1-3.8c0.1-3,6.6-11.5,11.6-19.8c5-8.4,11.5-16.5,13.7-17.6c0.8-0.4,1.7-0.7,2.7-0.9
						c1.8-0.4,3.8-0.6,5.9-0.3c3.2,0.5,5.6,1.7,6.7,3.1C164.8,482.1,163.7,487.5,162.2,490.6z"/>
					<linearGradient id="SVGID_87_" gradientUnits="userSpaceOnUse" x1="138.7651" y1="497.5344" x2="149.5045" y2="508.5993">
						<stop  offset="0.1179" style="stop-color:#673656"/>
						<stop  offset="1" style="stop-color:#53283D"/>
					</linearGradient>
					<path class="st90" d="M154.2,490.8c-2,3.4-20.6,24.1-23.6,25.7c-2.6,1.4-5.8,2.1-8.4,0.6c-0.7-1.1-1.1-2.4-1.1-3.8
						c0.1-3,6.6-11.5,11.6-19.8c5-8.4,11.5-16.5,13.7-17.6c0.8-0.4,1.7-0.7,2.7-0.9c1.6,0.1,3.4,0.6,5.2,2
						C157.2,479.4,157,486.1,154.2,490.8z"/>
				</g>
			</g>
		</g>
	</g>
</g>
<g id="LEFT_ARM_1">
	<g>
		<linearGradient id="SVGID_88_" gradientUnits="userSpaceOnUse" x1="99.1474" y1="376.5055" x2="134.1626" y2="403.6252">
			<stop  offset="0.1179" style="stop-color:#EE5A77"/>
			<stop  offset="1" style="stop-color:#801C56"/>
		</linearGradient>
		<path class="st91" d="M130.2,376.7c-1.8,4.6-22.2,34.5-25.7,37.4c-2.6,2.2-6.8,0.6-10.6-2.4c-5.5-4.3-10.2-11.4-8.8-14.7
			c2.4-5.5,13.9-28.7,19.1-38.9c1.1-2.2,5-3.7,9.6-3.9c3.6-0.1,7.6,0.7,11,2.8C132.5,361.9,132,372.2,130.2,376.7z"/>
		<linearGradient id="SVGID_89_" gradientUnits="userSpaceOnUse" x1="59.616" y1="368.7899" x2="111.1164" y2="385.3872">
			<stop  offset="0.1179" style="stop-color:#EE5A77"/>
			<stop  offset="1" style="stop-color:#801C56"/>
		</linearGradient>
		<path class="st92" d="M130.2,376.7c-1.8,4.6-22.2,34.5-25.7,37.4c-2.6,2.2-6.8,0.6-10.6-2.4c3.1-5.1,5.6-9.8,7.1-13.1
			c3.9-8.5,10-33.1,12.8-44.4c3.6-0.1,7.6,0.7,11,2.8C132.5,361.9,132,372.2,130.2,376.7z"/>
	</g>
</g>
<g id="LEFT_ARM_2">
	<g>
		<g>
			
				<linearGradient id="SVGID_90_" gradientUnits="userSpaceOnUse" x1="30.762" y1="483.6215" x2="64.7702" y2="462.7935" gradientTransform="matrix(0.9992 4.032111e-002 -4.032111e-002 0.9992 18.4971 -2.3743)">
				<stop  offset="0.1436" style="stop-color:#F7AFAA"/>
				<stop  offset="0.9333" style="stop-color:#E58880"/>
			</linearGradient>
			<path class="st93" d="M60,468.1c-1.9,1.1-4,2-5,2.5c-1.7,0.8-6.4,4.5-10.5,5.3c-4.1,0.8-6.6,0.5-6.6,0c0-0.5,2.8-2.6,2.8-2.6
				c2.1-1.5,14.9-7.6,17.7-8.2C59.8,464.7,60.1,466.3,60,468.1z"/>
			<linearGradient id="SVGID_91_" gradientUnits="userSpaceOnUse" x1="68.8358" y1="477.5219" x2="65.9068" y2="471.1759">
				<stop  offset="0.1436" style="stop-color:#F7AFAA"/>
				<stop  offset="0.9333" style="stop-color:#E58880"/>
			</linearGradient>
			<path class="st94" d="M66,459.2c0,0,0.2,3.9,1,5.8s3.8,3.6,4.1,4.3s-2.4,1.3-4.3,1s-2.8-2.3-3.9-2.6c-1.1-0.3-4.2,1.1-4.2,1.1
				L66,459.2z"/>
			<linearGradient id="SVGID_92_" gradientUnits="userSpaceOnUse" x1="37.1065" y1="474.1589" x2="71.1147" y2="453.331">
				<stop  offset="0.1436" style="stop-color:#F7AFAA"/>
				<stop  offset="0.9333" style="stop-color:#E58880"/>
			</linearGradient>
			<path class="st95" d="M67,455.6c0,0-2,7.9-3.7,9.9c-0.7,0.8-2,1.7-3.3,2.6c-1.9,1.2-4,2.2-4.9,2.7c-1.6,0.9-15,3.5-17.1,3.7
				c-2.1,0.1-3.5-0.4-3.4-1.1c0.1-0.7,11.5-7.1,16-10.7c4.5-3.6,9.3-10.3,9.3-10.3L67,455.6z"/>
		</g>
		<linearGradient id="SVGID_93_" gradientUnits="userSpaceOnUse" x1="54.5875" y1="439.3401" x2="68.2331" y2="452.5567">
			<stop  offset="0.1179" style="stop-color:#EE5A77"/>
			<stop  offset="1" style="stop-color:#801C56"/>
		</linearGradient>
		<path class="st96" d="M74.8,449.2l-6.7,8.9c0,0-2.2-0.4-4.3-1.2c-0.6-0.2-1.2-0.5-1.7-0.8c-2.3-1.4-3.9-4.7-3.9-4.7l5.1-11.1
			c0,0,1.4,3.8,3.9,5.6c0.1,0.1,0.3,0.2,0.4,0.3C70.3,447.9,74.8,449.2,74.8,449.2z"/>
		<linearGradient id="SVGID_94_" gradientUnits="userSpaceOnUse" x1="55.9796" y1="437.3318" x2="65.935" y2="448.8319">
			<stop  offset="0.1179" style="stop-color:#EE5A77"/>
			<stop  offset="1" style="stop-color:#801C56"/>
		</linearGradient>
		<path class="st97" d="M75.6,449.5l-7.5,8.7c0,0-2.2-0.4-4.3-1.2c2.6-4,3.5-8.4,3.8-10.7C70.3,447.9,75.6,449.5,75.6,449.5z"/>
		<linearGradient id="SVGID_95_" gradientUnits="userSpaceOnUse" x1="71.2971" y1="412.4641" x2="106.3124" y2="439.5837">
			<stop  offset="0.1179" style="stop-color:#EE5A77"/>
			<stop  offset="1" style="stop-color:#801C56"/>
		</linearGradient>
		<path class="st98" d="M105.3,413.3c-1.3,1.3-31.9,36.2-31.9,36.2s-3.7-0.3-6.6-2.3c-0.2-0.1-0.3-0.2-0.5-0.3
			c-2.2-1.7-4.8-6.2-4.8-6.2s19.7-35.3,23.4-42.8c2.1-4.3,10.7-5.7,16.4-0.4l0.1,0.1C107,403,106.5,412,105.3,413.3z"/>
		<linearGradient id="SVGID_96_" gradientUnits="userSpaceOnUse" x1="84.7033" y1="403.7192" x2="63.3421" y2="436.9192">
			<stop  offset="0.1179" style="stop-color:#EE5A77"/>
			<stop  offset="0.9946" style="stop-color:#F38D9E"/>
		</linearGradient>
		<path class="st99" d="M79.9,408.4c-2,2.5-17.6,31.8-17.6,31.8s16.7-23.9,19.6-29.1C84.6,405.9,82.6,405,79.9,408.4z"/>
		<linearGradient id="SVGID_97_" gradientUnits="userSpaceOnUse" x1="39.5595" y1="408.5097" x2="97.915" y2="427.3163">
			<stop  offset="0.1179" style="stop-color:#EE5A77"/>
			<stop  offset="1" style="stop-color:#801C56"/>
		</linearGradient>
		<path class="st100" d="M105.3,413.3c-1.3,1.3-29.8,37.6-29.8,37.6s-5.8-1.7-8.7-3.7c7.9-4.7,29.5-38.1,34.2-48.5
			c0.2-0.3,0.3-0.7,0.5-1.1C107,403,106.5,412,105.3,413.3z"/>
	</g>
</g>
<g id="BODY">
	<g>
		<linearGradient id="SVGID_98_" gradientUnits="userSpaceOnUse" x1="105.4701" y1="340.3701" x2="211.5458" y2="511.327">
			<stop  offset="0.1179" style="stop-color:#EE5A77"/>
			<stop  offset="1" style="stop-color:#801C56"/>
		</linearGradient>
		<path class="st101" d="M214.2,433.1c0.4,2.1-19.8,34.1-41.4,39.6c-1.4,0.4-2.8,0.7-4.3,0.9c-4.3,0.8-8.6,1.2-12.8,1.3
			c-15.9,0.5-29.6-3-30.4-3.6c-1-0.8-0.4-7-0.4-7s-9.9-15.5-12.5-36.1c-1.4-10.8-2.2-23.1-2.2-35c0-1,0-2,0-3
			c0.1-9.8,0.8-19.3,2.2-27.3c0.7-4.1,1.7-7.6,2.9-10.7c4.2-10.9,11.3-16.1,21.6-17.5c0.6-0.1,1.2-0.2,1.8-0.2
			c6.5-0.8,13.3-0.8,18.9,0.9h0c1.2,0.4,2.3,0.8,3.3,1.3c2.4,1.1,4.5,2.7,6.1,4.7c1.6,2,7.8,10.2,12.1,22.9c0.1,0.4,0.3,0.8,0.4,1.2
			c1.4,4.4,2.8,9,4.2,13.4c0.8,2.6,1.6,5.2,2.3,7.7c0.8,2.6,1.5,5,2.2,7.3c1.2,4,2.2,7.4,3,10.3c0.2,0.6,0.4,1.1,0.5,1.7
			c0.5,1.6,0.9,3,1.3,4.3c0.1,0.3,0.2,0.6,0.3,0.8v0c0.1,0.4,0.2,0.8,0.4,1.1c0.1,0.2,0.1,0.4,0.2,0.5c0.4,1,0.7,1.9,0.9,2.8
			c0.1,0.2,0.2,0.4,0.2,0.6c0.2,0.6,0.4,1.1,0.6,1.5c0.1,0.2,0.2,0.5,0.3,0.7c0.3,0.8,0.6,1.5,0.8,2c0.1,0.1,0.1,0.2,0.2,0.4
			c0.1,0.3,0.3,0.6,0.4,0.9c1.5,3.1,4.5,5.1,5.4,5.5c0.9,0.4,2.2-0.3,3.7,0.2C207.8,427.8,213.9,431.1,214.2,433.1z"/>
		<linearGradient id="SVGID_99_" gradientUnits="userSpaceOnUse" x1="199.4096" y1="374.7761" x2="161.5623" y2="411.3362">
			<stop  offset="8.031431e-002" style="stop-color:#5DAAC8"/>
			<stop  offset="1" style="stop-color:#AD3463"/>
		</linearGradient>
		<path class="st102" d="M214.2,433.1c0.4,2.1-19.8,34.1-41.4,39.6c-1.4,0.4-2.8,0.7-4.3,0.9c-4.3,0.8-8.6,1.2-12.8,1.3
			c-2-1.3-2.5-2.7-0.8-4.4c8-7.7,16.8-19.2,16.8-43.8c0-19.6-5.7-48.4-6.7-54c-2.5-14-6.1-31.2-7.4-37.5c3.8,1.1,7.1,3.1,9.4,6
			c1.4,1.7,6.1,7.9,10.1,17.5c0.9,2.1,1.7,4.3,2.5,6.7c1.4,4.4,2.8,9,4.2,13.4c0.3,1,0.6,2,0.9,3c0.5,1.6,1,3.2,1.4,4.7
			c0.8,2.6,1.5,5,2.2,7.3c1.2,4,2.2,7.4,3,10.3c0.2,0.6,0.4,1.1,0.5,1.7c0.6,1.9,1.1,3.6,1.6,5.1v0c0.1,0.4,0.2,0.8,0.4,1.1
			c0.1,0.2,0.1,0.4,0.2,0.5c0.4,1,0.7,1.9,0.9,2.8c0.1,0.2,0.2,0.4,0.2,0.6c0.2,0.6,0.4,1.1,0.6,1.5c0.1,0.2,0.2,0.5,0.3,0.7
			c0.3,0.8,0.6,1.5,0.8,2c0.1,0.1,0.1,0.2,0.2,0.4c0.1,0.3,0.3,0.6,0.4,0.9c1.5,3.1,4.5,5.1,5.4,5.5c0.9,0.4,2.2-0.3,3.7,0.2
			C207.8,427.8,213.9,431.1,214.2,433.1z"/>
		<linearGradient id="SVGID_100_" gradientUnits="userSpaceOnUse" x1="181.4642" y1="372.1675" x2="132.5458" y2="372.1675">
			<stop  offset="0.1179" style="stop-color:#9E6380"/>
			<stop  offset="0.2118" style="stop-color:#A25F7C"/>
			<stop  offset="0.7251" style="stop-color:#AD4766"/>
			<stop  offset="1" style="stop-color:#B03C5E"/>
		</linearGradient>
		<path class="st103" d="M193.2,410.3c-6.5-2.9-13.2-6.4-16.1-10c-10.6-13.1-17.9-25.6-17.9-25.6s-17.7,18.5-31.4,20.7
			c-8.5,1.3-13.8,0.3-17.5-2.1c0-1,0-2,0-3c0.1-9.8,0.8-19.3,2.2-27.3c0.7-4.1,1.7-7.6,2.9-10.7c4.2-10.9,11.3-16.1,21.6-17.5
			c8-1.1,17.3-0.8,24,2c2.9,1.2,5.3,2.8,7,4.9c1.6,2,7,10.1,11.3,22.8c0.1,0.4,0.3,0.8,0.4,1.2c1.4,4.4,2.8,9,4.2,13.4
			c0.8,2.6,1.6,5.2,2.3,7.7c0.8,2.6,1.5,5,2.2,7.3c1.2,4,2.2,7.4,3,10.3c0.2,0.6,0.4,1.1,0.5,1.7C192.3,407.6,192.7,409,193.2,410.3
			z"/>
		<linearGradient id="SVGID_101_" gradientUnits="userSpaceOnUse" x1="195.1836" y1="413.8763" x2="165.8326" y2="356.0324">
			<stop  offset="3.559494e-002" style="stop-color:#38A0C1"/>
			<stop  offset="4.339153e-002" style="stop-color:#3D9CBD"/>
			<stop  offset="0.1293" style="stop-color:#5D7F9C"/>
			<stop  offset="0.2209" style="stop-color:#696783"/>
			<stop  offset="0.317" style="stop-color:#6F5370"/>
			<stop  offset="0.4187" style="stop-color:#714162"/>
			<stop  offset="0.5281" style="stop-color:#723158"/>
			<stop  offset="0.6489" style="stop-color:#722451"/>
			<stop  offset="0.7899" style="stop-color:#721B4D"/>
			<stop  offset="1" style="stop-color:#72184C"/>
		</linearGradient>
		<path class="st104" d="M193.4,411.1c-10.5-8-25.6-32-30-40.4c-1.6-3-0.3-9.1,2.4-11.2c6.9-5.3,11.3-0.7,11.3-0.7
			c0.9,2.1,1.7,4.3,2.5,6.7c1.4,4.4,2.8,9,4.2,13.4c0.3,1,0.6,2,0.9,3c0.5,1.6,1,3.2,1.4,4.7c0.8,2.6,1.5,5,2.2,7.3
			c1.2,4,2.2,7.4,3,10.3c0.2,0.6,0.4,1.1,0.5,1.7C192.4,407.9,192.9,409.6,193.4,411.1z"/>
		<linearGradient id="SVGID_102_" gradientUnits="userSpaceOnUse" x1="162.1794" y1="374.2245" x2="117.8954" y2="489.5689">
			<stop  offset="0.1179" style="stop-color:#EE5A77"/>
			<stop  offset="1" style="stop-color:#801C56"/>
		</linearGradient>
		<path class="st105" d="M168.5,473.7c-1.8,0.3-3.6,0.6-5.4,0.8c-18.8,2.1-37-2.4-37.8-3.1c-1-0.8-0.4-7-0.4-7s-9.9-15.5-12.5-36.1
			c-0.3-2.2-0.5-4.4-0.8-6.6c-1-10-1.6-20.9-1.4-31.4c3.3,12.3,7.4,25,15.4,30.5c15.2,10.6,3.8,26.5,19.8,29.4
			C168.8,454.2,175.3,470.2,168.5,473.7z"/>
		<linearGradient id="SVGID_103_" gradientUnits="userSpaceOnUse" x1="176.3471" y1="370.4547" x2="124.5108" y2="473.7841">
			<stop  offset="0.1179" style="stop-color:#EE5A77"/>
			<stop  offset="1" style="stop-color:#801C56"/>
		</linearGradient>
		<path class="st106" d="M163.2,474.5c-18.8,2.1-37-2.4-37.8-3.1c-1-0.8-0.4-7-0.4-7s-9.9-15.5-12.5-36.1c-0.3-2.2-0.5-4.4-0.8-6.6
			c1.8,2.9,4,5.4,6.4,7.1c15.2,10.6,3.8,26.5,19.8,29.4C153.2,460.8,161.3,468.5,163.2,474.5z"/>
		<g>
			<linearGradient id="SVGID_104_" gradientUnits="userSpaceOnUse" x1="190.4272" y1="433.8806" x2="145.405" y2="476.9452">
				<stop  offset="0.1179" style="stop-color:#EE5A77"/>
				<stop  offset="1" style="stop-color:#801C56"/>
			</linearGradient>
			<path class="st107" d="M212.2,438.8c-3.3,7-10.8,18.9-23.9,27.9c-8.9,6.1-20.5,10.9-35.1,11.8c-15.8,1-29.5-3-30.2-3.6
				c-1-0.8,1.9-10.6,1.9-10.6s20,5.9,41.3-0.2c4.3-1.2,8.3-3.5,12-6.2c8.9-6.6,15.9-16.4,20.1-23.1c2.4-1.4,4.9-2.6,6.7-2.5
				C208.7,432.5,211.4,436.4,212.2,438.8z"/>
			<g>
				<linearGradient id="SVGID_105_" gradientUnits="userSpaceOnUse" x1="222.9781" y1="417.1254" x2="140.8467" y2="477.1148">
					<stop  offset="0.1179" style="stop-color:#EE5A77"/>
					<stop  offset="1" style="stop-color:#801C56"/>
				</linearGradient>
				<path class="st108" d="M188.4,466.8c-6.9,4.8-15.5,8.7-25.8,10.7c-2.9,0.6-6,0.9-9.3,1.1c-15.8,1-29.5-3-30.2-3.6
					c-1-0.8,1.9-10.6,1.9-10.6s13.1,3.9,29.3,2.1c3.9-0.4,7.9-1.2,12-2.3c4.3-1.2,8.3-3.5,12-6.2C179.2,461,182,464.2,188.4,466.8z"
					/>
				<linearGradient id="SVGID_106_" gradientUnits="userSpaceOnUse" x1="196.0785" y1="449.7383" x2="135.5742" y2="474.1975">
					<stop  offset="0.1179" style="stop-color:#EE5A77"/>
					<stop  offset="1" style="stop-color:#801C56"/>
				</linearGradient>
				<path class="st109" d="M162.5,477.4c-2.9,0.6-6,0.9-9.3,1.1c-15.8,1-29.5-3-30.2-3.6c-1-0.8,1.9-10.6,1.9-10.6
					s13.1,3.9,29.3,2.1C155.9,470.1,158.5,474.2,162.5,477.4z"/>
			</g>
		</g>
		<linearGradient id="SVGID_107_" gradientUnits="userSpaceOnUse" x1="210.8052" y1="425.3564" x2="204.1111" y2="439.2595">
			<stop  offset="8.031431e-002" style="stop-color:#5DAAC8"/>
			<stop  offset="0.9892" style="stop-color:#EF5A77"/>
		</linearGradient>
		<path class="st110" d="M214.2,433.1c0.1,0.4-0.6,2.6-2,5.7c-0.8-2.5-3.5-6.3-7.2-6.5c-1.8-0.1-4.3,1-6.7,2.5
			c2.8-4.5,4.4-7.7,4.4-7.7c0.9,0.4,2.2-0.3,3.7,0.2C207.8,427.8,213.9,431.1,214.2,433.1z"/>
	</g>
</g>
<g id="RIGHT_ARM_2">
	<g>
		<g>
			<linearGradient id="SVGID_108_" gradientUnits="userSpaceOnUse" x1="198.4274" y1="319.3911" x2="207.3477" y2="315.4474">
				<stop  offset="0" style="stop-color:#F7AFAA"/>
				<stop  offset="0.2735" style="stop-color:#EE9F99"/>
				<stop  offset="0.6708" style="stop-color:#E78E86"/>
				<stop  offset="0.9333" style="stop-color:#E58880"/>
			</linearGradient>
			<path class="st111" d="M201.9,321.8c-0.6-1.5-1.2-4-0.9-5.3s1.6-2.8,2.3-3s3-0.4,3.2-0.2c0.3,0.2,0.3,2.1-0.2,2.6
				c-0.5,0.5-1.9,1.1-2,1.6C204,318,201.9,321.8,201.9,321.8z"/>
			<linearGradient id="SVGID_109_" gradientUnits="userSpaceOnUse" x1="208.8924" y1="305.0777" x2="208.8924" y2="335.7245">
				<stop  offset="0.1436" style="stop-color:#F7AFAA"/>
				<stop  offset="0.9333" style="stop-color:#E58880"/>
			</linearGradient>
			<path class="st112" d="M213.5,334.6c0,0-0.1-7.4,0.2-7.8c0.3-0.4,1.9-2.9,2.1-4.2c0.2-1.6-0.2-7.8-1.1-8.2s-5.7-1.9-7.3-1.4
				c-1.6,0.5-3.7,2-4.3,3s-1,4.3-1.1,5.2s2.5,5,2.6,5.8c0.1,0.8-0.3,6-0.3,6L213.5,334.6z"/>
			<linearGradient id="SVGID_110_" gradientUnits="userSpaceOnUse" x1="214.0989" y1="311.165" x2="214.0989" y2="326.2057">
				<stop  offset="0.1436" style="stop-color:#F7AFAA"/>
				<stop  offset="0.9333" style="stop-color:#E58880"/>
			</linearGradient>
			<path class="st113" d="M215.8,319.9c0,0-0.2-4.1-0.4-4.9c-0.2-0.8-0.7-1.3-1.4-1.3c-1.1,0-1.7,1-1.8,1.7c0,0.7,0.3,4.4,0.3,4.4
				L215.8,319.9z"/>
			<linearGradient id="SVGID_111_" gradientUnits="userSpaceOnUse" x1="211.5426" y1="311.165" x2="211.5426" y2="326.2057">
				<stop  offset="0.1436" style="stop-color:#F7AFAA"/>
				<stop  offset="0.9333" style="stop-color:#E58880"/>
			</linearGradient>
			<path class="st114" d="M213.6,319.2c0,0-0.2-4.8-0.4-5.7c-0.2-0.9-0.8-1.6-1.6-1.6c-0.8,0-2,1.2-2,2c-0.1,0.8,0.4,5.1,0.4,5.1
				L213.6,319.2z"/>
			<linearGradient id="SVGID_112_" gradientUnits="userSpaceOnUse" x1="209.4007" y1="311.165" x2="209.4007" y2="326.2057">
				<stop  offset="0.1436" style="stop-color:#F7AFAA"/>
				<stop  offset="0.9333" style="stop-color:#E58880"/>
			</linearGradient>
			<path class="st115" d="M211.7,318.2c0,0-0.7-4.8-1-5.7c-0.3-0.9-0.9-1.5-1.8-1.4s-1.9,1.4-1.8,2.2s0.9,5.1,0.9,5.1L211.7,318.2z"
				/>
			<linearGradient id="SVGID_113_" gradientUnits="userSpaceOnUse" x1="206.9494" y1="305.1838" x2="206.9494" y2="334.3668">
				<stop  offset="0.1436" style="stop-color:#F7AFAA"/>
				<stop  offset="0.9333" style="stop-color:#E58880"/>
			</linearGradient>
			<path class="st116" d="M204.7,317.2c0,0,0.2-5.5,0.6-8.7s1.1-5.4,1.7-5.9s1.8-1,2.1-0.8s-0.4,5.7-0.5,7.9c-0.1,2.2,0,7.6,0,7.6
				H204.7z"/>
			<linearGradient id="SVGID_114_" gradientUnits="userSpaceOnUse" x1="207.1085" y1="314.7443" x2="209.8925" y2="313.5135">
				<stop  offset="0" style="stop-color:#F7AFAA"/>
				<stop  offset="0.2735" style="stop-color:#EE9F99"/>
				<stop  offset="0.6708" style="stop-color:#E78E86"/>
				<stop  offset="0.9333" style="stop-color:#E58880"/>
			</linearGradient>
			<path class="st117" d="M208.9,311.1c0,0,0.4,5.5,0.2,5.6s-0.5,0.3-0.7-1.8c-0.2-2,0.1-3.7,0.1-3.7L208.9,311.1z"/>
			<linearGradient id="SVGID_115_" gradientUnits="userSpaceOnUse" x1="209.4597" y1="315.618" x2="212.0162" y2="314.4877">
				<stop  offset="0" style="stop-color:#F7AFAA"/>
				<stop  offset="0.2735" style="stop-color:#EE9F99"/>
				<stop  offset="0.6708" style="stop-color:#E78E86"/>
				<stop  offset="0.9333" style="stop-color:#E58880"/>
			</linearGradient>
			<path class="st118" d="M211,312.1c0,0,0.4,5.5,0.2,5.6s0,0.1-0.2-1.9c-0.3-2-0.3-3.5-0.3-3.5L211,312.1z"/>
			<linearGradient id="SVGID_116_" gradientUnits="userSpaceOnUse" x1="212.0443" y1="317.2029" x2="214.6008" y2="316.0726">
				<stop  offset="0" style="stop-color:#F7AFAA"/>
				<stop  offset="0.2735" style="stop-color:#EE9F99"/>
				<stop  offset="0.6708" style="stop-color:#E78E86"/>
				<stop  offset="0.9333" style="stop-color:#E58880"/>
			</linearGradient>
			<path class="st119" d="M213.6,313.7c0,0,0.4,5.5,0.2,5.6c-0.3,0.1,0,0.1-0.2-1.9c-0.3-2-0.3-3.5-0.3-3.5L213.6,313.7z"/>
		</g>
		<linearGradient id="SVGID_117_" gradientUnits="userSpaceOnUse" x1="205.1006" y1="327.7551" x2="209.22" y2="338.4828">
			<stop  offset="0.1179" style="stop-color:#EE5A77"/>
			<stop  offset="1" style="stop-color:#801C56"/>
		</linearGradient>
		<path class="st120" d="M214.3,340.4c0,0-0.9-0.8-2.3-1.5c-0.9-0.5-2.1-0.9-3.4-1c-3.2-0.3-6.1,0.4-6.1,0.4l1.8-6.3
			c0,0,1.5-1.3,5.1-1c0.8,0.1,1.4,0.2,1.9,0.4c1.6,0.6,2.2,1.5,2.2,1.5L214.3,340.4z"/>
		<linearGradient id="SVGID_118_" gradientUnits="userSpaceOnUse" x1="215.3542" y1="330.3058" x2="212.0071" y2="337.8582">
			<stop  offset="0.1179" style="stop-color:#EE5A77"/>
			<stop  offset="1" style="stop-color:#801C56"/>
		</linearGradient>
		<path class="st121" d="M214.3,340.4c0,0-0.9-0.8-2.3-1.5c-0.1-2.4-0.4-5.7-0.6-7.5c1.6,0.6,2.2,1.5,2.2,1.5L214.3,340.4z"/>
		<linearGradient id="SVGID_119_" gradientUnits="userSpaceOnUse" x1="215.0394" y1="347.421" x2="191.6323" y2="402.747">
			<stop  offset="0.1179" style="stop-color:#EE5A77"/>
			<stop  offset="1" style="stop-color:#801C56"/>
		</linearGradient>
		<path class="st122" d="M213.1,393.7c-2,4.2-6.4,6.4-11.3,5.7c-1-0.1-2-0.4-3.1-0.7c-5.9-2.1-7.9-10.9-7.8-17.2
			c0-1.6,0.2-3,0.4-4.2c1.2-5.7,10.5-40.3,10.5-40.3s3.5-1.3,6.8-1.3c0.8,0,1.5,0.1,2.2,0.4c2.1,0.7,3.5,2.3,3.5,2.3s0.6,7.5,1,16.3
			c0.1,2,0.2,4.1,0.2,6.2C215.8,372,215.6,388.7,213.1,393.7z"/>
		<linearGradient id="SVGID_120_" gradientUnits="userSpaceOnUse" x1="197.3498" y1="336.7594" x2="206.1034" y2="375.2495">
			<stop  offset="0.1179" style="stop-color:#EE5A77"/>
			<stop  offset="1" style="stop-color:#801C56"/>
		</linearGradient>
		<path class="st123" d="M214.2,390.6c0,0.2-0.1,0.4-0.1,0.5c-0.3,1.2-0.6,2.1-0.9,2.9c-1.2,2.5-3.4,4.2-6,5.1
			c-0.4,0.1-0.9,0.3-1.4,0.4c-0.5,0.1-1,0.2-1.5,0.2c-0.3,0-0.5,0-0.8,0c-0.3,0-0.6,0-0.8,0c-1.3-0.1-2.6-0.3-3.9-0.8
			c-5.9-2-7.9-10.5-7.8-16.6c6.8,5.7,9.6,6.6,15.2,3.7c5.6-14.1,4.9-43.5,4.7-49.8c1.2,0.4,2.6,1.2,3.5,1.9c0.7,0.5,1.2,0.8,1.2,0.8
			s0.4,7.3,0.8,16.2c0.1,2,0.2,4.9,0.2,7C216.6,371.3,215.9,383.8,214.2,390.6z"/>
		<linearGradient id="SVGID_121_" gradientUnits="userSpaceOnUse" x1="235.89" y1="367.9168" x2="204.4792" y2="368.5605">
			<stop  offset="8.031431e-002" style="stop-color:#5DAAC8"/>
			<stop  offset="1" style="stop-color:#7F1C56"/>
		</linearGradient>
		<path class="st124" d="M214.2,390.6c0,0.2-0.1,0.4-0.1,0.5c-0.3,1.2-0.6,2.1-0.9,2.9c-1.2,2.5-3.4,4.2-6,5.1c2-2.7,3.2-6.6,5.4-17
			c2.7-13.3,1.6-37.8,1.7-44.2c0.7,0.5,1.2,0.8,1.2,0.8s0.4,7.3,0.8,16.2c0.1,2,0.2,4.9,0.2,7C216.6,371.3,215.9,383.8,214.2,390.6z
			"/>
		<linearGradient id="SVGID_122_" gradientUnits="userSpaceOnUse" x1="191.0885" y1="338.1833" x2="199.8423" y2="376.6743">
			<stop  offset="0.1179" style="stop-color:#EE5A77"/>
			<stop  offset="1" style="stop-color:#801C56"/>
		</linearGradient>
		<path class="st125" d="M205.8,399.4c-0.5,0.1-1,0.2-1.5,0.2C204.8,399.5,205.3,399.5,205.8,399.4z"/>
	</g>
</g>
<g id="RIGHT_ARM_1">
	<g>
		<linearGradient id="SVGID_123_" gradientUnits="userSpaceOnUse" x1="194.6095" y1="340.6818" x2="171.9515" y2="394.2371">
			<stop  offset="0.1179" style="stop-color:#EE5A77"/>
			<stop  offset="1" style="stop-color:#801C56"/>
		</linearGradient>
		<path class="st126" d="M207.6,397.4c-0.1,0.1-0.2,0.2-0.3,0.2c-3,2.2-8.1,2.7-15.9-2.2c-7.8-4.9-20.4-16.7-26.4-22.6
			c-3.1-3-6.1-7-8.1-11.3l0,0c-2.4-5.2-3.4-10.9-1.6-16.1c0.5-1.4,1.3-2.8,2.2-4.2c5.8-7.8,14-3.9,24.3,6.8
			c8.4,8.8,23,27.9,25.6,32.4c0,0.1,0.1,0.1,0.1,0.2c0.5,0.9,0.9,2,1.2,3.2C210,388.7,209.7,395.3,207.6,397.4z"/>
		<linearGradient id="SVGID_124_" gradientUnits="userSpaceOnUse" x1="190.2662" y1="342.2012" x2="179.5258" y2="378.9787">
			<stop  offset="0.1179" style="stop-color:#EE5A77"/>
			<stop  offset="1" style="stop-color:#801C56"/>
		</linearGradient>
		<path class="st127" d="M207.6,397.4c-0.1,0.1-0.2,0.2-0.3,0.2c-3,2.2-8.1,2.7-15.9-2.2c-7.8-4.9-20.4-16.7-26.4-22.6
			c-3.1-3-6.1-7-8.1-11.3l0,0c-2.4-5.2-3.4-10.9-1.6-16.1c7.2,9.2,29,32.5,52.2,35.3c0.5,0.9,0.9,2,1.2,3.2
			C210,388.7,209.7,395.3,207.6,397.4z"/>
		<linearGradient id="SVGID_125_" gradientUnits="userSpaceOnUse" x1="194.554" y1="338.2963" x2="183.0823" y2="377.5928">
			<stop  offset="0.1179" style="stop-color:#EE5A77"/>
			<stop  offset="1" style="stop-color:#801C56"/>
		</linearGradient>
		<path class="st128" d="M207.3,397.6c-3,2.2-8,2.7-15.9-2.2c-7.8-4.9-20.4-16.7-26.4-22.6c-3.1-3-6.1-7-8.1-11.3
			c5.7,4.8,19.8,16.1,29,19.1c10.3,3.4,18.9,4,22.8,3.1C210,388.9,209.7,395.9,207.3,397.6z"/>
	</g>
</g>
<g id="HEAD">
	<g>
		<linearGradient id="SVGID_126_" gradientUnits="userSpaceOnUse" x1="166.6954" y1="311.1443" x2="155.1057" y2="310.8394">
			<stop  offset="0.1436" style="stop-color:#F7AFAA"/>
			<stop  offset="0.9333" style="stop-color:#E58880"/>
		</linearGradient>
		<path class="st129" d="M165.2,312.9c-1.3,5.1-3.5,10.6-6.1,14.7c0,0.1-0.1,0.1-0.1,0.2c-1.3,2-3,3.6-4.8,4.9
			c-5.4,3.8-12.3,4.9-15.5,4.8c-4.4-0.1-12.4-23.9-5.5-40.6c7-16.6,18.7-14,22.2-11.8c6.4,4.2,9.4,8.7,10.9,15.2
			c0,0.1,0,0.2,0.1,0.3C166.8,303.8,166.4,308.2,165.2,312.9z"/>
		<linearGradient id="SVGID_127_" gradientUnits="userSpaceOnUse" x1="171.5448" y1="315.3492" x2="158.305" y2="316.9503">
			<stop  offset="0.1436" style="stop-color:#F7AFAA"/>
			<stop  offset="0.9333" style="stop-color:#E58880"/>
		</linearGradient>
		<path class="st130" d="M165.8,310.2l-6.9,5.2c0,0-0.8,7.7,0,12.4c-1.3,2-3,3.6-4.8,4.9c-2.6-4.1-7.5-12-7.5-12.3
			c0-0.5-0.2-11.3,0-11.6c0.1-0.2,16.2-6.8,19.7-8.2C166.8,303.8,166.6,305.6,165.8,310.2z"/>
		<linearGradient id="SVGID_128_" gradientUnits="userSpaceOnUse" x1="161.4376" y1="304.6345" x2="170.2854" y2="304.6345">
			<stop  offset="3.076923e-002" style="stop-color:#F7923A"/>
			<stop  offset="0.8769" style="stop-color:#FFD65B"/>
		</linearGradient>
		<path class="st131" d="M169.6,299.9c0.1,0.5-0.9,2.4-2.3,4.5c-1.5,2.3-3.4,4.7-4.5,5.9c-2.3,2.3-8.1,6.1-8.1,6.1l5.9-15.6l3-8
			C163.6,292.8,169.4,298.8,169.6,299.9z"/>
		<linearGradient id="SVGID_129_" gradientUnits="userSpaceOnUse" x1="162.6001" y1="308.4633" x2="170.8377" y2="308.3413">
			<stop  offset="3.076923e-002" style="stop-color:#F7923A"/>
			<stop  offset="0.8769" style="stop-color:#FFD65B"/>
		</linearGradient>
		<path class="st132" d="M167.3,304.4c-1.5,2.3-3.4,4.7-4.5,5.9c-2.3,2.3-8.1,6.1-8.1,6.1l5.9-15.6l3.6-0.3
			C164.2,300.6,165,302.8,167.3,304.4z"/>
		<linearGradient id="SVGID_130_" gradientUnits="userSpaceOnUse" x1="154.0677" y1="301.519" x2="169.9328" y2="298.346">
			<stop  offset="3.076923e-002" style="stop-color:#F7923A"/>
			<stop  offset="0.8769" style="stop-color:#FFD65B"/>
		</linearGradient>
		<path class="st133" d="M165.9,289.9c0,0-0.1,4.3-0.8,8.4c-0.3,1.6-0.7,3.2-1.1,4.4c-1.8,4.6-4.7,10.9-9.3,14.6
			c-1.6,1.3-1.9-2.3-1.6-7.4c0.5-9.6,3.1-25,3.1-25L165.9,289.9z"/>
		<linearGradient id="SVGID_131_" gradientUnits="userSpaceOnUse" x1="158.7382" y1="303.3293" x2="169.6404" y2="298.041">
			<stop  offset="3.076923e-002" style="stop-color:#F7923A"/>
			<stop  offset="0.8769" style="stop-color:#FFD65B"/>
		</linearGradient>
		<path class="st134" d="M165.1,298.4c-0.3,1.6-0.7,3.2-1.1,4.4c-1.8,4.6-4.7,10.9-9.3,14.6c-1.6,1.3-1.9-2.3-1.6-7.4l4.7-18.3
			c0,0,1.3,5,3.9,6.2C163,298.5,164.2,298.5,165.1,298.4z"/>
		<linearGradient id="SVGID_132_" gradientUnits="userSpaceOnUse" x1="161.1514" y1="371.6962" x2="99.6439" y2="283.8282">
			<stop  offset="3.076923e-002" style="stop-color:#F7923A"/>
			<stop  offset="0.8769" style="stop-color:#FFD65B"/>
		</linearGradient>
		<path class="st135" d="M168.9,338.2c0.1,0.7-4.2,12.9-10.7,23.5c-3.2,5.3-7,10.1-11,12.9c-12,8.5-27.2,12.5-38.9,4.2
			s-8.3-23.1-7.2-24.4c0.4-0.4,1.2-1.3,2.1-2.3c1.1-1.2,2.5-2.7,3.7-4.1c1-1.2,1.8-2.3,2.3-3.2c0.4-0.7,0.9-1.5,1.4-2.3
			c1.5-2.4,3.4-4.9,4.6-6.4c1.6-2.1,4.6-4.4,5.4-5.4c0.1-0.1,0.1-0.4,0.1-0.7c0-2.5-1.7-10.8-1.7-19.3c0-2.4,0.1-4.9,0.5-7.2
			c1.8-11.6,10.9-21.3,19-22.8c11.9-2.2,21.1,4.2,21.1,4.2s-1.2,10-2,20c-0.3,3.4-0.5,6.8-0.6,9.9c-0.1,4.1-0.1,7.5,0.4,9.2
			c0,0,0,0,0,0c0.2,0.8,0.4,1.5,0.7,2.1c0.9,2.4,1.8,3.7,2.5,4.5c0.4,0.5,0.7,0.8,0.8,1.2c0.5,1.1,3.8,1.7,4.8,2.8
			c0.1,0.1,0.1,0.2,0.2,0.3C167.2,336.2,168.8,337.2,168.9,338.2z"/>
		<linearGradient id="SVGID_133_" gradientUnits="userSpaceOnUse" x1="134.8584" y1="354.4254" x2="109.7985" y2="334.5148">
			<stop  offset="9.011291e-002" style="stop-color:#FBAD46"/>
			<stop  offset="1" style="stop-color:#FAD58D"/>
		</linearGradient>
		<path class="st136" d="M117.7,335c0,0,0.3,7.6,9,11.1s13.8,2.3,11,3.7c-2.8,1.4-7.7,4.9-16.6,0.7c-8.8-4.2-10-8.2-10-8.2
			S116,335,117.7,335z"/>
		<linearGradient id="SVGID_134_" gradientUnits="userSpaceOnUse" x1="143.9925" y1="281.6206" x2="152.5747" y2="328.6509">
			<stop  offset="3.634947e-002" style="stop-color:#FCC04F"/>
			<stop  offset="1" style="stop-color:#FAD58D"/>
		</linearGradient>
		<path class="st137" d="M150.7,299.4c0,0-0.1,6.3,0.6,11.6c0.7,5.3,1.9,9.5,1.9,9.5s-7.5-10.2-8.8-17.1c-1.4-6.9,0.3-8.9,2.3-9
			C148.7,294.3,150.6,295.8,150.7,299.4z"/>
		
			<linearGradient id="SVGID_135_" gradientUnits="userSpaceOnUse" x1="152.0287" y1="285.5224" x2="157.7703" y2="316.9863" gradientTransform="matrix(1 0 -0.1549 0.9926 46.3994 2.2095)">
			<stop  offset="3.634947e-002" style="stop-color:#FCC04F"/>
			<stop  offset="1" style="stop-color:#FAD58D"/>
		</linearGradient>
		<path class="st138" d="M156.9,297.4c0,0-0.7,4.2-0.8,7.7c-0.1,3.5,0.3,6.3,0.3,6.3s-3.9-6.8-4.1-11.3c-0.2-4.6,1.2-5.9,2.5-6
			C156,294.1,157.1,295,156.9,297.4z"/>
		<linearGradient id="SVGID_136_" gradientUnits="userSpaceOnUse" x1="139.7608" y1="320.2871" x2="140.1501" y2="283.2981">
			<stop  offset="9.011291e-002" style="stop-color:#FDCA54"/>
			<stop  offset="1" style="stop-color:#FAD58D"/>
		</linearGradient>
		<path class="st139" d="M120.5,300.5c0,0,3.3-14.6,16.9-19c10.6-3.5,22.1,3.1,22.2,3.6s-0.3,3.4-1.1,3.9
			c-0.7,0.6-12.3-4.8-21.9-2.3C129.3,288.6,120.5,300.5,120.5,300.5z"/>
		<linearGradient id="SVGID_137_" gradientUnits="userSpaceOnUse" x1="127.9172" y1="365.9285" x2="146.4547" y2="276.6739">
			<stop  offset="3.076923e-002" style="stop-color:#F7923A"/>
			<stop  offset="0.1966" style="stop-color:#F89B3E"/>
			<stop  offset="0.4978" style="stop-color:#FBB248"/>
			<stop  offset="0.8769" style="stop-color:#FFD65B"/>
		</linearGradient>
		<path class="st140" d="M158.2,361.7c-3.2,5.3-7,10.1-11,12.9c-12,8.5-27.2,12.5-38.9,4.2s-8.3-23.1-7.2-24.4
			c0.4-0.4,1.2-1.3,2.1-2.3c2.2,2.4,5.8,5.7,9.8,7c6.7,2.2,11.2,0.5,11.2,0.5s-11.5-0.3-17.3-11.7c1-1.2,1.8-2.3,2.3-3.2
			c0.4-0.7,0.9-1.5,1.4-2.3c2.1,2.5,9.3,9.9,18.5,10.3c11.1,0.5,21.5-6.2,21.7-5.6c0.2,0.7-6,17.9-20.4,20
			c-14.5,2.1-22.9-2.4-22.9-2.4s-1.5,6.7,13.2,8.8c14.6,2.1,32.5-6.7,36.1-11.4C157.4,361.6,157.9,361.5,158.2,361.7z"/>
		<linearGradient id="SVGID_138_" gradientUnits="userSpaceOnUse" x1="156.3205" y1="325.1952" x2="106.8541" y2="311.5269">
			<stop  offset="3.076923e-002" style="stop-color:#F7923A"/>
			<stop  offset="0.9923" style="stop-color:#FFD65B"/>
		</linearGradient>
		<path class="st141" d="M160.7,330.7c-1.8,0.7-6.2,2.5-8.4,4c-2.7,2-14,7.5-20.9,5.7c-6.9-1.8-10.5-10.4-10.5-10.4
			c0-2.5-1.7-10.8-1.7-19.3c2.4,6.2,6.6,14.5,12.5,16.9c9.9,4.1,17.1-2.6,16.8-3.1c-0.3-0.5-4.8-10.7-4.9-16.7c0,0,6,10.9,9.9,12.9
			c0,0-2.8-9.8-2.2-18.6c0.2-2.5,3.2,7.1,5.9,12.6c-0.1,4.1-0.1,7.5,0.4,9.2c0,0,0,0,0,0c0.2,0.8,0.4,1.5,0.7,2.1
			C159.1,328.5,160,329.8,160.7,330.7z"/>
		<linearGradient id="SVGID_139_" gradientUnits="userSpaceOnUse" x1="153.4823" y1="316.345" x2="131.8815" y2="298.5273">
			<stop  offset="3.076923e-002" style="stop-color:#F7923A"/>
			<stop  offset="0.8769" style="stop-color:#FFD65B"/>
		</linearGradient>
		<path class="st142" d="M161.5,331.8c-0.5-1-1.9-2-3.3-5.7c-0.2-0.6-0.5-1.3-0.7-2.1c-0.8-2.9-0.4-11,0.2-19.1c0,0-2,9.4-2.2,9.4
			c-0.2-0.1-0.6-1-1.7-3.4c-1.1-2.5-2.2-10.3-2.2-10.3s-0.2,6.1,1.2,10.1c1.4,4,2.4,5.6,2.8,6.4c0.4,0.8,0.4,4.3,0,4.5
			c-0.4,0.2-1.2,0.1-1.2,0.1l0,0c-1.3-1.1-2.8-2.5-4.3-4c-3.8-4.2-6.5-9.8-6.6-10.2c0.1,0.3,1.8,6,5.4,10.3c1.4,1.6,3.2,3.3,4.9,4.9
			l0,0c0,0,2.7,6.1,2.3,6.6c-0.4,0.5-2.2,1.8-2.5,2.1c-0.3,0.3,4.6-1.5,5.1-1.6c0.5-0.1,1,1.8,2.6,2.9c1.6,1.1,4.8,1.9,4.8,1.9
			C165.3,333.5,162,333,161.5,331.8z"/>
	</g>
</g>
</svg>
