<?xml version="1.0" encoding="utf-8"?>
<!-- Generator: Adobe Illustrator 19.0.0, SVG Export Plug-In . SVG Version: 6.00 Build 0)  -->
<svg version="1.1" xmlns="http://www.w3.org/2000/svg" xmlns:xlink="http://www.w3.org/1999/xlink" x="0px" y="0px"
	 viewBox="0 0 600 600" style="enable-background:new 0 0 600 600;" xml:space="preserve">
<style type="text/css">
	.st0{fill:url(#XMLID_123_);}
	.st1{fill:#F1E6E9;}
	.st2{fill:#F7EBEB;}
	.st3{fill:url(#XMLID_126_);}
	.st4{fill:url(#XMLID_127_);}
	.st5{fill:#EF5B77;}
	.st6{fill:url(#XMLID_128_);}
	.st7{fill:url(#XMLID_129_);}
	.st8{fill:url(#XMLID_130_);}
	.st9{fill:url(#XMLID_131_);}
	.st10{fill:url(#XMLID_132_);}
	.st11{fill:url(#XMLID_133_);}
	.st12{fill:url(#XMLID_134_);}
	.st13{fill:url(#XMLID_135_);}
	.st14{fill:url(#XMLID_136_);}
	.st15{fill:url(#XMLID_137_);}
	.st16{fill:url(#XMLID_138_);}
	.st17{fill:url(#XMLID_139_);}
	.st18{fill:url(#XMLID_140_);}
	.st19{fill:url(#XMLID_141_);}
	.st20{fill:url(#XMLID_142_);}
	.st21{fill:url(#XMLID_143_);}
	.st22{fill:url(#XMLID_144_);}
	.st23{fill:url(#XMLID_145_);}
	.st24{fill:#67C2C5;}
	.st25{fill:url(#XMLID_146_);}
	.st26{fill:url(#XMLID_147_);}
	.st27{fill:url(#XMLID_148_);}
	.st28{fill:url(#XMLID_149_);}
	.st29{fill:url(#XMLID_150_);}
	.st30{fill:url(#XMLID_151_);}
	.st31{fill:url(#XMLID_152_);}
	.st32{fill:url(#XMLID_153_);}
	.st33{fill:url(#XMLID_154_);}
	.st34{fill:url(#XMLID_155_);}
	.st35{fill:url(#XMLID_156_);}
	.st36{fill:url(#XMLID_157_);}
	.st37{fill:url(#XMLID_158_);}
	.st38{fill:url(#XMLID_159_);}
	.st39{fill:url(#XMLID_160_);}
	.st40{fill:url(#XMLID_161_);}
	.st41{fill:url(#XMLID_162_);}
	.st42{fill:url(#XMLID_163_);}
	.st43{fill:#F7B143;}
	.st44{fill:url(#XMLID_164_);}
	.st45{fill:url(#XMLID_165_);}
	.st46{fill:url(#XMLID_166_);}
	.st47{fill:url(#XMLID_167_);}
	.st48{fill:url(#XMLID_168_);}
	.st49{fill:url(#XMLID_169_);}
	.st50{fill:url(#XMLID_170_);}
	.st51{fill:url(#XMLID_171_);}
	.st52{fill:url(#XMLID_172_);}
	.st53{fill:url(#XMLID_173_);}
	.st54{fill:url(#XMLID_174_);}
	.st55{fill:url(#XMLID_175_);}
	.st56{fill:url(#XMLID_176_);}
	.st57{fill:url(#XMLID_177_);}
	.st58{fill:url(#XMLID_178_);}
	.st59{fill:url(#XMLID_179_);}
	.st60{fill:url(#XMLID_180_);}
	.st61{fill:url(#XMLID_182_);}
	.st62{fill:url(#XMLID_183_);}
	.st63{fill:#23255A;}
	.st64{fill:url(#XMLID_184_);}
	.st65{fill:url(#XMLID_185_);}
	.st66{fill:url(#XMLID_186_);}
	.st67{fill:url(#XMLID_187_);}
	.st68{fill:url(#XMLID_188_);}
	.st69{fill:#642A1D;}
	.st70{fill:url(#XMLID_189_);}
	.st71{fill:url(#XMLID_190_);}
	.st72{fill:url(#XMLID_191_);}
	.st73{fill:url(#XMLID_192_);}
	.st74{fill:url(#XMLID_193_);}
	.st75{fill:url(#XMLID_194_);}
	.st76{fill:url(#XMLID_195_);}
	.st77{fill:url(#XMLID_196_);}
	.st78{fill:url(#XMLID_197_);}
	.st79{fill:url(#XMLID_198_);}
	.st80{fill:url(#XMLID_199_);}
	.st81{fill:url(#XMLID_200_);}
	.st82{fill:url(#XMLID_201_);}
	.st83{fill:url(#XMLID_202_);}
	.st84{fill:url(#XMLID_203_);}
	.st85{fill:url(#XMLID_204_);}
	.st86{fill:url(#XMLID_205_);}
	.st87{fill:url(#XMLID_206_);}
	.st88{fill:url(#XMLID_207_);}
	.st89{fill:url(#XMLID_208_);}
	.st90{fill:url(#XMLID_209_);}
	.st91{fill:url(#XMLID_210_);}
	.st92{fill:url(#XMLID_211_);}
	.st93{fill:url(#XMLID_212_);}
	.st94{fill:url(#XMLID_213_);}
	.st95{fill:url(#XMLID_214_);}
	.st96{fill:url(#XMLID_215_);}
	.st97{fill:url(#XMLID_216_);}
	.st98{fill:url(#XMLID_217_);}
	.st99{fill:#DE5072;}
	.st100{fill:url(#XMLID_218_);}
	.st101{fill:url(#XMLID_219_);}
	.st102{fill:#65BEC4;}
	.st103{fill:#D5D5D5;}
	.st104{fill:url(#XMLID_220_);}
	.st105{fill:url(#XMLID_221_);}
	.st106{fill:url(#XMLID_222_);}
	.st107{fill:url(#XMLID_223_);}
	.st108{fill:url(#XMLID_224_);}
	.st109{fill:url(#XMLID_225_);}
	.st110{fill:url(#XMLID_226_);}
	.st111{fill:url(#XMLID_227_);}
	.st112{fill:url(#XMLID_228_);}
	.st113{fill:url(#XMLID_229_);}
	.st114{fill:url(#XMLID_230_);}
	.st115{fill:url(#XMLID_231_);}
	.st116{fill:url(#XMLID_232_);}
	.st117{fill:url(#XMLID_233_);}
	.st118{fill:url(#XMLID_234_);}
	.st119{fill:url(#XMLID_235_);}
	.st120{fill:url(#XMLID_236_);}
	.st121{fill:url(#XMLID_237_);}
	.st122{fill:url(#XMLID_238_);}
	.st123{fill:url(#XMLID_239_);}
	.st124{fill:url(#XMLID_240_);}
	.st125{fill:url(#XMLID_241_);}
	.st126{fill:url(#XMLID_242_);}
	.st127{fill:url(#XMLID_243_);}
	.st128{fill:url(#XMLID_244_);}
	.st129{fill:url(#XMLID_245_);}
	.st130{fill:url(#XMLID_246_);}
	.st131{fill:url(#XMLID_247_);}
	.st132{fill:url(#XMLID_248_);}
	.st133{fill:url(#XMLID_249_);}
	.st134{fill:url(#XMLID_250_);}
	.st135{fill:url(#XMLID_251_);}
	.st136{fill:url(#XMLID_252_);}
	.st137{fill:url(#XMLID_253_);}
	.st138{fill:url(#XMLID_254_);}
	.st139{fill:url(#XMLID_255_);}
	.st140{fill:url(#XMLID_256_);}
	.st141{fill:url(#XMLID_257_);}
	.st142{fill:url(#XMLID_258_);}
	.st143{fill:url(#XMLID_259_);}
	.st144{fill:url(#XMLID_260_);}
	.st145{fill:url(#XMLID_261_);}
	.st146{fill:url(#XMLID_262_);}
	.st147{fill:url(#XMLID_263_);}
	.st148{fill:url(#XMLID_264_);}
	.st149{fill:url(#XMLID_265_);}
	.st150{fill:url(#XMLID_266_);}
	.st151{fill:url(#XMLID_267_);}
	.st152{fill:url(#XMLID_268_);}
	.st153{fill:url(#XMLID_269_);}
	.st154{fill:url(#XMLID_270_);}
	.st155{fill:url(#XMLID_271_);}
	.st156{fill:url(#XMLID_272_);}
	.st157{fill:url(#XMLID_273_);}
	.st158{fill:url(#XMLID_274_);}
	.st159{fill:url(#XMLID_275_);}
	.st160{fill:url(#XMLID_276_);}
	.st161{fill:url(#XMLID_277_);}
	.st162{fill:url(#XMLID_278_);}
	.st163{fill:url(#XMLID_279_);}
	.st164{fill:url(#XMLID_280_);}
	.st165{fill:url(#XMLID_281_);}
	.st166{fill:url(#XMLID_282_);}
	.st167{fill:url(#XMLID_283_);}
</style>
<g id="FLOOR">
	<linearGradient id="XMLID_123_" gradientUnits="userSpaceOnUse" x1="310.5876" y1="538.1045" x2="310.5876" y2="531.959">
		<stop  offset="0" style="stop-color:#59AAC0"/>
		<stop  offset="1" style="stop-color:#69C2C4"/>
	</linearGradient>
	<rect id="XMLID_1_" x="173.4" y="535.7" class="st0" width="274.4" height="3.1"/>
</g>
<g id="ORNAMENT_1">
	<g id="XMLID_2404_">
		<polygon id="XMLID_58_" class="st1" points="276.1,71.8 282.1,69.8 285.9,83.6 283.1,84.8 		"/>
		<polygon id="XMLID_2412_" class="st1" points="319.9,75.3 325.4,78.2 321.4,90.7 318.7,89.4 		"/>
		<g id="XMLID_2402_">
			<polygon id="XMLID_113_" class="st1" points="183,139.4 188.1,136 196.2,151.3 193.8,153.1 			"/>
			<polygon id="XMLID_114_" class="st1" points="147.3,183.2 149.3,177.4 165.1,184.5 164.2,187.5 			"/>
			<polygon id="XMLID_116_" class="st1" points="227.2,322.8 221.1,321.7 226.2,305.1 229.2,305.5 			"/>
			<polygon id="XMLID_118_" class="st1" points="177.2,297.3 172.6,293.3 185.4,281.6 187.8,283.5 			"/>
			<polygon id="XMLID_115_" class="st1" points="270.4,319.8 264.5,321.5 261.6,304.4 264.5,303.5 			"/>
			<polygon id="XMLID_117_" class="st1" points="304.1,303.6 300,308.1 288.5,295.2 290.4,292.9 			"/>
		</g>
	</g>
</g>
<g id="ORNAMENT_2">
	<g id="XMLID_2_">
		<g id="XMLID_2403_">
			<circle id="XMLID_62_" class="st2" cx="311" cy="287.5" r="3.5"/>
			<circle id="XMLID_4_" class="st2" cx="327.5" cy="293.3" r="2.1"/>
			<circle id="XMLID_119_" class="st2" cx="314.3" cy="299.6" r="1.5"/>
		</g>
		<g id="XMLID_27_">
			<circle id="XMLID_74_" class="st2" cx="404.4" cy="113.6" r="3.5"/>
			<circle id="XMLID_73_" class="st2" cx="388.7" cy="121.3" r="2.1"/>
			<circle id="XMLID_66_" class="st2" cx="393.5" cy="107.4" r="1.5"/>
		</g>
		<g id="XMLID_75_">
			<circle id="XMLID_78_" class="st2" cx="154.5" cy="138.2" r="3.9"/>
			<circle id="XMLID_77_" class="st2" cx="137.9" cy="127.3" r="2.4"/>
			<circle id="XMLID_76_" class="st2" cx="154.1" cy="124" r="1.7"/>
		</g>
		<g id="XMLID_3_">
			<circle id="XMLID_22_" class="st2" cx="125" cy="272.3" r="6.5"/>
			<circle id="XMLID_14_" class="st2" cx="161.6" cy="269.3" r="2.7"/>
			<circle id="XMLID_26_" class="st2" cx="135.3" cy="216.7" r="2.7"/>
			<circle id="XMLID_6_" class="st2" cx="118.3" cy="240" r="3.6"/>
			<circle id="XMLID_24_" class="st2" cx="244" cy="349.1" r="4.3"/>
			<circle id="XMLID_25_" class="st2" cx="252.6" cy="330.1" r="3.2"/>
			<circle id="XMLID_23_" class="st2" cx="141.7" cy="254" r="3"/>
		</g>
	</g>
</g>
<g id="GEAR_1">
	<g id="XMLID_61_">
		<linearGradient id="XMLID_126_" gradientUnits="userSpaceOnUse" x1="243.0344" y1="227.8666" x2="244.9525" y2="194.6194">
			<stop  offset="0.1179" style="stop-color:#EE5A77"/>
			<stop  offset="1" style="stop-color:#801C56"/>
		</linearGradient>
		<path id="XMLID_60_" class="st3" d="M262.5,212.3c-2.1-10.3-12.1-18-22.5-17.1c-8.4,0.7-14.3,6.7-15.2,14.4
			c2.7-4,7.1-6.7,12.5-7.1c10.3-0.8,20.4,6.8,22.5,17.1c0.4,2,0.5,3.9,0.2,5.7C262.5,221.7,263.5,217.1,262.5,212.3z"/>
		<linearGradient id="XMLID_127_" gradientUnits="userSpaceOnUse" x1="173.8425" y1="213.7662" x2="313.8098" y2="213.7662">
			<stop  offset="0.1179" style="stop-color:#EE5A77"/>
			<stop  offset="1" style="stop-color:#801C56"/>
		</linearGradient>
		<path id="XMLID_72_" class="st4" d="M313.8,221.3l-5.2-25.8l-17.9,1.4c-2.1-4.5-4.8-8.6-7.9-12.4l10.1-13.6l-22-16.8l-10.1,13.6
			c-4.5-2-9.1-3.4-13.9-4.3l-3.6-17.8l-25.9,2.1l3.6,17.8c-4.3,1.5-8.3,3.7-11.8,6.3L194,160.3L179.3,180l15.2,11.6
			c-1.5,4.1-2.5,8.5-2.7,13.2l-17.9,1.4L179,232l17.9-1.4c2.1,4.4,4.8,8.6,7.9,12.4l-10.1,13.6l22,16.8l10.1-13.6
			c4.5,2,9.1,3.4,13.9,4.3l3.6,17.8l25.9-2.1l-3.6-17.8c4.3-1.5,8.3-3.7,11.8-6.3l15.2,11.6l14.7-19.7l-15.2-11.6
			c1.5-4.1,2.5-8.5,2.8-13.2L313.8,221.3z M247.6,232.4c-10.3,0.8-20.4-6.9-22.5-17.1c-2.1-10.3,4.7-19.3,15-20.1
			c10.4-0.8,20.4,6.8,22.5,17.1C264.6,222.6,257.9,231.6,247.6,232.4z"/>
		<g id="XMLID_81_">
			<path id="XMLID_1545_" class="st5" d="M247.4,252.9c-19.4,0-37.7-14.7-41.6-34.1c-2-10,0.1-19.7,5.8-27.3
				c5.7-7.5,14.2-12.1,24.1-12.9c20.5-1.6,40.5,13.7,44.6,34c2,10-0.1,19.7-5.8,27.3c-5.7,7.5-14.2,12.1-24.1,12.8
				C249.4,252.8,248.4,252.9,247.4,252.9z M238.7,180.4c-0.9,0-1.9,0-2.8,0.1c-9.3,0.7-17.4,5-22.7,12.1c-5.4,7.2-7.3,16.3-5.5,25.8
				c3.9,19.5,23,34,42.6,32.5l0,0c9.3-0.7,17.4-5,22.7-12.1c5.4-7.2,7.3-16.3,5.4-25.8C274.7,194.5,257.2,180.4,238.7,180.4z"/>
		</g>
		<linearGradient id="XMLID_128_" gradientUnits="userSpaceOnUse" x1="320.2683" y1="221.6717" x2="287.9801" y2="229.3441">
			<stop  offset="0.1179" style="stop-color:#EE5A77"/>
			<stop  offset="1" style="stop-color:#801C56"/>
		</linearGradient>
		<path id="XMLID_63_" class="st6" d="M313.8,221.3l-2.7,7.3l-16.2,1.3c0,0,0.7-3.4,0.8-5.1c0.1-1.8,0.2-2,0.2-2L313.8,221.3z"/>
		<linearGradient id="XMLID_129_" gradientUnits="userSpaceOnUse" x1="296.9033" y1="164.2841" x2="286.8333" y2="180.9477">
			<stop  offset="0.1179" style="stop-color:#EE5A77"/>
			<stop  offset="1" style="stop-color:#801C56"/>
		</linearGradient>
		<polygon id="XMLID_59_" class="st7" points="292.9,171 290.3,178.3 284.2,186.4 282.8,184.6 		"/>
		<linearGradient id="XMLID_130_" gradientUnits="userSpaceOnUse" x1="213.9594" y1="144.0841" x2="218.6348" y2="163.0254">
			<stop  offset="0.1179" style="stop-color:#EE5A77"/>
			<stop  offset="1" style="stop-color:#801C56"/>
		</linearGradient>
		<polygon id="XMLID_64_" class="st8" points="217.4,147.8 214.7,155.1 217.1,167.2 221,165.6 		"/>
		<linearGradient id="XMLID_131_" gradientUnits="userSpaceOnUse" x1="176.6349" y1="189.4343" x2="194.5213" y2="189.4343">
			<stop  offset="0.1179" style="stop-color:#EE5A77"/>
			<stop  offset="1" style="stop-color:#801C56"/>
		</linearGradient>
		<polygon id="XMLID_65_" class="st9" points="179.3,180 194.5,191.6 191.8,198.9 176.6,187.3 		"/>
		<linearGradient id="XMLID_132_" gradientUnits="userSpaceOnUse" x1="190.1095" y1="198.2002" x2="194.5213" y2="198.2002">
			<stop  offset="0.1179" style="stop-color:#EE5A77"/>
			<stop  offset="1" style="stop-color:#801C56"/>
		</linearGradient>
		<path id="XMLID_67_" class="st10" d="M191.8,204.8h-1.7c0,0,0.2-1.2,0.7-2.8c0.5-1.6,1-3.1,1-3.1l2.7-7.3c0,0-1.5,4.2-1.9,7.1
			C192.2,201.6,191.8,204.8,191.8,204.8z"/>
		<linearGradient id="XMLID_133_" gradientUnits="userSpaceOnUse" x1="169.0187" y1="213.0759" x2="197.071" y2="257.6719">
			<stop  offset="0.1179" style="stop-color:#EE5A77"/>
			<stop  offset="1" style="stop-color:#801C56"/>
		</linearGradient>
		<polygon id="XMLID_68_" class="st11" points="173.8,206.2 171.2,213.5 176.3,239.3 179,232 		"/>
		<linearGradient id="XMLID_134_" gradientUnits="userSpaceOnUse" x1="176.3499" y1="234.9103" x2="196.963" y2="234.9103">
			<stop  offset="0.1179" style="stop-color:#EE5A77"/>
			<stop  offset="1" style="stop-color:#801C56"/>
		</linearGradient>
		<polygon id="XMLID_69_" class="st12" points="197,230.6 194.3,237.8 176.3,239.3 179,232 		"/>
		<linearGradient id="XMLID_135_" gradientUnits="userSpaceOnUse" x1="209.5943" y1="222.3519" x2="193.5302" y2="248.9656">
			<stop  offset="0.1179" style="stop-color:#EE5A77"/>
			<stop  offset="1" style="stop-color:#801C56"/>
		</linearGradient>
		<path id="XMLID_79_" class="st13" d="M204.8,242.9l-4.3,5.2c0,0-3.2-4.4-4.4-6.7c-1.2-2.3-1.8-3.6-1.8-3.6l2.7-7.3
			c0,0,1.5,3.3,3.6,6.4C202.7,240,204.8,242.9,204.8,242.9z"/>
		<linearGradient id="XMLID_136_" gradientUnits="userSpaceOnUse" x1="180.5646" y1="261.379" x2="245.0611" y2="280.7999">
			<stop  offset="0.1179" style="stop-color:#EE5A77"/>
			<stop  offset="1" style="stop-color:#801C56"/>
		</linearGradient>
		<polygon id="XMLID_80_" class="st14" points="194.7,256.5 192,263.8 214,280.6 216.7,273.3 		"/>
		<linearGradient id="XMLID_137_" gradientUnits="userSpaceOnUse" x1="214.0217" y1="270.1263" x2="226.8382" y2="270.1263">
			<stop  offset="0.1179" style="stop-color:#EE5A77"/>
			<stop  offset="1" style="stop-color:#801C56"/>
		</linearGradient>
		<polygon id="XMLID_82_" class="st15" points="226.8,259.7 224.2,267 214,280.6 216.7,273.3 		"/>
		<linearGradient id="XMLID_138_" gradientUnits="userSpaceOnUse" x1="245.5788" y1="293.4389" x2="237.6666" y2="262.7491">
			<stop  offset="0.1179" style="stop-color:#EE5A77"/>
			<stop  offset="1" style="stop-color:#801C56"/>
		</linearGradient>
		<polygon id="XMLID_83_" class="st16" points="240.8,264 238.1,271.2 241.7,289.1 244.3,281.8 		"/>
		<linearGradient id="XMLID_139_" gradientUnits="userSpaceOnUse" x1="254.4412" y1="305.7415" x2="257.3184" y2="265.4612">
			<stop  offset="0.1179" style="stop-color:#EE5A77"/>
			<stop  offset="1" style="stop-color:#801C56"/>
		</linearGradient>
		<polygon id="XMLID_84_" class="st17" points="270.3,279.7 267.6,287 241.7,289.1 244.3,281.8 		"/>
		<linearGradient id="XMLID_140_" gradientUnits="userSpaceOnUse" x1="235.9357" y1="215.8409" x2="232.4191" y2="266.0315">
			<stop  offset="0.1179" style="stop-color:#EE5A77"/>
			<stop  offset="1" style="stop-color:#801C56"/>
		</linearGradient>
		<path id="XMLID_85_" class="st18" d="M226.8,259.7l-2.7,7.3c0,0,3.3,1.6,6.7,2.5s7.2,1.7,7.2,1.7l2.7-7.3c0,0-2.1-0.2-6.6-1.5
			C229.6,261.2,226.8,259.7,226.8,259.7z"/>
		<linearGradient id="XMLID_141_" gradientUnits="userSpaceOnUse" x1="275.3866" y1="218.605" x2="271.8701" y2="268.7956">
			<stop  offset="0.1179" style="stop-color:#EE5A77"/>
			<stop  offset="1" style="stop-color:#801C56"/>
		</linearGradient>
		<path id="XMLID_86_" class="st19" d="M266.7,261.9l1.1,5.7c0,0,3.3-1.6,5-2.7s2.9-2,2.9-2l2.7-7.3c0,0-2.1,1.7-5.9,3.7
			C268.8,261.4,266.7,261.9,266.7,261.9z"/>
		<linearGradient id="XMLID_142_" gradientUnits="userSpaceOnUse" x1="305.6551" y1="286.515" x2="281.9984" y2="262.2189">
			<stop  offset="0.1179" style="stop-color:#EE5A77"/>
			<stop  offset="1" style="stop-color:#801C56"/>
		</linearGradient>
		<polygon id="XMLID_87_" class="st20" points="293.7,267.2 291,274.5 275.8,262.9 278.5,255.6 		"/>
		<linearGradient id="XMLID_143_" gradientUnits="userSpaceOnUse" x1="304.6709" y1="286.1277" x2="298.9166" y2="257.1962">
			<stop  offset="0.1179" style="stop-color:#EE5A77"/>
			<stop  offset="1" style="stop-color:#801C56"/>
		</linearGradient>
		<polygon id="XMLID_88_" class="st21" points="308.3,247.5 305.7,254.8 291,274.5 293.7,267.2 		"/>
	</g>
</g>
<g id="GEAR_2">
	<g id="XMLID_1548_">
		<linearGradient id="XMLID_144_" gradientUnits="userSpaceOnUse" x1="310.7969" y1="145.4596" x2="311.9025" y2="126.2967">
			<stop  offset="0" style="stop-color:#69C2C4"/>
			<stop  offset="1" style="stop-color:#59AAC0"/>
		</linearGradient>
		<path id="XMLID_1572_" class="st22" d="M322,136.5c-1.2-5.9-7-10.4-12.9-9.9c-4.8,0.4-8.3,3.8-8.8,8.3c1.5-2.3,4.1-3.8,7.2-4.1
			c6-0.5,11.8,3.9,13,9.9c0.2,1.1,0.3,2.2,0.1,3.3C322,141.9,322.6,139.3,322,136.5z"/>
		<linearGradient id="XMLID_145_" gradientUnits="userSpaceOnUse" x1="270.9165" y1="137.3324" x2="351.59" y2="137.3324">
			<stop  offset="0" style="stop-color:#69C2C4"/>
			<stop  offset="1" style="stop-color:#59AAC0"/>
		</linearGradient>
		<path id="XMLID_1569_" class="st23" d="M351.6,141.7l-3-14.9l-10.3,0.8c-1.2-2.6-2.7-5-4.5-7.1l5.8-7.8l-12.7-9.7l-5.8,7.8
			c-2.6-1.2-5.3-2-8-2.5L311,98.1L296,99.3l2.1,10.3c-2.5,0.9-4.8,2.1-6.8,3.6l-8.8-6.7l-8.4,11.3l8.8,6.7c-0.9,2.4-1.4,4.9-1.6,7.6
			l-10.3,0.8l3,14.9l10.3-0.8c1.2,2.6,2.7,4.9,4.5,7.1l-5.8,7.8l12.7,9.7l5.8-7.8c2.6,1.2,5.3,2,8,2.5l2.1,10.3l14.9-1.2l-2.1-10.3
			c2.5-0.9,4.8-2.1,6.8-3.6l8.8,6.7l8.4-11.3l-8.8-6.7c0.9-2.4,1.4-4.9,1.6-7.6L351.6,141.7z M313.4,148.1c-6,0.5-11.8-4-13-9.9
			c-1.2-5.9,2.7-11.1,8.6-11.6c6-0.5,11.8,3.9,13,9.9C323.2,142.4,319.4,147.6,313.4,148.1z"/>
		<g id="XMLID_1565_">
			<path id="XMLID_1566_" class="st24" d="M313.3,159.9c-11.2,0-21.7-8.5-24-19.7c-1.2-5.8,0-11.4,3.3-15.7c3.3-4.3,8.2-7,13.9-7.4
				c11.8-0.9,23.4,7.9,25.7,19.6c1.2,5.8,0,11.4-3.3,15.7c-3.3,4.3-8.2,7-13.9,7.4C314.5,159.9,313.9,159.9,313.3,159.9z
				 M308.3,118.1c-0.5,0-1.1,0-1.6,0.1c-5.4,0.4-10,2.9-13.1,7c-3.1,4.1-4.2,9.4-3.1,14.9c2.3,11.2,13.3,19.6,24.5,18.7l0,0
				c5.4-0.4,10-2.9,13.1-7c3.1-4.1,4.2-9.4,3.1-14.9C329.1,126.2,319,118.1,308.3,118.1z"/>
		</g>
		<linearGradient id="XMLID_146_" gradientUnits="userSpaceOnUse" x1="355.3125" y1="141.889" x2="336.7025" y2="146.3112">
			<stop  offset="0" style="stop-color:#69C2C4"/>
			<stop  offset="1" style="stop-color:#59AAC0"/>
		</linearGradient>
		<path id="XMLID_1564_" class="st25" d="M351.6,141.7l-1.5,4.2l-9.4,0.7c0,0,0.4-1.9,0.5-3s0.1-1.2,0.1-1.2L351.6,141.7z"/>
		<linearGradient id="XMLID_147_" gradientUnits="userSpaceOnUse" x1="341.8456" y1="108.8123" x2="336.0414" y2="118.4167">
			<stop  offset="0" style="stop-color:#69C2C4"/>
			<stop  offset="1" style="stop-color:#59AAC0"/>
		</linearGradient>
		<polygon id="XMLID_1563_" class="st26" points="339.6,112.7 338,116.9 334.5,121.5 333.7,120.5 		"/>
		<linearGradient id="XMLID_148_" gradientUnits="userSpaceOnUse" x1="294.0389" y1="97.1695" x2="296.7336" y2="108.0868">
			<stop  offset="0" style="stop-color:#69C2C4"/>
			<stop  offset="1" style="stop-color:#59AAC0"/>
		</linearGradient>
		<polygon id="XMLID_1562_" class="st27" points="296,99.3 294.5,103.5 295.9,110.5 298.1,109.6 		"/>
		<linearGradient id="XMLID_149_" gradientUnits="userSpaceOnUse" x1="272.526" y1="123.3082" x2="282.8352" y2="123.3082">
			<stop  offset="0" style="stop-color:#69C2C4"/>
			<stop  offset="1" style="stop-color:#59AAC0"/>
		</linearGradient>
		<polygon id="XMLID_1561_" class="st28" points="274.1,117.9 282.8,124.6 281.3,128.7 272.5,122.1 		"/>
		<linearGradient id="XMLID_150_" gradientUnits="userSpaceOnUse" x1="280.2924" y1="128.3606" x2="282.8352" y2="128.3606">
			<stop  offset="0" style="stop-color:#69C2C4"/>
			<stop  offset="1" style="stop-color:#59AAC0"/>
		</linearGradient>
		<path id="XMLID_1560_" class="st29" d="M281.3,132.2h-1c0,0,0.1-0.7,0.4-1.6c0.3-0.9,0.6-1.8,0.6-1.8l1.5-4.2c0,0-0.8,2.4-1.1,4.1
			C281.5,130.3,281.3,132.2,281.3,132.2z"/>
		<linearGradient id="XMLID_151_" gradientUnits="userSpaceOnUse" x1="268.1362" y1="136.9346" x2="284.3048" y2="162.6385">
			<stop  offset="0" style="stop-color:#69C2C4"/>
			<stop  offset="1" style="stop-color:#59AAC0"/>
		</linearGradient>
		<polygon id="XMLID_1559_" class="st30" points="270.9,133 269.4,137.2 272.4,152 273.9,147.8 		"/>
		<linearGradient id="XMLID_152_" gradientUnits="userSpaceOnUse" x1="272.3617" y1="149.5194" x2="284.2426" y2="149.5194">
			<stop  offset="0" style="stop-color:#69C2C4"/>
			<stop  offset="1" style="stop-color:#59AAC0"/>
		</linearGradient>
		<polygon id="XMLID_1558_" class="st31" points="284.2,147 282.7,151.2 272.4,152 273.9,147.8 		"/>
		<linearGradient id="XMLID_153_" gradientUnits="userSpaceOnUse" x1="291.5229" y1="142.281" x2="282.264" y2="157.6205">
			<stop  offset="0" style="stop-color:#69C2C4"/>
			<stop  offset="1" style="stop-color:#59AAC0"/>
		</linearGradient>
		<path id="XMLID_1557_" class="st32" d="M288.8,154.1l-2.5,3c0,0-1.8-2.5-2.5-3.9c-0.7-1.3-1.1-2-1.1-2l1.5-4.2
			c0,0,0.9,1.9,2.1,3.7C287.5,152.5,288.8,154.1,288.8,154.1z"/>
		<linearGradient id="XMLID_154_" gradientUnits="userSpaceOnUse" x1="274.791" y1="164.7752" x2="311.965" y2="175.9689">
			<stop  offset="0" style="stop-color:#69C2C4"/>
			<stop  offset="1" style="stop-color:#59AAC0"/>
		</linearGradient>
		<polygon id="XMLID_1556_" class="st33" points="282.9,162 281.4,166.2 294.1,175.8 295.6,171.6 		"/>
		<linearGradient id="XMLID_155_" gradientUnits="userSpaceOnUse" x1="294.0748" y1="169.8169" x2="301.4619" y2="169.8169">
			<stop  offset="0" style="stop-color:#69C2C4"/>
			<stop  offset="1" style="stop-color:#59AAC0"/>
		</linearGradient>
		<polygon id="XMLID_1555_" class="st34" points="301.5,163.8 299.9,168 294.1,175.8 295.6,171.6 		"/>
		<linearGradient id="XMLID_156_" gradientUnits="userSpaceOnUse" x1="312.2635" y1="183.2537" x2="307.7031" y2="165.5649">
			<stop  offset="0" style="stop-color:#69C2C4"/>
			<stop  offset="1" style="stop-color:#59AAC0"/>
		</linearGradient>
		<polygon id="XMLID_1554_" class="st35" points="309.5,166.3 307.9,170.4 310,180.7 311.6,176.5 		"/>
		<linearGradient id="XMLID_157_" gradientUnits="userSpaceOnUse" x1="317.3715" y1="190.3446" x2="319.0298" y2="167.1281">
			<stop  offset="0" style="stop-color:#69C2C4"/>
			<stop  offset="1" style="stop-color:#59AAC0"/>
		</linearGradient>
		<polygon id="XMLID_1553_" class="st36" points="326.5,175.4 324.9,179.5 310,180.7 311.6,176.5 		"/>
		<linearGradient id="XMLID_158_" gradientUnits="userSpaceOnUse" x1="306.7054" y1="138.5283" x2="304.6786" y2="167.4568">
			<stop  offset="0" style="stop-color:#69C2C4"/>
			<stop  offset="1" style="stop-color:#59AAC0"/>
		</linearGradient>
		<path id="XMLID_1552_" class="st37" d="M301.5,163.8l-1.5,4.2c0,0,1.9,0.9,3.9,1.5c1.9,0.5,4.2,1,4.2,1l1.5-4.2
			c0,0-1.2-0.1-3.8-0.9C303.1,164.6,301.5,163.8,301.5,163.8z"/>
		<linearGradient id="XMLID_159_" gradientUnits="userSpaceOnUse" x1="329.4439" y1="140.1214" x2="327.4171" y2="169.0499">
			<stop  offset="0" style="stop-color:#69C2C4"/>
			<stop  offset="1" style="stop-color:#59AAC0"/>
		</linearGradient>
		<path id="XMLID_1551_" class="st38" d="M324.4,165.1l0.7,3.3c0,0,1.9-0.9,2.9-1.6s1.7-1.2,1.7-1.2l1.5-4.2c0,0-1.2,1-3.4,2.1
			C325.6,164.8,324.4,165.1,324.4,165.1z"/>
		<linearGradient id="XMLID_160_" gradientUnits="userSpaceOnUse" x1="346.8899" y1="179.2629" x2="333.2548" y2="165.2593">
			<stop  offset="0" style="stop-color:#69C2C4"/>
			<stop  offset="1" style="stop-color:#59AAC0"/>
		</linearGradient>
		<polygon id="XMLID_1550_" class="st39" points="340,168.1 338.4,172.3 329.7,165.6 331.2,161.4 		"/>
		<linearGradient id="XMLID_161_" gradientUnits="userSpaceOnUse" x1="346.3226" y1="179.0397" x2="343.006" y2="162.3643">
			<stop  offset="0" style="stop-color:#69C2C4"/>
			<stop  offset="1" style="stop-color:#59AAC0"/>
		</linearGradient>
		<polygon id="XMLID_1549_" class="st40" points="348.4,156.8 346.9,161 338.4,172.3 340,168.1 		"/>
	</g>
</g>
<g id="GEAR_3">
	<g id="XMLID_89_">
		<linearGradient id="XMLID_162_" gradientUnits="userSpaceOnUse" x1="228.2811" y1="105.3918" x2="244.4578" y2="105.3918">
			<stop  offset="0.1385" style="stop-color:#F7B142"/>
			<stop  offset="1" style="stop-color:#EF794A"/>
		</linearGradient>
		<path id="XMLID_111_" class="st41" d="M244.3,106.3c-0.9-4.4-5.1-7.6-9.5-7.3c-3.5,0.3-6.1,2.8-6.5,6.1c1.1-1.7,3-2.8,5.3-3
			c4.4-0.4,8.7,2.9,9.6,7.3c0.2,0.8,0.2,1.7,0.1,2.4C244.3,110.3,244.7,108.3,244.3,106.3z"/>
		<linearGradient id="XMLID_163_" gradientUnits="userSpaceOnUse" x1="206.6057" y1="106.9135" x2="266.0772" y2="106.9135">
			<stop  offset="0.1385" style="stop-color:#F7B142"/>
			<stop  offset="1" style="stop-color:#EF794A"/>
		</linearGradient>
		<path id="XMLID_108_" class="st42" d="M266.1,110.1l-2.2-10.9l-7.6,0.6c-0.9-1.9-2-3.7-3.4-5.3l4.3-5.8l-9.3-7.1l-4.3,5.8
			c-1.9-0.9-3.9-1.5-5.9-1.8l-1.5-7.6l-11,0.9l1.5,7.6c-1.8,0.7-3.5,1.6-5,2.7l-6.5-4.9l-6.2,8.4l6.5,4.9c-0.6,1.8-1,3.6-1.2,5.6
			l-7.6,0.6l2.2,10.9l7.6-0.6c0.9,1.9,2,3.6,3.4,5.3l-4.3,5.8l9.3,7.1l4.3-5.8c1.9,0.9,3.9,1.5,5.9,1.8l1.5,7.6l11-0.9l-1.5-7.6
			c1.8-0.7,3.5-1.6,5-2.7l6.5,4.9l6.2-8.4l-6.5-4.9c0.7-1.8,1.1-3.6,1.2-5.6L266.1,110.1z M237.9,114.8c-4.4,0.3-8.7-2.9-9.6-7.3
			c-0.9-4.4,2-8.2,6.4-8.5c4.4-0.3,8.7,2.9,9.6,7.3C245.2,110.6,242.3,114.5,237.9,114.8z"/>
		<g id="XMLID_107_">
			<path id="XMLID_1542_" class="st43" d="M237.9,123.8c-8.3,0-16.2-6.3-17.9-14.7c-0.9-4.3,0-8.5,2.5-11.8
				c2.4-3.2,6.1-5.2,10.4-5.5c8.9-0.7,17.4,5.9,19.2,14.6c0.9,4.3,0,8.5-2.5,11.8c-2.4,3.2-6.1,5.2-10.4,5.5
				C238.7,123.7,238.3,123.8,237.9,123.8z M234.2,93c-0.4,0-0.8,0-1.2,0c-3.9,0.3-7.3,2.1-9.5,5c-2.3,3-3.1,6.8-2.3,10.8
				c1.6,8.2,9.7,14.3,17.9,13.6l0,0c3.9-0.3,7.3-2.1,9.5-5.1c2.3-3,3.1-6.8,2.3-10.8C249.3,98.9,241.9,93,234.2,93z"/>
		</g>
		<linearGradient id="XMLID_164_" gradientUnits="userSpaceOnUse" x1="258.0453" y1="111.9356" x2="266.0772" y2="111.9356">
			<stop  offset="0.1385" style="stop-color:#F7B142"/>
			<stop  offset="1" style="stop-color:#EF794A"/>
		</linearGradient>
		<path id="XMLID_106_" class="st44" d="M266.1,110.1l-1.1,3.1l-6.9,0.5c0,0,0.3-1.4,0.4-2.2c0.1-0.7,0.1-0.8,0.1-0.8L266.1,110.1z"
			/>
		<linearGradient id="XMLID_165_" gradientUnits="userSpaceOnUse" x1="252.912" y1="92.0049" x2="257.2115" y2="92.0049">
			<stop  offset="0.1385" style="stop-color:#F7B142"/>
			<stop  offset="1" style="stop-color:#EF794A"/>
		</linearGradient>
		<polygon id="XMLID_105_" class="st45" points="257.2,88.7 256.1,91.8 253.5,95.3 252.9,94.5 		"/>
		<linearGradient id="XMLID_166_" gradientUnits="userSpaceOnUse" x1="223.9707" y1="83.0005" x2="226.63" y2="83.0005">
			<stop  offset="0.1385" style="stop-color:#F7B142"/>
			<stop  offset="1" style="stop-color:#EF794A"/>
		</linearGradient>
		<polygon id="XMLID_104_" class="st46" points="225.1,78.9 224,82 225,87.1 226.6,86.4 		"/>
		<linearGradient id="XMLID_167_" gradientUnits="userSpaceOnUse" x1="207.7922" y1="96.575" x2="215.392" y2="96.575">
			<stop  offset="0.1385" style="stop-color:#F7B142"/>
			<stop  offset="1" style="stop-color:#EF794A"/>
		</linearGradient>
		<polygon id="XMLID_103_" class="st47" points="208.9,92.6 215.4,97.5 214.3,100.6 207.8,95.7 		"/>
		<linearGradient id="XMLID_168_" gradientUnits="userSpaceOnUse" x1="213.5175" y1="100.2996" x2="215.392" y2="100.2996">
			<stop  offset="0.1385" style="stop-color:#F7B142"/>
			<stop  offset="1" style="stop-color:#EF794A"/>
		</linearGradient>
		<path id="XMLID_102_" class="st48" d="M214.2,103.1h-0.7c0,0,0.1-0.5,0.3-1.2c0.2-0.7,0.4-1.3,0.4-1.3l1.1-3.1c0,0-0.6,1.8-0.8,3
			S214.2,103.1,214.2,103.1z"/>
		<linearGradient id="XMLID_169_" gradientUnits="userSpaceOnUse" x1="205.4685" y1="110.7254" x2="208.8083" y2="110.7254">
			<stop  offset="0.1385" style="stop-color:#F7B142"/>
			<stop  offset="1" style="stop-color:#EF794A"/>
		</linearGradient>
		<polygon id="XMLID_101_" class="st49" points="206.6,103.7 205.5,106.8 207.7,117.7 208.8,114.7 		"/>
		<linearGradient id="XMLID_170_" gradientUnits="userSpaceOnUse" x1="207.6711" y1="115.8975" x2="216.4295" y2="115.8975">
			<stop  offset="0.1385" style="stop-color:#F7B142"/>
			<stop  offset="1" style="stop-color:#EF794A"/>
		</linearGradient>
		<polygon id="XMLID_100_" class="st50" points="216.4,114.1 215.3,117.1 207.7,117.7 208.8,114.7 		"/>
		<linearGradient id="XMLID_171_" gradientUnits="userSpaceOnUse" x1="215.2923" y1="117.7821" x2="219.7797" y2="117.7821">
			<stop  offset="0.1385" style="stop-color:#F7B142"/>
			<stop  offset="1" style="stop-color:#EF794A"/>
		</linearGradient>
		<path id="XMLID_99_" class="st51" d="M219.8,119.3l-1.8,2.2c0,0-1.3-1.9-1.9-2.9s-0.8-1.5-0.8-1.5l1.1-3.1c0,0,0.7,1.4,1.5,2.7
			S219.8,119.3,219.8,119.3z"/>
		<linearGradient id="XMLID_172_" gradientUnits="userSpaceOnUse" x1="214.3341" y1="130.189" x2="224.815" y2="130.189">
			<stop  offset="0.1385" style="stop-color:#F7B142"/>
			<stop  offset="1" style="stop-color:#EF794A"/>
		</linearGradient>
		<polygon id="XMLID_98_" class="st52" points="215.5,125.1 214.3,128.2 223.7,135.3 224.8,132.2 		"/>
		<linearGradient id="XMLID_173_" gradientUnits="userSpaceOnUse" x1="223.6777" y1="130.8606" x2="229.1234" y2="130.8606">
			<stop  offset="0.1385" style="stop-color:#F7B142"/>
			<stop  offset="1" style="stop-color:#EF794A"/>
		</linearGradient>
		<polygon id="XMLID_97_" class="st53" points="229.1,126.4 228,129.5 223.7,135.3 224.8,132.2 		"/>
		<linearGradient id="XMLID_174_" gradientUnits="userSpaceOnUse" x1="233.9002" y1="133.5701" x2="236.5617" y2="133.5701">
			<stop  offset="0.1385" style="stop-color:#F7B142"/>
			<stop  offset="1" style="stop-color:#EF794A"/>
		</linearGradient>
		<polygon id="XMLID_96_" class="st54" points="235,128.2 233.9,131.3 235.4,138.9 236.6,135.8 		"/>
		<linearGradient id="XMLID_175_" gradientUnits="userSpaceOnUse" x1="235.4245" y1="136.9219" x2="247.575" y2="136.9219">
			<stop  offset="0.1385" style="stop-color:#F7B142"/>
			<stop  offset="1" style="stop-color:#EF794A"/>
		</linearGradient>
		<polygon id="XMLID_95_" class="st55" points="247.6,134.9 246.4,138 235.4,138.9 236.6,135.8 		"/>
		<linearGradient id="XMLID_176_" gradientUnits="userSpaceOnUse" x1="227.9861" y1="128.8763" x2="235.0375" y2="128.8763">
			<stop  offset="0.1385" style="stop-color:#F7B142"/>
			<stop  offset="1" style="stop-color:#EF794A"/>
		</linearGradient>
		<path id="XMLID_94_" class="st56" d="M229.1,126.4l-1.1,3.1c0,0,1.4,0.7,2.9,1.1c1.4,0.4,3.1,0.7,3.1,0.7l1.1-3.1
			c0,0-0.9-0.1-2.8-0.6C230.3,127,229.1,126.4,229.1,126.4z"/>
		<linearGradient id="XMLID_177_" gradientUnits="userSpaceOnUse" x1="246.0507" y1="127.2394" x2="251.0617" y2="127.2394">
			<stop  offset="0.1385" style="stop-color:#F7B142"/>
			<stop  offset="1" style="stop-color:#EF794A"/>
		</linearGradient>
		<path id="XMLID_92_" class="st57" d="M246.1,127.4l0.5,2.4c0,0,1.4-0.7,2.1-1.2c0.7-0.5,1.2-0.9,1.2-0.9l1.1-3.1
			c0,0-0.9,0.7-2.5,1.6S246.1,127.4,246.1,127.4z"/>
		<linearGradient id="XMLID_178_" gradientUnits="userSpaceOnUse" x1="249.9245" y1="128.696" x2="257.5243" y2="128.696">
			<stop  offset="0.1385" style="stop-color:#F7B142"/>
			<stop  offset="1" style="stop-color:#EF794A"/>
		</linearGradient>
		<polygon id="XMLID_91_" class="st58" points="257.5,129.6 256.4,132.7 249.9,127.8 251.1,124.7 		"/>
		<linearGradient id="XMLID_179_" gradientUnits="userSpaceOnUse" x1="256.387" y1="126.9809" x2="263.7534" y2="126.9809">
			<stop  offset="0.1385" style="stop-color:#F7B142"/>
			<stop  offset="1" style="stop-color:#EF794A"/>
		</linearGradient>
		<polygon id="XMLID_90_" class="st59" points="263.8,121.3 262.6,124.3 256.4,132.7 257.5,129.6 		"/>
	</g>
</g>
<g id="TOOLS_2">
	<linearGradient id="XMLID_180_" gradientUnits="userSpaceOnUse" x1="165.9417" y1="88.766" x2="209.1797" y2="161.266">
		<stop  offset="0.1179" style="stop-color:#24245A"/>
		<stop  offset="1" style="stop-color:#005F8C"/>
	</linearGradient>
	<path id="XMLID_5_" class="st60" d="M180.5,114.7l-15.6-15.6c-1.8,0.6-3.9,0.2-5.4-1.3c-2.1-2.1-2.1-5.4,0-7.5
		c2.1-2.1,5.4-2.1,7.5,0c1.4,1.4,1.9,3.5,1.3,5.4l15.7,15.7c2.7-1.2,5.9-0.6,8,1.5c2.2,2.2,2.7,5.5,1.5,8.2l-5.4-5.4l-3.6,3.6
		l5.4,5.4c-2.7,1.2-5.9,0.7-8.2-1.5C179.4,120.9,179,117.4,180.5,114.7z"/>
</g>
<g id="TOOLS_3">
	<linearGradient id="XMLID_182_" gradientUnits="userSpaceOnUse" x1="333.3035" y1="35.701" x2="376.5415" y2="108.201">
		<stop  offset="0.1179" style="stop-color:#24245A"/>
		<stop  offset="1" style="stop-color:#005F8C"/>
	</linearGradient>
	<path id="XMLID_125_" class="st61" d="M363.6,104.5l15.6-15.6c-0.6-1.8-0.2-3.9,1.3-5.4c2.1-2.1,5.4-2.1,7.5,0
		c2.1,2.1,2.1,5.4,0,7.5c-1.4,1.4-3.5,1.9-5.4,1.3l-15.7,15.7c1.2,2.7,0.6,5.9-1.5,8c-2.2,2.2-5.5,2.7-8.2,1.5l5.4-5.4l-3.6-3.6
		l-5.4,5.4c-1.2-2.7-0.7-5.9,1.5-8.2C357.4,103.5,360.9,103.1,363.6,104.5z"/>
</g>
<g id="LEFT_LEG_1_1_">
	<g id="XMLID_2448_">
		<g id="XMLID_30_">
			<linearGradient id="XMLID_183_" gradientUnits="userSpaceOnUse" x1="391.9388" y1="262.643" x2="407.6588" y2="401.2272">
				<stop  offset="0.1179" style="stop-color:#24245A"/>
				<stop  offset="1" style="stop-color:#343977"/>
			</linearGradient>
			<path id="XMLID_2485_" class="st62" d="M426,348.6c-1.8,30.3-3.1,65.8-6.5,77.3c-2.1,7.3-7.3,9-11.7,7.5
				c-2.6-0.9-4.9-2.9-6.3-5.6c-3.7-7.3-9.1-22.5-20.9-66.4c-3.2-12.1-5.6-21.7-7.3-29.4c-4.5-20.2-4.5-26.5-4.5-26.5
				c4.4-0.1,8.5-0.3,12.3-0.6c30.4-2.2,42.5-8.8,42.5-8.8s1.9,9.8,2.5,25.4C426.5,329.3,426.6,338.5,426,348.6z"/>
			<path id="XMLID_2461_" class="st63" d="M426.2,321.5c-9.9,4.1-23.2,8.1-40.2,9.8c-4.6,0.5-8.8,0.7-12.7,0.8
				c-4.5-20.2-4.5-26.5-4.5-26.5c39.4-1,54.9-9.4,54.9-9.4S425.5,306,426.2,321.5z"/>
		</g>
		<linearGradient id="XMLID_184_" gradientUnits="userSpaceOnUse" x1="385.9782" y1="354.8764" x2="421.1396" y2="425.1992">
			<stop  offset="0.1179" style="stop-color:#24245A"/>
			<stop  offset="1" style="stop-color:#343977"/>
		</linearGradient>
		<path id="XMLID_2483_" class="st64" d="M407.7,433.4c-2.6-0.9-4.9-2.9-6.3-5.6c-3.7-7.3-9.1-22.5-20.9-66.4
			c-3.2-12.1-5.6-21.7-7.3-29.4c-4.5-20.2-4.5-26.5-4.5-26.5c4.4-0.1,8.5-0.3,12.3-0.6c2.4,2.3,4.6,6.4,5.8,13.7
			c0,0,9.1,61.6,14.9,87.7C404,416.1,406.3,425.6,407.7,433.4z"/>
		
			<linearGradient id="XMLID_185_" gradientUnits="userSpaceOnUse" x1="415.2671" y1="432.1014" x2="421.6573" y2="323.4669" gradientTransform="matrix(1 -8.777855e-003 8.777855e-003 1 -1.6601 7.479)">
			<stop  offset="3.730356e-002" style="stop-color:#18759A"/>
			<stop  offset="1" style="stop-color:#343977"/>
		</linearGradient>
		<path id="XMLID_2467_" class="st65" d="M420.5,328.3c-3.5,5.2-0.4,48-0.5,77.6c0,5.4,5.3-62.3,5.5-67.6
			C425.9,325.4,423,324.7,420.5,328.3z"/>
		<path id="XMLID_2494_" class="st63" d="M419.8,322.5c0,0,1.2,39.7,0.4,63.9s-0.8,24.2-0.8,24.2s0-43.2-1-62.9
			c-1-19.6-1.9-25-1.9-25L419.8,322.5z"/>
	</g>
</g>
<g id="LEFT_LEG_2_1_">
	<g id="XMLID_2490_">
		<g id="XMLID_2455_">
			<g id="XMLID_38_">
				<linearGradient id="XMLID_186_" gradientUnits="userSpaceOnUse" x1="417.038" y1="515.6407" x2="414.4783" y2="487.4849">
					<stop  offset="0.1436" style="stop-color:#F7AFAA"/>
					<stop  offset="0.9333" style="stop-color:#E58880"/>
				</linearGradient>
				<path id="XMLID_2471_" class="st66" d="M420.7,497.1l0,8.3l0,4.8c0,0-1.1,2.2-3.3,2.9c-2.2,0.7-5.3-0.9-5.3-0.9l-0.7-5.5
					l-1.1-8.8L420.7,497.1z"/>
				<linearGradient id="XMLID_187_" gradientUnits="userSpaceOnUse" x1="415.6478" y1="491.8227" x2="415.2342" y2="506.7146">
					<stop  offset="0.1436" style="stop-color:#F7AFAA"/>
					<stop  offset="0.9333" style="stop-color:#E58880"/>
				</linearGradient>
				<path id="XMLID_2469_" class="st67" d="M420.7,497.1l0,8.3c-1.2,0.3-2.5,0.6-4,0.9c-2.3,0.4-4,0.5-5.3,0.4l-1.1-8.8L420.7,497.1
					z"/>
			</g>
			<g id="XMLID_40_">
				<linearGradient id="XMLID_188_" gradientUnits="userSpaceOnUse" x1="426.1331" y1="515.067" x2="427.3944" y2="586.961">
					<stop  offset="0" style="stop-color:#7E331A"/>
					<stop  offset="1" style="stop-color:#642B1D"/>
				</linearGradient>
				<path id="XMLID_2476_" class="st68" d="M443.8,533.9c0.3,1.8-2.9,3.8-7.3,4.1c-5.8,0.5-13.3-2.2-17.6-7.8
					c-4.3-5.7-9.7-8.2-9.7-8.2s-0.5-2.1-0.1-6.2c0-0.2,0-0.3,0.1-0.5c0.5-4.4,2.3-6.5,2.3-6.5c5.2,3.1,9.2-0.9,9.2-0.9
					s2.3,2.4,6.1,8.5c3.8,6.1,11.7,14,15.5,15.9C443.2,532.7,443.7,533.3,443.8,533.9z"/>
				<path id="XMLID_41_" class="st69" d="M416.5,523.3c0,0-2.5,1.9-3.3,6.2s-0.3,6.1-0.3,6.1l-3,0.1c0,0-0.9-10.4-0.9-14.3
					c-0.1-3.9-0.1-3.9-0.1-3.9L416.5,523.3z"/>
				<path id="XMLID_2465_" class="st69" d="M443.8,533.9c0.3,1.8-2.9,3.8-7.3,4.1c-5.8,0.5-13.3-2.2-17.6-7.8
					c-4.3-5.7-9.7-8.2-9.7-8.2s-0.5-2.1-0.1-6.2c2-0.1,5.1,0.9,9.1,5.9c7,9,14.7,14.1,19.9,13.7C439.9,535.2,442,534.6,443.8,533.9z
					"/>
				<linearGradient id="XMLID_189_" gradientUnits="userSpaceOnUse" x1="426.4222" y1="500.743" x2="429.2584" y2="520.3599">
					<stop  offset="0" style="stop-color:#7E331A"/>
					<stop  offset="1" style="stop-color:#913D22"/>
				</linearGradient>
				<path id="XMLID_36_" class="st70" d="M423.6,516c-2.5,0.9-2.1,4,3.1,9.9c5.2,5.9,11.6,7.9,11.1,5.6c-0.5-2.3-7.4-8.1-9.3-10.7
					S425.3,515.4,423.6,516z"/>
			</g>
		</g>
		<g id="XMLID_2480_">
			<g id="XMLID_34_">
				<linearGradient id="XMLID_190_" gradientUnits="userSpaceOnUse" x1="392.2218" y1="262.6231" x2="407.9399" y2="401.1908">
					<stop  offset="0.1179" style="stop-color:#24245A"/>
					<stop  offset="1" style="stop-color:#343977"/>
				</linearGradient>
				<path id="XMLID_2487_" class="st71" d="M422.6,500.6c0,0-2.1,1.6-6.7,1.6c-0.7,0-1.3,0-1.9,0c-4.5-0.2-6.3-1-6.3-1
					s-0.3-9.2-2.6-25.2s-3.5-33.6-7-48.1c-2.9-12.2-0.7-19.9,4.8-22.2c1-0.4,2.2-0.7,3.4-0.8c18.6-1,17.9,18,18.6,43.3
					S422.6,500.6,422.6,500.6z"/>
				<linearGradient id="XMLID_191_" gradientUnits="userSpaceOnUse" x1="396.2295" y1="375.459" x2="407.2605" y2="478.3233">
					<stop  offset="0.1179" style="stop-color:#24245A"/>
					<stop  offset="1" style="stop-color:#343977"/>
				</linearGradient>
				<path id="XMLID_2484_" class="st72" d="M414,502.2c-4.5-0.2-6.3-1-6.3-1s-0.3-9.2-2.6-25.2s-3.5-33.6-7-48.1
					c-2.9-12.2-0.7-19.9,4.8-22.2c0.7,10.4,4.4,62.1,7.3,75.9C411.9,489.3,413.2,496.7,414,502.2z"/>
				
					<linearGradient id="XMLID_192_" gradientUnits="userSpaceOnUse" x1="290.202" y1="354.7749" x2="292.4902" y2="417.7025" gradientTransform="matrix(0.7954 -7.410967e-002 9.277333e-002 0.9957 151.466 64.0071)">
					<stop  offset="3.730356e-002" style="stop-color:#18759A"/>
					<stop  offset="1" style="stop-color:#343977"/>
				</linearGradient>
				<path id="XMLID_2474_" class="st73" d="M418.8,427c-2,4.5,1.8,53.2,4.1,56.7c2.3,3.5,1.5-51-0.1-55
					C421.2,424.7,420.2,423.9,418.8,427z"/>
			</g>
			<g id="XMLID_35_">
				<linearGradient id="XMLID_193_" gradientUnits="userSpaceOnUse" x1="415.5049" y1="477.7469" x2="413.7589" y2="523.1428">
					<stop  offset="0.1179" style="stop-color:#24245A"/>
					<stop  offset="1" style="stop-color:#343977"/>
				</linearGradient>
				<path id="XMLID_2495_" class="st74" d="M425.5,488l-0.1,12.5c0,0-1.7,2.2-8.5,3.1c-0.2,0-0.5,0.1-0.7,0.1c-6.3,0.7-9.6-1-9.6-1
					l-2.2-12l2.4-1.7c0,0,5.9,2.2,10.5,1.4c0.6-0.1,1.2-0.2,1.8-0.4c3.4-0.9,4.7-2.2,4.7-2.2L425.5,488z"/>
				<linearGradient id="XMLID_194_" gradientUnits="userSpaceOnUse" x1="408.4502" y1="506.8535" x2="419.6191" y2="495.9948">
					<stop  offset="0.1179" style="stop-color:#24245A"/>
					<stop  offset="1" style="stop-color:#343977"/>
				</linearGradient>
				<path id="XMLID_2491_" class="st75" d="M425.5,488l-0.1,12.5c0,0-1.7,2.2-8.5,3.1c-0.2,0-0.5,0.1-0.7,0.1
					c1.3-1.5,2.3-3.6,1.7-6.2c-0.9-4.2-3.2-5.2-4.5-5.4c1.2,0,3.1-0.1,4.6-0.6c0.7-0.2,1-0.7,1.1-1.3c3.4-0.9,4.7-2.2,4.7-2.2
					L425.5,488z"/>
			</g>
		</g>
	</g>
</g>
<g id="RIGHT_LEG_1_1_">
	<g id="XMLID_2446_">
		<g id="XMLID_31_">
			<linearGradient id="XMLID_195_" gradientUnits="userSpaceOnUse" x1="350.8477" y1="267.3071" x2="366.5668" y2="405.8832">
				<stop  offset="0.1179" style="stop-color:#24245A"/>
				<stop  offset="1" style="stop-color:#343977"/>
			</linearGradient>
			<path id="XMLID_2481_" class="st76" d="M382.9,330.6c0,0.3,0,0.6,0,1c-1.1,19.1-3.7,27.1-9.9,48.7c-6.3,21.9-9.9,41.8-13.1,47.5
				c-0.5,0.9-1.2,1.7-2.1,2.3c-4.9,3.5-14.9,2.7-16.4-7.3c-1.8-11.8-5.2-41.5-3.7-76.3c0.3-7.8,0.7-14.4,1.2-19.9
				c1.4-19.1,3-25.5,3-25.5l29.1,1.3l11.1,0.5C382.1,302.9,383.9,310.8,382.9,330.6z"/>
			<path id="XMLID_2464_" class="st63" d="M382.9,330.6c0,0.3,0,0.6,0,1c-23.1,1.9-36.7-1.7-44-4.9c1.4-19.1,3-25.5,3-25.5l40.2,1.8
				C382.1,302.9,383.9,310.8,382.9,330.6z"/>
		</g>
		<linearGradient id="XMLID_196_" gradientUnits="userSpaceOnUse" x1="370.9467" y1="356.4509" x2="356.1057" y2="459.4101">
			<stop  offset="0.1179" style="stop-color:#24245A"/>
			<stop  offset="1" style="stop-color:#343977"/>
		</linearGradient>
		<path id="XMLID_2479_" class="st77" d="M382.9,330.6c0,0.3,0,0.6,0,1c-1.1,19.1-3.7,27.1-9.9,48.7c-6.3,21.9-9.9,41.8-13.1,47.5
			c-0.5,0.9-1.2,1.7-2.1,2.3c0.5-4.7,0.6-13.3,2-23.2c3.6-23.7,8.3-91.8,8.3-91.8c0.3-4.9,1.4-9.1,2.9-12.6l11.1,0.5
			C382.1,302.9,383.9,310.8,382.9,330.6z"/>
		
			<linearGradient id="XMLID_197_" gradientUnits="userSpaceOnUse" x1="332.1371" y1="429.2132" x2="338.6516" y2="318.4661" gradientTransform="matrix(0.9996 -2.694849e-002 2.694849e-002 0.9996 -5.0386 21.7662)">
			<stop  offset="3.730356e-002" style="stop-color:#18759A"/>
			<stop  offset="1" style="stop-color:#343977"/>
		</linearGradient>
		<path id="XMLID_2468_" class="st78" d="M338.4,336.4c-0.3,12.7,0.6,55.8,2.9,75c0.6,5.3,5.4-74.2,3.4-79.1
			C342.6,327.3,338.4,332.2,338.4,336.4z"/>
		<path id="XMLID_2496_" class="st63" d="M346.2,320.9c0,0-1.2,33.7-2.1,56c-0.8,22.2-1,25.1-1,25.1s-0.6-42.2-0.4-57.7
			c0.2-15.5,0.6-25.5,0.6-25.5L346.2,320.9z"/>
	</g>
</g>
<g id="RIGHT_LEG_2_1_">
	<g id="XMLID_2489_">
		<g id="XMLID_2457_">
			<g id="XMLID_37_">
				<linearGradient id="XMLID_198_" gradientUnits="userSpaceOnUse" x1="353.1057" y1="495.9673" x2="353.2091" y2="524.3032">
					<stop  offset="0.1436" style="stop-color:#F7AFAA"/>
					<stop  offset="0.9333" style="stop-color:#E58880"/>
				</linearGradient>
				<path id="XMLID_2473_" class="st79" d="M358.2,495.9l-0.1,6l-0.1,5.9c0,0-1.2,3.7-4.3,4.2c-3.1,0.5-5.2-2.2-5.2-2.2l-0.3-6.8
					l-0.2-6.1L358.2,495.9z"/>
				<linearGradient id="XMLID_199_" gradientUnits="userSpaceOnUse" x1="352.9936" y1="488.5046" x2="353.2005" y2="502.8795">
					<stop  offset="0.1436" style="stop-color:#F7AFAA"/>
					<stop  offset="0.9333" style="stop-color:#E58880"/>
				</linearGradient>
				<path id="XMLID_2470_" class="st80" d="M358.2,495.9l-0.1,6c-0.7,0.3-1.4,0.6-2.1,0.8c-3.1,0.8-5.8,0.6-7.8,0.3l-0.2-6.1
					L358.2,495.9z"/>
			</g>
			<g id="XMLID_2440_">
				<linearGradient id="XMLID_200_" gradientUnits="userSpaceOnUse" x1="339.6728" y1="519.3521" x2="340.9832" y2="594.0426">
					<stop  offset="0" style="stop-color:#7E331A"/>
					<stop  offset="1" style="stop-color:#642B1D"/>
				</linearGradient>
				<path id="XMLID_2475_" class="st81" d="M362.1,516.9c-0.2,1.2-0.5,2-0.5,2s-3.5,3-9.3,6.6c-5.8,3.6-10.3,8.4-17.5,11.3
					c-7.2,2.9-15.3,0.5-17.4-0.8c-0.4-0.2-0.4-0.5-0.2-0.8c0.9-1.5,7.5-4.4,14.5-10.8c8.4-7.7,16.4-19.1,16.4-19.1
					c4.5,2.7,10-0.8,10-0.8s2.4,1.3,3.7,5.7C362.7,512.7,362.4,515.2,362.1,516.9z"/>
				<path id="XMLID_39_" class="st69" d="M354.7,520.3c0,0,2.4,4,3.3,8.8s0.9,4.8,0.9,4.8l2.4-0.3c0,0,0.5-8.1,0.6-12
					c0.1-3.9,0.1-3.9,0.1-3.9S356.5,518.6,354.7,520.3z"/>
				<linearGradient id="XMLID_201_" gradientUnits="userSpaceOnUse" x1="329.4401" y1="514.4563" x2="338.2649" y2="524.66">
					<stop  offset="0" style="stop-color:#7E331A"/>
					<stop  offset="1" style="stop-color:#642B1D"/>
				</linearGradient>
				<path id="XMLID_2472_" class="st82" d="M362.1,516.9c-0.2,1.2-0.5,2-0.5,2s-3.5,3-9.3,6.6c-5.8,3.6-10.3,8.4-17.5,11.3
					c-7.2,2.9-15.3,0.5-17.4-0.8c-0.4-0.2-0.4-0.5-0.2-0.8c2-0.3,4.6-0.5,8-0.6c10.6-0.1,11.7-5.4,21.4-13.4
					C355,514.1,360.9,516.3,362.1,516.9z"/>
				
					<linearGradient id="XMLID_202_" gradientUnits="userSpaceOnUse" x1="1218.5444" y1="560.0508" x2="1221.3806" y2="579.6677" gradientTransform="matrix(-0.99 -0.1408 -0.1408 0.99 1630.6665 115.2168)">
					<stop  offset="0" style="stop-color:#7E331A"/>
					<stop  offset="1" style="stop-color:#913D22"/>
				</linearGradient>
				<path id="XMLID_2433_" class="st83" d="M346.1,513.6c2.4,1.2,1.5,4.3-4.5,9.4s-12.6,6.1-11.7,4c0.8-2.2,8.5-6.9,10.7-9.2
					C342.8,515.4,344.4,512.7,346.1,513.6z"/>
			</g>
		</g>
		<g id="XMLID_2486_">
			<g id="XMLID_32_">
				<linearGradient id="XMLID_203_" gradientUnits="userSpaceOnUse" x1="334.4455" y1="269.1673" x2="350.1643" y2="407.7404">
					<stop  offset="0.1179" style="stop-color:#24245A"/>
					<stop  offset="1" style="stop-color:#343977"/>
				</linearGradient>
				<path id="XMLID_2482_" class="st84" d="M363.6,448.2c-2.4,12.7-4.4,48.9-4.4,48.9s-2.1,1-5.6,1.9c-0.1,0-0.2,0-0.3,0.1
					c-3.4,0.7-6.5-0.6-6.5-0.6s-2.6-17.6-4-36.6c-1.4-19-2.3-43.7-2.3-43.7c-0.3-11.3,7-13.1,12.4-12.5c2.4,0.2,4.7,1,6.6,2.4
					c2.3,1.7,4.1,4.5,5.1,8.4C366.4,423.7,366.1,435.5,363.6,448.2z"/>
				<linearGradient id="XMLID_204_" gradientUnits="userSpaceOnUse" x1="356.8713" y1="389.5141" x2="360.1806" y2="478.8654">
					<stop  offset="0.1179" style="stop-color:#24245A"/>
					<stop  offset="1" style="stop-color:#343977"/>
				</linearGradient>
				<path id="XMLID_2478_" class="st85" d="M363.6,448.2c-2.4,12.7-4.4,48.9-4.4,48.9s-2.1,1-5.6,1.9c-0.1,0-0.2,0-0.3,0.1
					c0.8-3.7,2.4-12.7,3-30c0.7-19.4,2.5-49.8,3.2-61c2.3,1.7,4.1,4.5,5.1,8.4C366.4,423.7,366.1,435.5,363.6,448.2z"/>
				
					<linearGradient id="XMLID_205_" gradientUnits="userSpaceOnUse" x1="200.9572" y1="361.912" x2="203.7149" y2="437.7502" gradientTransform="matrix(0.7968 -5.630649e-002 7.048663e-002 0.9975 155.6325 49.4176)">
					<stop  offset="3.730356e-002" style="stop-color:#18759A"/>
					<stop  offset="1" style="stop-color:#343977"/>
				</linearGradient>
				<path id="XMLID_2477_" class="st86" d="M344.3,433c-1.8,4,1,47.5,3.1,50.6c2,3.1,1.9-45.5,0.5-49
					C346.4,431,345.5,430.3,344.3,433z"/>
			</g>
			<g id="XMLID_33_">
				<linearGradient id="XMLID_206_" gradientUnits="userSpaceOnUse" x1="353.1771" y1="475.6578" x2="351.4516" y2="520.522">
					<stop  offset="0.1179" style="stop-color:#24245A"/>
					<stop  offset="1" style="stop-color:#343977"/>
				</linearGradient>
				<path id="XMLID_2492_" class="st87" d="M361.7,486.8l-0.7,11c0,0-1.3,1.8-5.7,3c-1.6,0.4-3.3,0.4-4.8,0.3c-2.8-0.2-5-1.1-5-1.1
					l-1.8-11.6l1.7-1.2c0,0,0.6,1.1,3.6,1.2c0.9,0.1,2,0,3.3-0.1c5.6-0.8,7.6-2.3,7.6-2.3L361.7,486.8z"/>
				<linearGradient id="XMLID_207_" gradientUnits="userSpaceOnUse" x1="356.4408" y1="499.8308" x2="345.6856" y2="489.696">
					<stop  offset="0.1179" style="stop-color:#24245A"/>
					<stop  offset="1" style="stop-color:#343977"/>
				</linearGradient>
				<path id="XMLID_2488_" class="st88" d="M356,488.9c-0.8,0.6-3.9,3-4.6,6.8c-0.4,2.3-0.7,4.1-0.8,5.3c-2.8-0.2-5-1.1-5-1.1
					l-1.8-11.6l1.7-1.2c0,0,0.6,1.1,3.6,1.2l-1.4,1.5c0,0,0.2,0.9,4.3,0.1C354.7,489.4,355.6,489.1,356,488.9z"/>
			</g>
		</g>
	</g>
</g>
<g id="HAIR">
	<g id="XMLID_15_">
		<linearGradient id="XMLID_208_" gradientUnits="userSpaceOnUse" x1="382.5941" y1="134.5036" x2="396.4614" y2="204.0641">
			<stop  offset="0" style="stop-color:#5E5441"/>
			<stop  offset="0.9247" style="stop-color:#4F443B"/>
		</linearGradient>
		<path id="XMLID_2449_" class="st89" d="M417.3,217.7C417.3,217.7,417.3,217.7,417.3,217.7c-9.4,10.9-16.6,3.7-31.5,0.2
			c-8.3-1.9-12.9-5.5-14.8-10.2c-1.6-3.8-1.4-8.2-0.1-13.1c2.8-10.2,10.1-8.6,14.9-17.3c0.3-0.6,0.7-1.3,1-2.1
			c4.6-11.1-12.6-17.9-12.6-17.9s0.1-3,1.2-6.1c0.2-0.6,0.5-1.3,0.9-1.9c0.1-0.3,0.3-0.5,0.5-0.8c0.9-1.4,2.2-2.6,3.9-3.3
			c6.3-2.4,15.1-2.8,19.1-2.6c8,0.3,14.2,11.3,14,18.1c0,1.9-4.2,11.2-4.8,16.4c-0.9,7.6,2,4.4,9.7,17.1
			C422.2,199.9,426.7,206.8,417.3,217.7z"/>
		<linearGradient id="XMLID_209_" gradientUnits="userSpaceOnUse" x1="405.1433" y1="157.401" x2="409.2722" y2="141.1384">
			<stop  offset="0" style="stop-color:#5E5441"/>
			<stop  offset="0.9247" style="stop-color:#B0A05A"/>
		</linearGradient>
		<path id="XMLID_2434_" class="st90" d="M400,142.7c0,0,3.4,0.2,6.6,3.1s5.3,6.6,6,9.7s0.6,4.7,0.6,4.7s-1.2-4.7-4.2-9.2
			C406,146.6,401.5,143.2,400,142.7z"/>
		<linearGradient id="XMLID_210_" gradientUnits="userSpaceOnUse" x1="407.8128" y1="127.5389" x2="397.5838" y2="177.8074">
			<stop  offset="0" style="stop-color:#5E5441"/>
			<stop  offset="1" style="stop-color:#413830"/>
		</linearGradient>
		<path id="XMLID_2441_" class="st91" d="M417.3,217.7c-9.4,10.8-16.5,3.6-31.4,0.1c-8.3-1.9-12.9-5.5-14.8-10.2
			c1.6-6.2,3.8-11.5,6.2-14.2c8.4-9.2,11.6-10.3,11.9-13.4c0.1-1.2-1.4-2.1-3.3-2.9c-2.1-1.2-3.8-3-6.4-6.1
			c-4.2-5-5.2-13.9-5.2-13.9s0.1-3,1.2-6.1c4.1,1.4,5.4,0.8,5.4,0.8s-2.8-1-4.5-2.6c0,0,0-0.1-0.1-0.1c0.1-0.3,0.3-0.5,0.5-0.8
			c2.2,0.7,5.8,1.6,9.4,1.3c5.8-0.5,7.8-1.9,7.8-1.9s2.8,6.6,7.7,9.2c4.9,2.6,6.7,2.4,6.7,2.4s2.1,7.8-3.1,13.2
			c-5.2,5.4-6.6,7.9-2.9,12.6C405.2,189.3,418.8,195.8,417.3,217.7z"/>
	</g>
</g>
<g id="SCREEN">
	<g id="XMLID_122_">
		<g id="XMLID_1540_">
			<linearGradient id="XMLID_211_" gradientUnits="userSpaceOnUse" x1="310.191" y1="135.2862" x2="282.4756" y2="174.9979">
				<stop  offset="0" style="stop-color:#E0EDF3"/>
				<stop  offset="1" style="stop-color:#ADD9E5"/>
			</linearGradient>
			<path id="XMLID_357_" class="st92" d="M325.5,215c-6.7,0.8-16.5,0.9-31.3,0.4c-20.8-0.7-37.5-1.9-45.4-2.8
				c-1.6-0.2-2.9-1.4-3.1-3l-5.7-33.5l-2.6-15.5l-3.2-18.7c-0.4-2.5,1.9-4.7,4.4-4.1c35.2,8.1,68.5,10.5,78.3,11.1
				c1.7,0.1,3.1,1.4,3.4,3l2.9,18.3l3.5,21.8l2.7,17C329.7,211,328.9,214.6,325.5,215z"/>
			<linearGradient id="XMLID_212_" gradientUnits="userSpaceOnUse" x1="233.7904" y1="137.8562" x2="350.2246" y2="230.1248">
				<stop  offset="0" style="stop-color:#E0EDF3"/>
				<stop  offset="1" style="stop-color:#D1E2EE"/>
			</linearGradient>
			<path id="XMLID_2410_" class="st93" d="M327.5,212.7c-6.7,0.8-16.5,0.9-31.3,0.4c-20.8-0.7-37.5-1.9-45.4-2.8
				c-1.6-0.2-2.9-1.4-3.1-3l-5.7-33.5l-2.6-15.5l-3.2-18.7c-0.4-2.5,1.9-4.7,4.4-4.1c35.2,8.1,68.5,10.5,78.3,11.1
				c1.7,0.1,3.1,1.4,3.4,3l2.9,18.3l3.5,21.8l2.7,17C331.8,208.8,331,212.3,327.5,212.7z"/>
			<linearGradient id="XMLID_213_" gradientUnits="userSpaceOnUse" x1="288.0948" y1="224.7968" x2="287.5433" y2="210.4565">
				<stop  offset="0" style="stop-color:#E0EDF3"/>
				<stop  offset="1" style="stop-color:#D1E2EE"/>
			</linearGradient>
			<path id="XMLID_2409_" class="st94" d="M327.5,212.7c-6.7,0.8-16.5,0.9-31.3,0.4c-20.8-0.7-37.5-1.9-45.4-2.8
				c-1.6-0.2-2.9-1.4-3.1-3l-1.5-8.8l-4.2-24.7c11.7,8.2,28.7,16.6,51,19.3c18.1,2.2,29,0.1,35.7-3.4l1.9,11.9l0.8,5
				C331.8,208.8,331,212.3,327.5,212.7z"/>
			<linearGradient id="XMLID_214_" gradientUnits="userSpaceOnUse" x1="287.9743" y1="186.0339" x2="289.0774" y2="206.9928">
				<stop  offset="0" style="stop-color:#E0EDF3"/>
				<stop  offset="1" style="stop-color:#D1E2EE"/>
			</linearGradient>
			<path id="XMLID_2405_" class="st95" d="M327.5,212.7c-6.7,0.8-16.5,0.9-31.3,0.4c-20.8-0.7-37.5-1.9-45.4-2.8
				c-1.6-0.2-2.9-1.4-3.1-3l-1.5-8.8c8.8,1.7,19.8,3.3,32.5,4.3c23.1,1.8,41.6,0.3,51.9-1.1l0.8,5
				C331.8,208.8,331,212.3,327.5,212.7z"/>
			<linearGradient id="XMLID_215_" gradientUnits="userSpaceOnUse" x1="295.963" y1="186.5242" x2="289.3443" y2="172.1839">
				<stop  offset="0" style="stop-color:#E0EDF3"/>
				<stop  offset="1" style="stop-color:#D1E2EE"/>
			</linearGradient>
			<path id="XMLID_2406_" class="st96" d="M325.2,167.9c-6.8-1.9-17.4-5.9-30.2-12.3c-21.5-10.8-15.7-3.3-20.7,8.6
				c-3.3,7.9-22.4,0.2-34.9-5.9l-3.2-18.7c-0.4-2.5,1.9-4.7,4.4-4.1c35.2,8.1,68.5,10.5,78.3,11.1c1.7,0.1,3.1,1.4,3.4,3
				L325.2,167.9z"/>
			<linearGradient id="XMLID_216_" gradientUnits="userSpaceOnUse" x1="290.0342" y1="127.9162" x2="311.2165" y2="190.8078">
				<stop  offset="0" style="stop-color:#E0EDF3"/>
				<stop  offset="1" style="stop-color:#ADD9E5"/>
			</linearGradient>
			<path id="XMLID_54_" class="st97" d="M322.7,201.1c0.2,1.1-0.5,2.1-1.5,2.3c-2.6,0.6-6.8,1.6-19.3,0c0,0,0,0-0.1,0
				c-1.4-0.2-2.6-1.3-2.9-2.7l-9.3-47c-0.3-1.4,0.9-2.6,2.3-2.4c10.1,1.2,17.8,1.7,20.9,1.9c1,0.1,1.7,0.8,1.9,1.7L322.7,201.1z"/>
			<linearGradient id="XMLID_217_" gradientUnits="userSpaceOnUse" x1="291.4131" y1="126.8131" x2="312.5954" y2="189.7047">
				<stop  offset="0" style="stop-color:#E0EDF3"/>
				<stop  offset="1" style="stop-color:#FAF1F1"/>
			</linearGradient>
			<path id="XMLID_2399_" class="st98" d="M324.1,200c0.2,1.1-0.5,2.1-1.5,2.3c-2.6,0.6-6.8,1.6-19.3,0c0,0,0,0-0.1,0
				c-1.4-0.2-2.6-1.3-2.9-2.7l-9.3-47c-0.3-1.4,0.9-2.6,2.3-2.4c10.1,1.2,17.8,1.7,20.9,1.9c1,0.1,1.7,0.8,1.9,1.7L324.1,200z"/>
			<g id="XMLID_1538_">
				<g id="XMLID_48_">
					<path id="XMLID_51_" class="st99" d="M302.5,156.4c0.2,0.9-0.4,1.5-1.3,1.4c-0.9-0.1-1.8-0.9-2-1.8c-0.2-0.9,0.4-1.5,1.3-1.4
						C301.4,154.7,302.3,155.5,302.5,156.4z"/>
					<path id="XMLID_50_" class="st99" d="M307.6,157c0.2,0.9-0.4,1.5-1.3,1.4c-0.9-0.1-1.8-0.9-2-1.8c-0.2-0.9,0.4-1.5,1.3-1.4
						C306.5,155.3,307.4,156.1,307.6,157z"/>
					<path id="XMLID_49_" class="st99" d="M312.7,157.6c0.2,0.9-0.4,1.5-1.3,1.4c-0.9-0.1-1.8-0.9-2-1.8c-0.2-0.9,0.4-1.5,1.3-1.4
						C311.6,155.9,312.5,156.7,312.7,157.6z"/>
				</g>
			</g>
			<g id="XMLID_1539_">
				<linearGradient id="XMLID_218_" gradientUnits="userSpaceOnUse" x1="257.0236" y1="139.0344" x2="278.2059" y2="201.926">
					<stop  offset="0" style="stop-color:#E0EDF3"/>
					<stop  offset="1" style="stop-color:#ADD9E5"/>
				</linearGradient>
				<path id="XMLID_53_" class="st100" d="M279.8,151.2c1.5,7.4,7.8,39.7,9.7,49.3c0.3,1.4-0.8,2.7-2.3,2.7
					c-11.8-0.3-22.7-1.5-26.7-2c-1-0.1-1.8-0.9-1.9-1.8l-8.8-52.2c-0.3-1.6,1.2-2.9,2.7-2.5c8.8,2,17.5,3.6,25.5,4.8
					C278.9,149.6,279.7,150.3,279.8,151.2z"/>
				<linearGradient id="XMLID_219_" gradientUnits="userSpaceOnUse" x1="258.4025" y1="137.9313" x2="279.5847" y2="200.8229">
					<stop  offset="0" style="stop-color:#E0EDF3"/>
					<stop  offset="1" style="stop-color:#FAF1F1"/>
				</linearGradient>
				<path id="XMLID_2398_" class="st101" d="M281.2,150.1c1.5,7.4,7.8,39.7,9.7,49.3c0.3,1.4-0.8,2.7-2.3,2.7
					c-11.8-0.3-22.7-1.5-26.7-2c-1-0.1-1.8-0.9-1.9-1.8l-8.8-52.2c-0.3-1.6,1.2-2.9,2.7-2.5c8.8,2,17.5,3.6,25.5,4.8
					C280.3,148.5,281,149.2,281.2,150.1z"/>
				<g id="XMLID_44_">
					<path id="XMLID_42_" class="st102" d="M265.1,151.3c0.2,1.2-0.6,2-1.7,1.8c-1.2-0.2-2.3-1.3-2.6-2.5c-0.2-1.2,0.6-2,1.7-1.8
						C263.8,149,264.9,150.1,265.1,151.3z"/>
					<path id="XMLID_45_" class="st102" d="M272,152.3c0.2,1.2-0.6,2-1.7,1.8c-1.2-0.2-2.3-1.3-2.6-2.5s0.6-2,1.7-1.8
						C270.6,150,271.7,151.2,272,152.3z"/>
					<path id="XMLID_46_" class="st102" d="M278.8,153.4c0.2,1.2-0.6,2-1.7,1.8c-1.2-0.2-2.3-1.3-2.6-2.5c-0.2-1.2,0.6-2,1.7-1.8
						C277.4,151.1,278.6,152.2,278.8,153.4z"/>
				</g>
				<g id="XMLID_52_">
					<path id="XMLID_47_" class="st103" d="M269.7,171.3l-10.3-1.6c-0.6-0.1-1.1-0.6-1.3-1.2l0,0c-0.2-0.9,0.6-1.7,1.6-1.6l10.3,1.6
						c0.6,0.1,1.1,0.6,1.2,1.2v0C271.4,170.7,270.6,171.5,269.7,171.3z"/>
					<path id="XMLID_55_" class="st103" d="M277,179.1l-16.5-2.5c-0.6-0.1-1.2-0.6-1.3-1.2l0-0.1c-0.2-0.9,0.6-1.7,1.6-1.6l16.5,2.5
						c0.6,0.1,1.1,0.6,1.3,1.2l0,0C278.8,178.4,278,179.2,277,179.1z"/>
					<path id="XMLID_56_" class="st103" d="M278.4,186l-16.6-2.4c-0.6-0.1-1.2-0.6-1.3-1.2l0-0.1c-0.2-0.9,0.6-1.7,1.5-1.6l16.6,2.4
						c0.6,0.1,1.1,0.6,1.3,1.2l0,0.1C280.1,185.3,279.3,186.1,278.4,186z"/>
					<path id="XMLID_57_" class="st103" d="M279.8,193l-16.8-2.3c-0.6-0.1-1.2-0.6-1.3-1.2l0-0.2c-0.2-0.9,0.6-1.7,1.5-1.6l16.8,2.3
						c0.6,0.1,1.1,0.6,1.3,1.2l0,0.1C281.5,192.4,280.7,193.2,279.8,193z"/>
				</g>
			</g>
		</g>
	</g>
</g>
<g id="RIGHT_ARM_1">
	<g id="XMLID_16_">
		<linearGradient id="XMLID_220_" gradientUnits="userSpaceOnUse" x1="342.2789" y1="282.8791" x2="354.946" y2="185.4736">
			<stop  offset="0.1385" style="stop-color:#F7B142"/>
			<stop  offset="1" style="stop-color:#EF794A"/>
		</linearGradient>
		<path id="XMLID_2505_" class="st104" d="M358.2,238.7c-18.1,13.4-35.2,20-38,15.2c-2.4-4.3-2.6-7.8,1.4-12.3
			c0.5-0.6,1.2-1.3,1.9-1.9c5.9-5.6,19.9-20.6,31.2-31c11.3-10.5,18-12,20.7-9.2c1.3,1.3,2.2,2.6,2.9,4
			C383.9,214,374.2,226.9,358.2,238.7z"/>
		<linearGradient id="XMLID_221_" gradientUnits="userSpaceOnUse" x1="337.1038" y1="232.2844" x2="362.3168" y2="198.952">
			<stop  offset="0.1331" style="stop-color:#F49749"/>
			<stop  offset="1" style="stop-color:#FAD58D"/>
		</linearGradient>
		<path id="XMLID_2493_" class="st105" d="M357.5,207.5c-3.4,1.7-15.4,13.8-18.1,16.6c-2.7,2.8-2.5,2.9-0.4,1.9s18.3-14.4,19.7-16.7
			C360.2,207,360.2,206.1,357.5,207.5z"/>
		<linearGradient id="XMLID_222_" gradientUnits="userSpaceOnUse" x1="313.9509" y1="249.9744" x2="349.526" y2="231.7732">
			<stop  offset="0.1385" style="stop-color:#F7B142"/>
			<stop  offset="1" style="stop-color:#EF794A"/>
		</linearGradient>
		<path id="XMLID_2503_" class="st106" d="M358.2,238.7c-18.1,13.4-35.2,20-38,15.2c-2.4-4.3-2.6-7.8,1.4-12.3
			c1,1.8,3.2,3.5,8.6,2.4c9.9-2.1,40.3-35.8,43-37c1.2-0.6,3.1-2.7,5.1-3.5C383.9,214,374.2,226.9,358.2,238.7z"/>
	</g>
</g>
<g id="RIGHT_ARM_2">
	<g id="XMLID_121_">
		<g id="XMLID_1535_">
			<linearGradient id="XMLID_223_" gradientUnits="userSpaceOnUse" x1="298.1886" y1="170.0096" x2="307.9781" y2="183.5814">
				<stop  offset="0.1436" style="stop-color:#F7AFAA"/>
				<stop  offset="0.9333" style="stop-color:#E58880"/>
			</linearGradient>
			<path id="XMLID_2522_" class="st107" d="M309,180.5c0,0-2.2,2.2-2.5,1.9c0,0-0.4-0.5-0.9-1.2c0,0,0,0,0,0c-1.1-1.4-3-3.6-4.1-4.5
				c-1.7-1.3-4.3-2.2-4.6-3.9c0-0.2,0-0.3,0-0.4c0.4-1,3.8,0.4,4.8,0.9c1.2,0.5,3.5,2.4,3.9,2.7C306.2,176.3,309,180.5,309,180.5z"
				/>
			<linearGradient id="XMLID_224_" gradientUnits="userSpaceOnUse" x1="300.4801" y1="174.3506" x2="305.0538" y2="182.1412">
				<stop  offset="0.1436" style="stop-color:#E9918A"/>
				<stop  offset="0.9333" style="stop-color:#E58880"/>
			</linearGradient>
			<path id="XMLID_2510_" class="st108" d="M306.2,181.1c-0.1,0-0.3,0-0.6,0c0,0,0,0,0,0c-1.1-1.4-3-3.6-4.1-4.5
				c-1.7-1.3-4.3-2.2-4.6-3.9c0-0.2,0-0.3,0-0.4c1,0.6,2.9,1.8,3.6,2.4c1,0.8,4.8,3.8,5.3,4.6C306.4,180,307.3,180.6,306.2,181.1z"
				/>
			<linearGradient id="XMLID_225_" gradientUnits="userSpaceOnUse" x1="299.957" y1="169.0089" x2="309.7931" y2="182.6453">
				<stop  offset="0.1436" style="stop-color:#F7AFAA"/>
				<stop  offset="0.9333" style="stop-color:#E58880"/>
			</linearGradient>
			<path id="XMLID_2521_" class="st109" d="M309.2,181c0,0-0.5-0.6-1.2-1.4c-1.3-1.5-3.5-4-4.6-5c-1.7-1.7-6.3-3.4-7.2-4.3
				c-0.6-0.5-0.8-1.4-0.8-2c0-0.4,0.1-0.7,0.2-0.8c0.4-0.4,7.1,2,9.2,3.1c2.1,1.2,6.6,7.6,6.6,7.6C311.8,179.7,309.2,181,309.2,181z
				"/>
			<linearGradient id="XMLID_226_" gradientUnits="userSpaceOnUse" x1="301.5498" y1="168.1568" x2="311.4241" y2="181.8461">
				<stop  offset="0.1436" style="stop-color:#F7AFAA"/>
				<stop  offset="0.9333" style="stop-color:#E58880"/>
			</linearGradient>
			<path id="XMLID_2520_" class="st110" d="M310.5,180c-0.2-0.1-0.8-0.7-1.7-1.6c-1.8-1.9-4.4-4.8-5.5-6c-1.6-1.7-4.2-3-6.5-4.5
				c-1.4-0.9-1.8-1.8-1.7-2.5c0-0.4,0.3-0.8,0.6-1c0.8-0.6,6.8,3.1,8.6,4.1c1.8,1,9.6,9.7,9.6,9.7
				C314.6,180.4,311.1,180.2,310.5,180z"/>
			<linearGradient id="XMLID_227_" gradientUnits="userSpaceOnUse" x1="308.4998" y1="173.4962" x2="319.6347" y2="202.3159">
				<stop  offset="0.1436" style="stop-color:#F7AFAA"/>
				<stop  offset="0.9333" style="stop-color:#E58880"/>
			</linearGradient>
			<path id="XMLID_2513_" class="st111" d="M323.2,206.2l-7.4,1.3l-3.3-14c0,0-5.1-3.8-5.4-6.5c-0.3-2.7-2.4-4.5-1.4-6.5
				c0.3-0.6,0.8-1.2,1.4-1.9v0c0.9-1,2.2-1.9,3.4-2.4c0.3-0.1,0.7-0.3,1-0.4c0.3-0.1,0.6-0.1,0.9-0.2c1.2-0.1,2.1,0,2.8,0.3
				c0,0,0,0,0,0c0.8,0.5,1.4,1.4,2.1,2.9c1.3,2.9,3,10.5,3.6,13.2C321.5,194.7,323.2,206.2,323.2,206.2z"/>
			<linearGradient id="XMLID_228_" gradientUnits="userSpaceOnUse" x1="305.8365" y1="195.8948" x2="317.419" y2="181.8302">
				<stop  offset="0.1436" style="stop-color:#E9918A"/>
				<stop  offset="0.9333" style="stop-color:#E58880"/>
			</linearGradient>
			<path id="XMLID_2511_" class="st112" d="M317.3,197.9c0,0-1.3,0.4-1.9,0.2c-0.5-0.2-2.1-6.3-2.4-6.4c-0.3-0.1-3.6-2.6-4.6-4.8
				c-1-2.3-2-5.8-1.7-6.5c0.1-0.4,0.3-1.1,0.3-1.8v0c0.9-1,2.2-1.9,3.4-2.4c0.3-0.1,0.7-0.3,1-0.4c0.9,1.9,1.6,3.5,1.6,3.5
				s1,1.6-0.3,3.6c-1.2,2,1.8,5.1,2.7,6.3s0.9,3.4,0.9,3.4L317.3,197.9z"/>
			<linearGradient id="XMLID_229_" gradientUnits="userSpaceOnUse" x1="309.0953" y1="173.7851" x2="320.7646" y2="203.9879">
				<stop  offset="0.1436" style="stop-color:#F7AFAA"/>
				<stop  offset="0.9333" style="stop-color:#E58880"/>
			</linearGradient>
			<path id="XMLID_2518_" class="st113" d="M313.1,179.2c-0.3-0.1-1.2-1.3-2.3-2.7c-0.1-0.1-0.2-0.3-0.3-0.5
				c-0.9-1.2-1.8-2.4-2.4-3.2c-1.5-1.8-4-3.3-6.3-4.9c-1.7-1.2-1.8-2.4-1.4-3.1c0,0,0,0,0,0c0.1-0.2,0.3-0.4,0.5-0.5
				c0.8-0.5,6.6,3.5,8.3,4.6c1.2,0.8,4.2,4.6,6,6.9c0,0,0,0,0,0c0.8,1,1.3,1.7,1.3,1.7C317.1,179.9,313.6,179.5,313.1,179.2z"/>
			<linearGradient id="XMLID_230_" gradientUnits="userSpaceOnUse" x1="304.385" y1="174.1085" x2="320.1072" y2="195.1807">
				<stop  offset="0.1436" style="stop-color:#F7AFAA"/>
				<stop  offset="0.9333" style="stop-color:#E58880"/>
			</linearGradient>
			<path id="XMLID_2517_" class="st114" d="M318.9,188.2c0.1,2.9-2,3.1-2.9,3c-1-0.1-2.6-2.2-4.1-3.8c-1.5-1.7-2.5-1.9-5.4-4.1
				c-2.4-1.8-2.9-3.9-2.5-4.8c0.1-0.2,0.2-0.3,0.3-0.3c0.7-0.4,2.6,1,4.7,1.8c2.1,0.9,7,3,7,3S318.8,185.3,318.9,188.2z"/>
			<linearGradient id="XMLID_231_" gradientUnits="userSpaceOnUse" x1="306.0103" y1="172.3232" x2="314.9019" y2="195.3367">
				<stop  offset="0.1436" style="stop-color:#E9918A"/>
				<stop  offset="0.9333" style="stop-color:#E58880"/>
			</linearGradient>
			<path id="XMLID_2514_" class="st115" d="M310.8,176.3c0,0.1,0,0.2,0,0.3c-0.1-0.1-0.2-0.3-0.3-0.5c-0.9-1.2-1.8-2.4-2.4-3.2
				c-1.5-1.8-4-3.3-6.3-4.9c-1.7-1.2-1.8-2.4-1.4-3.1c0,0,0,0,0,0c0.4,0.6,1,1.3,1.8,2.1c1.9,1.8,3.8,2.3,5.3,4
				C309.1,172.6,310.8,175.2,310.8,176.3z"/>
			<linearGradient id="XMLID_232_" gradientUnits="userSpaceOnUse" x1="300.1059" y1="168.4487" x2="306.8971" y2="180.0165">
				<stop  offset="0.1436" style="stop-color:#E9918A"/>
				<stop  offset="0.9333" style="stop-color:#E58880"/>
			</linearGradient>
			<path id="XMLID_2516_" class="st116" d="M308.8,178.4c-1.8-1.9-4.4-4.8-5.5-6c-1.6-1.7-4.2-3-6.5-4.5c-1.4-0.9-1.8-1.8-1.7-2.5
				c0.7,0.7,1.7,1.6,2.7,2.1c1.9,0.7,5.5,3.2,7.1,5c1.6,1.7,3.8,3.8,3.9,5C308.9,177.7,308.9,178.1,308.8,178.4z"/>
			<linearGradient id="XMLID_233_" gradientUnits="userSpaceOnUse" x1="299.9146" y1="170.9646" x2="305.9765" y2="181.2902">
				<stop  offset="0.1436" style="stop-color:#E9918A"/>
				<stop  offset="0.9333" style="stop-color:#E58880"/>
			</linearGradient>
			<path id="XMLID_2512_" class="st117" d="M308.1,179.1c0,0.1,0,0.3-0.1,0.5c-1.3-1.5-3.5-4-4.6-5c-1.7-1.7-6.3-3.4-7.2-4.3
				c-0.6-0.5-0.8-1.4-0.8-2c0.8,0.7,2.1,1.8,3.3,2.3c1.8,0.8,5.6,3.7,6.4,4.6C305.9,176.1,308.2,178.7,308.1,179.1z"/>
			<linearGradient id="XMLID_234_" gradientUnits="userSpaceOnUse" x1="316.7106" y1="195.5085" x2="306.0932" y2="179.0309">
				<stop  offset="0.1436" style="stop-color:#E9918A"/>
				<stop  offset="0.9333" style="stop-color:#E58880"/>
			</linearGradient>
			<path id="XMLID_2515_" class="st118" d="M316.1,191c0,0.1,0,0.2-0.1,0.3c-1-0.1-2.6-2.2-4.1-3.8c-1.5-1.7-2.5-1.9-5.4-4.1
				c-2.4-1.8-2.9-3.9-2.5-4.8c0.4,0.9,1.4,2.7,3.3,3.8c2.6,1.4,5.1,2.5,6.5,4.1C315.1,188.1,316.2,190.2,316.1,191z"/>
		</g>
		<g id="XMLID_1537_">
			<g id="XMLID_17_">
				<linearGradient id="XMLID_235_" gradientUnits="userSpaceOnUse" x1="316.9947" y1="191.6521" x2="322.3488" y2="219.8975">
					<stop  offset="0.1179" style="stop-color:#EE5A77"/>
					<stop  offset="1" style="stop-color:#801C56"/>
				</linearGradient>
				<path id="XMLID_2509_" class="st119" d="M327.2,206.3c0,0-2-1-6.5-0.3c-0.2,0-0.4,0.1-0.7,0.1c-4.4,0.9-7.2,2.9-7.2,2.9
					l-1.2-8.4c0,0,1.5-3.2,6.8-4.2c0.5-0.1,0.9-0.2,1.4-0.2c4.2-0.5,5.3,0.9,5.3,0.9L327.2,206.3z"/>
				<linearGradient id="XMLID_236_" gradientUnits="userSpaceOnUse" x1="330.5776" y1="196.1313" x2="306.5851" y2="206.8177">
					<stop  offset="0.1179" style="stop-color:#EE5A77"/>
					<stop  offset="1" style="stop-color:#801C56"/>
				</linearGradient>
				<path id="XMLID_2508_" class="st120" d="M320.7,206c-0.2,0-0.4,0.1-0.7,0.1c-1.4,0.3-2.7,0.7-3.8,1.1c-2.2,0.9-3.5,1.8-3.5,1.8
					l-1.2-8.4c0,0,0.9-1.9,3.8-3.2c0.8-0.4,1.8-0.7,3-1c0.5-0.1,0.9-0.2,1.4-0.2C319.7,201,320.2,204.4,320.7,206z"/>
				<linearGradient id="XMLID_237_" gradientUnits="userSpaceOnUse" x1="335.1275" y1="193.8208" x2="306.5847" y2="206.5754">
					<stop  offset="0.1179" style="stop-color:#EE5A77"/>
					<stop  offset="1" style="stop-color:#801C56"/>
				</linearGradient>
				<path id="XMLID_2502_" class="st121" d="M316.3,207.2c-2.2,0.9-3.5,1.8-3.5,1.8l-1.2-8.4c0,0,0.9-1.9,3.8-3.2
					C315.4,201.9,315.8,205.2,316.3,207.2z"/>
			</g>
			<linearGradient id="XMLID_238_" gradientUnits="userSpaceOnUse" x1="316.6818" y1="279.1783" x2="329.169" y2="183.1561">
				<stop  offset="0.1385" style="stop-color:#F7B142"/>
				<stop  offset="1" style="stop-color:#EF794A"/>
			</linearGradient>
			<path id="XMLID_2504_" class="st122" d="M328.3,253.9c-0.2,0.1-0.3,0.2-0.5,0.2c-8.5,3.7-12.3-9.9-13.4-23c0-0.5-0.1-0.9-0.1-1.3
				c0-0.4-0.1-0.8-0.1-1.2c-0.9-13.9-2.1-21.1-2.1-21.1s2.8-2,6.4-3.3c2.8-1,6.2-1.6,9-0.3c0,0,4.3,14.6,6,26.1
				c0.7,4.4,1.4,8.3,1.6,11.6C335.4,247,334.1,251,328.3,253.9z"/>
			<linearGradient id="XMLID_239_" gradientUnits="userSpaceOnUse" x1="323.3225" y1="224.4154" x2="336.5724" y2="206.8986">
				<stop  offset="0.1331" style="stop-color:#F49749"/>
				<stop  offset="1" style="stop-color:#FAD58D"/>
			</linearGradient>
			<path id="XMLID_2506_" class="st123" d="M326.6,204.8c-1.1,0.6-0.1,6.6,1.4,12.3c1.5,5.7,4.3,10.9,4.3,10.9
				S328.8,203.7,326.6,204.8z"/>
			<linearGradient id="XMLID_240_" gradientUnits="userSpaceOnUse" x1="309.4816" y1="259.3168" x2="326.0281" y2="221.2598">
				<stop  offset="0.1385" style="stop-color:#F7B142"/>
				<stop  offset="1" style="stop-color:#EF794A"/>
			</linearGradient>
			<path id="XMLID_2501_" class="st124" d="M328.3,253.9c-0.2,0.1-0.3,0.2-0.5,0.2c-8.5,3.7-12.3-9.9-13.4-23c0-0.5-0.1-0.9-0.1-1.3
				c0-0.4-0.1-0.8-0.1-1.2c-0.9-13.9-2.1-21.1-2.1-21.1s2.8-2,6.4-3.3c0.4,8.5,3,23.7,4.3,32c1,6.4,7,7.9,12.3,5.4
				C335.4,247,334.1,251,328.3,253.9z"/>
		</g>
	</g>
</g>
<g id="BODY">
	<g id="XMLID_7_">
		<linearGradient id="XMLID_241_" gradientUnits="userSpaceOnUse" x1="385.217" y1="302.6625" x2="399.7675" y2="190.7743">
			<stop  offset="0.1385" style="stop-color:#F7B142"/>
			<stop  offset="1" style="stop-color:#EF794A"/>
		</linearGradient>
		<path id="XMLID_2466_" class="st125" d="M433.1,313.4c0,0-12.8,12.4-46.1,13.2c-32,0.8-52.3-13.6-52.3-14.4
			c0-0.5,7.9-21.2,14.4-38.2c0,0,0,0,0,0c0.1-0.2,0.2-0.5,0.3-0.7c4.1-11,7.6-20.2,7.7-21c0.3-2.1-3.1-9.4-5.5-14.4
			c-0.4-0.8-0.6-1.6-0.6-2.5c-0.4-5.1,3.4-12.7,7.4-23.3c4.7-12.5,17.5-18.8,28.7-18.5c11.2,0.3,18.7,4.2,26.3,8.9
			c7.6,4.7,16.3,11.7,15.2,21.1c-0.5,4.8-4.4,13.2-8,20.7c-3.5,7.4-6.8,13.9-6.6,15.4c0.2,1.4,3.9,11.7,7.9,23
			c2.6,7.3,5.4,15.1,7.6,20.9C431.6,309.4,433.1,313.4,433.1,313.4z"/>
		<linearGradient id="XMLID_242_" gradientUnits="userSpaceOnUse" x1="376.5497" y1="279.1853" x2="376.2739" y2="232.3034">
			<stop  offset="0.1385" style="stop-color:#F7B142"/>
			<stop  offset="1" style="stop-color:#EF794A"/>
		</linearGradient>
		<path id="XMLID_2460_" class="st126" d="M403.8,246.3c0,0-31.2,5.1-42.2,13.7c-5.2,4-9.4,9.4-12.5,14c4.3-11.3,7.8-20.9,7.9-21.8
			c0.3-2.1-3.1-9.4-5.5-14.4c-0.4-0.8-0.6-1.6-0.6-2.5c4.6-0.6,17.8-2.1,29.4-1.1C394.7,235.5,403.8,246.3,403.8,246.3z"/>
		<linearGradient id="XMLID_243_" gradientUnits="userSpaceOnUse" x1="400.63" y1="260.0639" x2="360.9183" y2="385.266">
			<stop  offset="0.1385" style="stop-color:#F7B142"/>
			<stop  offset="1" style="stop-color:#EF794A"/>
		</linearGradient>
		<path id="XMLID_2463_" class="st127" d="M433.1,313.4c0,0-12.8,12.4-46.1,13.2c-32,0.8-52.3-13.6-52.3-14.4
			c0-0.4,4.7-12.8,9.8-26.2c1.5-4,3.1-8.1,4.5-12c0,0,0,0,0,0c0.1-0.2,0.2-0.5,0.3-0.7c4,3.7,10.4,8.1,20.4,11.7
			c22.1,8,15.2,15.7,6.4,18.7c-8.8,3,7.7,14.6,33.4,9.1c9.6-2.1,15.9-5.6,20-9.3c1.4,3.9,2.5,6.9,3.1,8.6
			C432.9,313,433.1,313.4,433.1,313.4z"/>
		<linearGradient id="XMLID_244_" gradientUnits="userSpaceOnUse" x1="395.6216" y1="274.3912" x2="375.7658" y2="339.4742">
			<stop  offset="0.1385" style="stop-color:#F7B142"/>
			<stop  offset="1" style="stop-color:#EF794A"/>
		</linearGradient>
		<path id="XMLID_2459_" class="st128" d="M433.1,313.4c0,0-12.8,12.4-46.1,13.2c-32,0.8-52.3-13.6-52.3-14.4
			c0-0.4,4.7-12.8,9.8-26.2c9.3,1.2,21.5,4,20,10.8c-2.5,10.8-4.4,21,17.6,23.7c22.1,2.7,39.7-8.8,48.5-8.6c0.6,0,1.2,0.1,1.9,0.1
			C432.9,313,433.1,313.4,433.1,313.4z"/>
		<linearGradient id="XMLID_245_" gradientUnits="userSpaceOnUse" x1="461.4767" y1="264.7471" x2="310.9033" y2="271.9862">
			<stop  offset="0.1385" style="stop-color:#F7B142"/>
			<stop  offset="1" style="stop-color:#EF794A"/>
		</linearGradient>
		<path id="XMLID_2462_" class="st129" d="M421.9,282.6c-2.4,3.2-8,8.5-17.4,7c-13.2-2.1-38.5-23.8-35-28.3
			c3.5-4.6,15.7,2.3,29.6-6.4c9.6-6,16.7-10,21.4-10.8c-3.5,7.4-6.8,13.9-6.6,15.4C414.2,260.9,417.9,271.3,421.9,282.6z"/>
		<linearGradient id="XMLID_246_" gradientUnits="userSpaceOnUse" x1="381.0562" y1="231.0521" x2="384.8826" y2="215.8499">
			<stop  offset="0.1385" style="stop-color:#F7B142"/>
			<stop  offset="1" style="stop-color:#EF794A"/>
		</linearGradient>
		<path id="XMLID_2407_" class="st130" d="M386.5,192.8c-5,0.8-8,3.1-11.5,9.3c-3.5,6.2-3.7,6.5-3.7,6.5s10.6-2.6,15.2-1.7
			c4.6,0.9,13.5,9.7,13.5,9.7s2-11.3-0.6-16.9C396.8,194.1,390.7,192.2,386.5,192.8z"/>
		<linearGradient id="XMLID_247_" gradientUnits="userSpaceOnUse" x1="402.0673" y1="194.5223" x2="421.2337" y2="215.6191">
			<stop  offset="0.1331" style="stop-color:#F49749"/>
			<stop  offset="1" style="stop-color:#FAD58D"/>
		</linearGradient>
		<path id="XMLID_2436_" class="st131" d="M400.8,196.9c-1.8-0.5-2.4,2.2,5.2,5.4c7.6,3.2,14.3,6.5,13.2,4.8
			C418.1,205.4,407.1,198.7,400.8,196.9z"/>
		<g id="XMLID_2411_">
			<linearGradient id="XMLID_248_" gradientUnits="userSpaceOnUse" x1="387.9126" y1="194.6686" x2="385.2921" y2="218.1074">
				<stop  offset="0.1385" style="stop-color:#F7B142"/>
				<stop  offset="1" style="stop-color:#EF794A"/>
			</linearGradient>
			<path id="XMLID_9_" class="st132" d="M387.9,189.3c-4.1,0.8-7.6,3.2-10.4,9.4c-2.9,6.2-3,6.5-3,6.5s9.1-3.7,13-2.9
				c3.8,0.9,10.7,10.8,10.7,10.8s1.7-11.3-0.5-16.9S391.3,188.6,387.9,189.3z"/>
			<linearGradient id="XMLID_249_" gradientUnits="userSpaceOnUse" x1="386.7973" y1="173.8565" x2="388.6588" y2="201.9856">
				<stop  offset="0.1385" style="stop-color:#F7B142"/>
				<stop  offset="1" style="stop-color:#EE794B"/>
			</linearGradient>
			<ellipse id="XMLID_181_" class="st133" cx="388.2" cy="195.1" rx="5.2" ry="4.2"/>
		</g>
	</g>
</g>
<g id="TOOLS_1">
	<g id="XMLID_401_">
		<linearGradient id="XMLID_250_" gradientUnits="userSpaceOnUse" x1="352.1247" y1="262.2876" x2="375.9783" y2="200.2108">
			<stop  offset="0.1179" style="stop-color:#24245A"/>
			<stop  offset="1" style="stop-color:#005F8C"/>
		</linearGradient>
		<path id="XMLID_2523_" class="st134" d="M385.2,218.8c-2.3,1.4-4.8,1.6-7,1l-29.3,31.9c0.1,0.4,0.1,0.8,0.1,1.2
			c0,3.5-3.3,6.3-6.9,5.5c-1.3-0.3-2.4-1.1-3.2-2.1v0c-0.5-0.6-0.8-1.3-1-2.1c0,0,0-0.1,0-0.1c-0.8-3.6,2-6.8,5.5-6.8
			c0.3,0,0.6,0,0.8,0.1l27.9-33.6c-0.1-0.4-0.2-0.8-0.3-1.3c-0.6-4.5,2.4-8.7,6.8-9.7c0.2,0,0.5-0.1,0.7-0.1c0.9-0.1,1.7-0.1,2.5,0
			c0.6,0.1,1.2,0.3,1.8,0.5l-5.1,6.3c-0.8,1-0.7,2.5,0.3,3.4c0.5,0.4,1.1,0.6,1.7,0.6c0.1,0,0.2,0,0.3,0c0.6,0,1.2-0.3,1.6-0.8
			l5.4-6.3c0.7,1,1.2,2.2,1.4,3.5c0,0,0,0.1,0,0.1C389.8,213.5,388.2,217,385.2,218.8z"/>
		<linearGradient id="XMLID_251_" gradientUnits="userSpaceOnUse" x1="352.1941" y1="213.2449" x2="384.0461" y2="266.4006">
			<stop  offset="0.1179" style="stop-color:#24245A"/>
			<stop  offset="1" style="stop-color:#005F8C"/>
		</linearGradient>
		<path id="XMLID_28_" class="st135" d="M385.2,218.8c-2.3,1.4-4.8,1.6-7,1l-29.3,31.9c0.1,0.4,0.1,0.8,0.1,1.2
			c0,3.5-3.3,6.3-6.9,5.5c-1.3-0.3-2.4-1.1-3.2-2.1c1.4,0.7,3.9,1.6,6.2,0c3.4-2.3,1.9-5.8,1.9-5.8l29.5-33.4c0,0,3.3,2.5,8.6-1.2
			c2.8-2,3.8-4.3,4.2-6c0,0,0,0.1,0,0.1C389.8,213.5,388.2,217,385.2,218.8z"/>
		<linearGradient id="XMLID_252_" gradientUnits="userSpaceOnUse" x1="374.9894" y1="198.6396" x2="389.2669" y2="222.4664">
			<stop  offset="0.1179" style="stop-color:#24245A"/>
			<stop  offset="1" style="stop-color:#005F8C"/>
		</linearGradient>
		<path id="XMLID_29_" class="st136" d="M380.6,213.5c0.1,0,0.2,0,0.3,0c-0.3,0.2-0.7,0.3-1.1,0.4c-2,0.2-3.8-2.6-3-4.3
			c0.6-1.4,4-5.3,5.3-6.8c0.6,0.1,1.2,0.3,1.8,0.5l-5.1,6.3c-0.8,1-0.7,2.5,0.3,3.4C379.4,213.3,380,213.5,380.6,213.5z"/>
		<linearGradient id="XMLID_253_" gradientUnits="userSpaceOnUse" x1="341.9857" y1="257.326" x2="348.294" y2="246.364">
			<stop  offset="0.1179" style="stop-color:#24245A"/>
			<stop  offset="1" style="stop-color:#005F8C"/>
		</linearGradient>
		<path id="XMLID_2500_" class="st137" d="M373.5,209.3c-0.3,3.1,0.8,5,0.8,5l-29.5,34.1c0,0-4.2-0.6-5.7,2.3
			c-0.5,1-0.9,2.3-1.2,3.5c-0.8-3.6,2-6.8,5.5-6.8c0.3,0,0.6,0,0.8,0.1l27.9-33.6c-0.1-0.4-0.2-0.8-0.3-1.3
			c-0.6-4.5,2.4-8.7,6.8-9.7C376.9,204.3,373.7,207.1,373.5,209.3z"/>
	</g>
</g>
<g id="LEFT_ARM_1">
	<g id="XMLID_11_">
		<linearGradient id="XMLID_254_" gradientUnits="userSpaceOnUse" x1="409.5564" y1="291.6142" x2="422.2204" y2="194.2326">
			<stop  offset="0.1385" style="stop-color:#F7B142"/>
			<stop  offset="1" style="stop-color:#EF794A"/>
		</linearGradient>
		<path id="XMLID_2452_" class="st138" d="M432,233.7c-1.3,8.9-8.9,36.3-18.5,46c-6,6-10.2,6.4-12.9,4.9c-0.9-0.5-1.6-1.2-2.1-2
			c-0.4-0.6-0.7-1.2-1-1.8c-1.3-3.7-0.8-9.9,3.7-27.7c2.8-11.2,6.7-23.5,10.9-31.7c2.5-4.8,5.1-8.1,7.6-8.8
			c7.5-2.3,11.6,6.5,12.4,14.6C432.3,229.5,432.3,231.8,432,233.7z"/>
		<linearGradient id="XMLID_255_" gradientUnits="userSpaceOnUse" x1="395.268" y1="291.9297" x2="409.3326" y2="233.81">
			<stop  offset="0.1385" style="stop-color:#F7B142"/>
			<stop  offset="1" style="stop-color:#EF794A"/>
		</linearGradient>
		<path id="XMLID_2447_" class="st139" d="M412.1,221.4c-1.2,5.4-5.1,23-7.2,33.1c-2.1,10.1-3.7,23.6-4.3,30c-0.9-0.5-1.6-1.2-2.1-2
			c-0.4-0.6-0.7-1.2-1-1.8c-1.3-3.7-0.8-9.9,3.7-27.7C404,241.8,407.9,229.5,412.1,221.4z"/>
		<linearGradient id="XMLID_256_" gradientUnits="userSpaceOnUse" x1="397.4053" y1="290.7247" x2="430.6361" y2="242.3263">
			<stop  offset="0.1385" style="stop-color:#F7B142"/>
			<stop  offset="1" style="stop-color:#EF794A"/>
		</linearGradient>
		<path id="XMLID_2451_" class="st140" d="M432.2,231.3c0,0.8-0.1,1.7-0.2,2.4c-1.3,8.9-8.9,36.3-18.5,46c-3.2,3.2-5.9,4.8-8.1,5.4
			c-3.4,0.9-5.6-0.6-6.9-2.5c2.8-1.7,6-4.1,9.3-7.3c10.2-9.6,22.4-42.9,24.3-48.1C432.2,228.6,432.2,230,432.2,231.3z"/>
		<linearGradient id="XMLID_257_" gradientUnits="userSpaceOnUse" x1="400.1851" y1="287.9247" x2="422.5229" y2="256.2105">
			<stop  offset="0.1385" style="stop-color:#F7B142"/>
			<stop  offset="1" style="stop-color:#EF794A"/>
		</linearGradient>
		<path id="XMLID_2445_" class="st141" d="M432.2,231.3c0,0.8-0.1,1.7-0.2,2.4c-1.3,8.9-8.9,36.3-18.5,46c-3.2,3.2-5.9,4.8-8.1,5.4
			c4.1-4.7,8.8-11.3,13.8-19.9C425.7,253.9,430.3,238.3,432.2,231.3z"/>
		<linearGradient id="XMLID_258_" gradientUnits="userSpaceOnUse" x1="425.4898" y1="232.982" x2="409.5638" y2="276.4166">
			<stop  offset="0.1331" style="stop-color:#F49749"/>
			<stop  offset="1" style="stop-color:#FAD58D"/>
		</linearGradient>
		<path id="XMLID_2429_" class="st142" d="M428.5,225c-5.6-0.8-7,10.9-10.3,22.5c-3.3,11.6-5.2,19-5.2,19s9.2-16.5,13.7-27
			C430.9,229,431.4,225.4,428.5,225z"/>
	</g>
</g>
<g id="LEFT_ARM_2">
	<g id="XMLID_120_">
		<g id="XMLID_2432_">
			<linearGradient id="XMLID_259_" gradientUnits="userSpaceOnUse" x1="361.5482" y1="235.7763" x2="379.4364" y2="270.8648">
				<stop  offset="0.1436" style="stop-color:#F7AFAA"/>
				<stop  offset="0.9333" style="stop-color:#E58880"/>
			</linearGradient>
			<path id="XMLID_2458_" class="st143" d="M375.1,251.4l-3.2,8.2c0,0-3.9-4.6-6.7-7.9c-0.4-0.5-0.8-1-1.2-1.4
				c-0.8-0.9-1.3-1.6-1.4-1.8c-0.5-0.8-2.5-2.2-4.8-4.4c-2.3-2.2-3.9-4.5-4.6-6.3c-0.7-1.8-1-3.2-0.9-4.8V233c0.1-1.4,0.4-2.6,1-2.8
				c0.1,0,0.2-0.1,0.3,0c0.4,0.1,0.7,1,0.9,1.7c0.1,0.3,0.1,0.5,0.1,0.7c-0.1-0.9-0.3-3-0.2-4.1c0.1-0.9,0.7-1.3,1.2-1.4
				c0.4-0.1,0.7-0.1,0.8,0.1c0.2,0.2,0.4,1.2,0.6,1.8c0-0.1,0-0.1,0-0.2c0,0,0-0.1,0-0.1c0-0.3,0-0.7,0-1.3c0-1.6,0.6-2.3,1.7-2.8
				c0.8-0.4,2.4-0.2,3.5,0c0.4,0.1,0.8,0.3,0.8,0.5c0.2,0.6-0.9,1.1-1.6,1.9c-0.3,0.4-1.4,1.8-0.2,3.8c1.2,2,4.1,1.5,4.1,1.5
				s2.2-1.2,2.9-1.4c0.2,0,0.4,0.3,0.6,0.9c0.4,1.5,0.7,4.2,0.7,5c-0.1,1.2-0.9,5.4-0.9,6.7c0,0.4,0.6,1.2,1.4,2.3
				C371.9,248,375.1,251.4,375.1,251.4z"/>
			<linearGradient id="XMLID_260_" gradientUnits="userSpaceOnUse" x1="367.2808" y1="238.4224" x2="370.1075" y2="253.59">
				<stop  offset="0.1436" style="stop-color:#F7AFAA"/>
				<stop  offset="0.9333" style="stop-color:#E58880"/>
			</linearGradient>
			<path id="XMLID_2444_" class="st144" d="M375.1,251.4l-3.2,8.2c0,0-5.2-6.1-7.8-9.3c0.4-0.8,1-1.6,1.8-2.4c1.7-1.4,3.1-2,4.1-2.3
				C371.9,248,375.1,251.4,375.1,251.4z"/>
			<linearGradient id="XMLID_261_" gradientUnits="userSpaceOnUse" x1="363.2218" y1="239.7343" x2="364.2042" y2="229.0308">
				<stop  offset="0.1436" style="stop-color:#F7AFAA"/>
				<stop  offset="0.9333" style="stop-color:#E58880"/>
			</linearGradient>
			<path id="XMLID_2453_" class="st145" d="M368.8,231.6c-0.1,0.1-0.1,0.2-0.2,0.2c-1.3,1.2-2.1,1.7-4.7,1.6
				c-2.5-0.1-4.1-0.8-4.5-4.4c-0.4-3.6,2.6-4.5,2.6-4.5c0.1,0,0.1-0.1,0.2-0.1c0.4,0.1,0.8,0.3,0.8,0.5c0.2,0.6-0.9,1.1-1.6,1.9
				c-0.3,0.4-1.4,1.8-0.2,3.8c1.2,2,4.1,1.5,4.1,1.5s2.2-1.2,2.9-1.4C368.5,230.6,368.7,231,368.8,231.6z"/>
			<linearGradient id="XMLID_262_" gradientUnits="userSpaceOnUse" x1="356.2201" y1="222.8272" x2="356.6337" y2="231.6693">
				<stop  offset="0.1436" style="stop-color:#F7AFAA"/>
				<stop  offset="0.9333" style="stop-color:#E58880"/>
			</linearGradient>
			<path id="XMLID_2456_" class="st146" d="M357.4,230.7c0.1,0-1,0.2-1.5-1.3c-0.3-0.9-0.4-1.8-0.4-2.5c0.4-0.1,0.7-0.1,0.8,0.1
				c0.2,0.2,0.4,1.2,0.6,1.8c0-0.1,0-0.1,0-0.2c0,0.2,0.1,0.4,0.1,0.6c0,0,0,0,0,0.1l0,0v0.1C357.3,230.3,357.3,230.7,357.4,230.7z"
				/>
			<linearGradient id="XMLID_263_" gradientUnits="userSpaceOnUse" x1="353.7168" y1="236.88" x2="354.1538" y2="232.1195">
				<stop  offset="0.1436" style="stop-color:#F7AFAA"/>
				<stop  offset="0.9333" style="stop-color:#E58880"/>
			</linearGradient>
			<path id="XMLID_2450_" class="st147" d="M355,234.2c0,0-1.1,0.1-1.4-1.2c-0.3-1.3-0.1-2.2-0.2-2.5c0-0.1-0.1-0.2-0.1-0.3
				c0.1,0,0.2-0.1,0.3,0c0.4,0.1,0.7,1,0.9,1.7c0,0.3,0,0.9,0.3,1.5C355,234.2,355,234.2,355,234.2z"/>
			<linearGradient id="XMLID_264_" gradientUnits="userSpaceOnUse" x1="357.8915" y1="233.5288" x2="360.994" y2="253.5915">
				<stop  offset="0.1436" style="stop-color:#F7AFAA"/>
				<stop  offset="0.9333" style="stop-color:#E58880"/>
			</linearGradient>
			<path id="XMLID_2454_" class="st148" d="M366.2,250.1l-1,1.5c-0.4-0.5-0.8-1-1.2-1.4c-0.8-0.9-1.3-1.6-1.4-1.8
				c-0.5-0.8-2.5-2.2-4.8-4.4c-2.3-2.2-3.9-4.5-4.6-6.3c-0.7-1.8-1-3.2-0.9-4.8V233c0.4,1.8,1.4,4.5,3.7,6.9
				c4.1,4.3,8.4,7.8,9.2,8.6C365.9,249.2,366.2,250.1,366.2,250.1z"/>
		</g>
		<g id="XMLID_21_">
			<linearGradient id="XMLID_265_" gradientUnits="userSpaceOnUse" x1="374.3937" y1="249.3808" x2="371.3351" y2="273.4131">
				<stop  offset="0.1179" style="stop-color:#EE5A77"/>
				<stop  offset="1" style="stop-color:#801C56"/>
			</linearGradient>
			<path id="XMLID_2442_" class="st149" d="M382.1,251.4c0,0-4.5,1.2-7.7,4.6c-0.1,0.1-0.2,0.2-0.2,0.2c-3.2,3.6-2.3,6.6-2.3,6.6
				l-5.5-6.7c0,0-1.6-3.2,1-6.6c0,0,0.1-0.1,0.1-0.1c2.5-3.3,6.2-3,6.2-3L382.1,251.4z"/>
			<linearGradient id="XMLID_266_" gradientUnits="userSpaceOnUse" x1="371.721" y1="245.7219" x2="368.4807" y2="264.2678">
				<stop  offset="0.1179" style="stop-color:#EE5A77"/>
				<stop  offset="1" style="stop-color:#801C56"/>
			</linearGradient>
			<path id="XMLID_2443_" class="st150" d="M374.4,255.9c-0.1,0.1-0.2,0.2-0.2,0.2c-0.9,1-1.5,2-1.9,2.9c-0.9,2.2-0.4,3.7-0.4,3.7
				l-5.5-6.7c0,0-0.7-1.4-0.4-3.3c0.1-1,0.5-2.2,1.4-3.3c0,0,0.1-0.1,0.1-0.1c0.5,0.9,1.4,2.2,3.1,3.7
				C371.9,254,373.2,255,374.4,255.9z"/>
			<linearGradient id="XMLID_267_" gradientUnits="userSpaceOnUse" x1="369.1351" y1="248.2802" x2="369.1351" y2="258.9665">
				<stop  offset="0.1179" style="stop-color:#EE5A77"/>
				<stop  offset="1" style="stop-color:#801C56"/>
			</linearGradient>
			<path id="XMLID_2437_" class="st151" d="M371.9,262.8l-5.5-6.7c0,0-0.7-1.4-0.4-3.3c1,1.2,2.7,3.2,5.1,5.2
				c0.4,0.4,0.8,0.7,1.2,1.1C371.4,261.3,371.9,262.8,371.9,262.8z"/>
		</g>
		<g id="XMLID_2408_">
			<linearGradient id="XMLID_268_" gradientUnits="userSpaceOnUse" x1="388.9501" y1="289.0264" x2="401.8493" y2="189.836">
				<stop  offset="0.1385" style="stop-color:#F7B142"/>
				<stop  offset="1" style="stop-color:#EF794A"/>
			</linearGradient>
			<path id="XMLID_2438_" class="st152" d="M413.2,280.5c-3.3,6-11.5,8-18.9,2.7c-7.4-5.2-24.4-21.2-24.4-21.2s-1.1-6.2,1.2-9.3
				c0-0.1,0.1-0.1,0.2-0.2c3.5-4.8,7.3-3.9,7.3-3.9s9.9,7.3,21.7,14.1c6.8,3.9,12.6,9.5,13.4,14.2
				C413.9,278.1,413.8,279.4,413.2,280.5z"/>
			
				<linearGradient id="XMLID_269_" gradientUnits="userSpaceOnUse" x1="379.9364" y1="234.2584" x2="396.3451" y2="270.6608" gradientTransform="matrix(0.9999 -1.001227e-002 1.001227e-002 0.9999 -1.2639 8.3523)">
				<stop  offset="0.1331" style="stop-color:#F49749"/>
				<stop  offset="1" style="stop-color:#FAD58D"/>
			</linearGradient>
			<path id="XMLID_2422_" class="st153" d="M378.3,249.6c-1.8-0.9-2.3,1.8,4.3,5.7c6.6,4,20,10.1,20,10.1S383.3,252.2,378.3,249.6z"
				/>
			<g id="XMLID_12_">
				<linearGradient id="XMLID_270_" gradientUnits="userSpaceOnUse" x1="398.9031" y1="253.6429" x2="381.5532" y2="286.5163">
					<stop  offset="0.1385" style="stop-color:#F7B142"/>
					<stop  offset="1" style="stop-color:#EF794A"/>
				</linearGradient>
				<path id="XMLID_2439_" class="st154" d="M413.2,280.5c-1.7,3.1-4.7,5.1-8.2,5.6c-3.3,0.5-7.1-0.4-10.7-2.9
					c-7.4-5.2-24.4-21.2-24.4-21.2s-0.3-1.9-0.2-4.2c0.1-1.8,0.4-3.8,1.5-5.2c0-0.1,0.1-0.1,0.2-0.2c1.1,1.8,3.1,4.5,6.6,8
					c7.4,7.3,14.3,15,24,16c3.3,0.3,7.5-3.6,9.3-4.9C415.2,276.5,413.8,279.4,413.2,280.5z"/>
				<linearGradient id="XMLID_271_" gradientUnits="userSpaceOnUse" x1="392.7291" y1="261.9375" x2="386.4207" y2="273.5201">
					<stop  offset="0.1385" style="stop-color:#F7B142"/>
					<stop  offset="1" style="stop-color:#EF794A"/>
				</linearGradient>
				<path id="XMLID_2435_" class="st155" d="M404.9,286.1c-3.3,0.5-7.1-0.4-10.7-2.9c-7.4-5.2-24.4-21.2-24.4-21.2s-0.3-1.9-0.2-4.2
					c4.7,4.7,13.5,13.4,21.2,19C399.5,283.2,401.9,285.1,404.9,286.1z"/>
			</g>
		</g>
	</g>
</g>
<g id="HEAD">
	<g id="XMLID_2425_">
		<g id="XMLID_10_">
			<linearGradient id="XMLID_272_" gradientUnits="userSpaceOnUse" x1="389.6571" y1="204.1372" x2="387.8058" y2="166.9563">
				<stop  offset="0.1436" style="stop-color:#F7AFAA"/>
				<stop  offset="0.9333" style="stop-color:#E58880"/>
			</linearGradient>
			<path id="XMLID_2431_" class="st156" d="M393.2,184.3c0,0.2,0,0.4,0,0.7c-0.2,6-0.8,10.7-0.8,10.7s-2.5,2.7-5,2.6
				c-2.5-0.1-3.3-2.1-3.3-2.1s0.2-2.2,0.4-5.4c0.1-0.8,0.1-1.8,0.1-2.7c0.2-4.6,0.1-8.8,0.1-8.8l8.6-2.8
				C393.3,176.5,393.4,178.8,393.2,184.3z"/>
			<linearGradient id="XMLID_273_" gradientUnits="userSpaceOnUse" x1="391.7044" y1="167.497" x2="389.6221" y2="178.4567">
				<stop  offset="0.1436" style="stop-color:#F7AFAA"/>
				<stop  offset="0.9333" style="stop-color:#E58880"/>
			</linearGradient>
			<path id="XMLID_2426_" class="st157" d="M393.2,184.3c-1.2,1.4-3.2,3.2-6.1,5c-1,0.6-1.8,1.1-2.6,1.5c0.1-0.8,0.1-1.8,0.1-2.7
				c0.2-4.6,0.1-8.8,0.1-8.8l8.6-2.8C393.3,176.5,393.4,178.8,393.2,184.3z"/>
		</g>
		<g id="XMLID_13_">
			<g id="XMLID_18_">
				<linearGradient id="XMLID_274_" gradientUnits="userSpaceOnUse" x1="384.0104" y1="150.9299" x2="400.4825" y2="223.4071">
					<stop  offset="0.1436" style="stop-color:#F7AFAA"/>
					<stop  offset="0.9333" style="stop-color:#E58880"/>
				</linearGradient>
				<path id="XMLID_2430_" class="st158" d="M400.8,164.7c-1.5,13.4-12,18.8-17.8,19.2c-0.8,0.1-1.5-0.1-2.2-0.5h0
					c-4.5-2.2-7.1-11.9-7.7-18.4c-0.1-1.2-0.2-2.4-0.1-3.7c0.2-6.8,2.8-14.1,12-14.6C393,146.3,401.9,154,400.8,164.7z"/>
				<linearGradient id="XMLID_275_" gradientUnits="userSpaceOnUse" x1="362.3746" y1="154.7999" x2="386.7783" y2="166.0519">
					<stop  offset="0.1436" style="stop-color:#F7AFAA"/>
					<stop  offset="0.9333" style="stop-color:#E58880"/>
				</linearGradient>
				<path id="XMLID_2428_" class="st159" d="M400.8,164.7c-1.5,13.4-12,18.8-17.8,19.2c-0.8,0.1-1.5-0.1-2.2-0.5
					c1-0.3,2.2-0.7,3.5-1.2c8.5-2.9,10.1-13.3,10.1-13.3s-0.7,0.2-3.8-2.8c-3.1-2.9-2.5-8-2.5-8s-2.8,2.6-10.4,3.5
					c-1.9,0.2-3.5,0.1-4.8-0.3c0.2-6.8,2.8-14.1,12-14.6C393,146.3,401.9,154,400.8,164.7z"/>
				
					<linearGradient id="XMLID_276_" gradientUnits="userSpaceOnUse" x1="1188.3101" y1="331.7729" x2="1192.1779" y2="340.2654" gradientTransform="matrix(-0.9151 -0.4033 -0.4033 0.9151 1606.5808 338.3473)">
					<stop  offset="0.1436" style="stop-color:#F7AFAA"/>
					<stop  offset="0.9333" style="stop-color:#E58880"/>
				</linearGradient>
				<path id="XMLID_43_" class="st160" d="M377.6,163.2c-0.1,0.2-5.4,9.3-4.7,10.4c0.6,1.1,5.4,1.9,5.4,1.9L377.6,163.2z"/>
			</g>
			<g id="XMLID_19_">
				<linearGradient id="XMLID_277_" gradientUnits="userSpaceOnUse" x1="380.5965" y1="136.6113" x2="394.8267" y2="207.9921">
					<stop  offset="0" style="stop-color:#5E5441"/>
					<stop  offset="0.9247" style="stop-color:#4F443B"/>
				</linearGradient>
				<path id="XMLID_2423_" class="st161" d="M399.2,149.4c0,0-1,0.7-2.6,1.7c-5.3,3.3-17.4,9.9-23.8,6c-4.9-2.9-6.5-8.2-5.9-12.8
					c0.4-3.2,2-6,4.3-7.3c7.7-4.4,14.2,1,20.6,4.7C399.1,145.9,399.2,149.4,399.2,149.4z"/>
				<linearGradient id="XMLID_278_" gradientUnits="userSpaceOnUse" x1="386.7254" y1="123.0527" x2="376.4964" y2="173.3213">
					<stop  offset="0" style="stop-color:#5E5441"/>
					<stop  offset="1" style="stop-color:#413830"/>
				</linearGradient>
				<path id="XMLID_2418_" class="st162" d="M396.5,151.1c-5.3,3.3-17.4,9.9-23.8,6c-4.9-2.9-6.5-8.2-5.9-12.8
					c1.8,2.3,4.2,4.7,6.8,5.8c6.2,2.6,8.1,1.9,8.1,1.9s-2.8-1-4.5-2.6c-1.8-1.6-1.8-1.6-1.8-1.6s5.7,2.6,11.5,2.1
					c5.8-0.5,7.8-1.9,7.8-1.9S395.4,149.3,396.5,151.1z"/>
				<linearGradient id="XMLID_279_" gradientUnits="userSpaceOnUse" x1="377.23" y1="144.5764" x2="380.0811" y2="133.3465">
					<stop  offset="0" style="stop-color:#5E5441"/>
					<stop  offset="0.9247" style="stop-color:#B0A05A"/>
				</linearGradient>
				<path id="XMLID_359_" class="st163" d="M388.1,139.8c0,0-4.4-3.7-10.1-4.1c-5.7-0.4-7.9,2.6-8.9,4.3c-0.9,1.6-1,2.8-1,2.8
					s3.3-5.1,9-5.2C382.8,137.6,388.1,139.8,388.1,139.8z"/>
			</g>
			<g id="XMLID_20_">
				<linearGradient id="XMLID_280_" gradientUnits="userSpaceOnUse" x1="393.5447" y1="134.8539" x2="407.8935" y2="206.8296">
					<stop  offset="0" style="stop-color:#5E5441"/>
					<stop  offset="0.9247" style="stop-color:#4F443B"/>
				</linearGradient>
				<path id="XMLID_2427_" class="st164" d="M406.5,159.2c0.1,3.5-1,6.1-4,8.3c-3,2.2-10.4-0.3-11.8-6.1c-1.4-5.8,0.3-8.8,2.4-10.5
					c0.8-0.7,1.6-1.2,2.4-1.5c6.3-2.7,10.6,6.3,11,9.6C406.5,159.1,406.5,159.1,406.5,159.2z"/>
				<linearGradient id="XMLID_281_" gradientUnits="userSpaceOnUse" x1="404.8486" y1="126.7406" x2="394.6196" y2="177.0092">
					<stop  offset="0" style="stop-color:#5E5441"/>
					<stop  offset="1" style="stop-color:#413830"/>
				</linearGradient>
				<path id="XMLID_2424_" class="st165" d="M406.5,159.2c0.1,3.5-1,6.1-4,8.3c-3,2.2-10.4-0.3-11.8-6.1c-1.4-5.8,0.3-8.8,2.4-10.5
					c0.8-0.7,1.6-1.2,2.4-1.5c1.1,2.1,3.5,5.9,7,7.8c1.7,0.9,3,1.5,4,1.8C406.5,159.1,406.5,159.1,406.5,159.2z"/>
			</g>
			<g id="XMLID_2400_">
				<linearGradient id="XMLID_282_" gradientUnits="userSpaceOnUse" x1="395.3405" y1="150.0296" x2="410.7223" y2="217.7095">
					<stop  offset="0.1436" style="stop-color:#F7AFAA"/>
					<stop  offset="0.9333" style="stop-color:#E58880"/>
				</linearGradient>
				<path id="XMLID_124_" class="st166" d="M397.1,166c0,0,1.5-3.5,3.7-2.7s2.7,4.6,1.4,7.2c-0.7,1.4-2.3,2.1-3.7,2.6
					c-1.1,0.3-2.3-0.6-2.1-1.8L397.1,166z"/>
				<linearGradient id="XMLID_283_" gradientUnits="userSpaceOnUse" x1="406.6693" y1="154.1155" x2="398.6322" y2="169.8975">
					<stop  offset="0.1436" style="stop-color:#F7AFAA"/>
					<stop  offset="0.9333" style="stop-color:#E58880"/>
				</linearGradient>
				<path id="XMLID_2401_" class="st167" d="M399.2,165.3c0,0,1.3-0.8,2.2,0.4c0.9,1.2-0.3,3.8-1.4,4.4s-1.9,0-1.5-1
					c0.4-1.1,1.6-1.1,0.9-1.8C398.9,166.5,398.1,165.9,399.2,165.3z"/>
			</g>
		</g>
	</g>
</g>
</svg>
