<svg width="77" height="80" viewBox="0 0 77 80" fill="none" xmlns="http://www.w3.org/2000/svg">
<path fill-rule="evenodd" clip-rule="evenodd" d="M51.0329 1.19636C49.1464 -0.421899 46.3821 -0.328619 44.4865 1.05578C41.7911 3.02428 41.564 5.99272 41.4228 8.81102C41.4127 9.01219 41.4031 9.21441 41.3935 9.41771V9.41774C41.2628 12.1745 41.1227 15.1287 39.619 18.324C39.4281 18.7296 39.249 19.1649 39.0546 19.6375L39.0546 19.6377C38.4462 21.1168 37.6875 22.9611 35.9466 25.4031C33.8154 28.3926 30.2143 32.2378 23.7075 36.9609C22.9048 34.4357 20.541 32.6063 17.75 32.6063H6.25C2.79822 32.6063 0 35.4045 0 38.8563V73.3563C0 76.808 2.79822 79.6063 6.25 79.6063H17.75C20.8745 79.6063 23.4635 77.3135 23.9264 74.3187C26.536 75.5347 30.1804 76.9323 36.5264 78.0861C39.4087 78.6102 44.612 78.7313 49.875 78.7313C52.5295 78.7313 55.2345 78.6999 57.7188 78.6687L58.4367 78.6596L58.4398 78.6595C60.6438 78.6316 62.642 78.6063 64.25 78.6063H64.4251L64.5934 78.5582C66.3718 78.0501 68.4507 77.3545 70.1575 75.6039C71.8797 73.8375 73.076 71.1589 73.4938 66.9806C74.2911 59.0076 75.8214 47.6954 76.4874 43.033L76.4912 43.0069L76.4938 42.9806C76.6822 41.0965 76.3532 38.2799 74.7029 35.895C73.0012 33.4358 70.0112 31.6063 65.25 31.6063L51.793 31.6063L54.9728 16.6156L54.9737 16.6112C55.3629 14.7432 55.4099 11.8296 54.8843 8.96873C54.3637 6.13461 53.2318 3.0826 51.0329 1.19636ZM24 71.5815C26.532 72.8268 30.0401 74.3658 36.9736 75.6264C39.5913 76.1024 44.5547 76.2313 49.875 76.2313C52.5121 76.2313 55.203 76.2001 57.6874 76.1689L58.4051 76.1598C60.5274 76.1329 62.4784 76.1081 64.0732 76.1064C65.7264 75.6258 67.1888 75.0676 68.3675 73.8586C69.5703 72.625 70.624 70.5536 71.0062 66.7319C71.8073 58.7205 73.3393 47.3946 74.0087 42.7068C74.148 41.2575 73.873 39.0891 72.6471 37.3176C71.4655 35.61 69.2888 34.1063 65.25 34.1063L51.4818 34.1063C50.0467 34.1063 48.9875 32.7843 49.2833 31.3894L52.5263 16.1013L52.5267 16.0991C52.839 14.5982 52.9025 12.017 52.4255 9.42043C51.9433 6.79585 50.9588 4.42656 49.4052 3.09387C48.502 2.31911 47.0335 2.29141 45.9609 3.0747C44.3393 4.25902 44.0672 5.99346 43.9197 8.93615C43.9092 9.14542 43.8993 9.35924 43.8892 9.5774L43.8891 9.57809C43.7625 12.312 43.6042 15.7267 41.881 19.3885C41.741 19.6862 41.5938 20.0452 41.4234 20.4607L41.4234 20.4608L41.4234 20.4609C40.8154 21.9439 39.9122 24.1472 37.9823 26.8543C35.5273 30.298 31.407 34.6049 24 39.8251V71.5815ZM2.5 38.8563C2.5 36.7852 4.17893 35.1063 6.25 35.1063H17.75C19.8211 35.1063 21.5 36.7852 21.5 38.8563V73.3563C21.5 75.4273 19.8211 77.1063 17.75 77.1063H6.25C4.17893 77.1063 2.5 75.4273 2.5 73.3563V38.8563Z" fill="#254058"/>
</svg>
