<svg width="922" height="234" viewBox="0 0 922 234" fill="none" xmlns="http://www.w3.org/2000/svg">
<path *ngIf="!iconOnly" d="M319.25 70H338V133C338 138.792 336.708 143.917 334.125 148.375C331.583 152.792 327.979 156.208 323.312 158.625C318.646 161.042 313.375 162.25 307.5 162.25C297.875 162.25 290.375 159.812 285 154.938C279.625 150.021 276.938 143.083 276.938 134.125H295.812C295.812 138.583 296.75 141.875 298.625 144C300.5 146.125 303.458 147.188 307.5 147.188C311.083 147.188 313.938 145.958 316.062 143.5C318.188 141.042 319.25 137.542 319.25 133V70ZM392.062 161C391.229 159.375 390.625 157.354 390.25 154.938C385.875 159.812 380.188 162.25 373.188 162.25C366.562 162.25 361.062 160.333 356.688 156.5C352.354 152.667 350.188 147.833 350.188 142C350.188 134.833 352.833 129.333 358.125 125.5C363.458 121.667 371.146 119.729 381.188 119.688H389.5V115.812C389.5 112.688 388.688 110.188 387.062 108.312C385.479 106.438 382.958 105.5 379.5 105.5C376.458 105.5 374.062 106.229 372.312 107.688C370.604 109.146 369.75 111.146 369.75 113.688H351.688C351.688 109.771 352.896 106.146 355.312 102.812C357.729 99.4792 361.146 96.875 365.562 95C369.979 93.0833 374.938 92.125 380.438 92.125C388.771 92.125 395.375 94.2292 400.25 98.4375C405.167 102.604 407.625 108.479 407.625 116.062V145.375C407.667 151.792 408.562 156.646 410.312 159.938V161H392.062ZM377.125 148.438C379.792 148.438 382.25 147.854 384.5 146.688C386.75 145.479 388.417 143.875 389.5 141.875V130.25H382.75C373.708 130.25 368.896 133.375 368.312 139.625L368.25 140.688C368.25 142.938 369.042 144.792 370.625 146.25C372.208 147.708 374.375 148.438 377.125 148.438ZM445.812 138.938L458.375 93.375H477.25L454.438 161H437.188L414.375 93.375H433.25L445.812 138.938ZM523.438 161C522.604 159.375 522 157.354 521.625 154.938C517.25 159.812 511.562 162.25 504.562 162.25C497.938 162.25 492.438 160.333 488.062 156.5C483.729 152.667 481.562 147.833 481.562 142C481.562 134.833 484.208 129.333 489.5 125.5C494.833 121.667 502.521 119.729 512.562 119.688H520.875V115.812C520.875 112.688 520.062 110.188 518.438 108.312C516.854 106.438 514.333 105.5 510.875 105.5C507.833 105.5 505.438 106.229 503.688 107.688C501.979 109.146 501.125 111.146 501.125 113.688H483.062C483.062 109.771 484.271 106.146 486.688 102.812C489.104 99.4792 492.521 96.875 496.938 95C501.354 93.0833 506.312 92.125 511.812 92.125C520.146 92.125 526.75 94.2292 531.625 98.4375C536.542 102.604 539 108.479 539 116.062V145.375C539.042 151.792 539.938 156.646 541.688 159.938V161H523.438ZM508.5 148.438C511.167 148.438 513.625 147.854 515.875 146.688C518.125 145.479 519.792 143.875 520.875 141.875V130.25H514.125C505.083 130.25 500.271 133.375 499.688 139.625L499.625 140.688C499.625 142.938 500.417 144.792 502 146.25C503.583 147.708 505.75 148.438 508.5 148.438ZM601.25 137.125C601.25 133.583 600 130.875 597.5 129C595 127.083 590.5 125.083 584 123C577.5 120.875 572.354 118.792 568.562 116.75C558.229 111.167 553.062 103.646 553.062 94.1875C553.062 89.2708 554.438 84.8958 557.188 81.0625C559.979 77.1875 563.958 74.1667 569.125 72C574.333 69.8333 580.167 68.75 586.625 68.75C593.125 68.75 598.917 69.9375 604 72.3125C609.083 74.6458 613.021 77.9583 615.812 82.25C618.646 86.5417 620.062 91.4167 620.062 96.875H601.312C601.312 92.7083 600 89.4792 597.375 87.1875C594.75 84.8542 591.062 83.6875 586.312 83.6875C581.729 83.6875 578.167 84.6667 575.625 86.625C573.083 88.5417 571.812 91.0833 571.812 94.25C571.812 97.2083 573.292 99.6875 576.25 101.688C579.25 103.688 583.646 105.562 589.438 107.312C600.104 110.521 607.875 114.5 612.75 119.25C617.625 124 620.062 129.917 620.062 137C620.062 144.875 617.083 151.062 611.125 155.562C605.167 160.021 597.146 162.25 587.062 162.25C580.062 162.25 573.688 160.979 567.938 158.438C562.188 155.854 557.792 152.333 554.75 147.875C551.75 143.417 550.25 138.25 550.25 132.375H569.062C569.062 142.417 575.062 147.438 587.062 147.438C591.521 147.438 595 146.542 597.5 144.75C600 142.917 601.25 140.375 601.25 137.125ZM659.75 147.688C663.083 147.688 665.792 146.771 667.875 144.938C669.958 143.104 671.042 140.667 671.125 137.625H688.062C688.021 142.208 686.771 146.417 684.312 150.25C681.854 154.042 678.479 157 674.188 159.125C669.938 161.208 665.229 162.25 660.062 162.25C650.396 162.25 642.771 159.188 637.188 153.062C631.604 146.896 628.812 138.396 628.812 127.562V126.375C628.812 115.958 631.583 107.646 637.125 101.438C642.667 95.2292 650.271 92.125 659.938 92.125C668.396 92.125 675.167 94.5417 680.25 99.375C685.375 104.167 687.979 110.562 688.062 118.562H671.125C671.042 115.062 669.958 112.229 667.875 110.062C665.792 107.854 663.042 106.75 659.625 106.75C655.417 106.75 652.229 108.292 650.062 111.375C647.938 114.417 646.875 119.375 646.875 126.25V128.125C646.875 135.083 647.938 140.083 650.062 143.125C652.188 146.167 655.417 147.688 659.75 147.688ZM736.375 110.312C733.917 109.979 731.75 109.812 729.875 109.812C723.042 109.812 718.562 112.125 716.438 116.75V161H698.375V93.375H715.438L715.938 101.438C719.562 95.2292 724.583 92.125 731 92.125C733 92.125 734.875 92.3958 736.625 92.9375L736.375 110.312ZM764.188 161H746.062V93.375H764.188V161ZM745 75.875C745 73.1667 745.896 70.9375 747.688 69.1875C749.521 67.4375 752 66.5625 755.125 66.5625C758.208 66.5625 760.667 67.4375 762.5 69.1875C764.333 70.9375 765.25 73.1667 765.25 75.875C765.25 78.625 764.312 80.875 762.438 82.625C760.604 84.375 758.167 85.25 755.125 85.25C752.083 85.25 749.625 84.375 747.75 82.625C745.917 80.875 745 78.625 745 75.875ZM840 127.812C840 138.229 837.625 146.583 832.875 152.875C828.167 159.125 821.792 162.25 813.75 162.25C806.917 162.25 801.396 159.875 797.188 155.125V187H779.125V93.375H795.875L796.5 100C800.875 94.75 806.583 92.125 813.625 92.125C821.958 92.125 828.438 95.2083 833.062 101.375C837.688 107.542 840 116.042 840 126.875V127.812ZM821.938 126.5C821.938 120.208 820.812 115.354 818.562 111.938C816.354 108.521 813.125 106.812 808.875 106.812C803.208 106.812 799.312 108.979 797.188 113.312V141C799.396 145.458 803.333 147.688 809 147.688C817.625 147.688 821.938 140.625 821.938 126.5ZM872.875 76.75V93.375H884.438V106.625H872.875V140.375C872.875 142.875 873.354 144.667 874.312 145.75C875.271 146.833 877.104 147.375 879.812 147.375C881.812 147.375 883.583 147.229 885.125 146.938V160.625C881.583 161.708 877.938 162.25 874.188 162.25C861.521 162.25 855.062 155.854 854.812 143.062V106.625H844.938V93.375H854.812V76.75H872.875Z" fill="black"/>
<path d="M30 29.25H210V204.75H30V29.25ZM195.25 162.893C193.94 154.889 188.59 148.161 172.73 141.882C167.21 139.357 161.08 137.611 159.24 133.555C158.56 131.137 158.46 129.831 158.9 128.398C160.03 123.679 165.77 122.265 170.27 123.571C173.2 124.449 175.9 126.643 177.59 130.163C185.34 125.219 185.34 125.219 190.75 121.933C188.72 118.872 187.71 117.536 186.36 116.22C181.63 111.072 175.33 108.44 165.1 108.664L159.82 109.317C154.75 110.526 149.91 113.168 146.99 116.668C138.44 126.106 140.91 142.555 151.26 149.37C161.49 156.829 176.47 158.467 178.38 165.487C180.18 174.047 171.86 176.787 163.63 175.802C157.56 174.476 154.18 171.522 150.47 166.033L136.75 173.716C138.32 177.216 140.12 178.757 142.82 181.828C155.87 194.659 188.5 194.006 194.35 174.476C194.56 173.823 196.15 169.328 194.91 162.416L195.25 162.893V162.893ZM127.88 109.912H111.02C111.02 124.078 110.95 138.167 110.95 152.363C110.95 161.372 111.42 169.64 109.91 172.185C107.44 177.226 101.05 176.582 98.16 175.685C95.19 174.262 93.68 172.283 91.93 169.436C91.46 168.675 91.11 168.012 90.98 168.012L77.3 176.241C79.59 180.853 82.93 184.811 87.24 187.327C93.65 191.061 102.26 192.27 111.28 190.3C117.16 188.643 122.23 185.24 124.86 179.975C128.7 173.179 127.88 164.833 127.85 155.512C127.93 140.488 127.85 125.453 127.85 110.321L127.88 109.912Z" fill="black"/>
</svg>
