<svg xmlns="http://www.w3.org/2000/svg" xmlns:xlink="http://www.w3.org/1999/xlink" viewBox="0 0 600 600"><defs><style>.cls-1,.cls-58{fill:#fff;}.cls-2{fill:#c5cad0;}.cls-3{fill:#f4825d;}.cls-4{fill:#201b51;}.cls-5{fill:#413b89;}.cls-6{fill:url(#linear-gradient);}.cls-7{fill:url(#linear-gradient-2);}.cls-8{fill:url(#linear-gradient-3);}.cls-41,.cls-9{fill:#335aa7;}.cls-10{fill:url(#linear-gradient-4);}.cls-11,.cls-13{fill:#d1dbef;}.cls-11{opacity:0.25;}.cls-12{fill:url(#linear-gradient-5);}.cls-14{fill:url(#Áåçûìÿííûé_ãðàäèåíò_32);}.cls-15{fill:url(#linear-gradient-6);}.cls-16{fill:#3960ac;}.cls-17{fill:#fcb525;}.cls-18{fill:url(#Áåçûìÿííûé_ãðàäèåíò_32-2);}.cls-19{fill:url(#Áåçûìÿííûé_ãðàäèåíò_32-3);}.cls-20{opacity:0.3;}.cls-21{fill:url(#linear-gradient-7);}.cls-22{fill:url(#linear-gradient-9);}.cls-23{opacity:0.18;}.cls-24,.cls-25{fill:#ade1f7;}.cls-25{opacity:0.2;}.cls-26,.cls-30,.cls-32{fill:none;}.cls-26,.cls-30{stroke:#fff;stroke-width:0.15px;}.cls-26,.cls-32{stroke-miterlimit:10;}.cls-27{fill:#bee6f3;}.cls-28{fill:url(#linear-gradient-10);}.cls-29{fill:url(#linear-gradient-11);}.cls-30{stroke-linecap:round;stroke-linejoin:round;}.cls-31{opacity:0.48;fill:url(#linear-gradient-12);}.cls-32{stroke:#a8a7a7;stroke-width:0.35px;}.cls-33{fill:#fbb21e;}.cls-34,.cls-59{fill:#d37a63;}.cls-35,.cls-40{fill:#f79f82;}.cls-36,.cls-53{fill:#353376;}.cls-37,.cls-54{fill:#242357;}.cls-38{fill:#201b4f;}.cls-39{fill:#d0adce;}.cls-40,.cls-41,.cls-42,.cls-51,.cls-52,.cls-53,.cls-54,.cls-55,.cls-56,.cls-57,.cls-58,.cls-59,.cls-60{fill-rule:evenodd;}.cls-42,.cls-43{fill:#1c4583;}.cls-44,.cls-60{fill:#3d3b85;}.cls-45{fill:url(#linear-gradient-13);}.cls-46{fill:url(#linear-gradient-14);}.cls-47{fill:url(#linear-gradient-15);}.cls-48{fill:url(#linear-gradient-16);}.cls-49{fill:#373175;}.cls-50{fill:#242259;}.cls-51,.cls-61{fill:#fad05a;}.cls-52{fill:#43445d;}.cls-55{fill:url(#Áåçûìÿííûé_ãðàäèåíò_32-4);}.cls-56{fill:url(#Áåçûìÿííûé_ãðàäèåíò_32-5);}.cls-57{fill:#cf7e2b;}.cls-62{fill:url(#linear-gradient-17);}</style><linearGradient id="linear-gradient" x1="529.83" y1="462.26" x2="557.82" y2="332.96" gradientUnits="userSpaceOnUse"><stop offset="0" stop-color="#3159a7"/><stop offset="1" stop-color="#557ebe"/></linearGradient><linearGradient id="linear-gradient-2" x1="466.48" y1="445.58" x2="580.88" y2="445.58" gradientUnits="userSpaceOnUse"><stop offset="0" stop-color="#f79b5e"/><stop offset="1" stop-color="#ffc863"/></linearGradient><linearGradient id="linear-gradient-3" x1="611.33" y1="475.09" x2="75.34" y2="174.66" gradientUnits="userSpaceOnUse"><stop offset="0" stop-color="#3159a7"/><stop offset="1" stop-color="#4b8cca"/></linearGradient><linearGradient id="linear-gradient-4" x1="449.87" y1="133.77" x2="107.22" y2="133.77" gradientUnits="userSpaceOnUse"><stop offset="0.05" stop-color="#fad05a"/><stop offset="0.33" stop-color="#fac85a"/><stop offset="0.77" stop-color="#f9b159"/><stop offset="1" stop-color="#f8a359"/></linearGradient><linearGradient id="linear-gradient-5" x1="220.07" y1="198.58" x2="365.95" y2="198.58" xlink:href="#linear-gradient-4"/><linearGradient id="Áåçûìÿííûé_ãðàäèåíò_32" x1="438.35" y1="235.77" x2="466.67" y2="235.77" gradientUnits="userSpaceOnUse"><stop offset="0" stop-color="#eff4fb"/><stop offset="1" stop-color="#c6d6ee"/></linearGradient><linearGradient id="linear-gradient-6" x1="456.17" y1="212.42" x2="471.3" y2="212.42" xlink:href="#linear-gradient-4"/><linearGradient id="Áåçûìÿííûé_ãðàäèåíò_32-2" x1="432.9" y1="336.56" x2="470.69" y2="336.56" xlink:href="#Áåçûìÿííûé_ãðàäèåíò_32"/><linearGradient id="Áåçûìÿííûé_ãðàäèåíò_32-3" x1="59.26" y1="202.38" x2="109.26" y2="202.38" xlink:href="#Áåçûìÿííûé_ãðàäèåíò_32"/><linearGradient id="linear-gradient-7" x1="59.26" y1="270.62" x2="109.26" y2="270.62" xlink:href="#linear-gradient-4"/><linearGradient id="linear-gradient-9" x1="65.77" y1="270.62" x2="102.75" y2="270.62" xlink:href="#linear-gradient-4"/><linearGradient id="linear-gradient-10" x1="130.82" y1="359" x2="138.73" y2="359" xlink:href="#linear-gradient-2"/><linearGradient id="linear-gradient-11" x1="160.1" y1="388.32" x2="160.53" y2="315.35" xlink:href="#linear-gradient-2"/><linearGradient id="linear-gradient-12" x1="213.81" y1="380.11" x2="335.87" y2="380.11" xlink:href="#linear-gradient-2"/><linearGradient id="linear-gradient-13" x1="35.11" y1="440.06" x2="35.11" y2="370.72" gradientUnits="userSpaceOnUse"><stop offset="0" stop-color="#242259"/><stop offset="1" stop-color="#986dae"/></linearGradient><linearGradient id="linear-gradient-14" x1="44.78" y1="440.06" x2="44.78" y2="370.72" xlink:href="#linear-gradient-13"/><linearGradient id="linear-gradient-15" x1="50.57" y1="406.98" x2="43.17" y2="432.77" gradientUnits="userSpaceOnUse"><stop offset="0" stop-color="#fdf4b6"/><stop offset="1" stop-color="#d07e2b"/></linearGradient><linearGradient id="linear-gradient-16" x1="58.17" y1="409.16" x2="50.77" y2="434.95" xlink:href="#linear-gradient-15"/><linearGradient id="Áåçûìÿííûé_ãðàäèåíò_32-4" x1="418.86" y1="476.11" x2="429.3" y2="476.11" xlink:href="#Áåçûìÿííûé_ãðàäèåíò_32"/><linearGradient id="Áåçûìÿííûé_ãðàäèåíò_32-5" x1="497.99" y1="476.44" x2="509.62" y2="476.44" xlink:href="#Áåçûìÿííûé_ãðàäèåíò_32"/><linearGradient id="linear-gradient-17" x1="472.85" y1="444.75" x2="416.53" y2="414.64" gradientUnits="userSpaceOnUse"><stop offset="0" stop-color="#6dcef4"/><stop offset="1" stop-color="#ade1f7"/></linearGradient></defs><g id="Layer_2" data-name="Layer 2"><g id="Layer_1-2" data-name="Layer 1"><rect class="cls-1" width="600" height="600"/><g id="shadow"><path class="cls-2" d="M465.73,468.36s92.8-1,71.43,7.66-36.24,11.5-68.82,12.64S384.92,485,398,478.49,465.73,468.36,465.73,468.36Z"/><path class="cls-2" d="M96.25,475.28s118.54-.13,109.63,5.68-41.54,9.78-63.92,9.6-89.9-.68-75.48-5.27S78.24,475.93,96.25,475.28Z"/><path class="cls-2" d="M47.23,458.31s28.16.61,21.33,2.49-41,1.4-44.19.45S37.11,458.81,47.23,458.31Z"/></g><g id="plant_2" data-name="plant 2"><path class="cls-3" d="M586,371.81c-1.24,31.63-21.14,82.39-40.33,76.45-5.06-1.57,1.44-25.13,20-45.87C579.09,387.38,582.6,376.4,586,371.81Z"/><path class="cls-4" d="M529.28,444.3c.11,2-27.5,4.53-40.3-16.33-10-16.25-16.17-17.7-21.51-20.59C503.79,406.73,529,439.08,529.28,444.3Z"/><path class="cls-5" d="M519.4,401.38c.17-1.7-1.55-13.92.29-23.5,3.79,3.7,17.81,51.47,17.37,59.23-.16,2.85,1.52,10.73-4.48,12.15-6.32,1.49-18-13.76-22.11-24.29-13.66-34.79-3.83-33.32-15.22-53.12C499.77,375.15,517,395.15,519.4,401.38Z"/><path class="cls-3" d="M512.1,387.91c2.3,3.33,3.34,7.26,5.59,10.52,1.81,2.63,1.63,5.93,2.91,8.45,1.39,2.72,3.8,4.11,3.95,7.92.06,1.78-.39,3.26-.22,4.87.2,2,1,3.85,1.06,6,0,1.5-.44,2.93-.48,4.35-.11,4,6.24,10.56,1.15,14.21.27,3.38-.34,4.58-2.08,4.63-3.73.11-3.59-3.68-4.32-5.77-.84-2.41-3.57-4-3.83-7.29-.14-1.71.85-3.72.67-5.27-.14-1.17-1.23-1.81-1.84-2.79-1.59-2.53-1.66-5.45-1.49-8.34.1-1.69,1.43-4.39,1.22-5.91-.39-2.93-3.38-3.68-2.47-7.9.28-1.28,1.37-2.82,1.34-4.13s-.89-2.19-1.34-3.39C510.69,394.75,512.06,391.3,512.1,387.91Z"/><path class="cls-6" d="M526.26,436.34c3.56-.14,8.06,3.22,10.43,6.93-.05-2.33-.17-4.67-.33-7-2.53-2.31-6.84-1.64-9.35-4.63s0-6.67,3.75-4.78c1.83.92,4,4,5.38,6.51-.14-1.66-.31-4-.45-5.65-.12-1.44-.22-2.88-.29-4.32-2.89-1.81-9.08-1.67-9.73-6.45-.45-3.34,2.87-5.66,5.54-2.93a24.33,24.33,0,0,1,4,6q-.12-4,0-8c-3.17-2.49-10.41-1.76-11.82-6.45-1.15-3.82,3.72-4.7,6.48-2.82s4.11,5.2,5.39,8.26c.11-2,.27-4,.51-5.95-2.38-2.43-7.37-4.07-8.35-8s2.13-8.08,5.82-4.14c1.94,2.07,2.72,5.28,3.08,8.38.36-2.18.8-4.35,1.32-6.49a26.86,26.86,0,0,0-2.34-4.22c-1.19-1.7-2.93-3.35-2.74-5.52.34-3.75,3.22-1.83,4.52.62a14.51,14.51,0,0,1,1.31,6.19c.65-2.39,1.72-6,2.55-8.34-1.26-3.84-10.77-11.23-3.89-11.7,3.25-.23,4.56,6.19,4.64,10,.5-1.27,1.73-4.2,1.83-4.4-1.14-3.14-6.67-12.82-2-13.35,3.73-.43,3.7,5.81,3.4,8.88,0,.39-.07,1-.12,1.57.9-1.91,1.85-3.83,2.87-5.71a17.73,17.73,0,0,1-2.13-4.34c-.36-1.14-1.43-6.14,1.68-4.4,1.19.66,1.71,4.22,1.55,6.75.76-1.31,1.56-2.61,2.39-3.87,4.54-9.68.07-21.92,7.48-20.73,8.81,1.4,6.31,8.65,4.2,11.37a34.5,34.5,0,0,1-9.77,8.32c-.84,1.41-4,7.64-4.42,8.46,3.5-4.34,10.55-12.9,13.42-8.21,2.54,4.15-9.82,7.37-14.09,9.61-1.16,2.45-3.73,8.79-4,9.45,1.59-1.81,2.92-4.53,5.06-5.78,1.9-1.1,6.39-2,6.43.78,0,4-5.74,4.54-8.59,5.26-2,.53-2.88,1.46-3.46,1.28-1.14,3.23-2.11,6.5-2.94,9.82,2.17-4,8.57-12.53,11.71-7.94,4,5.91-7.9,6.08-11.92,8.84a102.07,102.07,0,0,0-1.92,10.3v.12c1.39-3.16,2.47-6.37,5.27-8.79,2.54-2.2,7.14-3.32,7.19,1.88,0,3.78-6.61,4.51-9.64,6.35-1.35.82-2.33,1.89-3,2.33a91,91,0,0,0-.53,9.76c5.32-4.66,9.29-18.11,14-12,4.18,5.38-8.59,6.59-14,13.14q0,4.46.35,8.93a33.66,33.66,0,0,1,2.93-6.89c.84-1.67,5.46-6.58,7.63-2.93s-4.52,6.66-6.54,7.83a9.77,9.77,0,0,0-3.87,4.1c0,.55.65,7.35.85,10.21,1.3-4.94,12.5-23.2,17.15-13.28,3,6.37-10.82,7.95-13.91,10.24a7.26,7.26,0,0,0-3.16,4.31q.15,2.49.18,5c2.62-4.62,9.19-13.53,12.7-6.89,4.16,7.85-7,5.85-9,7-1.8,1-3.84,1.7-3.77,4.23a49.12,49.12,0,0,1-.66,5.82c-.25,1.37-2.42.91-2.28-.47a77.9,77.9,0,0,0,.42-8.07c-3.19-1.86-10.22-1.83-12.37-3.55C521.36,439.79,522.35,436.5,526.26,436.34Z"/><path class="cls-7" d="M580.88,456.85s-4-11.8-13.23-8c0,0-4.61-14.93-15.95-3.25s-7.85-13.4-19.14-11.15-7.94,10.86-7.94,10.86-10.75-5.55-8.42,4.05c0,0-25.37-12.66-25.79-1.95,0,0-17-3.15-14.06,5.67,0,0-9.87-2.52-9.87,3.77Z"/></g><g id="analysis"><rect class="cls-8" x="39.25" y="139.96" width="480.75" height="298.41"/><path class="cls-9" d="M466.91,273.13c-26.07,49.24-21.86,115.19-59.07,115.19-19.46,0-53.22-115.78-82.87-73.65-56.58,80.43-77.85-1-109.72,24.55C183,365,172.67,409.39,143.51,409.39c-17.6,0-28.27-26.68-46.8-18.55-22.74,10-23.4,34-55,47.54,1.28-.64,475.88,0,475.88,0V246.58C507.48,238.82,480.92,246.69,466.91,273.13Z"/><rect class="cls-10" x="33.85" y="127.57" width="491.56" height="12.39"/><path class="cls-11" d="M345.85,210.84c-4.4-2.7-5.28-10.26-5.51-15.42C339,165.67,325,159,314.76,167,300,178.48,313,224.9,290.15,224.9c-18.34,0-11.72-42.63-37.51-43-30-.38-31.82,51.16-31.82,51.16H365.2C364.68,203.25,352.31,214.81,345.85,210.84Z"/><path class="cls-12" d="M352.18,211.76c-2.24.17-4.34.33-5.94-.64-3.11-1.92-4.8-6.76-5.16-14.83-.71-16.3-5.49-27.67-13.11-31.18-4.34-2-9.33-1.2-13.67,2.2-6.66,5.2-7.86,17.13-9,28.67-1.51,15-2.93,29.08-15.13,29.08-7.87,0-10.85-8.42-14.3-18.17-4.08-11.53-8.7-24.6-23.2-24.78h-.33c-12.47,0-22,8.81-27.56,25.5a103.68,103.68,0,0,0-4.69,25.47l1.5,0c0-.49,2.09-49.53,30.75-49.53h.31c13.45.16,17.7,12.17,21.81,23.78,3.49,9.86,6.78,19.17,15.71,19.17,13.56,0,15.11-15.47,16.62-30.43,1.13-11.23,2.29-22.84,8.45-27.65,3.94-3.08,8.25-3.79,12.13-2,7.08,3.27,11.55,14.16,12.24,29.89.38,8.6,2.3,13.84,5.87,16,2,1.23,4.46,1.05,6.83.87,2.86-.22,5.57-.43,7.73,1.53,2.81,2.57,4.26,8.56,4.43,18.33l1.5,0c-.18-10.35-1.75-16.51-4.93-19.41C358.39,211.29,355.09,211.54,352.18,211.76Z"/><path class="cls-1" d="M322.53,161.66a3.11,3.11,0,1,0,3.11,3.11A3.11,3.11,0,0,0,322.53,161.66Z"/><rect class="cls-13" x="322.34" y="169.01" width="0.37" height="1.87"/><rect class="cls-13" x="322.34" y="220.54" width="0.37" height="3.82"/><rect class="cls-13" x="322.34" y="225.89" width="0.37" height="3.82"/><rect class="cls-13" x="322.34" y="215.19" width="0.37" height="3.82"/><rect class="cls-13" x="322.34" y="183.1" width="0.37" height="3.82"/><rect class="cls-13" x="322.34" y="188.45" width="0.37" height="3.82"/><rect class="cls-13" x="322.34" y="209.85" width="0.37" height="3.82"/><rect class="cls-13" x="322.34" y="172.4" width="0.37" height="3.82"/><rect class="cls-13" x="322.34" y="177.75" width="0.37" height="3.82"/><rect class="cls-13" x="322.34" y="193.8" width="0.37" height="3.82"/><rect class="cls-13" x="322.34" y="204.5" width="0.37" height="3.82"/><rect class="cls-13" x="322.34" y="199.15" width="0.37" height="3.82"/><rect class="cls-13" x="322.34" y="231.24" width="0.37" height="1.87"/><path class="cls-1" d="M251.25,179.87a3.11,3.11,0,1,0,3.1,3.1A3.1,3.1,0,0,0,251.25,179.87Z"/><rect class="cls-13" x="251.06" y="187.21" width="0.37" height="1.87"/><rect class="cls-13" x="251.06" y="205.8" width="0.37" height="3.64"/><rect class="cls-13" x="251.06" y="195.62" width="0.37" height="3.63"/><rect class="cls-13" x="251.06" y="200.71" width="0.37" height="3.63"/><rect class="cls-13" x="251.06" y="226.15" width="0.37" height="3.63"/><rect class="cls-13" x="251.06" y="190.54" width="0.37" height="3.63"/><rect class="cls-13" x="251.06" y="221.06" width="0.37" height="3.63"/><rect class="cls-13" x="251.06" y="210.89" width="0.37" height="3.64"/><rect class="cls-13" x="251.06" y="215.98" width="0.37" height="3.63"/><rect class="cls-13" x="251.06" y="231.24" width="0.37" height="1.87"/><rect class="cls-1" x="220.05" y="233.01" width="145.15" height="0.19"/><path class="cls-1" d="M436.84,187.52a21.6,21.6,0,1,0,21.59,21.6A21.62,21.62,0,0,0,436.84,187.52Zm0,42.59a21,21,0,1,1,21-21A21,21,0,0,1,436.84,230.11Z"/><path class="cls-14" d="M438.35,235.33v11.28a34.42,34.42,0,0,0,28.32-14.83l-9-6.86A23.13,23.13,0,0,1,438.35,235.33Z"/><path class="cls-3" d="M414.39,214.87l-10.69,3.69a34.48,34.48,0,0,0,33.14,25h0V232.29h0A23.19,23.19,0,0,1,414.39,214.87Z"/><path class="cls-13" d="M410.46,187a34.42,34.42,0,0,0-6.76,31.6l10.69-3.69a23.18,23.18,0,0,1,5.06-21.05Z"/><path class="cls-15" d="M458,199.78a23.12,23.12,0,0,1-1.87,22.1l9,6.87a34.44,34.44,0,0,0,3.59-32.67Z"/><path class="cls-1" d="M437.5,173.72V185a23.16,23.16,0,0,1,21.2,13.82l10.7-3.69A34.46,34.46,0,0,0,437.5,173.72Z"/><path class="cls-16" d="M410.46,187l9,6.86A23.11,23.11,0,0,1,436.84,186h0V174.66h0A34.37,34.37,0,0,0,410.46,187Z"/><path class="cls-16" d="M432.9,299.8a17.86,17.86,0,1,0,17.86,17.86A17.88,17.88,0,0,0,432.9,299.8Zm0,35.12a17.26,17.26,0,1,1,17.26-17.26A17.27,17.27,0,0,1,432.9,334.92Z"/><path class="cls-13" d="M432.9,295.63a22,22,0,1,0,22,22A22.06,22.06,0,0,0,432.9,295.63Zm0,41.64a19.61,19.61,0,1,1,19.61-19.61A19.63,19.63,0,0,1,432.9,337.27Z"/><path class="cls-16" d="M432.9,291.7a25.77,25.77,0,0,0-18.41,7.65l1.71,1.71a23.55,23.55,0,1,1,16.7,40.15v2.43a26,26,0,1,0,0-51.94Z"/><path class="cls-1" d="M432.9,287.76A29.94,29.94,0,0,0,403,317.66h2.43a27.49,27.49,0,1,1,27.48,27.49v2.42a29.91,29.91,0,1,0,0-59.81Z"/><path class="cls-17" d="M454.5,291.6,453,293.46a31.43,31.43,0,0,1-20.05,55.63v2.42a33.85,33.85,0,0,0,21.6-59.91Z"/><path class="cls-18" d="M432.9,353v2.42a37.83,37.83,0,0,0,37.79-37.79h-2.43A35.41,35.41,0,0,1,432.9,353Z"/><path class="cls-19" d="M84.26,177.38a25,25,0,1,0,25,25A25,25,0,0,0,84.26,177.38Zm0,45.86a20.86,20.86,0,1,1,20.86-20.86A20.89,20.89,0,0,1,84.26,223.24Z"/><path class="cls-13" d="M84.26,177.38v4.15a20.88,20.88,0,0,1,20.86,20.85h4.14A25,25,0,0,0,84.26,177.38Z"/><path class="cls-13" d="M84.26,183.89a18.5,18.5,0,1,0,18.49,18.49A18.51,18.51,0,0,0,84.26,183.89Zm0,36.05a17.56,17.56,0,1,1,17.56-17.56A17.58,17.58,0,0,1,84.26,219.94Z"/><g class="cls-20"><path class="cls-1" d="M153.41,177.38a25,25,0,1,0,25,25A25,25,0,0,0,153.41,177.38Zm0,45.86a20.86,20.86,0,1,1,20.85-20.86A20.89,20.89,0,0,1,153.41,223.24Z"/></g><path class="cls-17" d="M153.41,177.38v4.15a20.86,20.86,0,0,1,0,41.71v4.14a25,25,0,0,0,0-50Z"/><path class="cls-13" d="M153.41,183.89a18.5,18.5,0,1,0,18.49,18.49A18.52,18.52,0,0,0,153.41,183.89Zm0,36.05A17.56,17.56,0,1,1,171,202.38,17.58,17.58,0,0,1,153.41,219.94Z"/><path class="cls-21" d="M84.26,245.62a25,25,0,1,0,25,25A25,25,0,0,0,84.26,245.62Zm0,45.86a20.86,20.86,0,1,1,20.86-20.86A20.89,20.89,0,0,1,84.26,291.48Z"/><path class="cls-21" d="M84.26,245.62v4.14A20.86,20.86,0,1,1,63.4,270.62H59.26a25,25,0,1,0,25-25Z"/><path class="cls-22" d="M84.26,252.13a18.49,18.49,0,1,0,18.49,18.49A18.51,18.51,0,0,0,84.26,252.13Zm0,36a17.55,17.55,0,1,1,17.56-17.55A17.57,17.57,0,0,1,84.26,288.17Z"/><path class="cls-13" d="M153.41,245.62a25,25,0,1,0,25,25A25,25,0,0,0,153.41,245.62Zm0,45.86a20.86,20.86,0,1,1,20.85-20.86A20.89,20.89,0,0,1,153.41,291.48Z"/><path class="cls-13" d="M153.41,252.13a18.49,18.49,0,1,0,18.49,18.49A18.51,18.51,0,0,0,153.41,252.13Zm0,36A17.55,17.55,0,1,1,171,270.62,17.57,17.57,0,0,1,153.41,288.17Z"/><g class="cls-23"><rect class="cls-1" x="212.04" y="266.45" width="173.44" height="73.72" rx="4.28"/></g><path class="cls-24" d="M267,305.13a20.53,20.53,0,0,1-.8,5.69,20.79,20.79,0,1,1-20-26.48v20.79l17.93-10.49A20.67,20.67,0,0,1,267,305.13Z"/><path class="cls-3" d="M266,291A20.76,20.76,0,0,0,248,280.69v20.79Z"/><path class="cls-5" d="M267,305.13a20.53,20.53,0,0,1-.8,5.69l-20-5.69,17.93-10.49A20.67,20.67,0,0,1,267,305.13Z"/><path class="cls-25" d="M246.16,284.34v20.79L229,316.89a20.8,20.8,0,0,1,17.15-32.55Z"/><rect class="cls-24" x="274.84" y="298.62" width="48.18" height="1.8"/><rect class="cls-24" x="274.84" y="295.17" width="51.65" height="1.8"/><rect class="cls-24" x="274.84" y="291.72" width="51.65" height="1.8"/><rect class="cls-24" x="274.84" y="288.27" width="31.58" height="1.8"/><rect class="cls-24" x="274.84" y="284.82" width="35.49" height="1.8"/><rect class="cls-24" x="332.92" y="298.62" width="38.95" height="1.8"/><rect class="cls-24" x="332.92" y="295.17" width="42.86" height="1.8"/><rect class="cls-24" x="332.92" y="291.72" width="42.86" height="1.8"/><rect class="cls-24" x="332.92" y="288.27" width="20.32" height="1.8"/><rect class="cls-24" x="332.92" y="284.82" width="24.71" height="1.8"/><rect class="cls-24" x="274.84" y="320" width="48.18" height="1.8"/><rect class="cls-24" x="274.84" y="316.55" width="51.65" height="1.8"/><rect class="cls-24" x="274.84" y="313.1" width="51.65" height="1.8"/><rect class="cls-24" x="274.84" y="309.65" width="31.58" height="1.8"/><rect class="cls-24" x="274.84" y="306.21" width="35.49" height="1.8"/><rect class="cls-24" x="332.92" y="320" width="38.95" height="1.8"/><rect class="cls-24" x="332.92" y="316.55" width="42.86" height="1.8"/><rect class="cls-24" x="332.92" y="313.1" width="42.86" height="1.8"/><rect class="cls-24" x="332.92" y="309.65" width="20.32" height="1.8"/><rect class="cls-24" x="332.92" y="306.21" width="24.71" height="1.8"/><polyline class="cls-26" points="110.08 324.89 110.08 373.06 186.63 373.06"/><line class="cls-26" x1="110.08" y1="367.98" x2="186.63" y2="367.98"/><line class="cls-26" x1="110.08" y1="362.63" x2="186.63" y2="362.63"/><line class="cls-26" x1="110.08" y1="357.27" x2="186.63" y2="357.27"/><line class="cls-26" x1="110.08" y1="351.92" x2="186.63" y2="351.92"/><line class="cls-26" x1="110.08" y1="346.57" x2="186.63" y2="346.57"/><line class="cls-26" x1="110.08" y1="341.21" x2="186.63" y2="341.21"/><line class="cls-26" x1="110.08" y1="335.86" x2="186.63" y2="335.86"/><line class="cls-26" x1="110.08" y1="330.51" x2="186.63" y2="330.51"/><line class="cls-26" x1="110.08" y1="325" x2="186.63" y2="325"/><line class="cls-26" x1="110.08" y1="319.49" x2="186.63" y2="319.49"/><line class="cls-26" x1="110.08" y1="314.21" x2="110.08" y2="373.06"/><rect class="cls-27" x="118.04" y="329.35" width="7.91" height="43.59"/><rect class="cls-28" x="130.82" y="345.06" width="7.91" height="27.88"/><rect class="cls-27" x="143.6" y="335.2" width="7.91" height="37.75"/><rect class="cls-29" x="156.39" y="320.22" width="7.91" height="52.72"/><rect class="cls-27" x="169.17" y="328.5" width="7.91" height="44.44"/><polyline class="cls-30" points="121.99 329.41 134.78 345.06 147.56 335.2 160.35 320.16 173.13 328.5"/><path class="cls-1" d="M135.63,345.06a.89.89,0,1,1-.88-.88A.88.88,0,0,1,135.63,345.06Z"/><path class="cls-1" d="M148.35,335.26a.88.88,0,1,1-.88-.88A.87.87,0,0,1,148.35,335.26Z"/><path class="cls-1" d="M174,328.5a.88.88,0,1,1-.88-.88A.87.87,0,0,1,174,328.5Z"/><path class="cls-1" d="M122.93,329.29a.88.88,0,1,1-.88-.88A.87.87,0,0,1,122.93,329.29Z"/><path class="cls-1" d="M161.23,320a.89.89,0,1,1-.88-.88A.88.88,0,0,1,161.23,320Z"/><rect class="cls-31" x="213.81" y="365.77" width="122.06" height="28.67" rx="1.85"/><path class="cls-1" d="M321.37,385H228.32a4.89,4.89,0,0,1-4.89-4.89h0a4.89,4.89,0,0,1,4.89-4.89h93.05a4.89,4.89,0,0,1,4.89,4.89h0A4.89,4.89,0,0,1,321.37,385Z"/><circle class="cls-1" cx="315.41" cy="380.11" r="10.85" transform="translate(-176.4 334.36) rotate(-45)"/><line class="cls-32" x1="229.14" y1="377.87" x2="229.14" y2="382.39"/><path class="cls-33" d="M319.93,383.78l-2-1.75a4,4,0,0,0,.85-2.46,4,4,0,1,0-4,4,4,4,0,0,0,2.45-.85l2.08,1.81a.47.47,0,0,0,.32.13.57.57,0,0,0,.4-.18A.51.51,0,0,0,319.93,383.78Zm-5.19-1.2a3,3,0,1,1,3-3A3,3,0,0,1,314.74,382.58Z"/></g><g id="lady"><g id="feet"><path class="cls-34" d="M158.19,478.07c-4.43-1.6-10.34-4.87-12.21-6.57a6.33,6.33,0,0,1-1.57-4.57,10.5,10.5,0,0,1-4.43.87,12.73,12.73,0,0,1-4.46-.8c-.12,2.53-.08,5.09-.39,7.6-.15,1.24-.45,2.55.18,3.62.82,1.4,2.78,1.56,4.41,1.58,3.69.05,7.38.28,11.05.69,3.16.32,6.43.8,9.46-.23.62-.19,1.33-.68,1.11-1.31A17.48,17.48,0,0,1,158.19,478.07Z"/><path class="cls-35" d="M158.19,478.07a1.13,1.13,0,0,1-.28-.09,16.56,16.56,0,0,1-4.18.31c-6.15-.31-12.17-4.5-13.75-10.49a12.73,12.73,0,0,1-4.46-.8c-.12,2.53-.08,5.09-.39,7.6-.15,1.24-.45,2.55.18,3.62.82,1.4,2.78,1.56,4.41,1.58,3.69.05,7.38.28,11.05.69,3.16.32,6.43.8,9.46-.23.62-.19,1.33-.68,1.11-1.31A17.48,17.48,0,0,1,158.19,478.07Z"/><path class="cls-34" d="M100.83,473.9c-2.09-1.9-1.46-5.61-1.61-8-.17-2.8-8.51-.44-8.57,0-.53,3.7-.21,7.48-.65,11.18-.15,1.22-.43,2.54.19,3.6.83,1.41,2.78,1.56,4.42,1.58,3.69,0,7.38.25,11,.63,3.16.33,6.45.77,9.47-.25.6-.2,1.3-.71,1.1-1.31C112.15,480.71,103.24,476.08,100.83,473.9Z"/><path class="cls-35" d="M94.32,465.5c.12-.28.26-.53.39-.79a11.39,11.39,0,0,0-4.06,1.17c-.53,3.7-.21,7.48-.65,11.18-.15,1.22-.43,2.54.19,3.6.83,1.41,2.78,1.56,4.42,1.58,3.42,0,6.84.23,10.25.56C98.1,479.68,91,473.49,94.32,465.5Z"/></g><g id="shoes"><path class="cls-36" d="M117.06,480.87c-.65-.27-6.46-2.34-9.75-3.48-1.24-.43-2.19,1.25-2.19,2.25-7.5,0-14-5.05-15.06-4.29-1.9,1.42-3.36,5.85.41,7.55.5.22,1.68.35,5.66.35,3.57,0,7.1,2,9.32,2h11.64C118.34,485.29,119.16,481.76,117.06,480.87Z"/><path class="cls-37" d="M117.69,481.3a8.85,8.85,0,0,1-2.62,1.2,12,12,0,0,1-6.22,0c-1.41-.38-9.75-1.38-12.41-1.53A9,9,0,0,1,89,476.62a5.18,5.18,0,0,0-.74,3.69l-.1,0L90,485H97.3s6.07.32,8.15.32h11.64C118.19,485.29,119,482.56,117.69,481.3Z"/></g><path class="cls-37" d="M91.87,391.28c1.06,17.13-1.51,22.46-2.35,32.32s.78,47,.78,47a12.79,12.79,0,0,0,9,.24l16.86-126.15L85.62,342S90.81,374.15,91.87,391.28Z"/><path class="cls-36" d="M90.56,389.47c2.48,10.24-2,23.7-2.89,33.57s2.63,47.54,2.63,47.54.79.86,4,.9c-1.11-14.08-4.07-27.16,1.91-39,1.9-3.74,2.62-14.61,2.62-19.08,0-9-2.52-24.34,1.38-37.09,1.49-4.88,1.94-32.74,1.94-32.74l-15.62-5s-2.82,6.16-1.8,18.68C85.41,366.25,86.44,372.36,90.56,389.47Z"/><path class="cls-37" d="M97.67,345.28a8.45,8.45,0,0,0,.49,5.38c1.79,4.68,19.29,49.54,19,53.73-1,16,9.19,30.84,17.28,66.83,3.08,1.07,9.11,1.93,12.08-1.36-1.75-19.45-17.64-113.5-19.35-123.7C127,346.06,105.79,348.14,97.67,345.28Z"/><path class="cls-36" d="M133.79,434.35c-2.45-5.72-8.37-17.68-9.68-23.7-1.53-7-.93-26.75-2.32-33-.93-4.21-1.28-8.57-3.37-12.2-1.42-2.45-3.54-4-5-6.36-2.42-3.93-2.75-6.91-1.92-10.67a104.2,104.2,0,0,1-13.83-3.16,8.45,8.45,0,0,0,.49,5.38c1.79,4.68,19.29,49.54,19,53.73-1,16,9.19,30.84,17.28,66.83,1.75.61,4.28,1.62,6.49.94-2-5.87-2.52-14.31-3.54-19.6C136.15,445.91,136.41,440.46,133.79,434.35Z"/><path class="cls-38" d="M78.68,223.91a9.06,9.06,0,1,0,0,18.11c5,0,6.76-4.05,6.76-9.06S83.68,223.91,78.68,223.91Z"/><path class="cls-36" d="M162.17,478.53c-.64-.27-6.44-2.37-9.73-3.52-1.24-.44-2.19,1.25-2.2,2.24-7.49,0-14-5.11-15-4.35-1.9,1.41-3.38,5.83.38,7.55.5.23,1.68.36,5.66.38,3.57,0,7.09,2.06,9.31,2.07l11.64.05C163.44,483,164.28,479.42,162.17,478.53Z"/><path class="cls-37" d="M162.78,478.94a2.94,2.94,0,0,1-2.16,1.41c-4.82.75-10.29-.33-15.07-1.09a31.24,31.24,0,0,1-11.83-4.34,4.8,4.8,0,0,0-.29,3.23h0l.05.13a.78.78,0,0,1,.05.14l1.72,4.43,7.32,0,8,0,11.64.05C163.29,483,164.07,480.19,162.78,478.94Z"/><path class="cls-39" d="M138.58,466.34v0c-.14.06-.25.15-.39.22Z"/><g id="top"><path class="cls-40" d="M169.72,230.4a2,2,0,0,0-.84-2.77c.62-1-.31-1.79-1.24-1.9a11.41,11.41,0,0,0,.93-1.78c.59-1,1-1.7,1.74-3.23,1-2.05-.2-2.25-1.19-1a36.36,36.36,0,0,0-2.65,3.8c-1,1.41-2.26,3.52-3,4.48a3.19,3.19,0,0,1-2.27,1.5,6.22,6.22,0,0,0-.14-2c1.11-1.86.92-3.5-.32-4.46a21.28,21.28,0,0,1-1.94,4.85l-.78,5.62a23.27,23.27,0,0,0,.08,4.33c.07,1.57-.81,2.49-1.49,3.67-2.9,5.06-12.65,12.71-20.72,20-2.76,2.52.24,8.93,3.07,8.79,7.11-.36,19.21-20,24-26.4,3.67-4.86,5.26-8.07,6.65-9.84S171.1,231.22,169.72,230.4Z"/><path class="cls-41" d="M156.91,240.59c-.17.25-13.5,12.07-21.69,19.62-6.57.3-18.56.07-30.92,1.39a8.21,8.21,0,0,0,1.7,16.34c9.12-.92,23-3.06,32.53-7h0c7.06-.35,19.31-19.53,24.2-26.06C160.57,244.21,158.47,242.18,156.91,240.59Z"/><path class="cls-42" d="M158.94,246.69c-5.78,4.75-15.25,15.3-20.62,19.28-6.3,4.66-11.89,3.49-19.06,4.41-7.57,1-13.31,5.25-20.33,4.73,1.89,2.77,4.51,3.09,7.07,2.83,9.12-.92,23-3.07,32.53-7h0c5.8-.28,15.5-13.69,21.45-22.25C160.54,247.87,159.7,246.06,158.94,246.69Z"/><path class="cls-9" d="M102.68,319.05c3.06-6.68,4.91-14.08-1.81-21.48S99.47,278,99.47,278s10.35-.47,20.09-.4c-5.45-6.17-11.71-12.68-11.71-12.68s-3.86-12.75-16.42-1.6-5.32,42.95-4.83,53.05-4.76,28.59-4.33,30c.29,1,8.53,1.64,16.58,2.95h0C108,345.58,99.62,325.74,102.68,319.05Z"/><path class="cls-43" d="M129.81,348.21c.46-3-5.15-34.85-5.58-38.55s5.59-17.59,2.84-22.61c-1-1.93-4.12-5.63-7.51-9.47-9.74-.07-20.09.4-20.09.4s-5.32,12.2,1.4,19.59,4.87,14.8,1.81,21.48,5.36,26.53-3.83,30.26h0a66.78,66.78,0,0,1,9.73,2.18C117.69,354.47,129.81,348.21,129.81,348.21Z"/><path class="cls-40" d="M193.17,270.55a23.52,23.52,0,0,0-3.89,1.49c-1.94.62-4.09,1.4-5.23,1.76-1.66.53-1.93-.18-2.22-.76.22-.33,3.38-3.35,2.94-4.86a21.1,21.1,0,0,1-4.43,2.78L176,275.58h0a11.33,11.33,0,0,0-2.08,3c-.69,1.4-24.88,6.13-35.73,7.29-3.72.41-5.07,7.36-2.71,8.91,6,3.91,31.13-6.09,38.76-8.39,5.83-1.76,9-3.42,11.18-4s2.89-1.5,2.26-3a2,2,0,0,0,1-2.73,1.45,1.45,0,0,0,.42-2.42c.74-.3,2.65-1.31,4.35-2.17C195.24,271.12,194.57,270.14,193.17,270.55Z"/><path class="cls-42" d="M167.38,280.41c-.29.1-17.89,2.67-28.95,3.93-5.49-3.64-15-10.9-25.79-17.12a8.21,8.21,0,0,0-8.27,14.19c7.9,4.64,20.36,11.09,30.4,13.53h0c5.9,3.88,35-6.53,35-6.53A67.14,67.14,0,0,1,167.38,280.41Z"/><path class="cls-41" d="M168.59,285.8c-9.11,5.21-19.18,6.95-29.07,4.51-.8-.2-29.26-11.09-36.44-19.55-.19-.23-1.87-2.85-2-3.07-1-1.71-4.15,9.47-.34,11.71,7.9,4.64,24,13.09,34.08,15.54h0c5.91,3.88,35-6.53,35-6.53s-.5-1.39-1-2.81Z"/></g><g id="head"><path class="cls-35" d="M114.32,235c-2.91-1.73-5.79-6.41-6.85-9-2.76-6.81-12.88-4-16.28,3.24-1.75,3.73-1.52,8.13-.34,12.07a22.6,22.6,0,0,0,1.61,4c.88,4.89-1,18-1,18,6.7-1.38,13,2.26,13,2.26a10.87,10.87,0,0,0,3.77.57s-2.37-6.91-1.62-11.82c2,.21,4,.2,4.75-.27,2.5-1.53,2.42-12.38,3.63-15.34C116,236.14,115.05,235.42,114.32,235Z"/><path class="cls-34" d="M110.94,254.21a14.51,14.51,0,0,1-2.94-.4,17.93,17.93,0,0,1-6.37-3.22,20.41,20.41,0,0,1,.65-5.31c-1.87-.73-6.34-3-8.69-3.82a16,16,0,0,1-.67-12.8,12.7,12.7,0,0,1,3.18-4.9,12.8,12.8,0,0,0-4.91,5.44c-1.75,3.73-1.52,8.13-.34,12.07a22.6,22.6,0,0,0,1.61,4c.88,4.89-1,18-1,18,10.68-.54,8,1.5,13,2.26-1.39-2.12-2.48-7.22-2.76-12.07C104.23,254.1,109.05,254.81,110.94,254.21Z"/><path class="cls-44" d="M99,219.21c-16.42-2.93-20,8.47-19.65,17.12.34,8.86,9.42,16.45,13.09,17.61.49.15,7.31.45,11.09-7.83.75-1.66,1.2-3.31.36-3.78-3-1.68-4.13-6.55-2.89-7.79,1.93-1.9,2.83,1.31,4.09.35s2.64-6.87,1-10.09C104.79,222.41,102.06,219.76,99,219.21Z"/><path class="cls-38" d="M89.92,239.7c.15-1.39,1.1-4.36,1.39-5.73,1.27-6-4.09-10.86-9.12-7.83-3,1.8-5.28,12.09,1.1,20.22,2.38,3,7.35,7.64,10,7.64S89.34,245.32,89.92,239.7Z"/></g></g><g id="plant_1" data-name="plant 1"><path class="cls-45" d="M37.18,374.72c-.43,2,.2,4.43-.16,6.51-.44,2.6-2.09,3.34-3.21,5-1.33,2-1.93,5.59-1.45,8.69a44.67,44.67,0,0,0,1.45,5.3A12.49,12.49,0,0,1,34.2,406c-.63,2.76-4,4.91-4,16.63,0,10.69,7.64,14.85,9.8,17.47V370.72l-1,.95A5.63,5.63,0,0,0,37.18,374.72Z"/><path class="cls-46" d="M46.09,400.2a44.67,44.67,0,0,0,1.45-5.3c.48-3.1-.12-6.74-1.45-8.69-1.12-1.64-2.77-2.38-3.21-5-.36-2.08.27-4.48-.16-6.51a5.64,5.64,0,0,0-1.86-3.05l-1-.95v69.34c2.16-2.62,9.79-6.78,9.79-17.47,0-11.72-3.36-13.87-4-16.63A12.35,12.35,0,0,1,46.09,400.2Z"/><path class="cls-47" d="M50,413.36c-.58.76-.33,1.91-.85,2.71-.65,1-2.1,1-3.21,1.41a3.55,3.55,0,0,0-2.15,3.35,13.26,13.26,0,0,0,.62,2.54,2.92,2.92,0,0,1-.31,2.52c-.82,1-3.84,1.21-5.12,6.15-1.18,4.51,4.69,7.91,6.19,9.48l7.62-29.24-.92.19A3,3,0,0,0,50,413.36Z"/><path class="cls-48" d="M54,417.33c-.06-.95.72-1.83.59-2.77a3,3,0,0,0-1.2-1.69l-.71-.61L45,441.49c2.08-.64,8.86-.74,10-5.25,1.29-4.94-1.26-6.57-1.48-7.87a2.91,2.91,0,0,1,1-2.34,13,13,0,0,0,1.78-1.93,3.55,3.55,0,0,0-.24-4C55.32,419.19,54,418.53,54,417.33Z"/><path class="cls-49" d="M44.09,444.41c-2.27-3.42-16.7-6.11-16.7-6.11s4.75,5.1,4.75,8.53a15.28,15.28,0,0,1-.81,3.89,7.74,7.74,0,0,0,7.36,10.08h.45A16.34,16.34,0,0,0,41,454.91C41,451.62,46.37,447.82,44.09,444.41Z"/><path class="cls-50" d="M58.63,450.72a14.94,14.94,0,0,1-.82-3.89c0-3.43,4.76-8.53,4.76-8.53H27.39s14.43,2.69,16.7,6.11S41,451.62,41,454.91a16.34,16.34,0,0,1-1.83,5.89H51.27A7.75,7.75,0,0,0,58.63,450.72Z"/></g><g id="man"><path class="cls-51" d="M460.85,395.53c-9.06,2.47-13.85,16.15-18,24.22,0,0,2.8,5.81,13.19,6.55,0,0,10.69-17.06,10.76-21.38S462.67,395,460.85,395.53Z"/><path class="cls-52" d="M460.85,395.53a13.35,13.35,0,0,0-1.54.54,3.07,3.07,0,0,1,.47,1.76c-.14,9.18-6.17,18.37-13.3,25.59A19.81,19.81,0,0,0,456,426.3s10.69-17.06,10.76-21.38S462.67,395,460.85,395.53Z"/><g id="shoes-2" data-name="shoes"><path class="cls-53" d="M445.29,467.31c-.77.07-11.69-.7-16.06-.19s-6.13.61-8.71,3.51-1.7,7.83-.35,11.34,3.23,3.55,6.62,2.59,7.09-3.65,10.52-4,4.29.27,6.7-.43,2.87.1,2.62-1.66S445.29,467.31,445.29,467.31Z"/><path class="cls-54" d="M445.29,467.31c-.77.07-11.69-.7-16.06-.19s-6.13.62-8.71,3.51a7.86,7.86,0,0,0-1.62,5.95,15.17,15.17,0,0,0,7.48-.1c2.23-.47,4.61-1.36,6.93-.92s5.44,2.39,6.35,4.9a12.44,12.44,0,0,0,4.35-.32c2.41-.71,2.87.1,2.62-1.66S445.29,467.31,445.29,467.31Z"/><path class="cls-55" d="M425.24,469c1.46-1,4.57-1.94,4-1.87-4.36.52-6.13.61-8.71,3.51s-1.7,7.83-.35,11.34c1.23,3.17,2.88,3.51,5.69,2.84C421.29,481,419.44,472.82,425.24,469Z"/><path class="cls-53" d="M505.58,467.63c-2.5-.4-10.84-.33-17.23-1.26l-6.93,9.83c-.16.23,5.08,3.1,7.23,4.79s10.76,4.6,13.15,4.15,6.79-9.91,7.68-13.32S508.09,468,505.58,467.63Z"/><path class="cls-54" d="M505.53,467.63c-2.51-.4-10.85-.33-17.23-1.26,0,0-5.92,8.4-6.83,9.67,3,0,5.78-1.5,8.81-1,1.52.24,3.3,2.23,7.71,1.7,2.67-.32,2.17,4.16-.15,6.41a7.37,7.37,0,0,1-1.51,1.12,15.36,15.36,0,0,0,5.41.89c2.39-.44,6.79-9.91,7.68-13.32S508,468,505.53,467.63Z"/><path class="cls-56" d="M506,467.7c2,1.59-3.5,15.08-8,17a10.85,10.85,0,0,0,3.75.44c2.39-.44,6.79-9.91,7.68-13.32C510.26,468.61,508.29,468.08,506,467.7Z"/></g><g id="top-2" data-name="top"><path class="cls-51" d="M457.05,397.23c-2.8,1.9-.24,33.9-2.87,38.89-4.19,7.93-9.32,17.5-9.32,17.5,11,6.46,53.08,6.44,53.08,6.44A147.26,147.26,0,0,0,502,440c2.08-14.53,2.79-46.19,2-46.4C486.31,388.9,462,393.9,457.05,397.23Z"/><path class="cls-57" d="M501.73,393c-5.44-.8-14.9,7.84-15.38,21.55-.13,3.64-1.17,8.29-4.23,14-1.71,3.2-8.69,5.86-11.7,6.91s-3.42,2.37-1.67,3.28,15.53,3.17,13.83,5.28-18.6,6-15.53,13.22c1.47,3.5,27,1,31.66,0,1.55-2.85,1.73-9.72,2.74-14,2.1-8.93,1.41-28.06,2.69-38.25C504.85,398.1,507.7,393.88,501.73,393Z"/><path class="cls-58" d="M472.07,393.64l.44-1.18s-2.72-.25-3.17,3.11a15.19,15.19,0,0,0,2.07,9.82c.47-3,4.88-6.94,4.88-6.94C472.38,396.77,472.07,393.64,472.07,393.64Z"/><path class="cls-58" d="M487.19,388.15l.43,2.46s-5.66,8.47-11.33,7.84c0,0,4.54,3.88,5.78,7.13,0,0,6.93-6.29,7.73-12.08A4.79,4.79,0,0,0,487.19,388.15Z"/></g><path class="cls-35" d="M515.83,436.69a71,71,0,0,0-5.4-4.94l.58-6.9c.46-2.16,2.54-4.16,5.16-5.69-4.36,0-11.82,5.69-11.82,5.69l2.31,6.79c-1.35,0-31.18,5-31.18,5-12.45-2.61-17.93,5.87-18.74,7.26,15-.86,46.12-2.67,51.7-3.21C515.83,440,516.4,437.54,515.83,436.69Z"/><path class="cls-34" d="M504.81,444.27c14.3.6,17.57-2.6,18-4.59s-4.76-20-4.76-20a3.2,3.2,0,0,0-1.87-.54c-2.62,1.53-4.7,3.53-5.16,5.69l-.58,6.9a71,71,0,0,1,5.4,4.94c.57.85,0,3.27-7.39,4-5.58.54-36.72,2.35-51.7,3.21l-.11.2S490.51,443.66,504.81,444.27Z"/><g id="head-2" data-name="head"><path class="cls-35" d="M484.54,373.89c.61-2.75-.9-10.82-2.16-16.66h-.07c-4.55-.47-17.71-2.94-18.72,10s5.35,20.7,6.58,20.64a6,6,0,0,0,2.24-.58C482.48,385.62,483.54,378.37,484.54,373.89Z"/><path class="cls-35" d="M478,393c.29-4.19-5.59-5.62-5.59-5.62s.72,3.44.1,5.13-1.6,2.34.56,4.69c1.22,1.33,3.2,2.31,6.15,1A10.38,10.38,0,0,1,478,393Z"/><path class="cls-59" d="M485.27,369.67a6.3,6.3,0,0,0-.09.81S485.22,370.18,485.27,369.67Z"/><path class="cls-59" d="M487.62,390.61s-2.46-10.06-1.56-13.95c0,0,6.8-4.55,3-8-2.79-2.53-3.59-.33-3.82,1,0,.51-.09.81-.09.81a6.3,6.3,0,0,1,.09-.81c.28-2.79.89-11.93-2.89-12.44,1.26,5.84,2.77,13.91,2.16,16.66-1,4.48-2.06,11.73-12.13,13.44,0,0,5.88,1.43,5.59,5.62a10.38,10.38,0,0,0,1.22,5.24C481.44,397.22,484.21,395,487.62,390.61Z"/><path class="cls-60" d="M484.18,361.44c2.85,2.14,8.47,1.46,8-2.47s-.16-5.94,2.41-7.46a6.93,6.93,0,0,0,2.52-3c-4.21.19,0-4.15-2.94-3.5,0,0-1.28-3.69-3-1.9s-.88-3.51-2.86-1.47-.56-3.84-3.88-2.7-4.74,1-6.16-.15-4.93-1.43-4.93.93c0,0-2.91.83-2.71,2.35s-3.5-1-4.21,1.37-1.06,2.92-3.67,3.09-3.54,2.7-2.59,3.74c0,0-2.85,2-1.9,3.61.62,1-1.12,2.21-1.86,3.73h0c.33,5.93,4.86,1.4,4.29,3a2,2,0,0,0,2,2.78c1.38-.11,1.63,1.6,1.63,1.6a2.75,2.75,0,0,0,2.26.85c1.65,0,2.15-1.85,2.15-1.85s.36,1.42,2.49,1.14,1.32,1.14,3.29,1.35a9,9,0,0,1,3.4-1.61h0S481.34,359.31,484.18,361.44Z"/><path class="cls-38" d="M462.78,363.33a2,2,0,0,1-2-2.78c.57-1.56-4,3-4.29-3h0a2.52,2.52,0,0,0,.17,2.71c1.95,2.92-1.52,5.41,2.24,4.41,0,0-1,2.71.71,3.06a38.72,38.72,0,0,1,3.92,1.14,15,15,0,0,1,.91-4S464.16,363.22,462.78,363.33Z"/><path class="cls-38" d="M479.48,366c.44,2.92,1.86,2,2.78,2.21s-.21,3.77,2.92,2.28c0,0,2.58-3.87,4.31-1.37s-.21,5.06-3.43,7.55c0,0,.16,2.85,2.31,3.35s2.14-3.7,5.2-3-.12-1.57,1.06-2.86,3.92-3.12,2.07-4.82,6.05-4,3.7-6.83,4.91-3.77,1.49-5.41,1.85-9.65-3.93-8.7a6.89,6.89,0,0,1-.81.09,6.93,6.93,0,0,1-2.52,3c-2.57,1.52-2.83,3.53-2.41,7.46s-5.19,4.61-8,2.47-6.18,3.37-6.18,3.37h0A1.22,1.22,0,0,1,479.48,366Z"/></g><path class="cls-61" d="M504.35,393.62a2.48,2.48,0,0,0-.33-.06c-15-.95-3,27.29-1.89,28.72a33.15,33.15,0,0,1,2.42,4h2.1a25.06,25.06,0,0,0,4.36-1.47s-.3-12.2-1.22-20.59S504.37,393.64,504.35,393.62Z"/><path class="cls-57" d="M510.43,399.64c-2.28-4.67-5.13-5.77-6.08-6,0,0,4.52,2.27,5.44,10.64S511,424.84,511,424.85c3.92-1.54,9-3.74,9-3.74C518.84,420.55,513.2,405.33,510.43,399.64Z"/><g id="pants"><path class="cls-9" d="M441.6,462.51c7.11-1.93,17.38-4.87,23.84-6.64a49.61,49.61,0,0,1-6.16-3.17c-8.71-5.54-18-4.77-27.69-6.42-8.6-1.45-10,7-10.26,13C425.55,461.29,434,464.58,441.6,462.51Z"/><path class="cls-43" d="M457.49,472.66c4.62,1.26,26.32,4.7,26.32,4.7l7.32-12.48s-15.29-4.39-25.69-9c-6.46,1.77-16.73,4.71-23.84,6.64-7.61,2.07-16.05-1.22-20.27-3.28,0,.75,0,1.46,0,2.11C421.31,467.18,452.86,471.4,457.49,472.66Z"/><path class="cls-9" d="M473.41,453.27c-10.87,5.41-30.67,12.53-31.12,13.68-.57,1.46-.15,11.82,4.19,12.68,0,0,8.29.32,9.66-1.4,1.13-1.4,23.81-6.71,36-10.62.81-1,1.82-2.9,2.39-6.45C495.49,455.24,476.78,455.17,473.41,453.27Z"/><path class="cls-43" d="M501.2,445.32c-3-2.65-16.58-.93-21.46,4a26.89,26.89,0,0,1-6.33,3.91c3.37,1.9,22.08,2,21.14,7.89-.57,3.55-1.58,5.45-2.39,6.45a47.84,47.84,0,0,0,6.21-2.33C505.74,461.58,504.2,448,501.2,445.32Z"/></g><g id="laptop"><path class="cls-4" d="M459.41,444.28h0a2.17,2.17,0,0,0,2.18,2.15h51.22a2.17,2.17,0,0,0,2.18-2.15,0,0,0,0,1,0,0Z"/><path class="cls-4" d="M453.89,399.77a4,4,0,0,0-3.94-2.88H418.53v49l43.39.54c2.66,0,2.82-2,2.64-2.73Z"/><path class="cls-24" d="M431.74,423.36c.83-11.29,5.61-20.93,9-26.49H394.92a1.26,1.26,0,0,0-1.23,1.59l10.41,43.43a6.13,6.13,0,0,0,1.35,2.45C414.11,442.26,430.78,436.56,431.74,423.36Z"/><path class="cls-62" d="M410.17,446.44h51.65a1.26,1.26,0,0,0,1.23-1.6l-11.42-47a1.28,1.28,0,0,0-1.23-.92h-9.65c-3.4,5.56-8.18,15.2-9,26.49-1,13.2-17.63,18.9-26.29,21A6.35,6.35,0,0,0,410.17,446.44Z"/><path class="cls-4" d="M428.79,418.57a4,4,0,0,1,.09.86,4.32,4.32,0,0,1-4.36,4.29h-.12a4.35,4.35,0,1,0,4.39-5.15Z"/></g></g></g></g></svg>