<svg width="720" height="504" viewBox="0 0 720 504" fill="none" xmlns="http://www.w3.org/2000/svg">
<path d="M372.65 468.26C493.462 468.26 591.4 464.629 591.4 460.15C591.4 455.671 493.462 452.04 372.65 452.04C251.838 452.04 153.9 455.671 153.9 460.15C153.9 464.629 251.838 468.26 372.65 468.26Z" fill="#C7CCD1"/>
<path d="M153.37 251.72C126 250 94.48 219.07 102.8 200C111.12 180.93 113.02 168.23 104.61 155.31C96.97 143.59 125.47 93.9502 114.61 74.9302C118.61 71.1002 124.24 68.9302 129.4 70.7202C135.95 72.9502 139.21 80.1701 141.27 86.7801C143.556 94.0473 145.297 101.474 146.48 109C147.58 116.2 148.36 123.95 153.01 129.55C158.13 135.7 166.75 137.8 172.44 143.42C174.793 145.788 176.554 148.677 177.579 151.854C178.604 155.03 178.865 158.404 178.34 161.7C177.34 167.5 174.02 172.57 171.64 177.94C169.26 183.31 167.88 189.8 170.8 194.94C173.38 199.43 178.58 201.65 182.19 205.36C186.8 210.1 188.51 217.17 187.69 223.73C186.87 230.29 183.74 236.38 179.8 241.73C177.742 244.498 175.453 247.087 172.96 249.47C166.618 251.391 159.982 252.153 153.37 251.72Z" fill="url(#paint0_linear)"/>
<path d="M126.4 279.47C120.58 266.87 99.5598 258.11 91.3998 251.16C82.8498 243.83 74.9998 234 73.3698 222.49C71.5298 209.63 78.5598 202.75 84.4798 192.65C94.2798 175.91 74.4798 159.49 81.1698 142.65C84.6298 133.99 94.8098 130.12 100.29 122.58C104.67 116.58 105.65 108.75 106.29 101.32C106.93 93.8901 107.36 86.1501 110.97 79.6201C111.963 77.8465 113.221 76.2346 114.7 74.8401C125.51 93.8401 97.0098 143.5 104.7 155.22C113.11 168.14 111.21 180.8 102.89 199.91C94.5698 219.02 126.12 249.91 153.46 251.68C160.075 252.097 166.711 251.318 173.05 249.38C169.105 253.161 164.673 256.396 159.87 259C148.25 265.36 133.87 268.53 126.4 279.47Z" fill="#F59059"/>
<path d="M126.4 129.6V428.98" stroke="#231F20" stroke-width="1.08" stroke-miterlimit="10" stroke-linecap="round"/>
<path d="M126.4 168.59L142.21 148.89" stroke="#231F20" stroke-width="1.08" stroke-miterlimit="10" stroke-linecap="round"/>
<path d="M126.4 209.1L142.21 189.4" stroke="#231F20" stroke-width="1.08" stroke-miterlimit="10" stroke-linecap="round"/>
<path d="M126.4 191.38L110.59 171.68" stroke="#231F20" stroke-width="1.08" stroke-miterlimit="10" stroke-linecap="round"/>
<path d="M126.4 227.52L110.59 207.83" stroke="#231F20" stroke-width="1.08" stroke-miterlimit="10" stroke-linecap="round"/>
<path d="M126.4 251.11L142.21 231.42" stroke="#231F20" stroke-width="1.08" stroke-miterlimit="10" stroke-linecap="round"/>
<path d="M586.59 246.47C559.25 244.72 527.7 213.82 536.02 194.7C544.34 175.58 546.24 162.93 537.83 150.01C530.19 138.29 558.7 88.6501 547.83 69.6301C551.83 65.8001 557.46 63.6301 562.63 65.4201C569.17 67.6501 572.43 74.8801 574.49 81.4801C576.767 88.7801 578.492 96.2412 579.65 103.8C580.75 111 581.53 118.74 586.19 124.34C591.3 130.49 599.93 132.59 605.61 138.21C607.964 140.579 609.725 143.47 610.75 146.649C611.775 149.827 612.036 153.202 611.51 156.5C610.51 162.29 607.19 167.36 604.81 172.73C602.43 178.1 601.05 184.59 603.98 189.73C606.55 194.22 611.76 196.44 615.36 200.15C619.97 204.89 621.68 211.96 620.86 218.52C620.04 225.08 616.91 231.17 612.97 236.52C610.909 239.289 608.621 241.881 606.13 244.27C599.8 246.163 593.182 246.908 586.59 246.47V246.47Z" fill="url(#paint1_linear)"/>
<path d="M559.62 274.22C553.8 261.62 532.78 252.86 524.62 245.91C516.04 238.58 508.2 228.74 506.56 217.25C504.72 204.38 511.75 197.5 517.67 187.4C527.47 170.66 507.67 154.25 514.36 137.4C517.82 128.74 528 124.87 533.48 117.32C537.86 111.32 538.84 103.49 539.48 96.0601C540.12 88.6301 540.54 80.8901 544.15 74.3701C545.142 72.5929 546.4 70.9776 547.88 69.5801C558.7 88.5801 530.19 138.24 537.88 149.96C546.29 162.88 544.39 175.54 536.07 194.65C527.75 213.76 559.3 244.65 586.64 246.42C593.254 246.835 599.889 246.06 606.23 244.13C602.306 247.887 597.905 251.112 593.14 253.72C581.47 260.11 567.09 263.28 559.62 274.22Z" fill="#F59059"/>
<path d="M559.62 124.35V423.73" stroke="#231F20" stroke-width="1.08" stroke-miterlimit="10" stroke-linecap="round"/>
<path d="M559.62 163.34L575.43 143.64" stroke="#231F20" stroke-width="1.08" stroke-miterlimit="10" stroke-linecap="round"/>
<path d="M559.62 203.85L575.43 184.15" stroke="#231F20" stroke-width="1.08" stroke-miterlimit="10" stroke-linecap="round"/>
<path d="M559.62 186.13L543.81 166.44" stroke="#231F20" stroke-width="1.08" stroke-miterlimit="10" stroke-linecap="round"/>
<path d="M559.62 222.27L543.81 202.58" stroke="#231F20" stroke-width="1.08" stroke-miterlimit="10" stroke-linecap="round"/>
<path d="M559.62 245.86L575.43 226.17" stroke="#231F20" stroke-width="1.08" stroke-miterlimit="10" stroke-linecap="round"/>
<path d="M249.61 386.44L228.56 399C228.366 399.116 228.198 399.269 228.066 399.451C227.933 399.634 227.839 399.841 227.79 400.061C227.74 400.281 227.736 400.509 227.777 400.73C227.818 400.952 227.904 401.163 228.03 401.35L257.31 445.18C257.447 445.388 257.628 445.563 257.839 445.694C258.05 445.825 258.287 445.91 258.534 445.941C258.781 445.972 259.032 445.95 259.269 445.876C259.506 445.801 259.725 445.677 259.91 445.51C261.55 443.99 263.91 441.28 263.76 438.24C263.53 433.62 258.43 405.63 258.99 404.82C259.855 403.912 260.814 403.097 261.85 402.39L249.61 386.44Z" fill="#242358"/>
<path d="M251.34 399C249.34 399.83 245.22 389.06 245.22 389.06L249.61 386.43L261.85 402.43C260.814 403.137 259.855 403.952 258.99 404.86C258.99 404.86 253.36 398.18 251.34 399Z" fill="#F69D80"/>
<path d="M259.91 445.54C259.725 445.707 259.507 445.831 259.269 445.906C259.032 445.98 258.781 446.002 258.534 445.971C258.288 445.94 258.05 445.855 257.839 445.724C257.628 445.593 257.447 445.418 257.31 445.21L228 401.38C227.875 401.193 227.789 400.982 227.747 400.76C227.706 400.539 227.71 400.311 227.76 400.091C227.81 399.871 227.903 399.664 228.036 399.482C228.168 399.299 228.336 399.146 228.53 399.03L230.69 397.74L251.8 429.74C258.8 424.31 262.33 428.13 262.34 428.13C263.07 432.8 263.65 436.74 263.73 438.23C263.9 441.31 261.55 444 259.91 445.54Z" fill="#E1E7EF"/>
<path d="M273.89 434.61L275.12 459.1C275.132 459.326 275.098 459.551 275.02 459.763C274.942 459.975 274.822 460.169 274.667 460.333C274.511 460.497 274.324 460.627 274.117 460.716C273.909 460.805 273.686 460.851 273.46 460.85H220.75C220.499 460.854 220.25 460.802 220.021 460.699C219.792 460.595 219.589 460.443 219.425 460.252C219.262 460.061 219.143 459.836 219.076 459.594C219.01 459.352 218.997 459.098 219.04 458.85C219.38 456.64 220.33 453.17 222.94 451.61C226.94 449.23 253.01 437.92 253.37 437C253.648 435.78 253.793 434.532 253.8 433.28L273.89 434.61Z" fill="#373075"/>
<path d="M262.48 440.15C262.91 442.29 274.15 439.72 274.15 439.72L273.89 434.61L253.8 433.31C253.793 434.562 253.649 435.809 253.37 437.03C253.37 437.03 262.05 438 262.48 440.15Z" fill="#F69D80"/>
<path d="M219 458.88C218.957 459.128 218.97 459.382 219.036 459.624C219.103 459.866 219.222 460.091 219.385 460.282C219.549 460.473 219.752 460.625 219.981 460.729C220.21 460.832 220.459 460.884 220.71 460.88H273.42C273.646 460.881 273.869 460.835 274.077 460.746C274.284 460.657 274.471 460.526 274.627 460.363C274.782 460.199 274.902 460.005 274.98 459.793C275.058 459.581 275.092 459.356 275.08 459.13L274.96 456.62L236.59 456.87C237.2 448.01 232.07 447.22 232.07 447.21C227.78 449.21 224.18 450.9 222.9 451.67C220.33 453.2 219.38 456.67 219 458.88Z" fill="#E1E7EF"/>
<path d="M308.08 242.93C308.08 242.93 286.4 241.3 278.8 241.3L230.49 236.9C230.49 236.9 234.9 321.75 240.44 350.8C245.98 379.85 253.8 433.31 253.8 433.31C253.8 433.31 265.63 436.57 273.89 434.61C273.89 434.61 273.38 419.98 272.83 400.03C290.08 386.47 322.74 359.9 325.83 350.8C330.08 338.38 308.08 242.93 308.08 242.93ZM272 364.76C271.42 335.19 271.21 305.07 272.4 294.19L293.59 341.71C290.31 343.77 280.52 354.79 272 364.76Z" fill="#1251C3"/>
<path d="M272.38 294.19L273.38 276.47C273.38 276.47 293.38 330.79 293.59 341.71L272.38 294.19Z" fill="#094082"/>
<path d="M271.98 364.76L272.82 400.03L278.44 395.58L273.85 362.59L271.98 364.76Z" fill="#094082"/>
<path d="M339.37 151.66C333.5 144.16 305.06 127.78 305.06 127.78C289.82 122.16 256.82 115.07 248.06 117.59C239.3 120.11 216.76 165.35 216.76 165.35C217.01 161.6 205.84 123.63 205.52 121.18C205.2 118.73 206.17 117.84 196.8 117.35C187.43 116.86 187.99 118.17 187.99 118.17C192.07 170.24 197.99 198.44 210.99 200.39C223.99 202.34 235.43 184.26 235.43 184.26C230.22 203.65 230.54 236.9 230.54 236.9C240.725 241.031 251.327 244.049 262.16 245.9C279.28 248.67 308.16 242.96 308.16 242.96C307.16 235.14 310.6 219.17 310.6 219.17C310.6 219.17 356.08 223.4 359.49 215.58C362.9 207.76 345.24 159.16 339.37 151.66ZM314.19 202.88C316.27 191.51 321.65 177.21 321.65 177.21L332.53 199.82C330.2 199.46 314.19 202.88 314.19 202.88Z" fill="#373075"/>
<path d="M332.53 199.82L330.7 196C330.7 196 339.8 196.8 344.63 199.37C340.592 199.145 336.541 199.296 332.53 199.82V199.82Z" fill="#242358"/>
<path d="M235.38 184.26L242.23 152.47C242.23 152.47 231.64 171.22 228.54 181.16C225.44 191.1 226.29 197.51 215.76 200.26C215.76 200.26 224.3 200.29 235.38 184.26Z" fill="#242358"/>
<path d="M310.52 219.14C310.52 219.14 302.9 218.61 302.7 217.96C302.487 216.557 302.38 215.14 302.38 213.72C300.215 212.633 297.888 211.903 295.49 211.56C287.66 210.56 267.74 214.25 263.58 215.35C259.42 216.45 247.08 221.95 247.08 221.95C247.08 221.95 248.18 227.57 252.46 229.04C256.74 230.51 273.97 223.17 282.9 225.25C291.83 227.33 308.08 242.93 308.08 242.93C308.08 234.938 308.897 226.966 310.52 219.14V219.14Z" fill="#242358"/>
<path d="M265.84 216.5C265.587 216.498 265.34 216.421 265.13 216.28C264.984 216.182 264.863 216.052 264.776 215.899C264.689 215.746 264.639 215.575 264.63 215.4L264.15 202.8C264.142 202.533 264.23 202.272 264.396 202.063C264.563 201.855 264.798 201.712 265.06 201.66L274.9 199.31C275.215 199.232 275.548 199.278 275.83 199.44C275.964 199.518 276.08 199.621 276.173 199.745C276.266 199.869 276.333 200.01 276.37 200.16L279.18 211.79C279.246 212.079 279.194 212.382 279.037 212.634C278.879 212.885 278.629 213.063 278.34 213.13L266.18 216.45C266.069 216.482 265.955 216.499 265.84 216.5V216.5ZM266.6 203.63L266.99 213.87L276.58 211.25L274.29 201.79L266.6 203.63Z" fill="#EE5763"/>
<path d="M303.23 204.1C303.23 204.1 303.84 214.53 302.7 217.96C302.7 217.96 293.37 216.04 291.57 216.86C289.77 217.68 278.62 217.79 277.27 216.57C275.92 215.35 274.75 215.97 274.14 214.94C273.668 214.042 273.273 213.105 272.96 212.14C272.96 212.14 270.96 210.14 270.75 209.14C270.605 208.537 270.68 207.903 270.96 207.35C270.96 207.35 268.96 205.82 268.84 204.64C268.72 203.46 270.22 202.75 270.22 202.75C269.849 202.586 269.515 202.347 269.242 202.048C268.968 201.748 268.76 201.395 268.63 201.01C268.35 199.83 268.55 198.73 269.9 199.01C271.25 199.29 278.9 197.3 280.12 197.82C281.34 198.34 292.19 201.49 292.92 202.43C293.65 203.37 303.23 204.1 303.23 204.1Z" fill="#F69D80"/>
<path d="M269.8 211.9L266 196.42C265.57 195.13 259.51 195.48 252.35 197.22C245.19 198.96 239.65 201.44 239.87 202.78L243.64 218.26C244.37 221.246 246.253 223.82 248.877 225.421C251.5 227.022 254.652 227.517 257.64 226.8L261.22 225.92C262.704 225.563 264.103 224.917 265.338 224.02C266.572 223.122 267.618 221.99 268.415 220.688C269.211 219.386 269.744 217.939 269.982 216.432C270.219 214.924 270.158 213.384 269.8 211.9Z" fill="#EE5763"/>
<path d="M253.532 201.972C260.535 200.266 265.956 197.835 265.641 196.542C265.326 195.249 259.394 195.583 252.392 197.289C245.389 198.995 239.968 201.426 240.283 202.719C240.598 204.012 246.53 203.678 253.532 201.972Z" fill="#A53447"/>
<g style="mix-blend-mode:overlay" opacity="0.36">
<path d="M241.12 207.89L243.65 218.27C244.38 221.256 246.263 223.831 248.887 225.431C251.51 227.032 254.662 227.528 257.65 226.81C248.08 226.81 243.18 214.94 241.12 207.89Z" fill="white"/>
</g>
<path d="M270.22 202.7C271.075 202.501 271.952 202.41 272.83 202.43C273.83 202.53 277.03 202.43 277.03 202.43C275.053 201.988 273.049 201.681 271.03 201.51C270.141 201.495 269.278 201.205 268.56 200.68C268.622 201.137 268.81 201.569 269.104 201.925C269.397 202.282 269.783 202.55 270.22 202.7Z" fill="#CD7860"/>
<path d="M204.5 118.53L203.44 112.46C204.676 110.806 205.663 108.98 206.37 107.04C207.02 104.68 213.46 97.9101 214.11 97.4201C214.76 96.9301 215.7 95.8401 215.17 95.4201C214.492 94.8629 213.68 94.4938 212.815 94.3499C211.95 94.206 211.062 94.2922 210.24 94.6001C207.8 95.6001 202.99 99.4501 202.87 99.4501C202.75 99.4501 200.3 92.0401 199.53 90.4501C198.76 88.8601 194.53 78.8301 193.78 78.7901C193.361 78.8481 192.961 79.0042 192.614 79.2457C192.266 79.4873 191.981 79.8074 191.78 80.1801C191.78 80.1801 191.13 77.1801 189.42 77.4501C188.926 77.5492 188.48 77.8128 188.155 78.1978C187.83 78.5827 187.645 79.0664 187.63 79.5701C187.16 79.5911 186.71 79.7659 186.348 80.0676C185.987 80.3692 185.735 80.7811 185.63 81.2401C185.502 82.7707 185.502 84.3094 185.63 85.8401C185.405 85.8081 185.175 85.8256 184.957 85.8913C184.739 85.957 184.537 86.0694 184.367 86.2207C184.197 86.372 184.061 86.5585 183.97 86.7674C183.879 86.9762 183.835 87.2023 183.84 87.4301C183.76 89.2301 184.12 95.0101 184.25 95.9901C184.38 96.9701 187.25 109.72 188.48 110.9C189.71 112.08 189.3 118.48 189.3 118.48C189.3 118.48 197.34 121 204.5 118.53Z" fill="#F69D80"/>
<path d="M313.47 71.5901C313.47 71.5901 315.89 101.81 306.22 107.86C296.55 113.91 279.62 107.86 277.22 94.5601C274.82 81.2601 274.81 69.1701 277.22 66.7601C279.63 64.3501 312.26 55.8801 313.47 71.5901Z" fill="#F69D80"/>
<path d="M313.47 83.6801C313.47 83.6801 315.89 78.8401 319.47 81.2601C323.05 83.6801 318.21 94.3501 312.8 93.2601C307.39 92.1701 313.47 83.6801 313.47 83.6801Z" fill="#F69D80"/>
<path d="M277.24 85.7202C277.24 85.7202 274.82 80.8802 271.24 83.3002C267.66 85.7202 272.5 96.3902 277.91 95.3002C283.32 94.2102 277.24 85.7202 277.24 85.7202Z" fill="#F69D80"/>
<path d="M304.65 108.39L305.06 127.78C305.06 127.78 298.14 133.57 289.5 131.2C280.86 128.83 282.16 121.59 282.16 121.59L284.93 110.91L304.65 108.39Z" fill="#F69D80"/>
<path d="M284.93 110.91L283.34 117.07C285.75 120.49 291.99 125.65 304.81 115.89L304.65 108.39L284.93 110.91Z" fill="#CD7860"/>
<path d="M316.31 61.2001C313.86 60.6301 313.13 57.2001 311.09 57.2901C309.678 57.3847 308.284 57.6568 306.94 58.1001C306.94 58.1001 304.94 46.7801 297.24 48.5701C289.54 50.3601 274.01 58.4301 273.24 63.8101C272.47 69.1901 269.65 70.0001 271.53 71.2201C273.41 72.4401 274.38 82.8801 274.38 82.8801C274.38 82.8801 276.99 107.82 279.43 109.61C281.87 111.4 287.26 118.25 294.02 118.17C300.78 118.09 309.63 113.44 310.55 109.85C311.47 106.26 315.77 82.0001 315.67 77.5001C315.57 73.0001 318.75 61.7701 316.31 61.2001ZM308.89 96.2801C307.47 97.7501 300.62 94.0801 298.99 95.0601C297.36 96.0401 293.08 96.4901 290.39 95.7101C287.7 94.9301 283.59 98.8501 280.94 98.8501C278.29 98.8501 277.27 81.6801 277.27 81.6801C278.668 79.9971 279.644 78.0055 280.12 75.8701C280.74 72.6101 287.95 71.5501 292.84 71.7101C297.73 71.8701 305.59 64.5801 305.59 64.5801C305.59 64.5801 304.59 68.4501 304.25 69.5801C303.91 70.7101 310.93 73.0901 313.01 76.7501C315.09 80.4101 310.32 94.8201 308.89 96.2801Z" fill="#373075"/>
<path d="M282.09 109C278.17 106 276.09 95.7602 275.15 89.1602C276.15 96.6702 277.82 108.44 279.47 109.65C281.92 111.44 287.3 118.29 294.06 118.21C297.815 118.022 301.481 116.997 304.79 115.21C292.58 119.17 288 113.52 282.09 109Z" fill="#1F1A4D"/>
<path d="M288.76 99.6501H300.83C300.83 99.6501 300.1 104.26 294.29 104.26C289.83 104.26 288.76 99.6501 288.76 99.6501Z" fill="#F69D80"/>
<path d="M337.02 389.72L394.67 444.75" stroke="black" stroke-width="2.42" stroke-miterlimit="10"/>
<path d="M379.82 389.72L322.16 444.75" stroke="black" stroke-width="2.42" stroke-miterlimit="10"/>
<path d="M318.51 459.22L345.73 357.03" stroke="black" stroke-width="2.42" stroke-miterlimit="10" stroke-linecap="round"/>
<path d="M398.16 459.22L370.94 357.03" stroke="black" stroke-width="2.42" stroke-miterlimit="10" stroke-linecap="round"/>
<path d="M386.84 339.86H332.97C327.458 339.86 322.99 344.328 322.99 349.84V354C322.99 359.512 327.458 363.98 332.97 363.98H386.84C392.352 363.98 396.82 359.512 396.82 354V349.84C396.82 344.328 392.352 339.86 386.84 339.86Z" fill="#A53447"/>
<path d="M333.83 360.05H382.83C384.89 360.049 386.915 359.511 388.705 358.491C390.495 357.471 391.989 356.002 393.04 354.23C393.791 352.956 394.187 351.504 394.187 350.025C394.187 348.546 393.791 347.094 393.04 345.82C391.99 344.049 390.497 342.582 388.709 341.562C386.921 340.541 384.899 340.003 382.84 340H333.84C331.781 340.001 329.757 340.538 327.969 341.559C326.181 342.579 324.689 344.048 323.64 345.82C322.889 347.094 322.493 348.546 322.493 350.025C322.493 351.504 322.889 352.956 323.64 354.23C324.688 356.001 326.178 357.468 327.965 358.489C329.751 359.509 331.772 360.047 333.83 360.05V360.05Z" fill="#EE5763"/>
<path d="M377.27 446.14L373.06 460.7C372.998 460.93 372.989 461.171 373.033 461.406C373.077 461.64 373.174 461.861 373.315 462.053C373.456 462.245 373.638 462.403 373.849 462.515C374.059 462.627 374.292 462.69 374.53 462.7L412.08 464.19C412.351 464.201 412.622 464.146 412.868 464.032C413.115 463.918 413.331 463.747 413.499 463.534C413.666 463.32 413.781 463.07 413.834 462.803C413.886 462.537 413.874 462.261 413.8 462C413.16 459.63 411.8 456.18 409.42 455.47L391.26 450.09L391.57 446.73L377.27 446.14Z" fill="#373075"/>
<path d="M391.26 450.11C391.26 450.11 385.62 450.11 385.33 451.64C385.04 453.17 376.23 449.72 376.23 449.72L377.23 446.14L391.53 446.75L391.26 450.11Z" fill="#F69E80"/>
<path d="M374.53 462.72L412.08 464.21C412.354 464.221 412.626 464.167 412.875 464.052C413.124 463.937 413.341 463.764 413.509 463.548C413.678 463.332 413.792 463.079 413.842 462.809C413.893 462.54 413.878 462.263 413.8 462C413.16 459.63 411.8 456.18 409.42 455.47L406.32 454.56C403.71 455.56 403.06 461.65 403.06 461.65L373.06 460.65C372.986 460.885 372.967 461.133 373.005 461.376C373.043 461.62 373.137 461.851 373.279 462.051C373.422 462.252 373.609 462.417 373.826 462.533C374.043 462.649 374.284 462.713 374.53 462.72V462.72Z" fill="#E1E7EF"/>
<path d="M461 441.94L467 457.52C467.08 457.73 467.203 457.921 467.361 458.081C467.518 458.241 467.707 458.366 467.916 458.45C468.124 458.533 468.347 458.573 468.572 458.566C468.796 458.559 469.017 458.506 469.22 458.41L499.83 443.85C500.053 443.746 500.249 443.592 500.404 443.4C500.559 443.209 500.668 442.984 500.723 442.744C500.778 442.504 500.777 442.255 500.721 442.015C500.665 441.775 500.555 441.551 500.4 441.36C499.23 439.94 497.24 438.15 494.71 438.26C490.55 438.44 476.99 439.6 475.64 439.26C474.429 438.839 473.284 438.246 472.24 437.5L461 441.94Z" fill="#242358"/>
<path d="M474.46 438.87C474.46 438.87 470.78 440.95 471.58 442.26C472.38 443.57 462.12 444.94 462.12 444.94L460.96 441.94L472.21 437.54C472.21 437.54 474 438.65 474.46 438.87Z" fill="#F69E80"/>
<path d="M469.19 458.41L499.8 443.85C500.023 443.746 500.22 443.592 500.374 443.4C500.529 443.208 500.638 442.984 500.693 442.744C500.748 442.504 500.747 442.255 500.692 442.015C500.636 441.775 500.526 441.551 500.37 441.36C499.2 439.94 497.21 438.15 494.68 438.26C493.9 438.26 492.8 438.36 491.51 438.45L494.56 444.12L466.8 457.12L466.97 457.55C467.054 457.757 467.179 457.945 467.337 458.102C467.496 458.258 467.686 458.381 467.894 458.462C468.102 458.542 468.324 458.579 468.547 458.57C468.77 458.561 468.989 458.507 469.19 458.41Z" fill="#E1E7EF"/>
<path d="M341.33 302C341.33 302 324.95 339.65 336.68 346.74C348.41 353.83 399.88 363.12 399.88 363.12C399.88 363.12 393.57 381.46 388.17 401.12C382.77 420.78 377.27 446.12 377.27 446.12C377.27 446.12 387.27 448.32 391.57 446.73L425.19 367.73C425.19 367.73 433.09 390.55 438.8 399.73C444.51 408.91 461 441.94 461 441.94C461 441.94 469.64 439.99 472.25 437.54C472.25 437.54 448.45 346.92 443.25 341.38C438.05 335.84 391.42 315.3 390.25 312.53C389.08 309.76 386.83 301.16 386.83 301.16L341.33 302Z" fill="#373075"/>
<path d="M390.22 312.53C390.22 312.53 377.22 309.68 372.38 309.09C367.54 308.5 346.73 309.56 340.18 304.81L341.33 302.02L386.8 301.16L390.22 312.53Z" fill="#242259"/>
<path d="M436.43 351.81C439.61 336.98 428.36 336.33 421.03 331.27C413.7 326.21 376.37 315.79 376.37 315.79C376.37 315.79 397.88 323.45 404.57 326.22C411.26 328.99 427.06 337.3 429.36 344.15C431.66 351 425.19 367.78 425.19 367.78C425.19 367.78 433.09 390.6 438.8 399.78C440.43 402.4 442.96 407 445.72 412.22C441.24 403.58 433.25 366.64 436.43 351.81Z" fill="#242259"/>
<path d="M344.26 292.24L341.33 302C341.33 302 360.27 305.05 367.73 303.71C375.19 302.37 386.8 301.14 386.8 301.14L385.58 292.87L344.26 292.24Z" fill="#094082"/>
<path d="M384.11 225.25C384.11 225.25 398.94 230.63 401.39 234.95C403.84 239.27 416.79 264.12 416.79 264.12C416.79 264.12 425.92 233.24 426.73 232.75C427.54 232.26 436.35 234.21 436.43 234.75C436.51 235.29 431.05 289.93 426.33 292.21C421.61 294.49 410.6 292.21 410.6 292.21L396.83 269L392 281.07L403 284.58V292.65C403 292.65 343.74 294.44 341.95 291.75C340.16 289.06 333.72 239.35 339.75 234.3C345.78 229.25 365.83 222.93 365.83 222.93L384.11 225.25Z" fill="#1251C3"/>
<path d="M356.36 248.35L355.75 274.15L392 281.07C392 281.07 368.2 272.56 364.29 271.27C360.38 269.98 356.36 248.35 356.36 248.35Z" fill="#094082"/>
<path d="M396.83 269C396.83 269 399.76 262 399.92 259.87C400.08 257.74 398.37 248.79 398.37 248.79C398.37 248.79 401.14 261.5 401.37 265.74C401.6 269.98 410.58 292.23 410.58 292.23L396.83 269Z" fill="#094082"/>
<path d="M416.79 264.12L415.49 268.12L415.63 261.9L416.79 264.12Z" fill="#094082"/>
<path d="M403 284.58L415 287.06C415.73 287.23 428.45 290.24 428.45 290.85C428.45 291.46 427.96 292.85 427.59 292.85C427.22 292.85 402.95 292.61 402.95 292.61L403 284.58Z" fill="#F69E80"/>
<path d="M426.73 232.87L428.45 227.63C428.45 227.63 426.62 222.81 427.16 220.82C427.817 218.255 428.195 215.626 428.29 212.98C428.14 211.98 426.54 207.4 427.29 206.67C428.04 205.94 430.91 207.67 431.42 209.16C431.93 210.65 432.66 214.63 432.66 214.63C432.66 214.63 436.75 209.27 437.22 208.47C437.69 207.67 444.11 200.63 445.36 200.74C446.052 200.78 446.711 201.051 447.23 201.51C447.23 201.51 449.33 200.05 450.78 200.74C452.23 201.43 450.58 202.92 450.58 202.92C450.58 202.92 452.41 204.22 451.87 205.03C451.33 205.84 448.98 209.62 448.98 209.62C448.98 209.62 449.72 210.15 449.41 211.57C449.1 212.99 445.09 219.29 444.7 220.06C444.31 220.83 439.7 227.59 438.62 228.82C437.54 230.05 436.4 234.82 436.4 234.82C436.4 234.82 426.62 234.36 426.73 232.87Z" fill="#F69E80"/>
<path d="M358.38 155.82C348.54 154.41 343.38 163.76 340.96 173.97C338.54 184.18 351.86 182.97 351.86 182.97L367.86 165.13C367.86 165.13 368.22 157.22 358.38 155.82Z" fill="#403981"/>
<path d="M383.05 160.62C374.9 161.85 347.93 178.15 352.74 193.22C357.55 208.29 366.32 208.79 367.98 205.94C369.64 203.09 379.14 176.11 384.52 173.34C389.9 170.57 399 168.41 399 168.41C399 168.41 391.2 159.4 383.05 160.62Z" fill="#403981"/>
<path d="M351.86 183L356.97 177.3C340.75 178.76 345.97 162.39 346.33 161.3C343.745 165.147 341.934 169.461 341 174C338.52 184.18 351.86 183 351.86 183Z" fill="#242358"/>
<path d="M357.55 177.23C353.4 182.23 351.01 187.79 352.74 193.23C357.54 208.31 366.32 208.8 367.98 205.95C368.12 205.69 368.34 205.23 368.6 204.63C351.31 195.74 357.41 177.63 357.55 177.23Z" fill="#242358"/>
<path d="M370.13 166.5C370.13 166.5 369.32 163.38 364.31 166.5C359.3 169.62 348.53 179.36 352.81 185.5C355 178.17 362.75 171.2 370.13 166.5Z" fill="#EE5763"/>
<path d="M402.94 178.92C389.43 169.78 382 176.81 377.94 186.68L368.86 197.93C368.86 197.93 366.5 193.47 363.97 194.69C361.44 195.91 359.78 205.04 367.97 205.94L365.77 222.94C365.77 222.94 371.42 232.24 380.77 231.37C386.02 230.88 384.07 225.26 384.07 225.26L384.54 218.33C387.204 218.841 389.954 218.68 392.54 217.86C403.67 214.37 402.94 178.92 402.94 178.92Z" fill="#F69E80"/>
<path d="M384.58 218.32C384.58 218.32 378.86 216.61 376.58 214.9C378.866 217.224 381.501 219.178 384.39 220.69L384.58 218.32Z" fill="#CE7961"/>
<path d="M368.83 197.93C368.83 197.93 370.18 202.88 369.38 205.02C371.626 202.694 373.081 199.72 373.54 196.52C373.54 196.52 378.12 196.34 379.22 192C379.22 192 393.1 191.82 398.17 179.53C398.312 180.923 398.816 182.255 399.634 183.393C400.452 184.53 401.554 185.432 402.83 186.01C402.83 186.01 402.48 192.51 402.15 195.12C402.15 195.12 411.86 172.32 399.03 168.41C399 168.41 367.61 165.59 368.83 197.93Z" fill="#403981"/>
<path d="M548.02 300.06L577.85 460.85" stroke="black" stroke-width="2.42" stroke-miterlimit="10" stroke-linecap="round"/>
<path d="M388.17 300.06L358.34 460.85" stroke="black" stroke-width="2.42" stroke-miterlimit="10" stroke-linecap="round"/>
<path d="M588.5 292.48H347.68V300.06H588.5V292.48Z" fill="url(#paint2_linear)"/>
<path d="M488.25 275.68H435.15C434.362 275.68 433.582 275.519 432.858 275.207C432.134 274.895 431.482 274.438 430.941 273.865C430.4 273.292 429.981 272.615 429.711 271.875C429.441 271.134 429.325 270.347 429.37 269.56L431.44 235.08C431.522 233.602 432.166 232.212 433.241 231.194C434.316 230.177 435.74 229.61 437.22 229.61H490.33C491.117 229.61 491.896 229.771 492.619 230.082C493.342 230.393 493.994 230.849 494.535 231.421C495.076 231.993 495.494 232.669 495.765 233.408C496.036 234.147 496.153 234.934 496.11 235.72L494 270.21C493.916 271.682 493.275 273.066 492.207 274.082C491.139 275.098 489.724 275.67 488.25 275.68V275.68Z" fill="#094082"/>
<path d="M491.579 275.68H438.469C437.682 275.678 436.903 275.516 436.18 275.204C435.457 274.891 434.805 274.435 434.264 273.862C433.723 273.29 433.305 272.613 433.034 271.873C432.763 271.133 432.646 270.346 432.689 269.56L434.769 235.08C434.851 233.602 435.496 232.212 436.571 231.194C437.646 230.177 439.069 229.61 440.549 229.61H493.649C494.437 229.609 495.217 229.768 495.94 230.079C496.664 230.39 497.317 230.846 497.858 231.418C498.399 231.99 498.818 232.667 499.088 233.406C499.358 234.146 499.474 234.934 499.429 235.72L497.359 270.21C497.278 271.688 496.633 273.078 495.558 274.095C494.483 275.113 493.059 275.68 491.579 275.68V275.68Z" fill="url(#paint3_linear)"/>
<path d="M479.87 287.33L473.14 262.64H474.26V256.76C474.257 255.673 473.824 254.632 473.056 253.864C472.288 253.095 471.246 252.663 470.16 252.66H460.67C459.582 252.66 458.54 253.092 457.771 253.861C457.002 254.63 456.57 255.673 456.57 256.76V262.64L463.57 288.08C463.622 288.275 463.628 288.479 463.589 288.677C463.55 288.875 463.465 289.062 463.343 289.222C463.22 289.382 463.062 289.512 462.882 289.602C462.701 289.692 462.502 289.739 462.3 289.74H446.09V292.64H475.81C476.456 292.639 477.094 292.49 477.673 292.203C478.252 291.917 478.758 291.5 479.151 290.987C479.543 290.474 479.812 289.877 479.937 289.242C480.062 288.608 480.039 287.954 479.87 287.33V287.33ZM471.87 283.51C471.128 283.51 470.403 283.29 469.786 282.878C469.17 282.466 468.689 281.88 468.405 281.195C468.121 280.51 468.047 279.756 468.192 279.028C468.337 278.301 468.694 277.633 469.218 277.108C469.743 276.584 470.411 276.227 471.138 276.082C471.866 275.937 472.62 276.012 473.305 276.295C473.99 276.579 474.576 277.06 474.988 277.677C475.4 278.293 475.62 279.018 475.62 279.76C475.62 280.754 475.225 281.708 474.521 282.412C473.818 283.115 472.864 283.51 471.87 283.51Z" fill="#094082"/>
<path d="M472.88 252.66H463.39C462.303 252.663 461.262 253.095 460.493 253.864C459.725 254.632 459.292 255.673 459.29 256.76V262.64H477V256.76C476.998 256.22 476.891 255.686 476.683 255.188C476.475 254.69 476.171 254.237 475.789 253.857C475.406 253.476 474.952 253.174 474.453 252.969C473.954 252.764 473.419 252.659 472.88 252.66V252.66Z" fill="#E3E3E3"/>
<path d="M483.7 287.1L477 262.64H459.29L460.29 266.3L466.55 289.3C466.652 289.681 466.669 290.08 466.6 290.469C466.531 290.857 466.376 291.226 466.148 291.548C465.92 291.869 465.623 292.137 465.279 292.331C464.936 292.525 464.553 292.641 464.16 292.67H479.47C480.147 292.67 480.815 292.514 481.422 292.213C482.029 291.912 482.558 291.474 482.967 290.935C483.377 290.395 483.656 289.769 483.783 289.103C483.91 288.438 483.882 287.752 483.7 287.1V287.1ZM473.23 283.51C472.488 283.51 471.763 283.29 471.146 282.878C470.529 282.466 470.049 281.88 469.765 281.195C469.481 280.51 469.407 279.756 469.552 279.028C469.696 278.301 470.053 277.633 470.578 277.108C471.102 276.584 471.771 276.227 472.498 276.082C473.225 275.937 473.979 276.011 474.665 276.295C475.35 276.579 475.936 277.06 476.348 277.676C476.76 278.293 476.98 279.018 476.98 279.76C476.98 280.754 476.584 281.708 475.881 282.412C475.178 283.115 474.224 283.51 473.23 283.51V283.51Z" fill="#E3E3E3"/>
<path d="M483.7 287.1L477 262.64V256.76C476.997 255.673 476.564 254.632 475.796 253.864C475.027 253.095 473.986 252.663 472.9 252.66H463.41C462.323 252.663 461.282 253.095 460.513 253.864C459.745 254.632 459.312 255.673 459.31 256.76V262.64L460.31 266.3L466.57 289.3C466.672 289.681 466.69 290.08 466.62 290.469C466.551 290.857 466.396 291.226 466.168 291.548C465.94 291.869 465.643 292.137 465.299 292.331C464.956 292.525 464.573 292.641 464.18 292.67H479.49C480.165 292.667 480.831 292.508 481.435 292.206C482.04 291.904 482.566 291.466 482.973 290.927C483.381 290.388 483.658 289.762 483.784 289.098C483.91 288.435 483.881 287.751 483.7 287.1V287.1ZM473.23 283.51C472.488 283.51 471.763 283.29 471.146 282.878C470.529 282.466 470.049 281.88 469.765 281.195C469.481 280.51 469.407 279.756 469.552 279.028C469.696 278.301 470.053 277.633 470.578 277.108C471.102 276.584 471.771 276.227 472.498 276.082C473.225 275.937 473.979 276.012 474.665 276.295C475.35 276.579 475.936 277.06 476.348 277.677C476.76 278.293 476.98 279.018 476.98 279.76C476.98 280.754 476.584 281.708 475.881 282.412C475.178 283.115 474.224 283.51 473.23 283.51V283.51Z" fill="url(#paint4_linear)"/>
<path d="M483.7 287.35C483.643 287.352 483.587 287.334 483.541 287.299C483.496 287.264 483.463 287.215 483.45 287.16L476.83 262.84C476.799 262.817 476.773 262.786 476.756 262.752C476.739 262.717 476.73 262.679 476.73 262.64V256.76C476.727 255.741 476.32 254.764 475.598 254.044C474.877 253.324 473.899 252.92 472.88 252.92H463.39C463.322 252.917 463.259 252.889 463.212 252.84C463.166 252.792 463.14 252.727 463.14 252.66C463.14 252.594 463.166 252.53 463.213 252.483C463.26 252.436 463.323 252.41 463.39 252.41H472.88C474.033 252.41 475.14 252.868 475.956 253.684C476.771 254.5 477.23 255.606 477.23 256.76V262.49C477.235 262.516 477.235 262.543 477.23 262.57L483.94 287C483.949 287.032 483.951 287.066 483.947 287.099C483.943 287.132 483.932 287.164 483.915 287.193C483.898 287.222 483.876 287.247 483.849 287.267C483.823 287.287 483.792 287.302 483.76 287.31L483.7 287.35Z" fill="#FFD788"/>
<path d="M479.46 292.89C479.393 292.89 479.33 292.864 479.283 292.817C479.236 292.77 479.21 292.706 479.21 292.64C479.21 292.574 479.236 292.51 479.283 292.463C479.33 292.416 479.393 292.39 479.46 292.39C480.097 292.391 480.726 292.245 481.297 291.963C481.868 291.681 482.367 291.271 482.754 290.765C483.141 290.259 483.406 289.67 483.529 289.045C483.651 288.42 483.627 287.775 483.46 287.16L476.8 262.71C476.789 262.678 476.785 262.644 476.789 262.61C476.792 262.576 476.803 262.544 476.82 262.515C476.837 262.485 476.86 262.46 476.888 262.44C476.915 262.42 476.946 262.407 476.98 262.4C477.011 262.391 477.044 262.388 477.077 262.391C477.109 262.395 477.141 262.405 477.17 262.421C477.199 262.436 477.224 262.458 477.245 262.483C477.265 262.509 477.28 262.538 477.29 262.57L483.94 287C484.127 287.688 484.154 288.411 484.016 289.111C483.879 289.812 483.582 290.471 483.149 291.038C482.716 291.605 482.157 292.064 481.517 292.38C480.877 292.696 480.173 292.86 479.46 292.86V292.89Z" fill="#FFD788"/>
<path d="M482.15 260.37C482.04 260.362 481.938 260.312 481.865 260.23C481.792 260.147 481.754 260.04 481.76 259.93L482.9 239.54C482.895 239.48 482.903 239.42 482.923 239.363C482.944 239.306 482.976 239.255 483.018 239.212C483.06 239.169 483.111 239.135 483.167 239.114C483.223 239.092 483.284 239.083 483.344 239.086C483.404 239.09 483.462 239.106 483.515 239.135C483.569 239.163 483.615 239.202 483.652 239.25C483.688 239.298 483.714 239.353 483.728 239.411C483.741 239.47 483.742 239.531 483.73 239.59L482.57 260C482.555 260.102 482.505 260.195 482.428 260.263C482.351 260.33 482.252 260.369 482.15 260.37V260.37Z" fill="#1251C3"/>
<path d="M484.87 260.37C484.815 260.367 484.761 260.354 484.712 260.33C484.662 260.307 484.618 260.273 484.582 260.232C484.545 260.191 484.518 260.143 484.5 260.091C484.483 260.039 484.476 259.984 484.48 259.93L485.62 239.54C485.622 239.485 485.636 239.431 485.659 239.382C485.683 239.332 485.716 239.288 485.757 239.252C485.798 239.216 485.846 239.188 485.898 239.17C485.95 239.153 486.005 239.146 486.06 239.15C486.169 239.158 486.272 239.208 486.344 239.29C486.417 239.372 486.455 239.48 486.45 239.59L485.29 260C485.275 260.101 485.225 260.195 485.148 260.263C485.071 260.33 484.972 260.368 484.87 260.37V260.37Z" fill="#1251C3"/>
<path d="M487.59 260.37C487.479 260.362 487.376 260.312 487.301 260.23C487.227 260.148 487.187 260.041 487.19 259.93L488.34 239.54C488.341 239.485 488.353 239.43 488.376 239.38C488.4 239.33 488.433 239.285 488.474 239.249C488.516 239.212 488.564 239.184 488.617 239.167C488.669 239.15 488.725 239.144 488.78 239.15C488.889 239.158 488.991 239.208 489.064 239.29C489.137 239.373 489.175 239.48 489.17 239.59L488 260C487.986 260.1 487.937 260.192 487.862 260.259C487.787 260.327 487.69 260.366 487.59 260.37V260.37Z" fill="#1251C3"/>
<path d="M490.31 260.37C490.2 260.362 490.098 260.312 490.025 260.229C489.952 260.147 489.914 260.04 489.92 259.93L491 239.54C491.002 239.485 491.016 239.431 491.04 239.382C491.063 239.332 491.097 239.288 491.138 239.252C491.179 239.216 491.226 239.188 491.278 239.17C491.33 239.153 491.385 239.146 491.44 239.15C491.495 239.152 491.549 239.166 491.599 239.189C491.649 239.213 491.694 239.246 491.731 239.287C491.768 239.328 491.797 239.376 491.816 239.428C491.834 239.479 491.843 239.535 491.84 239.59L490.72 260C490.708 260.101 490.66 260.194 490.584 260.262C490.509 260.33 490.411 260.368 490.31 260.37Z" fill="#1251C3"/>
<path d="M493 260.37C492.945 260.367 492.891 260.354 492.842 260.33C492.792 260.307 492.748 260.273 492.712 260.232C492.675 260.191 492.647 260.143 492.63 260.091C492.612 260.04 492.605 259.985 492.61 259.93L493.75 239.54C493.745 239.48 493.753 239.42 493.773 239.363C493.793 239.306 493.826 239.255 493.868 239.212C493.91 239.169 493.961 239.135 494.017 239.114C494.073 239.092 494.133 239.083 494.193 239.086C494.253 239.09 494.312 239.106 494.365 239.135C494.418 239.163 494.465 239.202 494.501 239.25C494.538 239.298 494.564 239.353 494.577 239.411C494.591 239.47 494.592 239.531 494.58 239.59L493.44 260C493.425 260.105 493.372 260.201 493.29 260.269C493.209 260.338 493.106 260.373 493 260.37V260.37Z" fill="#1251C3"/>
<path d="M439.76 260.37C439.65 260.362 439.548 260.312 439.475 260.229C439.402 260.147 439.364 260.04 439.37 259.93L440.52 239.54C440.521 239.486 440.533 239.432 440.556 239.383C440.578 239.333 440.611 239.289 440.651 239.252C440.691 239.216 440.738 239.188 440.79 239.17C440.841 239.153 440.896 239.146 440.95 239.15C441.005 239.152 441.059 239.166 441.109 239.189C441.159 239.213 441.204 239.246 441.241 239.287C441.278 239.328 441.307 239.376 441.325 239.428C441.344 239.479 441.352 239.535 441.35 239.59L440.17 260C440.158 260.101 440.109 260.194 440.034 260.262C439.959 260.33 439.861 260.368 439.76 260.37V260.37Z" fill="#1251C3"/>
<path d="M442.48 260.37C442.37 260.362 442.268 260.312 442.195 260.229C442.122 260.147 442.084 260.04 442.09 259.93L443.23 239.54C443.232 239.485 443.246 239.431 443.27 239.382C443.293 239.332 443.326 239.288 443.368 239.252C443.409 239.216 443.456 239.188 443.508 239.17C443.56 239.153 443.615 239.146 443.67 239.15C443.725 239.152 443.779 239.166 443.829 239.189C443.879 239.213 443.924 239.246 443.961 239.287C443.998 239.328 444.027 239.376 444.046 239.428C444.064 239.479 444.073 239.535 444.07 239.59L442.89 260C442.878 260.101 442.83 260.194 442.754 260.262C442.679 260.33 442.581 260.368 442.48 260.37V260.37Z" fill="#1251C3"/>
<path d="M445.19 260.37C445.135 260.367 445.082 260.354 445.032 260.33C444.983 260.307 444.938 260.273 444.902 260.232C444.866 260.191 444.838 260.143 444.82 260.091C444.803 260.04 444.796 259.985 444.8 259.93L445.94 239.54C445.941 239.485 445.954 239.43 445.977 239.38C446 239.33 446.033 239.285 446.075 239.249C446.116 239.212 446.164 239.184 446.217 239.167C446.27 239.15 446.325 239.144 446.38 239.15C446.435 239.152 446.488 239.166 446.538 239.19C446.587 239.213 446.632 239.247 446.668 239.288C446.704 239.329 446.732 239.376 446.75 239.428C446.767 239.48 446.774 239.535 446.77 239.59L445.61 260C445.596 260.102 445.545 260.195 445.468 260.263C445.391 260.331 445.293 260.369 445.19 260.37V260.37Z" fill="#1251C3"/>
<path d="M447.91 260.37C447.799 260.362 447.696 260.312 447.622 260.23C447.547 260.148 447.507 260.041 447.51 259.93L448.66 239.54C448.662 239.485 448.676 239.431 448.7 239.382C448.723 239.332 448.756 239.288 448.798 239.252C448.839 239.216 448.886 239.188 448.938 239.17C448.99 239.153 449.045 239.146 449.1 239.15C449.21 239.158 449.312 239.208 449.385 239.29C449.458 239.372 449.495 239.48 449.49 239.59L448.33 260C448.316 260.101 448.265 260.195 448.188 260.263C448.111 260.33 448.013 260.368 447.91 260.37V260.37Z" fill="#1251C3"/>
<path d="M450.63 260.37C450.52 260.362 450.418 260.312 450.345 260.229C450.272 260.147 450.234 260.04 450.24 259.93L451.38 239.54C451.382 239.485 451.396 239.431 451.419 239.382C451.443 239.332 451.476 239.288 451.517 239.252C451.558 239.216 451.606 239.188 451.658 239.17C451.71 239.153 451.765 239.146 451.82 239.15C451.875 239.152 451.929 239.166 451.979 239.189C452.029 239.213 452.074 239.246 452.111 239.287C452.148 239.328 452.177 239.376 452.196 239.428C452.214 239.479 452.222 239.535 452.22 239.59L451 260C450.989 260.094 450.947 260.182 450.879 260.249C450.812 260.317 450.724 260.359 450.63 260.37V260.37Z" fill="#1251C3"/>
<path d="M541.25 268.16C535.55 268.16 530.93 268.87 530.93 269.75V285.67C530.93 287.476 531.648 289.208 532.925 290.485C534.202 291.762 535.934 292.48 537.74 292.48H544.74C546.546 292.48 548.278 291.762 549.556 290.485C550.833 289.208 551.55 287.476 551.55 285.67V269.75C551.58 268.87 547 268.16 541.25 268.16Z" fill="url(#paint5_linear)"/>
<g style="mix-blend-mode:multiply" opacity="0.24">
<path d="M530.93 269.75V285.67C530.93 287.476 531.648 289.208 532.925 290.485C534.202 291.762 535.934 292.48 537.74 292.48H544.74C545.746 292.482 546.739 292.26 547.649 291.832C548.559 291.403 549.362 290.777 550 290C537.48 291.78 538.88 285.54 536.56 281.42C534.78 278.27 534.79 271.47 534.9 268.42C532.48 268.79 530.93 269.24 530.93 269.75Z" fill="black"/>
</g>
<path d="M541.25 271.23C546.574 271.23 550.89 270.567 550.89 269.75C550.89 268.933 546.574 268.27 541.25 268.27C535.926 268.27 531.61 268.933 531.61 269.75C531.61 270.567 535.926 271.23 541.25 271.23Z" fill="#242358"/>
<path d="M509.04 292.48H500.37L504.7 270.44L509.04 292.48Z" fill="#242358"/>
<path d="M504.7 270.44H531.78L536.12 292.48H509.04L504.7 270.44Z" fill="white"/>
<path d="M504.7 270.44H531.78L532.78 275.52H505.7L504.7 270.44Z" fill="#3C88FD"/>
<path d="M444.31 137.23C427.91 139.17 415.71 149.98 417.06 161.37C417.64 166.29 420.67 170.52 425.24 173.57L420.07 186.78L432.67 177.07C438.021 178.691 443.654 179.165 449.2 178.46C465.6 176.52 477.8 165.71 476.45 154.32C475.1 142.93 460.71 135.28 444.31 137.23Z" fill="url(#paint6_linear)"/>
<path d="M441.6 159.46C441.456 159.454 441.312 159.438 441.17 159.41L440.62 159.33L440.06 159.25C439.937 159.24 439.813 159.24 439.69 159.25C439.419 159.243 439.149 159.28 438.89 159.36C438.649 160.246 438.476 161.148 438.37 162.06C438.23 163.14 438.15 164.4 438.11 165.85C437.877 165.927 437.635 165.974 437.39 165.99C437.218 165.99 437.047 165.97 436.88 165.93C436.7 165.889 436.533 165.807 436.39 165.69C436.233 165.559 436.107 165.395 436.02 165.21C435.901 164.958 435.846 164.679 435.86 164.4C435.866 164.213 435.882 164.026 435.91 163.84C435.91 163.61 435.91 163.44 435.91 163.35C435.918 162.992 435.944 162.635 435.99 162.28C436.04 161.77 436.11 161.18 436.18 160.49C436.25 159.8 436.35 159.07 436.45 158.26C436.55 157.45 436.64 156.66 436.71 155.86C436.78 155.06 436.85 154.32 436.91 153.62C436.97 152.92 436.99 152.32 436.99 151.84V151.51C436.979 151.419 437.004 151.327 437.06 151.254C437.116 151.181 437.199 151.133 437.29 151.12C437.438 151.089 437.589 151.073 437.74 151.07L438.57 151.29C438.732 151.34 438.872 151.442 438.97 151.58C439.078 151.732 439.159 151.901 439.21 152.08C439.264 152.283 439.301 152.491 439.32 152.7C439.32 152.92 439.32 153.14 439.32 153.34C439.314 153.564 439.294 153.788 439.26 154.01C439.26 154.3 439.19 154.62 439.15 154.96C439.11 155.3 439.07 155.65 439.04 155.96C439.004 156.249 438.984 156.539 438.98 156.83C438.963 156.964 438.993 157.099 439.064 157.214C439.135 157.329 439.243 157.415 439.37 157.46C439.743 157.553 440.126 157.594 440.51 157.58H440.84C441.043 157.592 441.247 157.592 441.45 157.58C441.57 157.573 441.69 157.573 441.81 157.58H442C442.24 156.58 442.46 155.46 442.65 154.23C442.84 153 443.04 151.6 443.22 150.03C443.31 149.4 443.51 149.08 443.8 149.03H444C444.301 149.02 444.6 149.071 444.88 149.18C444.981 149.22 445.072 149.283 445.147 149.362C445.221 149.442 445.277 149.537 445.31 149.64C445.31 150.09 445.24 150.7 445.15 151.49C445.06 152.28 444.97 153.15 444.86 154.12C444.75 155.09 444.64 156.12 444.52 157.18C444.4 158.24 444.28 159.3 444.17 160.3C444.06 161.3 443.97 162.25 443.91 163.12C443.85 163.99 443.81 164.7 443.81 165.25C443.81 165.55 443.81 165.83 443.81 166.1C443.81 166.37 443.81 166.63 443.86 166.89C443.855 167.024 443.81 167.153 443.73 167.26C443.698 167.317 443.651 167.364 443.595 167.397C443.539 167.43 443.475 167.449 443.41 167.45C443.121 167.482 442.829 167.441 442.56 167.331C442.291 167.221 442.054 167.045 441.87 166.82C441.551 166.269 441.402 165.636 441.44 165C441.44 164.89 441.44 164.75 441.44 164.56C441.44 164.37 441.44 164.18 441.44 163.96C441.44 163.74 441.44 163.55 441.44 163.37C441.44 163.19 441.44 163.04 441.44 162.92C441.44 162.8 441.44 162.55 441.44 162.23C441.44 161.91 441.5 161.58 441.53 161.23C441.56 160.88 441.6 160.54 441.63 160.23C441.66 159.92 441.63 159.66 441.63 159.5L441.6 159.46Z" fill="#201851"/>
<path d="M450.37 164.45C450.368 164.603 450.33 164.754 450.26 164.89C450.146 165.086 450.004 165.264 449.84 165.42C449.548 165.421 449.257 165.394 448.97 165.34C448.698 165.289 448.446 165.163 448.242 164.976C448.039 164.788 447.893 164.547 447.82 164.28C447.689 163.87 447.632 163.44 447.65 163.01C447.651 162.691 447.618 162.372 447.55 162.06C447.49 161.75 447.46 161.436 447.46 161.12C447.461 160.221 447.404 159.322 447.29 158.43C447.176 157.538 447.119 156.639 447.12 155.74C447.113 155.563 447.152 155.388 447.235 155.232C447.317 155.075 447.44 154.944 447.59 154.85L448.12 154.73L448.67 154.63C448.891 154.684 449.094 154.794 449.26 154.95L449.62 155.35C449.61 155.537 449.61 155.723 449.62 155.91C449.62 156.09 449.62 156.29 449.62 156.49C449.62 157.19 449.62 157.94 449.73 158.74C449.84 159.54 449.89 160.29 449.98 161.01C450.07 161.73 450.16 162.39 450.25 163.01C450.34 163.63 450.39 164.01 450.43 164.37L450.37 164.45ZM447.93 148.84C447.999 148.784 448.079 148.742 448.165 148.718C448.251 148.694 448.342 148.688 448.43 148.7C448.62 148.701 448.809 148.732 448.99 148.79C449.183 148.855 449.365 148.95 449.53 149.07C449.688 149.18 449.826 149.315 449.94 149.47C450.036 149.608 450.088 149.772 450.09 149.94C450.108 150.071 450.093 150.203 450.048 150.327C450.003 150.451 449.928 150.562 449.83 150.65C449.607 150.782 449.349 150.845 449.09 150.83C448.88 150.829 448.672 150.799 448.47 150.74C448.272 150.68 448.081 150.599 447.9 150.5C447.753 150.424 447.618 150.326 447.5 150.21C447.455 150.175 447.417 150.132 447.389 150.082C447.362 150.032 447.345 149.977 447.34 149.92C447.34 149.721 447.363 149.523 447.41 149.33C447.517 149.108 447.702 148.934 447.93 148.84V148.84Z" fill="#201851"/>
<path d="M452.81 165.5C452.81 165.26 452.98 165.03 453.33 164.81C453.491 164.705 453.658 164.608 453.83 164.52C453.94 164.457 454.064 164.423 454.19 164.42C454.513 164.471 454.816 164.605 455.07 164.81C455.206 164.911 455.32 165.04 455.402 165.189C455.485 165.337 455.535 165.501 455.55 165.67C455.544 165.703 455.544 165.737 455.55 165.77C455.556 165.8 455.556 165.83 455.55 165.86C455.557 166.089 455.498 166.314 455.38 166.51C455.27 166.71 455.14 166.81 455 166.81C454.897 166.822 454.8 166.864 454.72 166.93C454.638 166.989 454.541 167.024 454.44 167.03C454.06 166.937 453.71 166.747 453.425 166.479C453.139 166.211 452.928 165.874 452.81 165.5ZM455 163.5C454.06 163.32 453.56 162.86 453.5 162.12C453.5 161.91 453.5 161.72 453.5 161.53V161C453.506 160.023 453.576 159.048 453.71 158.08C453.85 157.01 454.07 155.86 454.36 154.62C454.79 152.74 455.11 151.28 455.36 150.24C455.61 149.2 455.71 148.56 455.75 148.3C455.766 148.214 455.801 148.132 455.851 148.059C455.901 147.987 455.965 147.926 456.04 147.88C456.198 147.79 456.378 147.745 456.56 147.75C456.662 147.754 456.762 147.771 456.86 147.8L457.8 148.08C457.94 148.12 458.064 148.204 458.154 148.319C458.244 148.434 458.295 148.574 458.3 148.72C457.99 151.083 457.519 153.422 456.89 155.72C456.293 157.93 455.958 160.202 455.89 162.49V162.9C455.885 162.984 455.86 163.065 455.819 163.138C455.777 163.211 455.719 163.273 455.65 163.32C455.519 163.44 455.348 163.507 455.17 163.51L455 163.5Z" fill="#201851"/>
<path d="M166.82 298.33C166.02 302.08 167.18 306.54 166.53 310.39C165.7 315.22 162.64 316.6 160.53 319.64C158.07 323.25 156.95 330 157.84 335.76C158.4 339.32 159.62 342.31 160.52 345.59C161.42 348.87 162.03 352.87 161.26 356.27C160.09 361.39 153.86 365.38 153.86 387.11C153.86 406.94 168.02 414.65 172.04 419.51V290.9L170.22 292.66C168.505 294.134 167.312 296.123 166.82 298.33V298.33Z" fill="url(#paint7_linear)"/>
<path d="M183.35 345.59C184.26 342.31 185.47 339.32 186.03 335.76C186.93 330 185.81 323.25 183.35 319.64C181.28 316.64 178.21 315.22 177.35 310.39C176.69 306.54 177.86 302.08 177.06 298.33C176.552 296.119 175.346 294.131 173.62 292.66L171.8 290.9V419.51C175.8 414.65 189.97 406.94 189.97 387.11C189.97 365.38 183.74 361.39 182.58 356.27C181.85 352.87 182.45 348.86 183.35 345.59Z" fill="url(#paint8_linear)"/>
<path d="M190.5 370C189.43 371.42 189.9 373.54 188.94 375C187.72 376.85 185.04 376.78 182.94 377.61C181.728 378.129 180.7 378.999 179.987 380.107C179.274 381.216 178.909 382.512 178.94 383.83C179.163 385.437 179.545 387.018 180.08 388.55C180.342 389.319 180.427 390.137 180.33 390.944C180.233 391.75 179.956 392.525 179.52 393.21C177.99 395.12 172.39 395.46 170.01 404.62C167.83 412.98 178.71 419.29 181.5 422.2L195.67 368L193.98 368.35C192.661 368.47 191.428 369.055 190.5 370V370Z" fill="url(#paint9_linear)"/>
<path d="M197.93 377.36C197.81 375.59 199.27 373.96 199.02 372.21C198.673 370.934 197.882 369.824 196.79 369.08L195.48 368L181.36 422.22C185.21 421.04 197.79 420.84 199.97 412.48C202.35 403.32 197.63 400.29 197.23 397.88C197.179 397.069 197.313 396.257 197.621 395.505C197.929 394.754 198.404 394.082 199.01 393.54C200.222 392.459 201.327 391.263 202.31 389.97C202.979 388.837 203.294 387.53 203.214 386.216C203.134 384.903 202.662 383.643 201.86 382.6C200.47 380.81 198.09 379.57 197.93 377.36Z" fill="url(#paint10_linear)"/>
<path d="M179.65 427.58C175.43 421.25 148.65 416.26 148.65 416.26C148.65 416.26 157.48 425.72 157.48 432.08C157.305 434.541 156.808 436.969 156 439.3C155.319 441.446 155.153 443.723 155.515 445.945C155.876 448.168 156.755 450.274 158.081 452.094C159.406 453.915 161.142 455.397 163.146 456.423C165.151 457.449 167.368 457.989 169.62 458H170.45C172.17 454.34 173.84 450 173.84 447.07C173.84 441 183.87 433.92 179.65 427.58Z" fill="#373075"/>
<path d="M206.6 439.3C205.782 436.97 205.274 434.542 205.09 432.08C205.09 425.72 213.92 416.26 213.92 416.26H148.65C148.65 416.26 175.43 421.26 179.65 427.58C183.87 433.9 173.84 440.95 173.84 447.06C173.84 450.06 172.17 454.33 170.45 457.99H193C195.249 457.976 197.463 457.433 199.464 456.407C201.465 455.38 203.196 453.898 204.52 452.079C205.843 450.261 206.72 448.157 207.082 445.937C207.443 443.718 207.278 441.444 206.6 439.3Z" fill="#232059"/>
<path d="M607.93 421.82C609.93 419.56 618.93 416.12 622.72 410.56C626.51 405 639.72 385.56 649.72 389.4C659.72 393.24 641.04 406.76 635.48 413.55C629.92 420.34 629.48 440 614.77 440C600.06 440 603.59 426.84 607.93 421.82Z" fill="#3D86FA"/>
<path d="M607.08 371.22C607.08 371.22 614.08 371.43 613.45 381.33C612.82 391.23 610.13 398.62 610.67 403.92C611.21 409.22 616.03 429.48 607.08 430.84C598.13 432.2 587.81 429.15 592.29 414.56C596.77 399.97 592.7 368.38 607.08 371.22Z" fill="#1351BE"/>
<path d="M604.91 383C604.91 383 598.39 442.86 598.39 463.39" stroke="#231F20" stroke-width="1.08" stroke-miterlimit="10" stroke-linecap="round"/>
<path d="M600.38 463.42C600.38 463.42 604.15 426.61 645.06 394.78" stroke="#231F20" stroke-width="1.08" stroke-miterlimit="10" stroke-linecap="round"/>
<path d="M533.09 414.91C532.69 417.1 534.19 423.14 533.09 425.04C531.99 426.94 529.96 431.12 531.74 434.8C533.52 438.48 535.74 448.73 523.57 449.04C511.4 449.35 513.51 435.84 514.86 433.21C516.21 430.58 518.05 428.05 518.66 422.59C519.27 417.13 519.83 415.22 526.52 410.19C533.21 405.16 534.19 404.19 535.73 406.07C537.27 407.95 533.88 410.49 533.09 414.91Z" fill="#423981"/>
<path d="M528.48 416.88C528.48 416.88 518.62 437.75 524.96 461.44" stroke="#231F20" stroke-width="0.52" stroke-miterlimit="10" stroke-linecap="round"/>
<path d="M524.53 429.38L530.08 423.45" stroke="#231F20" stroke-width="0.52" stroke-miterlimit="10" stroke-linecap="round"/>
<path d="M523.4 436.02L519.95 430.32" stroke="#231F20" stroke-width="0.52" stroke-miterlimit="10" stroke-linecap="round"/>
<path d="M522.84 444.23L529.83 438.03" stroke="#231F20" stroke-width="0.52" stroke-miterlimit="10" stroke-linecap="round"/>
<defs>
<linearGradient id="paint0_linear" x1="86.74" y1="278.15" x2="170.47" y2="113.34" gradientUnits="userSpaceOnUse">
<stop stop-color="#F69A5E"/>
<stop offset="0.29" stop-color="#FAAC60"/>
<stop offset="0.71" stop-color="#FEC062"/>
<stop offset="1" stop-color="#FFC763"/>
</linearGradient>
<linearGradient id="paint1_linear" x1="-14328.7" y1="49682.1" x2="-33135.5" y2="32091.1" gradientUnits="userSpaceOnUse">
<stop stop-color="#F69A5E"/>
<stop offset="0.29" stop-color="#FAAC60"/>
<stop offset="0.71" stop-color="#FEC062"/>
<stop offset="1" stop-color="#FFC763"/>
</linearGradient>
<linearGradient id="paint2_linear" x1="533.82" y1="264.37" x2="416.96" y2="321.09" gradientUnits="userSpaceOnUse">
<stop offset="0.05" stop-color="#FBD15B"/>
<stop offset="1" stop-color="#F9A45A"/>
</linearGradient>
<linearGradient id="paint3_linear" x1="496.349" y1="219.34" x2="446.229" y2="274.45" gradientUnits="userSpaceOnUse">
<stop offset="0.05" stop-color="#FAD05A"/>
<stop offset="0.33" stop-color="#FAC85A"/>
<stop offset="0.77" stop-color="#F9B159"/>
<stop offset="1" stop-color="#F8A359"/>
</linearGradient>
<linearGradient id="paint4_linear" x1="12962.9" y1="9498.97" x2="11095" y2="10759.3" gradientUnits="userSpaceOnUse">
<stop offset="0.05" stop-color="#FAD05A"/>
<stop offset="0.33" stop-color="#FAC85A"/>
<stop offset="0.77" stop-color="#F9B159"/>
<stop offset="1" stop-color="#F8A359"/>
</linearGradient>
<linearGradient id="paint5_linear" x1="526.43" y1="288.84" x2="556.42" y2="269.93" gradientUnits="userSpaceOnUse">
<stop stop-color="#232059"/>
<stop offset="0.2" stop-color="#28255B"/>
<stop offset="0.44" stop-color="#373362"/>
<stop offset="0.71" stop-color="#504A6D"/>
<stop offset="0.88" stop-color="#635B75"/>
</linearGradient>
<linearGradient id="paint6_linear" x1="417.22" y1="185.34" x2="464.49" y2="141.34" gradientUnits="userSpaceOnUse">
<stop stop-color="#F4AA2E"/>
<stop offset="1" stop-color="#FFCA5A"/>
</linearGradient>
<linearGradient id="paint7_linear" x1="162.99" y1="419.51" x2="162.99" y2="290.9" gradientUnits="userSpaceOnUse">
<stop stop-color="#232059"/>
<stop offset="1" stop-color="#AD69DA"/>
</linearGradient>
<linearGradient id="paint8_linear" x1="3459.3" y1="54244.1" x2="3459.3" y2="37703.6" gradientUnits="userSpaceOnUse">
<stop stop-color="#232059"/>
<stop offset="1" stop-color="#AD69DA"/>
</linearGradient>
<linearGradient id="paint9_linear" x1="191.65" y1="358.16" x2="177.93" y2="406" gradientUnits="userSpaceOnUse">
<stop stop-color="#FFF5B7"/>
<stop offset="1" stop-color="#D17E2C"/>
</linearGradient>
<linearGradient id="paint10_linear" x1="4680.37" y1="20006.5" x2="3354.54" y2="21870.9" gradientUnits="userSpaceOnUse">
<stop stop-color="#FFF5B7"/>
<stop offset="1" stop-color="#D17E2C"/>
</linearGradient>
</defs>
</svg>
