<svg xmlns="http://www.w3.org/2000/svg" xmlns:xlink="http://www.w3.org/1999/xlink" viewBox="0 0 720 504"><defs><style>.cls-1{isolation:isolate;}.cls-2{fill:#fff;}.cls-3,.cls-30{fill:#c7ccd1;}.cls-4{fill:url(#linear-gradient);}.cls-5{fill:#fe845a;}.cls-29,.cls-6,.cls-9{fill:none;stroke:#231f20;stroke-miterlimit:10;}.cls-29,.cls-6{stroke-linecap:round;}.cls-6{stroke-width:1.23px;}.cls-7{fill:url(#linear-gradient-2);}.cls-8{fill:url(#linear-gradient-3);}.cls-9{stroke-width:1.17px;}.cls-10{fill:#403881;}.cls-11{fill:#232059;}.cls-12{fill:#fca080;}.cls-13{fill:#e0e6ee;}.cls-14{fill:#1e194f;}.cls-15{fill:#1150bf;}.cls-16{fill:#094081;}.cls-17,.cls-59{fill:#f59d80;}.cls-18,.cls-60{fill:#d07a62;}.cls-19{fill:#201851;}.cls-20{fill:#413b8a;}.cls-21{fill:url(#linear-gradient-4);}.cls-22{fill:url(#linear-gradient-5);}.cls-23{fill:url(#linear-gradient-6);}.cls-24{fill:#231f20;}.cls-25{fill:url(#linear-gradient-7);}.cls-26{fill:url(#linear-gradient-8);}.cls-27{fill:#3d86fa;}.cls-28{fill:#1351be;}.cls-29{stroke-width:1.1px;}.cls-30,.cls-54,.cls-59,.cls-60{fill-rule:evenodd;}.cls-31,.cls-54{fill:#e4e4e4;}.cls-32,.cls-35{opacity:0.2;}.cls-32,.cls-61{mix-blend-mode:multiply;}.cls-33{fill:#f55662;}.cls-34{fill:#ff4f5b;}.cls-36{fill:#f5f5f5;}.cls-37{fill:url(#linear-gradient-9);}.cls-38{fill:url(#linear-gradient-10);}.cls-39{fill:url(#linear-gradient-11);}.cls-40{fill:url(#linear-gradient-12);}.cls-41{fill:url(#linear-gradient-13);}.cls-42{fill:url(#linear-gradient-14);}.cls-43{fill:url(#linear-gradient-15);}.cls-44{fill:url(#linear-gradient-16);}.cls-45{fill:url(#linear-gradient-17);}.cls-46{fill:url(#linear-gradient-18);}.cls-47{fill:url(#linear-gradient-19);}.cls-48{fill:url(#linear-gradient-20);}.cls-49{fill:url(#linear-gradient-21);}.cls-50{fill:url(#linear-gradient-22);}.cls-51{fill:url(#linear-gradient-23);}.cls-52{fill:url(#linear-gradient-24);}.cls-53{fill:url(#linear-gradient-25);}.cls-55{fill:url(#linear-gradient-26);}.cls-56{fill:#403882;}.cls-57{fill:#fda181;}.cls-58{fill:#e1e7ef;}.cls-61{opacity:0.3;}</style><linearGradient id="linear-gradient" x1="571.66" y1="48.09" x2="632.8" y2="197.64" gradientUnits="userSpaceOnUse"><stop offset="0.05" stop-color="#fbd15b"/><stop offset="1" stop-color="#f9a45a"/></linearGradient><linearGradient id="linear-gradient-2" x1="111.49" y1="48.09" x2="172.63" y2="197.64" xlink:href="#linear-gradient"/><linearGradient id="linear-gradient-3" x1="146.71" y1="287.97" x2="91.94" y2="180.43" gradientUnits="userSpaceOnUse"><stop offset="0" stop-color="#1252c4"/><stop offset="1" stop-color="#3f87fe"/></linearGradient><linearGradient id="linear-gradient-4" x1="259.14" y1="459.98" x2="292.69" y2="305.01" gradientTransform="translate(327.08)" xlink:href="#linear-gradient-3"/><linearGradient id="linear-gradient-5" x1="183.21" y1="439.99" x2="320.32" y2="439.99" gradientTransform="translate(327.08)" gradientUnits="userSpaceOnUse"><stop offset="0" stop-color="#ff9d5c"/><stop offset="1" stop-color="#ffc961"/></linearGradient><linearGradient id="linear-gradient-6" x1="105.56" y1="459.43" x2="115.15" y2="425.31" gradientTransform="matrix(-1, 0, 0, 1, 252, 0)" gradientUnits="userSpaceOnUse"><stop offset="0" stop-color="#f8a034"/><stop offset="1" stop-color="#ffc546"/></linearGradient><linearGradient id="linear-gradient-7" x1="103.64" y1="460.69" x2="91.72" y2="436.01" gradientTransform="matrix(-1, 0, 0, 1, 252, 0)" gradientUnits="userSpaceOnUse"><stop offset="0" stop-color="#fcb72c"/><stop offset="1" stop-color="#ffcf44"/></linearGradient><linearGradient id="linear-gradient-8" x1="118.8" y1="462.24" x2="123.05" y2="446.4" xlink:href="#linear-gradient-7"/><linearGradient id="linear-gradient-9" x1="342.15" y1="467.3" x2="317.88" y2="390.17" xlink:href="#linear-gradient-3"/><linearGradient id="linear-gradient-10" x1="451.74" y1="269.48" x2="276.46" y2="343.91" gradientTransform="matrix(1, 0, 0, 1, 0, 0)" xlink:href="#linear-gradient-6"/><linearGradient id="linear-gradient-11" x1="454.28" y1="275.46" x2="279" y2="349.88" gradientTransform="matrix(1, 0, 0, 1, 0, 0)" xlink:href="#linear-gradient-6"/><linearGradient id="linear-gradient-12" x1="454.81" y1="276.69" x2="279.53" y2="351.12" gradientTransform="matrix(1, 0, 0, 1, 0, 0)" xlink:href="#linear-gradient-6"/><linearGradient id="linear-gradient-13" x1="455.42" y1="278.13" x2="280.14" y2="352.56" gradientTransform="matrix(1, 0, 0, 1, 0, 0)" xlink:href="#linear-gradient-6"/><linearGradient id="linear-gradient-14" x1="455.21" y1="277.64" x2="279.93" y2="352.06" gradientTransform="matrix(1, 0, 0, 1, 0, 0)" xlink:href="#linear-gradient-6"/><linearGradient id="linear-gradient-15" x1="465.79" y1="302.55" x2="290.51" y2="376.98" gradientTransform="matrix(1, 0, 0, 1, 0, 0)" xlink:href="#linear-gradient-6"/><linearGradient id="linear-gradient-16" x1="462.59" y1="295.02" x2="287.31" y2="369.45" gradientTransform="matrix(1, 0, 0, 1, 0, 0)" xlink:href="#linear-gradient-6"/><linearGradient id="linear-gradient-17" x1="463.33" y1="296.75" x2="288.04" y2="371.18" gradientTransform="matrix(1, 0, 0, 1, 0, 0)" xlink:href="#linear-gradient-6"/><linearGradient id="linear-gradient-18" x1="464.09" y1="298.54" x2="288.81" y2="372.97" gradientTransform="matrix(1, 0, 0, 1, 0, 0)" xlink:href="#linear-gradient-6"/><linearGradient id="linear-gradient-19" x1="465.21" y1="301.19" x2="289.93" y2="375.61" gradientTransform="matrix(1, 0, 0, 1, 0, 0)" xlink:href="#linear-gradient-6"/><linearGradient id="linear-gradient-20" x1="461.2" y1="291.74" x2="285.92" y2="366.17" gradientTransform="matrix(1, 0, 0, 1, 0, 0)" xlink:href="#linear-gradient-6"/><linearGradient id="linear-gradient-21" x1="461.88" y1="293.35" x2="286.6" y2="367.78" gradientTransform="matrix(1, 0, 0, 1, 0, 0)" xlink:href="#linear-gradient-6"/><linearGradient id="linear-gradient-22" x1="464.64" y1="299.85" x2="289.36" y2="374.28" gradientTransform="matrix(1, 0, 0, 1, 0, 0)" xlink:href="#linear-gradient-6"/><linearGradient id="linear-gradient-23" x1="460.53" y1="290.18" x2="285.25" y2="364.6" gradientTransform="matrix(1, 0, 0, 1, 0, 0)" xlink:href="#linear-gradient-6"/><linearGradient id="linear-gradient-24" x1="459.92" y1="288.74" x2="284.64" y2="363.17" gradientTransform="matrix(1, 0, 0, 1, 0, 0)" xlink:href="#linear-gradient-6"/><linearGradient id="linear-gradient-25" x1="469.67" y1="311.7" x2="294.39" y2="386.13" gradientTransform="matrix(1, 0, 0, 1, 0, 0)" xlink:href="#linear-gradient-6"/><linearGradient id="linear-gradient-26" x1="402" y1="311.64" x2="377.73" y2="234.51" xlink:href="#linear-gradient-3"/></defs><g class="cls-1"><g id="Layer_2" data-name="Layer 2"><g id="Layer_1-2" data-name="Layer 1"><rect class="cls-2" width="720" height="504"/><ellipse id="shadow" class="cls-3" cx="389.45" cy="460.11" rx="231.64" ry="9.22"/><g id="trees"><ellipse class="cls-4" cx="610.65" cy="143.47" rx="42.48" ry="88.52"/><path class="cls-5" d="M633.57,68.92c6.66,15.63,10.71,36.21,10.71,58.77,0,48.89-19,88.52-42.48,88.52-8.44,0-16.3-5.13-22.91-14C586.67,220.49,598,232,610.65,232c23.46,0,42.48-39.63,42.48-88.52C653.13,112.17,645.33,84.66,633.57,68.92Z"/><g id="TREE"><line class="cls-6" x1="611.23" y1="90.55" x2="611.23" y2="451.78"/><line class="cls-6" x1="611.23" y1="130.54" x2="627.79" y2="110.34"/><line class="cls-6" x1="611.23" y1="172.1" x2="627.79" y2="151.9"/><line class="cls-6" x1="611.23" y1="153.93" x2="594.68" y2="133.72"/><line class="cls-6" x1="611.23" y1="191" x2="594.68" y2="170.8"/><line class="cls-6" x1="611.23" y1="215.2" x2="627.79" y2="195"/></g><ellipse class="cls-7" cx="150.48" cy="143.47" rx="42.48" ry="88.52"/><path class="cls-5" d="M173.4,68.92c6.67,15.63,10.72,36.21,10.72,58.77,0,48.89-19,88.52-42.48,88.52-8.44,0-16.31-5.13-22.92-14C126.5,220.49,137.85,232,150.48,232,174,232,193,192.36,193,143.47,193,112.17,185.17,84.66,173.4,68.92Z"/><g id="TREE-2" data-name="TREE"><line class="cls-6" x1="151.07" y1="90.55" x2="151.07" y2="451.78"/><line class="cls-6" x1="151.07" y1="130.54" x2="167.62" y2="110.34"/><line class="cls-6" x1="151.07" y1="172.1" x2="167.62" y2="151.9"/><line class="cls-6" x1="151.07" y1="153.93" x2="134.51" y2="133.72"/><line class="cls-6" x1="151.07" y1="191" x2="134.51" y2="170.8"/><line class="cls-6" x1="151.07" y1="215.2" x2="167.62" y2="195"/></g><path class="cls-8" d="M135.84,171.78c3.47,2.37,25,22.49,17.49,50.28s-25.93,41.54-50,35.61S54.94,233.62,61.19,205.2,94.61,143.67,135.84,171.78Z"/><line class="cls-9" x1="110.19" y1="204.81" x2="110.19" y2="457.81"/><line class="cls-9" x1="110.19" y1="238.32" x2="124.84" y2="223.67"/><line class="cls-9" x1="110.19" y1="220.49" x2="97.8" y2="208.11"/></g><g id="lady"><g id="bottom_body" data-name="bottom body"><path class="cls-10" d="M207.57,246.81S201.23,305,201,333.19s-1.89,96.26-1.89,96.26l18.2-.75s6.34-39.77,9-54.07-.54-33.16,1.62-43.41,11.72-47.73,11.72-47.73l2.3-1.35s8.9,53.66,10,63.1,5.39,80.83,5.39,80.83l-1.62-189.5Z"/><path class="cls-11" d="M257.32,426.07l-1.62-189.5-48.13,10.24s-.19,1.71-.5,4.66c0,0,13.44,13.28,25,11.86s6.17,21,6.17,21l-3,16.87h0c2.42-9.65,4.47-17.68,4.47-17.68l2.3-1.35s8.9,53.66,10,63.1S257.32,426.07,257.32,426.07Z"/><path class="cls-10" d="M199.07,429.45v4.48s-6.27,10.61-7.89,12.33-5.23,5.51-5.79,11.47a1.22,1.22,0,0,0,1.15,1.34c3.79.21,15.29.78,18.4.44,3.74-.4,12.33.2,12.64-1.62s-.81-19.61-.81-20.93.5-8.26.5-8.26Z"/><path class="cls-12" d="M199.07,433.93s4.68-2.43,8-1,5.15,3.54,6.56,3.54a13.9,13.9,0,0,0,3.17-.5l.47-7.26-18.2.75Z"/><path class="cls-13" d="M186.54,459.07c3.79.21,15.29.78,18.4.44,3.74-.4,12.33.2,12.64-1.62a11.05,11.05,0,0,0,0-1.26l-11.78.76s.6-3.64-2.83-8.6-11.84-2.53-11.84-2.53c-1.51,1.61-5.23,5.51-5.79,11.47A1.22,1.22,0,0,0,186.54,459.07Z"/></g><g id="top"><path class="cls-10" d="M227.39,107s7.38-1.14,8.09,2.77-2,13.92,1.61,15.44,6.17,3,3.95,7.88-3.74,7.18,0,11-3.27,15.6-19.18,20.59-34,11.73-34,11.73,2-7.14-1.89-11.59-1.61-11.33,3-15.64-4-13.76-1.35-23.46,2-19.55,10.52-23.33,23.59-6.74,26-3.1A24.11,24.11,0,0,1,227.39,107Z"/><path class="cls-14" d="M187.88,176.43s18.07-6.74,34-11.73S244.78,148,241,144.11s-2.23-6.17,0-11c1.36-4.39-2.53-4.55-5.77-4.85s-3.6-5.33-3.6-5.33c-15-18-32.6,3.91-30.83,13.93s-5.1,11.32-3.59,20.12c.74,4.27-3.9,9.82-8.87,14.39A17.32,17.32,0,0,1,187.88,176.43Z"/><path class="cls-15" d="M234,154.19l21.71,7.41v75s-15,4.31-25.08,7.68-23.05,2.56-23.05,2.56l-2.43-6.6s-19.69,3.37-25.48,1.21-6.88-7.67-7.15-11.85,5.22-51.93,15.75-59.41a195.19,195.19,0,0,1,18.3-11.66Z"/><path class="cls-16" d="M230.62,244.25c10.12-3.37,25.08-7.68,25.08-7.68v-75L234,154.19l-27.43,4.31s-6,3.24-14.63,9.11c0,0,27.27-10.52,34-8.82s12.84,1.19,10.82,4.73a44.78,44.78,0,0,0-3.44,9.31h-8.09v52s-20.42-6.17-22-10.11,16.89-13.63,15.77-14.15-14.66,1-15.27-1-3.94-9.91-3.94-9.91l-1.92,28.52L199.52,241c3.29-.43,5.62-.83,5.62-.83l2.43,6.6S220.51,247.62,230.62,244.25Z"/><path class="cls-17" d="M231.36,121.08s1.89,8.63-1.68,8.5c0,0,.67,8.56-.61,10.79a15.8,15.8,0,0,1-1.82,2.76s1.69,8.56,3.58,9.44,3.16,1.62,3.16,1.62-1.82,10.44-10.51,12.87-15-3.64-16.92-8.56c0,0,4.11-3,4.51-5a12.47,12.47,0,0,0-.2-4.52s-5.12-1.55-8.49-12.67S209.93,115,216.8,113,231.18,120.07,231.36,121.08Z"/><path class="cls-10" d="M222.13,117.24s1.28,6.94,9.54,5.66c0,0,1.31-13.28-15.34-13.14S195.55,129.65,198.72,137c0,0,21.45-4.76,22-12.18S222.13,117.24,222.13,117.24Z"/><path class="cls-18" d="M221.22,151.34c3.34-1.37,6-8.21,6-8.21s-4.16,5.63-7.19,6.24-9.19-.38-9.19-.38.13.57.23,1.38C212.92,150.93,218.45,152.47,221.22,151.34Z"/></g></g><g id="plants"><g id="plant"><path class="cls-5" d="M653.51,351.58c-1.49,37.9-25.34,98.74-48.34,91.62-6.06-1.88,1.72-30.12,24-55C645.26,370.24,649.47,357.08,653.51,351.58Z"/><path class="cls-19" d="M585.56,438.46c.14,2.39-33,5.42-48.3-19.58-12-19.47-19.38-21.21-25.78-24.67C555,393.43,585.19,432.2,585.56,438.46Z"/><path class="cls-20" d="M573.72,387c.21-2-1.86-16.68.35-28.17,4.54,4.43,21.35,61.69,20.82,71-.2,3.43,1.81,12.87-5.37,14.57C582,446.19,568,427.91,563,415.29c-16.37-41.7-4.6-39.93-18.25-63.66C550.2,355.58,570.86,379.55,573.72,387Z"/><path class="cls-5" d="M565,370.87c2.74,4,4,8.71,6.69,12.61,2.17,3.15,2,7.11,3.49,10.13,1.66,3.25,4.56,4.93,4.73,9.49.08,2.13-.46,3.91-.26,5.84.24,2.4,1.24,4.62,1.27,7.18,0,1.79-.53,3.51-.58,5.21-.13,4.8,7.48,12.66,1.38,17,.33,4.05-.41,5.49-2.49,5.55-4.46.13-4.3-4.42-5.17-6.92-1-2.88-4.29-4.77-4.6-8.73-.16-2.05,1-4.46.8-6.32-.16-1.4-1.46-2.17-2.2-3.34-1.91-3-2-6.54-1.79-10,.12-2,1.72-5.27,1.47-7.1-.48-3.51-4.05-4.4-3-9.46.33-1.53,1.64-3.38,1.6-4.95s-1.07-2.63-1.6-4.06C563.28,379.08,564.92,374.94,565,370.87Z"/><path class="cls-21" d="M581.94,428.92c4.27-.17,9.66,3.86,12.5,8.31-.06-2.8-.2-5.6-.39-8.41-3-2.77-8.2-2-11.21-5.54-3.18-3.77,0-8,4.5-5.73,2.19,1.09,4.74,4.76,6.44,7.79-.16-2-.37-4.76-.54-6.76-.14-1.73-.25-3.46-.35-5.19-3.46-2.16-10.87-2-11.65-7.72-.55-4,3.43-6.78,6.64-3.52a29,29,0,0,1,4.85,7.23c-.1-3.22-.09-6.42,0-9.62-3.8-3-12.48-2.12-14.17-7.73-1.37-4.58,4.45-5.64,7.77-3.38s4.92,6.23,6.46,9.9q.2-3.57.61-7.13c-2.86-2.92-8.83-4.89-10-9.62s2.55-9.69,7-5c2.32,2.49,3.25,6.33,3.69,10.05q.64-3.93,1.58-7.79a31.32,31.32,0,0,0-2.81-5c-1.42-2.05-3.51-4-3.28-6.62.41-4.49,3.86-2.19,5.42.75a17.08,17.08,0,0,1,1.56,7.41c.78-2.87,2.08-7.2,3.07-10-1.51-4.59-12.91-13.45-4.67-14,3.9-.27,5.47,7.43,5.57,12,.59-1.52,2.07-5,2.18-5.27-1.36-3.76-8-15.36-2.36-16,4.48-.51,4.44,7,4.08,10.65-.05.47-.08,1.14-.14,1.87,1.07-2.29,2.21-4.58,3.44-6.84a21,21,0,0,1-2.56-5.2c-.43-1.37-1.71-7.35,2-5.28,1.43.8,2,5.07,1.86,8.11.91-1.58,1.86-3.14,2.86-4.65,5.44-11.6.08-26.27,9-24.85,10.55,1.68,7.55,10.38,5,13.63a41.42,41.42,0,0,1-11.72,10c-1,1.68-4.81,9.15-5.29,10.13,4.2-5.2,12.65-15.46,16.08-9.84,3,5-11.77,8.84-16.88,11.52-1.39,2.94-4.48,10.53-4.77,11.33,1.91-2.17,3.5-5.43,6.06-6.92,2.28-1.33,7.66-2.45,7.7.93.07,4.82-6.87,5.43-10.28,6.3-2.45.63-3.46,1.74-4.15,1.54q-2,5.79-3.52,11.77c2.6-4.78,10.27-15,14-9.52,4.85,7.08-9.47,7.28-14.29,10.59a124.92,124.92,0,0,0-2.3,12.35v.15c1.66-3.8,3-7.64,6.32-10.55,3-2.63,8.55-4,8.62,2.25,0,4.55-7.93,5.41-11.57,7.62-1.61,1-2.79,2.26-3.63,2.8a114,114,0,0,0-.63,11.68c6.38-5.58,11.14-21.69,16.82-14.37,5,6.44-10.29,7.89-16.83,15.74,0,3.56.17,7.13.42,10.71a40,40,0,0,1,3.51-8.26c1-2,6.54-7.89,9.15-3.51s-5.43,8-7.84,9.38a11.69,11.69,0,0,0-4.64,4.91c.05.66.78,8.81,1,12.25,1.57-5.92,15-27.82,20.56-15.92,3.57,7.63-13,9.53-16.67,12.27-2.51,1.85-3.37,3.48-3.79,5.17.12,2,.2,4,.21,6,3.15-5.53,11-16.22,15.23-8.26,5,9.42-8.35,7-10.83,8.44-2.15,1.25-4.59,2.05-4.51,5.08a60.18,60.18,0,0,1-.79,7c-.3,1.65-2.91,1.09-2.73-.57a91.92,91.92,0,0,0,.5-9.66c-3.82-2.23-12.25-2.2-14.82-4.27C576.07,433.05,577.26,429.1,581.94,428.92Z"/><path class="cls-22" d="M647.4,453.5s-4.78-14.14-15.85-9.58c0,0-5.53-17.9-19.11-3.91s-9.42-16.05-23-13.36-9.51,13-9.51,13-12.89-6.65-10.09,4.85c0,0-30.41-15.17-30.91-2.34,0,0-20.38-3.77-16.86,6.79,0,0-11.82-3-11.82,4.53Z"/></g><g id="plant_3" data-name="plant 3"><path class="cls-23" d="M151.72,451.76s-1-34.35-13.08-36.89-13.81,21.42,0,45.1Z"/><path class="cls-24" d="M145.47,455.88a.21.21,0,0,1-.2-.15C139.51,432.55,137,424,137,423.94a.19.19,0,0,1,.14-.24.2.2,0,0,1,.25.13c0,.09,2.51,8.62,8.27,31.81a.2.2,0,0,1-.15.24Z"/><path class="cls-25" d="M155.91,460s18.41-17.48,11.51-25.93-24.17,6.2-28.78,25.93Z"/><path class="cls-24" d="M148.71,457.63h-.08a.2.2,0,0,1-.1-.27C153.09,447,162,438.76,162.1,438.68a.21.21,0,1,1,.28.3c-.09.08-8.95,8.26-13.48,18.53A.2.2,0,0,1,148.71,457.63Z"/><path class="cls-26" d="M140.32,460s-4.7-19.87-14.19-18.18,0,18,0,18Z"/><path class="cls-24" d="M131,457.49a.21.21,0,0,1-.2-.15l-3.16-11.55a.2.2,0,0,1,.14-.25.21.21,0,0,1,.25.14l3.17,11.56a.21.21,0,0,1-.15.25Z"/></g><path class="cls-27" d="M94,432c1.4-1.62,7.87-4.08,10.59-8.06s12.14-17.87,19.32-15.15-6.21,12.43-10.19,17.28S109.39,445,98.87,445,90.88,435.58,94,432Z"/><path class="cls-28" d="M93.37,395.77s5,.14,4.56,7.23-2.38,12.38-2,16.17,3.84,18.3-2.57,19.27-13.79-1.21-10.59-11.65S83.08,393.73,93.37,395.77Z"/><path class="cls-29" d="M91.81,404.21s-4.66,42.86-4.66,57.56"/><path class="cls-29" d="M88.58,461.77s2.7-26.35,32-49.14"/></g><g id="phone"><g id="gear"><path class="cls-30" d="M478.06,146.51a26.74,26.74,0,0,1-.3,7l5.13,4-4.52,9.73L472,165.82a26.43,26.43,0,0,1-5.15,4.74l.83,6.43-10.08,3.68-3.51-5.44a26.74,26.74,0,0,1-7-.3l-4,5.13-9.73-4.52,1.36-6.33a26.38,26.38,0,0,1-4.73-5.15l-6.43.83L420,154.81l5.44-3.51a25.9,25.9,0,0,1,.3-7l-5.13-4,4.51-9.73,6.34,1.36a26.7,26.7,0,0,1,5.15-4.73l-.83-6.43,10.08-3.68,3.51,5.44a26.31,26.31,0,0,1,7,.3l4-5.13,9.73,4.51-1.37,6.34a26.43,26.43,0,0,1,4.74,5.15l6.42-.83L483.5,143l-5.44,3.51Zm-15.35-1.1a11.51,11.51,0,1,0-6.86,14.76A11.5,11.5,0,0,0,462.71,145.41Z"/><path class="cls-30" d="M471,88.53a13.06,13.06,0,0,1-.15,3.54l2.6,2L471.14,99l-3.21-.7a13,13,0,0,1-2.61,2.4l.42,3.26-5.1,1.86-1.78-2.75a13.51,13.51,0,0,1-3.54-.15l-2,2.6-4.92-2.29.69-3.21a13.56,13.56,0,0,1-2.4-2.61l-3.26.42-1.86-5.1L444.32,91a13.06,13.06,0,0,1,.15-3.54l-2.6-2,2.28-4.93,3.21.69A13.2,13.2,0,0,1,450,78.78l-.42-3.26,5.11-1.87,1.78,2.76a13.42,13.42,0,0,1,3.53.15l2-2.6,4.93,2.29-.69,3.21a13.28,13.28,0,0,1,2.4,2.61l3.25-.42,1.87,5.1L471,88.53ZM463.21,88a5.83,5.83,0,1,0-3.48,7.48A5.84,5.84,0,0,0,463.21,88Z"/></g><path class="cls-19" d="M438.1,71H269a17.26,17.26,0,0,0-17.1,17.42v348A17.27,17.27,0,0,0,269,453.82H438.1a17.29,17.29,0,0,0,17.12-17.42v-348A17.28,17.28,0,0,0,438.1,71Zm6.42,354.67c0,9.16-6.86,16.57-15.32,16.57H278c-8.48,0-15.34-7.41-15.34-16.57V101.58C262.62,82.92,269.48,82,278,82h30.3c1.76,0,3.2,2,3.2,4.48v1.07c0,5.81,3.18,5.83,7.08,5.83H388.6c3.94,0,7.1,0,7.1-5.83V86.49c0-2.48,1.42-4.48,3.21-4.48H429.2c8.46,0,15.32,2.48,15.32,19.57Z"/><path class="cls-31" d="M444.52,101.58V425.64c0,9.16-6.86,16.57-15.32,16.57H278c-8.48,0-15.34-7.41-15.34-16.57V101.58C262.62,82.92,269.48,82,278,82h30.3c1.76,0,3.2,2,3.2,4.48v1.07c0,5.81,3.18,5.83,7.08,5.83H388.6c3.94,0,7.1,0,7.1-5.83V86.49c0-2.48,1.42-4.48,3.21-4.48H429.2C437.66,82,444.52,84.49,444.52,101.58Z"/><path class="cls-31" d="M408.87,423.73V387.59a3.26,3.26,0,0,0-3.27-3.27h-143v41.32c0,.45,0,.91.06,1.35H405.6A3.26,3.26,0,0,0,408.87,423.73Z"/><path class="cls-32" d="M408.87,423.73V387.59a3.26,3.26,0,0,0-3.27-3.27h-143v41.32c0,.45,0,.91.06,1.35H405.6A3.26,3.26,0,0,0,408.87,423.73Z"/><path class="cls-2" d="M363.13,86.13H344A1.18,1.18,0,0,1,342.84,85h0A1.18,1.18,0,0,1,344,83.77h19.11A1.18,1.18,0,0,1,364.31,85h0A1.18,1.18,0,0,1,363.13,86.13Z"/><rect class="cls-33" x="335.85" y="132.73" width="72.42" height="96.35" transform="translate(189.08 551.95) rotate(-89.68)"/><polygon class="cls-34" points="323.88 216.85 357.78 172.02 378.47 200.3 392.69 185.32 420.23 217.38 323.88 216.85"/><path class="cls-34" d="M387.51,166.67A7.59,7.59,0,1,1,380,159,7.6,7.6,0,0,1,387.51,166.67Z"/><g class="cls-35"><polygon points="323.88 216.85 357.78 172.02 378.47 200.3 392.69 185.32 420.23 217.38 323.88 216.85"/></g><g class="cls-35"><path d="M387.51,166.67A7.59,7.59,0,1,1,380,159,7.6,7.6,0,0,1,387.51,166.67Z"/></g><path class="cls-36" d="M415.07,139.42l-122.92-.32A11.14,11.14,0,0,1,281,127.93V123.8a11.14,11.14,0,0,1,11.17-11.11l122.92.32a11.14,11.14,0,0,1,11.11,11.17l0,4.13A11.13,11.13,0,0,1,415.07,139.42Z"/><path class="cls-19" d="M415.07,139.42l.83-.07a11.79,11.79,0,0,0,2.4-.46,11.67,11.67,0,0,0,3.5-1.82,11,11,0,0,0,3.32-4.19,10.69,10.69,0,0,0,.88-3.08,27.42,27.42,0,0,0,.11-3.56,24.25,24.25,0,0,0-.16-3.87,11,11,0,0,0-8.75-9,30.77,30.77,0,0,0-5-.21h-5.37L292.22,113a10.87,10.87,0,0,0-10.85,9.93c-.1,1.32,0,2.71-.06,4a12.82,12.82,0,0,0,.4,3.93A11,11,0,0,0,286.2,137a10.42,10.42,0,0,0,3.51,1.5,15.62,15.62,0,0,0,3.82.3l7.69,0,14.89,0,51.5.2,34.73.17,9.44.08,2.45,0,.84,0s-.28,0-.84,0l-2.45,0-9.44,0H367.61l-51.5-.08-14.89,0-7.69,0a16.45,16.45,0,0,1-3.94-.3,11.18,11.18,0,0,1-3.69-1.58,11.51,11.51,0,0,1-4.7-6.47,13.06,13.06,0,0,1-.42-4.07c0-1.36,0-2.69.05-4.09a11.44,11.44,0,0,1,11.4-10.43l114.56.38,5.37,0a30.88,30.88,0,0,1,5.11.23,11.28,11.28,0,0,1,9,9.28,24.85,24.85,0,0,1,.14,3.91,27.92,27.92,0,0,1-.14,3.59,10.57,10.57,0,0,1-.92,3.13,10.89,10.89,0,0,1-3.42,4.23,11.5,11.5,0,0,1-3.56,1.81,11.34,11.34,0,0,1-2.42.41C415.35,139.43,415.07,139.42,415.07,139.42Z"/><path class="cls-19" d="M417.35,125.59c-.06,0-.05-.42-.25-1.14a4.73,4.73,0,0,0-1.75-2.51,4.55,4.55,0,1,0,0,7.3,4.7,4.7,0,0,0,1.76-2.51c.21-.71.2-1.14.26-1.14a.86.86,0,0,1,0,.31,3.47,3.47,0,0,1-.08.88,4.77,4.77,0,0,1-1.74,2.76,4.94,4.94,0,0,1-4.72.76,5,5,0,0,1,0-9.45,4.94,4.94,0,0,1,4.72.78,4.72,4.72,0,0,1,1.72,2.77,3.58,3.58,0,0,1,.09.88A.92.92,0,0,1,417.35,125.59Z"/><path class="cls-19" d="M420,133.85a18.18,18.18,0,0,1-4.27-4.65,9.58,9.58,0,0,1,2.33,2.14A9.44,9.44,0,0,1,420,133.85Z"/><path class="cls-32" d="M297.77,227.88a2.59,2.59,0,0,0-2.6,2.59v37.21a2.59,2.59,0,0,0,2.6,2.59H444.52V227.88Z"/><rect class="cls-37" x="238.33" y="379.67" width="165.84" height="42.4" rx="2.59"/><path class="cls-2" d="M270.42,416.07a17.15,17.15,0,1,1,7.65-18.66A17.1,17.1,0,0,1,270.42,416.07Z"/><line class="cls-6" x1="286.46" y1="390.01" x2="392.98" y2="390.01"/><line class="cls-6" x1="286.46" y1="397.3" x2="392.98" y2="397.3"/><line class="cls-6" x1="286.46" y1="404.58" x2="392.98" y2="404.58"/><line class="cls-6" x1="286.46" y1="411.86" x2="392.98" y2="411.86"/><rect class="cls-19" x="272.45" y="285.07" width="77.16" height="77.16" rx="5.34"/><rect class="cls-38" x="284.33" y="327.82" width="7.79" height="22.17"/><rect class="cls-39" x="294.92" y="332.52" width="8.78" height="17.47"/><rect class="cls-40" x="306.62" y="325.5" width="8.78" height="24.49"/><rect class="cls-41" x="318.32" y="318.97" width="8.78" height="31.02"/><rect class="cls-42" x="330.02" y="307.87" width="8.78" height="42.13"/><path class="cls-2" d="M335.78,301l.69.92,2.78-4.59-5.17,1.41.39.52.3.4L299.3,326.36l-16.5-12.22v2.19l16.51,12.16S335.78,301,335.78,301Z"/><rect class="cls-19" x="356.69" y="285.07" width="77.16" height="77.16" rx="10"/><path class="cls-43" d="M421.91,322l.65-.64c0-.42-.08-.84-.14-1.26l-.2.2-1.3,1.3-.41.4Z"/><path class="cls-44" d="M419.55,311l-1,1-1.1,1.1-1.3,1.3-1.1,1.1-1.3,1.3-.13.13c.13.34.25.69.35,1l.48-.47,1.3-1.3,1.1-1.1,1.3-1.3,1.1-1.1.8-.8C419.87,311.61,419.71,311.3,419.55,311Z"/><path class="cls-45" d="M420.74,313.59c-.13-.33-.27-.66-.41-1l-.51.51-1.3,1.3-1.1,1.1-1.3,1.3-1.1,1.1-.85.85c.09.38.17.77.25,1.15h0l1.3-1.29,1.1-1.1,1.3-1.3,1.1-1.1,1.3-1.3Z"/><path class="cls-46" d="M421.38,315.36c-.11-.35-.23-.7-.36-1l-.1.1-1.1,1.1-1.3,1.3-1.1,1.1-1.3,1.3-1.1,1.1-.45.45c.06.41.11.83.15,1.25l1-1,1.1-1.11,1.3-1.29,1.1-1.1,1.3-1.3Z"/><path class="cls-47" d="M419.51,322l1-1,1.1-1.11.68-.67c-.07-.39-.14-.79-.22-1.18l-1.16,1.16-1.1,1.1-1.3,1.3-.41.4Z"/><path class="cls-48" d="M418.29,308.84c-.18-.28-.36-.56-.56-.83l-.31.31-1.3,1.3-1.1,1.1-1.3,1.3-1.1,1.1-.57.57c.17.3.34.6.5.9l.77-.77,1.1-1.1,1.3-1.31,1.1-1.09,1.3-1.3Z"/><path class="cls-49" d="M419.2,310.34c-.17-.3-.34-.59-.52-.88l-.16.16-1.1,1.1-1.3,1.3-1.1,1.1-1.3,1.3-.84.84c.15.31.31.63.44,1h0l1.1-1.1,1.3-1.3,1.1-1.1,1.3-1.31Z"/><path class="cls-50" d="M417.11,322l1-1,1.1-1.11,1.3-1.29,1.1-1.1.28-.28c-.09-.37-.19-.74-.29-1.11l-.69.69-1.1,1.1-1.3,1.3-1.1,1.1-1.3,1.3-.4.4Z"/><path class="cls-51" d="M411.1,312.24c.2.27.37.56.56.84l.36-.36,1.3-1.31,1.1-1.09,1.3-1.3,1.1-1.11.49-.49c-.19-.26-.4-.52-.6-.78l-.59.58-1.1,1.1-1.3,1.3-1.1,1.1-1.3,1.3Z"/><path class="cls-52" d="M412,310.32l1.3-1.3,1.1-1.11,1.3-1.29.53-.54c-.16-.19-.33-.4-.51-.59l-5.57,5.57c.17.2.32.41.49.62l.26-.27Z"/><path class="cls-2" d="M375.79,323.65a19.53,19.53,0,0,1,17.88-19.43v-.07h1.62a19.32,19.32,0,0,1,12.58,4.6l5.57-5.58a27.15,27.15,0,0,0-18-6.89h-.29c-.41,0-.82,0-1.24,0l-.27,0c-.37,0-.73,0-1.08.08l-.33,0-1,.13-.27.05-1.14.2-.09,0a27.26,27.26,0,0,0-21.2,21.22v.08c-.08.37-.14.74-.2,1.11l0,.27c-.05.34-.09.68-.13,1l0,.34c0,.36-.06.71-.08,1.08l0,.29c0,.46,0,.91,0,1.38a27.15,27.15,0,0,0,6.91,18.16l5.58-5.57A19.36,19.36,0,0,1,375.79,323.65Z"/><path class="cls-53" d="M422.61,325.27h-7.89a19.49,19.49,0,0,1-32,13.26l-5.57,5.57a27.37,27.37,0,0,0,45.48-18.83Z"/><g id="u5Zjqx"><path class="cls-19" d="M303,89.28l-.29.29-.17.17a4,4,0,0,0-5.64,0l-.16-.16-.29-.29h0l0,0,.37-.33a4,4,0,0,1,.86-.54,4.59,4.59,0,0,1,1.13-.39l.57-.07h.5l.38,0a4.51,4.51,0,0,1,1,.25,4.58,4.58,0,0,1,.71.33,3.85,3.85,0,0,1,.67.47l.31.28Z"/><path class="cls-19" d="M297.85,90.66l-.46-.46a3.33,3.33,0,0,1,4.71,0l-.46.46a2.61,2.61,0,0,0-1.89-.78A2.65,2.65,0,0,0,297.85,90.66Z"/><path class="cls-19" d="M301.18,91.12l-.46.46a1.38,1.38,0,0,0-1.94,0l-.46-.45A2,2,0,0,1,301.18,91.12Z"/><path class="cls-19" d="M300.16,92a.41.41,0,0,1-.41.42.42.42,0,1,1,0-.84A.41.41,0,0,1,300.16,92Z"/></g><path class="cls-19" d="M274.48,90.17a1.21,1.21,0,1,1,1.21,1.2A1.21,1.21,0,0,1,274.48,90.17Z"/><path class="cls-19" d="M278.28,90.17a1.21,1.21,0,1,1,1.21,1.2A1.21,1.21,0,0,1,278.28,90.17Z"/><path class="cls-19" d="M282.08,90.17a1.21,1.21,0,1,1,1.2,1.2A1.21,1.21,0,0,1,282.08,90.17Z"/><path class="cls-19" d="M285.88,90.17a1.21,1.21,0,1,1,1.2,1.2A1.21,1.21,0,0,1,285.88,90.17Z"/><path class="cls-19" d="M289.67,90.17a1.21,1.21,0,1,1,1.21,1.2A1.21,1.21,0,0,1,289.67,90.17Z"/><path class="cls-19" d="M430.88,92.8h-9.82V88.25h9.82Zm-9.32-.5h8.82V88.75h-8.82Z"/><rect class="cls-19" x="421.88" y="89.03" width="6.33" height="3"/><rect class="cls-19" x="430.88" y="89.31" width="0.87" height="2.43"/></g><g id="right_hand" data-name="right hand"><rect class="cls-33" x="228.8" y="169.29" width="61.89" height="63.91" rx="3.34"/><path class="cls-54" d="M278.21,199.91a18.22,18.22,0,0,1-.2,4.9l3.6,2.78-3.17,6.83-4.45-1a18.41,18.41,0,0,1-3.61,3.32l.58,4.51-7.07,2.59-2.46-3.82a18.71,18.71,0,0,1-4.91-.21l-2.78,3.6-6.82-3.17,1-4.45a18.2,18.2,0,0,1-3.33-3.61l-4.5.58-2.59-7.06,3.82-2.47a18.22,18.22,0,0,1,.21-4.9l-3.6-2.78,3.17-6.83,4.44,1a18.41,18.41,0,0,1,3.61-3.32l-.58-4.51,7.07-2.59,2.47,3.82a18.65,18.65,0,0,1,4.9.21l2.78-3.6,6.82,3.17-.95,4.45a17.86,17.86,0,0,1,3.32,3.61l4.51-.58,2.58,7.06-3.82,2.47Zm-10.76-.77a8.07,8.07,0,1,0-4.81,10.35A8.08,8.08,0,0,0,267.45,199.14Z"/><path class="cls-15" d="M238.48,223.18c-3.14-.25-6.69-.65-9.58-1.11-6.37-1-31-3.94-31-3.94s-11.12,24.27-4.55,23.62,11.83-1.54,11.83-1.54,20.4-3,34.51-5C236.22,230.77,237.59,225.51,238.48,223.18Z"/><path class="cls-17" d="M258.23,235.46c1,.5,7,.74,8.46.7s8.19-2.86,8.19-2.86-6,0-6.88-.41-6.91-5-6.91-5,4.18-1,4.15-1.85-1.75-1.12-3.27-1.42-6-2.12-6.81-2.29a53.07,53.07,0,0,0-9,1.08,39.76,39.76,0,0,1-7.72-.21c-.89,2.33-2.26,7.59,1.17,12,7.15-1,12.68-1.79,13.12-1.79C254.08,233.43,257.18,235,258.23,235.46Z"/></g><rect class="cls-55" x="298.17" y="224.01" width="165.84" height="42.4" rx="2.59"/><path class="cls-2" d="M330.27,260.41a17.15,17.15,0,1,1,7.65-18.66A17.16,17.16,0,0,1,330.27,260.41Z"/><path class="cls-19" d="M326.47,243.86a5.22,5.22,0,1,1-5.22-5.22A5.22,5.22,0,0,1,326.47,243.86Z"/><path class="cls-19" d="M330.27,258.25v2.16a17.15,17.15,0,0,1-18,0v-2.15a9,9,0,0,1,18,0Z"/><line class="cls-6" x1="346.31" y1="234.35" x2="452.83" y2="234.35"/><line class="cls-6" x1="346.31" y1="241.64" x2="452.83" y2="241.64"/><line class="cls-6" x1="346.31" y1="248.92" x2="452.83" y2="248.92"/><line class="cls-6" x1="346.31" y1="256.2" x2="452.83" y2="256.2"/><g id="man"><g id="shoes"><path class="cls-12" d="M557.05,435.76l1.69,6.87s-9.31,9.38-10.52,10.05-7.22,3.84-7.48,7.69.13,4.71.74,4.71,17.32.41,22-1.14,15.1-4,15.37-4.86-3.64-25-3.64-25Z"/><path class="cls-10" d="M548.22,452.68c-1.22.67-7.22,3.84-7.48,7.69s.13,4.71.74,4.71,17.32.41,22-1.14,15.1-4,15.37-4.86c.17-.56-1.36-10.61-2.49-17.79,0,0-5.19,2.49-6.41,1.34s-11.25,0-11.25,0S549.43,452,548.22,452.68Z"/><path class="cls-13" d="M540.74,460.37c-.27,3.84.13,4.71.74,4.71s17.32.41,22-1.14,15.1-4,15.37-4.86a17.17,17.17,0,0,0-.24-2.66s-8.19,3.1-10.85,3.51-11,1.75-11,1.75a22.92,22.92,0,0,0-.7-5.87c-.88-4.31-7.89-3.13-7.89-3.13C547,453.35,541,456.52,540.74,460.37Z"/><g id="SHOES-2" data-name="SHOES"><path class="cls-56" d="M451.31,458.31c.92-3.28,2.63-8,5.06-8.83,3.79-1.32,23.21-7,23.79-9.27,0,0,5.89,1.59,6.31,3.11s8.74.12,8.74.12v.15l1.16,15.92a1.82,1.82,0,0,1-1.67,2.06H453.41A2.46,2.46,0,0,1,451.31,458.31Z"/><path class="cls-57" d="M486.47,443.32c-.42-1.52-6.31-3.11-6.31-3.11V427.8l17.29,4.05-2.24,11.59S486.88,444.84,486.47,443.32Z"/><path class="cls-58" d="M494.69,461.57H453.41a2.46,2.46,0,0,1-2.1-3.26c.92-3.28,2.63-8,5.06-8.83.58-.2,1.52-.51,2.71-.88.46,2.88.75,10,.75,10l36.43-.49.1,1.42A1.82,1.82,0,0,1,494.69,461.57Z"/></g></g><g id="pants"><path class="cls-10" d="M562.17,243.35s6,26.5,5,35.4-7.89,54.2-7.68,56.42,6.09,20.43,7.8,34,9.19,65.93,9.19,65.93-13.86,5.36-20.33,1.32c0,0-26.73-87.21-27.27-95.77S527,303.89,527,303.89s-16,31.82-15.91,36.74.68,23.8-2.56,35.26-10,57-10,57-16,1.08-20.09-4.72c0,0,4.49-86.36,6.46-96.07s21.59-82,21.59-82Z"/><path class="cls-11" d="M536.83,256.2a89.61,89.61,0,0,0-2.39-9.45l-28,3.42s-16.77,61.77-20.86,78.76c6-23.64,22.27-47.15,25.47-51s6.31,23.66,3.28,33.05c-2.49,7.69-3.1,23.44-3.24,28.9,1.08-6.73,15.84-36,15.84-36s1.76-21.7,1.76-28.38S536.83,256.2,536.83,256.2Z"/></g><g id="body"><path class="cls-15" d="M557.18,220.57s1.08-26.43,1.76-33.1-.27-16.25-3.37-21.37-29-13.15-29-13.15l-19.91,4.12s-13.16,7.81-18.54,12.26-17.94,38.7-20.37,41.13S455,217.38,455,217.38v20.85l15.51-6.61,34.65,13.59,1.35,5s12.54,5.32,22.51,7,33.17-13.81,33.17-13.81Zm-72.28-.27c1.92-1.32,10.77-14.77,10.77-14.77l5.21,17Z"/><path class="cls-16" d="M484.9,220.3c1.92-1.32,10.77-14.77,10.77-14.77a48,48,0,0,1-2.78-10.21,53.53,53.53,0,0,1-1.06-9.91s-12.75,29.12-19.12,30.64S455,217.38,455,217.38v20.85l15.51-6.61,11.2,4.4c2.55-4.43,5.59-9.88,8.18-15Z"/><path class="cls-16" d="M513.47,168.62l1.16-13.19-7.93,1.64s-3.91,2.32-8.33,5.15C501.69,167.88,513.47,168.62,513.47,168.62Z"/><path class="cls-16" d="M529,257.16a18.43,18.43,0,0,0,7.83-1c5.39-6,15.78-45.07,18.87-56.06l-26-7.89s-8.09,14.29-10.92,14.43-8.9.27-7.42.81,6.2,5.53,5.53,7.55-11.73,30.17-11.73,30.17l1.35,5S519,255.49,529,257.16Z"/></g><g id="head"><path class="cls-59" d="M488.29,125.58s9,26.76,12.64,26.36,4.85-1.22,4.85-1.22a43.22,43.22,0,0,1,.91,5.77c0,1.62.1,12,6.78,12.13S526.61,153,526.61,153s-7.08-18.91-7.08-20.23c0,0,2-.4,2.53-5.35s-3.13-13.15-7.48-13.76S486.26,110.75,488.29,125.58Z"/><path class="cls-60" d="M505.78,150.72s5.22-2.29,7.85-4.71l-7.21,8.06Z"/><path class="cls-18" d="M501.36,117.83a7,7,0,0,0-.2-4.36c-7.1.91-14,3.87-12.87,12.11,0,0,.37,1.12,1,2.89C492.18,127.84,499.74,125.48,501.36,117.83Z"/><path class="cls-10" d="M501.49,117.14s1.56,9.11,8.64,8.44c0,0,3,7.41,5.26,6.47.81-.34,1-8.22,1-8.22s.74-2.68,2.44-2.79a2.76,2.76,0,0,1,2.84,2s.77-12.61,0-13.52-3.31-1.72-3.31-1.72-1.11-5.21-3-5.77-4.1.31-5.51-.55a10,10,0,0,0-9.11-.46c-3.74,1.87-12,1.74-17.89,4.81s-7.13,5.13-5.21,11.31,7.68,10.78,12,9.62S499.37,123.14,501.49,117.14Z"/><path class="cls-18" d="M519.53,132.72a2.27,2.27,0,0,1-1.87-.32,2.44,2.44,0,0,0,2.12,1.38Z"/><path class="cls-14" d="M511.65,119.17c-4.45,2.84-8.3-3.33-10-6s-13.92,4.84-20,.35c-4.45-3.29-1.69-5.86.1-7-4.86,2.75-5.83,4.92-4,10.67,1.92,6.18,7.68,10.78,12,9.62s9.67-3.62,11.79-9.62c0,0,1.56,9.11,8.64,8.44,0,0,3,7.41,5.26,6.47.81-.34,1-8.22,1-8.22s.74-2.68,2.44-2.79a2.76,2.76,0,0,1,2.84,2s.23-3.87.31-7.48C521,120.81,516.06,116.37,511.65,119.17Z"/></g></g><g id="left_arm" data-name="left arm"><path class="cls-15" d="M529.68,192.25,519,225.56s-10.12-1.92-18.15-3l-16-2.22-14.34-1.82s-10.72-6.95-14.16-6.34-13.82,12.11-13.48,12.63a7.34,7.34,0,0,0,1.6,1.33s-.93,1,.54,2,4.44-1.24,4.44-1.24-.53.76.66,1.48,3.69-1.25,3.69-1.25a1.41,1.41,0,0,0,1.72,1c1.37-.32,3-3.15,4.65-2.19s10.27,5.76,10.27,5.76l34.65,13.59S522.47,251,529,249s21.71-30.74,26.7-48.81S533.16,181.37,529.68,192.25Z"/><path class="cls-61" d="M461.42,224H444.89c-1.27,1.46-2.07,2.53-2,2.68a7.34,7.34,0,0,0,1.6,1.33s-.93,1,.54,2,4.44-1.23,4.44-1.23-.53.76.66,1.48,3.69-1.26,3.69-1.26a1.41,1.41,0,0,0,1.72,1c1.37-.32,3-3.16,4.65-2.2l3.8,2.14V226.6A2.59,2.59,0,0,0,461.42,224Z"/><path class="cls-17" d="M470.56,218.48s-10.72-6.95-14.16-6.34-13.82,12.11-13.48,12.63a7.34,7.34,0,0,0,1.6,1.33s-.93,1,.54,2,4.44-1.24,4.44-1.24-.53.76.66,1.48,3.69-1.25,3.69-1.25a1.41,1.41,0,0,0,1.72,1c1.37-.32,3-3.15,4.65-2.19l6.84,3.84C471.61,224,470.56,218.48,470.56,218.48Z"/></g></g></g></g></svg>