<svg width="336" height="259" viewBox="0 0 336 259" fill="none" xmlns="http://www.w3.org/2000/svg">
<g opacity="0.45">
<path opacity="0.45" d="M208.565 99.7834C214.86 111.63 224.517 121.338 236.315 127.682C248.113 134.026 261.523 136.719 274.848 135.422C288.173 134.126 300.815 128.896 311.176 120.396C321.537 111.895 329.151 100.506 333.056 87.6666C336.961 74.8276 336.982 61.1159 333.114 48.2654C329.247 35.4149 321.667 24.0025 311.331 15.4715C300.995 6.94039 288.368 1.67369 275.047 0.337278C261.726 -0.99913 248.309 1.65477 236.492 7.96344C220.644 16.4268 208.799 30.8552 203.562 48.0747C198.325 65.2941 200.124 83.8942 208.565 99.7834V99.7834Z" fill="url(#paint0_linear)"/>
<g style="mix-blend-mode:multiply" opacity="0.1">
<path d="M213.811 27.6134C205.387 39.7343 201.676 54.5266 203.378 69.2014C205.081 83.8761 212.079 97.4194 223.054 107.278C234.029 117.136 248.222 122.628 262.957 122.718C277.692 122.809 291.95 117.491 303.045 107.768C314.139 98.0456 321.302 84.5892 323.184 69.9365C325.066 55.2837 321.536 40.4469 313.26 28.2236C304.983 16.0003 292.533 7.23492 278.256 3.58021C263.979 -0.0745063 248.861 1.63395 235.754 8.38345L236.512 7.96343C251.203 0.130985 268.257 -1.99954 284.416 1.97897C300.575 5.95748 314.705 15.7661 324.107 29.5304C333.508 43.2947 337.521 60.0495 335.38 76.5933C333.238 93.137 325.092 108.31 312.497 119.212C299.903 130.113 283.743 135.98 267.107 135.691C250.47 135.402 234.524 128.977 222.314 117.644C210.103 106.311 202.486 90.8646 200.918 74.2563C199.35 57.6481 203.94 41.0428 213.811 27.6134Z" fill="#8585AF"/>
</g>
<path opacity="0.33" d="M210.819 71.7234C222.07 92.8734 249.947 99.9934 273.086 87.6234C296.225 75.2534 305.9 48.0634 294.66 26.9334C283.419 5.80345 255.542 -1.33655 232.393 11.0634C209.243 23.4634 199.588 50.5835 210.819 71.7234Z" fill="#ADE1F7"/>
<path opacity="0.2" d="M217.302 49.9734C224.134 62.8334 241.1 67.1634 255.203 59.6434C269.306 52.1234 275.15 35.5834 268.318 22.7234C261.486 9.86343 244.521 5.52343 230.418 13.0534C216.314 20.5834 210.46 37.0634 217.302 49.9734Z" fill="#ADE1F7"/>
<g style="mix-blend-mode:multiply" opacity="0.3">
<g style="mix-blend-mode:multiply" opacity="0.3">
<path d="M311.645 102.723C310.737 99.3734 303.915 99.3534 298.2 103.563C292.485 107.773 294.34 113.833 298.2 114.843C302.06 115.853 313.989 111.473 311.645 102.723Z" fill="#3A69A2"/>
</g>
<g style="mix-blend-mode:multiply" opacity="0.3">
<path d="M248.65 116.583C249.208 113.583 246.076 109.733 241.04 108.583C236.003 107.433 231.295 109.143 230.507 113.743C229.719 118.343 235.255 122.743 239.603 121.493C243.952 120.243 247.981 120.173 248.65 116.583Z" fill="#3A69A2"/>
</g>
<g style="mix-blend-mode:multiply" opacity="0.3">
<path d="M298.26 121.733C297.552 119.213 291.976 120.963 291.926 124.393C291.876 127.823 299.038 124.533 298.26 121.733Z" fill="#3A69A2"/>
</g>
<g style="mix-blend-mode:multiply" opacity="0.3">
<path d="M281.703 122.753C280.636 123.953 277.424 125.203 276.716 121.753C276.008 118.303 285.094 118.963 281.703 122.753Z" fill="#3A69A2"/>
</g>
<g style="mix-blend-mode:multiply" opacity="0.3">
<path d="M257.696 127.363C255.293 127.643 251.921 127.793 251.423 124.553C250.924 121.313 258.135 121.553 259.701 123.203C261.267 124.853 259.851 127.113 257.696 127.363Z" fill="#3A69A2"/>
</g>
<g style="mix-blend-mode:multiply" opacity="0.3">
<path d="M222.788 52.0634C221.232 53.3034 216.514 53.6434 215.726 49.3734C214.938 45.1034 220.214 43.1934 222.788 44.0934C225.361 44.9934 227.595 48.2134 222.788 52.0634Z" fill="#3A69A2"/>
</g>
<g style="mix-blend-mode:multiply" opacity="0.3">
<path d="M230.437 30.4734C228.692 32.0134 222.179 32.8334 220.633 30.0234C219.087 27.2134 223.176 23.3334 228.492 22.9534C233.808 22.5734 236.631 24.9734 230.437 30.4734Z" fill="#3A69A2"/>
</g>
<g style="mix-blend-mode:multiply" opacity="0.3">
<path d="M270.552 21.3934C268.398 22.9234 262.085 21.9434 261.576 18.3434C261.067 14.7434 267.201 13.9434 270.552 15.1934C273.904 16.4434 274.492 18.6034 270.552 21.3934Z" fill="#3A69A2"/>
</g>
<g style="mix-blend-mode:multiply" opacity="0.3">
<path d="M285.623 12.5034C283.239 13.6034 279.768 13.2934 279.639 11.6134C279.509 9.93342 281.723 8.91342 284.187 9.14342C286.65 9.37342 288.516 11.1634 285.623 12.5034Z" fill="#3A69A2"/>
</g>
<g style="mix-blend-mode:multiply" opacity="0.3">
<path d="M316.173 27.2134C315.864 25.4934 314.049 26.8835 313.929 27.7735C313.809 28.6635 316.622 29.6834 316.173 27.2134Z" fill="#3A69A2"/>
</g>
<g style="mix-blend-mode:multiply" opacity="0.3">
<path d="M311.944 49.8934C312.503 48.4234 310.129 48.7734 310.019 49.8934C309.909 51.0134 311.555 51.0634 311.944 49.8934Z" fill="#3A69A2"/>
</g>
<g style="mix-blend-mode:multiply" opacity="0.3">
<path d="M318.078 85.1434C317.87 85.4508 317.563 85.6764 317.208 85.7814C316.852 85.8864 316.472 85.8643 316.131 85.7189C315.791 85.5735 315.511 85.3139 315.34 84.9845C315.17 84.6552 315.118 84.2765 315.195 83.9134C315.395 82.0034 318.856 83.8034 318.078 85.1434Z" fill="#3A69A2"/>
</g>
<g style="mix-blend-mode:multiply" opacity="0.3">
<path d="M321.529 100.303C321.21 100.853 319.534 101.463 319.395 99.5935C319.255 97.7235 322.327 98.9434 321.529 100.303Z" fill="#3A69A2"/>
</g>
<g style="mix-blend-mode:multiply" opacity="0.3">
<path d="M266.034 132.193C264.838 132.813 263.681 131.683 264.099 130.343C264.518 129.003 268.468 130.933 266.034 132.193Z" fill="#3A69A2"/>
</g>
<g style="mix-blend-mode:multiply" opacity="0.3">
<path d="M271.58 131.683C270.782 130.813 272.926 130.473 273.764 131.123C274.602 131.773 272.587 132.783 271.58 131.683Z" fill="#3A69A2"/>
</g>
<g style="mix-blend-mode:multiply" opacity="0.3">
<path d="M277.963 128.743C277.016 129.353 276.278 128.993 276.198 128.143C276.118 127.293 279.639 127.643 277.963 128.743Z" fill="#3A69A2"/>
</g>
<g style="mix-blend-mode:multiply" opacity="0.3">
<path d="M268.807 111.063C269.036 110.513 266.603 110.223 266.812 111.063C266.885 111.271 267.02 111.45 267.198 111.577C267.377 111.704 267.591 111.772 267.81 111.772C268.029 111.772 268.242 111.704 268.421 111.577C268.599 111.45 268.734 111.271 268.807 111.063V111.063Z" fill="#3A69A2"/>
</g>
<g style="mix-blend-mode:multiply" opacity="0.3">
<path d="M230.437 80.4834C230.437 79.2334 228.443 79.3134 228.323 80.4834C228.203 81.6534 230.447 81.7534 230.437 80.4834Z" fill="#3A69A2"/>
</g>
<g style="mix-blend-mode:multiply" opacity="0.3">
<path d="M219.586 60.3634C219.676 59.1034 217.242 59.0134 217.152 60.3634C217.063 61.7134 219.506 61.6234 219.586 60.3634Z" fill="#3A69A2"/>
</g>
<g style="mix-blend-mode:multiply" opacity="0.3">
<path d="M237.479 16.1534C237.658 14.6934 235.973 14.7234 235.723 16.1534C235.474 17.5834 237.399 16.8634 237.479 16.1534Z" fill="#3A69A2"/>
</g>
<g style="mix-blend-mode:multiply" opacity="0.3">
<path d="M249.238 15.6534C250.555 14.7234 248.57 13.8934 247.732 14.6534C246.894 15.4134 247.812 16.6634 249.238 15.6534Z" fill="#3A69A2"/>
</g>
<g style="mix-blend-mode:multiply" opacity="0.3">
<path d="M260.409 10.3434C261.247 9.92344 260.16 8.29343 259.062 9.10343C257.965 9.91343 259.571 10.7734 260.409 10.3434Z" fill="#3A69A2"/>
</g>
<g style="mix-blend-mode:multiply" opacity="0.3">
<path d="M266.453 5.63343C267.361 4.56343 265.366 4.87342 264.688 5.21342C264.01 5.55342 265.027 7.31343 266.453 5.63343Z" fill="#3A69A2"/>
</g>
<g style="mix-blend-mode:multiply" opacity="0.3">
<path d="M251.712 8.88343C252.55 7.14343 250.365 8.43343 250.535 8.88343C250.704 9.33343 251.712 8.88343 251.712 8.88343Z" fill="#3A69A2"/>
</g>
<g style="mix-blend-mode:multiply" opacity="0.3">
<path d="M266.284 9.06341C267.042 8.45341 265.635 8.40341 265.586 9.06341C265.536 9.72341 266.284 9.06341 266.284 9.06341Z" fill="#3A69A2"/>
</g>
<g style="mix-blend-mode:multiply" opacity="0.3">
<path d="M279.17 9.78343C279.569 9.49343 278.651 8.78342 278.172 9.31342C277.693 9.84342 278.452 10.3034 279.17 9.78343Z" fill="#3A69A2"/>
</g>
<g style="mix-blend-mode:multiply" opacity="0.3">
<path d="M294.67 20.0634C295.438 19.4534 293.164 18.6634 292.326 19.5034C291.488 20.3434 293.503 21.0634 294.67 20.0634Z" fill="#3A69A2"/>
</g>
</g>
</g>
<g style="mix-blend-mode:multiply" opacity="0.3">
<path d="M77.3585 52.4734C77.2587 51.9334 76.7002 52.3734 76.6603 52.6534C76.6204 52.9334 77.4981 53.2434 77.3585 52.4734Z" fill="#3A69A2"/>
</g>
<g style="mix-blend-mode:multiply" opacity="0.3">
<path d="M76.042 59.5335C76.2216 59.0735 75.4735 59.1835 75.4436 59.5335C75.4137 59.8835 75.9124 59.8835 76.042 59.5335Z" fill="#3A69A2"/>
</g>
<g style="mix-blend-mode:multiply" opacity="0.3">
<path d="M77.9565 70.5035C77.8909 70.5967 77.7955 70.6646 77.6861 70.6959C77.5767 70.7272 77.4599 70.7201 77.3551 70.6757C77.2503 70.6314 77.1638 70.5524 77.1099 70.452C77.056 70.3515 77.038 70.2356 77.0588 70.1235C77.1187 69.5235 78.1659 70.0635 77.9565 70.5035Z" fill="#3A69A2"/>
</g>
<g style="mix-blend-mode:multiply" opacity="0.3">
<path d="M79.0338 75.2234C78.9341 75.3934 78.3955 75.5834 78.3656 75.0034C78.3357 74.4234 79.2732 74.7934 79.0338 75.2234Z" fill="#3A69A2"/>
</g>
<path d="M133.831 152.263C133.831 152.263 123.178 169.543 108.337 179.703C108.337 179.703 99.9692 171.133 78.0366 180.033C78.0366 180.063 93.935 152.933 133.831 152.263Z" fill="url(#paint1_linear)"/>
<path d="M133.831 151.773C133.831 151.773 123.178 169.054 108.337 179.214C108.337 179.214 99.9692 170.643 78.0366 179.543C78.0366 179.573 93.935 152.443 133.831 151.773Z" fill="url(#paint2_linear)"/>
<path d="M268.847 172.403C268.847 172.403 307.974 130.753 303.756 94.1735C303.756 94.1735 278.721 72.1735 218.329 91.3835L268.847 172.403Z" fill="url(#paint3_linear)"/>
<path d="M235.603 136.211C221.654 113.781 213.637 93.5404 217.696 91.0026C221.756 88.4648 236.355 104.591 250.304 127.02C264.253 149.45 272.27 169.691 268.211 172.229C264.151 174.766 249.552 158.641 235.603 136.211Z" fill="#E06544"/>
<path d="M247.842 128.463C256.589 142.463 261.626 155.163 259.083 156.753L248.261 163.573C245.728 165.163 236.572 155.083 227.824 141.043C219.077 127.003 214.031 114.353 216.574 112.753L227.396 105.973C229.929 104.353 239.085 114.433 247.842 128.463Z" fill="#1E194F"/>
<path d="M95.1217 195.783L120.505 236.473C120.505 236.473 219.556 226.473 250.635 174.763C250.635 174.763 249.637 156.353 236.033 136.113C228.343 124.933 219.387 114.685 209.343 105.573C209.343 105.573 186.582 107.993 151.903 135.833C137.716 147.393 124.591 160.204 112.686 174.113C106.981 180.683 101.106 187.883 95.1217 195.783Z" fill="url(#paint4_linear)"/>
<path d="M95.1217 195.783L120.505 236.473C120.505 236.473 219.556 226.473 250.635 174.763C250.156 169.778 249.125 164.861 247.563 160.103C247.074 158.553 246.565 156.913 245.867 155.203C243.335 148.481 240.035 142.075 236.033 136.113C228.343 124.933 219.387 114.685 209.343 105.573C209.343 105.573 186.582 107.993 151.903 135.833C137.716 147.393 124.591 160.204 112.686 174.113C106.981 180.683 101.106 187.883 95.1217 195.783Z" fill="url(#paint5_linear)"/>
<path d="M87.5417 213.803C87.5417 213.803 85.7265 226.513 73.3489 220.003C60.9713 213.493 58.2085 198.943 37.4429 200.723C16.6773 202.503 3.94063 209.533 0.439791 203.893C0.439791 203.893 -4.86632 242.173 21.385 250.263C47.6362 258.353 49.1822 238.773 61.9188 252.773C74.6555 266.773 109.365 231.273 104.328 220.673C99.291 210.073 87.5417 213.803 87.5417 213.803Z" fill="url(#paint6_linear)"/>
<path d="M212.913 185.983C234.068 170.823 245.727 155.393 245.827 155.203C246.475 156.913 247.034 158.553 247.523 160.103C244.531 163.853 233.928 176.103 215.507 189.363C186.391 210.123 152.405 222.96 116.865 226.623L115.508 222.673C150.569 218.986 184.104 206.354 212.913 185.983V185.983Z" fill="#ADE1F7"/>
<path d="M93.5958 204.433L112.227 234.223C112.96 235.399 113.198 236.818 112.89 238.169C112.581 239.521 111.751 240.694 110.581 241.433V241.433C110.001 241.798 109.354 242.044 108.678 242.158C108.002 242.272 107.311 242.252 106.643 242.097C105.975 241.943 105.344 241.659 104.786 241.26C104.228 240.861 103.753 240.356 103.39 239.773L84.7689 209.983C84.4037 209.403 84.1566 208.756 84.0416 208.079C83.9267 207.402 83.9462 206.71 84.0992 206.041C84.2521 205.371 84.5354 204.739 84.9327 204.18C85.3301 203.621 85.8337 203.147 86.4146 202.783V202.783C86.9937 202.417 87.6392 202.17 88.3141 202.054C88.989 201.939 89.68 201.959 90.3473 202.112C91.0146 202.265 91.6451 202.549 92.2026 202.948C92.7601 203.346 93.2336 203.851 93.5958 204.433V204.433Z" fill="url(#paint7_linear)"/>
<path d="M98.1937 194.913L122.6 233.913C123.332 235.088 123.57 236.505 123.261 237.855C122.953 239.204 122.123 240.376 120.954 241.113C120.374 241.48 119.728 241.728 119.052 241.843C118.377 241.959 117.685 241.939 117.017 241.786C116.349 241.632 115.717 241.348 115.159 240.95C114.601 240.551 114.126 240.046 113.763 239.463L89.3568 200.463C88.9932 199.881 88.7475 199.233 88.6339 198.555C88.5203 197.877 88.5409 197.184 88.6947 196.514C88.8484 195.845 89.1323 195.212 89.53 194.653C89.9277 194.093 90.4315 193.618 91.0125 193.253C92.1847 192.52 93.5992 192.283 94.9455 192.594C96.2918 192.906 97.46 193.74 98.1937 194.913Z" fill="url(#paint8_linear)"/>
<path d="M171.273 183.793L168.59 180.203C168.59 180.203 162.605 183.493 160.68 183.803C151.434 185.263 137.74 190.983 126.6 210.323C126.6 210.323 128.245 226.453 95.6805 248.243C93.4164 249.763 76.2414 254.633 76.2414 254.633L78.9343 258.223C78.9343 258.223 176.549 245.633 171.273 183.793Z" fill="#1E194F"/>
<path d="M76.2811 254.633C76.2811 254.633 173.856 242.043 168.589 180.203C168.589 180.203 154.786 176.993 140.024 187.933C134.568 191.933 128.993 197.933 123.926 206.713C123.926 206.713 126.101 227.953 76.311 254.623L76.2811 254.633Z" fill="url(#paint9_linear)"/>
<path d="M248.869 154.053C248.927 154.729 249.183 155.373 249.605 155.902C250.027 156.432 250.597 156.825 251.242 157.03C251.886 157.236 252.577 157.245 253.227 157.057C253.877 156.869 254.457 156.492 254.893 155.973C255.329 155.455 255.602 154.818 255.678 154.144C255.753 153.471 255.628 152.789 255.317 152.187C255.007 151.584 254.525 151.088 253.933 150.759C253.341 150.431 252.665 150.287 251.991 150.343C251.543 150.381 251.107 150.507 250.707 150.714C250.308 150.921 249.953 151.205 249.663 151.55C249.373 151.894 249.154 152.293 249.018 152.722C248.881 153.152 248.831 153.604 248.869 154.053V154.053Z" fill="#ADE1F7"/>
<path d="M243.603 140.333C243.659 141.01 243.914 141.655 244.336 142.186C244.758 142.718 245.327 143.112 245.972 143.318C246.617 143.525 247.309 143.534 247.96 143.346C248.611 143.158 249.191 142.781 249.628 142.262C250.064 141.743 250.338 141.105 250.413 140.43C250.488 139.755 250.361 139.073 250.049 138.471C249.737 137.868 249.254 137.372 248.66 137.045C248.067 136.717 247.39 136.574 246.715 136.633C245.814 136.712 244.98 137.146 244.397 137.839C243.814 138.533 243.529 139.43 243.603 140.333V140.333Z" fill="#ADE1F7"/>
<path d="M234.756 126.933C234.812 127.61 235.067 128.255 235.489 128.786C235.91 129.318 236.48 129.712 237.125 129.918C237.77 130.125 238.462 130.134 239.113 129.946C239.764 129.758 240.344 129.381 240.781 128.862C241.217 128.342 241.49 127.705 241.565 127.03C241.64 126.355 241.514 125.673 241.202 125.071C240.89 124.468 240.407 123.972 239.813 123.645C239.22 123.317 238.543 123.174 237.868 123.233C236.967 123.312 236.133 123.746 235.55 124.439C234.967 125.133 234.681 126.03 234.756 126.933V126.933Z" fill="#ADE1F7"/>
<path d="M225.042 114.973C225.1 115.65 225.356 116.293 225.779 116.823C226.202 117.353 226.772 117.745 227.417 117.95C228.062 118.155 228.753 118.164 229.403 117.975C230.053 117.786 230.633 117.408 231.069 116.888C231.504 116.369 231.776 115.732 231.851 115.057C231.925 114.383 231.798 113.701 231.486 113.099C231.174 112.497 230.691 112.001 230.098 111.674C229.504 111.348 228.828 111.205 228.154 111.263C227.25 111.342 226.416 111.777 225.832 112.473C225.249 113.169 224.964 114.068 225.042 114.973Z" fill="#ADE1F7"/>
<path d="M76.2912 254.633C77.2886 254.293 142.009 232.273 140.024 187.933C134.569 191.933 128.993 197.934 123.927 206.714C123.907 206.724 126.041 227.963 76.2912 254.633Z" fill="#FE845A"/>
<path d="M67.9827 171.023C69.1596 170.133 74.715 169.513 76.9592 169.293L77.9565 172.843C77.9565 172.843 71.6929 181.463 71.4236 184.403C71.1543 187.343 72.5108 191.103 71.0247 191.513C69.9375 191.823 67.833 189.943 66.2871 186.313C66.4303 184.729 66.6768 183.156 67.0251 181.603C67.5039 179.813 66.4866 172.133 67.9827 171.023Z" fill="#403882"/>
<path d="M63.7639 169.573C63.7333 169.136 63.8749 168.703 64.1582 168.369C64.4415 168.034 64.8441 167.824 65.2799 167.783L76.321 166.903L76.9893 169.333C74.7152 169.553 69.1598 170.173 68.0128 171.063C66.5167 172.173 67.534 179.853 67.0154 181.643C66.6671 183.196 66.4205 184.769 66.2773 186.353C65.6615 184.886 65.2035 183.358 64.9109 181.793C64.2073 177.757 63.8238 173.671 63.7639 169.573V169.573Z" fill="#1E194F"/>
<path d="M81.0386 166.083L76.321 166.863C76.321 166.863 76.4706 172.344 77.5777 173.214L83.0933 173.593L81.0386 166.083Z" fill="#D17A62"/>
<path d="M126.32 119.813C126.32 119.813 125.253 129.903 126.32 133.903C126.966 136.301 127.975 138.584 129.312 140.673L113.962 162.293C113.962 162.293 105.983 162.493 100.358 162.883C94.7327 163.273 81.0486 166.083 81.0486 166.083C81.0486 166.083 81.3478 172.693 82.8738 173.583C82.8738 173.583 111.918 174.733 116.406 173.583C120.894 172.433 151.853 142.933 152.92 139.353C153.988 135.773 157.588 126.893 151.255 124.493C144.921 122.093 126.32 119.813 126.32 119.813Z" fill="#1E194F"/>
<path d="M176.698 184.573C176.443 181.783 176.443 178.974 176.698 176.183C176.611 176.024 176.5 175.879 176.369 175.753C176.468 175.611 176.589 175.486 176.728 175.383C177.905 174.573 183.281 177.693 183.281 177.693C183.281 177.693 187.849 186.263 189.884 186.493C191.919 186.723 198.491 186.713 199.429 188.223C200.017 189.163 196.058 190.883 192.198 191.983C189.793 191.257 187.353 190.653 184.887 190.173C181.795 189.693 177.177 187.783 176.698 184.573Z" fill="#403882"/>
<path d="M186.423 192.983C183.919 192.843 175.541 189.693 171.611 188.173C171.357 188.066 171.127 187.908 170.937 187.707C170.747 187.506 170.6 187.268 170.506 187.008C170.412 186.748 170.374 186.471 170.392 186.194C170.411 185.918 170.486 185.649 170.614 185.403C172.358 182.074 174.282 178.842 176.379 175.723C176.51 175.849 176.621 175.994 176.708 176.153C176.452 178.944 176.452 181.753 176.708 184.543C177.187 187.783 181.805 189.693 184.937 190.173C187.388 190.644 189.815 191.238 192.208 191.953C190.336 192.564 188.389 192.911 186.423 192.983V192.983Z" fill="#1E194F"/>
<path d="M176.728 171.023L175.811 176.693C175.811 176.693 180.618 179.353 183.79 178.613L186.882 171.393L176.728 171.023Z" fill="#FDA181"/>
<path d="M126.32 119.813C126.32 119.813 129.562 140.723 137.002 141.393C144.443 142.063 147.784 140.943 150.966 138.743C154.147 136.543 179.631 121.293 181.974 122.083C181.974 122.083 180.149 133.473 179.81 141.033C179.471 148.593 176.688 171.033 176.688 171.033C177.833 172.139 179.247 172.923 180.79 173.307C182.332 173.691 183.948 173.663 185.475 173.223C190.771 171.703 201.793 115.793 202.062 113.363C202.331 110.933 200.067 106.683 196.506 105.573C192.946 104.463 161.269 105.573 156.97 107.513C152.671 109.453 127.587 117.273 126.32 119.813Z" fill="url(#paint10_linear)"/>
<path d="M184.517 107.933C184.517 107.933 187.51 109.933 189.614 110.013C191.719 110.093 197.025 106.933 198.361 107.603C199.365 108.162 200.301 108.833 201.154 109.603C201.154 109.603 200.695 105.043 198.162 104.143C195.628 103.243 189.185 100.903 187.041 101.973C184.896 103.043 184.517 107.933 184.517 107.933Z" fill="#FDA181"/>
<path d="M216.275 28.4935C216.275 28.4935 220.773 25.6235 221.581 24.9435C223.307 23.7079 225.109 22.5823 226.977 21.5735C227.784 21.2235 233.729 18.6835 234.128 18.5735C234.527 18.4635 233.519 19.9735 231.345 20.8835C230.031 21.4376 228.84 22.2503 227.844 23.2735C227.844 23.2735 228.413 26.5535 228.143 26.9535C228.143 26.9535 229.081 26.7435 228.892 27.1935C228.702 27.6435 227.774 30.6235 226.897 31.0335C226.019 31.4435 222.997 31.2135 222.149 31.6535C221.215 32.4463 220.399 33.369 219.725 34.3935L216.275 28.4935Z" fill="#FDA181"/>
<path d="M153.678 56.3535C153.678 56.3535 183.679 45.9535 185.415 44.6735C188.567 42.3335 212.344 31.1935 213.671 30.3835C214.997 29.5735 214.479 27.9135 216.095 28.2735C217.71 28.6335 220.623 34.0635 219.945 34.5135C219.217 34.8479 218.563 35.3238 218.02 35.9135C217.571 36.5835 193.005 53.3035 191.09 54.6535C189.175 56.0035 164.889 70.8335 163.811 70.8335C162.734 70.8335 150.586 60.4635 153.678 56.3535Z" fill="#1A4382"/>
<path d="M164.091 59.8235C164.091 59.8235 166.953 70.7035 166.993 74.0035C167.033 77.3035 163.642 92.9435 164.091 97.6235C164.539 102.303 161.817 108.433 161.817 108.433C161.817 108.433 148.93 114.983 145.529 116.733C142.128 118.483 126.32 119.813 126.32 119.813C126.32 119.813 124.046 113.813 125.781 111.283C127.516 108.753 130.768 71.9135 133.162 67.8635C135.555 63.8135 151.883 51.4535 152.431 51.7235C152.98 51.9935 164.091 59.8235 164.091 59.8235Z" fill="#3159A8"/>
<path d="M156.022 49.8435C156.022 49.8435 153.299 49.3235 152.212 50.5535C151.125 51.7835 151.584 52.1435 151.584 52.1435C151.584 52.1435 154.935 56.7235 157.807 58.1435C160.68 59.5635 163.083 61.7435 164.46 61.2335C165.836 60.7235 166.076 58.2935 164.46 56.6035C162.844 54.9135 156.022 49.8435 156.022 49.8435Z" fill="#1A4382"/>
<path d="M146.627 59.0734C147.923 59.7534 163.512 81.7834 165.248 83.8834C166.983 85.9834 187.829 98.6634 187.948 100.463C187.948 100.463 190.811 100.803 191.09 102.343C191.369 103.883 185.854 109.693 184.906 109.263C183.959 108.833 182.912 106.833 182.912 106.833C182.912 106.833 153.987 95.6934 151.155 92.8334C148.322 89.9734 136.194 74.4934 135.964 70.5334C135.735 66.5734 143.874 57.6234 146.627 59.0734Z" fill="#1A4382"/>
<path d="M162.565 45.3435C161.807 45.0735 158.805 44.7035 159.074 42.7135C159.174 41.9435 158.645 41.5935 157.807 41.5735C159.124 37.1035 159.652 23.9835 174.134 27.4735C174.134 27.4735 178.563 36.6435 179.391 40.7335C180.219 44.8235 180.308 51.0535 178.393 51.3535C175.985 51.5094 173.57 51.5094 171.162 51.3535C171.162 51.3535 165.617 50.2935 164.948 49.9335C164.28 49.5735 163.333 45.5735 162.565 45.3435Z" fill="#FDA181"/>
<path d="M164.181 58.0935C163.313 60.7335 155.204 50.5535 155.204 50.5535L159.303 46.9835C159.303 46.9835 155.563 45.3435 157.309 42.6535C157.508 42.3178 157.656 41.9536 157.747 41.5735C158.585 41.5735 159.114 41.9435 159.014 42.7135C158.745 44.7135 161.747 45.0735 162.505 45.3435C163.263 45.6135 164.26 49.5735 164.929 49.9335C165.597 50.2935 171.142 51.3535 171.142 51.3535C171.142 51.3535 165.048 55.4635 164.181 58.0935Z" fill="#D17A62"/>
<path d="M154.885 38.7435C152.89 38.7435 153.688 35.0235 155.214 34.7435C156.74 34.4635 155.663 31.6335 155.214 28.9335C154.765 26.2335 155.035 19.8135 159.653 16.9335C161.707 15.8135 163.642 15.2035 165.228 15.4735C169.467 16.1835 178.793 14.0635 178.793 14.0635C178.793 14.0635 181.555 21.0635 179.62 24.8735C177.685 28.6835 164.141 30.5735 163.822 30.5735C163.503 30.5735 164.4 36.5735 162.884 38.0335C161.368 39.4935 161.358 43.2035 161.358 43.2035C161.358 43.2035 156.96 38.7435 154.885 38.7435Z" fill="#403882"/>
<path d="M157.768 42.7135C156.202 44.0035 157.768 46.2735 159.314 46.9835L156.561 49.3735C156.561 49.3735 147.873 45.8135 147.644 42.7135C147.415 39.6135 147.764 35.3835 149.968 34.8735C149.968 34.8735 144.981 29.6335 149.569 25.0135C152.561 21.8933 155.952 19.1831 159.653 16.9535C155.035 19.8535 154.765 26.2735 155.214 28.9535C155.663 31.6335 156.74 34.5235 155.214 34.7635C153.688 35.0035 152.85 38.7635 154.885 38.7635C156.92 38.7635 161.358 43.2535 161.358 43.2535C161.358 43.2535 159.343 41.4235 157.768 42.7135Z" fill="#1E194F"/>
<defs>
<linearGradient id="paint0_linear" x1="328.614" y1="33.5827" x2="208.755" y2="97.307" gradientUnits="userSpaceOnUse">
<stop stop-color="#6DCEF4"/>
<stop offset="1" stop-color="#ADE1F7"/>
</linearGradient>
<linearGradient id="paint1_linear" x1="-15542.6" y1="9466.05" x2="-11973.4" y2="9786.94" gradientUnits="userSpaceOnUse">
<stop offset="0.05" stop-color="#FBD15B"/>
<stop offset="1" stop-color="#F9A45A"/>
</linearGradient>
<linearGradient id="paint2_linear" x1="124.556" y1="143.921" x2="87.6225" y2="187.635" gradientUnits="userSpaceOnUse">
<stop stop-color="#FF936A"/>
<stop offset="0.21" stop-color="#FF9266"/>
<stop offset="0.4" stop-color="#FF8F5B"/>
<stop offset="0.58" stop-color="#FF8B49"/>
<stop offset="0.76" stop-color="#FF842F"/>
<stop offset="0.94" stop-color="#FF7C0E"/>
<stop offset="1" stop-color="#FF7800"/>
</linearGradient>
<linearGradient id="paint3_linear" x1="-3499.55" y1="20298.9" x2="-9616.52" y2="27691.1" gradientUnits="userSpaceOnUse">
<stop stop-color="#FAB85A"/>
<stop offset="0.31" stop-color="#FAB55A"/>
<stop offset="0.57" stop-color="#FBAB5A"/>
<stop offset="0.79" stop-color="#FC9A5A"/>
<stop offset="1" stop-color="#FE845A"/>
</linearGradient>
<linearGradient id="paint4_linear" x1="-25430.1" y1="39585.9" x2="-24058.5" y2="55608.1" gradientUnits="userSpaceOnUse">
<stop stop-color="#FF936A"/>
<stop offset="1" stop-color="#FF7800"/>
</linearGradient>
<linearGradient id="paint5_linear" x1="-28711" y1="43597.9" x2="-22028.5" y2="54804.3" gradientUnits="userSpaceOnUse">
<stop stop-color="#FAB85A"/>
<stop offset="0.31" stop-color="#FAB55A"/>
<stop offset="0.57" stop-color="#FBAB5A"/>
<stop offset="0.79" stop-color="#FC9A5A"/>
<stop offset="1" stop-color="#FE845A"/>
</linearGradient>
<linearGradient id="paint6_linear" x1="0.167557" y1="204.44" x2="94.1672" y2="248.401" gradientUnits="userSpaceOnUse">
<stop stop-color="#FF936A" stop-opacity="0.2"/>
<stop offset="0.15" stop-color="#FF936A" stop-opacity="0.21"/>
<stop offset="0.29" stop-color="#FF9269" stop-opacity="0.26"/>
<stop offset="0.43" stop-color="#FF9067" stop-opacity="0.34"/>
<stop offset="0.57" stop-color="#FF8E65" stop-opacity="0.44"/>
<stop offset="0.7" stop-color="#FF8C62" stop-opacity="0.58"/>
<stop offset="0.83" stop-color="#FE895F" stop-opacity="0.74"/>
<stop offset="0.96" stop-color="#FE855B" stop-opacity="0.94"/>
<stop offset="1" stop-color="#FE845A"/>
</linearGradient>
<linearGradient id="paint7_linear" x1="113.025" y1="222.103" x2="83.971" y2="222.103" gradientUnits="userSpaceOnUse">
<stop stop-color="#1E194F"/>
<stop offset="1" stop-color="#322C6E"/>
</linearGradient>
<linearGradient id="paint8_linear" x1="-7736.36" y1="19413.3" x2="-8952.68" y2="19413.3" gradientUnits="userSpaceOnUse">
<stop stop-color="#1E194F"/>
<stop offset="1" stop-color="#322C6E"/>
</linearGradient>
<linearGradient id="paint9_linear" x1="-26484.5" y1="32914.7" x2="-16405.1" y2="24133.7" gradientUnits="userSpaceOnUse">
<stop offset="0.05" stop-color="#FBD15B"/>
<stop offset="1" stop-color="#F9A45A"/>
</linearGradient>
<linearGradient id="paint10_linear" x1="127.527" y1="159.153" x2="205.772" y2="123.717" gradientUnits="userSpaceOnUse">
<stop stop-color="#232059"/>
<stop offset="1" stop-color="#403882"/>
</linearGradient>
</defs>
</svg>
