<svg width="177" height="268" viewBox="0 0 177 268" fill="none" xmlns="http://www.w3.org/2000/svg">
<path d="M46.06 250.922L96.2118 222.272C96.2118 222.272 96.3313 210.842 89.5806 211.842C82.83 212.842 46.06 236.642 46.06 236.642L43.3219 241.352L46.06 250.922Z" fill="#3A3277"/>
<path d="M24.5531 240.902L38.8608 233.442L34.908 226.152L22.1336 232.442L24.5531 240.902Z" fill="#3A3277"/>
<path d="M94.7778 164.912C94.7778 164.912 68.1139 159.402 20.501 206.332C17.514 209.332 0.000153533 224.612 0.000153533 224.612L1.07549 227.842C1.07549 227.842 37.3776 198.262 50.6 202.392C50.6199 202.432 87.1012 184.312 94.7778 164.912Z" fill="#0F4EA8"/>
<path d="M177 131.692C177 131.692 174.71 164.142 135.331 188.332C95.9526 212.522 43.2718 241.532 43.2718 241.532L24.0852 233.072L22.3627 224.612C22.3627 224.612 82.8595 177.432 98.0335 167.212C118.315 153.582 158.65 129.392 177 131.692Z" fill="#0F4EA8"/>
<path d="M94.7778 161.072C94.7778 161.072 60.3974 153.962 0.000153533 224.612C0.000153533 224.612 37.3975 194.462 50.62 198.612C50.62 198.592 87.1012 180.472 94.7778 161.072Z" fill="url(#paint0_linear)"/>
<path d="M22.3625 224.612L42.6244 233.442C42.6244 233.442 95.0264 204.582 134.286 180.522L135.281 179.882C139.636 177.215 143.555 174.549 147.04 171.882C175.138 150.672 176.91 131.682 176.91 131.682C161.557 129.762 130.831 140.452 109.334 151.992C105.132 154.242 101.289 156.532 97.9736 158.752C96.9779 159.432 95.8627 160.202 94.6978 161.062C72.4048 177.472 22.3625 224.612 22.3625 224.612Z" fill="url(#paint1_linear)"/>
<path d="M94.7779 161.072C119.212 159.942 134.286 180.522 134.286 180.522L135.282 179.882C139.636 177.215 143.556 174.549 147.041 171.882C128.362 150.072 110.022 151.882 109.374 151.992C105.173 154.242 101.329 156.532 98.0138 158.752C97.048 159.442 95.9428 160.212 94.7779 161.072Z" fill="#FE845A"/>
<path d="M134.286 180.522C134.286 180.522 188.719 209.002 61.2938 267.102V264.032C61.2938 264.032 73.6202 255.192 74.1778 254.582C86.2154 241.502 99.9755 221.812 82.8301 213.892V210.842C82.8301 210.842 111.386 180.672 134.286 180.522Z" fill="#0F4EA8"/>
<path d="M134.286 180.522C134.286 180.522 188.719 205.932 61.2938 264.032C61.2938 264.032 109.534 223.142 82.8301 210.822C82.8301 210.842 105.621 180.712 134.286 180.522Z" fill="url(#paint2_linear)"/>
<path d="M43.2715 241.532L42.6243 233.442L22.3624 224.612L24.0849 233.072L43.2715 241.532Z" fill="#0F4EA8"/>
<path d="M47.6329 245.272C48.3896 247.922 47.6827 250.452 46.0597 250.922C44.4368 251.392 42.5052 249.622 41.7485 246.922C40.9918 244.222 41.6987 241.742 43.3216 241.272C44.9446 240.802 46.8762 242.622 47.6329 245.272Z" fill="#0F4EA8"/>
<path d="M25.5289 236.042C26.196 238.382 25.758 240.552 24.5333 240.902C23.3086 241.252 21.7952 239.642 21.1281 237.302C20.461 234.962 20.9091 232.792 22.1238 232.442C23.3385 232.092 24.8619 233.702 25.5289 236.042Z" fill="#0F4EA8"/>
<path d="M127.804 152.672C127.804 153.672 129.556 154.502 131.717 154.502C133.877 154.502 135.64 153.682 135.64 152.672C135.64 151.662 133.887 150.852 131.717 150.852C129.546 150.852 127.804 151.672 127.804 152.672Z" fill="#FFD99C"/>
<path d="M127.804 144.232H135.64V152.682H127.804V144.232Z" fill="#FFD99C"/>
<path d="M127.804 144.232C127.804 145.232 129.556 146.052 131.717 146.052C133.877 146.052 135.64 145.232 135.64 144.232C135.64 143.232 133.887 142.402 131.717 142.402C129.546 142.402 127.804 143.222 127.804 144.232Z" fill="url(#paint3_linear)"/>
<path d="M112.098 99.914L132.563 143.832L130.877 144.625L110.412 100.707L112.098 99.914Z" fill="url(#paint4_linear)"/>
<path d="M114.691 106.462L113.616 106.962C112.989 107.249 112.276 107.277 111.629 107.039C110.982 106.801 110.455 106.317 110.161 105.692L103.032 90.5519C102.881 90.2309 102.797 89.8824 102.784 89.5277C102.772 89.1729 102.831 88.8193 102.958 88.4882C103.086 88.1571 103.279 87.8556 103.526 87.6018C103.773 87.348 104.069 87.1474 104.396 87.0119L105.491 86.5519C106.112 86.2888 106.81 86.2772 107.44 86.5195C108.069 86.7619 108.58 87.2393 108.867 87.8519L115.966 102.952C116.114 103.266 116.2 103.607 116.216 103.954C116.232 104.301 116.18 104.648 116.061 104.975C115.942 105.302 115.76 105.602 115.525 105.857C115.29 106.112 115.006 106.318 114.691 106.462V106.462Z" fill="url(#paint5_linear)"/>
<path d="M32.8372 150.512L11.0719 141.832L6.88009 143.092L11.6195 171.552L30.6865 184.782L33.9424 183.152L32.8372 150.512Z" fill="#D66243"/>
<path d="M29.5813 152.152L6.88009 143.092L8.36365 173.182L30.6865 184.782L29.5813 152.152Z" fill="#F4825D"/>
<path d="M25.2896 149.222C25.4261 149.232 25.5631 149.213 25.6921 149.167C25.821 149.121 25.9392 149.049 26.0392 148.955C26.1391 148.861 26.2188 148.748 26.2731 148.622C26.3274 148.495 26.3553 148.359 26.355 148.222C26.4048 145.582 26.1758 138.622 22.681 134.692C21.9325 133.838 21.0142 133.152 19.9852 132.676C18.9562 132.201 17.8395 131.947 16.707 131.932C16.1408 131.904 15.5753 131.999 15.0493 132.211C14.5233 132.424 14.0494 132.748 13.6602 133.162C11.3403 135.562 11.2009 140.892 11.2607 143.162C11.2604 143.299 11.288 143.434 11.3417 143.559C11.3955 143.684 11.4742 143.797 11.5731 143.891C11.672 143.985 11.7889 144.057 11.9166 144.104C12.0444 144.15 12.1804 144.17 12.3161 144.162V144.162C12.5679 144.144 12.8036 144.031 12.9755 143.845C13.1474 143.66 13.2426 143.416 13.242 143.162C13.1922 140.712 13.4412 136.232 15.084 134.532C15.2768 134.316 15.5156 134.146 15.7828 134.035C16.05 133.924 16.3387 133.875 16.6273 133.892C17.4887 133.907 18.3375 134.102 19.1194 134.465C19.9012 134.829 20.5989 135.352 21.1675 136.002C24.1545 139.372 24.3636 145.772 24.3338 148.172C24.333 148.424 24.4269 148.667 24.5967 148.852C24.7665 149.038 24.9998 149.152 25.2498 149.172L25.2896 149.222Z" fill="#1E194F"/>
<path d="M23.5771 146.842L20.4109 148.512V152.772C20.4091 153.072 20.3328 153.366 20.1888 153.629C20.0449 153.892 19.8379 154.114 19.5867 154.276C19.3355 154.438 19.0479 154.534 18.7502 154.556C18.4525 154.578 18.154 154.525 17.8819 154.402L15.4625 153.272C14.7708 152.953 14.1847 152.441 13.7736 151.798C13.3624 151.155 13.1434 150.406 13.1425 149.642V147.352C13.1403 146.829 13.2848 146.316 13.5596 145.873C13.8343 145.429 14.2281 145.071 14.6958 144.842L15.0741 144.642C15.491 144.435 15.9467 144.318 16.4116 144.299C16.8765 144.28 17.3401 144.359 17.7724 144.532L23.5771 146.842Z" fill="url(#paint6_linear)"/>
<path d="M105.691 185.522C104.117 186.522 86.982 185.252 86.5738 184.982C86.1655 184.712 85.8569 182.372 86.8824 181.522C87.5595 180.962 87.1015 177.832 86.7132 175.782C88.4649 175.295 90.2934 175.149 92.0997 175.352C92.0997 175.352 96.3711 180.442 99.1391 180.782C100.802 180.982 105.422 182.862 106.547 184.782C106.295 185.065 106.007 185.314 105.691 185.522Z" fill="#FFC560"/>
<path d="M50.63 218.212C48.3599 218.092 43.9491 214.262 43.7698 213.212C43.6205 212.372 43.9391 206.862 44.0586 204.852C46.6473 205.472 49.9529 206.562 49.9529 206.562C49.9529 206.562 49.8235 210.392 52.243 211.742C54.6625 213.092 59.3819 212.742 61.2936 215.392C61.6941 215.923 61.9698 216.539 62.1001 217.192C61.5435 217.566 60.9613 217.9 60.3577 218.192C57.6096 219.532 52.8503 218.332 50.63 218.212Z" fill="#FFC560"/>
<path d="M102.047 188.282C94.7582 189.682 84.1245 187.332 80.9583 186.542C80.6846 186.474 80.4445 186.309 80.2818 186.078C80.1191 185.846 80.0447 185.564 80.0721 185.282C80.2712 183.362 80.9981 179.222 83.6565 177.282C84.5803 176.613 85.6154 176.116 86.7132 175.812C87.1015 177.862 87.5595 180.992 86.8825 181.552C85.8868 182.402 86.1755 184.742 86.5738 185.012C86.9721 185.282 104.117 186.542 105.691 185.552C106.006 185.35 106.293 185.108 106.547 184.832C107.304 186.102 106.467 187.432 102.047 188.282Z" fill="#D17E2C"/>
<path d="M61.2939 219.622C61.2939 219.622 56.9328 223.972 47.3545 220.902C37.7762 217.832 36.5415 216.802 36.7904 216.292C37.0394 215.782 40.106 205.032 41.1316 204.522C42.1105 204.426 43.0985 204.542 44.029 204.862C43.9095 206.862 43.5909 212.382 43.7402 213.222C43.9194 214.222 48.3302 218.092 50.6004 218.222C52.8705 218.352 57.5701 219.542 60.3281 218.222C60.9316 217.93 61.5139 217.596 62.0705 217.222C62.1517 217.655 62.1232 218.102 61.9875 218.522C61.8518 218.941 61.6133 219.319 61.2939 219.622V219.622Z" fill="#D17E2C"/>
<path d="M51.7646 158.842C54.3832 156.692 42.694 133.192 38.8209 127.082C34.9477 120.972 37.0784 117.972 40.8122 115.222C43.3213 113.342 52.2226 106.112 57.6689 101.662C60.8849 101.492 62.9957 101.462 62.9957 101.462C62.9957 101.462 92.0095 121.332 94.8073 125.162C97.6051 128.992 92.0294 175.542 92.0294 175.542C91.2428 176.772 89.0424 177.542 86.9116 177.922C86.3441 173.852 82.929 149.322 83.0584 144.822C83.1779 139.912 83.0584 129.362 83.0584 129.362C83.0584 129.362 73.1515 122.292 69.4476 121.932C65.7437 121.572 54.8412 113.402 54.8412 113.402C55.1996 114.722 59.4013 126.562 59.4013 126.562C59.4013 126.562 63.165 149.982 63.4935 155.352C63.8221 160.722 50.1615 209.022 50.1615 209.022C48.6747 209.734 47.0661 210.155 45.4221 210.262C44.8254 210.302 44.2267 210.302 43.6299 210.262C43.6996 209.362 45.0538 191.702 45.0538 188.322C45.0538 184.942 49.136 160.982 51.7646 158.842Z" fill="#403882"/>
<path d="M69.4178 121.912C73.1217 122.272 83.0286 129.342 83.0286 129.342C83.0286 129.342 83.1481 139.892 83.0286 144.802C82.9191 149.302 86.3143 173.802 86.8818 177.902L86.1152 178.042C84.929 178.248 83.7324 178.389 82.5308 178.462C82.5308 178.462 80.639 155.232 79.7031 149.952C78.7671 144.672 78.3689 133.892 78.3689 133.892L59.4512 126.562C59.4512 126.562 55.2494 114.722 54.891 113.402C54.8412 113.402 65.7239 121.552 69.4178 121.912Z" fill="#1E194F"/>
<path d="M43.2717 177.142C43.6998 171.382 45.3227 160.402 44.8149 158.142C44.3072 155.882 40.7825 138.542 33.5042 131.512C26.2258 124.482 24.9115 110.012 24.9115 110.012C26.2955 103.962 47.5033 102.142 57.6392 101.612C52.1929 106.062 43.2916 113.292 40.7825 115.172C37.0786 117.922 34.9479 120.922 38.7912 127.032C42.6344 133.142 54.3535 156.642 51.7349 158.792C49.1162 160.942 45.044 184.792 45.044 188.282C45.044 191.772 43.6899 209.282 43.6202 210.222C42.0602 210.115 40.5371 209.697 39.1397 208.992C39.1397 208.992 42.8336 182.902 43.2717 177.142Z" fill="#1E194F"/>
<path d="M96.8982 89.9319C96.8982 89.9319 101.07 92.532 103.261 93.572C104.336 94.092 108.239 93.5119 109.055 93.4619C109.722 93.4619 108.528 92.1119 107.552 91.9619C106.669 91.9308 105.793 91.7931 104.943 91.5519C103.838 91.1019 102.952 91.1719 103.221 90.2719C103.49 89.3719 107.203 89.0119 107.741 88.9019C108.279 88.7919 110.419 89.6919 110.599 90.3619C110.778 91.0319 110.111 93.3619 111.146 93.9919C111.506 93.1738 111.777 92.3188 111.953 91.442C112.281 89.862 112.451 87.552 112.231 87.322C110.723 86.1972 109.128 85.1941 107.462 84.322C106.676 84.092 97.7843 83.1919 96.8982 83.2519C96.012 83.3119 96.8982 89.9319 96.8982 89.9319Z" fill="#FDA181"/>
<path d="M12.7345 123.232C12.7345 123.232 11.2808 130.672 11.2908 133.092C11.2908 134.642 13.4513 136.422 14.9747 136.612C16.4981 136.802 20.4111 135.292 20.4111 135.292C20.0387 134.973 19.7806 134.54 19.6763 134.06C19.572 133.579 19.6273 133.078 19.8336 132.632C20.7131 133.16 21.5578 133.745 22.3626 134.382C22.3626 134.382 22.6314 131.862 21.8349 130.712C21.0384 129.562 20.0526 128.102 20.0925 126.712C20.1323 125.322 20.2418 121.772 20.2418 121.772L12.7345 123.232Z" fill="#FDA181"/>
<path d="M60.656 43.842C60.656 43.842 65.007 46.272 68.8304 59.932C72.6538 73.592 73.6495 76.832 73.6495 76.832C81.7844 78.2891 89.7793 80.4471 97.5455 83.282C97.6223 85.5143 97.4047 87.747 96.8983 89.922C96.8983 89.922 68.3027 88.682 66.6798 86.922C65.0568 85.162 55.8369 62.032 55.9365 59.842C56.0361 57.652 57.3703 43.672 60.656 43.842Z" fill="#1A4382"/>
<path d="M29.9495 67.612C28.9539 57.912 24.1448 48.262 24.1448 48.262C24.1448 48.262 23.0296 50.262 21.4764 53.102C21.4764 49.562 21.7353 46.812 22.4024 46.622C23.5972 46.292 30.5967 42.882 33.514 41.452C33.514 41.452 39.4383 46.342 43.5603 45.862C47.6824 45.382 50.301 41.712 50.8387 41.452C51.3763 41.192 57.6789 42.312 60.2975 43.592L60.6858 43.852C64.559 46.702 63.4836 58.272 62.9958 60.422C62.5079 62.572 60.7456 78.762 61.8109 83.912C62.8763 89.062 62.9958 101.442 62.9958 101.442C62.9958 101.442 60.3971 103.442 56.972 105.622C56.972 105.622 37.4668 96.262 34.7885 93.262C32.1101 90.262 30.8755 77.322 29.9495 67.612Z" fill="#3159A8"/>
<path d="M50.8087 41.452C50.2711 41.712 47.6425 45.382 43.5304 45.862C39.4183 46.342 33.4841 41.452 33.4841 41.452L34.7585 40.822C42.6442 37.612 55.9364 40.822 60.2676 43.592C57.649 42.312 51.2568 41.232 50.8087 41.452Z" fill="#1A4382"/>
<path d="M24.3137 112.842C24.3137 112.842 23.4077 104.542 23.4375 102.642C23.4674 100.742 24.7917 72.922 23.0194 66.692C21.979 62.2475 21.4511 57.6976 21.4462 53.132C22.9994 50.292 24.1146 48.292 24.1146 48.292C24.1146 48.292 28.9536 57.912 29.9492 67.612C30.9449 77.312 32.0999 90.272 34.7882 93.262C37.4765 96.252 56.9717 105.622 56.9717 105.622C53.6836 107.862 50.1403 109.698 46.4176 111.092C39.7068 113.212 24.3137 112.842 24.3137 112.842Z" fill="#1A4382"/>
<path d="M22.3725 46.6219C22.3725 46.6219 16.3984 49.3519 14.4071 58.4219C12.4158 67.4919 12.0274 79.6019 12.1469 83.9219C12.2664 88.2419 12.7443 123.232 12.7443 123.232C12.7443 123.232 18.5491 124.532 20.1919 123.062C20.1919 123.062 23.5175 92.902 23.4478 87.632C23.3781 82.362 31.0547 51.7619 22.3725 46.6219Z" fill="#1A4382"/>
<path d="M52.2532 17.702C52.2532 17.702 55.748 13.252 53.7765 8.70197C51.8051 4.15197 49.525 11.452 52.2532 17.702Z" fill="#1E194F"/>
<path d="M35.2764 28.7119C35.1072 25.4319 42.4751 30.7119 45.5617 33.1119C42.7567 31.9254 39.868 30.9494 36.9193 30.1919C37.4669 33.1119 43.0824 37.8319 44.0682 38.5519C45.1635 39.0313 46.3483 39.27 47.5431 39.2519C47.7178 40.0319 48.1037 40.7483 48.6582 41.3219C48.6582 41.3219 46.6668 45.6719 42.2262 44.4719C39.528 43.7447 36.9933 42.5057 34.7587 40.8219C35.137 36.7968 35.3098 32.7548 35.2764 28.7119V28.7119Z" fill="#FDA181"/>
<path d="M46.876 34.152C46.876 34.152 46.3582 33.732 45.5518 33.152C46.2985 33.482 46.7963 33.842 46.876 34.152Z" fill="#D17A62"/>
<path d="M36.9192 30.192C39.8679 30.9494 42.7566 31.9254 45.5616 33.1119C46.3681 33.7319 46.8858 34.1119 46.8858 34.1119C46.9034 35.8321 47.124 37.544 47.543 39.2119C46.3482 39.23 45.1635 38.9913 44.0681 38.512C43.0824 37.842 37.4668 33.112 36.9192 30.192Z" fill="#D17A62"/>
<path d="M52.0337 10.992C52.0337 10.992 54.7319 27.2719 50.8887 33.5219C47.0454 39.7719 37.3974 32.992 35.9536 31.132C35.4808 30.4152 35.2344 29.5717 35.2467 28.712C35.2467 28.712 32.3394 28.9419 31.3736 25.3019C30.4078 21.6619 32.4688 19.472 34.5896 22.092C34.6194 22.092 35.3164 4.01195 52.0337 10.992Z" fill="#FDA181"/>
<path d="M36.9195 10.842C35.4758 11.322 25.6286 11.142 25.6286 10.182C25.6286 9.22195 25.0711 5.31195 28.4364 3.46195C28.9342 3.23195 29.4321 3.02195 30.0096 2.83195C30.2416 2.77991 30.4682 2.70626 30.6866 2.61195C34.3108 1.46195 38.5126 0.921948 40.9619 0.301948C46.3983 -1.08805 54.971 2.77195 54.971 2.77195C54.971 2.77195 56.8129 6.09197 53.2186 11.132C49.6242 16.172 39.6177 11.132 39.6177 11.132C39.211 10.9027 38.7621 10.7587 38.2983 10.7089C37.8344 10.659 37.3654 10.7043 36.9195 10.842V10.842Z" fill="#403882"/>
<path d="M30.687 2.57196C30.4686 2.66627 30.242 2.73993 30.01 2.79196L30.687 2.57196Z" fill="#1E194F"/>
<path d="M38.6519 14.732L36.2324 19.672V23.292L35.5155 24.482L34.6194 22.092C34.6194 22.092 31.1744 19.182 31.3536 24.012C31.5329 28.842 35.2766 28.712 35.2766 28.712C35.3592 30.7121 35.3293 32.7153 35.187 34.712C35.187 34.712 29.5017 30.152 29.0238 28.112C28.5459 26.072 23.2987 17.452 22.5221 15.412C21.7454 13.372 24.2545 10.852 24.2545 10.852C22.9602 7.11199 25.1407 4.85199 28.4363 3.41199C25.071 5.26199 25.6285 9.29199 25.6285 10.132C25.6285 10.972 35.4757 11.272 36.9194 10.792C37.3653 10.6543 37.8344 10.6091 38.2982 10.6589C38.762 10.7088 39.2109 10.8527 39.6177 11.082C38.2437 11.912 38.6519 14.732 38.6519 14.732Z" fill="#1E194F"/>
<defs>
<linearGradient id="paint0_linear" x1="94.7778" y1="192.742" x2="0.000152588" y2="192.742" gradientUnits="userSpaceOnUse">
<stop stop-color="#1251C2"/>
<stop offset="1" stop-color="#2E78ED"/>
</linearGradient>
<linearGradient id="paint1_linear" x1="-52618.1" y1="43922.7" x2="-67975.9" y2="55658.5" gradientUnits="userSpaceOnUse">
<stop offset="0.05" stop-color="#FBD15B"/>
<stop offset="1" stop-color="#F9A45A"/>
</linearGradient>
<linearGradient id="paint2_linear" x1="-30764.5" y1="42472.5" x2="-37944.3" y2="42472.5" gradientUnits="userSpaceOnUse">
<stop stop-color="#1251C2"/>
<stop offset="1" stop-color="#2E78ED"/>
</linearGradient>
<linearGradient id="paint3_linear" x1="135.64" y1="144.232" x2="127.804" y2="144.232" gradientUnits="userSpaceOnUse">
<stop stop-color="#10006A"/>
<stop offset="1" stop-color="#00072A"/>
</linearGradient>
<linearGradient id="paint4_linear" x1="-18149.5" y1="881.317" x2="-19223.3" y2="881.318" gradientUnits="userSpaceOnUse">
<stop stop-color="#10006A"/>
<stop offset="1" stop-color="#00072A"/>
</linearGradient>
<linearGradient id="paint5_linear" x1="116.215" y1="96.7719" x2="102.783" y2="96.7719" gradientUnits="userSpaceOnUse">
<stop stop-color="#FF936A"/>
<stop offset="1" stop-color="#FF7800"/>
</linearGradient>
<linearGradient id="paint6_linear" x1="23.5771" y1="149.412" x2="13.1425" y2="149.412" gradientUnits="userSpaceOnUse">
<stop stop-color="#FFB815"/>
<stop offset="1" stop-color="#FFCA3F"/>
</linearGradient>
</defs>
</svg>
