<svg width="472" height="230" viewBox="0 0 472 230" fill="none" xmlns="http://www.w3.org/2000/svg">
<path *ngIf="!iconOnly" d="M308.938 128.688C308.229 138.479 304.604 146.188 298.062 151.812C291.562 157.438 282.979 160.25 272.312 160.25C260.646 160.25 251.458 156.333 244.75 148.5C238.083 140.625 234.75 129.833 234.75 116.125V110.562C234.75 101.812 236.292 94.1042 239.375 87.4375C242.458 80.7708 246.854 75.6667 252.562 72.125C258.312 68.5417 264.979 66.75 272.562 66.75C283.062 66.75 291.521 69.5625 297.938 75.1875C304.354 80.8125 308.062 88.7083 309.062 98.875H290.312C289.854 93 288.208 88.75 285.375 86.125C282.583 83.4583 278.312 82.125 272.562 82.125C266.312 82.125 261.625 84.375 258.5 88.875C255.417 93.3333 253.833 100.271 253.75 109.688V116.562C253.75 126.396 255.229 133.583 258.188 138.125C261.188 142.667 265.896 144.938 272.312 144.938C278.104 144.938 282.417 143.625 285.25 141C288.125 138.333 289.771 134.229 290.188 128.688H308.938ZM368.438 135.125C368.438 131.583 367.188 128.875 364.688 127C362.188 125.083 357.688 123.083 351.188 121C344.688 118.875 339.542 116.792 335.75 114.75C325.417 109.167 320.25 101.646 320.25 92.1875C320.25 87.2708 321.625 82.8958 324.375 79.0625C327.167 75.1875 331.146 72.1667 336.312 70C341.521 67.8333 347.354 66.75 353.812 66.75C360.312 66.75 366.104 67.9375 371.188 70.3125C376.271 72.6458 380.208 75.9583 383 80.25C385.833 84.5417 387.25 89.4167 387.25 94.875H368.5C368.5 90.7083 367.188 87.4792 364.562 85.1875C361.938 82.8542 358.25 81.6875 353.5 81.6875C348.917 81.6875 345.354 82.6667 342.812 84.625C340.271 86.5417 339 89.0833 339 92.25C339 95.2083 340.479 97.6875 343.438 99.6875C346.438 101.688 350.833 103.562 356.625 105.312C367.292 108.521 375.062 112.5 379.938 117.25C384.812 122 387.25 127.917 387.25 135C387.25 142.875 384.271 149.062 378.312 153.562C372.354 158.021 364.333 160.25 354.25 160.25C347.25 160.25 340.875 158.979 335.125 156.438C329.375 153.854 324.979 150.333 321.938 145.875C318.938 141.417 317.438 136.25 317.438 130.375H336.25C336.25 140.417 342.25 145.438 354.25 145.438C358.708 145.438 362.188 144.542 364.688 142.75C367.188 140.917 368.438 138.375 368.438 135.125ZM447.188 135.125C447.188 131.583 445.938 128.875 443.438 127C440.938 125.083 436.438 123.083 429.938 121C423.438 118.875 418.292 116.792 414.5 114.75C404.167 109.167 399 101.646 399 92.1875C399 87.2708 400.375 82.8958 403.125 79.0625C405.917 75.1875 409.896 72.1667 415.062 70C420.271 67.8333 426.104 66.75 432.562 66.75C439.062 66.75 444.854 67.9375 449.938 70.3125C455.021 72.6458 458.958 75.9583 461.75 80.25C464.583 84.5417 466 89.4167 466 94.875H447.25C447.25 90.7083 445.938 87.4792 443.312 85.1875C440.688 82.8542 437 81.6875 432.25 81.6875C427.667 81.6875 424.104 82.6667 421.562 84.625C419.021 86.5417 417.75 89.0833 417.75 92.25C417.75 95.2083 419.229 97.6875 422.188 99.6875C425.188 101.688 429.583 103.562 435.375 105.312C446.042 108.521 453.812 112.5 458.688 117.25C463.562 122 466 127.917 466 135C466 142.875 463.021 149.062 457.062 153.562C451.104 158.021 443.083 160.25 433 160.25C426 160.25 419.625 158.979 413.875 156.438C408.125 153.854 403.729 150.333 400.688 145.875C397.688 141.417 396.188 136.25 396.188 130.375H415C415 140.417 421 145.438 433 145.438C437.458 145.438 440.938 144.542 443.438 142.75C445.938 140.917 447.188 138.375 447.188 135.125Z" fill="black"/>
<path d="M72.1292 197.727L155.377 170.07L183 32H27.069L21.1379 62.8073H146.101L142.21 82.4769H17.0576L10.9371 113.284H135.908L129.044 148.548L78.6142 165.059L35.0409 148.548L38.0147 133.144H7.23636L0 170.07L72.1292 197.727Z" fill="black"/>
</svg>
