<svg width="530" height="179" viewBox="0 0 530 179" fill="none" xmlns="http://www.w3.org/2000/svg">
<path d="M262.438 133H243.688V42H262.438V133ZM275.875 98.5625C275.875 91.8542 277.167 85.875 279.75 80.625C282.333 75.375 286.042 71.3125 290.875 68.4375C295.75 65.5625 301.396 64.125 307.812 64.125C316.938 64.125 324.375 66.9167 330.125 72.5C335.917 78.0833 339.146 85.6667 339.812 95.25L339.938 99.875C339.938 110.25 337.042 118.583 331.25 124.875C325.458 131.125 317.688 134.25 307.938 134.25C298.188 134.25 290.396 131.125 284.562 124.875C278.771 118.625 275.875 110.125 275.875 99.375V98.5625ZM293.938 99.875C293.938 106.292 295.146 111.208 297.562 114.625C299.979 118 303.438 119.688 307.938 119.688C312.312 119.688 315.729 118.021 318.188 114.688C320.646 111.312 321.875 105.938 321.875 98.5625C321.875 92.2708 320.646 87.3958 318.188 83.9375C315.729 80.4792 312.271 78.75 307.812 78.75C303.396 78.75 299.979 80.4792 297.562 83.9375C295.146 87.3542 293.938 92.6667 293.938 99.875ZM367.688 65.375L368.25 73.1875C373.083 67.1458 379.562 64.125 387.688 64.125C394.854 64.125 400.188 66.2292 403.688 70.4375C407.188 74.6458 408.979 80.9375 409.062 89.3125V133H391V89.75C391 85.9167 390.167 83.1458 388.5 81.4375C386.833 79.6875 384.062 78.8125 380.188 78.8125C375.104 78.8125 371.292 80.9792 368.75 85.3125V133H350.688V65.375H367.688ZM441.875 133H423.75V65.375H441.875V133ZM422.688 47.875C422.688 45.1667 423.583 42.9375 425.375 41.1875C427.208 39.4375 429.688 38.5625 432.812 38.5625C435.896 38.5625 438.354 39.4375 440.188 41.1875C442.021 42.9375 442.938 45.1667 442.938 47.875C442.938 50.625 442 52.875 440.125 54.625C438.292 56.375 435.854 57.25 432.812 57.25C429.771 57.25 427.312 56.375 425.438 54.625C423.604 52.875 422.688 50.625 422.688 47.875ZM484.938 119.688C488.271 119.688 490.979 118.771 493.062 116.938C495.146 115.104 496.229 112.667 496.312 109.625H513.25C513.208 114.208 511.958 118.417 509.5 122.25C507.042 126.042 503.667 129 499.375 131.125C495.125 133.208 490.417 134.25 485.25 134.25C475.583 134.25 467.958 131.188 462.375 125.062C456.792 118.896 454 110.396 454 99.5625V98.375C454 87.9583 456.771 79.6458 462.312 73.4375C467.854 67.2292 475.458 64.125 485.125 64.125C493.583 64.125 500.354 66.5417 505.438 71.375C510.562 76.1667 513.167 82.5625 513.25 90.5625H496.312C496.229 87.0625 495.146 84.2292 493.062 82.0625C490.979 79.8542 488.229 78.75 484.812 78.75C480.604 78.75 477.417 80.2917 475.25 83.375C473.125 86.4167 472.062 91.375 472.062 98.25V100.125C472.062 107.083 473.125 112.083 475.25 115.125C477.375 118.167 480.604 119.688 484.938 119.688Z" fill="black"/>
<path d="M170.962 52.408L170.201 50.6908L168.92 52.0836C165.885 55.5523 162.032 58.2077 157.71 59.8086L156.508 60.2728L157.005 61.4363C160.713 70.3157 162.614 79.8445 162.599 89.4666C162.599 129.786 129.82 162.594 89.472 162.594C49.1243 162.594 16.3729 129.814 16.3729 89.4946C16.3729 49.1748 49.2138 16.3675 89.5 16.3675C100.458 16.3675 111.002 18.7337 120.819 23.4212L121.983 23.975L122.481 22.8339C124.285 18.5943 127.117 14.8706 130.72 11.9988L132.18 10.8073L130.519 9.93469C117.842 3.37799 103.772 -0.0295654 89.5 0.00019325C40.1463 0.00019325 0 40.1465 0 89.5002C0 138.882 40.1463 179 89.5 179C138.882 179 179 138.882 179 89.5002C179 76.5954 176.321 64.1269 170.962 52.408ZM89.5 48.7106C78.6851 48.7209 68.3161 53.0217 60.6688 60.669C53.0215 68.3163 48.7207 78.6853 48.7104 89.5002C48.7207 100.315 53.0215 110.684 60.6688 118.331C68.3161 125.979 78.6851 130.279 89.5 130.29C100.315 130.279 110.684 125.979 118.331 118.331C125.978 110.684 130.279 100.315 130.29 89.5002C130.279 78.6853 125.978 68.3163 118.331 60.669C110.684 53.0217 100.315 48.7209 89.5 48.7106ZM166.649 33.7361C166.65 36.1778 166.171 38.5958 165.237 40.852C164.304 43.1082 162.935 45.1583 161.208 46.8851C159.482 48.6119 157.432 49.9815 155.176 50.9158C152.921 51.85 150.503 52.3305 148.061 52.3297C145.617 52.3334 143.196 51.8552 140.937 50.9224C138.678 49.9896 136.625 48.6206 134.895 46.8937C133.166 45.1667 131.794 43.1157 130.857 40.858C129.921 38.6003 129.439 36.1802 129.439 33.7361C129.439 8.9446 166.649 8.9446 166.649 33.7361Z" fill="black"/>
</svg>
