<svg width="732" height="230" viewBox="0 0 732 230" fill="none" xmlns="http://www.w3.org/2000/svg">
<path d="M326 140.25H293.125L286.875 159H266.938L300.812 68H318.188L352.25 159H332.312L326 140.25ZM298.188 125.062H320.938L309.5 91L298.188 125.062ZM373.188 91.375L373.75 99.1875C378.583 93.1458 385.062 90.125 393.188 90.125C400.354 90.125 405.688 92.2292 409.188 96.4375C412.688 100.646 414.479 106.938 414.562 115.312V159H396.5V115.75C396.5 111.917 395.667 109.146 394 107.438C392.333 105.688 389.562 104.812 385.688 104.812C380.604 104.812 376.792 106.979 374.25 111.312V159H356.188V91.375H373.188ZM425.688 124.688C425.688 114.312 428.146 105.958 433.062 99.625C438.021 93.2917 444.688 90.125 453.062 90.125C460.479 90.125 466.25 92.6667 470.375 97.75L471.125 91.375H487.5V156.75C487.5 162.667 486.146 167.812 483.438 172.188C480.771 176.562 477 179.896 472.125 182.188C467.25 184.479 461.542 185.625 455 185.625C450.042 185.625 445.208 184.625 440.5 182.625C435.792 180.667 432.229 178.125 429.812 175L437.812 164C442.312 169.042 447.771 171.562 454.188 171.562C458.979 171.562 462.708 170.271 465.375 167.688C468.042 165.146 469.375 161.521 469.375 156.812V153.188C465.208 157.896 459.729 160.25 452.938 160.25C444.812 160.25 438.229 157.083 433.188 150.75C428.188 144.375 425.688 135.938 425.688 125.438V124.688ZM443.75 126C443.75 132.125 444.979 136.938 447.438 140.438C449.896 143.896 453.271 145.625 457.562 145.625C463.062 145.625 467 143.562 469.375 139.438V111C466.958 106.875 463.062 104.812 457.688 104.812C453.354 104.812 449.938 106.583 447.438 110.125C444.979 113.667 443.75 118.958 443.75 126ZM541.938 152.125C537.479 157.542 531.312 160.25 523.438 160.25C516.188 160.25 510.646 158.167 506.812 154C503.021 149.833 501.083 143.729 501 135.688V91.375H519.062V135.062C519.062 142.104 522.271 145.625 528.688 145.625C534.812 145.625 539.021 143.5 541.312 139.25V91.375H559.438V159H542.438L541.938 152.125ZM592.125 159H574V63H592.125V159ZM646.25 159C645.417 157.375 644.812 155.354 644.438 152.938C640.062 157.812 634.375 160.25 627.375 160.25C620.75 160.25 615.25 158.333 610.875 154.5C606.542 150.667 604.375 145.833 604.375 140C604.375 132.833 607.021 127.333 612.312 123.5C617.646 119.667 625.333 117.729 635.375 117.688H643.688V113.812C643.688 110.688 642.875 108.188 641.25 106.312C639.667 104.438 637.146 103.5 633.688 103.5C630.646 103.5 628.25 104.229 626.5 105.688C624.792 107.146 623.938 109.146 623.938 111.688H605.875C605.875 107.771 607.083 104.146 609.5 100.812C611.917 97.4792 615.333 94.875 619.75 93C624.167 91.0833 629.125 90.125 634.625 90.125C642.958 90.125 649.562 92.2292 654.438 96.4375C659.354 100.604 661.812 106.479 661.812 114.062V143.375C661.854 149.792 662.75 154.646 664.5 157.938V159H646.25ZM631.312 146.438C633.979 146.438 636.438 145.854 638.688 144.688C640.938 143.479 642.604 141.875 643.688 139.875V128.25H636.938C627.896 128.25 623.083 131.375 622.5 137.625L622.438 138.688C622.438 140.938 623.229 142.792 624.812 144.25C626.396 145.708 628.562 146.438 631.312 146.438ZM713.688 108.312C711.229 107.979 709.062 107.812 707.188 107.812C700.354 107.812 695.875 110.125 693.75 114.75V159H675.688V91.375H692.75L693.25 99.4375C696.875 93.2292 701.896 90.125 708.312 90.125C710.312 90.125 712.188 90.3958 713.938 90.9375L713.688 108.312Z" fill="black"/>
<path d="M79.7144 120.992H115.357L97.5358 78.6734L79.7144 120.992ZM97.5358 12L0 46.3297L14.8587 173.615L97.5358 218.864L180.245 173.686L195.104 46.3297L97.5358 12.0323V12ZM158.413 169.812H135.669L123.404 139.622H71.6544L59.3896 169.812H36.6455L97.5229 34.8412L158.413 169.812Z" fill="black"/>
</svg>
